G04 #@! TF.GenerationSoftware,KiCad,Pcbnew,5.0.0-rc2-dev-unknown-0ded476~63~ubuntu17.10.1*
G04 #@! TF.CreationDate,2018-04-08T11:22:16-07:00*
G04 #@! TF.ProjectId,Half_Shield,48616C665F536869656C642E6B696361,rev?*
G04 #@! TF.SameCoordinates,Original*
G04 #@! TF.FileFunction,Legend,Bot*
G04 #@! TF.FilePolarity,Positive*
%FSLAX46Y46*%
G04 Gerber Fmt 4.6, Leading zero omitted, Abs format (unit mm)*
G04 Created by KiCad (PCBNEW 5.0.0-rc2-dev-unknown-0ded476~63~ubuntu17.10.1) date Sun Apr  8 11:22:16 2018*
%MOMM*%
%LPD*%
G01*
G04 APERTURE LIST*
%ADD10C,0.200000*%
%ADD11C,0.300000*%
%ADD12C,0.120000*%
%ADD13C,0.150000*%
G04 APERTURE END LIST*
D10*
X177462771Y-40595800D02*
X177510390Y-40738657D01*
X177558009Y-40786276D01*
X177653247Y-40833895D01*
X177796104Y-40833895D01*
X177891342Y-40786276D01*
X177938961Y-40738657D01*
X177986580Y-40643419D01*
X177986580Y-40262466D01*
X176986580Y-40262466D01*
X176986580Y-40595800D01*
X177034200Y-40691038D01*
X177081819Y-40738657D01*
X177177057Y-40786276D01*
X177272295Y-40786276D01*
X177367533Y-40738657D01*
X177415152Y-40691038D01*
X177462771Y-40595800D01*
X177462771Y-40262466D01*
X177986580Y-41405323D02*
X177938961Y-41310085D01*
X177891342Y-41262466D01*
X177796104Y-41214847D01*
X177510390Y-41214847D01*
X177415152Y-41262466D01*
X177367533Y-41310085D01*
X177319914Y-41405323D01*
X177319914Y-41548180D01*
X177367533Y-41643419D01*
X177415152Y-41691038D01*
X177510390Y-41738657D01*
X177796104Y-41738657D01*
X177891342Y-41691038D01*
X177938961Y-41643419D01*
X177986580Y-41548180D01*
X177986580Y-41405323D01*
X177319914Y-42595800D02*
X177986580Y-42595800D01*
X177319914Y-42167228D02*
X177843723Y-42167228D01*
X177938961Y-42214847D01*
X177986580Y-42310085D01*
X177986580Y-42452942D01*
X177938961Y-42548180D01*
X177891342Y-42595800D01*
X177986580Y-43071990D02*
X177319914Y-43071990D01*
X177510390Y-43071990D02*
X177415152Y-43119609D01*
X177367533Y-43167228D01*
X177319914Y-43262466D01*
X177319914Y-43357704D01*
X177319914Y-43691038D02*
X177986580Y-43691038D01*
X177415152Y-43691038D02*
X177367533Y-43738657D01*
X177319914Y-43833895D01*
X177319914Y-43976752D01*
X177367533Y-44071990D01*
X177462771Y-44119609D01*
X177986580Y-44119609D01*
X177938961Y-44548180D02*
X177986580Y-44643419D01*
X177986580Y-44833895D01*
X177938961Y-44929133D01*
X177843723Y-44976752D01*
X177796104Y-44976752D01*
X177700866Y-44929133D01*
X177653247Y-44833895D01*
X177653247Y-44691038D01*
X177605628Y-44595800D01*
X177510390Y-44548180D01*
X177462771Y-44548180D01*
X177367533Y-44595800D01*
X177319914Y-44691038D01*
X177319914Y-44833895D01*
X177367533Y-44929133D01*
X179686580Y-39048180D02*
X178686580Y-39048180D01*
X178686580Y-39429133D01*
X178734200Y-39524371D01*
X178781819Y-39571990D01*
X178877057Y-39619609D01*
X179019914Y-39619609D01*
X179115152Y-39571990D01*
X179162771Y-39524371D01*
X179210390Y-39429133D01*
X179210390Y-39048180D01*
X178686580Y-39905323D02*
X178686580Y-40476752D01*
X179686580Y-40191038D02*
X178686580Y-40191038D01*
X178686580Y-40667228D02*
X179686580Y-41000561D01*
X178686580Y-41333895D01*
X178686580Y-41857704D02*
X178686580Y-41952942D01*
X178734200Y-42048180D01*
X178781819Y-42095800D01*
X178877057Y-42143419D01*
X179067533Y-42191038D01*
X179305628Y-42191038D01*
X179496104Y-42143419D01*
X179591342Y-42095800D01*
X179638961Y-42048180D01*
X179686580Y-41952942D01*
X179686580Y-41857704D01*
X179638961Y-41762466D01*
X179591342Y-41714847D01*
X179496104Y-41667228D01*
X179305628Y-41619609D01*
X179067533Y-41619609D01*
X178877057Y-41667228D01*
X178781819Y-41714847D01*
X178734200Y-41762466D01*
X178686580Y-41857704D01*
X179686580Y-42667228D02*
X179686580Y-42857704D01*
X179638961Y-42952942D01*
X179591342Y-43000561D01*
X179448485Y-43095800D01*
X179258009Y-43143419D01*
X178877057Y-43143419D01*
X178781819Y-43095800D01*
X178734200Y-43048180D01*
X178686580Y-42952942D01*
X178686580Y-42762466D01*
X178734200Y-42667228D01*
X178781819Y-42619609D01*
X178877057Y-42571990D01*
X179115152Y-42571990D01*
X179210390Y-42619609D01*
X179258009Y-42667228D01*
X179305628Y-42762466D01*
X179305628Y-42952942D01*
X179258009Y-43048180D01*
X179210390Y-43095800D01*
X179115152Y-43143419D01*
X179400866Y-43524371D02*
X179400866Y-44000561D01*
X179686580Y-43429133D02*
X178686580Y-43762466D01*
X179686580Y-44095800D01*
X179305628Y-44429133D02*
X179305628Y-45191038D01*
X178781819Y-45619609D02*
X178734200Y-45667228D01*
X178686580Y-45762466D01*
X178686580Y-46000561D01*
X178734200Y-46095800D01*
X178781819Y-46143419D01*
X178877057Y-46191038D01*
X178972295Y-46191038D01*
X179115152Y-46143419D01*
X179686580Y-45571990D01*
X179686580Y-46191038D01*
X148153380Y-37786085D02*
X148153380Y-37309895D01*
X147153380Y-37309895D01*
X147629571Y-38119419D02*
X147629571Y-38452752D01*
X148153380Y-38595609D02*
X148153380Y-38119419D01*
X147153380Y-38119419D01*
X147153380Y-38595609D01*
X148153380Y-39024180D02*
X147153380Y-39024180D01*
X147153380Y-39262276D01*
X147201000Y-39405133D01*
X147296238Y-39500371D01*
X147391476Y-39547990D01*
X147581952Y-39595609D01*
X147724809Y-39595609D01*
X147915285Y-39547990D01*
X148010523Y-39500371D01*
X148105761Y-39405133D01*
X148153380Y-39262276D01*
X148153380Y-39024180D01*
X148153380Y-40024180D02*
X147153380Y-40024180D01*
X148153380Y-40595609D02*
X147581952Y-40167038D01*
X147153380Y-40595609D02*
X147724809Y-40024180D01*
X147772428Y-41024180D02*
X147772428Y-41786085D01*
X147201000Y-42786085D02*
X147153380Y-42690847D01*
X147153380Y-42547990D01*
X147201000Y-42405133D01*
X147296238Y-42309895D01*
X147391476Y-42262276D01*
X147581952Y-42214657D01*
X147724809Y-42214657D01*
X147915285Y-42262276D01*
X148010523Y-42309895D01*
X148105761Y-42405133D01*
X148153380Y-42547990D01*
X148153380Y-42643228D01*
X148105761Y-42786085D01*
X148058142Y-42833704D01*
X147724809Y-42833704D01*
X147724809Y-42643228D01*
X148153380Y-43262276D02*
X147153380Y-43262276D01*
X148153380Y-43833704D01*
X147153380Y-43833704D01*
X148153380Y-44309895D02*
X147153380Y-44309895D01*
X147153380Y-44547990D01*
X147201000Y-44690847D01*
X147296238Y-44786085D01*
X147391476Y-44833704D01*
X147581952Y-44881323D01*
X147724809Y-44881323D01*
X147915285Y-44833704D01*
X148010523Y-44786085D01*
X148105761Y-44690847D01*
X148153380Y-44547990D01*
X148153380Y-44309895D01*
X145511780Y-37789123D02*
X145511780Y-37312933D01*
X144511780Y-37312933D01*
X144987971Y-38122457D02*
X144987971Y-38455790D01*
X145511780Y-38598647D02*
X145511780Y-38122457D01*
X144511780Y-38122457D01*
X144511780Y-38598647D01*
X145511780Y-39027219D02*
X144511780Y-39027219D01*
X144511780Y-39265314D01*
X144559400Y-39408171D01*
X144654638Y-39503409D01*
X144749876Y-39551028D01*
X144940352Y-39598647D01*
X145083209Y-39598647D01*
X145273685Y-39551028D01*
X145368923Y-39503409D01*
X145464161Y-39408171D01*
X145511780Y-39265314D01*
X145511780Y-39027219D01*
X145226066Y-39979600D02*
X145226066Y-40455790D01*
X145511780Y-39884361D02*
X144511780Y-40217695D01*
X145511780Y-40551028D01*
X145130828Y-40884361D02*
X145130828Y-41646266D01*
X145511780Y-42693885D02*
X145035590Y-42360552D01*
X145511780Y-42122457D02*
X144511780Y-42122457D01*
X144511780Y-42503409D01*
X144559400Y-42598647D01*
X144607019Y-42646266D01*
X144702257Y-42693885D01*
X144845114Y-42693885D01*
X144940352Y-42646266D01*
X144987971Y-42598647D01*
X145035590Y-42503409D01*
X145035590Y-42122457D01*
X142946380Y-37297076D02*
X141946380Y-37297076D01*
X141946380Y-37535171D01*
X141994000Y-37678028D01*
X142089238Y-37773266D01*
X142184476Y-37820885D01*
X142374952Y-37868504D01*
X142517809Y-37868504D01*
X142708285Y-37820885D01*
X142803523Y-37773266D01*
X142898761Y-37678028D01*
X142946380Y-37535171D01*
X142946380Y-37297076D01*
X142422571Y-38630409D02*
X142470190Y-38773266D01*
X142517809Y-38820885D01*
X142613047Y-38868504D01*
X142755904Y-38868504D01*
X142851142Y-38820885D01*
X142898761Y-38773266D01*
X142946380Y-38678028D01*
X142946380Y-38297076D01*
X141946380Y-38297076D01*
X141946380Y-38630409D01*
X141994000Y-38725647D01*
X142041619Y-38773266D01*
X142136857Y-38820885D01*
X142232095Y-38820885D01*
X142327333Y-38773266D01*
X142374952Y-38725647D01*
X142422571Y-38630409D01*
X142422571Y-38297076D01*
X141946380Y-39201838D02*
X141946380Y-39868504D01*
X142946380Y-39439933D01*
X142565428Y-40249457D02*
X142565428Y-41011361D01*
X141946380Y-41392314D02*
X141946380Y-42011361D01*
X142327333Y-41678028D01*
X142327333Y-41820885D01*
X142374952Y-41916123D01*
X142422571Y-41963742D01*
X142517809Y-42011361D01*
X142755904Y-42011361D01*
X142851142Y-41963742D01*
X142898761Y-41916123D01*
X142946380Y-41820885D01*
X142946380Y-41535171D01*
X142898761Y-41439933D01*
X142851142Y-41392314D01*
X142041619Y-42392314D02*
X141994000Y-42439933D01*
X141946380Y-42535171D01*
X141946380Y-42773266D01*
X141994000Y-42868504D01*
X142041619Y-42916123D01*
X142136857Y-42963742D01*
X142232095Y-42963742D01*
X142374952Y-42916123D01*
X142946380Y-42344695D01*
X142946380Y-42963742D01*
X140406380Y-37322476D02*
X139406380Y-37322476D01*
X139406380Y-37560571D01*
X139454000Y-37703428D01*
X139549238Y-37798666D01*
X139644476Y-37846285D01*
X139834952Y-37893904D01*
X139977809Y-37893904D01*
X140168285Y-37846285D01*
X140263523Y-37798666D01*
X140358761Y-37703428D01*
X140406380Y-37560571D01*
X140406380Y-37322476D01*
X139882571Y-38655809D02*
X139930190Y-38798666D01*
X139977809Y-38846285D01*
X140073047Y-38893904D01*
X140215904Y-38893904D01*
X140311142Y-38846285D01*
X140358761Y-38798666D01*
X140406380Y-38703428D01*
X140406380Y-38322476D01*
X139406380Y-38322476D01*
X139406380Y-38655809D01*
X139454000Y-38751047D01*
X139501619Y-38798666D01*
X139596857Y-38846285D01*
X139692095Y-38846285D01*
X139787333Y-38798666D01*
X139834952Y-38751047D01*
X139882571Y-38655809D01*
X139882571Y-38322476D01*
X139406380Y-39751047D02*
X139406380Y-39560571D01*
X139454000Y-39465333D01*
X139501619Y-39417714D01*
X139644476Y-39322476D01*
X139834952Y-39274857D01*
X140215904Y-39274857D01*
X140311142Y-39322476D01*
X140358761Y-39370095D01*
X140406380Y-39465333D01*
X140406380Y-39655809D01*
X140358761Y-39751047D01*
X140311142Y-39798666D01*
X140215904Y-39846285D01*
X139977809Y-39846285D01*
X139882571Y-39798666D01*
X139834952Y-39751047D01*
X139787333Y-39655809D01*
X139787333Y-39465333D01*
X139834952Y-39370095D01*
X139882571Y-39322476D01*
X139977809Y-39274857D01*
X140025428Y-40274857D02*
X140025428Y-41036761D01*
X139406380Y-41417714D02*
X139406380Y-42036761D01*
X139787333Y-41703428D01*
X139787333Y-41846285D01*
X139834952Y-41941523D01*
X139882571Y-41989142D01*
X139977809Y-42036761D01*
X140215904Y-42036761D01*
X140311142Y-41989142D01*
X140358761Y-41941523D01*
X140406380Y-41846285D01*
X140406380Y-41560571D01*
X140358761Y-41465333D01*
X140311142Y-41417714D01*
X139406380Y-42655809D02*
X139406380Y-42751047D01*
X139454000Y-42846285D01*
X139501619Y-42893904D01*
X139596857Y-42941523D01*
X139787333Y-42989142D01*
X140025428Y-42989142D01*
X140215904Y-42941523D01*
X140311142Y-42893904D01*
X140358761Y-42846285D01*
X140406380Y-42751047D01*
X140406380Y-42655809D01*
X140358761Y-42560571D01*
X140311142Y-42512952D01*
X140215904Y-42465333D01*
X140025428Y-42417714D01*
X139787333Y-42417714D01*
X139596857Y-42465333D01*
X139501619Y-42512952D01*
X139454000Y-42560571D01*
X139406380Y-42655809D01*
X137891780Y-37297076D02*
X136891780Y-37297076D01*
X136891780Y-37535171D01*
X136939400Y-37678028D01*
X137034638Y-37773266D01*
X137129876Y-37820885D01*
X137320352Y-37868504D01*
X137463209Y-37868504D01*
X137653685Y-37820885D01*
X137748923Y-37773266D01*
X137844161Y-37678028D01*
X137891780Y-37535171D01*
X137891780Y-37297076D01*
X137367971Y-38630409D02*
X137415590Y-38773266D01*
X137463209Y-38820885D01*
X137558447Y-38868504D01*
X137701304Y-38868504D01*
X137796542Y-38820885D01*
X137844161Y-38773266D01*
X137891780Y-38678028D01*
X137891780Y-38297076D01*
X136891780Y-38297076D01*
X136891780Y-38630409D01*
X136939400Y-38725647D01*
X136987019Y-38773266D01*
X137082257Y-38820885D01*
X137177495Y-38820885D01*
X137272733Y-38773266D01*
X137320352Y-38725647D01*
X137367971Y-38630409D01*
X137367971Y-38297076D01*
X136891780Y-39773266D02*
X136891780Y-39297076D01*
X137367971Y-39249457D01*
X137320352Y-39297076D01*
X137272733Y-39392314D01*
X137272733Y-39630409D01*
X137320352Y-39725647D01*
X137367971Y-39773266D01*
X137463209Y-39820885D01*
X137701304Y-39820885D01*
X137796542Y-39773266D01*
X137844161Y-39725647D01*
X137891780Y-39630409D01*
X137891780Y-39392314D01*
X137844161Y-39297076D01*
X137796542Y-39249457D01*
X137510828Y-40249457D02*
X137510828Y-41011361D01*
X136987019Y-41439933D02*
X136939400Y-41487552D01*
X136891780Y-41582790D01*
X136891780Y-41820885D01*
X136939400Y-41916123D01*
X136987019Y-41963742D01*
X137082257Y-42011361D01*
X137177495Y-42011361D01*
X137320352Y-41963742D01*
X137891780Y-41392314D01*
X137891780Y-42011361D01*
X137320352Y-42582790D02*
X137272733Y-42487552D01*
X137225114Y-42439933D01*
X137129876Y-42392314D01*
X137082257Y-42392314D01*
X136987019Y-42439933D01*
X136939400Y-42487552D01*
X136891780Y-42582790D01*
X136891780Y-42773266D01*
X136939400Y-42868504D01*
X136987019Y-42916123D01*
X137082257Y-42963742D01*
X137129876Y-42963742D01*
X137225114Y-42916123D01*
X137272733Y-42868504D01*
X137320352Y-42773266D01*
X137320352Y-42582790D01*
X137367971Y-42487552D01*
X137415590Y-42439933D01*
X137510828Y-42392314D01*
X137701304Y-42392314D01*
X137796542Y-42439933D01*
X137844161Y-42487552D01*
X137891780Y-42582790D01*
X137891780Y-42773266D01*
X137844161Y-42868504D01*
X137796542Y-42916123D01*
X137701304Y-42963742D01*
X137510828Y-42963742D01*
X137415590Y-42916123D01*
X137367971Y-42868504D01*
X137320352Y-42773266D01*
X135453380Y-37271676D02*
X134453380Y-37271676D01*
X134453380Y-37509771D01*
X134501000Y-37652628D01*
X134596238Y-37747866D01*
X134691476Y-37795485D01*
X134881952Y-37843104D01*
X135024809Y-37843104D01*
X135215285Y-37795485D01*
X135310523Y-37747866D01*
X135405761Y-37652628D01*
X135453380Y-37509771D01*
X135453380Y-37271676D01*
X134929571Y-38605009D02*
X134977190Y-38747866D01*
X135024809Y-38795485D01*
X135120047Y-38843104D01*
X135262904Y-38843104D01*
X135358142Y-38795485D01*
X135405761Y-38747866D01*
X135453380Y-38652628D01*
X135453380Y-38271676D01*
X134453380Y-38271676D01*
X134453380Y-38605009D01*
X134501000Y-38700247D01*
X134548619Y-38747866D01*
X134643857Y-38795485D01*
X134739095Y-38795485D01*
X134834333Y-38747866D01*
X134881952Y-38700247D01*
X134929571Y-38605009D01*
X134929571Y-38271676D01*
X134786714Y-39700247D02*
X135453380Y-39700247D01*
X134405761Y-39462152D02*
X135120047Y-39224057D01*
X135120047Y-39843104D01*
X135072428Y-40224057D02*
X135072428Y-40985961D01*
X134548619Y-41414533D02*
X134501000Y-41462152D01*
X134453380Y-41557390D01*
X134453380Y-41795485D01*
X134501000Y-41890723D01*
X134548619Y-41938342D01*
X134643857Y-41985961D01*
X134739095Y-41985961D01*
X134881952Y-41938342D01*
X135453380Y-41366914D01*
X135453380Y-41985961D01*
X134453380Y-42843104D02*
X134453380Y-42652628D01*
X134501000Y-42557390D01*
X134548619Y-42509771D01*
X134691476Y-42414533D01*
X134881952Y-42366914D01*
X135262904Y-42366914D01*
X135358142Y-42414533D01*
X135405761Y-42462152D01*
X135453380Y-42557390D01*
X135453380Y-42747866D01*
X135405761Y-42843104D01*
X135358142Y-42890723D01*
X135262904Y-42938342D01*
X135024809Y-42938342D01*
X134929571Y-42890723D01*
X134881952Y-42843104D01*
X134834333Y-42747866D01*
X134834333Y-42557390D01*
X134881952Y-42462152D01*
X134929571Y-42414533D01*
X135024809Y-42366914D01*
X121975571Y-37406485D02*
X121975571Y-37739819D01*
X122499380Y-37882676D02*
X122499380Y-37406485D01*
X121499380Y-37406485D01*
X121499380Y-37882676D01*
X122118428Y-38311247D02*
X122118428Y-39073152D01*
X121594619Y-39501723D02*
X121547000Y-39549342D01*
X121499380Y-39644580D01*
X121499380Y-39882676D01*
X121547000Y-39977914D01*
X121594619Y-40025533D01*
X121689857Y-40073152D01*
X121785095Y-40073152D01*
X121927952Y-40025533D01*
X122499380Y-39454104D01*
X122499380Y-40073152D01*
X121594619Y-40454104D02*
X121547000Y-40501723D01*
X121499380Y-40596961D01*
X121499380Y-40835057D01*
X121547000Y-40930295D01*
X121594619Y-40977914D01*
X121689857Y-41025533D01*
X121785095Y-41025533D01*
X121927952Y-40977914D01*
X122499380Y-40406485D01*
X122499380Y-41025533D01*
X120238780Y-37990828D02*
X119762590Y-37657495D01*
X120238780Y-37419400D02*
X119238780Y-37419400D01*
X119238780Y-37800352D01*
X119286400Y-37895590D01*
X119334019Y-37943209D01*
X119429257Y-37990828D01*
X119572114Y-37990828D01*
X119667352Y-37943209D01*
X119714971Y-37895590D01*
X119762590Y-37800352D01*
X119762590Y-37419400D01*
X119191161Y-39133685D02*
X120476876Y-38276542D01*
X119238780Y-39371780D02*
X120238780Y-39609876D01*
X119524495Y-39800352D01*
X120238780Y-39990828D01*
X119238780Y-40228923D01*
X119857828Y-40609876D02*
X119857828Y-41371780D01*
X119286400Y-42371780D02*
X119238780Y-42276542D01*
X119238780Y-42133685D01*
X119286400Y-41990828D01*
X119381638Y-41895590D01*
X119476876Y-41847971D01*
X119667352Y-41800352D01*
X119810209Y-41800352D01*
X120000685Y-41847971D01*
X120095923Y-41895590D01*
X120191161Y-41990828D01*
X120238780Y-42133685D01*
X120238780Y-42228923D01*
X120191161Y-42371780D01*
X120143542Y-42419400D01*
X119810209Y-42419400D01*
X119810209Y-42228923D01*
X120238780Y-42847971D02*
X119238780Y-42847971D01*
X120238780Y-43419400D01*
X119238780Y-43419400D01*
X120238780Y-43895590D02*
X119238780Y-43895590D01*
X119238780Y-44133685D01*
X119286400Y-44276542D01*
X119381638Y-44371780D01*
X119476876Y-44419400D01*
X119667352Y-44467019D01*
X119810209Y-44467019D01*
X120000685Y-44419400D01*
X120095923Y-44371780D01*
X120191161Y-44276542D01*
X120238780Y-44133685D01*
X120238780Y-43895590D01*
X117698780Y-38012904D02*
X117222590Y-37679571D01*
X117698780Y-37441476D02*
X116698780Y-37441476D01*
X116698780Y-37822428D01*
X116746400Y-37917666D01*
X116794019Y-37965285D01*
X116889257Y-38012904D01*
X117032114Y-38012904D01*
X117127352Y-37965285D01*
X117174971Y-37917666D01*
X117222590Y-37822428D01*
X117222590Y-37441476D01*
X117651161Y-38393857D02*
X117698780Y-38536714D01*
X117698780Y-38774809D01*
X117651161Y-38870047D01*
X117603542Y-38917666D01*
X117508304Y-38965285D01*
X117413066Y-38965285D01*
X117317828Y-38917666D01*
X117270209Y-38870047D01*
X117222590Y-38774809D01*
X117174971Y-38584333D01*
X117127352Y-38489095D01*
X117079733Y-38441476D01*
X116984495Y-38393857D01*
X116889257Y-38393857D01*
X116794019Y-38441476D01*
X116746400Y-38489095D01*
X116698780Y-38584333D01*
X116698780Y-38822428D01*
X116746400Y-38965285D01*
X117317828Y-39393857D02*
X117317828Y-40155761D01*
X116794019Y-40584333D02*
X116746400Y-40631952D01*
X116698780Y-40727190D01*
X116698780Y-40965285D01*
X116746400Y-41060523D01*
X116794019Y-41108142D01*
X116889257Y-41155761D01*
X116984495Y-41155761D01*
X117127352Y-41108142D01*
X117698780Y-40536714D01*
X117698780Y-41155761D01*
X117032114Y-42012904D02*
X117698780Y-42012904D01*
X116651161Y-41774809D02*
X117365447Y-41536714D01*
X117365447Y-42155761D01*
X113853980Y-37425666D02*
X114853980Y-37759000D01*
X113853980Y-38092333D01*
X113853980Y-38616142D02*
X113853980Y-38711380D01*
X113901600Y-38806619D01*
X113949219Y-38854238D01*
X114044457Y-38901857D01*
X114234933Y-38949476D01*
X114473028Y-38949476D01*
X114663504Y-38901857D01*
X114758742Y-38854238D01*
X114806361Y-38806619D01*
X114853980Y-38711380D01*
X114853980Y-38616142D01*
X114806361Y-38520904D01*
X114758742Y-38473285D01*
X114663504Y-38425666D01*
X114473028Y-38378047D01*
X114234933Y-38378047D01*
X114044457Y-38425666D01*
X113949219Y-38473285D01*
X113901600Y-38520904D01*
X113853980Y-38616142D01*
X114473028Y-39378047D02*
X114473028Y-40139952D01*
X114853980Y-40616142D02*
X113853980Y-40616142D01*
X113853980Y-40997095D01*
X113901600Y-41092333D01*
X113949219Y-41139952D01*
X114044457Y-41187571D01*
X114187314Y-41187571D01*
X114282552Y-41139952D01*
X114330171Y-41092333D01*
X114377790Y-40997095D01*
X114377790Y-40616142D01*
X113853980Y-41806619D02*
X113853980Y-41997095D01*
X113901600Y-42092333D01*
X113996838Y-42187571D01*
X114187314Y-42235190D01*
X114520647Y-42235190D01*
X114711123Y-42187571D01*
X114806361Y-42092333D01*
X114853980Y-41997095D01*
X114853980Y-41806619D01*
X114806361Y-41711380D01*
X114711123Y-41616142D01*
X114520647Y-41568523D01*
X114187314Y-41568523D01*
X113996838Y-41616142D01*
X113901600Y-41711380D01*
X113853980Y-41806619D01*
X113853980Y-42520904D02*
X113853980Y-43092333D01*
X114853980Y-42806619D02*
X113853980Y-42806619D01*
X111364780Y-37452657D02*
X112364780Y-37785990D01*
X111364780Y-38119323D01*
X112364780Y-38452657D02*
X111364780Y-38452657D01*
X111364780Y-38690752D01*
X111412400Y-38833609D01*
X111507638Y-38928847D01*
X111602876Y-38976466D01*
X111793352Y-39024085D01*
X111936209Y-39024085D01*
X112126685Y-38976466D01*
X112221923Y-38928847D01*
X112317161Y-38833609D01*
X112364780Y-38690752D01*
X112364780Y-38452657D01*
X112364780Y-39452657D02*
X111364780Y-39452657D01*
X111364780Y-39690752D01*
X111412400Y-39833609D01*
X111507638Y-39928847D01*
X111602876Y-39976466D01*
X111793352Y-40024085D01*
X111936209Y-40024085D01*
X112126685Y-39976466D01*
X112221923Y-39928847D01*
X112317161Y-39833609D01*
X112364780Y-39690752D01*
X112364780Y-39452657D01*
X111983828Y-40452657D02*
X111983828Y-41214561D01*
X111364780Y-42166942D02*
X111364780Y-41690752D01*
X111840971Y-41643133D01*
X111793352Y-41690752D01*
X111745733Y-41785990D01*
X111745733Y-42024085D01*
X111793352Y-42119323D01*
X111840971Y-42166942D01*
X111936209Y-42214561D01*
X112174304Y-42214561D01*
X112269542Y-42166942D01*
X112317161Y-42119323D01*
X112364780Y-42024085D01*
X112364780Y-41785990D01*
X112317161Y-41690752D01*
X112269542Y-41643133D01*
X111364780Y-42500276D02*
X112364780Y-42833609D01*
X111364780Y-43166942D01*
X108900980Y-37414628D02*
X109900980Y-37747961D01*
X108900980Y-38081295D01*
X109853361Y-38367009D02*
X109900980Y-38509866D01*
X109900980Y-38747961D01*
X109853361Y-38843200D01*
X109805742Y-38890819D01*
X109710504Y-38938438D01*
X109615266Y-38938438D01*
X109520028Y-38890819D01*
X109472409Y-38843200D01*
X109424790Y-38747961D01*
X109377171Y-38557485D01*
X109329552Y-38462247D01*
X109281933Y-38414628D01*
X109186695Y-38367009D01*
X109091457Y-38367009D01*
X108996219Y-38414628D01*
X108948600Y-38462247D01*
X108900980Y-38557485D01*
X108900980Y-38795580D01*
X108948600Y-38938438D01*
X109853361Y-39319390D02*
X109900980Y-39462247D01*
X109900980Y-39700342D01*
X109853361Y-39795580D01*
X109805742Y-39843200D01*
X109710504Y-39890819D01*
X109615266Y-39890819D01*
X109520028Y-39843200D01*
X109472409Y-39795580D01*
X109424790Y-39700342D01*
X109377171Y-39509866D01*
X109329552Y-39414628D01*
X109281933Y-39367009D01*
X109186695Y-39319390D01*
X109091457Y-39319390D01*
X108996219Y-39367009D01*
X108948600Y-39414628D01*
X108900980Y-39509866D01*
X108900980Y-39747961D01*
X108948600Y-39890819D01*
X109520028Y-40319390D02*
X109520028Y-41081295D01*
X108948600Y-42081295D02*
X108900980Y-41986057D01*
X108900980Y-41843200D01*
X108948600Y-41700342D01*
X109043838Y-41605104D01*
X109139076Y-41557485D01*
X109329552Y-41509866D01*
X109472409Y-41509866D01*
X109662885Y-41557485D01*
X109758123Y-41605104D01*
X109853361Y-41700342D01*
X109900980Y-41843200D01*
X109900980Y-41938438D01*
X109853361Y-42081295D01*
X109805742Y-42128914D01*
X109472409Y-42128914D01*
X109472409Y-41938438D01*
X109900980Y-42557485D02*
X108900980Y-42557485D01*
X109900980Y-43128914D01*
X108900980Y-43128914D01*
X109900980Y-43605104D02*
X108900980Y-43605104D01*
X108900980Y-43843200D01*
X108948600Y-43986057D01*
X109043838Y-44081295D01*
X109139076Y-44128914D01*
X109329552Y-44176533D01*
X109472409Y-44176533D01*
X109662885Y-44128914D01*
X109758123Y-44081295D01*
X109853361Y-43986057D01*
X109900980Y-43843200D01*
X109900980Y-43605104D01*
D11*
X155461028Y-111163571D02*
X155175314Y-111163571D01*
X155032457Y-111092142D01*
X154961028Y-111020714D01*
X154818171Y-110806428D01*
X154746742Y-110520714D01*
X154746742Y-109949285D01*
X154818171Y-109806428D01*
X154889600Y-109735000D01*
X155032457Y-109663571D01*
X155318171Y-109663571D01*
X155461028Y-109735000D01*
X155532457Y-109806428D01*
X155603885Y-109949285D01*
X155603885Y-110306428D01*
X155532457Y-110449285D01*
X155461028Y-110520714D01*
X155318171Y-110592142D01*
X155032457Y-110592142D01*
X154889600Y-110520714D01*
X154818171Y-110449285D01*
X154746742Y-110306428D01*
X154318171Y-109663571D02*
X153818171Y-111163571D01*
X153318171Y-109663571D01*
X151175314Y-110377857D02*
X150961028Y-110449285D01*
X150889600Y-110520714D01*
X150818171Y-110663571D01*
X150818171Y-110877857D01*
X150889600Y-111020714D01*
X150961028Y-111092142D01*
X151103885Y-111163571D01*
X151675314Y-111163571D01*
X151675314Y-109663571D01*
X151175314Y-109663571D01*
X151032457Y-109735000D01*
X150961028Y-109806428D01*
X150889600Y-109949285D01*
X150889600Y-110092142D01*
X150961028Y-110235000D01*
X151032457Y-110306428D01*
X151175314Y-110377857D01*
X151675314Y-110377857D01*
X149532457Y-110163571D02*
X149532457Y-111163571D01*
X150175314Y-110163571D02*
X150175314Y-110949285D01*
X150103885Y-111092142D01*
X149961028Y-111163571D01*
X149746742Y-111163571D01*
X149603885Y-111092142D01*
X149532457Y-111020714D01*
X148175314Y-111092142D02*
X148318171Y-111163571D01*
X148603885Y-111163571D01*
X148746742Y-111092142D01*
X148818171Y-111020714D01*
X148889600Y-110877857D01*
X148889600Y-110449285D01*
X148818171Y-110306428D01*
X148746742Y-110235000D01*
X148603885Y-110163571D01*
X148318171Y-110163571D01*
X148175314Y-110235000D01*
X147532457Y-111163571D02*
X147532457Y-109663571D01*
X147389600Y-110592142D02*
X146961028Y-111163571D01*
X146961028Y-110163571D02*
X147532457Y-110735000D01*
X144318171Y-111020714D02*
X144389600Y-111092142D01*
X144603885Y-111163571D01*
X144746742Y-111163571D01*
X144961028Y-111092142D01*
X145103885Y-110949285D01*
X145175314Y-110806428D01*
X145246742Y-110520714D01*
X145246742Y-110306428D01*
X145175314Y-110020714D01*
X145103885Y-109877857D01*
X144961028Y-109735000D01*
X144746742Y-109663571D01*
X144603885Y-109663571D01*
X144389600Y-109735000D01*
X144318171Y-109806428D01*
X143461028Y-111163571D02*
X143603885Y-111092142D01*
X143675314Y-111020714D01*
X143746742Y-110877857D01*
X143746742Y-110449285D01*
X143675314Y-110306428D01*
X143603885Y-110235000D01*
X143461028Y-110163571D01*
X143246742Y-110163571D01*
X143103885Y-110235000D01*
X143032457Y-110306428D01*
X142961028Y-110449285D01*
X142961028Y-110877857D01*
X143032457Y-111020714D01*
X143103885Y-111092142D01*
X143246742Y-111163571D01*
X143461028Y-111163571D01*
X142318171Y-110163571D02*
X142318171Y-111163571D01*
X142318171Y-110306428D02*
X142246742Y-110235000D01*
X142103885Y-110163571D01*
X141889600Y-110163571D01*
X141746742Y-110235000D01*
X141675314Y-110377857D01*
X141675314Y-111163571D01*
X141103885Y-110163571D02*
X140746742Y-111163571D01*
X140389600Y-110163571D01*
X139246742Y-111092142D02*
X139389600Y-111163571D01*
X139675314Y-111163571D01*
X139818171Y-111092142D01*
X139889600Y-110949285D01*
X139889600Y-110377857D01*
X139818171Y-110235000D01*
X139675314Y-110163571D01*
X139389600Y-110163571D01*
X139246742Y-110235000D01*
X139175314Y-110377857D01*
X139175314Y-110520714D01*
X139889600Y-110663571D01*
X138532457Y-111163571D02*
X138532457Y-110163571D01*
X138532457Y-110449285D02*
X138461028Y-110306428D01*
X138389600Y-110235000D01*
X138246742Y-110163571D01*
X138103885Y-110163571D01*
X137818171Y-110163571D02*
X137246742Y-110163571D01*
X137603885Y-109663571D02*
X137603885Y-110949285D01*
X137532457Y-111092142D01*
X137389600Y-111163571D01*
X137246742Y-111163571D01*
X136175314Y-111092142D02*
X136318171Y-111163571D01*
X136603885Y-111163571D01*
X136746742Y-111092142D01*
X136818171Y-110949285D01*
X136818171Y-110377857D01*
X136746742Y-110235000D01*
X136603885Y-110163571D01*
X136318171Y-110163571D01*
X136175314Y-110235000D01*
X136103885Y-110377857D01*
X136103885Y-110520714D01*
X136818171Y-110663571D01*
X135461028Y-111163571D02*
X135461028Y-110163571D01*
X135461028Y-110449285D02*
X135389600Y-110306428D01*
X135318171Y-110235000D01*
X135175314Y-110163571D01*
X135032457Y-110163571D01*
X155746742Y-112213571D02*
X154889600Y-112213571D01*
X155318171Y-113713571D02*
X155318171Y-112213571D01*
X154175314Y-113713571D02*
X154318171Y-113642142D01*
X154389600Y-113570714D01*
X154461028Y-113427857D01*
X154461028Y-112999285D01*
X154389600Y-112856428D01*
X154318171Y-112785000D01*
X154175314Y-112713571D01*
X153961028Y-112713571D01*
X153818171Y-112785000D01*
X153746742Y-112856428D01*
X153675314Y-112999285D01*
X153675314Y-113427857D01*
X153746742Y-113570714D01*
X153818171Y-113642142D01*
X153961028Y-113713571D01*
X154175314Y-113713571D01*
X151961028Y-113285000D02*
X151246742Y-113285000D01*
X152103885Y-113713571D02*
X151603885Y-112213571D01*
X151103885Y-113713571D01*
X150603885Y-113713571D02*
X150603885Y-112713571D01*
X150603885Y-112999285D02*
X150532457Y-112856428D01*
X150461028Y-112785000D01*
X150318171Y-112713571D01*
X150175314Y-112713571D01*
X149032457Y-113713571D02*
X149032457Y-112213571D01*
X149032457Y-113642142D02*
X149175314Y-113713571D01*
X149461028Y-113713571D01*
X149603885Y-113642142D01*
X149675314Y-113570714D01*
X149746742Y-113427857D01*
X149746742Y-112999285D01*
X149675314Y-112856428D01*
X149603885Y-112785000D01*
X149461028Y-112713571D01*
X149175314Y-112713571D01*
X149032457Y-112785000D01*
X147675314Y-112713571D02*
X147675314Y-113713571D01*
X148318171Y-112713571D02*
X148318171Y-113499285D01*
X148246742Y-113642142D01*
X148103885Y-113713571D01*
X147889600Y-113713571D01*
X147746742Y-113642142D01*
X147675314Y-113570714D01*
X146961028Y-113713571D02*
X146961028Y-112713571D01*
X146961028Y-112213571D02*
X147032457Y-112285000D01*
X146961028Y-112356428D01*
X146889600Y-112285000D01*
X146961028Y-112213571D01*
X146961028Y-112356428D01*
X146246742Y-112713571D02*
X146246742Y-113713571D01*
X146246742Y-112856428D02*
X146175314Y-112785000D01*
X146032457Y-112713571D01*
X145818171Y-112713571D01*
X145675314Y-112785000D01*
X145603885Y-112927857D01*
X145603885Y-113713571D01*
X144675314Y-113713571D02*
X144818171Y-113642142D01*
X144889600Y-113570714D01*
X144961028Y-113427857D01*
X144961028Y-112999285D01*
X144889600Y-112856428D01*
X144818171Y-112785000D01*
X144675314Y-112713571D01*
X144461028Y-112713571D01*
X144318171Y-112785000D01*
X144246742Y-112856428D01*
X144175314Y-112999285D01*
X144175314Y-113427857D01*
X144246742Y-113570714D01*
X144318171Y-113642142D01*
X144461028Y-113713571D01*
X144675314Y-113713571D01*
X142603885Y-112213571D02*
X142103885Y-113713571D01*
X141603885Y-112213571D01*
X141103885Y-113713571D02*
X141103885Y-112213571D01*
X140389600Y-113713571D02*
X140389600Y-112213571D01*
X139532457Y-113713571D01*
X139532457Y-112213571D01*
X137746742Y-112142142D02*
X139032457Y-114070714D01*
X137175314Y-113713571D02*
X136889600Y-113713571D01*
X136746742Y-113642142D01*
X136675314Y-113570714D01*
X136532457Y-113356428D01*
X136461028Y-113070714D01*
X136461028Y-112499285D01*
X136532457Y-112356428D01*
X136603885Y-112285000D01*
X136746742Y-112213571D01*
X137032457Y-112213571D01*
X137175314Y-112285000D01*
X137246742Y-112356428D01*
X137318171Y-112499285D01*
X137318171Y-112856428D01*
X137246742Y-112999285D01*
X137175314Y-113070714D01*
X137032457Y-113142142D01*
X136746742Y-113142142D01*
X136603885Y-113070714D01*
X136532457Y-112999285D01*
X136461028Y-112856428D01*
X136032457Y-112213571D02*
X135532457Y-113713571D01*
X135032457Y-112213571D01*
X178389371Y-109307971D02*
X179103657Y-109307971D01*
X179175085Y-110022257D01*
X179103657Y-109950828D01*
X178960800Y-109879400D01*
X178603657Y-109879400D01*
X178460800Y-109950828D01*
X178389371Y-110022257D01*
X178317942Y-110165114D01*
X178317942Y-110522257D01*
X178389371Y-110665114D01*
X178460800Y-110736542D01*
X178603657Y-110807971D01*
X178960800Y-110807971D01*
X179103657Y-110736542D01*
X179175085Y-110665114D01*
X177889371Y-109307971D02*
X177389371Y-110807971D01*
X176889371Y-109307971D01*
X174746514Y-110022257D02*
X174532228Y-110093685D01*
X174460800Y-110165114D01*
X174389371Y-110307971D01*
X174389371Y-110522257D01*
X174460800Y-110665114D01*
X174532228Y-110736542D01*
X174675085Y-110807971D01*
X175246514Y-110807971D01*
X175246514Y-109307971D01*
X174746514Y-109307971D01*
X174603657Y-109379400D01*
X174532228Y-109450828D01*
X174460800Y-109593685D01*
X174460800Y-109736542D01*
X174532228Y-109879400D01*
X174603657Y-109950828D01*
X174746514Y-110022257D01*
X175246514Y-110022257D01*
X173103657Y-109807971D02*
X173103657Y-110807971D01*
X173746514Y-109807971D02*
X173746514Y-110593685D01*
X173675085Y-110736542D01*
X173532228Y-110807971D01*
X173317942Y-110807971D01*
X173175085Y-110736542D01*
X173103657Y-110665114D01*
X171746514Y-110736542D02*
X171889371Y-110807971D01*
X172175085Y-110807971D01*
X172317942Y-110736542D01*
X172389371Y-110665114D01*
X172460800Y-110522257D01*
X172460800Y-110093685D01*
X172389371Y-109950828D01*
X172317942Y-109879400D01*
X172175085Y-109807971D01*
X171889371Y-109807971D01*
X171746514Y-109879400D01*
X171103657Y-110807971D02*
X171103657Y-109307971D01*
X170960800Y-110236542D02*
X170532228Y-110807971D01*
X170532228Y-109807971D02*
X171103657Y-110379400D01*
X167889371Y-110665114D02*
X167960800Y-110736542D01*
X168175085Y-110807971D01*
X168317942Y-110807971D01*
X168532228Y-110736542D01*
X168675085Y-110593685D01*
X168746514Y-110450828D01*
X168817942Y-110165114D01*
X168817942Y-109950828D01*
X168746514Y-109665114D01*
X168675085Y-109522257D01*
X168532228Y-109379400D01*
X168317942Y-109307971D01*
X168175085Y-109307971D01*
X167960800Y-109379400D01*
X167889371Y-109450828D01*
X167032228Y-110807971D02*
X167175085Y-110736542D01*
X167246514Y-110665114D01*
X167317942Y-110522257D01*
X167317942Y-110093685D01*
X167246514Y-109950828D01*
X167175085Y-109879400D01*
X167032228Y-109807971D01*
X166817942Y-109807971D01*
X166675085Y-109879400D01*
X166603657Y-109950828D01*
X166532228Y-110093685D01*
X166532228Y-110522257D01*
X166603657Y-110665114D01*
X166675085Y-110736542D01*
X166817942Y-110807971D01*
X167032228Y-110807971D01*
X165889371Y-109807971D02*
X165889371Y-110807971D01*
X165889371Y-109950828D02*
X165817942Y-109879400D01*
X165675085Y-109807971D01*
X165460800Y-109807971D01*
X165317942Y-109879400D01*
X165246514Y-110022257D01*
X165246514Y-110807971D01*
X164675085Y-109807971D02*
X164317942Y-110807971D01*
X163960800Y-109807971D01*
X162817942Y-110736542D02*
X162960800Y-110807971D01*
X163246514Y-110807971D01*
X163389371Y-110736542D01*
X163460800Y-110593685D01*
X163460800Y-110022257D01*
X163389371Y-109879400D01*
X163246514Y-109807971D01*
X162960800Y-109807971D01*
X162817942Y-109879400D01*
X162746514Y-110022257D01*
X162746514Y-110165114D01*
X163460800Y-110307971D01*
X162103657Y-110807971D02*
X162103657Y-109807971D01*
X162103657Y-110093685D02*
X162032228Y-109950828D01*
X161960800Y-109879400D01*
X161817942Y-109807971D01*
X161675085Y-109807971D01*
X161389371Y-109807971D02*
X160817942Y-109807971D01*
X161175085Y-109307971D02*
X161175085Y-110593685D01*
X161103657Y-110736542D01*
X160960800Y-110807971D01*
X160817942Y-110807971D01*
X159746514Y-110736542D02*
X159889371Y-110807971D01*
X160175085Y-110807971D01*
X160317942Y-110736542D01*
X160389371Y-110593685D01*
X160389371Y-110022257D01*
X160317942Y-109879400D01*
X160175085Y-109807971D01*
X159889371Y-109807971D01*
X159746514Y-109879400D01*
X159675085Y-110022257D01*
X159675085Y-110165114D01*
X160389371Y-110307971D01*
X159032228Y-110807971D02*
X159032228Y-109807971D01*
X159032228Y-110093685D02*
X158960800Y-109950828D01*
X158889371Y-109879400D01*
X158746514Y-109807971D01*
X158603657Y-109807971D01*
X173675085Y-111857971D02*
X172817942Y-111857971D01*
X173246514Y-113357971D02*
X173246514Y-111857971D01*
X172103657Y-113357971D02*
X172246514Y-113286542D01*
X172317942Y-113215114D01*
X172389371Y-113072257D01*
X172389371Y-112643685D01*
X172317942Y-112500828D01*
X172246514Y-112429400D01*
X172103657Y-112357971D01*
X171889371Y-112357971D01*
X171746514Y-112429400D01*
X171675085Y-112500828D01*
X171603657Y-112643685D01*
X171603657Y-113072257D01*
X171675085Y-113215114D01*
X171746514Y-113286542D01*
X171889371Y-113357971D01*
X172103657Y-113357971D01*
X168960800Y-113357971D02*
X169460800Y-112643685D01*
X169817942Y-113357971D02*
X169817942Y-111857971D01*
X169246514Y-111857971D01*
X169103657Y-111929400D01*
X169032228Y-112000828D01*
X168960800Y-112143685D01*
X168960800Y-112357971D01*
X169032228Y-112500828D01*
X169103657Y-112572257D01*
X169246514Y-112643685D01*
X169817942Y-112643685D01*
X167746514Y-113286542D02*
X167889371Y-113357971D01*
X168175085Y-113357971D01*
X168317942Y-113286542D01*
X168389371Y-113143685D01*
X168389371Y-112572257D01*
X168317942Y-112429400D01*
X168175085Y-112357971D01*
X167889371Y-112357971D01*
X167746514Y-112429400D01*
X167675085Y-112572257D01*
X167675085Y-112715114D01*
X168389371Y-112857971D01*
X166817942Y-113357971D02*
X166960800Y-113286542D01*
X167032228Y-113143685D01*
X167032228Y-111857971D01*
X165603657Y-113357971D02*
X165603657Y-112572257D01*
X165675085Y-112429400D01*
X165817942Y-112357971D01*
X166103657Y-112357971D01*
X166246514Y-112429400D01*
X165603657Y-113286542D02*
X165746514Y-113357971D01*
X166103657Y-113357971D01*
X166246514Y-113286542D01*
X166317942Y-113143685D01*
X166317942Y-113000828D01*
X166246514Y-112857971D01*
X166103657Y-112786542D01*
X165746514Y-112786542D01*
X165603657Y-112715114D01*
X165032228Y-112357971D02*
X164675085Y-113357971D01*
X164317942Y-112357971D02*
X164675085Y-113357971D01*
X164817942Y-113715114D01*
X164889371Y-113786542D01*
X165032228Y-113857971D01*
D10*
X178650865Y-126726625D02*
X178650865Y-98227825D01*
X178650865Y-98227825D02*
X160007265Y-98227825D01*
X160007265Y-126726625D02*
X178650865Y-126726625D01*
X160007265Y-98227825D02*
X160007265Y-126726625D01*
X136956549Y-98440646D02*
X136956549Y-126939446D01*
X155600149Y-98440646D02*
X136956549Y-98440646D01*
X155600149Y-126939446D02*
X155600149Y-98440646D01*
X136956549Y-126939446D02*
X155600149Y-126939446D01*
D11*
X151351597Y-54655075D02*
X151351597Y-53155075D01*
X150780168Y-53155075D01*
X150637311Y-53226504D01*
X150565883Y-53297932D01*
X150494454Y-53440789D01*
X150494454Y-53655075D01*
X150565883Y-53797932D01*
X150637311Y-53869361D01*
X150780168Y-53940789D01*
X151351597Y-53940789D01*
X150065883Y-53155075D02*
X149208740Y-53155075D01*
X149637311Y-54655075D02*
X149637311Y-53155075D01*
X147923026Y-54655075D02*
X148780168Y-54655075D01*
X148351597Y-54655075D02*
X148351597Y-53155075D01*
X148494454Y-53369361D01*
X148637311Y-53512218D01*
X148780168Y-53583646D01*
X146994454Y-53155075D02*
X146851597Y-53155075D01*
X146708740Y-53226504D01*
X146637311Y-53297932D01*
X146565883Y-53440789D01*
X146494454Y-53726504D01*
X146494454Y-54083646D01*
X146565883Y-54369361D01*
X146637311Y-54512218D01*
X146708740Y-54583646D01*
X146851597Y-54655075D01*
X146994454Y-54655075D01*
X147137311Y-54583646D01*
X147208740Y-54512218D01*
X147280168Y-54369361D01*
X147351597Y-54083646D01*
X147351597Y-53726504D01*
X147280168Y-53440789D01*
X147208740Y-53297932D01*
X147137311Y-53226504D01*
X146994454Y-53155075D01*
X145565883Y-53155075D02*
X145423026Y-53155075D01*
X145280168Y-53226504D01*
X145208740Y-53297932D01*
X145137311Y-53440789D01*
X145065883Y-53726504D01*
X145065883Y-54083646D01*
X145137311Y-54369361D01*
X145208740Y-54512218D01*
X145280168Y-54583646D01*
X145423026Y-54655075D01*
X145565883Y-54655075D01*
X145708740Y-54583646D01*
X145780168Y-54512218D01*
X145851597Y-54369361D01*
X145923026Y-54083646D01*
X145923026Y-53726504D01*
X145851597Y-53440789D01*
X145780168Y-53297932D01*
X145708740Y-53226504D01*
X145565883Y-53155075D01*
X149137311Y-56776504D02*
X148423026Y-56776504D01*
X149280168Y-57205075D02*
X148780168Y-55705075D01*
X148280168Y-57205075D01*
X147780168Y-57205075D02*
X147780168Y-56205075D01*
X147780168Y-56347932D02*
X147708740Y-56276504D01*
X147565883Y-56205075D01*
X147351597Y-56205075D01*
X147208740Y-56276504D01*
X147137311Y-56419361D01*
X147137311Y-57205075D01*
X147137311Y-56419361D02*
X147065883Y-56276504D01*
X146923026Y-56205075D01*
X146708740Y-56205075D01*
X146565883Y-56276504D01*
X146494454Y-56419361D01*
X146494454Y-57205075D01*
X145780168Y-56205075D02*
X145780168Y-57705075D01*
X145780168Y-56276504D02*
X145637311Y-56205075D01*
X145351597Y-56205075D01*
X145208740Y-56276504D01*
X145137311Y-56347932D01*
X145065883Y-56490789D01*
X145065883Y-56919361D01*
X145137311Y-57062218D01*
X145208740Y-57133646D01*
X145351597Y-57205075D01*
X145637311Y-57205075D01*
X145780168Y-57133646D01*
D10*
X163319426Y-40417904D02*
X163471826Y-65767104D01*
X135430226Y-40417904D02*
X163319426Y-40417904D01*
X135379426Y-65767104D02*
X135430226Y-40417904D01*
X163471826Y-65817904D02*
X135379426Y-65767104D01*
D12*
X130565200Y-50625700D02*
X129235200Y-50625700D01*
X130565200Y-51955700D02*
X130565200Y-50625700D01*
X127965200Y-50625700D02*
X125365200Y-50625700D01*
X127965200Y-53225700D02*
X127965200Y-50625700D01*
X130565200Y-53225700D02*
X127965200Y-53225700D01*
X125365200Y-50625700D02*
X125365200Y-96465700D01*
X130565200Y-53225700D02*
X130565200Y-96465700D01*
X130565200Y-96465700D02*
X125365200Y-96465700D01*
X110074400Y-50625700D02*
X110074400Y-51955700D01*
X111404400Y-50625700D02*
X110074400Y-50625700D01*
X112674400Y-50625700D02*
X112674400Y-53285700D01*
X112674400Y-53285700D02*
X120354400Y-53285700D01*
X112674400Y-50625700D02*
X120354400Y-50625700D01*
X120354400Y-50625700D02*
X120354400Y-53285700D01*
X125485200Y-101596500D02*
X125485200Y-100266500D01*
X124155200Y-101596500D02*
X125485200Y-101596500D01*
X122885200Y-101596500D02*
X122885200Y-98936500D01*
X122885200Y-98936500D02*
X110125200Y-98936500D01*
X122885200Y-101596500D02*
X110125200Y-101596500D01*
X110125200Y-101596500D02*
X110125200Y-98936500D01*
D13*
X155409426Y-56600304D02*
X155009426Y-56600304D01*
X155409426Y-53100304D02*
X155009426Y-53100304D01*
X155409426Y-49600304D02*
X155009426Y-49600304D01*
X156509426Y-60100304D02*
X156509426Y-46100304D01*
X155409426Y-60100304D02*
X155409426Y-46100304D01*
X162609426Y-60100304D02*
X155009426Y-60100304D01*
X155009426Y-46100304D02*
X162609426Y-46100304D01*
X162609426Y-46100304D02*
X162609426Y-60100304D01*
X185168000Y-60984000D02*
X181568000Y-60984000D01*
X185168000Y-54784000D02*
X185168000Y-60984000D01*
X181568000Y-54784000D02*
X185168000Y-54784000D01*
X181568000Y-63484000D02*
X181568000Y-51684000D01*
X177668000Y-63484000D02*
X181568000Y-63484000D01*
X169768000Y-63484000D02*
X173868000Y-63484000D01*
X167068000Y-63484000D02*
X167168000Y-63484000D01*
X167068000Y-51684000D02*
X167068000Y-63484000D01*
X169768000Y-51684000D02*
X167068000Y-51684000D01*
X181568000Y-51684000D02*
X173568000Y-51684000D01*
D12*
X151780949Y-124288646D02*
X154440949Y-124288646D01*
X151780949Y-124348646D02*
X151780949Y-124288646D01*
X154440949Y-124348646D02*
X154440949Y-124288646D01*
X151780949Y-124348646D02*
X154440949Y-124348646D01*
X151780949Y-125618646D02*
X151780949Y-126948646D01*
X151780949Y-126948646D02*
X153110949Y-126948646D01*
X146929549Y-126910546D02*
X148259549Y-126910546D01*
X146929549Y-125580546D02*
X146929549Y-126910546D01*
X146929549Y-124310546D02*
X149589549Y-124310546D01*
X149589549Y-124310546D02*
X149589549Y-124250546D01*
X146929549Y-124310546D02*
X146929549Y-124250546D01*
X146929549Y-124250546D02*
X149589549Y-124250546D01*
X146993049Y-98329846D02*
X149653049Y-98329846D01*
X146993049Y-98389846D02*
X146993049Y-98329846D01*
X149653049Y-98389846D02*
X149653049Y-98329846D01*
X146993049Y-98389846D02*
X149653049Y-98389846D01*
X146993049Y-99659846D02*
X146993049Y-100989846D01*
X146993049Y-100989846D02*
X148323049Y-100989846D01*
X177467176Y-124053292D02*
X176137176Y-124053292D01*
X177467176Y-125383292D02*
X177467176Y-124053292D01*
X177467176Y-126653292D02*
X174807176Y-126653292D01*
X174807176Y-126653292D02*
X174807176Y-126713292D01*
X177467176Y-126653292D02*
X177467176Y-126713292D01*
X177467176Y-126713292D02*
X174807176Y-126713292D01*
X172641176Y-126725992D02*
X169981176Y-126725992D01*
X172641176Y-126665992D02*
X172641176Y-126725992D01*
X169981176Y-126665992D02*
X169981176Y-126725992D01*
X172641176Y-126665992D02*
X169981176Y-126665992D01*
X172641176Y-125395992D02*
X172641176Y-124065992D01*
X172641176Y-124065992D02*
X171311176Y-124065992D01*
X162951076Y-98119892D02*
X161621076Y-98119892D01*
X162951076Y-99449892D02*
X162951076Y-98119892D01*
X162951076Y-100719892D02*
X160291076Y-100719892D01*
X160291076Y-100719892D02*
X160291076Y-100779892D01*
X162951076Y-100719892D02*
X162951076Y-100779892D01*
X162951076Y-100779892D02*
X160291076Y-100779892D01*
X172730076Y-100729092D02*
X170070076Y-100729092D01*
X172730076Y-100669092D02*
X172730076Y-100729092D01*
X170070076Y-100669092D02*
X170070076Y-100729092D01*
X172730076Y-100669092D02*
X170070076Y-100669092D01*
X172730076Y-99399092D02*
X172730076Y-98069092D01*
X172730076Y-98069092D02*
X171400076Y-98069092D01*
X136541200Y-63306000D02*
X137871200Y-63306000D01*
X136541200Y-61976000D02*
X136541200Y-63306000D01*
X139201200Y-60706000D02*
X136541200Y-60706000D01*
X139201200Y-42866000D02*
X139201200Y-60706000D01*
X136541200Y-42866000D02*
X139201200Y-42866000D01*
X136541200Y-60706000D02*
X136541200Y-42866000D01*
X188058000Y-45438000D02*
X188058000Y-39318000D01*
X178858000Y-45438000D02*
X178858000Y-39318000D01*
X178858000Y-39318000D02*
X188058000Y-39318000D01*
X178858000Y-45438000D02*
X188058000Y-45438000D01*
X178858000Y-45838000D02*
X178858000Y-38918000D01*
X178058000Y-45838000D02*
X178058000Y-38918000D01*
X178058000Y-38918000D02*
X178858000Y-38918000D01*
X178058000Y-45838000D02*
X178858000Y-45838000D01*
X178058000Y-47288000D02*
X178058000Y-37468000D01*
X172938000Y-45503000D02*
X172938000Y-39253000D01*
X173693000Y-37468000D02*
X178058000Y-37468000D01*
X173693000Y-47288000D02*
X178058000Y-47288000D01*
X137252400Y-100948800D02*
X138582400Y-100948800D01*
X137252400Y-99618800D02*
X137252400Y-100948800D01*
X137252400Y-98348800D02*
X139912400Y-98348800D01*
X139912400Y-98348800D02*
X139912400Y-98288800D01*
X137252400Y-98348800D02*
X137252400Y-98288800D01*
X137252400Y-98288800D02*
X139912400Y-98288800D01*
D13*
X124271066Y-67855200D02*
X124271066Y-68331390D01*
X124556780Y-67759961D02*
X123556780Y-68093295D01*
X124556780Y-68426628D01*
X124556780Y-68759961D02*
X123890114Y-68759961D01*
X124080590Y-68759961D02*
X123985352Y-68807580D01*
X123937733Y-68855200D01*
X123890114Y-68950438D01*
X123890114Y-69045676D01*
X124556780Y-69807580D02*
X123556780Y-69807580D01*
X124509161Y-69807580D02*
X124556780Y-69712342D01*
X124556780Y-69521866D01*
X124509161Y-69426628D01*
X124461542Y-69379009D01*
X124366304Y-69331390D01*
X124080590Y-69331390D01*
X123985352Y-69379009D01*
X123937733Y-69426628D01*
X123890114Y-69521866D01*
X123890114Y-69712342D01*
X123937733Y-69807580D01*
X123890114Y-70712342D02*
X124556780Y-70712342D01*
X123890114Y-70283771D02*
X124413923Y-70283771D01*
X124509161Y-70331390D01*
X124556780Y-70426628D01*
X124556780Y-70569485D01*
X124509161Y-70664723D01*
X124461542Y-70712342D01*
X124556780Y-71188533D02*
X123890114Y-71188533D01*
X123556780Y-71188533D02*
X123604400Y-71140914D01*
X123652019Y-71188533D01*
X123604400Y-71236152D01*
X123556780Y-71188533D01*
X123652019Y-71188533D01*
X123890114Y-71664723D02*
X124556780Y-71664723D01*
X123985352Y-71664723D02*
X123937733Y-71712342D01*
X123890114Y-71807580D01*
X123890114Y-71950438D01*
X123937733Y-72045676D01*
X124032971Y-72093295D01*
X124556780Y-72093295D01*
X124556780Y-72712342D02*
X124509161Y-72617104D01*
X124461542Y-72569485D01*
X124366304Y-72521866D01*
X124080590Y-72521866D01*
X123985352Y-72569485D01*
X123937733Y-72617104D01*
X123890114Y-72712342D01*
X123890114Y-72855200D01*
X123937733Y-72950438D01*
X123985352Y-72998057D01*
X124080590Y-73045676D01*
X124366304Y-73045676D01*
X124461542Y-72998057D01*
X124509161Y-72950438D01*
X124556780Y-72855200D01*
X124556780Y-72712342D01*
X124652019Y-73236152D02*
X124652019Y-73998057D01*
X124032971Y-74569485D02*
X124080590Y-74712342D01*
X124128209Y-74759961D01*
X124223447Y-74807580D01*
X124366304Y-74807580D01*
X124461542Y-74759961D01*
X124509161Y-74712342D01*
X124556780Y-74617104D01*
X124556780Y-74236152D01*
X123556780Y-74236152D01*
X123556780Y-74569485D01*
X123604400Y-74664723D01*
X123652019Y-74712342D01*
X123747257Y-74759961D01*
X123842495Y-74759961D01*
X123937733Y-74712342D01*
X123985352Y-74664723D01*
X124032971Y-74569485D01*
X124032971Y-74236152D01*
X124556780Y-75379009D02*
X124509161Y-75283771D01*
X124413923Y-75236152D01*
X123556780Y-75236152D01*
X124556780Y-75902819D02*
X124509161Y-75807580D01*
X124461542Y-75759961D01*
X124366304Y-75712342D01*
X124080590Y-75712342D01*
X123985352Y-75759961D01*
X123937733Y-75807580D01*
X123890114Y-75902819D01*
X123890114Y-76045676D01*
X123937733Y-76140914D01*
X123985352Y-76188533D01*
X124080590Y-76236152D01*
X124366304Y-76236152D01*
X124461542Y-76188533D01*
X124509161Y-76140914D01*
X124556780Y-76045676D01*
X124556780Y-75902819D01*
X124509161Y-77093295D02*
X124556780Y-76998057D01*
X124556780Y-76807580D01*
X124509161Y-76712342D01*
X124461542Y-76664723D01*
X124366304Y-76617104D01*
X124080590Y-76617104D01*
X123985352Y-76664723D01*
X123937733Y-76712342D01*
X123890114Y-76807580D01*
X123890114Y-76998057D01*
X123937733Y-77093295D01*
X124556780Y-77521866D02*
X123556780Y-77521866D01*
X124175828Y-77617104D02*
X124556780Y-77902819D01*
X123890114Y-77902819D02*
X124271066Y-77521866D01*
X124556780Y-78855200D02*
X124556780Y-78283771D01*
X124556780Y-78569485D02*
X123556780Y-78569485D01*
X123699638Y-78474247D01*
X123794876Y-78379009D01*
X123842495Y-78283771D01*
X120866800Y-54624266D02*
X120390609Y-54624266D01*
X120962038Y-54909980D02*
X120628704Y-53909980D01*
X120295371Y-54909980D01*
X119962038Y-54909980D02*
X119962038Y-54243314D01*
X119962038Y-54433790D02*
X119914419Y-54338552D01*
X119866800Y-54290933D01*
X119771561Y-54243314D01*
X119676323Y-54243314D01*
X118914419Y-54909980D02*
X118914419Y-53909980D01*
X118914419Y-54862361D02*
X119009657Y-54909980D01*
X119200133Y-54909980D01*
X119295371Y-54862361D01*
X119342990Y-54814742D01*
X119390609Y-54719504D01*
X119390609Y-54433790D01*
X119342990Y-54338552D01*
X119295371Y-54290933D01*
X119200133Y-54243314D01*
X119009657Y-54243314D01*
X118914419Y-54290933D01*
X118009657Y-54243314D02*
X118009657Y-54909980D01*
X118438228Y-54243314D02*
X118438228Y-54767123D01*
X118390609Y-54862361D01*
X118295371Y-54909980D01*
X118152514Y-54909980D01*
X118057276Y-54862361D01*
X118009657Y-54814742D01*
X117533466Y-54909980D02*
X117533466Y-54243314D01*
X117533466Y-53909980D02*
X117581085Y-53957600D01*
X117533466Y-54005219D01*
X117485847Y-53957600D01*
X117533466Y-53909980D01*
X117533466Y-54005219D01*
X117057276Y-54243314D02*
X117057276Y-54909980D01*
X117057276Y-54338552D02*
X117009657Y-54290933D01*
X116914419Y-54243314D01*
X116771561Y-54243314D01*
X116676323Y-54290933D01*
X116628704Y-54386171D01*
X116628704Y-54909980D01*
X116009657Y-54909980D02*
X116104895Y-54862361D01*
X116152514Y-54814742D01*
X116200133Y-54719504D01*
X116200133Y-54433790D01*
X116152514Y-54338552D01*
X116104895Y-54290933D01*
X116009657Y-54243314D01*
X115866800Y-54243314D01*
X115771561Y-54290933D01*
X115723942Y-54338552D01*
X115676323Y-54433790D01*
X115676323Y-54719504D01*
X115723942Y-54814742D01*
X115771561Y-54862361D01*
X115866800Y-54909980D01*
X116009657Y-54909980D01*
X115485847Y-55005219D02*
X114723942Y-55005219D01*
X114152514Y-54386171D02*
X114009657Y-54433790D01*
X113962038Y-54481409D01*
X113914419Y-54576647D01*
X113914419Y-54719504D01*
X113962038Y-54814742D01*
X114009657Y-54862361D01*
X114104895Y-54909980D01*
X114485847Y-54909980D01*
X114485847Y-53909980D01*
X114152514Y-53909980D01*
X114057276Y-53957600D01*
X114009657Y-54005219D01*
X113962038Y-54100457D01*
X113962038Y-54195695D01*
X114009657Y-54290933D01*
X114057276Y-54338552D01*
X114152514Y-54386171D01*
X114485847Y-54386171D01*
X113342990Y-54909980D02*
X113438228Y-54862361D01*
X113485847Y-54767123D01*
X113485847Y-53909980D01*
X112819180Y-54909980D02*
X112914419Y-54862361D01*
X112962038Y-54814742D01*
X113009657Y-54719504D01*
X113009657Y-54433790D01*
X112962038Y-54338552D01*
X112914419Y-54290933D01*
X112819180Y-54243314D01*
X112676323Y-54243314D01*
X112581085Y-54290933D01*
X112533466Y-54338552D01*
X112485847Y-54433790D01*
X112485847Y-54719504D01*
X112533466Y-54814742D01*
X112581085Y-54862361D01*
X112676323Y-54909980D01*
X112819180Y-54909980D01*
X111628704Y-54862361D02*
X111723942Y-54909980D01*
X111914419Y-54909980D01*
X112009657Y-54862361D01*
X112057276Y-54814742D01*
X112104895Y-54719504D01*
X112104895Y-54433790D01*
X112057276Y-54338552D01*
X112009657Y-54290933D01*
X111914419Y-54243314D01*
X111723942Y-54243314D01*
X111628704Y-54290933D01*
X111200133Y-54909980D02*
X111200133Y-53909980D01*
X111104895Y-54529028D02*
X110819180Y-54909980D01*
X110819180Y-54243314D02*
X111200133Y-54624266D01*
X110438228Y-54005219D02*
X110390609Y-53957600D01*
X110295371Y-53909980D01*
X110057276Y-53909980D01*
X109962038Y-53957600D01*
X109914419Y-54005219D01*
X109866800Y-54100457D01*
X109866800Y-54195695D01*
X109914419Y-54338552D01*
X110485847Y-54909980D01*
X109866800Y-54909980D01*
X122797200Y-98159866D02*
X122321009Y-98159866D01*
X122892438Y-98445580D02*
X122559104Y-97445580D01*
X122225771Y-98445580D01*
X121892438Y-98445580D02*
X121892438Y-97778914D01*
X121892438Y-97969390D02*
X121844819Y-97874152D01*
X121797200Y-97826533D01*
X121701961Y-97778914D01*
X121606723Y-97778914D01*
X120844819Y-98445580D02*
X120844819Y-97445580D01*
X120844819Y-98397961D02*
X120940057Y-98445580D01*
X121130533Y-98445580D01*
X121225771Y-98397961D01*
X121273390Y-98350342D01*
X121321009Y-98255104D01*
X121321009Y-97969390D01*
X121273390Y-97874152D01*
X121225771Y-97826533D01*
X121130533Y-97778914D01*
X120940057Y-97778914D01*
X120844819Y-97826533D01*
X119940057Y-97778914D02*
X119940057Y-98445580D01*
X120368628Y-97778914D02*
X120368628Y-98302723D01*
X120321009Y-98397961D01*
X120225771Y-98445580D01*
X120082914Y-98445580D01*
X119987676Y-98397961D01*
X119940057Y-98350342D01*
X119463866Y-98445580D02*
X119463866Y-97778914D01*
X119463866Y-97445580D02*
X119511485Y-97493200D01*
X119463866Y-97540819D01*
X119416247Y-97493200D01*
X119463866Y-97445580D01*
X119463866Y-97540819D01*
X118987676Y-97778914D02*
X118987676Y-98445580D01*
X118987676Y-97874152D02*
X118940057Y-97826533D01*
X118844819Y-97778914D01*
X118701961Y-97778914D01*
X118606723Y-97826533D01*
X118559104Y-97921771D01*
X118559104Y-98445580D01*
X117940057Y-98445580D02*
X118035295Y-98397961D01*
X118082914Y-98350342D01*
X118130533Y-98255104D01*
X118130533Y-97969390D01*
X118082914Y-97874152D01*
X118035295Y-97826533D01*
X117940057Y-97778914D01*
X117797200Y-97778914D01*
X117701961Y-97826533D01*
X117654342Y-97874152D01*
X117606723Y-97969390D01*
X117606723Y-98255104D01*
X117654342Y-98350342D01*
X117701961Y-98397961D01*
X117797200Y-98445580D01*
X117940057Y-98445580D01*
X117416247Y-98540819D02*
X116654342Y-98540819D01*
X116082914Y-97921771D02*
X115940057Y-97969390D01*
X115892438Y-98017009D01*
X115844819Y-98112247D01*
X115844819Y-98255104D01*
X115892438Y-98350342D01*
X115940057Y-98397961D01*
X116035295Y-98445580D01*
X116416247Y-98445580D01*
X116416247Y-97445580D01*
X116082914Y-97445580D01*
X115987676Y-97493200D01*
X115940057Y-97540819D01*
X115892438Y-97636057D01*
X115892438Y-97731295D01*
X115940057Y-97826533D01*
X115987676Y-97874152D01*
X116082914Y-97921771D01*
X116416247Y-97921771D01*
X115273390Y-98445580D02*
X115368628Y-98397961D01*
X115416247Y-98302723D01*
X115416247Y-97445580D01*
X114749580Y-98445580D02*
X114844819Y-98397961D01*
X114892438Y-98350342D01*
X114940057Y-98255104D01*
X114940057Y-97969390D01*
X114892438Y-97874152D01*
X114844819Y-97826533D01*
X114749580Y-97778914D01*
X114606723Y-97778914D01*
X114511485Y-97826533D01*
X114463866Y-97874152D01*
X114416247Y-97969390D01*
X114416247Y-98255104D01*
X114463866Y-98350342D01*
X114511485Y-98397961D01*
X114606723Y-98445580D01*
X114749580Y-98445580D01*
X113559104Y-98397961D02*
X113654342Y-98445580D01*
X113844819Y-98445580D01*
X113940057Y-98397961D01*
X113987676Y-98350342D01*
X114035295Y-98255104D01*
X114035295Y-97969390D01*
X113987676Y-97874152D01*
X113940057Y-97826533D01*
X113844819Y-97778914D01*
X113654342Y-97778914D01*
X113559104Y-97826533D01*
X113130533Y-98445580D02*
X113130533Y-97445580D01*
X113035295Y-98064628D02*
X112749580Y-98445580D01*
X112749580Y-97778914D02*
X113130533Y-98159866D01*
X112416247Y-97445580D02*
X111797200Y-97445580D01*
X112130533Y-97826533D01*
X111987676Y-97826533D01*
X111892438Y-97874152D01*
X111844819Y-97921771D01*
X111797200Y-98017009D01*
X111797200Y-98255104D01*
X111844819Y-98350342D01*
X111892438Y-98397961D01*
X111987676Y-98445580D01*
X112273390Y-98445580D01*
X112368628Y-98397961D01*
X112416247Y-98350342D01*
X154069006Y-48308380D02*
X153069006Y-48308380D01*
X153069006Y-48689332D01*
X153116626Y-48784570D01*
X153164245Y-48832189D01*
X153259483Y-48879808D01*
X153402340Y-48879808D01*
X153497578Y-48832189D01*
X153545197Y-48784570D01*
X153592816Y-48689332D01*
X153592816Y-48308380D01*
X153069006Y-49165523D02*
X153069006Y-49736951D01*
X154069006Y-49451237D02*
X153069006Y-49451237D01*
X154069006Y-50594094D02*
X154069006Y-50022665D01*
X154069006Y-50308380D02*
X153069006Y-50308380D01*
X153211864Y-50213142D01*
X153307102Y-50117904D01*
X153354721Y-50022665D01*
X153069006Y-51213142D02*
X153069006Y-51308380D01*
X153116626Y-51403618D01*
X153164245Y-51451237D01*
X153259483Y-51498856D01*
X153449959Y-51546475D01*
X153688054Y-51546475D01*
X153878530Y-51498856D01*
X153973768Y-51451237D01*
X154021387Y-51403618D01*
X154069006Y-51308380D01*
X154069006Y-51213142D01*
X154021387Y-51117904D01*
X153973768Y-51070284D01*
X153878530Y-51022665D01*
X153688054Y-50975046D01*
X153449959Y-50975046D01*
X153259483Y-51022665D01*
X153164245Y-51070284D01*
X153116626Y-51117904D01*
X153069006Y-51213142D01*
X153069006Y-52165523D02*
X153069006Y-52260761D01*
X153116626Y-52355999D01*
X153164245Y-52403618D01*
X153259483Y-52451237D01*
X153449959Y-52498856D01*
X153688054Y-52498856D01*
X153878530Y-52451237D01*
X153973768Y-52403618D01*
X154021387Y-52355999D01*
X154069006Y-52260761D01*
X154069006Y-52165523D01*
X154021387Y-52070284D01*
X153973768Y-52022665D01*
X153878530Y-51975046D01*
X153688054Y-51927427D01*
X153449959Y-51927427D01*
X153259483Y-51975046D01*
X153164245Y-52022665D01*
X153116626Y-52070284D01*
X153069006Y-52165523D01*
X154164245Y-52689332D02*
X154164245Y-53451237D01*
X154069006Y-53689332D02*
X153069006Y-53689332D01*
X153402340Y-54165523D02*
X154069006Y-54165523D01*
X153497578Y-54165523D02*
X153449959Y-54213142D01*
X153402340Y-54308380D01*
X153402340Y-54451237D01*
X153449959Y-54546475D01*
X153545197Y-54594094D01*
X154069006Y-54594094D01*
X153402340Y-55070284D02*
X154402340Y-55070284D01*
X153449959Y-55070284D02*
X153402340Y-55165523D01*
X153402340Y-55355999D01*
X153449959Y-55451237D01*
X153497578Y-55498856D01*
X153592816Y-55546475D01*
X153878530Y-55546475D01*
X153973768Y-55498856D01*
X154021387Y-55451237D01*
X154069006Y-55355999D01*
X154069006Y-55165523D01*
X154021387Y-55070284D01*
X153402340Y-56403618D02*
X154069006Y-56403618D01*
X153402340Y-55975046D02*
X153926149Y-55975046D01*
X154021387Y-56022665D01*
X154069006Y-56117904D01*
X154069006Y-56260761D01*
X154021387Y-56355999D01*
X153973768Y-56403618D01*
X153402340Y-56736951D02*
X153402340Y-57117904D01*
X153069006Y-56879808D02*
X153926149Y-56879808D01*
X154021387Y-56927427D01*
X154069006Y-57022665D01*
X154069006Y-57117904D01*
X154069006Y-57975046D02*
X154069006Y-57403618D01*
X154069006Y-57689332D02*
X153069006Y-57689332D01*
X153211864Y-57594094D01*
X153307102Y-57498856D01*
X153354721Y-57403618D01*
X177010438Y-58618380D02*
X177010438Y-57618380D01*
X176629485Y-57618380D01*
X176534247Y-57666000D01*
X176486628Y-57713619D01*
X176439009Y-57808857D01*
X176439009Y-57951714D01*
X176486628Y-58046952D01*
X176534247Y-58094571D01*
X176629485Y-58142190D01*
X177010438Y-58142190D01*
X176153295Y-57618380D02*
X175581866Y-57618380D01*
X175867580Y-58618380D02*
X175867580Y-57618380D01*
X174724723Y-58618380D02*
X175296152Y-58618380D01*
X175010438Y-58618380D02*
X175010438Y-57618380D01*
X175105676Y-57761238D01*
X175200914Y-57856476D01*
X175296152Y-57904095D01*
X174105676Y-57618380D02*
X174010438Y-57618380D01*
X173915200Y-57666000D01*
X173867580Y-57713619D01*
X173819961Y-57808857D01*
X173772342Y-57999333D01*
X173772342Y-58237428D01*
X173819961Y-58427904D01*
X173867580Y-58523142D01*
X173915200Y-58570761D01*
X174010438Y-58618380D01*
X174105676Y-58618380D01*
X174200914Y-58570761D01*
X174248533Y-58523142D01*
X174296152Y-58427904D01*
X174343771Y-58237428D01*
X174343771Y-57999333D01*
X174296152Y-57808857D01*
X174248533Y-57713619D01*
X174200914Y-57666000D01*
X174105676Y-57618380D01*
X173153295Y-57618380D02*
X173058057Y-57618380D01*
X172962819Y-57666000D01*
X172915200Y-57713619D01*
X172867580Y-57808857D01*
X172819961Y-57999333D01*
X172819961Y-58237428D01*
X172867580Y-58427904D01*
X172915200Y-58523142D01*
X172962819Y-58570761D01*
X173058057Y-58618380D01*
X173153295Y-58618380D01*
X173248533Y-58570761D01*
X173296152Y-58523142D01*
X173343771Y-58427904D01*
X173391390Y-58237428D01*
X173391390Y-57999333D01*
X173343771Y-57808857D01*
X173296152Y-57713619D01*
X173248533Y-57666000D01*
X173153295Y-57618380D01*
X172629485Y-58713619D02*
X171867580Y-58713619D01*
X171343771Y-57618380D02*
X171343771Y-58332666D01*
X171391390Y-58475523D01*
X171486628Y-58570761D01*
X171629485Y-58618380D01*
X171724723Y-58618380D01*
X170439009Y-58618380D02*
X170439009Y-58094571D01*
X170486628Y-57999333D01*
X170581866Y-57951714D01*
X170772342Y-57951714D01*
X170867580Y-57999333D01*
X170439009Y-58570761D02*
X170534247Y-58618380D01*
X170772342Y-58618380D01*
X170867580Y-58570761D01*
X170915200Y-58475523D01*
X170915200Y-58380285D01*
X170867580Y-58285047D01*
X170772342Y-58237428D01*
X170534247Y-58237428D01*
X170439009Y-58189809D01*
X169534247Y-58570761D02*
X169629485Y-58618380D01*
X169819961Y-58618380D01*
X169915200Y-58570761D01*
X169962819Y-58523142D01*
X170010438Y-58427904D01*
X170010438Y-58142190D01*
X169962819Y-58046952D01*
X169915200Y-57999333D01*
X169819961Y-57951714D01*
X169629485Y-57951714D01*
X169534247Y-57999333D01*
X169105676Y-58618380D02*
X169105676Y-57618380D01*
X169010438Y-58237428D02*
X168724723Y-58618380D01*
X168724723Y-57951714D02*
X169105676Y-58332666D01*
X167772342Y-58618380D02*
X168343771Y-58618380D01*
X168058057Y-58618380D02*
X168058057Y-57618380D01*
X168153295Y-57761238D01*
X168248533Y-57856476D01*
X168343771Y-57904095D01*
X150580453Y-126864165D02*
X150580453Y-126387974D01*
X150294739Y-126959403D02*
X151294739Y-126626070D01*
X150294739Y-126292736D01*
X150199500Y-126197498D02*
X150199500Y-125435593D01*
X150818548Y-124864165D02*
X150770929Y-124721308D01*
X150723310Y-124673689D01*
X150628072Y-124626070D01*
X150485215Y-124626070D01*
X150389977Y-124673689D01*
X150342358Y-124721308D01*
X150294739Y-124816546D01*
X150294739Y-125197498D01*
X151294739Y-125197498D01*
X151294739Y-124864165D01*
X151247120Y-124768927D01*
X151199500Y-124721308D01*
X151104262Y-124673689D01*
X151009024Y-124673689D01*
X150913786Y-124721308D01*
X150866167Y-124768927D01*
X150818548Y-124864165D01*
X150818548Y-125197498D01*
X150961405Y-123768927D02*
X150294739Y-123768927D01*
X150961405Y-124197498D02*
X150437596Y-124197498D01*
X150342358Y-124149879D01*
X150294739Y-124054641D01*
X150294739Y-123911784D01*
X150342358Y-123816546D01*
X150389977Y-123768927D01*
X150342358Y-122864165D02*
X150294739Y-122959403D01*
X150294739Y-123149879D01*
X150342358Y-123245117D01*
X150389977Y-123292736D01*
X150485215Y-123340355D01*
X150770929Y-123340355D01*
X150866167Y-123292736D01*
X150913786Y-123245117D01*
X150961405Y-123149879D01*
X150961405Y-122959403D01*
X150913786Y-122864165D01*
X150294739Y-122435593D02*
X151294739Y-122435593D01*
X150675691Y-122340355D02*
X150294739Y-122054641D01*
X150961405Y-122054641D02*
X150580453Y-122435593D01*
X150294739Y-121102260D02*
X150294739Y-121673689D01*
X150294739Y-121387974D02*
X151294739Y-121387974D01*
X151151881Y-121483213D01*
X151056643Y-121578451D01*
X151009024Y-121673689D01*
X145523313Y-126673665D02*
X145523313Y-126197474D01*
X145237599Y-126768903D02*
X146237599Y-126435570D01*
X145237599Y-126102236D01*
X145142360Y-126006998D02*
X145142360Y-125245093D01*
X145761408Y-124673665D02*
X145713789Y-124530808D01*
X145666170Y-124483189D01*
X145570932Y-124435570D01*
X145428075Y-124435570D01*
X145332837Y-124483189D01*
X145285218Y-124530808D01*
X145237599Y-124626046D01*
X145237599Y-125006998D01*
X146237599Y-125006998D01*
X146237599Y-124673665D01*
X146189980Y-124578427D01*
X146142360Y-124530808D01*
X146047122Y-124483189D01*
X145951884Y-124483189D01*
X145856646Y-124530808D01*
X145809027Y-124578427D01*
X145761408Y-124673665D01*
X145761408Y-125006998D01*
X145904265Y-123578427D02*
X145237599Y-123578427D01*
X145904265Y-124006998D02*
X145380456Y-124006998D01*
X145285218Y-123959379D01*
X145237599Y-123864141D01*
X145237599Y-123721284D01*
X145285218Y-123626046D01*
X145332837Y-123578427D01*
X145285218Y-122673665D02*
X145237599Y-122768903D01*
X145237599Y-122959379D01*
X145285218Y-123054617D01*
X145332837Y-123102236D01*
X145428075Y-123149855D01*
X145713789Y-123149855D01*
X145809027Y-123102236D01*
X145856646Y-123054617D01*
X145904265Y-122959379D01*
X145904265Y-122768903D01*
X145856646Y-122673665D01*
X145237599Y-122245093D02*
X146237599Y-122245093D01*
X145618551Y-122149855D02*
X145237599Y-121864141D01*
X145904265Y-121864141D02*
X145523313Y-122245093D01*
X146142360Y-121483189D02*
X146189980Y-121435570D01*
X146237599Y-121340332D01*
X146237599Y-121102236D01*
X146189980Y-121006998D01*
X146142360Y-120959379D01*
X146047122Y-120911760D01*
X145951884Y-120911760D01*
X145809027Y-120959379D01*
X145237599Y-121530808D01*
X145237599Y-120911760D01*
X150938593Y-108164447D02*
X150938593Y-107688256D01*
X150652879Y-108259685D02*
X151652879Y-107926352D01*
X150652879Y-107593018D01*
X150557640Y-107497780D02*
X150557640Y-106735875D01*
X151176688Y-106164447D02*
X151129069Y-106021590D01*
X151081450Y-105973971D01*
X150986212Y-105926352D01*
X150843355Y-105926352D01*
X150748117Y-105973971D01*
X150700498Y-106021590D01*
X150652879Y-106116828D01*
X150652879Y-106497780D01*
X151652879Y-106497780D01*
X151652879Y-106164447D01*
X151605260Y-106069209D01*
X151557640Y-106021590D01*
X151462402Y-105973971D01*
X151367164Y-105973971D01*
X151271926Y-106021590D01*
X151224307Y-106069209D01*
X151176688Y-106164447D01*
X151176688Y-106497780D01*
X151319545Y-105069209D02*
X150652879Y-105069209D01*
X151319545Y-105497780D02*
X150795736Y-105497780D01*
X150700498Y-105450161D01*
X150652879Y-105354923D01*
X150652879Y-105212066D01*
X150700498Y-105116828D01*
X150748117Y-105069209D01*
X150700498Y-104164447D02*
X150652879Y-104259685D01*
X150652879Y-104450161D01*
X150700498Y-104545399D01*
X150748117Y-104593018D01*
X150843355Y-104640637D01*
X151129069Y-104640637D01*
X151224307Y-104593018D01*
X151271926Y-104545399D01*
X151319545Y-104450161D01*
X151319545Y-104259685D01*
X151271926Y-104164447D01*
X150652879Y-103735875D02*
X151652879Y-103735875D01*
X151033831Y-103640637D02*
X150652879Y-103354923D01*
X151319545Y-103354923D02*
X150938593Y-103735875D01*
X150557640Y-103164447D02*
X150557640Y-102402542D01*
X151605260Y-101640637D02*
X151652879Y-101735875D01*
X151652879Y-101878733D01*
X151605260Y-102021590D01*
X151510021Y-102116828D01*
X151414783Y-102164447D01*
X151224307Y-102212066D01*
X151081450Y-102212066D01*
X150890974Y-102164447D01*
X150795736Y-102116828D01*
X150700498Y-102021590D01*
X150652879Y-101878733D01*
X150652879Y-101783494D01*
X150700498Y-101640637D01*
X150748117Y-101593018D01*
X151081450Y-101593018D01*
X151081450Y-101783494D01*
X150652879Y-101164447D02*
X151652879Y-101164447D01*
X150652879Y-100593018D01*
X151652879Y-100593018D01*
X150652879Y-100116828D02*
X151652879Y-100116828D01*
X151652879Y-99878733D01*
X151605260Y-99735875D01*
X151510021Y-99640637D01*
X151414783Y-99593018D01*
X151224307Y-99545399D01*
X151081450Y-99545399D01*
X150890974Y-99593018D01*
X150795736Y-99640637D01*
X150700498Y-99735875D01*
X150652879Y-99878733D01*
X150652879Y-100116828D01*
X150652879Y-98593018D02*
X150652879Y-99164447D01*
X150652879Y-98878733D02*
X151652879Y-98878733D01*
X151510021Y-98973971D01*
X151414783Y-99069209D01*
X151367164Y-99164447D01*
X174196075Y-121443109D02*
X173719885Y-121109776D01*
X174196075Y-120871681D02*
X173196075Y-120871681D01*
X173196075Y-121252633D01*
X173243695Y-121347871D01*
X173291314Y-121395490D01*
X173386552Y-121443109D01*
X173529409Y-121443109D01*
X173624647Y-121395490D01*
X173672266Y-121347871D01*
X173719885Y-121252633D01*
X173719885Y-120871681D01*
X174291314Y-121633585D02*
X174291314Y-122395490D01*
X173672266Y-122966919D02*
X173719885Y-123109776D01*
X173767504Y-123157395D01*
X173862742Y-123205014D01*
X174005599Y-123205014D01*
X174100837Y-123157395D01*
X174148456Y-123109776D01*
X174196075Y-123014538D01*
X174196075Y-122633585D01*
X173196075Y-122633585D01*
X173196075Y-122966919D01*
X173243695Y-123062157D01*
X173291314Y-123109776D01*
X173386552Y-123157395D01*
X173481790Y-123157395D01*
X173577028Y-123109776D01*
X173624647Y-123062157D01*
X173672266Y-122966919D01*
X173672266Y-122633585D01*
X173529409Y-124062157D02*
X174196075Y-124062157D01*
X173529409Y-123633585D02*
X174053218Y-123633585D01*
X174148456Y-123681204D01*
X174196075Y-123776443D01*
X174196075Y-123919300D01*
X174148456Y-124014538D01*
X174100837Y-124062157D01*
X174148456Y-124966919D02*
X174196075Y-124871681D01*
X174196075Y-124681204D01*
X174148456Y-124585966D01*
X174100837Y-124538347D01*
X174005599Y-124490728D01*
X173719885Y-124490728D01*
X173624647Y-124538347D01*
X173577028Y-124585966D01*
X173529409Y-124681204D01*
X173529409Y-124871681D01*
X173577028Y-124966919D01*
X174196075Y-125395490D02*
X173196075Y-125395490D01*
X173815123Y-125490728D02*
X174196075Y-125776443D01*
X173529409Y-125776443D02*
X173910361Y-125395490D01*
X173291314Y-126157395D02*
X173243695Y-126205014D01*
X173196075Y-126300252D01*
X173196075Y-126538347D01*
X173243695Y-126633585D01*
X173291314Y-126681204D01*
X173386552Y-126728823D01*
X173481790Y-126728823D01*
X173624647Y-126681204D01*
X174196075Y-126109776D01*
X174196075Y-126728823D01*
X168917955Y-120343337D02*
X168441765Y-120010003D01*
X168917955Y-119771908D02*
X167917955Y-119771908D01*
X167917955Y-120152861D01*
X167965575Y-120248099D01*
X168013194Y-120295718D01*
X168108432Y-120343337D01*
X168251289Y-120343337D01*
X168346527Y-120295718D01*
X168394146Y-120248099D01*
X168441765Y-120152861D01*
X168441765Y-119771908D01*
X169013194Y-120533813D02*
X169013194Y-121295718D01*
X168394146Y-121867146D02*
X168441765Y-122010003D01*
X168489384Y-122057623D01*
X168584622Y-122105242D01*
X168727479Y-122105242D01*
X168822717Y-122057623D01*
X168870336Y-122010003D01*
X168917955Y-121914765D01*
X168917955Y-121533813D01*
X167917955Y-121533813D01*
X167917955Y-121867146D01*
X167965575Y-121962384D01*
X168013194Y-122010003D01*
X168108432Y-122057623D01*
X168203670Y-122057623D01*
X168298908Y-122010003D01*
X168346527Y-121962384D01*
X168394146Y-121867146D01*
X168394146Y-121533813D01*
X168251289Y-122962384D02*
X168917955Y-122962384D01*
X168251289Y-122533813D02*
X168775098Y-122533813D01*
X168870336Y-122581432D01*
X168917955Y-122676670D01*
X168917955Y-122819527D01*
X168870336Y-122914765D01*
X168822717Y-122962384D01*
X168870336Y-123867146D02*
X168917955Y-123771908D01*
X168917955Y-123581432D01*
X168870336Y-123486194D01*
X168822717Y-123438575D01*
X168727479Y-123390956D01*
X168441765Y-123390956D01*
X168346527Y-123438575D01*
X168298908Y-123486194D01*
X168251289Y-123581432D01*
X168251289Y-123771908D01*
X168298908Y-123867146D01*
X168917955Y-124295718D02*
X167917955Y-124295718D01*
X168537003Y-124390956D02*
X168917955Y-124676670D01*
X168251289Y-124676670D02*
X168632241Y-124295718D01*
X169013194Y-124867146D02*
X169013194Y-125629051D01*
X168917955Y-126390956D02*
X168917955Y-125819527D01*
X168917955Y-126105242D02*
X167917955Y-126105242D01*
X168060813Y-126010003D01*
X168156051Y-125914765D01*
X168203670Y-125819527D01*
X164775215Y-98963635D02*
X164299025Y-98630302D01*
X164775215Y-98392206D02*
X163775215Y-98392206D01*
X163775215Y-98773159D01*
X163822835Y-98868397D01*
X163870454Y-98916016D01*
X163965692Y-98963635D01*
X164108549Y-98963635D01*
X164203787Y-98916016D01*
X164251406Y-98868397D01*
X164299025Y-98773159D01*
X164299025Y-98392206D01*
X164870454Y-99154111D02*
X164870454Y-99916016D01*
X164251406Y-100487444D02*
X164299025Y-100630302D01*
X164346644Y-100677921D01*
X164441882Y-100725540D01*
X164584739Y-100725540D01*
X164679977Y-100677921D01*
X164727596Y-100630302D01*
X164775215Y-100535063D01*
X164775215Y-100154111D01*
X163775215Y-100154111D01*
X163775215Y-100487444D01*
X163822835Y-100582683D01*
X163870454Y-100630302D01*
X163965692Y-100677921D01*
X164060930Y-100677921D01*
X164156168Y-100630302D01*
X164203787Y-100582683D01*
X164251406Y-100487444D01*
X164251406Y-100154111D01*
X164108549Y-101582683D02*
X164775215Y-101582683D01*
X164108549Y-101154111D02*
X164632358Y-101154111D01*
X164727596Y-101201730D01*
X164775215Y-101296968D01*
X164775215Y-101439825D01*
X164727596Y-101535063D01*
X164679977Y-101582683D01*
X164727596Y-102487444D02*
X164775215Y-102392206D01*
X164775215Y-102201730D01*
X164727596Y-102106492D01*
X164679977Y-102058873D01*
X164584739Y-102011254D01*
X164299025Y-102011254D01*
X164203787Y-102058873D01*
X164156168Y-102106492D01*
X164108549Y-102201730D01*
X164108549Y-102392206D01*
X164156168Y-102487444D01*
X164775215Y-102916016D02*
X163775215Y-102916016D01*
X164394263Y-103011254D02*
X164775215Y-103296968D01*
X164108549Y-103296968D02*
X164489501Y-102916016D01*
X164870454Y-103487444D02*
X164870454Y-104249349D01*
X163775215Y-104963635D02*
X163775215Y-104487444D01*
X164251406Y-104439825D01*
X164203787Y-104487444D01*
X164156168Y-104582683D01*
X164156168Y-104820778D01*
X164203787Y-104916016D01*
X164251406Y-104963635D01*
X164346644Y-105011254D01*
X164584739Y-105011254D01*
X164679977Y-104963635D01*
X164727596Y-104916016D01*
X164775215Y-104820778D01*
X164775215Y-104582683D01*
X164727596Y-104487444D01*
X164679977Y-104439825D01*
X163775215Y-105296968D02*
X164775215Y-105630302D01*
X163775215Y-105963635D01*
X164775215Y-106820778D02*
X164775215Y-106249349D01*
X164775215Y-106535063D02*
X163775215Y-106535063D01*
X163918073Y-106439825D01*
X164013311Y-106344587D01*
X164060930Y-106249349D01*
X174483095Y-99045627D02*
X174006905Y-98712294D01*
X174483095Y-98474199D02*
X173483095Y-98474199D01*
X173483095Y-98855151D01*
X173530715Y-98950389D01*
X173578334Y-98998008D01*
X173673572Y-99045627D01*
X173816429Y-99045627D01*
X173911667Y-98998008D01*
X173959286Y-98950389D01*
X174006905Y-98855151D01*
X174006905Y-98474199D01*
X174578334Y-99236103D02*
X174578334Y-99998008D01*
X173959286Y-100569437D02*
X174006905Y-100712294D01*
X174054524Y-100759913D01*
X174149762Y-100807532D01*
X174292619Y-100807532D01*
X174387857Y-100759913D01*
X174435476Y-100712294D01*
X174483095Y-100617056D01*
X174483095Y-100236103D01*
X173483095Y-100236103D01*
X173483095Y-100569437D01*
X173530715Y-100664675D01*
X173578334Y-100712294D01*
X173673572Y-100759913D01*
X173768810Y-100759913D01*
X173864048Y-100712294D01*
X173911667Y-100664675D01*
X173959286Y-100569437D01*
X173959286Y-100236103D01*
X173816429Y-101664675D02*
X174483095Y-101664675D01*
X173816429Y-101236103D02*
X174340238Y-101236103D01*
X174435476Y-101283723D01*
X174483095Y-101378961D01*
X174483095Y-101521818D01*
X174435476Y-101617056D01*
X174387857Y-101664675D01*
X174435476Y-102569437D02*
X174483095Y-102474199D01*
X174483095Y-102283723D01*
X174435476Y-102188484D01*
X174387857Y-102140865D01*
X174292619Y-102093246D01*
X174006905Y-102093246D01*
X173911667Y-102140865D01*
X173864048Y-102188484D01*
X173816429Y-102283723D01*
X173816429Y-102474199D01*
X173864048Y-102569437D01*
X174483095Y-102998008D02*
X173483095Y-102998008D01*
X174102143Y-103093246D02*
X174483095Y-103378961D01*
X173816429Y-103378961D02*
X174197381Y-102998008D01*
X174578334Y-103569437D02*
X174578334Y-104331342D01*
X173530715Y-105093246D02*
X173483095Y-104998008D01*
X173483095Y-104855151D01*
X173530715Y-104712294D01*
X173625953Y-104617056D01*
X173721191Y-104569437D01*
X173911667Y-104521818D01*
X174054524Y-104521818D01*
X174245000Y-104569437D01*
X174340238Y-104617056D01*
X174435476Y-104712294D01*
X174483095Y-104855151D01*
X174483095Y-104950389D01*
X174435476Y-105093246D01*
X174387857Y-105140865D01*
X174054524Y-105140865D01*
X174054524Y-104950389D01*
X174483095Y-105569437D02*
X173483095Y-105569437D01*
X174483095Y-106140865D01*
X173483095Y-106140865D01*
X174483095Y-106617056D02*
X173483095Y-106617056D01*
X173483095Y-106855151D01*
X173530715Y-106998008D01*
X173625953Y-107093246D01*
X173721191Y-107140865D01*
X173911667Y-107188484D01*
X174054524Y-107188484D01*
X174245000Y-107140865D01*
X174340238Y-107093246D01*
X174435476Y-106998008D01*
X174483095Y-106855151D01*
X174483095Y-106617056D01*
X174483095Y-108140865D02*
X174483095Y-107569437D01*
X174483095Y-107855151D02*
X173483095Y-107855151D01*
X173625953Y-107759913D01*
X173721191Y-107664675D01*
X173768810Y-107569437D01*
X141006533Y-105747676D02*
X141006533Y-105271485D01*
X140720819Y-105842914D02*
X141720819Y-105509580D01*
X140720819Y-105176247D01*
X140625580Y-105081009D02*
X140625580Y-104319104D01*
X141244628Y-103747676D02*
X141197009Y-103604819D01*
X141149390Y-103557200D01*
X141054152Y-103509580D01*
X140911295Y-103509580D01*
X140816057Y-103557200D01*
X140768438Y-103604819D01*
X140720819Y-103700057D01*
X140720819Y-104081009D01*
X141720819Y-104081009D01*
X141720819Y-103747676D01*
X141673200Y-103652438D01*
X141625580Y-103604819D01*
X141530342Y-103557200D01*
X141435104Y-103557200D01*
X141339866Y-103604819D01*
X141292247Y-103652438D01*
X141244628Y-103747676D01*
X141244628Y-104081009D01*
X141387485Y-102652438D02*
X140720819Y-102652438D01*
X141387485Y-103081009D02*
X140863676Y-103081009D01*
X140768438Y-103033390D01*
X140720819Y-102938152D01*
X140720819Y-102795295D01*
X140768438Y-102700057D01*
X140816057Y-102652438D01*
X140768438Y-101747676D02*
X140720819Y-101842914D01*
X140720819Y-102033390D01*
X140768438Y-102128628D01*
X140816057Y-102176247D01*
X140911295Y-102223866D01*
X141197009Y-102223866D01*
X141292247Y-102176247D01*
X141339866Y-102128628D01*
X141387485Y-102033390D01*
X141387485Y-101842914D01*
X141339866Y-101747676D01*
X140720819Y-101319104D02*
X141720819Y-101319104D01*
X141101771Y-101223866D02*
X140720819Y-100938152D01*
X141387485Y-100938152D02*
X141006533Y-101319104D01*
X140625580Y-100747676D02*
X140625580Y-99985771D01*
X140720819Y-99700057D02*
X140720819Y-99509580D01*
X140768438Y-99414342D01*
X140816057Y-99366723D01*
X140958914Y-99271485D01*
X141149390Y-99223866D01*
X141530342Y-99223866D01*
X141625580Y-99271485D01*
X141673200Y-99319104D01*
X141720819Y-99414342D01*
X141720819Y-99604819D01*
X141673200Y-99700057D01*
X141625580Y-99747676D01*
X141530342Y-99795295D01*
X141292247Y-99795295D01*
X141197009Y-99747676D01*
X141149390Y-99700057D01*
X141101771Y-99604819D01*
X141101771Y-99414342D01*
X141149390Y-99319104D01*
X141197009Y-99271485D01*
X141292247Y-99223866D01*
X141720819Y-98938152D02*
X140720819Y-98604819D01*
X141720819Y-98271485D01*
M02*
