M48
;DRILL file {KiCad 5.0.0-rc2-dev-unknown-0ded476~63~ubuntu17.10.1} date Sun Apr  8 11:22:01 2018
;FORMAT={-:-/ absolute / metric / decimal}
FMAT,2
METRIC,TZ
T1C0.400
T2C1.000
T3C1.200
T4C1.300
T5C2.200
T6C2.300
T7C2.500
%
G90
G05
M71
T1
X111.608Y-70.968
X112.268Y-47.955
X114.148Y-76.149
X114.605Y-43.383
X117.17Y-42.24
X121.31Y-54.458
X121.412Y-59.538
X121.514Y-64.567
X121.564Y-62.027
X121.615Y-67.107
X122.123Y-56.896
X122.174Y-42.266
X123.444Y-38.608
X124.003Y-39.878
X124.308Y-41.148
X124.714Y-42.418
X126.695Y-47.752
X131.369Y-86.665
X131.978Y-53.645
X131.978Y-62.179
X131.978Y-67.513
X133.147Y-51.765
X133.198Y-77.114
X134.01Y-54.305
X134.01Y-74.778
X134.823Y-38.557
X134.823Y-49.276
X134.823Y-79.705
X134.976Y-82.448
X135.941Y-46.736
X137.389Y-39.878
X137.465Y-70.612
X137.516Y-70.663
X139.929Y-41.173
X142.469Y-42.418
X143.408Y-86.665
X145.237Y-58.598
X145.948Y-87.732
X148.692Y-89.205
X153.111Y-133.807
X154.076Y-44.806
X154.076Y-67.742
X160.376Y-95.961
X165.303Y-99.416
X171.399Y-96.012
T2
X171.4Y-99.399
X171.311Y-125.396
X148.26Y-125.581
X137.516Y-73.85
X137.516Y-76.391
X137.516Y-78.93
X137.516Y-81.471
X137.516Y-84.01
X153.111Y-125.619
X138.582Y-99.619
X161.621Y-99.45
X110.084Y-105.613
X112.624Y-105.613
X115.164Y-105.613
X117.704Y-105.613
X120.244Y-105.613
X122.784Y-105.613
X125.324Y-105.613
X127.864Y-105.613
X126.695Y-51.956
X126.695Y-54.496
X126.695Y-57.036
X126.695Y-59.576
X126.695Y-62.116
X126.695Y-64.656
X126.695Y-67.196
X126.695Y-69.736
X126.695Y-72.276
X126.695Y-74.816
X126.695Y-77.356
X126.695Y-79.896
X126.695Y-82.436
X126.695Y-84.976
X126.695Y-87.516
X126.695Y-90.056
X126.695Y-92.596
X126.695Y-95.136
X129.235Y-51.956
X129.235Y-54.496
X129.235Y-57.036
X129.235Y-59.576
X129.235Y-62.116
X129.235Y-64.656
X129.235Y-67.196
X129.235Y-69.736
X129.235Y-72.276
X129.235Y-74.816
X129.235Y-77.356
X129.235Y-79.896
X129.235Y-82.436
X129.235Y-84.976
X129.235Y-87.516
X129.235Y-90.056
X129.235Y-92.596
X129.235Y-95.136
X111.455Y-100.266
X113.995Y-100.266
X116.535Y-100.266
X119.075Y-100.266
X121.615Y-100.266
X124.155Y-100.266
X148.323Y-99.66
X111.404Y-51.956
X113.944Y-51.956
X116.484Y-51.956
X119.024Y-51.956
X137.871Y-44.196
X137.871Y-46.736
X137.871Y-49.276
X137.871Y-51.816
X137.871Y-54.356
X137.871Y-56.896
X137.871Y-59.436
X137.871Y-61.976
X174.498Y-39.878
X174.498Y-42.378
X174.498Y-44.878
X160.274Y-92.253
X162.814Y-92.253
X165.354Y-92.253
X176.137Y-125.383
X143.612Y-92.253
X146.152Y-92.253
X148.692Y-92.253
X151.232Y-92.253
T3
X109.474Y-35.598
X112.014Y-35.598
X114.554Y-35.598
X117.094Y-35.598
X119.634Y-35.598
X122.174Y-35.598
X124.714Y-35.598
X127.254Y-35.598
X129.794Y-35.598
X132.334Y-35.598
X134.874Y-35.598
X137.414Y-35.598
X139.954Y-35.598
X142.494Y-35.598
X145.034Y-35.598
X147.574Y-35.598
X159.509Y-47.85
X159.509Y-51.35
X159.509Y-54.85
X159.509Y-58.35
T4
X168.468Y-61.984
X171.668Y-52.684
X172.868Y-55.384
X175.768Y-62.484
X179.668Y-57.884
X110.962Y-115.824
X115.962Y-115.824
X120.962Y-115.824
X125.962Y-115.824
X130.962Y-115.824
T5
X121.056Y-133.858
X153.314Y-143.307
X114.097Y-133.858
X165.1Y-143.307
X128.067Y-133.858
T6
X171.198Y-37.378
X171.198Y-47.378
T7
X178.973Y-66.599
X178.974Y-35.598
T0
M30
