G04 #@! TF.GenerationSoftware,KiCad,Pcbnew,5.0.0-rc2-dev-unknown-0ded476~63~ubuntu17.10.1*
G04 #@! TF.CreationDate,2018-04-08T11:22:16-07:00*
G04 #@! TF.ProjectId,Half_Shield,48616C665F536869656C642E6B696361,rev?*
G04 #@! TF.SameCoordinates,Original*
G04 #@! TF.FileFunction,Soldermask,Bot*
G04 #@! TF.FilePolarity,Negative*
%FSLAX46Y46*%
G04 Gerber Fmt 4.6, Leading zero omitted, Abs format (unit mm)*
G04 Created by KiCad (PCBNEW 5.0.0-rc2-dev-unknown-0ded476~63~ubuntu17.10.1) date Sun Apr  8 11:22:16 2018*
%MOMM*%
%LPD*%
G01*
G04 APERTURE LIST*
%ADD10R,1.800000X2.600000*%
%ADD11O,1.800000X2.600000*%
%ADD12C,3.000000*%
%ADD13O,1.700000X1.700000*%
%ADD14R,1.700000X1.700000*%
%ADD15C,2.400000*%
%ADD16R,2.400000X2.400000*%
%ADD17O,2.200000X4.000000*%
%ADD18O,4.000000X2.200000*%
%ADD19C,3.500000*%
%ADD20C,3.800000*%
%ADD21C,4.600000*%
%ADD22C,1.800000*%
%ADD23C,2.500000*%
%ADD24R,2.500000X2.500000*%
G04 APERTURE END LIST*
D10*
X109474000Y-35598100D03*
D11*
X112014000Y-35598100D03*
X114554000Y-35598100D03*
X117094000Y-35598100D03*
X119634000Y-35598100D03*
X122174000Y-35598100D03*
X124714000Y-35598100D03*
X127254000Y-35598100D03*
X129794000Y-35598100D03*
X132334000Y-35598100D03*
X134874000Y-35598100D03*
X137414000Y-35598100D03*
X139954000Y-35598100D03*
X142494000Y-35598100D03*
X145034000Y-35598100D03*
X147574000Y-35598100D03*
D12*
X178973480Y-66598800D03*
X178974000Y-35598100D03*
D13*
X126695200Y-95135700D03*
X129235200Y-95135700D03*
X126695200Y-92595700D03*
X129235200Y-92595700D03*
X126695200Y-90055700D03*
X129235200Y-90055700D03*
X126695200Y-87515700D03*
X129235200Y-87515700D03*
X126695200Y-84975700D03*
X129235200Y-84975700D03*
X126695200Y-82435700D03*
X129235200Y-82435700D03*
X126695200Y-79895700D03*
X129235200Y-79895700D03*
X126695200Y-77355700D03*
X129235200Y-77355700D03*
X126695200Y-74815700D03*
X129235200Y-74815700D03*
X126695200Y-72275700D03*
X129235200Y-72275700D03*
X126695200Y-69735700D03*
X129235200Y-69735700D03*
X126695200Y-67195700D03*
X129235200Y-67195700D03*
X126695200Y-64655700D03*
X129235200Y-64655700D03*
X126695200Y-62115700D03*
X129235200Y-62115700D03*
X126695200Y-59575700D03*
X129235200Y-59575700D03*
X126695200Y-57035700D03*
X129235200Y-57035700D03*
X126695200Y-54495700D03*
X129235200Y-54495700D03*
X126695200Y-51955700D03*
D14*
X129235200Y-51955700D03*
D13*
X119024400Y-51955700D03*
X116484400Y-51955700D03*
X113944400Y-51955700D03*
D14*
X111404400Y-51955700D03*
D13*
X111455200Y-100266500D03*
X113995200Y-100266500D03*
X116535200Y-100266500D03*
X119075200Y-100266500D03*
X121615200Y-100266500D03*
D14*
X124155200Y-100266500D03*
D13*
X110083600Y-105613200D03*
X112623600Y-105613200D03*
X115163600Y-105613200D03*
X117703600Y-105613200D03*
X120243600Y-105613200D03*
X122783600Y-105613200D03*
X125323600Y-105613200D03*
D14*
X127863600Y-105613200D03*
D13*
X137515600Y-84010500D03*
X137515600Y-81470500D03*
X137515600Y-78930500D03*
X137515600Y-76390500D03*
D14*
X137515600Y-73850500D03*
D15*
X159509426Y-51350304D03*
X159509426Y-47850304D03*
X159509426Y-54850304D03*
D16*
X159509426Y-58350304D03*
D17*
X179668000Y-57884000D03*
D18*
X171668000Y-52684000D03*
X172868000Y-55384000D03*
D17*
X168468000Y-61984000D03*
D18*
X175768000Y-62484000D03*
D13*
X151231600Y-92252800D03*
X148691600Y-92252800D03*
X146151600Y-92252800D03*
D14*
X143611600Y-92252800D03*
X160274000Y-92252800D03*
D13*
X162814000Y-92252800D03*
X165354000Y-92252800D03*
D14*
X153110949Y-125618646D03*
X148259549Y-125580546D03*
X148323049Y-99659846D03*
X176137176Y-125383292D03*
X171311176Y-125395992D03*
X161621076Y-99449892D03*
X171400076Y-99399092D03*
D19*
X121056400Y-133858000D03*
X128066800Y-133858000D03*
X114096800Y-133858000D03*
D13*
X137871200Y-44196000D03*
X137871200Y-46736000D03*
X137871200Y-49276000D03*
X137871200Y-51816000D03*
X137871200Y-54356000D03*
X137871200Y-56896000D03*
X137871200Y-59436000D03*
D14*
X137871200Y-61976000D03*
D20*
X153314400Y-143306800D03*
X165100000Y-143306800D03*
D21*
X171198000Y-37378000D03*
X171198000Y-47378000D03*
D22*
X174498000Y-39878000D03*
X174498000Y-42378000D03*
X174498000Y-44878000D03*
D14*
X138582400Y-99618800D03*
D23*
X110962400Y-115824000D03*
X115962400Y-115824000D03*
X120962400Y-115824000D03*
X125962400Y-115824000D03*
D24*
X130962400Y-115824000D03*
M02*
