<?xml version="1.0" encoding="UTF-8"?>
<!DOCTYPE svg PUBLIC "-//W3C//DTD SVG 1.1//EN" "http://www.w3.org/Graphics/SVG/1.1/DTD/svg11.dtd">

<svg xmlns="http://www.w3.org/2000/svg" xmlns:xlink="http://www.w3.org/1999/xlink" width="203px" height="243.8px" viewbox="0 0 203 243.8" version="1.1">
  <title>TPS56120X_BUCK_DDC_A_top: null</title>
  <desc>TPS56120X_BUCK_DDC_A WebTHERM&amp;reg; Board Layout file</desc>
<defs>
<g id="0603">
  <g id="Mask" style="display:none;">
  	<rect style="display:inline;" width="6.4" height="3.2"/>
  	<rect x="1.6" style="display:inline;" width="3.2" height="3.2"/>
  </g>
  <g id="Outline" style="display:none;">
  	<g style="display:inline;">
  		<path d="M6.15,0.25v2.7h-5.9v-2.7H6.15 M6.4,0H0v3.2h6.4V0L6.4,0z"/>
  	</g>
  	<g style="display:inline;">
  		<path d="M4.55,0.25v2.7h-2.7v-2.7H4.55 M4.8,0H1.6v3.2h3.2V0L4.8,0z"/>
  	</g>
  </g>
  <g id="Color">
  	<rect style="fill:#B3B3B3;" width="6.4" height="3.2"/>
  	<rect x="1.6" style="fill:#1A1A1A;" width="3.2" height="3.2"/>
  </g>
</g>
<g id="0805">
  <g id="MASK" style="display:none;">
  	<g style="display:inline;">
  		<rect x="0.279" y="0.279" width="7.442" height="4.442"/>
  		<path d="M7.442,0.558v3.884H0.558V0.558H7.442 M8,0H0v5h8V0L8,0z"/>
  	</g>
  </g>
  <g id="COLOR">
  	<rect style="fill:#CBCBCB;" width="8" height="5"/>
  	<rect x="1.75" style="fill:#363636;" width="4.5" height="5"/>
  </g>
  <g id="OUTLINE" style="display:none;">
  	<g style="display:inline;">
  		<path d="M7.442,0.558v3.884H0.558V0.558H7.442 M8,0H0v5h8V0L8,0z"/>
  	</g>
  	<g style="display:inline;">
  		<path d="M5.656,0.594v3.812H2.344V0.594H5.656 M6.25,0h-4.5v5h4.5V0L6.25,0z"/>
  	</g>
  </g>
</g>
<g id="1206">
  <g>
  	<rect x="0.5" y="0.5" fill="#5B5B5B" stroke="#000000" width="13" height="7"/>
  	<rect x="0.5" y="0.5" fill="#C6C6C6" stroke="#000000" width="3" height="7"/>
  	<rect x="10.5" y="0.501" fill="#C6C6C6" stroke="#000000" width="3" height="6.999"/>
  </g>
</g>
<g id="SRN6045">
  <g id="Mask" display="none">
  	<path display="inline" fill="none" stroke="#000000" stroke-linecap="round" stroke-linejoin="round" d="M24.5,14.661l-0.432-0.021
  		h-0.632c-0.534,0-0.967-1.432-0.967-2.14c0-0.708,0.433-2.139,0.967-2.139h0.564L24.5,10.28c-0.135-1.331,0-2.93,0-2.93
  		S23.67,2.7,18.305,0.5H6.703C1.41,2.791,0.5,7.692,0.5,7.692s0.118,1.437,0,2.669h1.058c0.534,0,0.967,1.431,0.967,2.139
  		c0,0.708-0.433,2.14-0.967,2.14H0.994L0.5,14.613c0.13,1.395,0,3.105,0,3.105s1.271,4.497,6.203,6.782h11.6
  		c5.458-2.104,6.197-6.775,6.197-6.775S24.366,16.041,24.5,14.661z"/>
  	<path display="inline" stroke="#000000" stroke-linecap="round" stroke-linejoin="round" d="M24.5,14.661l-0.432-0.021h-0.632
  		c-0.534,0-0.967-1.432-0.967-2.14c0-0.708,0.433-2.139,0.967-2.139h0.564L24.5,10.28c-0.135-1.331,0-2.93,0-2.93
  		S23.67,2.7,18.305,0.5H6.703C1.41,2.791,0.5,7.692,0.5,7.692s0.118,1.437,0,2.669h1.058c0.534,0,0.967,1.431,0.967,2.139
  		c0,0.708-0.433,2.14-0.967,2.14H0.994L0.5,14.613c0.13,1.395,0,3.105,0,3.105s1.271,4.497,6.203,6.782h11.6
  		c5.458-2.104,6.197-6.775,6.197-6.775S24.366,16.041,24.5,14.661z"/>
  </g>
  <g id="Color">
  	<path fill="#CCCCCC" stroke="#000000" stroke-linecap="round" stroke-linejoin="round" d="M24.5,14.661l-0.432-0.021h-0.632
  		c-0.534,0-0.967-1.432-0.967-2.14c0-0.708,0.433-2.139,0.967-2.139h0.564L24.5,10.28c-0.135-1.331,0-2.93,0-2.93
  		S23.67,2.7,18.305,0.5H6.703C1.41,2.791,0.5,7.692,0.5,7.692s0.118,1.437,0,2.669h1.058c0.534,0,0.967,1.431,0.967,2.139
  		c0,0.708-0.433,2.14-0.967,2.14H0.994L0.5,14.613c0.13,1.395,0,3.105,0,3.105s1.271,4.497,6.203,6.782h11.6
  		c5.458-2.104,6.197-6.775,6.197-6.775S24.366,16.041,24.5,14.661z"/>
  </g>
  <g id="Outline" display="none">
  </g>
</g>
<g id="0201">
  <g id="Mask" display="none">
  	<rect x="0.5" y="0.5" display="inline" stroke="#000000" width="2.4" height="1.2"/>
  </g>
  <g id="Color">
  	<rect x="0.5" y="0.5" fill="#404040" stroke="#000000" width="2.4" height="1.2"/>
  </g>
  <g id="Outline" display="none">
  	<rect x="0.5" y="0.5" display="inline" fill="none" stroke="#000000" width="2.4" height="1.2"/>
  </g>
</g>
<g id="0402">
  <g id="MASK" display="none">
  	<g display="inline">
  		<rect x="0.125" y="0.125" width="3.752" height="1.757"/>
  		<path d="M3.752,0.25v1.507H0.25V0.25H3.752 M4.002,0H0v2.007h4.002V0L4.002,0z"/>
  	</g>
  </g>
  <g id="COLOR">
  	<rect fill="#CBCBCB" width="4.002" height="2.007"/>
  	<rect x="1.008" fill="#363636" width="1.986" height="2.007"/>
  </g>
  <g id="OUTLINE">
  	<g>
  		<path d="M3.752,0.25v1.507H0.25V0.25H3.752 M4.002,0H0v2.007h4.002V0L4.002,0z"/>
  	</g>
  	<g>
  		<path d="M2.744,0.25v1.507H1.258V0.25H2.744 M2.994,0H1.008v2.007h1.986V0L2.994,0z"/>
  	</g>
  </g>
</g>
<g id="DDC0006A">
  <g id="Mask" display="none">
  	<g display="inline">
  		<rect x="3.1" y="0.5" width="6" height="11.2"/>
  		<path d="M8.6,1v10.2h-5V1H8.6 M9.6,0h-7v12.2h7V0L9.6,0z"/>
  	</g>
  	<g display="inline">
  		<rect x="0.5" y="5.583" width="1.688" height="1.034"/>
  		<path d="M1.688,6.083v0.034H1V6.083H1.688 M2.688,5.083H0v2.034h2.688V5.083L2.688,5.083z"/>
  	</g>
  	<g display="inline">
  		<rect x="0.5" y="1.516" width="1.688" height="1.034"/>
  		<path d="M1.688,2.016V2.05H1V2.016H1.688 M2.688,1.016H0V3.05h2.688V1.016L2.688,1.016z"/>
  	</g>
  	<g display="inline">
  		<rect x="0.5" y="9.65" width="1.688" height="1.033"/>
  		<path d="M1.688,10.15v0.033H1V10.15H1.688 M2.688,9.15H0v2.033h2.688V9.15L2.688,9.15z"/>
  	</g>
  	<g display="inline">
  		<rect x="10.058" y="1.516" width="1.643" height="1.034"/>
  		<path d="M11.201,2.016V2.05h-0.643V2.016H11.201 M12.201,1.016H9.558V3.05h2.643V1.016L12.201,1.016z"/>
  	</g>
  	<g display="inline">
  		<rect x="10.058" y="5.583" width="1.643" height="1.034"/>
  		<path d="M11.201,6.083v0.034h-0.643V6.083H11.201 M12.201,5.083H9.558v2.034h2.643V5.083L12.201,5.083z"/>
  	</g>
  	<g display="inline">
  		<rect x="10.058" y="9.65" width="1.643" height="1.033"/>
  		<path d="M11.201,10.15v0.033h-0.643V10.15H11.201 M12.201,9.15H9.558v2.033h2.643V9.15L12.201,9.15z"/>
  	</g>
  </g>
  <g id="Color">
  	<g>
  		<rect x="3.1" y="0.5" fill="#666666" width="6" height="11.2"/>
  		<path d="M8.6,1v10.2h-5V1H8.6 M9.6,0h-7v12.2h7V0L9.6,0z"/>
  	</g>
  	<g>
  		<path d="M1.688,6.083v0.034H1V6.083H1.688 M2.688,5.083H0v2.034h2.688V5.083L2.688,5.083z"/>
  	</g>
  	<g>
  		<path d="M1.688,2.016V2.05H1V2.016H1.688 M2.688,1.016H0V3.05h2.688V1.016L2.688,1.016z"/>
  	</g>
  	<g>
  		<path d="M1.688,10.15v0.033H1V10.15H1.688 M2.688,9.15H0v2.033h2.688V9.15L2.688,9.15z"/>
  	</g>
  	<g>
  		<path d="M11.201,2.016V2.05h-0.643V2.016H11.201 M12.201,1.016H9.558V3.05h2.643V1.016L12.201,1.016z"/>
  	</g>
  	<g>
  		<path d="M11.201,6.083v0.034h-0.643V6.083H11.201 M12.201,5.083H9.558v2.034h2.643V5.083L12.201,5.083z"/>
  	</g>
  	<g>
  		<path d="M11.201,10.15v0.033h-0.643V10.15H11.201 M12.201,9.15H9.558v2.033h2.643V9.15L12.201,9.15z"/>
  	</g>
  </g>
  <g id="Outline" display="none">
  	<g display="inline">
  		<path d="M8.6,1v10.2h-5V1H8.6 M9.6,0h-7v12.2h7V0L9.6,0z"/>
  	</g>
  	<g display="inline">
  		<path d="M1.688,6.083v0.034H1V6.083H1.688 M2.688,5.083H0v2.034h2.688V5.083L2.688,5.083z"/>
  	</g>
  	<g display="inline">
  		<path d="M1.688,2.016V2.05H1V2.016H1.688 M2.688,1.016H0V3.05h2.688V1.016L2.688,1.016z"/>
  	</g>
  	<g display="inline">
  		<path d="M1.688,10.15v0.033H1V10.15H1.688 M2.688,9.15H0v2.033h2.688V9.15L2.688,9.15z"/>
  	</g>
  	<g display="inline">
  		<path d="M11.201,2.016V2.05h-0.643V2.016H11.201 M12.201,1.016H9.558V3.05h2.643V1.016L12.201,1.016z"/>
  	</g>
  	<g display="inline">
  		<path d="M11.201,6.083v0.034h-0.643V6.083H11.201 M12.201,5.083H9.558v2.034h2.643V5.083L12.201,5.083z"/>
  	</g>
  	<g display="inline">
  		<path d="M11.201,10.15v0.033h-0.643V10.15H11.201 M12.201,9.15H9.558v2.033h2.643V9.15L12.201,9.15z"/>
  	</g>
  </g>
</g>
</defs>
<g id="boardComps">
  <g id="topview_images">
    <use x="114.0" y="136.0" width="6.0" height="3.0" transform="rotate(-270.0 117.0 138.0)" name="9_Cbst_0603" xlink:href="#0603" />
    <use x="80.0" y="152.0" width="8.0" height="5.0" transform="rotate(-90.0 84.0 155.0)" name="10_Cin_0805" xlink:href="#0805" />
    <use x="48.0" y="85.0" width="14.0" height="8.0" transform="rotate(-270.0 55.0 89.0)" name="8_Cout_1206" xlink:href="#1206" />
    <rect x="12.0" y="99.0" width="6.0" height="6.0" transform="rotate(-90.0 15.0 103.0)" name="2_GND_TP-1502" style="fill:white;stroke:black;stroke-width:1;" />
    <rect x="12.0" y="138.0" width="6.0" height="6.0" transform="rotate(-90.0 15.0 141.0)" name="4_GND1_TP-1502" style="fill:white;stroke:black;stroke-width:1;" />
    <use x="98.0" y="90.0" width="25.0" height="25.0" transform="rotate(-90.0 111.0 103.0)" name="0_L1_SRN6045" xlink:href="#SRN6045" />
    <use x="123.0" y="156.0" width="3.0" height="2.0" name="6_Rfbb_0201" xlink:href="#0201" />
    <use x="118.0" y="168.0" width="4.0" height="2.0" transform="rotate(-90.0 120.0 169.0)" name="7_Rfbt_0402" xlink:href="#0402" />
    <use x="101.0" y="147.0" width="12.0" height="12.0" name="1_U1_DDC0006A" xlink:href="#DDC0006A" />
    <rect x="12.0" y="166.0" width="6.0" height="6.0" transform="rotate(-90.0 15.0 169.0)" name="5_VIN_TP-1502" style="fill:white;stroke:black;stroke-width:1;" />
    <rect x="12.0" y="72.0" width="6.0" height="6.0" transform="rotate(-90.0 15.0 75.0)" name="3_VOUT_TP-1502" style="fill:white;stroke:black;stroke-width:1;" />
  </g>
</g>
</svg>
