G04 #@! TF.GenerationSoftware,KiCad,Pcbnew,5.0.2-bee76a0~70~ubuntu18.04.1*
G04 #@! TF.CreationDate,2019-03-18T17:02:54-07:00*
G04 #@! TF.ProjectId,Half_Shield,48616c66-5f53-4686-9965-6c642e6b6963,rev?*
G04 #@! TF.SameCoordinates,Original*
G04 #@! TF.FileFunction,Copper,L1,Top*
G04 #@! TF.FilePolarity,Positive*
%FSLAX46Y46*%
G04 Gerber Fmt 4.6, Leading zero omitted, Abs format (unit mm)*
G04 Created by KiCad (PCBNEW 5.0.2-bee76a0~70~ubuntu18.04.1) date Mon 18 Mar 2019 05:02:54 PM PDT*
%MOMM*%
%LPD*%
G01*
G04 APERTURE LIST*
G04 #@! TA.AperFunction,SMDPad,CuDef*
%ADD10R,0.590000X1.250000*%
G04 #@! TD*
G04 #@! TA.AperFunction,ComponentPad*
%ADD11R,1.700000X1.700000*%
G04 #@! TD*
G04 #@! TA.AperFunction,ComponentPad*
%ADD12R,1.800000X2.600000*%
G04 #@! TD*
G04 #@! TA.AperFunction,ComponentPad*
%ADD13O,1.800000X2.600000*%
G04 #@! TD*
G04 #@! TA.AperFunction,ComponentPad*
%ADD14C,3.000000*%
G04 #@! TD*
G04 #@! TA.AperFunction,ComponentPad*
%ADD15O,1.700000X1.700000*%
G04 #@! TD*
G04 #@! TA.AperFunction,ComponentPad*
%ADD16C,2.400000*%
G04 #@! TD*
G04 #@! TA.AperFunction,ComponentPad*
%ADD17R,2.400000X2.400000*%
G04 #@! TD*
G04 #@! TA.AperFunction,ComponentPad*
%ADD18O,4.000000X2.200000*%
G04 #@! TD*
G04 #@! TA.AperFunction,ComponentPad*
%ADD19O,2.200000X4.000000*%
G04 #@! TD*
G04 #@! TA.AperFunction,ComponentPad*
%ADD20C,3.500000*%
G04 #@! TD*
G04 #@! TA.AperFunction,ComponentPad*
%ADD21C,3.800000*%
G04 #@! TD*
G04 #@! TA.AperFunction,SMDPad,CuDef*
%ADD22R,1.300000X0.700000*%
G04 #@! TD*
G04 #@! TA.AperFunction,SMDPad,CuDef*
%ADD23R,1.000000X1.250000*%
G04 #@! TD*
G04 #@! TA.AperFunction,SMDPad,CuDef*
%ADD24R,1.250000X1.000000*%
G04 #@! TD*
G04 #@! TA.AperFunction,ComponentPad*
%ADD25C,2.500000*%
G04 #@! TD*
G04 #@! TA.AperFunction,ComponentPad*
%ADD26R,2.500000X2.500000*%
G04 #@! TD*
G04 #@! TA.AperFunction,ComponentPad*
%ADD27C,1.440000*%
G04 #@! TD*
G04 #@! TA.AperFunction,SMDPad,CuDef*
%ADD28R,0.800000X0.750000*%
G04 #@! TD*
G04 #@! TA.AperFunction,SMDPad,CuDef*
%ADD29R,2.006600X5.994400*%
G04 #@! TD*
G04 #@! TA.AperFunction,SMDPad,CuDef*
%ADD30R,0.430000X0.280000*%
G04 #@! TD*
G04 #@! TA.AperFunction,SMDPad,CuDef*
%ADD31R,0.400000X0.600000*%
G04 #@! TD*
G04 #@! TA.AperFunction,SMDPad,CuDef*
%ADD32R,1.000000X1.600000*%
G04 #@! TD*
G04 #@! TA.AperFunction,ViaPad*
%ADD33C,0.800000*%
G04 #@! TD*
G04 #@! TA.AperFunction,Conductor*
%ADD34C,0.250000*%
G04 #@! TD*
G04 #@! TA.AperFunction,Conductor*
%ADD35C,2.220000*%
G04 #@! TD*
G04 #@! TA.AperFunction,Conductor*
%ADD36C,1.000000*%
G04 #@! TD*
G04 #@! TA.AperFunction,Conductor*
%ADD37C,2.200000*%
G04 #@! TD*
G04 #@! TA.AperFunction,Conductor*
%ADD38C,0.254000*%
G04 #@! TD*
G04 APERTURE END LIST*
D10*
G04 #@! TO.P,U1,3*
G04 #@! TO.N,Net-(A_Buck_9V1-Pad1)*
X142473600Y-106121200D03*
G04 #@! TO.P,U1,2*
G04 #@! TO.N,Net-(Cbst1-Pad1)*
X143423600Y-106121200D03*
G04 #@! TO.P,U1,1*
G04 #@! TO.N,GND*
X144373600Y-106121200D03*
G04 #@! TO.P,U1,4*
G04 #@! TO.N,Net-(Rfbb1-Pad1)*
X142473600Y-108631200D03*
G04 #@! TO.P,U1,5*
G04 #@! TO.N,Net-(A_Buck_9V1-Pad1)*
X143423600Y-108631200D03*
G04 #@! TO.P,U1,6*
G04 #@! TO.N,Net-(Cbst1-Pad2)*
X144373600Y-108631200D03*
G04 #@! TD*
D11*
G04 #@! TO.P,A_Buck_9V1,1*
G04 #@! TO.N,Net-(A_Buck_9V1-Pad1)*
X138582400Y-99618800D03*
G04 #@! TD*
D12*
G04 #@! TO.P,LCD1,1*
G04 #@! TO.N,GND*
X109474000Y-35598100D03*
D13*
G04 #@! TO.P,LCD1,2*
G04 #@! TO.N,+5V*
X112014000Y-35598100D03*
G04 #@! TO.P,LCD1,3*
G04 #@! TO.N,Net-(LCD1-Pad3)*
X114554000Y-35598100D03*
G04 #@! TO.P,LCD1,4*
G04 #@! TO.N,Net-(Arduino_Block1-Pad6)*
X117094000Y-35598100D03*
G04 #@! TO.P,LCD1,5*
G04 #@! TO.N,GND*
X119634000Y-35598100D03*
G04 #@! TO.P,LCD1,6*
G04 #@! TO.N,Net-(Arduino_Block1-Pad4)*
X122174000Y-35598100D03*
G04 #@! TO.P,LCD1,7*
G04 #@! TO.N,N/C*
X124714000Y-35598100D03*
G04 #@! TO.P,LCD1,8*
X127254000Y-35598100D03*
G04 #@! TO.P,LCD1,9*
X129794000Y-35598100D03*
G04 #@! TO.P,LCD1,10*
X132334000Y-35598100D03*
G04 #@! TO.P,LCD1,11*
G04 #@! TO.N,Net-(Arduino_Block1-Pad8)*
X134874000Y-35598100D03*
G04 #@! TO.P,LCD1,12*
G04 #@! TO.N,Net-(Arduino_Block1-Pad10)*
X137414000Y-35598100D03*
G04 #@! TO.P,LCD1,13*
G04 #@! TO.N,Net-(Arduino_Block1-Pad12)*
X139954000Y-35598100D03*
G04 #@! TO.P,LCD1,14*
G04 #@! TO.N,Net-(Arduino_Block1-Pad14)*
X142494000Y-35598100D03*
G04 #@! TO.P,LCD1,15*
G04 #@! TO.N,Net-(LCD1-Pad15)*
X145034000Y-35598100D03*
G04 #@! TO.P,LCD1,16*
G04 #@! TO.N,GND*
X147574000Y-35598100D03*
D14*
G04 #@! TO.P,LCD1,*
G04 #@! TO.N,*
X178973480Y-66598800D03*
X178974000Y-35598100D03*
G04 #@! TD*
D15*
G04 #@! TO.P,Arduino_Block1,36*
G04 #@! TO.N,GND*
X126695200Y-95135700D03*
G04 #@! TO.P,Arduino_Block1,35*
X129235200Y-95135700D03*
G04 #@! TO.P,Arduino_Block1,34*
G04 #@! TO.N,N/C*
X126695200Y-92595700D03*
G04 #@! TO.P,Arduino_Block1,33*
X129235200Y-92595700D03*
G04 #@! TO.P,Arduino_Block1,32*
X126695200Y-90055700D03*
G04 #@! TO.P,Arduino_Block1,31*
X129235200Y-90055700D03*
G04 #@! TO.P,Arduino_Block1,30*
G04 #@! TO.N,Net-(Arduino_Block1-Pad30)*
X126695200Y-87515700D03*
G04 #@! TO.P,Arduino_Block1,29*
G04 #@! TO.N,Relay_IN1*
X129235200Y-87515700D03*
G04 #@! TO.P,Arduino_Block1,28*
G04 #@! TO.N,Net-(Arduino_Block1-Pad28)*
X126695200Y-84975700D03*
G04 #@! TO.P,Arduino_Block1,27*
G04 #@! TO.N,Relay_IN2*
X129235200Y-84975700D03*
G04 #@! TO.P,Arduino_Block1,26*
G04 #@! TO.N,Net-(Arduino_Block1-Pad26)*
X126695200Y-82435700D03*
G04 #@! TO.P,Arduino_Block1,25*
G04 #@! TO.N,CS*
X129235200Y-82435700D03*
G04 #@! TO.P,Arduino_Block1,24*
G04 #@! TO.N,Net-(Arduino_Block1-Pad24)*
X126695200Y-79895700D03*
G04 #@! TO.P,Arduino_Block1,23*
G04 #@! TO.N,SDI*
X129235200Y-79895700D03*
G04 #@! TO.P,Arduino_Block1,22*
G04 #@! TO.N,Net-(Arduino_Block1-Pad22)*
X126695200Y-77355700D03*
G04 #@! TO.P,Arduino_Block1,21*
G04 #@! TO.N,SDO*
X129235200Y-77355700D03*
G04 #@! TO.P,Arduino_Block1,20*
G04 #@! TO.N,Net-(Arduino_Block1-Pad20)*
X126695200Y-74815700D03*
G04 #@! TO.P,Arduino_Block1,19*
G04 #@! TO.N,CLK*
X129235200Y-74815700D03*
G04 #@! TO.P,Arduino_Block1,18*
G04 #@! TO.N,Net-(Arduino_Block1-Pad18)*
X126695200Y-72275700D03*
G04 #@! TO.P,Arduino_Block1,17*
G04 #@! TO.N,N/C*
X129235200Y-72275700D03*
G04 #@! TO.P,Arduino_Block1,16*
G04 #@! TO.N,Net-(Arduino_Block1-Pad16)*
X126695200Y-69735700D03*
G04 #@! TO.P,Arduino_Block1,15*
G04 #@! TO.N,N/C*
X129235200Y-69735700D03*
G04 #@! TO.P,Arduino_Block1,14*
G04 #@! TO.N,Net-(Arduino_Block1-Pad14)*
X126695200Y-67195700D03*
G04 #@! TO.P,Arduino_Block1,13*
G04 #@! TO.N,N/C*
X129235200Y-67195700D03*
G04 #@! TO.P,Arduino_Block1,12*
G04 #@! TO.N,Net-(Arduino_Block1-Pad12)*
X126695200Y-64655700D03*
G04 #@! TO.P,Arduino_Block1,11*
G04 #@! TO.N,N/C*
X129235200Y-64655700D03*
G04 #@! TO.P,Arduino_Block1,10*
G04 #@! TO.N,Net-(Arduino_Block1-Pad10)*
X126695200Y-62115700D03*
G04 #@! TO.P,Arduino_Block1,9*
G04 #@! TO.N,N/C*
X129235200Y-62115700D03*
G04 #@! TO.P,Arduino_Block1,8*
G04 #@! TO.N,Net-(Arduino_Block1-Pad8)*
X126695200Y-59575700D03*
G04 #@! TO.P,Arduino_Block1,7*
G04 #@! TO.N,N/C*
X129235200Y-59575700D03*
G04 #@! TO.P,Arduino_Block1,6*
G04 #@! TO.N,Net-(Arduino_Block1-Pad6)*
X126695200Y-57035700D03*
G04 #@! TO.P,Arduino_Block1,5*
G04 #@! TO.N,N/C*
X129235200Y-57035700D03*
G04 #@! TO.P,Arduino_Block1,4*
G04 #@! TO.N,Net-(Arduino_Block1-Pad4)*
X126695200Y-54495700D03*
G04 #@! TO.P,Arduino_Block1,3*
G04 #@! TO.N,N/C*
X129235200Y-54495700D03*
G04 #@! TO.P,Arduino_Block1,2*
G04 #@! TO.N,+5V*
X126695200Y-51955700D03*
D11*
G04 #@! TO.P,Arduino_Block1,1*
X129235200Y-51955700D03*
G04 #@! TD*
D15*
G04 #@! TO.P,Arduino_Block2,4*
G04 #@! TO.N,Net-(Arduino_Block2-Pad4)*
X119024400Y-51955700D03*
G04 #@! TO.P,Arduino_Block2,3*
G04 #@! TO.N,Net-(Arduino_Block2-Pad3)*
X116484400Y-51955700D03*
G04 #@! TO.P,Arduino_Block2,2*
G04 #@! TO.N,pH_TX*
X113944400Y-51955700D03*
D11*
G04 #@! TO.P,Arduino_Block2,1*
G04 #@! TO.N,pH_RX*
X111404400Y-51955700D03*
G04 #@! TD*
D15*
G04 #@! TO.P,Arduino_Block3,6*
G04 #@! TO.N,N/C*
X111455200Y-100266500D03*
G04 #@! TO.P,Arduino_Block3,5*
X113995200Y-100266500D03*
G04 #@! TO.P,Arduino_Block3,4*
X116535200Y-100266500D03*
G04 #@! TO.P,Arduino_Block3,3*
X119075200Y-100266500D03*
G04 #@! TO.P,Arduino_Block3,2*
X121615200Y-100266500D03*
D11*
G04 #@! TO.P,Arduino_Block3,1*
X124155200Y-100266500D03*
G04 #@! TD*
D15*
G04 #@! TO.P,Keypad1,8*
G04 #@! TO.N,Net-(Arduino_Block1-Pad16)*
X110083600Y-105613200D03*
G04 #@! TO.P,Keypad1,7*
G04 #@! TO.N,Net-(Arduino_Block1-Pad18)*
X112623600Y-105613200D03*
G04 #@! TO.P,Keypad1,6*
G04 #@! TO.N,Net-(Arduino_Block1-Pad20)*
X115163600Y-105613200D03*
G04 #@! TO.P,Keypad1,5*
G04 #@! TO.N,Net-(Arduino_Block1-Pad22)*
X117703600Y-105613200D03*
G04 #@! TO.P,Keypad1,4*
G04 #@! TO.N,Net-(Arduino_Block1-Pad24)*
X120243600Y-105613200D03*
G04 #@! TO.P,Keypad1,3*
G04 #@! TO.N,Net-(Arduino_Block1-Pad26)*
X122783600Y-105613200D03*
G04 #@! TO.P,Keypad1,2*
G04 #@! TO.N,Net-(Arduino_Block1-Pad28)*
X125323600Y-105613200D03*
D11*
G04 #@! TO.P,Keypad1,1*
G04 #@! TO.N,Net-(Arduino_Block1-Pad30)*
X127863600Y-105613200D03*
G04 #@! TD*
D15*
G04 #@! TO.P,pH_carrier1,5*
G04 #@! TO.N,+5V*
X137515600Y-84010500D03*
G04 #@! TO.P,pH_carrier1,4*
G04 #@! TO.N,N/C*
X137515600Y-81470500D03*
G04 #@! TO.P,pH_carrier1,3*
G04 #@! TO.N,GND*
X137515600Y-78930500D03*
G04 #@! TO.P,pH_carrier1,2*
G04 #@! TO.N,pH_TX*
X137515600Y-76390500D03*
D11*
G04 #@! TO.P,pH_carrier1,1*
G04 #@! TO.N,pH_RX*
X137515600Y-73850500D03*
G04 #@! TD*
D16*
G04 #@! TO.P,PT100_Input1,3*
G04 #@! TO.N,Net-(PT100_Input1-Pad3)*
X159509426Y-51350304D03*
G04 #@! TO.P,PT100_Input1,4*
G04 #@! TO.N,Net-(PT100_Input1-Pad4)*
X159509426Y-47850304D03*
G04 #@! TO.P,PT100_Input1,2*
G04 #@! TO.N,Net-(PT100_Input1-Pad2)*
X159509426Y-54850304D03*
D17*
G04 #@! TO.P,PT100_Input1,1*
G04 #@! TO.N,N/C*
X159509426Y-58350304D03*
G04 #@! TD*
D18*
G04 #@! TO.P,PT100_Jack1,1*
G04 #@! TO.N,Net-(PT100_Input1-Pad4)*
X175768000Y-62484000D03*
D19*
G04 #@! TO.P,PT100_Jack1,4*
G04 #@! TO.N,N/C*
X168468000Y-61984000D03*
D18*
G04 #@! TO.P,PT100_Jack1,5*
X172868000Y-55384000D03*
G04 #@! TO.P,PT100_Jack1,2*
G04 #@! TO.N,Net-(PT100_Input1-Pad3)*
X171668000Y-52684000D03*
D19*
G04 #@! TO.P,PT100_Jack1,3*
G04 #@! TO.N,Net-(PT100_Input1-Pad2)*
X179668000Y-57884000D03*
G04 #@! TD*
D15*
G04 #@! TO.P,Relay_control1,4*
G04 #@! TO.N,GND*
X151231600Y-92252800D03*
G04 #@! TO.P,Relay_control1,3*
G04 #@! TO.N,Relay_IN1*
X148691600Y-92252800D03*
G04 #@! TO.P,Relay_control1,2*
G04 #@! TO.N,Relay_IN2*
X146151600Y-92252800D03*
D11*
G04 #@! TO.P,Relay_control1,1*
G04 #@! TO.N,+5V*
X143611600Y-92252800D03*
G04 #@! TD*
G04 #@! TO.P,Relay_pwr1,1*
G04 #@! TO.N,Net-(R_Buck_GND1-Pad1)*
X160274000Y-92252800D03*
D15*
G04 #@! TO.P,Relay_pwr1,2*
G04 #@! TO.N,N/C*
X162814000Y-92252800D03*
G04 #@! TO.P,Relay_pwr1,3*
G04 #@! TO.N,Net-(R_Buck_5V1-Pad1)*
X165354000Y-92252800D03*
G04 #@! TD*
D11*
G04 #@! TO.P,A_Buck1,1*
G04 #@! TO.N,Net-(AC-L1-Pad1)*
X153110949Y-125618646D03*
G04 #@! TD*
G04 #@! TO.P,A_Buck2,1*
G04 #@! TO.N,Net-(AC-N1-Pad1)*
X148259549Y-125580546D03*
G04 #@! TD*
G04 #@! TO.P,A_Buck_GND1,1*
G04 #@! TO.N,GND*
X148323049Y-99659846D03*
G04 #@! TD*
G04 #@! TO.P,R_Buck2,1*
G04 #@! TO.N,Net-(AC-L1-Pad1)*
X176137176Y-125383292D03*
G04 #@! TD*
G04 #@! TO.P,R_Buck_1,1*
G04 #@! TO.N,Net-(AC-N1-Pad1)*
X171311176Y-125395992D03*
G04 #@! TD*
G04 #@! TO.P,R_Buck_5V1,1*
G04 #@! TO.N,Net-(R_Buck_5V1-Pad1)*
X161621076Y-99449892D03*
G04 #@! TD*
G04 #@! TO.P,R_Buck_GND1,1*
G04 #@! TO.N,Net-(R_Buck_GND1-Pad1)*
X171400076Y-99399092D03*
G04 #@! TD*
D20*
G04 #@! TO.P,AC-E1,1*
G04 #@! TO.N,GND*
X121056400Y-133858000D03*
G04 #@! TD*
G04 #@! TO.P,AC-L1,1*
G04 #@! TO.N,Net-(AC-L1-Pad1)*
X128066800Y-133858000D03*
G04 #@! TD*
G04 #@! TO.P,AC-N1,1*
G04 #@! TO.N,Net-(AC-N1-Pad1)*
X114096800Y-133858000D03*
G04 #@! TD*
D15*
G04 #@! TO.P,PT100_amp1,8*
G04 #@! TO.N,N/C*
X137871200Y-44196000D03*
G04 #@! TO.P,PT100_amp1,7*
G04 #@! TO.N,CS*
X137871200Y-46736000D03*
G04 #@! TO.P,PT100_amp1,6*
G04 #@! TO.N,SDI*
X137871200Y-49276000D03*
G04 #@! TO.P,PT100_amp1,5*
G04 #@! TO.N,SDO*
X137871200Y-51816000D03*
G04 #@! TO.P,PT100_amp1,4*
G04 #@! TO.N,CLK*
X137871200Y-54356000D03*
G04 #@! TO.P,PT100_amp1,3*
G04 #@! TO.N,N/C*
X137871200Y-56896000D03*
G04 #@! TO.P,PT100_amp1,2*
G04 #@! TO.N,GND*
X137871200Y-59436000D03*
D11*
G04 #@! TO.P,PT100_amp1,1*
G04 #@! TO.N,+5V*
X137871200Y-61976000D03*
G04 #@! TD*
D21*
G04 #@! TO.P,Screw1,1*
G04 #@! TO.N,Net-(AC-L1-Pad1)*
X153314400Y-143306800D03*
G04 #@! TD*
G04 #@! TO.P,Screw2,1*
G04 #@! TO.N,Net-(AC-L1-Pad1)*
X165100000Y-143306800D03*
G04 #@! TD*
D22*
G04 #@! TO.P,R1,2*
G04 #@! TO.N,Net-(LCD1-Pad15)*
X145237200Y-59933800D03*
G04 #@! TO.P,R1,1*
G04 #@! TO.N,+5V*
X145237200Y-61833800D03*
G04 #@! TD*
D23*
G04 #@! TO.P,C1,1*
G04 #@! TO.N,GND*
X150622000Y-86664800D03*
G04 #@! TO.P,C1,2*
G04 #@! TO.N,+5V*
X148622000Y-86664800D03*
G04 #@! TD*
D24*
G04 #@! TO.P,C2,2*
G04 #@! TO.N,+5V*
X117094000Y-47908400D03*
G04 #@! TO.P,C2,1*
G04 #@! TO.N,GND*
X117094000Y-45908400D03*
G04 #@! TD*
G04 #@! TO.P,C3,2*
G04 #@! TO.N,+5V*
X164134800Y-44754800D03*
G04 #@! TO.P,C3,1*
G04 #@! TO.N,GND*
X164134800Y-42754800D03*
G04 #@! TD*
G04 #@! TO.P,C4,1*
G04 #@! TO.N,+5V*
X141274800Y-61858400D03*
G04 #@! TO.P,C4,2*
G04 #@! TO.N,GND*
X141274800Y-59858400D03*
G04 #@! TD*
G04 #@! TO.P,C5,1*
G04 #@! TO.N,GND*
X133959600Y-59909200D03*
G04 #@! TO.P,C5,2*
G04 #@! TO.N,+5V*
X133959600Y-61909200D03*
G04 #@! TD*
D23*
G04 #@! TO.P,C6,2*
G04 #@! TO.N,GND*
X145358205Y-85090000D03*
G04 #@! TO.P,C6,1*
G04 #@! TO.N,+5V*
X143358205Y-85090000D03*
G04 #@! TD*
G04 #@! TO.P,C7,2*
G04 #@! TO.N,GND*
X145362205Y-82702400D03*
G04 #@! TO.P,C7,1*
G04 #@! TO.N,+5V*
X143362205Y-82702400D03*
G04 #@! TD*
D25*
G04 #@! TO.P,Power_Screws1,5*
G04 #@! TO.N,GND*
X111013200Y-115366800D03*
G04 #@! TO.P,Power_Screws1,4*
G04 #@! TO.N,Net-(AC-N1-Pad1)*
X116013200Y-115366800D03*
G04 #@! TO.P,Power_Screws1,3*
G04 #@! TO.N,GND*
X121013200Y-115366800D03*
G04 #@! TO.P,Power_Screws1,2*
G04 #@! TO.N,Net-(AC-N1-Pad1)*
X126013200Y-115366800D03*
D26*
G04 #@! TO.P,Power_Screws1,1*
G04 #@! TO.N,Net-(Cout1-Pad1)*
X131013200Y-115366800D03*
G04 #@! TD*
D24*
G04 #@! TO.P,C8,2*
G04 #@! TO.N,+5V*
X153009600Y-79178400D03*
G04 #@! TO.P,C8,1*
G04 #@! TO.N,GND*
X153009600Y-81178400D03*
G04 #@! TD*
D15*
G04 #@! TO.P,PCF8523_RTC1,5*
G04 #@! TO.N,N/C*
X149809200Y-70764400D03*
G04 #@! TO.P,PCF8523_RTC1,4*
G04 #@! TO.N,Net-(Arduino_Block2-Pad4)*
X149809200Y-73304400D03*
G04 #@! TO.P,PCF8523_RTC1,3*
G04 #@! TO.N,Net-(Arduino_Block2-Pad3)*
X149809200Y-75844400D03*
G04 #@! TO.P,PCF8523_RTC1,2*
G04 #@! TO.N,+5V*
X149809200Y-78384400D03*
D11*
G04 #@! TO.P,PCF8523_RTC1,1*
G04 #@! TO.N,GND*
X149809200Y-80924400D03*
G04 #@! TD*
D27*
G04 #@! TO.P,RV1,1*
G04 #@! TO.N,GND*
X174498000Y-39878000D03*
G04 #@! TO.P,RV1,2*
G04 #@! TO.N,Net-(LCD1-Pad3)*
X177038000Y-42418000D03*
G04 #@! TO.P,RV1,3*
G04 #@! TO.N,+5V*
X174498000Y-44958000D03*
G04 #@! TD*
D28*
G04 #@! TO.P,Cbst1,1*
G04 #@! TO.N,Net-(Cbst1-Pad1)*
X146100800Y-110540800D03*
G04 #@! TO.P,Cbst1,2*
G04 #@! TO.N,Net-(Cbst1-Pad2)*
X144600800Y-110540800D03*
G04 #@! TD*
D29*
G04 #@! TO.P,L1,1*
G04 #@! TO.N,Net-(Cout1-Pad1)*
X156870400Y-111810800D03*
G04 #@! TO.P,L1,2*
G04 #@! TO.N,Net-(Cbst1-Pad1)*
X152552400Y-111810800D03*
G04 #@! TD*
D30*
G04 #@! TO.P,Rfbb1,2*
G04 #@! TO.N,GND*
X141173200Y-110242000D03*
G04 #@! TO.P,Rfbb1,1*
G04 #@! TO.N,Net-(Rfbb1-Pad1)*
X141173200Y-109722000D03*
G04 #@! TD*
D31*
G04 #@! TO.P,Rfbt1,2*
G04 #@! TO.N,Net-(Rfbb1-Pad1)*
X140157200Y-108712000D03*
G04 #@! TO.P,Rfbt1,1*
G04 #@! TO.N,Net-(Cout1-Pad1)*
X139257200Y-108712000D03*
G04 #@! TD*
D23*
G04 #@! TO.P,Cin1,2*
G04 #@! TO.N,GND*
X144119600Y-101244400D03*
G04 #@! TO.P,Cin1,1*
G04 #@! TO.N,Net-(A_Buck_9V1-Pad1)*
X142119600Y-101244400D03*
G04 #@! TD*
D32*
G04 #@! TO.P,Cout1,2*
G04 #@! TO.N,GND*
X153210000Y-101904800D03*
G04 #@! TO.P,Cout1,1*
G04 #@! TO.N,Net-(Cout1-Pad1)*
X156210000Y-101904800D03*
G04 #@! TD*
D33*
G04 #@! TO.N,GND*
X171297600Y-81534000D03*
X171297600Y-65887600D03*
X143459200Y-65887600D03*
X143459200Y-60147200D03*
X147828000Y-65887600D03*
X147828000Y-45872400D03*
X119634000Y-45472401D03*
X141173200Y-111506000D03*
X121666000Y-89255600D03*
X124002800Y-89306400D03*
X119126000Y-89306400D03*
X116586000Y-89306400D03*
X114147600Y-89306400D03*
X111353600Y-89306400D03*
X124206000Y-102920800D03*
X121615200Y-102920800D03*
X119024400Y-102920800D03*
X116687600Y-102920800D03*
X114096800Y-102920800D03*
X111353600Y-102920800D03*
X141224000Y-73152000D03*
X137058400Y-88493600D03*
X132181600Y-64617600D03*
X163423600Y-55270400D03*
X167335200Y-52628800D03*
X144170400Y-126746000D03*
X139090400Y-126746000D03*
X134010400Y-126746000D03*
X128930400Y-126746000D03*
G04 #@! TO.N,Relay_IN1*
X148691600Y-89204800D03*
G04 #@! TO.N,Relay_IN2*
X145948400Y-87731600D03*
G04 #@! TO.N,CS*
X134975600Y-82448400D03*
X135940800Y-46736000D03*
G04 #@! TO.N,SDI*
X134823200Y-79705200D03*
X134823200Y-49276000D03*
G04 #@! TO.N,SDO*
X133197600Y-77114400D03*
X133146800Y-51765200D03*
G04 #@! TO.N,CLK*
X134010400Y-74777600D03*
X134010400Y-54305200D03*
G04 #@! TO.N,Net-(Arduino_Block1-Pad14)*
X121615200Y-67106800D03*
X142468600Y-42418000D03*
X124714000Y-42418000D03*
G04 #@! TO.N,Net-(Arduino_Block1-Pad12)*
X121513600Y-64566800D03*
X139928600Y-41173400D03*
X124307600Y-41148000D03*
G04 #@! TO.N,Net-(Arduino_Block1-Pad10)*
X121564400Y-62026800D03*
X137388600Y-39878000D03*
X124002800Y-39878000D03*
G04 #@! TO.N,Net-(Arduino_Block1-Pad8)*
X121412000Y-59537600D03*
X134823200Y-38557200D03*
X123444000Y-38608000D03*
G04 #@! TO.N,Net-(Arduino_Block1-Pad6)*
X122123200Y-56896000D03*
X117170200Y-42240200D03*
X122174000Y-42265600D03*
G04 #@! TO.N,Net-(Arduino_Block1-Pad4)*
X121310400Y-54457600D03*
G04 #@! TO.N,+5V*
X131978400Y-67513200D03*
X131978400Y-53644800D03*
X143408400Y-86664800D03*
X154076400Y-44805600D03*
X154076400Y-67741800D03*
X131368800Y-86664800D03*
X112268000Y-47955200D03*
X165354000Y-79298800D03*
X165354000Y-62230000D03*
X131165600Y-47853600D03*
X131200400Y-61909200D03*
G04 #@! TO.N,pH_TX*
X114147600Y-76149200D03*
G04 #@! TO.N,pH_RX*
X137464800Y-70612000D03*
X137515600Y-70662800D03*
X111201200Y-68560699D03*
G04 #@! TO.N,Net-(AC-L1-Pad1)*
X153111200Y-133807200D03*
G04 #@! TO.N,Net-(LCD1-Pad3)*
X114604800Y-43383200D03*
G04 #@! TO.N,Net-(LCD1-Pad15)*
X145237200Y-58597800D03*
G04 #@! TO.N,Net-(A_Buck_9V1-Pad1)*
X142697200Y-110947200D03*
X140258800Y-106070400D03*
G04 #@! TO.N,Net-(Arduino_Block2-Pad4)*
X119126000Y-71069200D03*
G04 #@! TO.N,Net-(Arduino_Block2-Pad3)*
X116484400Y-73558400D03*
G04 #@! TO.N,Net-(Cbst1-Pad1)*
X143408400Y-104851200D03*
X143408400Y-103835200D03*
X146405600Y-108407200D03*
X147574000Y-108407200D03*
X148793200Y-108407200D03*
X148793200Y-109524800D03*
X147574000Y-109524800D03*
X146405600Y-109524800D03*
G04 #@! TO.N,Net-(Cout1-Pad1)*
X137617200Y-108712000D03*
X156260800Y-98196400D03*
G04 #@! TO.N,Net-(R_Buck_5V1-Pad1)*
X165303200Y-99415600D03*
G04 #@! TO.N,Net-(R_Buck_GND1-Pad1)*
X160375600Y-95961200D03*
X171399200Y-96012000D03*
G04 #@! TD*
D34*
G04 #@! TO.N,GND*
X137502900Y-78943200D02*
X137515600Y-78930500D01*
X137477500Y-78892400D02*
X137515600Y-78930500D01*
X138379200Y-58928000D02*
X137871200Y-59436000D01*
X137820400Y-59385200D02*
X137871200Y-59436000D01*
X153365200Y-81534000D02*
X153009600Y-81178400D01*
X171297600Y-81534000D02*
X153365200Y-81534000D01*
X150063200Y-81178400D02*
X149809200Y-80924400D01*
X153009600Y-81178400D02*
X150063200Y-81178400D01*
X143459200Y-65887600D02*
X143459200Y-65887600D01*
X141563600Y-60147200D02*
X141274800Y-59858400D01*
X143459200Y-60147200D02*
X141563600Y-60147200D01*
X138293600Y-59858400D02*
X137871200Y-59436000D01*
X141274800Y-59858400D02*
X138293600Y-59858400D01*
X171297600Y-65887600D02*
X147828000Y-65887600D01*
X147828000Y-65887600D02*
X147675600Y-65887600D01*
X147828000Y-65887600D02*
X143459200Y-65887600D01*
X118404999Y-45472401D02*
X117969000Y-45908400D01*
X117969000Y-45908400D02*
X117094000Y-45908400D01*
X147428001Y-45472401D02*
X119634000Y-45472401D01*
X147828000Y-45872400D02*
X147428001Y-45472401D01*
X119634000Y-45472401D02*
X118404999Y-45472401D01*
X137398000Y-59909200D02*
X137871200Y-59436000D01*
X133959600Y-59909200D02*
X137398000Y-59909200D01*
X148383603Y-99720400D02*
X148323049Y-99659846D01*
X141173200Y-110242000D02*
X141173200Y-110632000D01*
X141173200Y-110632000D02*
X141173200Y-111506000D01*
X141173200Y-111506000D02*
X141173200Y-111506000D01*
G04 #@! TO.N,Relay_IN1*
X132250188Y-89255600D02*
X148691600Y-89255600D01*
X129235200Y-87515700D02*
X130510288Y-87515700D01*
X130510288Y-87515700D02*
X132250188Y-89255600D01*
G04 #@! TO.N,Relay_IN2*
X131311798Y-87680800D02*
X145948400Y-87680800D01*
X130085199Y-85825699D02*
X130085199Y-86454201D01*
X129235200Y-84975700D02*
X130085199Y-85825699D01*
X130085199Y-86454201D02*
X131311798Y-87680800D01*
G04 #@! TO.N,CS*
X134975600Y-82448400D02*
X129247900Y-82448400D01*
X129247900Y-82448400D02*
X129235200Y-82435700D01*
X136596849Y-46736000D02*
X135940800Y-46736000D01*
X137817826Y-46717104D02*
X136615745Y-46717104D01*
X136615745Y-46717104D02*
X136596849Y-46736000D01*
G04 #@! TO.N,SDI*
X134823200Y-79705200D02*
X129425700Y-79705200D01*
X129425700Y-79705200D02*
X129235200Y-79895700D01*
X136596849Y-49276000D02*
X134823200Y-49276000D01*
X137817826Y-49257104D02*
X136615745Y-49257104D01*
X136615745Y-49257104D02*
X136596849Y-49276000D01*
G04 #@! TO.N,SDO*
X133197600Y-77114400D02*
X129476500Y-77114400D01*
X129476500Y-77114400D02*
X129235200Y-77355700D01*
X134181696Y-51797104D02*
X134149792Y-51765200D01*
X134149792Y-51765200D02*
X133146800Y-51765200D01*
X136615745Y-51797104D02*
X134181696Y-51797104D01*
X137817826Y-51797104D02*
X136615745Y-51797104D01*
X136615745Y-51797104D02*
X136596849Y-51816000D01*
G04 #@! TO.N,CLK*
X134010400Y-74777600D02*
X133602899Y-75185101D01*
X133602899Y-75185101D02*
X130806682Y-75185101D01*
X130806682Y-75185101D02*
X130437281Y-74815700D01*
X130437281Y-74815700D02*
X129235200Y-74815700D01*
X137871200Y-54356000D02*
X133959600Y-54356000D01*
G04 #@! TO.N,Net-(Arduino_Block1-Pad14)*
X121615200Y-67106800D02*
X126606300Y-67106800D01*
X126606300Y-67106800D02*
X126695200Y-67195700D01*
X125279685Y-42418000D02*
X142468600Y-42418000D01*
X124714000Y-42418000D02*
X125279685Y-42418000D01*
G04 #@! TO.N,Net-(Arduino_Block1-Pad12)*
X121513600Y-64566800D02*
X126606300Y-64566800D01*
X126606300Y-64566800D02*
X126695200Y-64655700D01*
X124898685Y-41122600D02*
X139954000Y-41122600D01*
X124307600Y-41148000D02*
X124873285Y-41148000D01*
X124873285Y-41148000D02*
X124898685Y-41122600D01*
G04 #@! TO.N,Net-(Arduino_Block1-Pad10)*
X121564400Y-62026800D02*
X126606300Y-62026800D01*
X126606300Y-62026800D02*
X126695200Y-62115700D01*
X124568485Y-39878000D02*
X137414000Y-39878000D01*
X124002800Y-39878000D02*
X124568485Y-39878000D01*
G04 #@! TO.N,Net-(Arduino_Block1-Pad8)*
X121412000Y-59537600D02*
X126657100Y-59537600D01*
X126657100Y-59537600D02*
X126695200Y-59575700D01*
X124111285Y-38506400D02*
X134848600Y-38506400D01*
X123444000Y-38608000D02*
X124009685Y-38608000D01*
X124009685Y-38608000D02*
X124111285Y-38506400D01*
G04 #@! TO.N,Net-(Arduino_Block1-Pad6)*
X122123200Y-56896000D02*
X126555500Y-56896000D01*
X126555500Y-56896000D02*
X126695200Y-57035700D01*
X121582915Y-42240200D02*
X117170200Y-42240200D01*
X122174000Y-42265600D02*
X121608315Y-42265600D01*
X121608315Y-42265600D02*
X121582915Y-42240200D01*
G04 #@! TO.N,Net-(Arduino_Block1-Pad4)*
X121310400Y-54457600D02*
X126657100Y-54457600D01*
X126657100Y-54457600D02*
X126695200Y-54495700D01*
G04 #@! TO.N,+5V*
X126695200Y-51955700D02*
X129235200Y-51955700D01*
X137718800Y-67767200D02*
X137464800Y-67513200D01*
X137464800Y-67513200D02*
X131978400Y-67513200D01*
X129235200Y-51955700D02*
X130335200Y-51955700D01*
X130335200Y-51955700D02*
X131973500Y-53594000D01*
X164134800Y-44754800D02*
X154127200Y-44754800D01*
X154127200Y-44754800D02*
X154076400Y-44805600D01*
X174498000Y-44878000D02*
X173225208Y-44878000D01*
X173225208Y-44878000D02*
X173100207Y-44752999D01*
X173100207Y-44752999D02*
X165011601Y-44752999D01*
X165011601Y-44752999D02*
X165009800Y-44754800D01*
X165009800Y-44754800D02*
X164134800Y-44754800D01*
X143408400Y-86664800D02*
X148622000Y-86664800D01*
X143362205Y-82702400D02*
X138823700Y-82702400D01*
X138823700Y-82702400D02*
X137515600Y-84010500D01*
X143358205Y-85090000D02*
X143358205Y-82706400D01*
X143358205Y-82706400D02*
X143362205Y-82702400D01*
X143408400Y-86664800D02*
X143408400Y-85140195D01*
X143408400Y-85140195D02*
X143358205Y-85090000D01*
X143408400Y-92049600D02*
X143611600Y-92252800D01*
X143611600Y-86664800D02*
X143358205Y-86411405D01*
X137718800Y-67767200D02*
X145224500Y-67767200D01*
X145224500Y-67767200D02*
X145237200Y-67754500D01*
X145237200Y-67754500D02*
X154038300Y-67754500D01*
X131368800Y-86664800D02*
X143611600Y-86664800D01*
X112268000Y-35852100D02*
X112014000Y-35598100D01*
X116172200Y-47955200D02*
X112318800Y-47955200D01*
X117094000Y-47908400D02*
X116219000Y-47908400D01*
X116219000Y-47908400D02*
X116172200Y-47955200D01*
X153130000Y-79298800D02*
X153009600Y-79178400D01*
X165354000Y-79298800D02*
X153130000Y-79298800D01*
X150259210Y-78198000D02*
X150127405Y-78066195D01*
X151239610Y-79178400D02*
X150259210Y-78198000D01*
X153009600Y-79178400D02*
X151239610Y-79178400D01*
X141299400Y-61833800D02*
X141274800Y-61858400D01*
X145237200Y-61833800D02*
X141299400Y-61833800D01*
X138321210Y-61789600D02*
X138189405Y-61657795D01*
X138390010Y-61858400D02*
X138321210Y-61789600D01*
X141274800Y-61858400D02*
X138390010Y-61858400D01*
X145633400Y-62230000D02*
X145237200Y-61833800D01*
X165354000Y-62230000D02*
X145633400Y-62230000D01*
X137804400Y-61909200D02*
X137871200Y-61976000D01*
X133959600Y-61909200D02*
X137804400Y-61909200D01*
X133084600Y-61909200D02*
X133049800Y-61874400D01*
X133959600Y-61909200D02*
X133084600Y-61909200D01*
X117148800Y-47853600D02*
X117094000Y-47908400D01*
X131165600Y-47853600D02*
X117148800Y-47853600D01*
X133084600Y-61909200D02*
X131200400Y-61909200D01*
X131200400Y-61909200D02*
X131200400Y-61909200D01*
G04 #@! TO.N,pH_TX*
X133858000Y-76403200D02*
X133553200Y-76098400D01*
X133858000Y-76403200D02*
X137502900Y-76403200D01*
X133553200Y-76098400D02*
X114198400Y-76098400D01*
G04 #@! TO.N,pH_RX*
X129799201Y-68560699D02*
X111201200Y-68560699D01*
X137464800Y-70612000D02*
X131850502Y-70612000D01*
X131850502Y-70612000D02*
X129799201Y-68560699D01*
X111201200Y-68560699D02*
X111169701Y-68560699D01*
G04 #@! TO.N,Net-(PT100_Input1-Pad3)*
X170090848Y-51350304D02*
X171497591Y-52757047D01*
X159509426Y-51350304D02*
X170090848Y-51350304D01*
G04 #@! TO.N,Net-(PT100_Input1-Pad2)*
X159509426Y-54850304D02*
X162543122Y-57884000D01*
X162610486Y-57816636D02*
X179587125Y-57816636D01*
X162543122Y-57884000D02*
X162610486Y-57816636D01*
D35*
G04 #@! TO.N,Net-(AC-L1-Pad1)*
X146354800Y-143306800D02*
X153314400Y-143306800D01*
D36*
X176137176Y-126483292D02*
X176137176Y-125383292D01*
D35*
X128066800Y-133858000D02*
X130541673Y-133858000D01*
D34*
X130541673Y-133858000D02*
X130592473Y-133807200D01*
D36*
X165665685Y-133756400D02*
X176174400Y-133756400D01*
D34*
X165100000Y-133756400D02*
X165665685Y-133756400D01*
D36*
X165100000Y-133756400D02*
X165100000Y-143306800D01*
D35*
X146354800Y-133807200D02*
X146354800Y-143306800D01*
D36*
X153676885Y-133807200D02*
X165100000Y-133807200D01*
D34*
X153111200Y-133807200D02*
X153676885Y-133807200D01*
D36*
X146354800Y-133807200D02*
X153111200Y-133807200D01*
D35*
X130592473Y-133807200D02*
X146354800Y-133807200D01*
D34*
X176174400Y-126520516D02*
X176137176Y-126483292D01*
D36*
X176174400Y-133756400D02*
X176174400Y-126520516D01*
D35*
G04 #@! TO.N,Net-(AC-N1-Pad1)*
X124968000Y-125018800D02*
X115962400Y-125018800D01*
X115962400Y-129517527D02*
X115962400Y-125018800D01*
X115330327Y-130149600D02*
X115962400Y-129517527D01*
D36*
X147668715Y-130149600D02*
X148800085Y-130149600D01*
D34*
X148234400Y-130149600D02*
X148259549Y-130124451D01*
D36*
X148259549Y-130124451D02*
X148259549Y-125580546D01*
D35*
X114096800Y-133858000D02*
X114096800Y-131383127D01*
X114096800Y-131383127D02*
X115330327Y-130149600D01*
D36*
X115330327Y-130149600D02*
X147668715Y-130149600D01*
D34*
X147668715Y-130149600D02*
X148234400Y-130149600D01*
D36*
X171297600Y-130149600D02*
X171297600Y-125409568D01*
X148800085Y-130149600D02*
X171297600Y-130149600D01*
X148234400Y-130149600D02*
X148800085Y-130149600D01*
D37*
X116013200Y-124968000D02*
X116013200Y-115366800D01*
D34*
X115962400Y-125018800D02*
X116013200Y-124968000D01*
D37*
X126013200Y-123973600D02*
X124968000Y-125018800D01*
X126013200Y-115366800D02*
X126013200Y-123973600D01*
D34*
G04 #@! TO.N,Net-(LCD1-Pad3)*
X124821802Y-43383200D02*
X114604800Y-43383200D01*
X142816601Y-43143001D02*
X138557203Y-43143001D01*
X138557203Y-43143001D02*
X138435201Y-43020999D01*
X144029803Y-41929799D02*
X142816601Y-43143001D01*
X165019801Y-41929799D02*
X144029803Y-41929799D01*
X125184003Y-43020999D02*
X124821802Y-43383200D01*
X165468002Y-42378000D02*
X165019801Y-41929799D01*
X138435201Y-43020999D02*
X125184003Y-43020999D01*
X176019767Y-42418000D02*
X175979767Y-42378000D01*
X177038000Y-42418000D02*
X176019767Y-42418000D01*
X175979767Y-42378000D02*
X174294800Y-42378000D01*
X174498000Y-42378000D02*
X174294800Y-42378000D01*
X174294800Y-42378000D02*
X165468002Y-42378000D01*
G04 #@! TO.N,Net-(LCD1-Pad15)*
X145237200Y-59333800D02*
X145237200Y-58547000D01*
X145237200Y-59933800D02*
X145237200Y-59333800D01*
G04 #@! TO.N,Net-(A_Buck_9V1-Pad1)*
X143423600Y-109506200D02*
X142697200Y-110232600D01*
X143423600Y-108631200D02*
X143423600Y-109506200D01*
X142697200Y-110232600D02*
X142697200Y-110947200D01*
X142697200Y-110947200D02*
X142697200Y-110947200D01*
G04 #@! TO.N,Net-(Arduino_Block2-Pad4)*
X130086303Y-71387801D02*
X129767702Y-71069200D01*
X146690520Y-71387801D02*
X130086303Y-71387801D01*
X149809200Y-73304400D02*
X148607119Y-73304400D01*
X148607119Y-73304400D02*
X146690520Y-71387801D01*
X129767702Y-71069200D02*
X119126000Y-71069200D01*
X119126000Y-71069200D02*
X119126000Y-71069200D01*
G04 #@! TO.N,Net-(Arduino_Block2-Pad3)*
X135331303Y-75025501D02*
X133864202Y-73558400D01*
X146045503Y-75025501D02*
X135331303Y-75025501D01*
X149809200Y-75844400D02*
X146864402Y-75844400D01*
X146864402Y-75844400D02*
X146045503Y-75025501D01*
X133864202Y-73558400D02*
X116484400Y-73558400D01*
X116484400Y-73558400D02*
X116484400Y-73558400D01*
G04 #@! TO.N,Net-(Cbst1-Pad1)*
X143423600Y-105246200D02*
X143408400Y-104851200D01*
X143423600Y-106121200D02*
X143423600Y-105246200D01*
X143408400Y-105231000D02*
X143408400Y-104851200D01*
X143408400Y-104851200D02*
X143408400Y-105231000D01*
X143408400Y-104285515D02*
X143408400Y-103835200D01*
X143408400Y-103835200D02*
X143408400Y-104285515D01*
X143408400Y-104285515D02*
X143408400Y-104851200D01*
G04 #@! TO.N,Net-(Cbst1-Pad2)*
X144373600Y-110313600D02*
X144600800Y-110540800D01*
X144373600Y-108631200D02*
X144373600Y-110313600D01*
G04 #@! TO.N,Net-(Cout1-Pad1)*
X139257200Y-108712000D02*
X138807200Y-108712000D01*
X138807200Y-108712000D02*
X137617200Y-108712000D01*
X137617200Y-108712000D02*
X137617200Y-108712000D01*
G04 #@! TO.N,Net-(R_Buck_5V1-Pad1)*
X161621076Y-99449892D02*
X165319708Y-99449892D01*
G04 #@! TO.N,Net-(R_Buck_GND1-Pad1)*
X171399200Y-96012000D02*
X160426400Y-96012000D01*
X160426400Y-96012000D02*
X160375600Y-95961200D01*
G04 #@! TO.N,Net-(Rfbb1-Pad1)*
X140238000Y-108631200D02*
X140157200Y-108712000D01*
X141274800Y-108631200D02*
X141173200Y-108732800D01*
X141173200Y-108732800D02*
X141173200Y-109722000D01*
X141274800Y-108631200D02*
X140238000Y-108631200D01*
X142473600Y-108631200D02*
X141274800Y-108631200D01*
G04 #@! TD*
D38*
G04 #@! TO.N,Net-(A_Buck_9V1-Pad1)*
G36*
X142794643Y-102985246D02*
X142530969Y-103248920D01*
X142373400Y-103629326D01*
X142373400Y-104041074D01*
X142498544Y-104343200D01*
X142373400Y-104645326D01*
X142373400Y-105057074D01*
X142505210Y-105375292D01*
X142481160Y-105496200D01*
X142481160Y-106746200D01*
X142530443Y-106993965D01*
X142670791Y-107204009D01*
X142684846Y-107213400D01*
X130884961Y-107213400D01*
X130785372Y-97055304D01*
X130789180Y-97053400D01*
X142823579Y-97053400D01*
X142794643Y-102985246D01*
X142794643Y-102985246D01*
G37*
X142794643Y-102985246D02*
X142530969Y-103248920D01*
X142373400Y-103629326D01*
X142373400Y-104041074D01*
X142498544Y-104343200D01*
X142373400Y-104645326D01*
X142373400Y-105057074D01*
X142505210Y-105375292D01*
X142481160Y-105496200D01*
X142481160Y-106746200D01*
X142530443Y-106993965D01*
X142670791Y-107204009D01*
X142684846Y-107213400D01*
X130884961Y-107213400D01*
X130785372Y-97055304D01*
X130789180Y-97053400D01*
X142823579Y-97053400D01*
X142794643Y-102985246D01*
G04 #@! TO.N,Net-(Cout1-Pad1)*
G36*
X159394434Y-118344010D02*
X159385000Y-118390005D01*
X159385000Y-122250200D01*
X128549400Y-122250200D01*
X128549400Y-112395000D01*
X140614850Y-112395000D01*
X140967326Y-112541000D01*
X141379074Y-112541000D01*
X141731550Y-112395000D01*
X144043400Y-112395000D01*
X144043400Y-116992400D01*
X144053067Y-117041001D01*
X144080597Y-117082203D01*
X144121799Y-117109733D01*
X144170400Y-117119400D01*
X155158894Y-117119400D01*
X155207495Y-117109733D01*
X155248697Y-117082203D01*
X155276227Y-117041001D01*
X155285893Y-116993000D01*
X155380534Y-96976437D01*
X159444823Y-96928622D01*
X159394434Y-118344010D01*
X159394434Y-118344010D01*
G37*
X159394434Y-118344010D02*
X159385000Y-118390005D01*
X159385000Y-122250200D01*
X128549400Y-122250200D01*
X128549400Y-112395000D01*
X140614850Y-112395000D01*
X140967326Y-112541000D01*
X141379074Y-112541000D01*
X141731550Y-112395000D01*
X144043400Y-112395000D01*
X144043400Y-116992400D01*
X144053067Y-117041001D01*
X144080597Y-117082203D01*
X144121799Y-117109733D01*
X144170400Y-117119400D01*
X155158894Y-117119400D01*
X155207495Y-117109733D01*
X155248697Y-117082203D01*
X155276227Y-117041001D01*
X155285893Y-116993000D01*
X155380534Y-96976437D01*
X159444823Y-96928622D01*
X159394434Y-118344010D01*
G04 #@! TO.N,Net-(Cbst1-Pad1)*
G36*
X153746200Y-108205189D02*
X153682009Y-108178600D01*
X152838150Y-108178600D01*
X152679400Y-108337350D01*
X152679400Y-111683800D01*
X152699400Y-111683800D01*
X152699400Y-111937800D01*
X152679400Y-111937800D01*
X152679400Y-115284250D01*
X152838150Y-115443000D01*
X153682009Y-115443000D01*
X153746200Y-115416411D01*
X153746200Y-115595400D01*
X145465800Y-115595400D01*
X145465800Y-112096550D01*
X150914100Y-112096550D01*
X150914100Y-114934310D01*
X151010773Y-115167699D01*
X151189402Y-115346327D01*
X151422791Y-115443000D01*
X152266650Y-115443000D01*
X152425400Y-115284250D01*
X152425400Y-111937800D01*
X151072850Y-111937800D01*
X150914100Y-112096550D01*
X145465800Y-112096550D01*
X145465800Y-111505779D01*
X145574491Y-111550800D01*
X145815050Y-111550800D01*
X145973800Y-111392050D01*
X145973800Y-110667800D01*
X146227800Y-110667800D01*
X146227800Y-111392050D01*
X146386550Y-111550800D01*
X146627109Y-111550800D01*
X146860498Y-111454127D01*
X147039127Y-111275499D01*
X147135800Y-111042110D01*
X147135800Y-110826550D01*
X146977050Y-110667800D01*
X146227800Y-110667800D01*
X145973800Y-110667800D01*
X145953800Y-110667800D01*
X145953800Y-110413800D01*
X145973800Y-110413800D01*
X145973800Y-109689550D01*
X146227800Y-109689550D01*
X146227800Y-110413800D01*
X146977050Y-110413800D01*
X147135800Y-110255050D01*
X147135800Y-110039490D01*
X147039127Y-109806101D01*
X146860498Y-109627473D01*
X146627109Y-109530800D01*
X146386550Y-109530800D01*
X146227800Y-109689550D01*
X145973800Y-109689550D01*
X145815050Y-109530800D01*
X145574491Y-109530800D01*
X145465800Y-109575821D01*
X145465800Y-108687290D01*
X150914100Y-108687290D01*
X150914100Y-111525050D01*
X151072850Y-111683800D01*
X152425400Y-111683800D01*
X152425400Y-108337350D01*
X152266650Y-108178600D01*
X151422791Y-108178600D01*
X151189402Y-108275273D01*
X151010773Y-108453901D01*
X150914100Y-108687290D01*
X145465800Y-108687290D01*
X145465800Y-107924600D01*
X153746200Y-107924600D01*
X153746200Y-108205189D01*
X153746200Y-108205189D01*
G37*
X153746200Y-108205189D02*
X153682009Y-108178600D01*
X152838150Y-108178600D01*
X152679400Y-108337350D01*
X152679400Y-111683800D01*
X152699400Y-111683800D01*
X152699400Y-111937800D01*
X152679400Y-111937800D01*
X152679400Y-115284250D01*
X152838150Y-115443000D01*
X153682009Y-115443000D01*
X153746200Y-115416411D01*
X153746200Y-115595400D01*
X145465800Y-115595400D01*
X145465800Y-112096550D01*
X150914100Y-112096550D01*
X150914100Y-114934310D01*
X151010773Y-115167699D01*
X151189402Y-115346327D01*
X151422791Y-115443000D01*
X152266650Y-115443000D01*
X152425400Y-115284250D01*
X152425400Y-111937800D01*
X151072850Y-111937800D01*
X150914100Y-112096550D01*
X145465800Y-112096550D01*
X145465800Y-111505779D01*
X145574491Y-111550800D01*
X145815050Y-111550800D01*
X145973800Y-111392050D01*
X145973800Y-110667800D01*
X146227800Y-110667800D01*
X146227800Y-111392050D01*
X146386550Y-111550800D01*
X146627109Y-111550800D01*
X146860498Y-111454127D01*
X147039127Y-111275499D01*
X147135800Y-111042110D01*
X147135800Y-110826550D01*
X146977050Y-110667800D01*
X146227800Y-110667800D01*
X145973800Y-110667800D01*
X145953800Y-110667800D01*
X145953800Y-110413800D01*
X145973800Y-110413800D01*
X145973800Y-109689550D01*
X146227800Y-109689550D01*
X146227800Y-110413800D01*
X146977050Y-110413800D01*
X147135800Y-110255050D01*
X147135800Y-110039490D01*
X147039127Y-109806101D01*
X146860498Y-109627473D01*
X146627109Y-109530800D01*
X146386550Y-109530800D01*
X146227800Y-109689550D01*
X145973800Y-109689550D01*
X145815050Y-109530800D01*
X145574491Y-109530800D01*
X145465800Y-109575821D01*
X145465800Y-108687290D01*
X150914100Y-108687290D01*
X150914100Y-111525050D01*
X151072850Y-111683800D01*
X152425400Y-111683800D01*
X152425400Y-108337350D01*
X152266650Y-108178600D01*
X151422791Y-108178600D01*
X151189402Y-108275273D01*
X151010773Y-108453901D01*
X150914100Y-108687290D01*
X145465800Y-108687290D01*
X145465800Y-107924600D01*
X153746200Y-107924600D01*
X153746200Y-108205189D01*
G04 #@! TO.N,GND*
G36*
X181025122Y-34970922D02*
X180783966Y-34388720D01*
X180183380Y-33788134D01*
X179398678Y-33463100D01*
X178549322Y-33463100D01*
X177764620Y-33788134D01*
X177164034Y-34388720D01*
X176839000Y-35173422D01*
X176839000Y-36022778D01*
X177164034Y-36807480D01*
X177764620Y-37408066D01*
X178549322Y-37733100D01*
X179398678Y-37733100D01*
X180183380Y-37408066D01*
X180783966Y-36807480D01*
X181024004Y-36227978D01*
X181006533Y-55864340D01*
X180918865Y-55733135D01*
X180344963Y-55349666D01*
X179668000Y-55215010D01*
X178991038Y-55349666D01*
X178417136Y-55733135D01*
X178033667Y-56307037D01*
X177933001Y-56813120D01*
X177933001Y-57056636D01*
X174252406Y-57056636D01*
X174444963Y-57018334D01*
X175018865Y-56634865D01*
X175402334Y-56060963D01*
X175536990Y-55384000D01*
X175402334Y-54707037D01*
X175018865Y-54133135D01*
X174444963Y-53749666D01*
X174001545Y-53661465D01*
X174202334Y-53360963D01*
X174336990Y-52684000D01*
X174202334Y-52007037D01*
X173818865Y-51433135D01*
X173244963Y-51049666D01*
X172738880Y-50949000D01*
X170764345Y-50949000D01*
X170681179Y-50865834D01*
X170638777Y-50802375D01*
X170387385Y-50634400D01*
X170165700Y-50590304D01*
X170165695Y-50590304D01*
X170090848Y-50575416D01*
X170016001Y-50590304D01*
X161180813Y-50590304D01*
X161065064Y-50310860D01*
X160548870Y-49794666D01*
X160079638Y-49600304D01*
X160548870Y-49405942D01*
X161065064Y-48889748D01*
X161344426Y-48215308D01*
X161344426Y-47485300D01*
X161065064Y-46810860D01*
X160548870Y-46294666D01*
X159874430Y-46015304D01*
X159144422Y-46015304D01*
X158469982Y-46294666D01*
X157953788Y-46810860D01*
X157674426Y-47485300D01*
X157674426Y-48215308D01*
X157953788Y-48889748D01*
X158469982Y-49405942D01*
X158939214Y-49600304D01*
X158469982Y-49794666D01*
X157953788Y-50310860D01*
X157674426Y-50985300D01*
X157674426Y-51715308D01*
X157953788Y-52389748D01*
X158469982Y-52905942D01*
X158939214Y-53100304D01*
X158469982Y-53294666D01*
X157953788Y-53810860D01*
X157674426Y-54485300D01*
X157674426Y-55215308D01*
X157953788Y-55889748D01*
X158469982Y-56405942D01*
X158703973Y-56502864D01*
X158309426Y-56502864D01*
X158061661Y-56552147D01*
X157851617Y-56692495D01*
X157711269Y-56902539D01*
X157661986Y-57150304D01*
X157661986Y-59550304D01*
X157711269Y-59798069D01*
X157851617Y-60008113D01*
X158061661Y-60148461D01*
X158309426Y-60197744D01*
X160709426Y-60197744D01*
X160957191Y-60148461D01*
X161167235Y-60008113D01*
X161307583Y-59798069D01*
X161356866Y-59550304D01*
X161356866Y-57772546D01*
X161952794Y-58368474D01*
X161995193Y-58431929D01*
X162058648Y-58474328D01*
X162058649Y-58474329D01*
X162246584Y-58599903D01*
X162543121Y-58658888D01*
X162543122Y-58658888D01*
X162839659Y-58599903D01*
X162874481Y-58576636D01*
X177933000Y-58576636D01*
X177933000Y-58954879D01*
X178033666Y-59460962D01*
X178417135Y-60034865D01*
X178991037Y-60418334D01*
X179668000Y-60552990D01*
X180344962Y-60418334D01*
X180918865Y-60034865D01*
X181002935Y-59909045D01*
X180997599Y-65906432D01*
X180783446Y-65389420D01*
X180182860Y-64788834D01*
X179398158Y-64463800D01*
X178548802Y-64463800D01*
X177764100Y-64788834D01*
X177163514Y-65389420D01*
X176838480Y-66174122D01*
X176838480Y-67023478D01*
X177163514Y-67808180D01*
X177764100Y-68408766D01*
X178548802Y-68733800D01*
X179398158Y-68733800D01*
X180182860Y-68408766D01*
X180783446Y-67808180D01*
X180996365Y-67294149D01*
X180926454Y-145873301D01*
X107719146Y-145823499D01*
X107693226Y-116700120D01*
X109859485Y-116700120D01*
X109988733Y-116992923D01*
X110689006Y-117261188D01*
X111438635Y-117241050D01*
X112037667Y-116992923D01*
X112166915Y-116700120D01*
X111013200Y-115546405D01*
X109859485Y-116700120D01*
X107693226Y-116700120D01*
X107691750Y-115042606D01*
X109118812Y-115042606D01*
X109138950Y-115792235D01*
X109387077Y-116391267D01*
X109679880Y-116520515D01*
X110833595Y-115366800D01*
X111192805Y-115366800D01*
X112346520Y-116520515D01*
X112639323Y-116391267D01*
X112907588Y-115690994D01*
X112887450Y-114941365D01*
X112639323Y-114342333D01*
X112346520Y-114213085D01*
X111192805Y-115366800D01*
X110833595Y-115366800D01*
X109679880Y-114213085D01*
X109387077Y-114342333D01*
X109118812Y-115042606D01*
X107691750Y-115042606D01*
X107690852Y-114033480D01*
X109859485Y-114033480D01*
X111013200Y-115187195D01*
X112166915Y-114033480D01*
X112037667Y-113740677D01*
X111337394Y-113472412D01*
X110587765Y-113492550D01*
X109988733Y-113740677D01*
X109859485Y-114033480D01*
X107690852Y-114033480D01*
X107683357Y-105613200D01*
X108569508Y-105613200D01*
X108684761Y-106192618D01*
X109012975Y-106683825D01*
X109504182Y-107012039D01*
X109937344Y-107098200D01*
X110229856Y-107098200D01*
X110663018Y-107012039D01*
X111154225Y-106683825D01*
X111353600Y-106385439D01*
X111552975Y-106683825D01*
X112044182Y-107012039D01*
X112477344Y-107098200D01*
X112769856Y-107098200D01*
X113203018Y-107012039D01*
X113694225Y-106683825D01*
X113893600Y-106385439D01*
X114092975Y-106683825D01*
X114584182Y-107012039D01*
X115017344Y-107098200D01*
X115309856Y-107098200D01*
X115743018Y-107012039D01*
X116234225Y-106683825D01*
X116433600Y-106385439D01*
X116632975Y-106683825D01*
X117124182Y-107012039D01*
X117557344Y-107098200D01*
X117849856Y-107098200D01*
X118283018Y-107012039D01*
X118774225Y-106683825D01*
X118973600Y-106385439D01*
X119172975Y-106683825D01*
X119664182Y-107012039D01*
X120097344Y-107098200D01*
X120389856Y-107098200D01*
X120823018Y-107012039D01*
X121314225Y-106683825D01*
X121513600Y-106385439D01*
X121712975Y-106683825D01*
X122204182Y-107012039D01*
X122637344Y-107098200D01*
X122929856Y-107098200D01*
X123363018Y-107012039D01*
X123854225Y-106683825D01*
X124053600Y-106385439D01*
X124252975Y-106683825D01*
X124744182Y-107012039D01*
X125177344Y-107098200D01*
X125469856Y-107098200D01*
X125903018Y-107012039D01*
X126394225Y-106683825D01*
X126406416Y-106665581D01*
X126415443Y-106710965D01*
X126555791Y-106921009D01*
X126765835Y-107061357D01*
X127013600Y-107110640D01*
X128713600Y-107110640D01*
X128955800Y-107062464D01*
X128955800Y-110515400D01*
X127000000Y-110515400D01*
X126951399Y-110525067D01*
X126910197Y-110552597D01*
X126882667Y-110593799D01*
X126873000Y-110642400D01*
X126873000Y-113682631D01*
X126388150Y-113481800D01*
X125638250Y-113481800D01*
X124945433Y-113768774D01*
X124415174Y-114299033D01*
X124128200Y-114991850D01*
X124128200Y-115741750D01*
X124278200Y-116103883D01*
X124278201Y-123254940D01*
X124259341Y-123273800D01*
X117748200Y-123273800D01*
X117748200Y-116700120D01*
X119859485Y-116700120D01*
X119988733Y-116992923D01*
X120689006Y-117261188D01*
X121438635Y-117241050D01*
X122037667Y-116992923D01*
X122166915Y-116700120D01*
X121013200Y-115546405D01*
X119859485Y-116700120D01*
X117748200Y-116700120D01*
X117748200Y-116103882D01*
X117898200Y-115741750D01*
X117898200Y-115042606D01*
X119118812Y-115042606D01*
X119138950Y-115792235D01*
X119387077Y-116391267D01*
X119679880Y-116520515D01*
X120833595Y-115366800D01*
X121192805Y-115366800D01*
X122346520Y-116520515D01*
X122639323Y-116391267D01*
X122907588Y-115690994D01*
X122887450Y-114941365D01*
X122639323Y-114342333D01*
X122346520Y-114213085D01*
X121192805Y-115366800D01*
X120833595Y-115366800D01*
X119679880Y-114213085D01*
X119387077Y-114342333D01*
X119118812Y-115042606D01*
X117898200Y-115042606D01*
X117898200Y-114991850D01*
X117611226Y-114299033D01*
X117345673Y-114033480D01*
X119859485Y-114033480D01*
X121013200Y-115187195D01*
X122166915Y-114033480D01*
X122037667Y-113740677D01*
X121337394Y-113472412D01*
X120587765Y-113492550D01*
X119988733Y-113740677D01*
X119859485Y-114033480D01*
X117345673Y-114033480D01*
X117080967Y-113768774D01*
X116388150Y-113481800D01*
X115638250Y-113481800D01*
X114945433Y-113768774D01*
X114415174Y-114299033D01*
X114128200Y-114991850D01*
X114128200Y-115741750D01*
X114278201Y-116103884D01*
X114278200Y-124541271D01*
X114183214Y-125018800D01*
X114217401Y-125190670D01*
X114217400Y-128794724D01*
X112984423Y-130027701D01*
X112838727Y-130125053D01*
X112741375Y-130270750D01*
X112741372Y-130270753D01*
X112453047Y-130702262D01*
X112317615Y-131383127D01*
X112351801Y-131554992D01*
X112351801Y-132230100D01*
X112074895Y-132507006D01*
X111711800Y-133383594D01*
X111711800Y-134332406D01*
X112074895Y-135208994D01*
X112745806Y-135879905D01*
X113622394Y-136243000D01*
X114571206Y-136243000D01*
X115447794Y-135879905D01*
X115775171Y-135552528D01*
X119541477Y-135552528D01*
X119731764Y-135897271D01*
X120612991Y-136248956D01*
X121561723Y-136236641D01*
X122381036Y-135897271D01*
X122571323Y-135552528D01*
X121056400Y-134037605D01*
X119541477Y-135552528D01*
X115775171Y-135552528D01*
X116118705Y-135208994D01*
X116481800Y-134332406D01*
X116481800Y-133414591D01*
X118665444Y-133414591D01*
X118677759Y-134363323D01*
X119017129Y-135182636D01*
X119361872Y-135372923D01*
X120876795Y-133858000D01*
X121236005Y-133858000D01*
X122750928Y-135372923D01*
X123095671Y-135182636D01*
X123447356Y-134301409D01*
X123435443Y-133383594D01*
X125681800Y-133383594D01*
X125681800Y-134332406D01*
X126044895Y-135208994D01*
X126715806Y-135879905D01*
X127592394Y-136243000D01*
X128541206Y-136243000D01*
X129417794Y-135879905D01*
X129694699Y-135603000D01*
X130713538Y-135603000D01*
X130968928Y-135552200D01*
X144609800Y-135552200D01*
X144609801Y-143134930D01*
X144575614Y-143306800D01*
X144711046Y-143987665D01*
X145096726Y-144564874D01*
X145673935Y-144950554D01*
X146182935Y-145051800D01*
X146354800Y-145085986D01*
X146526665Y-145051800D01*
X151474368Y-145051800D01*
X151878438Y-145455870D01*
X152810157Y-145841800D01*
X153818643Y-145841800D01*
X154750362Y-145455870D01*
X155463470Y-144742762D01*
X155849400Y-143811043D01*
X155849400Y-142802557D01*
X155463470Y-141870838D01*
X154750362Y-141157730D01*
X153818643Y-140771800D01*
X152810157Y-140771800D01*
X151878438Y-141157730D01*
X151474368Y-141561800D01*
X148099800Y-141561800D01*
X148099800Y-134942200D01*
X153222983Y-134942200D01*
X153394043Y-134908174D01*
X153565102Y-134942200D01*
X163965000Y-134942200D01*
X163965001Y-141033067D01*
X163664038Y-141157730D01*
X162950930Y-141870838D01*
X162565000Y-142802557D01*
X162565000Y-143811043D01*
X162950930Y-144742762D01*
X163664038Y-145455870D01*
X164595757Y-145841800D01*
X165604243Y-145841800D01*
X166535962Y-145455870D01*
X167249070Y-144742762D01*
X167635000Y-143811043D01*
X167635000Y-142802557D01*
X167249070Y-141870838D01*
X166535962Y-141157730D01*
X166235000Y-141033068D01*
X166235000Y-134891400D01*
X176062617Y-134891400D01*
X176174400Y-134913635D01*
X176286183Y-134891400D01*
X176617255Y-134825546D01*
X176992689Y-134574689D01*
X177243546Y-134199255D01*
X177331635Y-133756400D01*
X177309400Y-133644617D01*
X177309400Y-126781697D01*
X177444985Y-126691101D01*
X177585333Y-126481057D01*
X177634616Y-126233292D01*
X177634616Y-124533292D01*
X177585333Y-124285527D01*
X177444985Y-124075483D01*
X177234941Y-123935135D01*
X176987176Y-123885852D01*
X175287176Y-123885852D01*
X175039411Y-123935135D01*
X174829367Y-124075483D01*
X174689019Y-124285527D01*
X174639736Y-124533292D01*
X174639736Y-126233292D01*
X174689019Y-126481057D01*
X174829367Y-126691101D01*
X175039401Y-126831442D01*
X175039400Y-132621400D01*
X165553902Y-132621400D01*
X165382842Y-132655426D01*
X165100000Y-132599165D01*
X164732827Y-132672200D01*
X153565102Y-132672200D01*
X153394043Y-132706226D01*
X153222983Y-132672200D01*
X147695110Y-132672200D01*
X147612874Y-132549126D01*
X147035665Y-132163446D01*
X146526665Y-132062200D01*
X146354800Y-132028014D01*
X146182935Y-132062200D01*
X130420608Y-132062200D01*
X130165218Y-132113000D01*
X129694699Y-132113000D01*
X129417794Y-131836095D01*
X128541206Y-131473000D01*
X127592394Y-131473000D01*
X126715806Y-131836095D01*
X126044895Y-132507006D01*
X125681800Y-133383594D01*
X123435443Y-133383594D01*
X123435041Y-133352677D01*
X123095671Y-132533364D01*
X122750928Y-132343077D01*
X121236005Y-133858000D01*
X120876795Y-133858000D01*
X119361872Y-132343077D01*
X119017129Y-132533364D01*
X118665444Y-133414591D01*
X116481800Y-133414591D01*
X116481800Y-133383594D01*
X116118705Y-132507006D01*
X115841800Y-132230101D01*
X115841800Y-132163472D01*
X119541477Y-132163472D01*
X121056400Y-133678395D01*
X122571323Y-132163472D01*
X122381036Y-131818729D01*
X121499809Y-131467044D01*
X120551077Y-131479359D01*
X119731764Y-131818729D01*
X119541477Y-132163472D01*
X115841800Y-132163472D01*
X115841800Y-132105929D01*
X116663130Y-131284600D01*
X171185817Y-131284600D01*
X171297600Y-131306835D01*
X171409383Y-131284600D01*
X171740455Y-131218746D01*
X172115889Y-130967889D01*
X172366746Y-130592455D01*
X172454835Y-130149600D01*
X172432600Y-130037817D01*
X172432600Y-126828340D01*
X172618985Y-126703801D01*
X172759333Y-126493757D01*
X172808616Y-126245992D01*
X172808616Y-124545992D01*
X172759333Y-124298227D01*
X172618985Y-124088183D01*
X172408941Y-123947835D01*
X172161176Y-123898552D01*
X170461176Y-123898552D01*
X170213411Y-123947835D01*
X170003367Y-124088183D01*
X169863019Y-124298227D01*
X169813736Y-124545992D01*
X169813736Y-126245992D01*
X169863019Y-126493757D01*
X170003367Y-126703801D01*
X170162601Y-126810198D01*
X170162600Y-129014600D01*
X149394549Y-129014600D01*
X149394549Y-127003823D01*
X149567358Y-126888355D01*
X149707706Y-126678311D01*
X149756989Y-126430546D01*
X149756989Y-124730546D01*
X149707706Y-124482781D01*
X149567358Y-124272737D01*
X149505493Y-124231400D01*
X151922025Y-124231400D01*
X151803140Y-124310837D01*
X151662792Y-124520881D01*
X151613509Y-124768646D01*
X151613509Y-126468646D01*
X151662792Y-126716411D01*
X151803140Y-126926455D01*
X152013184Y-127066803D01*
X152260949Y-127116086D01*
X153960949Y-127116086D01*
X154208714Y-127066803D01*
X154418758Y-126926455D01*
X154559106Y-126716411D01*
X154608389Y-126468646D01*
X154608389Y-124768646D01*
X154559106Y-124520881D01*
X154418758Y-124310837D01*
X154299873Y-124231400D01*
X161544000Y-124231400D01*
X161592601Y-124221733D01*
X161633803Y-124194203D01*
X161661333Y-124153001D01*
X161671000Y-124104400D01*
X161671000Y-100947332D01*
X162471076Y-100947332D01*
X162718841Y-100898049D01*
X162928885Y-100757701D01*
X163069233Y-100547657D01*
X163118516Y-100299892D01*
X163118516Y-100209892D01*
X164633781Y-100209892D01*
X164716920Y-100293031D01*
X165097326Y-100450600D01*
X165509074Y-100450600D01*
X165889480Y-100293031D01*
X166180631Y-100001880D01*
X166338200Y-99621474D01*
X166338200Y-99209726D01*
X166180631Y-98829320D01*
X165900403Y-98549092D01*
X169902636Y-98549092D01*
X169902636Y-100249092D01*
X169951919Y-100496857D01*
X170092267Y-100706901D01*
X170302311Y-100847249D01*
X170550076Y-100896532D01*
X172250076Y-100896532D01*
X172497841Y-100847249D01*
X172707885Y-100706901D01*
X172848233Y-100496857D01*
X172897516Y-100249092D01*
X172897516Y-98549092D01*
X172848233Y-98301327D01*
X172707885Y-98091283D01*
X172497841Y-97950935D01*
X172250076Y-97901652D01*
X170550076Y-97901652D01*
X170302311Y-97950935D01*
X170092267Y-98091283D01*
X169951919Y-98301327D01*
X169902636Y-98549092D01*
X165900403Y-98549092D01*
X165889480Y-98538169D01*
X165509074Y-98380600D01*
X165097326Y-98380600D01*
X164716920Y-98538169D01*
X164565197Y-98689892D01*
X163118516Y-98689892D01*
X163118516Y-98599892D01*
X163069233Y-98352127D01*
X162928885Y-98142083D01*
X162718841Y-98001735D01*
X162471076Y-97952452D01*
X161671000Y-97952452D01*
X161671000Y-96772000D01*
X170695489Y-96772000D01*
X170812920Y-96889431D01*
X171193326Y-97047000D01*
X171605074Y-97047000D01*
X171985480Y-96889431D01*
X172276631Y-96598280D01*
X172434200Y-96217874D01*
X172434200Y-95806126D01*
X172276631Y-95425720D01*
X171985480Y-95134569D01*
X171605074Y-94977000D01*
X171193326Y-94977000D01*
X170812920Y-95134569D01*
X170695489Y-95252000D01*
X161130111Y-95252000D01*
X160961880Y-95083769D01*
X160581474Y-94926200D01*
X160169726Y-94926200D01*
X159789320Y-95083769D01*
X159498169Y-95374920D01*
X159340600Y-95755326D01*
X159340600Y-95986600D01*
X153873200Y-95986600D01*
X153824599Y-95996267D01*
X153783397Y-96023797D01*
X153755867Y-96064999D01*
X153746200Y-96113600D01*
X153746200Y-100469800D01*
X153495750Y-100469800D01*
X153337000Y-100628550D01*
X153337000Y-101777800D01*
X153357000Y-101777800D01*
X153357000Y-102031800D01*
X153337000Y-102031800D01*
X153337000Y-103181050D01*
X153495750Y-103339800D01*
X153746200Y-103339800D01*
X153746200Y-106553000D01*
X145303600Y-106553000D01*
X145303600Y-106406950D01*
X145144850Y-106248200D01*
X144500600Y-106248200D01*
X144500600Y-106268200D01*
X144366040Y-106268200D01*
X144366040Y-105974200D01*
X144500600Y-105974200D01*
X144500600Y-105994200D01*
X145144850Y-105994200D01*
X145303600Y-105835450D01*
X145303600Y-105369891D01*
X145206927Y-105136502D01*
X145028299Y-104957873D01*
X144794910Y-104861200D01*
X144659350Y-104861200D01*
X144500602Y-105019948D01*
X144500602Y-104861200D01*
X144443400Y-104861200D01*
X144443400Y-104645326D01*
X144318256Y-104343200D01*
X144443400Y-104041074D01*
X144443400Y-103629326D01*
X144285831Y-103248920D01*
X144043400Y-103006489D01*
X144043400Y-101371400D01*
X144246600Y-101371400D01*
X144246600Y-102345650D01*
X144405350Y-102504400D01*
X144745909Y-102504400D01*
X144979298Y-102407727D01*
X145157927Y-102229099D01*
X145173894Y-102190550D01*
X152075000Y-102190550D01*
X152075000Y-102831110D01*
X152171673Y-103064499D01*
X152350302Y-103243127D01*
X152583691Y-103339800D01*
X152924250Y-103339800D01*
X153083000Y-103181050D01*
X153083000Y-102031800D01*
X152233750Y-102031800D01*
X152075000Y-102190550D01*
X145173894Y-102190550D01*
X145254600Y-101995710D01*
X145254600Y-101530150D01*
X145095850Y-101371400D01*
X144246600Y-101371400D01*
X144043400Y-101371400D01*
X144043400Y-100143150D01*
X144246600Y-100143150D01*
X144246600Y-101117400D01*
X145095850Y-101117400D01*
X145254600Y-100958650D01*
X145254600Y-100493090D01*
X145157927Y-100259701D01*
X144979298Y-100081073D01*
X144745909Y-99984400D01*
X144405350Y-99984400D01*
X144246600Y-100143150D01*
X144043400Y-100143150D01*
X144043400Y-99945596D01*
X146838049Y-99945596D01*
X146838049Y-100636156D01*
X146934722Y-100869545D01*
X147113351Y-101048173D01*
X147346740Y-101144846D01*
X148037299Y-101144846D01*
X148196049Y-100986096D01*
X148196049Y-99786846D01*
X148450049Y-99786846D01*
X148450049Y-100986096D01*
X148608799Y-101144846D01*
X149299358Y-101144846D01*
X149532747Y-101048173D01*
X149602430Y-100978490D01*
X152075000Y-100978490D01*
X152075000Y-101619050D01*
X152233750Y-101777800D01*
X153083000Y-101777800D01*
X153083000Y-100628550D01*
X152924250Y-100469800D01*
X152583691Y-100469800D01*
X152350302Y-100566473D01*
X152171673Y-100745101D01*
X152075000Y-100978490D01*
X149602430Y-100978490D01*
X149711376Y-100869545D01*
X149808049Y-100636156D01*
X149808049Y-99945596D01*
X149649299Y-99786846D01*
X148450049Y-99786846D01*
X148196049Y-99786846D01*
X146996799Y-99786846D01*
X146838049Y-99945596D01*
X144043400Y-99945596D01*
X144043400Y-98683536D01*
X146838049Y-98683536D01*
X146838049Y-99374096D01*
X146996799Y-99532846D01*
X148196049Y-99532846D01*
X148196049Y-98333596D01*
X148450049Y-98333596D01*
X148450049Y-99532846D01*
X149649299Y-99532846D01*
X149808049Y-99374096D01*
X149808049Y-98683536D01*
X149711376Y-98450147D01*
X149532747Y-98271519D01*
X149299358Y-98174846D01*
X148608799Y-98174846D01*
X148450049Y-98333596D01*
X148196049Y-98333596D01*
X148037299Y-98174846D01*
X147346740Y-98174846D01*
X147113351Y-98271519D01*
X146934722Y-98450147D01*
X146838049Y-98683536D01*
X144043400Y-98683536D01*
X144043400Y-96012000D01*
X144033733Y-95963399D01*
X144006203Y-95922197D01*
X143965001Y-95894667D01*
X143916400Y-95885000D01*
X130514145Y-95885000D01*
X130676676Y-95492590D01*
X130555355Y-95262700D01*
X129362200Y-95262700D01*
X129362200Y-95282700D01*
X129108200Y-95282700D01*
X129108200Y-95262700D01*
X126822200Y-95262700D01*
X126822200Y-96456519D01*
X127052092Y-96577186D01*
X127576558Y-96330883D01*
X127965200Y-95904429D01*
X128353842Y-96330883D01*
X128878308Y-96577186D01*
X128955800Y-96536512D01*
X128955800Y-104163936D01*
X128713600Y-104115760D01*
X127013600Y-104115760D01*
X126765835Y-104165043D01*
X126555791Y-104305391D01*
X126415443Y-104515435D01*
X126406416Y-104560819D01*
X126394225Y-104542575D01*
X125903018Y-104214361D01*
X125469856Y-104128200D01*
X125177344Y-104128200D01*
X124744182Y-104214361D01*
X124252975Y-104542575D01*
X124053600Y-104840961D01*
X123854225Y-104542575D01*
X123363018Y-104214361D01*
X122929856Y-104128200D01*
X122637344Y-104128200D01*
X122204182Y-104214361D01*
X121712975Y-104542575D01*
X121513600Y-104840961D01*
X121314225Y-104542575D01*
X120823018Y-104214361D01*
X120389856Y-104128200D01*
X120097344Y-104128200D01*
X119664182Y-104214361D01*
X119172975Y-104542575D01*
X118973600Y-104840961D01*
X118774225Y-104542575D01*
X118283018Y-104214361D01*
X117849856Y-104128200D01*
X117557344Y-104128200D01*
X117124182Y-104214361D01*
X116632975Y-104542575D01*
X116433600Y-104840961D01*
X116234225Y-104542575D01*
X115743018Y-104214361D01*
X115309856Y-104128200D01*
X115017344Y-104128200D01*
X114584182Y-104214361D01*
X114092975Y-104542575D01*
X113893600Y-104840961D01*
X113694225Y-104542575D01*
X113203018Y-104214361D01*
X112769856Y-104128200D01*
X112477344Y-104128200D01*
X112044182Y-104214361D01*
X111552975Y-104542575D01*
X111353600Y-104840961D01*
X111154225Y-104542575D01*
X110663018Y-104214361D01*
X110229856Y-104128200D01*
X109937344Y-104128200D01*
X109504182Y-104214361D01*
X109012975Y-104542575D01*
X108684761Y-105033782D01*
X108569508Y-105613200D01*
X107683357Y-105613200D01*
X107678599Y-100266500D01*
X109941108Y-100266500D01*
X110056361Y-100845918D01*
X110384575Y-101337125D01*
X110875782Y-101665339D01*
X111308944Y-101751500D01*
X111601456Y-101751500D01*
X112034618Y-101665339D01*
X112525825Y-101337125D01*
X112725200Y-101038739D01*
X112924575Y-101337125D01*
X113415782Y-101665339D01*
X113848944Y-101751500D01*
X114141456Y-101751500D01*
X114574618Y-101665339D01*
X115065825Y-101337125D01*
X115265200Y-101038739D01*
X115464575Y-101337125D01*
X115955782Y-101665339D01*
X116388944Y-101751500D01*
X116681456Y-101751500D01*
X117114618Y-101665339D01*
X117605825Y-101337125D01*
X117805200Y-101038739D01*
X118004575Y-101337125D01*
X118495782Y-101665339D01*
X118928944Y-101751500D01*
X119221456Y-101751500D01*
X119654618Y-101665339D01*
X120145825Y-101337125D01*
X120345200Y-101038739D01*
X120544575Y-101337125D01*
X121035782Y-101665339D01*
X121468944Y-101751500D01*
X121761456Y-101751500D01*
X122194618Y-101665339D01*
X122685825Y-101337125D01*
X122698016Y-101318881D01*
X122707043Y-101364265D01*
X122847391Y-101574309D01*
X123057435Y-101714657D01*
X123305200Y-101763940D01*
X125005200Y-101763940D01*
X125252965Y-101714657D01*
X125463009Y-101574309D01*
X125603357Y-101364265D01*
X125652640Y-101116500D01*
X125652640Y-99416500D01*
X125603357Y-99168735D01*
X125463009Y-98958691D01*
X125252965Y-98818343D01*
X125005200Y-98769060D01*
X123305200Y-98769060D01*
X123057435Y-98818343D01*
X122847391Y-98958691D01*
X122707043Y-99168735D01*
X122698016Y-99214119D01*
X122685825Y-99195875D01*
X122194618Y-98867661D01*
X121761456Y-98781500D01*
X121468944Y-98781500D01*
X121035782Y-98867661D01*
X120544575Y-99195875D01*
X120345200Y-99494261D01*
X120145825Y-99195875D01*
X119654618Y-98867661D01*
X119221456Y-98781500D01*
X118928944Y-98781500D01*
X118495782Y-98867661D01*
X118004575Y-99195875D01*
X117805200Y-99494261D01*
X117605825Y-99195875D01*
X117114618Y-98867661D01*
X116681456Y-98781500D01*
X116388944Y-98781500D01*
X115955782Y-98867661D01*
X115464575Y-99195875D01*
X115265200Y-99494261D01*
X115065825Y-99195875D01*
X114574618Y-98867661D01*
X114141456Y-98781500D01*
X113848944Y-98781500D01*
X113415782Y-98867661D01*
X112924575Y-99195875D01*
X112725200Y-99494261D01*
X112525825Y-99195875D01*
X112034618Y-98867661D01*
X111601456Y-98781500D01*
X111308944Y-98781500D01*
X110875782Y-98867661D01*
X110384575Y-99195875D01*
X110056361Y-99687082D01*
X109941108Y-100266500D01*
X107678599Y-100266500D01*
X107674350Y-95492590D01*
X125253724Y-95492590D01*
X125423555Y-95902624D01*
X125813842Y-96330883D01*
X126338308Y-96577186D01*
X126568200Y-96456519D01*
X126568200Y-95262700D01*
X125375045Y-95262700D01*
X125253724Y-95492590D01*
X107674350Y-95492590D01*
X107650195Y-68354825D01*
X110166200Y-68354825D01*
X110166200Y-68766573D01*
X110323769Y-69146979D01*
X110614920Y-69438130D01*
X110995326Y-69595699D01*
X111407074Y-69595699D01*
X111787480Y-69438130D01*
X111904911Y-69320699D01*
X125263657Y-69320699D01*
X125181108Y-69735700D01*
X125295184Y-70309200D01*
X119829711Y-70309200D01*
X119712280Y-70191769D01*
X119331874Y-70034200D01*
X118920126Y-70034200D01*
X118539720Y-70191769D01*
X118248569Y-70482920D01*
X118091000Y-70863326D01*
X118091000Y-71275074D01*
X118248569Y-71655480D01*
X118539720Y-71946631D01*
X118920126Y-72104200D01*
X119331874Y-72104200D01*
X119712280Y-71946631D01*
X119829711Y-71829200D01*
X125269922Y-71829200D01*
X125181108Y-72275700D01*
X125285079Y-72798400D01*
X117188111Y-72798400D01*
X117070680Y-72680969D01*
X116690274Y-72523400D01*
X116278526Y-72523400D01*
X115898120Y-72680969D01*
X115606969Y-72972120D01*
X115449400Y-73352526D01*
X115449400Y-73764274D01*
X115606969Y-74144680D01*
X115898120Y-74435831D01*
X116278526Y-74593400D01*
X116690274Y-74593400D01*
X117070680Y-74435831D01*
X117188111Y-74318400D01*
X125280027Y-74318400D01*
X125181108Y-74815700D01*
X125285079Y-75338400D01*
X114800511Y-75338400D01*
X114733880Y-75271769D01*
X114353474Y-75114200D01*
X113941726Y-75114200D01*
X113561320Y-75271769D01*
X113270169Y-75562920D01*
X113112600Y-75943326D01*
X113112600Y-76355074D01*
X113270169Y-76735480D01*
X113561320Y-77026631D01*
X113941726Y-77184200D01*
X114353474Y-77184200D01*
X114733880Y-77026631D01*
X114902111Y-76858400D01*
X125280027Y-76858400D01*
X125181108Y-77355700D01*
X125296361Y-77935118D01*
X125624575Y-78426325D01*
X125922961Y-78625700D01*
X125624575Y-78825075D01*
X125296361Y-79316282D01*
X125181108Y-79895700D01*
X125296361Y-80475118D01*
X125624575Y-80966325D01*
X125922961Y-81165700D01*
X125624575Y-81365075D01*
X125296361Y-81856282D01*
X125181108Y-82435700D01*
X125296361Y-83015118D01*
X125624575Y-83506325D01*
X125922961Y-83705700D01*
X125624575Y-83905075D01*
X125296361Y-84396282D01*
X125181108Y-84975700D01*
X125296361Y-85555118D01*
X125624575Y-86046325D01*
X125922961Y-86245700D01*
X125624575Y-86445075D01*
X125296361Y-86936282D01*
X125181108Y-87515700D01*
X125296361Y-88095118D01*
X125624575Y-88586325D01*
X125922961Y-88785700D01*
X125624575Y-88985075D01*
X125296361Y-89476282D01*
X125181108Y-90055700D01*
X125296361Y-90635118D01*
X125624575Y-91126325D01*
X125922961Y-91325700D01*
X125624575Y-91525075D01*
X125296361Y-92016282D01*
X125181108Y-92595700D01*
X125296361Y-93175118D01*
X125624575Y-93666325D01*
X125943678Y-93879543D01*
X125813842Y-93940517D01*
X125423555Y-94368776D01*
X125253724Y-94778810D01*
X125375045Y-95008700D01*
X126568200Y-95008700D01*
X126568200Y-94988700D01*
X126822200Y-94988700D01*
X126822200Y-95008700D01*
X129108200Y-95008700D01*
X129108200Y-94988700D01*
X129362200Y-94988700D01*
X129362200Y-95008700D01*
X130555355Y-95008700D01*
X130676676Y-94778810D01*
X130506845Y-94368776D01*
X130116558Y-93940517D01*
X129986722Y-93879543D01*
X130305825Y-93666325D01*
X130634039Y-93175118D01*
X130749292Y-92595700D01*
X130634039Y-92016282D01*
X130305825Y-91525075D01*
X130122828Y-91402800D01*
X142114160Y-91402800D01*
X142114160Y-93102800D01*
X142163443Y-93350565D01*
X142303791Y-93560609D01*
X142513835Y-93700957D01*
X142761600Y-93750240D01*
X144461600Y-93750240D01*
X144709365Y-93700957D01*
X144919409Y-93560609D01*
X145059757Y-93350565D01*
X145068784Y-93305181D01*
X145080975Y-93323425D01*
X145572182Y-93651639D01*
X146005344Y-93737800D01*
X146297856Y-93737800D01*
X146731018Y-93651639D01*
X147222225Y-93323425D01*
X147421600Y-93025039D01*
X147620975Y-93323425D01*
X148112182Y-93651639D01*
X148545344Y-93737800D01*
X148837856Y-93737800D01*
X149271018Y-93651639D01*
X149762225Y-93323425D01*
X149975443Y-93004322D01*
X150036417Y-93134158D01*
X150464676Y-93524445D01*
X150874710Y-93694276D01*
X151104600Y-93572955D01*
X151104600Y-92379800D01*
X151358600Y-92379800D01*
X151358600Y-93572955D01*
X151588490Y-93694276D01*
X151998524Y-93524445D01*
X152426783Y-93134158D01*
X152673086Y-92609692D01*
X152552419Y-92379800D01*
X151358600Y-92379800D01*
X151104600Y-92379800D01*
X151084600Y-92379800D01*
X151084600Y-92125800D01*
X151104600Y-92125800D01*
X151104600Y-90932645D01*
X151358600Y-90932645D01*
X151358600Y-92125800D01*
X152552419Y-92125800D01*
X152673086Y-91895908D01*
X152441510Y-91402800D01*
X158776560Y-91402800D01*
X158776560Y-93102800D01*
X158825843Y-93350565D01*
X158966191Y-93560609D01*
X159176235Y-93700957D01*
X159424000Y-93750240D01*
X161124000Y-93750240D01*
X161371765Y-93700957D01*
X161581809Y-93560609D01*
X161722157Y-93350565D01*
X161731184Y-93305181D01*
X161743375Y-93323425D01*
X162234582Y-93651639D01*
X162667744Y-93737800D01*
X162960256Y-93737800D01*
X163393418Y-93651639D01*
X163884625Y-93323425D01*
X164084000Y-93025039D01*
X164283375Y-93323425D01*
X164774582Y-93651639D01*
X165207744Y-93737800D01*
X165500256Y-93737800D01*
X165933418Y-93651639D01*
X166424625Y-93323425D01*
X166752839Y-92832218D01*
X166868092Y-92252800D01*
X166752839Y-91673382D01*
X166424625Y-91182175D01*
X165933418Y-90853961D01*
X165500256Y-90767800D01*
X165207744Y-90767800D01*
X164774582Y-90853961D01*
X164283375Y-91182175D01*
X164084000Y-91480561D01*
X163884625Y-91182175D01*
X163393418Y-90853961D01*
X162960256Y-90767800D01*
X162667744Y-90767800D01*
X162234582Y-90853961D01*
X161743375Y-91182175D01*
X161731184Y-91200419D01*
X161722157Y-91155035D01*
X161581809Y-90944991D01*
X161371765Y-90804643D01*
X161124000Y-90755360D01*
X159424000Y-90755360D01*
X159176235Y-90804643D01*
X158966191Y-90944991D01*
X158825843Y-91155035D01*
X158776560Y-91402800D01*
X152441510Y-91402800D01*
X152426783Y-91371442D01*
X151998524Y-90981155D01*
X151588490Y-90811324D01*
X151358600Y-90932645D01*
X151104600Y-90932645D01*
X150874710Y-90811324D01*
X150464676Y-90981155D01*
X150036417Y-91371442D01*
X149975443Y-91501278D01*
X149762225Y-91182175D01*
X149271018Y-90853961D01*
X148837856Y-90767800D01*
X148545344Y-90767800D01*
X148112182Y-90853961D01*
X147620975Y-91182175D01*
X147421600Y-91480561D01*
X147222225Y-91182175D01*
X146731018Y-90853961D01*
X146297856Y-90767800D01*
X146005344Y-90767800D01*
X145572182Y-90853961D01*
X145080975Y-91182175D01*
X145068784Y-91200419D01*
X145059757Y-91155035D01*
X144919409Y-90944991D01*
X144709365Y-90804643D01*
X144461600Y-90755360D01*
X142761600Y-90755360D01*
X142513835Y-90804643D01*
X142303791Y-90944991D01*
X142163443Y-91155035D01*
X142114160Y-91402800D01*
X130122828Y-91402800D01*
X130007439Y-91325700D01*
X130305825Y-91126325D01*
X130634039Y-90635118D01*
X130749292Y-90055700D01*
X130634039Y-89476282D01*
X130305825Y-88985075D01*
X130007439Y-88785700D01*
X130305825Y-88586325D01*
X130386049Y-88466262D01*
X131659859Y-89740073D01*
X131702259Y-89803529D01*
X131953651Y-89971504D01*
X132175336Y-90015600D01*
X132175340Y-90015600D01*
X132250187Y-90030488D01*
X132325034Y-90015600D01*
X148038689Y-90015600D01*
X148105320Y-90082231D01*
X148485726Y-90239800D01*
X148897474Y-90239800D01*
X149277880Y-90082231D01*
X149569031Y-89791080D01*
X149726600Y-89410674D01*
X149726600Y-88998926D01*
X149569031Y-88618520D01*
X149277880Y-88327369D01*
X148897474Y-88169800D01*
X148485726Y-88169800D01*
X148105320Y-88327369D01*
X147937089Y-88495600D01*
X146648111Y-88495600D01*
X146825831Y-88317880D01*
X146983400Y-87937474D01*
X146983400Y-87525726D01*
X146941595Y-87424800D01*
X147501413Y-87424800D01*
X147523843Y-87537565D01*
X147664191Y-87747609D01*
X147874235Y-87887957D01*
X148122000Y-87937240D01*
X149122000Y-87937240D01*
X149369765Y-87887957D01*
X149579809Y-87747609D01*
X149620654Y-87686480D01*
X149762302Y-87828127D01*
X149995691Y-87924800D01*
X150336250Y-87924800D01*
X150495000Y-87766050D01*
X150495000Y-86791800D01*
X150749000Y-86791800D01*
X150749000Y-87766050D01*
X150907750Y-87924800D01*
X151248309Y-87924800D01*
X151481698Y-87828127D01*
X151660327Y-87649499D01*
X151757000Y-87416110D01*
X151757000Y-86950550D01*
X151598250Y-86791800D01*
X150749000Y-86791800D01*
X150495000Y-86791800D01*
X150475000Y-86791800D01*
X150475000Y-86537800D01*
X150495000Y-86537800D01*
X150495000Y-85563550D01*
X150749000Y-85563550D01*
X150749000Y-86537800D01*
X151598250Y-86537800D01*
X151757000Y-86379050D01*
X151757000Y-85913490D01*
X151660327Y-85680101D01*
X151481698Y-85501473D01*
X151248309Y-85404800D01*
X150907750Y-85404800D01*
X150749000Y-85563550D01*
X150495000Y-85563550D01*
X150336250Y-85404800D01*
X149995691Y-85404800D01*
X149762302Y-85501473D01*
X149620654Y-85643120D01*
X149579809Y-85581991D01*
X149369765Y-85441643D01*
X149122000Y-85392360D01*
X148122000Y-85392360D01*
X147874235Y-85441643D01*
X147664191Y-85581991D01*
X147523843Y-85792035D01*
X147501413Y-85904800D01*
X146466907Y-85904800D01*
X146493205Y-85841310D01*
X146493205Y-85375750D01*
X146334455Y-85217000D01*
X145485205Y-85217000D01*
X145485205Y-85237000D01*
X145231205Y-85237000D01*
X145231205Y-85217000D01*
X145211205Y-85217000D01*
X145211205Y-84963000D01*
X145231205Y-84963000D01*
X145231205Y-83988750D01*
X145485205Y-83988750D01*
X145485205Y-84963000D01*
X146334455Y-84963000D01*
X146493205Y-84804250D01*
X146493205Y-84338690D01*
X146396532Y-84105301D01*
X146217903Y-83926673D01*
X146146335Y-83897028D01*
X146221903Y-83865727D01*
X146400532Y-83687099D01*
X146497205Y-83453710D01*
X146497205Y-82988150D01*
X146338455Y-82829400D01*
X145489205Y-82829400D01*
X145489205Y-83803650D01*
X145579755Y-83894200D01*
X145485205Y-83988750D01*
X145231205Y-83988750D01*
X145140655Y-83898200D01*
X145235205Y-83803650D01*
X145235205Y-82829400D01*
X145215205Y-82829400D01*
X145215205Y-82575400D01*
X145235205Y-82575400D01*
X145235205Y-81601150D01*
X145489205Y-81601150D01*
X145489205Y-82575400D01*
X146338455Y-82575400D01*
X146497205Y-82416650D01*
X146497205Y-81951090D01*
X146400532Y-81717701D01*
X146221903Y-81539073D01*
X145988514Y-81442400D01*
X145647955Y-81442400D01*
X145489205Y-81601150D01*
X145235205Y-81601150D01*
X145076455Y-81442400D01*
X144735896Y-81442400D01*
X144502507Y-81539073D01*
X144360859Y-81680720D01*
X144320014Y-81619591D01*
X144109970Y-81479243D01*
X143862205Y-81429960D01*
X142862205Y-81429960D01*
X142614440Y-81479243D01*
X142404396Y-81619591D01*
X142264048Y-81829635D01*
X142241618Y-81942400D01*
X138935826Y-81942400D01*
X139029692Y-81470500D01*
X138977906Y-81210150D01*
X148324200Y-81210150D01*
X148324200Y-81900710D01*
X148420873Y-82134099D01*
X148599502Y-82312727D01*
X148832891Y-82409400D01*
X149523450Y-82409400D01*
X149682200Y-82250650D01*
X149682200Y-81051400D01*
X149936200Y-81051400D01*
X149936200Y-82250650D01*
X150094950Y-82409400D01*
X150785509Y-82409400D01*
X151018898Y-82312727D01*
X151197527Y-82134099D01*
X151294200Y-81900710D01*
X151294200Y-81464150D01*
X151749600Y-81464150D01*
X151749600Y-81804709D01*
X151846273Y-82038098D01*
X152024901Y-82216727D01*
X152258290Y-82313400D01*
X152723850Y-82313400D01*
X152882600Y-82154650D01*
X152882600Y-81305400D01*
X153136600Y-81305400D01*
X153136600Y-82154650D01*
X153295350Y-82313400D01*
X153760910Y-82313400D01*
X153994299Y-82216727D01*
X154172927Y-82038098D01*
X154269600Y-81804709D01*
X154269600Y-81464150D01*
X154110850Y-81305400D01*
X153136600Y-81305400D01*
X152882600Y-81305400D01*
X151908350Y-81305400D01*
X151749600Y-81464150D01*
X151294200Y-81464150D01*
X151294200Y-81210150D01*
X151135450Y-81051400D01*
X149936200Y-81051400D01*
X149682200Y-81051400D01*
X148482950Y-81051400D01*
X148324200Y-81210150D01*
X138977906Y-81210150D01*
X138914439Y-80891082D01*
X138586225Y-80399875D01*
X138267122Y-80186657D01*
X138396958Y-80125683D01*
X138787245Y-79697424D01*
X138957076Y-79287390D01*
X138835755Y-79057500D01*
X137642600Y-79057500D01*
X137642600Y-79077500D01*
X137388600Y-79077500D01*
X137388600Y-79057500D01*
X136195445Y-79057500D01*
X136074124Y-79287390D01*
X136243955Y-79697424D01*
X136634242Y-80125683D01*
X136764078Y-80186657D01*
X136444975Y-80399875D01*
X136116761Y-80891082D01*
X136001508Y-81470500D01*
X136116761Y-82049918D01*
X136444975Y-82541125D01*
X136743361Y-82740500D01*
X136444975Y-82939875D01*
X136116761Y-83431082D01*
X136001508Y-84010500D01*
X136116761Y-84589918D01*
X136444975Y-85081125D01*
X136936182Y-85409339D01*
X137369344Y-85495500D01*
X137661856Y-85495500D01*
X138095018Y-85409339D01*
X138586225Y-85081125D01*
X138914439Y-84589918D01*
X139029692Y-84010500D01*
X138956809Y-83644092D01*
X139138502Y-83462400D01*
X142241618Y-83462400D01*
X142264048Y-83575165D01*
X142404396Y-83785209D01*
X142568504Y-83894864D01*
X142400396Y-84007191D01*
X142260048Y-84217235D01*
X142210765Y-84465000D01*
X142210765Y-85715000D01*
X142248518Y-85904800D01*
X132072511Y-85904800D01*
X131955080Y-85787369D01*
X131574674Y-85629800D01*
X131162926Y-85629800D01*
X130847139Y-85760603D01*
X130845199Y-85750851D01*
X130845199Y-85750847D01*
X130801103Y-85529162D01*
X130676342Y-85342445D01*
X130749292Y-84975700D01*
X130634039Y-84396282D01*
X130305825Y-83905075D01*
X130007439Y-83705700D01*
X130305825Y-83506325D01*
X130504892Y-83208400D01*
X134271889Y-83208400D01*
X134389320Y-83325831D01*
X134769726Y-83483400D01*
X135181474Y-83483400D01*
X135561880Y-83325831D01*
X135853031Y-83034680D01*
X136010600Y-82654274D01*
X136010600Y-82242526D01*
X135853031Y-81862120D01*
X135561880Y-81570969D01*
X135181474Y-81413400D01*
X134769726Y-81413400D01*
X134389320Y-81570969D01*
X134271889Y-81688400D01*
X130521864Y-81688400D01*
X130305825Y-81365075D01*
X130007439Y-81165700D01*
X130305825Y-80966325D01*
X130634039Y-80475118D01*
X130636012Y-80465200D01*
X134119489Y-80465200D01*
X134236920Y-80582631D01*
X134617326Y-80740200D01*
X135029074Y-80740200D01*
X135409480Y-80582631D01*
X135700631Y-80291480D01*
X135858200Y-79911074D01*
X135858200Y-79499326D01*
X135700631Y-79118920D01*
X135409480Y-78827769D01*
X135029074Y-78670200D01*
X134617326Y-78670200D01*
X134236920Y-78827769D01*
X134119489Y-78945200D01*
X130386090Y-78945200D01*
X130305825Y-78825075D01*
X130007439Y-78625700D01*
X130305825Y-78426325D01*
X130634039Y-77935118D01*
X130646117Y-77874400D01*
X132493889Y-77874400D01*
X132611320Y-77991831D01*
X132991726Y-78149400D01*
X133403474Y-78149400D01*
X133783880Y-77991831D01*
X134075031Y-77700680D01*
X134232600Y-77320274D01*
X134232600Y-77163200D01*
X136245908Y-77163200D01*
X136444975Y-77461125D01*
X136764078Y-77674343D01*
X136634242Y-77735317D01*
X136243955Y-78163576D01*
X136074124Y-78573610D01*
X136195445Y-78803500D01*
X137388600Y-78803500D01*
X137388600Y-78783500D01*
X137642600Y-78783500D01*
X137642600Y-78803500D01*
X138835755Y-78803500D01*
X138957076Y-78573610D01*
X138787245Y-78163576D01*
X138396958Y-77735317D01*
X138267122Y-77674343D01*
X138586225Y-77461125D01*
X138914439Y-76969918D01*
X139029692Y-76390500D01*
X138914439Y-75811082D01*
X138897346Y-75785501D01*
X145730702Y-75785501D01*
X146274073Y-76328873D01*
X146316473Y-76392329D01*
X146567865Y-76560304D01*
X146789550Y-76604400D01*
X146789554Y-76604400D01*
X146864401Y-76619288D01*
X146939248Y-76604400D01*
X148531022Y-76604400D01*
X148738575Y-76915025D01*
X149036961Y-77114400D01*
X148738575Y-77313775D01*
X148410361Y-77804982D01*
X148295108Y-78384400D01*
X148410361Y-78963818D01*
X148738575Y-79455025D01*
X148760233Y-79469496D01*
X148599502Y-79536073D01*
X148420873Y-79714701D01*
X148324200Y-79948090D01*
X148324200Y-80638650D01*
X148482950Y-80797400D01*
X149682200Y-80797400D01*
X149682200Y-80777400D01*
X149936200Y-80777400D01*
X149936200Y-80797400D01*
X151135450Y-80797400D01*
X151294200Y-80638650D01*
X151294200Y-79948090D01*
X151292034Y-79942860D01*
X151314457Y-79938400D01*
X151794618Y-79938400D01*
X151926791Y-80136209D01*
X151987920Y-80177054D01*
X151846273Y-80318702D01*
X151749600Y-80552091D01*
X151749600Y-80892650D01*
X151908350Y-81051400D01*
X152882600Y-81051400D01*
X152882600Y-81031400D01*
X153136600Y-81031400D01*
X153136600Y-81051400D01*
X154110850Y-81051400D01*
X154269600Y-80892650D01*
X154269600Y-80552091D01*
X154172927Y-80318702D01*
X154031280Y-80177054D01*
X154092409Y-80136209D01*
X154144132Y-80058800D01*
X164650289Y-80058800D01*
X164767720Y-80176231D01*
X165148126Y-80333800D01*
X165559874Y-80333800D01*
X165940280Y-80176231D01*
X166231431Y-79885080D01*
X166389000Y-79504674D01*
X166389000Y-79092926D01*
X166231431Y-78712520D01*
X165940280Y-78421369D01*
X165559874Y-78263800D01*
X165148126Y-78263800D01*
X164767720Y-78421369D01*
X164650289Y-78538800D01*
X154254272Y-78538800D01*
X154232757Y-78430635D01*
X154092409Y-78220591D01*
X153882365Y-78080243D01*
X153634600Y-78030960D01*
X152384600Y-78030960D01*
X152136835Y-78080243D01*
X151926791Y-78220591D01*
X151794618Y-78418400D01*
X151554412Y-78418400D01*
X151274347Y-78138335D01*
X151208039Y-77804982D01*
X150879825Y-77313775D01*
X150581439Y-77114400D01*
X150879825Y-76915025D01*
X151208039Y-76423818D01*
X151323292Y-75844400D01*
X151208039Y-75264982D01*
X150879825Y-74773775D01*
X150581439Y-74574400D01*
X150879825Y-74375025D01*
X151208039Y-73883818D01*
X151323292Y-73304400D01*
X151208039Y-72724982D01*
X150879825Y-72233775D01*
X150581439Y-72034400D01*
X150879825Y-71835025D01*
X151208039Y-71343818D01*
X151323292Y-70764400D01*
X151208039Y-70184982D01*
X150879825Y-69693775D01*
X150388618Y-69365561D01*
X149955456Y-69279400D01*
X149662944Y-69279400D01*
X149229782Y-69365561D01*
X148738575Y-69693775D01*
X148410361Y-70184982D01*
X148295108Y-70764400D01*
X148410361Y-71343818D01*
X148738575Y-71835025D01*
X149036961Y-72034400D01*
X148738575Y-72233775D01*
X148687594Y-72310073D01*
X147280851Y-70903331D01*
X147238449Y-70839872D01*
X146987057Y-70671897D01*
X146765372Y-70627801D01*
X146765367Y-70627801D01*
X146690520Y-70612913D01*
X146615673Y-70627801D01*
X138550600Y-70627801D01*
X138550600Y-70456926D01*
X138393031Y-70076520D01*
X138051080Y-69734569D01*
X137670674Y-69577000D01*
X137258926Y-69577000D01*
X136878520Y-69734569D01*
X136761089Y-69852000D01*
X132165304Y-69852000D01*
X130415495Y-68102192D01*
X130634039Y-67775118D01*
X130727088Y-67307326D01*
X130943400Y-67307326D01*
X130943400Y-67719074D01*
X131100969Y-68099480D01*
X131392120Y-68390631D01*
X131772526Y-68548200D01*
X132184274Y-68548200D01*
X132564680Y-68390631D01*
X132682111Y-68273200D01*
X137142855Y-68273200D01*
X137170871Y-68315129D01*
X137422263Y-68483104D01*
X137643948Y-68527200D01*
X137643952Y-68527200D01*
X137718799Y-68542088D01*
X137793646Y-68527200D01*
X145149653Y-68527200D01*
X145224500Y-68542088D01*
X145299347Y-68527200D01*
X145299352Y-68527200D01*
X145363199Y-68514500D01*
X153385389Y-68514500D01*
X153490120Y-68619231D01*
X153870526Y-68776800D01*
X154282274Y-68776800D01*
X154662680Y-68619231D01*
X154953831Y-68328080D01*
X155111400Y-67947674D01*
X155111400Y-67535926D01*
X154953831Y-67155520D01*
X154662680Y-66864369D01*
X154282274Y-66706800D01*
X153870526Y-66706800D01*
X153490120Y-66864369D01*
X153359989Y-66994500D01*
X145312048Y-66994500D01*
X145237200Y-66979612D01*
X145162352Y-66994500D01*
X145162348Y-66994500D01*
X145098501Y-67007200D01*
X138040745Y-67007200D01*
X138012729Y-66965271D01*
X137761337Y-66797296D01*
X137539652Y-66753200D01*
X137539647Y-66753200D01*
X137464800Y-66738312D01*
X137389953Y-66753200D01*
X132682111Y-66753200D01*
X132564680Y-66635769D01*
X132184274Y-66478200D01*
X131772526Y-66478200D01*
X131392120Y-66635769D01*
X131100969Y-66926920D01*
X130943400Y-67307326D01*
X130727088Y-67307326D01*
X130749292Y-67195700D01*
X130634039Y-66616282D01*
X130305825Y-66125075D01*
X130007439Y-65925700D01*
X130305825Y-65726325D01*
X130634039Y-65235118D01*
X130749292Y-64655700D01*
X130634039Y-64076282D01*
X130305825Y-63585075D01*
X130007439Y-63385700D01*
X130305825Y-63186325D01*
X130589406Y-62761917D01*
X130614120Y-62786631D01*
X130994526Y-62944200D01*
X131406274Y-62944200D01*
X131786680Y-62786631D01*
X131904111Y-62669200D01*
X132744618Y-62669200D01*
X132876791Y-62867009D01*
X133086835Y-63007357D01*
X133334600Y-63056640D01*
X134584600Y-63056640D01*
X134832365Y-63007357D01*
X135042409Y-62867009D01*
X135174582Y-62669200D01*
X136373760Y-62669200D01*
X136373760Y-62826000D01*
X136423043Y-63073765D01*
X136563391Y-63283809D01*
X136773435Y-63424157D01*
X137021200Y-63473440D01*
X138721200Y-63473440D01*
X138968965Y-63424157D01*
X139179009Y-63283809D01*
X139319357Y-63073765D01*
X139368640Y-62826000D01*
X139368640Y-62618400D01*
X140059818Y-62618400D01*
X140191991Y-62816209D01*
X140402035Y-62956557D01*
X140649800Y-63005840D01*
X141899800Y-63005840D01*
X142147565Y-62956557D01*
X142357609Y-62816209D01*
X142497957Y-62606165D01*
X142500417Y-62593800D01*
X144097446Y-62593800D01*
X144129391Y-62641609D01*
X144339435Y-62781957D01*
X144587200Y-62831240D01*
X145165256Y-62831240D01*
X145336863Y-62945904D01*
X145558548Y-62990000D01*
X145558552Y-62990000D01*
X145633399Y-63004888D01*
X145708246Y-62990000D01*
X164650289Y-62990000D01*
X164767720Y-63107431D01*
X165148126Y-63265000D01*
X165559874Y-63265000D01*
X165940280Y-63107431D01*
X166231431Y-62816280D01*
X166389000Y-62435874D01*
X166389000Y-62024126D01*
X166231431Y-61643720D01*
X165940280Y-61352569D01*
X165559874Y-61195000D01*
X165148126Y-61195000D01*
X164767720Y-61352569D01*
X164650289Y-61470000D01*
X146531895Y-61470000D01*
X146485357Y-61236035D01*
X146345009Y-61025991D01*
X146176089Y-60913121D01*
X166733000Y-60913121D01*
X166733001Y-63054880D01*
X166833667Y-63560963D01*
X167217136Y-64134865D01*
X167791038Y-64518334D01*
X168468000Y-64652990D01*
X169144963Y-64518334D01*
X169718865Y-64134865D01*
X170102334Y-63560963D01*
X170203000Y-63054880D01*
X170203000Y-62484000D01*
X173099010Y-62484000D01*
X173233666Y-63160963D01*
X173617135Y-63734865D01*
X174191037Y-64118334D01*
X174697120Y-64219000D01*
X176838880Y-64219000D01*
X177344963Y-64118334D01*
X177918865Y-63734865D01*
X178302334Y-63160963D01*
X178436990Y-62484000D01*
X178302334Y-61807037D01*
X177918865Y-61233135D01*
X177344963Y-60849666D01*
X176838880Y-60749000D01*
X174697120Y-60749000D01*
X174191037Y-60849666D01*
X173617135Y-61233135D01*
X173233666Y-61807037D01*
X173099010Y-62484000D01*
X170203000Y-62484000D01*
X170203000Y-60913120D01*
X170102334Y-60407037D01*
X169718865Y-59833135D01*
X169144962Y-59449666D01*
X168468000Y-59315010D01*
X167791037Y-59449666D01*
X167217135Y-59833135D01*
X166833666Y-60407038D01*
X166733000Y-60913121D01*
X146176089Y-60913121D01*
X146134965Y-60885643D01*
X146125700Y-60883800D01*
X146134965Y-60881957D01*
X146345009Y-60741609D01*
X146485357Y-60531565D01*
X146534640Y-60283800D01*
X146534640Y-59583800D01*
X146485357Y-59336035D01*
X146345009Y-59125991D01*
X146183416Y-59018017D01*
X146272200Y-58803674D01*
X146272200Y-58391926D01*
X146114631Y-58011520D01*
X145823480Y-57720369D01*
X145443074Y-57562800D01*
X145031326Y-57562800D01*
X144650920Y-57720369D01*
X144359769Y-58011520D01*
X144202200Y-58391926D01*
X144202200Y-58803674D01*
X144290984Y-59018017D01*
X144129391Y-59125991D01*
X143989043Y-59336035D01*
X143939760Y-59583800D01*
X143939760Y-60283800D01*
X143989043Y-60531565D01*
X144129391Y-60741609D01*
X144339435Y-60881957D01*
X144348700Y-60883800D01*
X144339435Y-60885643D01*
X144129391Y-61025991D01*
X144097446Y-61073800D01*
X142473344Y-61073800D01*
X142357609Y-60900591D01*
X142296480Y-60859746D01*
X142438127Y-60718098D01*
X142534800Y-60484709D01*
X142534800Y-60144150D01*
X142376050Y-59985400D01*
X141401800Y-59985400D01*
X141401800Y-60005400D01*
X141147800Y-60005400D01*
X141147800Y-59985400D01*
X140173550Y-59985400D01*
X140014800Y-60144150D01*
X140014800Y-60484709D01*
X140111473Y-60718098D01*
X140253120Y-60859746D01*
X140191991Y-60900591D01*
X140059818Y-61098400D01*
X139363150Y-61098400D01*
X139319357Y-60878235D01*
X139179009Y-60668191D01*
X138968965Y-60527843D01*
X138865492Y-60507261D01*
X139142845Y-60202924D01*
X139312676Y-59792890D01*
X139191355Y-59563000D01*
X137998200Y-59563000D01*
X137998200Y-59583000D01*
X137744200Y-59583000D01*
X137744200Y-59563000D01*
X136551045Y-59563000D01*
X136429724Y-59792890D01*
X136599555Y-60202924D01*
X136876908Y-60507261D01*
X136773435Y-60527843D01*
X136563391Y-60668191D01*
X136423043Y-60878235D01*
X136373760Y-61126000D01*
X136373760Y-61149200D01*
X135174582Y-61149200D01*
X135042409Y-60951391D01*
X134981280Y-60910546D01*
X135122927Y-60768898D01*
X135219600Y-60535509D01*
X135219600Y-60194950D01*
X135060850Y-60036200D01*
X134086600Y-60036200D01*
X134086600Y-60056200D01*
X133832600Y-60056200D01*
X133832600Y-60036200D01*
X132858350Y-60036200D01*
X132699600Y-60194950D01*
X132699600Y-60535509D01*
X132796273Y-60768898D01*
X132937920Y-60910546D01*
X132876791Y-60951391D01*
X132744618Y-61149200D01*
X131904111Y-61149200D01*
X131786680Y-61031769D01*
X131406274Y-60874200D01*
X130994526Y-60874200D01*
X130614120Y-61031769D01*
X130423981Y-61221908D01*
X130305825Y-61045075D01*
X130007439Y-60845700D01*
X130305825Y-60646325D01*
X130634039Y-60155118D01*
X130749292Y-59575700D01*
X130691049Y-59282891D01*
X132699600Y-59282891D01*
X132699600Y-59623450D01*
X132858350Y-59782200D01*
X133832600Y-59782200D01*
X133832600Y-58932950D01*
X134086600Y-58932950D01*
X134086600Y-59782200D01*
X135060850Y-59782200D01*
X135219600Y-59623450D01*
X135219600Y-59282891D01*
X135122927Y-59049502D01*
X134944299Y-58870873D01*
X134710910Y-58774200D01*
X134245350Y-58774200D01*
X134086600Y-58932950D01*
X133832600Y-58932950D01*
X133673850Y-58774200D01*
X133208290Y-58774200D01*
X132974901Y-58870873D01*
X132796273Y-59049502D01*
X132699600Y-59282891D01*
X130691049Y-59282891D01*
X130634039Y-58996282D01*
X130305825Y-58505075D01*
X130007439Y-58305700D01*
X130305825Y-58106325D01*
X130634039Y-57615118D01*
X130749292Y-57035700D01*
X130634039Y-56456282D01*
X130305825Y-55965075D01*
X130007439Y-55765700D01*
X130305825Y-55566325D01*
X130634039Y-55075118D01*
X130749292Y-54495700D01*
X130634039Y-53916282D01*
X130305825Y-53425075D01*
X130287581Y-53412884D01*
X130332965Y-53403857D01*
X130543009Y-53263509D01*
X130553102Y-53248404D01*
X130943400Y-53638702D01*
X130943400Y-53850674D01*
X131100969Y-54231080D01*
X131392120Y-54522231D01*
X131772526Y-54679800D01*
X132184274Y-54679800D01*
X132564680Y-54522231D01*
X132855831Y-54231080D01*
X133013400Y-53850674D01*
X133013400Y-53438926D01*
X132855831Y-53058520D01*
X132564680Y-52767369D01*
X132184274Y-52609800D01*
X132064102Y-52609800D01*
X130925531Y-51471230D01*
X130883129Y-51407771D01*
X130732640Y-51307217D01*
X130732640Y-51105700D01*
X130683357Y-50857935D01*
X130543009Y-50647891D01*
X130332965Y-50507543D01*
X130085200Y-50458260D01*
X128385200Y-50458260D01*
X128137435Y-50507543D01*
X127927391Y-50647891D01*
X127787043Y-50857935D01*
X127778016Y-50903319D01*
X127765825Y-50885075D01*
X127274618Y-50556861D01*
X126841456Y-50470700D01*
X126548944Y-50470700D01*
X126115782Y-50556861D01*
X125624575Y-50885075D01*
X125296361Y-51376282D01*
X125181108Y-51955700D01*
X125296361Y-52535118D01*
X125624575Y-53026325D01*
X125922961Y-53225700D01*
X125624575Y-53425075D01*
X125442480Y-53697600D01*
X122014111Y-53697600D01*
X121896680Y-53580169D01*
X121516274Y-53422600D01*
X121104526Y-53422600D01*
X120724120Y-53580169D01*
X120432969Y-53871320D01*
X120275400Y-54251726D01*
X120275400Y-54663474D01*
X120432969Y-55043880D01*
X120724120Y-55335031D01*
X121104526Y-55492600D01*
X121516274Y-55492600D01*
X121896680Y-55335031D01*
X122014111Y-55217600D01*
X125391564Y-55217600D01*
X125624575Y-55566325D01*
X125922961Y-55765700D01*
X125624575Y-55965075D01*
X125510367Y-56136000D01*
X122826911Y-56136000D01*
X122709480Y-56018569D01*
X122329074Y-55861000D01*
X121917326Y-55861000D01*
X121536920Y-56018569D01*
X121245769Y-56309720D01*
X121088200Y-56690126D01*
X121088200Y-57101874D01*
X121245769Y-57482280D01*
X121536920Y-57773431D01*
X121917326Y-57931000D01*
X122329074Y-57931000D01*
X122709480Y-57773431D01*
X122826911Y-57656000D01*
X125323677Y-57656000D01*
X125624575Y-58106325D01*
X125922961Y-58305700D01*
X125624575Y-58505075D01*
X125442480Y-58777600D01*
X122115711Y-58777600D01*
X121998280Y-58660169D01*
X121617874Y-58502600D01*
X121206126Y-58502600D01*
X120825720Y-58660169D01*
X120534569Y-58951320D01*
X120377000Y-59331726D01*
X120377000Y-59743474D01*
X120534569Y-60123880D01*
X120825720Y-60415031D01*
X121206126Y-60572600D01*
X121617874Y-60572600D01*
X121998280Y-60415031D01*
X122115711Y-60297600D01*
X125391564Y-60297600D01*
X125624575Y-60646325D01*
X125922961Y-60845700D01*
X125624575Y-61045075D01*
X125476423Y-61266800D01*
X122268111Y-61266800D01*
X122150680Y-61149369D01*
X121770274Y-60991800D01*
X121358526Y-60991800D01*
X120978120Y-61149369D01*
X120686969Y-61440520D01*
X120529400Y-61820926D01*
X120529400Y-62232674D01*
X120686969Y-62613080D01*
X120978120Y-62904231D01*
X121358526Y-63061800D01*
X121770274Y-63061800D01*
X122150680Y-62904231D01*
X122268111Y-62786800D01*
X125357621Y-62786800D01*
X125624575Y-63186325D01*
X125922961Y-63385700D01*
X125624575Y-63585075D01*
X125476423Y-63806800D01*
X122217311Y-63806800D01*
X122099880Y-63689369D01*
X121719474Y-63531800D01*
X121307726Y-63531800D01*
X120927320Y-63689369D01*
X120636169Y-63980520D01*
X120478600Y-64360926D01*
X120478600Y-64772674D01*
X120636169Y-65153080D01*
X120927320Y-65444231D01*
X121307726Y-65601800D01*
X121719474Y-65601800D01*
X122099880Y-65444231D01*
X122217311Y-65326800D01*
X125357621Y-65326800D01*
X125624575Y-65726325D01*
X125922961Y-65925700D01*
X125624575Y-66125075D01*
X125476423Y-66346800D01*
X122318911Y-66346800D01*
X122201480Y-66229369D01*
X121821074Y-66071800D01*
X121409326Y-66071800D01*
X121028920Y-66229369D01*
X120737769Y-66520520D01*
X120580200Y-66900926D01*
X120580200Y-67312674D01*
X120737769Y-67693080D01*
X120845388Y-67800699D01*
X111904911Y-67800699D01*
X111787480Y-67683268D01*
X111407074Y-67525699D01*
X110995326Y-67525699D01*
X110614920Y-67683268D01*
X110323769Y-67974419D01*
X110166200Y-68354825D01*
X107650195Y-68354825D01*
X107634841Y-51105700D01*
X109906960Y-51105700D01*
X109906960Y-52805700D01*
X109956243Y-53053465D01*
X110096591Y-53263509D01*
X110306635Y-53403857D01*
X110554400Y-53453140D01*
X112254400Y-53453140D01*
X112502165Y-53403857D01*
X112712209Y-53263509D01*
X112852557Y-53053465D01*
X112861584Y-53008081D01*
X112873775Y-53026325D01*
X113364982Y-53354539D01*
X113798144Y-53440700D01*
X114090656Y-53440700D01*
X114523818Y-53354539D01*
X115015025Y-53026325D01*
X115214400Y-52727939D01*
X115413775Y-53026325D01*
X115904982Y-53354539D01*
X116338144Y-53440700D01*
X116630656Y-53440700D01*
X117063818Y-53354539D01*
X117555025Y-53026325D01*
X117754400Y-52727939D01*
X117953775Y-53026325D01*
X118444982Y-53354539D01*
X118878144Y-53440700D01*
X119170656Y-53440700D01*
X119603818Y-53354539D01*
X120095025Y-53026325D01*
X120423239Y-52535118D01*
X120538492Y-51955700D01*
X120423239Y-51376282D01*
X120095025Y-50885075D01*
X119603818Y-50556861D01*
X119170656Y-50470700D01*
X118878144Y-50470700D01*
X118444982Y-50556861D01*
X117953775Y-50885075D01*
X117754400Y-51183461D01*
X117555025Y-50885075D01*
X117063818Y-50556861D01*
X116630656Y-50470700D01*
X116338144Y-50470700D01*
X115904982Y-50556861D01*
X115413775Y-50885075D01*
X115214400Y-51183461D01*
X115015025Y-50885075D01*
X114523818Y-50556861D01*
X114090656Y-50470700D01*
X113798144Y-50470700D01*
X113364982Y-50556861D01*
X112873775Y-50885075D01*
X112861584Y-50903319D01*
X112852557Y-50857935D01*
X112712209Y-50647891D01*
X112502165Y-50507543D01*
X112254400Y-50458260D01*
X110554400Y-50458260D01*
X110306635Y-50507543D01*
X110096591Y-50647891D01*
X109956243Y-50857935D01*
X109906960Y-51105700D01*
X107634841Y-51105700D01*
X107631854Y-47749326D01*
X111233000Y-47749326D01*
X111233000Y-48161074D01*
X111390569Y-48541480D01*
X111681720Y-48832631D01*
X112062126Y-48990200D01*
X112473874Y-48990200D01*
X112854280Y-48832631D01*
X112971711Y-48715200D01*
X115910289Y-48715200D01*
X116011191Y-48866209D01*
X116221235Y-49006557D01*
X116469000Y-49055840D01*
X117719000Y-49055840D01*
X117966765Y-49006557D01*
X118176809Y-48866209D01*
X118317157Y-48656165D01*
X118325624Y-48613600D01*
X130461889Y-48613600D01*
X130579320Y-48731031D01*
X130959726Y-48888600D01*
X131371474Y-48888600D01*
X131751880Y-48731031D01*
X132043031Y-48439880D01*
X132200600Y-48059474D01*
X132200600Y-47647726D01*
X132043031Y-47267320D01*
X131751880Y-46976169D01*
X131371474Y-46818600D01*
X130959726Y-46818600D01*
X130579320Y-46976169D01*
X130461889Y-47093600D01*
X118272365Y-47093600D01*
X118176809Y-46950591D01*
X118115680Y-46909746D01*
X118257327Y-46768098D01*
X118354000Y-46534709D01*
X118354000Y-46194150D01*
X118195250Y-46035400D01*
X117221000Y-46035400D01*
X117221000Y-46055400D01*
X116967000Y-46055400D01*
X116967000Y-46035400D01*
X115992750Y-46035400D01*
X115834000Y-46194150D01*
X115834000Y-46534709D01*
X115930673Y-46768098D01*
X116072320Y-46909746D01*
X116011191Y-46950591D01*
X115870843Y-47160635D01*
X115863968Y-47195200D01*
X112971711Y-47195200D01*
X112854280Y-47077769D01*
X112473874Y-46920200D01*
X112062126Y-46920200D01*
X111681720Y-47077769D01*
X111390569Y-47368920D01*
X111233000Y-47749326D01*
X107631854Y-47749326D01*
X107629659Y-45282091D01*
X115834000Y-45282091D01*
X115834000Y-45622650D01*
X115992750Y-45781400D01*
X116967000Y-45781400D01*
X116967000Y-44932150D01*
X117221000Y-44932150D01*
X117221000Y-45781400D01*
X118195250Y-45781400D01*
X118354000Y-45622650D01*
X118354000Y-45282091D01*
X118257327Y-45048702D01*
X118078699Y-44870073D01*
X117845310Y-44773400D01*
X117379750Y-44773400D01*
X117221000Y-44932150D01*
X116967000Y-44932150D01*
X116808250Y-44773400D01*
X116342690Y-44773400D01*
X116109301Y-44870073D01*
X115930673Y-45048702D01*
X115834000Y-45282091D01*
X107629659Y-45282091D01*
X107627785Y-43177326D01*
X113569800Y-43177326D01*
X113569800Y-43589074D01*
X113727369Y-43969480D01*
X114018520Y-44260631D01*
X114398926Y-44418200D01*
X114810674Y-44418200D01*
X115191080Y-44260631D01*
X115308511Y-44143200D01*
X124746955Y-44143200D01*
X124821802Y-44158088D01*
X124896649Y-44143200D01*
X124896654Y-44143200D01*
X125118339Y-44099104D01*
X125369731Y-43931129D01*
X125412133Y-43867670D01*
X125498804Y-43780999D01*
X136439657Y-43780999D01*
X136357108Y-44196000D01*
X136472361Y-44775418D01*
X136800575Y-45266625D01*
X137098961Y-45466000D01*
X136800575Y-45665375D01*
X136615573Y-45942250D01*
X136611560Y-45943049D01*
X136527080Y-45858569D01*
X136146674Y-45701000D01*
X135734926Y-45701000D01*
X135354520Y-45858569D01*
X135063369Y-46149720D01*
X134905800Y-46530126D01*
X134905800Y-46941874D01*
X135063369Y-47322280D01*
X135354520Y-47613431D01*
X135734926Y-47771000D01*
X136146674Y-47771000D01*
X136527080Y-47613431D01*
X136613646Y-47526865D01*
X136800575Y-47806625D01*
X137098961Y-48006000D01*
X136800575Y-48205375D01*
X136615573Y-48482250D01*
X136540898Y-48497104D01*
X136540893Y-48497104D01*
X136445897Y-48516000D01*
X135526911Y-48516000D01*
X135409480Y-48398569D01*
X135029074Y-48241000D01*
X134617326Y-48241000D01*
X134236920Y-48398569D01*
X133945769Y-48689720D01*
X133788200Y-49070126D01*
X133788200Y-49481874D01*
X133945769Y-49862280D01*
X134236920Y-50153431D01*
X134617326Y-50311000D01*
X135029074Y-50311000D01*
X135409480Y-50153431D01*
X135526911Y-50036000D01*
X136522002Y-50036000D01*
X136596849Y-50050888D01*
X136602252Y-50049813D01*
X136800575Y-50346625D01*
X137098961Y-50546000D01*
X136800575Y-50745375D01*
X136615573Y-51022250D01*
X136540898Y-51037104D01*
X134385036Y-51037104D01*
X134224644Y-51005200D01*
X134224639Y-51005200D01*
X134149792Y-50990312D01*
X134074945Y-51005200D01*
X133850511Y-51005200D01*
X133733080Y-50887769D01*
X133352674Y-50730200D01*
X132940926Y-50730200D01*
X132560520Y-50887769D01*
X132269369Y-51178920D01*
X132111800Y-51559326D01*
X132111800Y-51971074D01*
X132269369Y-52351480D01*
X132560520Y-52642631D01*
X132940926Y-52800200D01*
X133352674Y-52800200D01*
X133733080Y-52642631D01*
X133850511Y-52525200D01*
X133946452Y-52525200D01*
X134106844Y-52557104D01*
X134106848Y-52557104D01*
X134181695Y-52571992D01*
X134256542Y-52557104D01*
X136427006Y-52557104D01*
X136596849Y-52590888D01*
X136602252Y-52589813D01*
X136800575Y-52886625D01*
X137098961Y-53086000D01*
X136800575Y-53285375D01*
X136593022Y-53596000D01*
X134764911Y-53596000D01*
X134596680Y-53427769D01*
X134216274Y-53270200D01*
X133804526Y-53270200D01*
X133424120Y-53427769D01*
X133132969Y-53718920D01*
X132975400Y-54099326D01*
X132975400Y-54511074D01*
X133132969Y-54891480D01*
X133424120Y-55182631D01*
X133804526Y-55340200D01*
X134216274Y-55340200D01*
X134596680Y-55182631D01*
X134663311Y-55116000D01*
X136593022Y-55116000D01*
X136800575Y-55426625D01*
X137098961Y-55626000D01*
X136800575Y-55825375D01*
X136472361Y-56316582D01*
X136357108Y-56896000D01*
X136472361Y-57475418D01*
X136800575Y-57966625D01*
X137119678Y-58179843D01*
X136989842Y-58240817D01*
X136599555Y-58669076D01*
X136429724Y-59079110D01*
X136551045Y-59309000D01*
X137744200Y-59309000D01*
X137744200Y-59289000D01*
X137998200Y-59289000D01*
X137998200Y-59309000D01*
X139191355Y-59309000D01*
X139231942Y-59232091D01*
X140014800Y-59232091D01*
X140014800Y-59572650D01*
X140173550Y-59731400D01*
X141147800Y-59731400D01*
X141147800Y-58882150D01*
X141401800Y-58882150D01*
X141401800Y-59731400D01*
X142376050Y-59731400D01*
X142534800Y-59572650D01*
X142534800Y-59232091D01*
X142438127Y-58998702D01*
X142259499Y-58820073D01*
X142026110Y-58723400D01*
X141560550Y-58723400D01*
X141401800Y-58882150D01*
X141147800Y-58882150D01*
X140989050Y-58723400D01*
X140523490Y-58723400D01*
X140290101Y-58820073D01*
X140111473Y-58998702D01*
X140014800Y-59232091D01*
X139231942Y-59232091D01*
X139312676Y-59079110D01*
X139142845Y-58669076D01*
X138752558Y-58240817D01*
X138622722Y-58179843D01*
X138941825Y-57966625D01*
X139270039Y-57475418D01*
X139385292Y-56896000D01*
X139270039Y-56316582D01*
X138941825Y-55825375D01*
X138643439Y-55626000D01*
X138941825Y-55426625D01*
X139270039Y-54935418D01*
X139385292Y-54356000D01*
X139270039Y-53776582D01*
X138941825Y-53285375D01*
X138643439Y-53086000D01*
X138941825Y-52886625D01*
X139270039Y-52395418D01*
X139385292Y-51816000D01*
X139270039Y-51236582D01*
X138941825Y-50745375D01*
X138643439Y-50546000D01*
X138941825Y-50346625D01*
X139270039Y-49855418D01*
X139385292Y-49276000D01*
X139270039Y-48696582D01*
X138941825Y-48205375D01*
X138643439Y-48006000D01*
X138941825Y-47806625D01*
X139270039Y-47315418D01*
X139385292Y-46736000D01*
X139270039Y-46156582D01*
X138941825Y-45665375D01*
X138643439Y-45466000D01*
X138941825Y-45266625D01*
X139270039Y-44775418D01*
X139385292Y-44196000D01*
X139327011Y-43903001D01*
X142741754Y-43903001D01*
X142816601Y-43917889D01*
X142891448Y-43903001D01*
X142891453Y-43903001D01*
X143113138Y-43858905D01*
X143364530Y-43690930D01*
X143406932Y-43627471D01*
X144344605Y-42689799D01*
X164281800Y-42689799D01*
X164281800Y-42881800D01*
X164261800Y-42881800D01*
X164261800Y-42901800D01*
X164007800Y-42901800D01*
X164007800Y-42881800D01*
X163033550Y-42881800D01*
X162874800Y-43040550D01*
X162874800Y-43381109D01*
X162971473Y-43614498D01*
X163113120Y-43756146D01*
X163051991Y-43796991D01*
X162919818Y-43994800D01*
X154729311Y-43994800D01*
X154662680Y-43928169D01*
X154282274Y-43770600D01*
X153870526Y-43770600D01*
X153490120Y-43928169D01*
X153198969Y-44219320D01*
X153041400Y-44599726D01*
X153041400Y-45011474D01*
X153198969Y-45391880D01*
X153490120Y-45683031D01*
X153870526Y-45840600D01*
X154282274Y-45840600D01*
X154662680Y-45683031D01*
X154830911Y-45514800D01*
X162919818Y-45514800D01*
X163051991Y-45712609D01*
X163262035Y-45852957D01*
X163509800Y-45902240D01*
X164759800Y-45902240D01*
X165007565Y-45852957D01*
X165217609Y-45712609D01*
X165350985Y-45512999D01*
X172807588Y-45512999D01*
X172928671Y-45593904D01*
X173150356Y-45638000D01*
X173150360Y-45638000D01*
X173225207Y-45652888D01*
X173300054Y-45638000D01*
X173313023Y-45638000D01*
X173349286Y-45725546D01*
X173730454Y-46106714D01*
X174228474Y-46313000D01*
X174767526Y-46313000D01*
X175265546Y-46106714D01*
X175646714Y-45725546D01*
X175853000Y-45227526D01*
X175853000Y-44688474D01*
X175646714Y-44190454D01*
X175265546Y-43809286D01*
X174767526Y-43603000D01*
X174228474Y-43603000D01*
X173730454Y-43809286D01*
X173460227Y-44079513D01*
X173396744Y-44037095D01*
X173175059Y-43992999D01*
X173175054Y-43992999D01*
X173100207Y-43978111D01*
X173025360Y-43992999D01*
X165348578Y-43992999D01*
X165217609Y-43796991D01*
X165156480Y-43756146D01*
X165298127Y-43614498D01*
X165394800Y-43381109D01*
X165394800Y-43138327D01*
X165468002Y-43152888D01*
X165542849Y-43138000D01*
X175743822Y-43138000D01*
X175880885Y-43165264D01*
X175889286Y-43185546D01*
X176270454Y-43566714D01*
X176768474Y-43773000D01*
X177307526Y-43773000D01*
X177805546Y-43566714D01*
X178186714Y-43185546D01*
X178393000Y-42687526D01*
X178393000Y-42148474D01*
X178186714Y-41650454D01*
X177805546Y-41269286D01*
X177307526Y-41063000D01*
X176768474Y-41063000D01*
X176270454Y-41269286D01*
X175925916Y-41613824D01*
X175904920Y-41618000D01*
X165782803Y-41618000D01*
X165610132Y-41445329D01*
X165567730Y-41381870D01*
X165316338Y-41213895D01*
X165094653Y-41169799D01*
X165094648Y-41169799D01*
X165019801Y-41154911D01*
X164944954Y-41169799D01*
X144104651Y-41169799D01*
X144029803Y-41154911D01*
X143954955Y-41169799D01*
X143954951Y-41169799D01*
X143781408Y-41204319D01*
X143733265Y-41213895D01*
X143546221Y-41338875D01*
X143481874Y-41381870D01*
X143439474Y-41445326D01*
X143199556Y-41685245D01*
X143054880Y-41540569D01*
X142674474Y-41383000D01*
X142262726Y-41383000D01*
X141882320Y-41540569D01*
X141764889Y-41658000D01*
X140848148Y-41658000D01*
X140963600Y-41379274D01*
X140963600Y-40967526D01*
X140905713Y-40827774D01*
X173727831Y-40827774D01*
X173792131Y-41065611D01*
X174300342Y-41245333D01*
X174838644Y-41216892D01*
X175203869Y-41065611D01*
X175268169Y-40827774D01*
X174498000Y-40057605D01*
X173727831Y-40827774D01*
X140905713Y-40827774D01*
X140806031Y-40587120D01*
X140514880Y-40295969D01*
X140134474Y-40138400D01*
X139722726Y-40138400D01*
X139342320Y-40295969D01*
X139275689Y-40362600D01*
X138308148Y-40362600D01*
X138423600Y-40083874D01*
X138423600Y-39680342D01*
X173130667Y-39680342D01*
X173159108Y-40218644D01*
X173310389Y-40583869D01*
X173548226Y-40648169D01*
X174318395Y-39878000D01*
X174677605Y-39878000D01*
X175447774Y-40648169D01*
X175685611Y-40583869D01*
X175865333Y-40075658D01*
X175836892Y-39537356D01*
X175685611Y-39172131D01*
X175447774Y-39107831D01*
X174677605Y-39878000D01*
X174318395Y-39878000D01*
X173548226Y-39107831D01*
X173310389Y-39172131D01*
X173130667Y-39680342D01*
X138423600Y-39680342D01*
X138423600Y-39672126D01*
X138266031Y-39291720D01*
X137974880Y-39000569D01*
X137800229Y-38928226D01*
X173727831Y-38928226D01*
X174498000Y-39698395D01*
X175268169Y-38928226D01*
X175203869Y-38690389D01*
X174695658Y-38510667D01*
X174157356Y-38539108D01*
X173792131Y-38690389D01*
X173727831Y-38928226D01*
X137800229Y-38928226D01*
X137594474Y-38843000D01*
X137182726Y-38843000D01*
X136802320Y-39000569D01*
X136684889Y-39118000D01*
X135711185Y-39118000D01*
X135858200Y-38763074D01*
X135858200Y-38351326D01*
X135700631Y-37970920D01*
X135409480Y-37679769D01*
X135045589Y-37529041D01*
X135472927Y-37444038D01*
X135980673Y-37104773D01*
X136144000Y-36860336D01*
X136307328Y-37104773D01*
X136815074Y-37444038D01*
X137414000Y-37563172D01*
X138012927Y-37444038D01*
X138520673Y-37104773D01*
X138684000Y-36860336D01*
X138847328Y-37104773D01*
X139355074Y-37444038D01*
X139954000Y-37563172D01*
X140552927Y-37444038D01*
X141060673Y-37104773D01*
X141224000Y-36860336D01*
X141387328Y-37104773D01*
X141895074Y-37444038D01*
X142494000Y-37563172D01*
X143092927Y-37444038D01*
X143600673Y-37104773D01*
X143764000Y-36860336D01*
X143927328Y-37104773D01*
X144435074Y-37444038D01*
X145034000Y-37563172D01*
X145632927Y-37444038D01*
X146140673Y-37104773D01*
X146315703Y-36842823D01*
X146578394Y-37173312D01*
X147103914Y-37464856D01*
X147209260Y-37489136D01*
X147447000Y-37368478D01*
X147447000Y-35725100D01*
X147701000Y-35725100D01*
X147701000Y-37368478D01*
X147938740Y-37489136D01*
X148044086Y-37464856D01*
X148569606Y-37173312D01*
X148943554Y-36702852D01*
X149109000Y-36125100D01*
X149109000Y-35725100D01*
X147701000Y-35725100D01*
X147447000Y-35725100D01*
X147427000Y-35725100D01*
X147427000Y-35471100D01*
X147447000Y-35471100D01*
X147447000Y-33827722D01*
X147701000Y-33827722D01*
X147701000Y-35471100D01*
X149109000Y-35471100D01*
X149109000Y-35071100D01*
X148943554Y-34493348D01*
X148569606Y-34022888D01*
X148044086Y-33731344D01*
X147938740Y-33707064D01*
X147701000Y-33827722D01*
X147447000Y-33827722D01*
X147209260Y-33707064D01*
X147103914Y-33731344D01*
X146578394Y-34022888D01*
X146315703Y-34353377D01*
X146140673Y-34091427D01*
X145632926Y-33752162D01*
X145034000Y-33633028D01*
X144435073Y-33752162D01*
X143927327Y-34091427D01*
X143764000Y-34335863D01*
X143600673Y-34091427D01*
X143092926Y-33752162D01*
X142494000Y-33633028D01*
X141895073Y-33752162D01*
X141387327Y-34091427D01*
X141224000Y-34335863D01*
X141060673Y-34091427D01*
X140552926Y-33752162D01*
X139954000Y-33633028D01*
X139355073Y-33752162D01*
X138847327Y-34091427D01*
X138684000Y-34335863D01*
X138520673Y-34091427D01*
X138012926Y-33752162D01*
X137414000Y-33633028D01*
X136815073Y-33752162D01*
X136307327Y-34091427D01*
X136144000Y-34335863D01*
X135980673Y-34091427D01*
X135472926Y-33752162D01*
X134874000Y-33633028D01*
X134275073Y-33752162D01*
X133767327Y-34091427D01*
X133604000Y-34335863D01*
X133440673Y-34091427D01*
X132932926Y-33752162D01*
X132334000Y-33633028D01*
X131735073Y-33752162D01*
X131227327Y-34091427D01*
X131064000Y-34335863D01*
X130900673Y-34091427D01*
X130392926Y-33752162D01*
X129794000Y-33633028D01*
X129195073Y-33752162D01*
X128687327Y-34091427D01*
X128524000Y-34335863D01*
X128360673Y-34091427D01*
X127852926Y-33752162D01*
X127254000Y-33633028D01*
X126655073Y-33752162D01*
X126147327Y-34091427D01*
X125984000Y-34335863D01*
X125820673Y-34091427D01*
X125312926Y-33752162D01*
X124714000Y-33633028D01*
X124115073Y-33752162D01*
X123607327Y-34091427D01*
X123444000Y-34335863D01*
X123280673Y-34091427D01*
X122772926Y-33752162D01*
X122174000Y-33633028D01*
X121575073Y-33752162D01*
X121067327Y-34091427D01*
X120892298Y-34353378D01*
X120629606Y-34022888D01*
X120104086Y-33731344D01*
X119998740Y-33707064D01*
X119761000Y-33827722D01*
X119761000Y-35471100D01*
X119781000Y-35471100D01*
X119781000Y-35725100D01*
X119761000Y-35725100D01*
X119761000Y-37368478D01*
X119998740Y-37489136D01*
X120104086Y-37464856D01*
X120629606Y-37173312D01*
X120892298Y-36842822D01*
X121067328Y-37104773D01*
X121575074Y-37444038D01*
X122174000Y-37563172D01*
X122772927Y-37444038D01*
X123280673Y-37104773D01*
X123444000Y-36860336D01*
X123607328Y-37104773D01*
X124115074Y-37444038D01*
X124714000Y-37563172D01*
X125312927Y-37444038D01*
X125820673Y-37104773D01*
X125984000Y-36860336D01*
X126147328Y-37104773D01*
X126655074Y-37444038D01*
X127254000Y-37563172D01*
X127852927Y-37444038D01*
X128360673Y-37104773D01*
X128524000Y-36860336D01*
X128687328Y-37104773D01*
X129195074Y-37444038D01*
X129794000Y-37563172D01*
X130392927Y-37444038D01*
X130900673Y-37104773D01*
X131064000Y-36860336D01*
X131227328Y-37104773D01*
X131735074Y-37444038D01*
X132334000Y-37563172D01*
X132932927Y-37444038D01*
X133440673Y-37104773D01*
X133604000Y-36860336D01*
X133767328Y-37104773D01*
X134275074Y-37444038D01*
X134668020Y-37522200D01*
X134617326Y-37522200D01*
X134236920Y-37679769D01*
X134170289Y-37746400D01*
X124186131Y-37746400D01*
X124111284Y-37731512D01*
X124044506Y-37744795D01*
X124030280Y-37730569D01*
X123649874Y-37573000D01*
X123238126Y-37573000D01*
X122857720Y-37730569D01*
X122566569Y-38021720D01*
X122409000Y-38402126D01*
X122409000Y-38813874D01*
X122566569Y-39194280D01*
X122857720Y-39485431D01*
X123017686Y-39551691D01*
X122967800Y-39672126D01*
X122967800Y-40083874D01*
X123125369Y-40464280D01*
X123369435Y-40708346D01*
X123272600Y-40942126D01*
X123272600Y-41353874D01*
X123430169Y-41734280D01*
X123721320Y-42025431D01*
X123751204Y-42037809D01*
X123679000Y-42212126D01*
X123679000Y-42623200D01*
X123146153Y-42623200D01*
X123209000Y-42471474D01*
X123209000Y-42059726D01*
X123051431Y-41679320D01*
X122760280Y-41388169D01*
X122379874Y-41230600D01*
X121968126Y-41230600D01*
X121587720Y-41388169D01*
X121495689Y-41480200D01*
X117873911Y-41480200D01*
X117756480Y-41362769D01*
X117376074Y-41205200D01*
X116964326Y-41205200D01*
X116583920Y-41362769D01*
X116292769Y-41653920D01*
X116135200Y-42034326D01*
X116135200Y-42446074D01*
X116208568Y-42623200D01*
X115308511Y-42623200D01*
X115191080Y-42505769D01*
X114810674Y-42348200D01*
X114398926Y-42348200D01*
X114018520Y-42505769D01*
X113727369Y-42796920D01*
X113569800Y-43177326D01*
X107627785Y-43177326D01*
X107621292Y-35883850D01*
X107939000Y-35883850D01*
X107939000Y-37024410D01*
X108035673Y-37257799D01*
X108214302Y-37436427D01*
X108447691Y-37533100D01*
X109188250Y-37533100D01*
X109347000Y-37374350D01*
X109347000Y-35725100D01*
X108097750Y-35725100D01*
X107939000Y-35883850D01*
X107621292Y-35883850D01*
X107619768Y-34171790D01*
X107939000Y-34171790D01*
X107939000Y-35312350D01*
X108097750Y-35471100D01*
X109347000Y-35471100D01*
X109347000Y-33821850D01*
X109601000Y-33821850D01*
X109601000Y-35471100D01*
X109621000Y-35471100D01*
X109621000Y-35725100D01*
X109601000Y-35725100D01*
X109601000Y-37374350D01*
X109759750Y-37533100D01*
X110500309Y-37533100D01*
X110733698Y-37436427D01*
X110912327Y-37257799D01*
X110960889Y-37140561D01*
X111415074Y-37444038D01*
X112014000Y-37563172D01*
X112612927Y-37444038D01*
X113120673Y-37104773D01*
X113284000Y-36860336D01*
X113447328Y-37104773D01*
X113955074Y-37444038D01*
X114554000Y-37563172D01*
X115152927Y-37444038D01*
X115660673Y-37104773D01*
X115824000Y-36860336D01*
X115987328Y-37104773D01*
X116495074Y-37444038D01*
X117094000Y-37563172D01*
X117692927Y-37444038D01*
X118200673Y-37104773D01*
X118375703Y-36842823D01*
X118638394Y-37173312D01*
X119163914Y-37464856D01*
X119269260Y-37489136D01*
X119507000Y-37368478D01*
X119507000Y-35725100D01*
X119487000Y-35725100D01*
X119487000Y-35471100D01*
X119507000Y-35471100D01*
X119507000Y-33827722D01*
X119269260Y-33707064D01*
X119163914Y-33731344D01*
X118638394Y-34022888D01*
X118375703Y-34353377D01*
X118200673Y-34091427D01*
X117692926Y-33752162D01*
X117094000Y-33633028D01*
X116495073Y-33752162D01*
X115987327Y-34091427D01*
X115824000Y-34335863D01*
X115660673Y-34091427D01*
X115152926Y-33752162D01*
X114554000Y-33633028D01*
X113955073Y-33752162D01*
X113447327Y-34091427D01*
X113284000Y-34335863D01*
X113120673Y-34091427D01*
X112612926Y-33752162D01*
X112014000Y-33633028D01*
X111415073Y-33752162D01*
X110960888Y-34055638D01*
X110912327Y-33938401D01*
X110733698Y-33759773D01*
X110500309Y-33663100D01*
X109759750Y-33663100D01*
X109601000Y-33821850D01*
X109347000Y-33821850D01*
X109188250Y-33663100D01*
X108447691Y-33663100D01*
X108214302Y-33759773D01*
X108035673Y-33938401D01*
X107939000Y-34171790D01*
X107619768Y-34171790D01*
X107618854Y-33145400D01*
X181026746Y-33145400D01*
X181025122Y-34970922D01*
X181025122Y-34970922D01*
G37*
X181025122Y-34970922D02*
X180783966Y-34388720D01*
X180183380Y-33788134D01*
X179398678Y-33463100D01*
X178549322Y-33463100D01*
X177764620Y-33788134D01*
X177164034Y-34388720D01*
X176839000Y-35173422D01*
X176839000Y-36022778D01*
X177164034Y-36807480D01*
X177764620Y-37408066D01*
X178549322Y-37733100D01*
X179398678Y-37733100D01*
X180183380Y-37408066D01*
X180783966Y-36807480D01*
X181024004Y-36227978D01*
X181006533Y-55864340D01*
X180918865Y-55733135D01*
X180344963Y-55349666D01*
X179668000Y-55215010D01*
X178991038Y-55349666D01*
X178417136Y-55733135D01*
X178033667Y-56307037D01*
X177933001Y-56813120D01*
X177933001Y-57056636D01*
X174252406Y-57056636D01*
X174444963Y-57018334D01*
X175018865Y-56634865D01*
X175402334Y-56060963D01*
X175536990Y-55384000D01*
X175402334Y-54707037D01*
X175018865Y-54133135D01*
X174444963Y-53749666D01*
X174001545Y-53661465D01*
X174202334Y-53360963D01*
X174336990Y-52684000D01*
X174202334Y-52007037D01*
X173818865Y-51433135D01*
X173244963Y-51049666D01*
X172738880Y-50949000D01*
X170764345Y-50949000D01*
X170681179Y-50865834D01*
X170638777Y-50802375D01*
X170387385Y-50634400D01*
X170165700Y-50590304D01*
X170165695Y-50590304D01*
X170090848Y-50575416D01*
X170016001Y-50590304D01*
X161180813Y-50590304D01*
X161065064Y-50310860D01*
X160548870Y-49794666D01*
X160079638Y-49600304D01*
X160548870Y-49405942D01*
X161065064Y-48889748D01*
X161344426Y-48215308D01*
X161344426Y-47485300D01*
X161065064Y-46810860D01*
X160548870Y-46294666D01*
X159874430Y-46015304D01*
X159144422Y-46015304D01*
X158469982Y-46294666D01*
X157953788Y-46810860D01*
X157674426Y-47485300D01*
X157674426Y-48215308D01*
X157953788Y-48889748D01*
X158469982Y-49405942D01*
X158939214Y-49600304D01*
X158469982Y-49794666D01*
X157953788Y-50310860D01*
X157674426Y-50985300D01*
X157674426Y-51715308D01*
X157953788Y-52389748D01*
X158469982Y-52905942D01*
X158939214Y-53100304D01*
X158469982Y-53294666D01*
X157953788Y-53810860D01*
X157674426Y-54485300D01*
X157674426Y-55215308D01*
X157953788Y-55889748D01*
X158469982Y-56405942D01*
X158703973Y-56502864D01*
X158309426Y-56502864D01*
X158061661Y-56552147D01*
X157851617Y-56692495D01*
X157711269Y-56902539D01*
X157661986Y-57150304D01*
X157661986Y-59550304D01*
X157711269Y-59798069D01*
X157851617Y-60008113D01*
X158061661Y-60148461D01*
X158309426Y-60197744D01*
X160709426Y-60197744D01*
X160957191Y-60148461D01*
X161167235Y-60008113D01*
X161307583Y-59798069D01*
X161356866Y-59550304D01*
X161356866Y-57772546D01*
X161952794Y-58368474D01*
X161995193Y-58431929D01*
X162058648Y-58474328D01*
X162058649Y-58474329D01*
X162246584Y-58599903D01*
X162543121Y-58658888D01*
X162543122Y-58658888D01*
X162839659Y-58599903D01*
X162874481Y-58576636D01*
X177933000Y-58576636D01*
X177933000Y-58954879D01*
X178033666Y-59460962D01*
X178417135Y-60034865D01*
X178991037Y-60418334D01*
X179668000Y-60552990D01*
X180344962Y-60418334D01*
X180918865Y-60034865D01*
X181002935Y-59909045D01*
X180997599Y-65906432D01*
X180783446Y-65389420D01*
X180182860Y-64788834D01*
X179398158Y-64463800D01*
X178548802Y-64463800D01*
X177764100Y-64788834D01*
X177163514Y-65389420D01*
X176838480Y-66174122D01*
X176838480Y-67023478D01*
X177163514Y-67808180D01*
X177764100Y-68408766D01*
X178548802Y-68733800D01*
X179398158Y-68733800D01*
X180182860Y-68408766D01*
X180783446Y-67808180D01*
X180996365Y-67294149D01*
X180926454Y-145873301D01*
X107719146Y-145823499D01*
X107693226Y-116700120D01*
X109859485Y-116700120D01*
X109988733Y-116992923D01*
X110689006Y-117261188D01*
X111438635Y-117241050D01*
X112037667Y-116992923D01*
X112166915Y-116700120D01*
X111013200Y-115546405D01*
X109859485Y-116700120D01*
X107693226Y-116700120D01*
X107691750Y-115042606D01*
X109118812Y-115042606D01*
X109138950Y-115792235D01*
X109387077Y-116391267D01*
X109679880Y-116520515D01*
X110833595Y-115366800D01*
X111192805Y-115366800D01*
X112346520Y-116520515D01*
X112639323Y-116391267D01*
X112907588Y-115690994D01*
X112887450Y-114941365D01*
X112639323Y-114342333D01*
X112346520Y-114213085D01*
X111192805Y-115366800D01*
X110833595Y-115366800D01*
X109679880Y-114213085D01*
X109387077Y-114342333D01*
X109118812Y-115042606D01*
X107691750Y-115042606D01*
X107690852Y-114033480D01*
X109859485Y-114033480D01*
X111013200Y-115187195D01*
X112166915Y-114033480D01*
X112037667Y-113740677D01*
X111337394Y-113472412D01*
X110587765Y-113492550D01*
X109988733Y-113740677D01*
X109859485Y-114033480D01*
X107690852Y-114033480D01*
X107683357Y-105613200D01*
X108569508Y-105613200D01*
X108684761Y-106192618D01*
X109012975Y-106683825D01*
X109504182Y-107012039D01*
X109937344Y-107098200D01*
X110229856Y-107098200D01*
X110663018Y-107012039D01*
X111154225Y-106683825D01*
X111353600Y-106385439D01*
X111552975Y-106683825D01*
X112044182Y-107012039D01*
X112477344Y-107098200D01*
X112769856Y-107098200D01*
X113203018Y-107012039D01*
X113694225Y-106683825D01*
X113893600Y-106385439D01*
X114092975Y-106683825D01*
X114584182Y-107012039D01*
X115017344Y-107098200D01*
X115309856Y-107098200D01*
X115743018Y-107012039D01*
X116234225Y-106683825D01*
X116433600Y-106385439D01*
X116632975Y-106683825D01*
X117124182Y-107012039D01*
X117557344Y-107098200D01*
X117849856Y-107098200D01*
X118283018Y-107012039D01*
X118774225Y-106683825D01*
X118973600Y-106385439D01*
X119172975Y-106683825D01*
X119664182Y-107012039D01*
X120097344Y-107098200D01*
X120389856Y-107098200D01*
X120823018Y-107012039D01*
X121314225Y-106683825D01*
X121513600Y-106385439D01*
X121712975Y-106683825D01*
X122204182Y-107012039D01*
X122637344Y-107098200D01*
X122929856Y-107098200D01*
X123363018Y-107012039D01*
X123854225Y-106683825D01*
X124053600Y-106385439D01*
X124252975Y-106683825D01*
X124744182Y-107012039D01*
X125177344Y-107098200D01*
X125469856Y-107098200D01*
X125903018Y-107012039D01*
X126394225Y-106683825D01*
X126406416Y-106665581D01*
X126415443Y-106710965D01*
X126555791Y-106921009D01*
X126765835Y-107061357D01*
X127013600Y-107110640D01*
X128713600Y-107110640D01*
X128955800Y-107062464D01*
X128955800Y-110515400D01*
X127000000Y-110515400D01*
X126951399Y-110525067D01*
X126910197Y-110552597D01*
X126882667Y-110593799D01*
X126873000Y-110642400D01*
X126873000Y-113682631D01*
X126388150Y-113481800D01*
X125638250Y-113481800D01*
X124945433Y-113768774D01*
X124415174Y-114299033D01*
X124128200Y-114991850D01*
X124128200Y-115741750D01*
X124278200Y-116103883D01*
X124278201Y-123254940D01*
X124259341Y-123273800D01*
X117748200Y-123273800D01*
X117748200Y-116700120D01*
X119859485Y-116700120D01*
X119988733Y-116992923D01*
X120689006Y-117261188D01*
X121438635Y-117241050D01*
X122037667Y-116992923D01*
X122166915Y-116700120D01*
X121013200Y-115546405D01*
X119859485Y-116700120D01*
X117748200Y-116700120D01*
X117748200Y-116103882D01*
X117898200Y-115741750D01*
X117898200Y-115042606D01*
X119118812Y-115042606D01*
X119138950Y-115792235D01*
X119387077Y-116391267D01*
X119679880Y-116520515D01*
X120833595Y-115366800D01*
X121192805Y-115366800D01*
X122346520Y-116520515D01*
X122639323Y-116391267D01*
X122907588Y-115690994D01*
X122887450Y-114941365D01*
X122639323Y-114342333D01*
X122346520Y-114213085D01*
X121192805Y-115366800D01*
X120833595Y-115366800D01*
X119679880Y-114213085D01*
X119387077Y-114342333D01*
X119118812Y-115042606D01*
X117898200Y-115042606D01*
X117898200Y-114991850D01*
X117611226Y-114299033D01*
X117345673Y-114033480D01*
X119859485Y-114033480D01*
X121013200Y-115187195D01*
X122166915Y-114033480D01*
X122037667Y-113740677D01*
X121337394Y-113472412D01*
X120587765Y-113492550D01*
X119988733Y-113740677D01*
X119859485Y-114033480D01*
X117345673Y-114033480D01*
X117080967Y-113768774D01*
X116388150Y-113481800D01*
X115638250Y-113481800D01*
X114945433Y-113768774D01*
X114415174Y-114299033D01*
X114128200Y-114991850D01*
X114128200Y-115741750D01*
X114278201Y-116103884D01*
X114278200Y-124541271D01*
X114183214Y-125018800D01*
X114217401Y-125190670D01*
X114217400Y-128794724D01*
X112984423Y-130027701D01*
X112838727Y-130125053D01*
X112741375Y-130270750D01*
X112741372Y-130270753D01*
X112453047Y-130702262D01*
X112317615Y-131383127D01*
X112351801Y-131554992D01*
X112351801Y-132230100D01*
X112074895Y-132507006D01*
X111711800Y-133383594D01*
X111711800Y-134332406D01*
X112074895Y-135208994D01*
X112745806Y-135879905D01*
X113622394Y-136243000D01*
X114571206Y-136243000D01*
X115447794Y-135879905D01*
X115775171Y-135552528D01*
X119541477Y-135552528D01*
X119731764Y-135897271D01*
X120612991Y-136248956D01*
X121561723Y-136236641D01*
X122381036Y-135897271D01*
X122571323Y-135552528D01*
X121056400Y-134037605D01*
X119541477Y-135552528D01*
X115775171Y-135552528D01*
X116118705Y-135208994D01*
X116481800Y-134332406D01*
X116481800Y-133414591D01*
X118665444Y-133414591D01*
X118677759Y-134363323D01*
X119017129Y-135182636D01*
X119361872Y-135372923D01*
X120876795Y-133858000D01*
X121236005Y-133858000D01*
X122750928Y-135372923D01*
X123095671Y-135182636D01*
X123447356Y-134301409D01*
X123435443Y-133383594D01*
X125681800Y-133383594D01*
X125681800Y-134332406D01*
X126044895Y-135208994D01*
X126715806Y-135879905D01*
X127592394Y-136243000D01*
X128541206Y-136243000D01*
X129417794Y-135879905D01*
X129694699Y-135603000D01*
X130713538Y-135603000D01*
X130968928Y-135552200D01*
X144609800Y-135552200D01*
X144609801Y-143134930D01*
X144575614Y-143306800D01*
X144711046Y-143987665D01*
X145096726Y-144564874D01*
X145673935Y-144950554D01*
X146182935Y-145051800D01*
X146354800Y-145085986D01*
X146526665Y-145051800D01*
X151474368Y-145051800D01*
X151878438Y-145455870D01*
X152810157Y-145841800D01*
X153818643Y-145841800D01*
X154750362Y-145455870D01*
X155463470Y-144742762D01*
X155849400Y-143811043D01*
X155849400Y-142802557D01*
X155463470Y-141870838D01*
X154750362Y-141157730D01*
X153818643Y-140771800D01*
X152810157Y-140771800D01*
X151878438Y-141157730D01*
X151474368Y-141561800D01*
X148099800Y-141561800D01*
X148099800Y-134942200D01*
X153222983Y-134942200D01*
X153394043Y-134908174D01*
X153565102Y-134942200D01*
X163965000Y-134942200D01*
X163965001Y-141033067D01*
X163664038Y-141157730D01*
X162950930Y-141870838D01*
X162565000Y-142802557D01*
X162565000Y-143811043D01*
X162950930Y-144742762D01*
X163664038Y-145455870D01*
X164595757Y-145841800D01*
X165604243Y-145841800D01*
X166535962Y-145455870D01*
X167249070Y-144742762D01*
X167635000Y-143811043D01*
X167635000Y-142802557D01*
X167249070Y-141870838D01*
X166535962Y-141157730D01*
X166235000Y-141033068D01*
X166235000Y-134891400D01*
X176062617Y-134891400D01*
X176174400Y-134913635D01*
X176286183Y-134891400D01*
X176617255Y-134825546D01*
X176992689Y-134574689D01*
X177243546Y-134199255D01*
X177331635Y-133756400D01*
X177309400Y-133644617D01*
X177309400Y-126781697D01*
X177444985Y-126691101D01*
X177585333Y-126481057D01*
X177634616Y-126233292D01*
X177634616Y-124533292D01*
X177585333Y-124285527D01*
X177444985Y-124075483D01*
X177234941Y-123935135D01*
X176987176Y-123885852D01*
X175287176Y-123885852D01*
X175039411Y-123935135D01*
X174829367Y-124075483D01*
X174689019Y-124285527D01*
X174639736Y-124533292D01*
X174639736Y-126233292D01*
X174689019Y-126481057D01*
X174829367Y-126691101D01*
X175039401Y-126831442D01*
X175039400Y-132621400D01*
X165553902Y-132621400D01*
X165382842Y-132655426D01*
X165100000Y-132599165D01*
X164732827Y-132672200D01*
X153565102Y-132672200D01*
X153394043Y-132706226D01*
X153222983Y-132672200D01*
X147695110Y-132672200D01*
X147612874Y-132549126D01*
X147035665Y-132163446D01*
X146526665Y-132062200D01*
X146354800Y-132028014D01*
X146182935Y-132062200D01*
X130420608Y-132062200D01*
X130165218Y-132113000D01*
X129694699Y-132113000D01*
X129417794Y-131836095D01*
X128541206Y-131473000D01*
X127592394Y-131473000D01*
X126715806Y-131836095D01*
X126044895Y-132507006D01*
X125681800Y-133383594D01*
X123435443Y-133383594D01*
X123435041Y-133352677D01*
X123095671Y-132533364D01*
X122750928Y-132343077D01*
X121236005Y-133858000D01*
X120876795Y-133858000D01*
X119361872Y-132343077D01*
X119017129Y-132533364D01*
X118665444Y-133414591D01*
X116481800Y-133414591D01*
X116481800Y-133383594D01*
X116118705Y-132507006D01*
X115841800Y-132230101D01*
X115841800Y-132163472D01*
X119541477Y-132163472D01*
X121056400Y-133678395D01*
X122571323Y-132163472D01*
X122381036Y-131818729D01*
X121499809Y-131467044D01*
X120551077Y-131479359D01*
X119731764Y-131818729D01*
X119541477Y-132163472D01*
X115841800Y-132163472D01*
X115841800Y-132105929D01*
X116663130Y-131284600D01*
X171185817Y-131284600D01*
X171297600Y-131306835D01*
X171409383Y-131284600D01*
X171740455Y-131218746D01*
X172115889Y-130967889D01*
X172366746Y-130592455D01*
X172454835Y-130149600D01*
X172432600Y-130037817D01*
X172432600Y-126828340D01*
X172618985Y-126703801D01*
X172759333Y-126493757D01*
X172808616Y-126245992D01*
X172808616Y-124545992D01*
X172759333Y-124298227D01*
X172618985Y-124088183D01*
X172408941Y-123947835D01*
X172161176Y-123898552D01*
X170461176Y-123898552D01*
X170213411Y-123947835D01*
X170003367Y-124088183D01*
X169863019Y-124298227D01*
X169813736Y-124545992D01*
X169813736Y-126245992D01*
X169863019Y-126493757D01*
X170003367Y-126703801D01*
X170162601Y-126810198D01*
X170162600Y-129014600D01*
X149394549Y-129014600D01*
X149394549Y-127003823D01*
X149567358Y-126888355D01*
X149707706Y-126678311D01*
X149756989Y-126430546D01*
X149756989Y-124730546D01*
X149707706Y-124482781D01*
X149567358Y-124272737D01*
X149505493Y-124231400D01*
X151922025Y-124231400D01*
X151803140Y-124310837D01*
X151662792Y-124520881D01*
X151613509Y-124768646D01*
X151613509Y-126468646D01*
X151662792Y-126716411D01*
X151803140Y-126926455D01*
X152013184Y-127066803D01*
X152260949Y-127116086D01*
X153960949Y-127116086D01*
X154208714Y-127066803D01*
X154418758Y-126926455D01*
X154559106Y-126716411D01*
X154608389Y-126468646D01*
X154608389Y-124768646D01*
X154559106Y-124520881D01*
X154418758Y-124310837D01*
X154299873Y-124231400D01*
X161544000Y-124231400D01*
X161592601Y-124221733D01*
X161633803Y-124194203D01*
X161661333Y-124153001D01*
X161671000Y-124104400D01*
X161671000Y-100947332D01*
X162471076Y-100947332D01*
X162718841Y-100898049D01*
X162928885Y-100757701D01*
X163069233Y-100547657D01*
X163118516Y-100299892D01*
X163118516Y-100209892D01*
X164633781Y-100209892D01*
X164716920Y-100293031D01*
X165097326Y-100450600D01*
X165509074Y-100450600D01*
X165889480Y-100293031D01*
X166180631Y-100001880D01*
X166338200Y-99621474D01*
X166338200Y-99209726D01*
X166180631Y-98829320D01*
X165900403Y-98549092D01*
X169902636Y-98549092D01*
X169902636Y-100249092D01*
X169951919Y-100496857D01*
X170092267Y-100706901D01*
X170302311Y-100847249D01*
X170550076Y-100896532D01*
X172250076Y-100896532D01*
X172497841Y-100847249D01*
X172707885Y-100706901D01*
X172848233Y-100496857D01*
X172897516Y-100249092D01*
X172897516Y-98549092D01*
X172848233Y-98301327D01*
X172707885Y-98091283D01*
X172497841Y-97950935D01*
X172250076Y-97901652D01*
X170550076Y-97901652D01*
X170302311Y-97950935D01*
X170092267Y-98091283D01*
X169951919Y-98301327D01*
X169902636Y-98549092D01*
X165900403Y-98549092D01*
X165889480Y-98538169D01*
X165509074Y-98380600D01*
X165097326Y-98380600D01*
X164716920Y-98538169D01*
X164565197Y-98689892D01*
X163118516Y-98689892D01*
X163118516Y-98599892D01*
X163069233Y-98352127D01*
X162928885Y-98142083D01*
X162718841Y-98001735D01*
X162471076Y-97952452D01*
X161671000Y-97952452D01*
X161671000Y-96772000D01*
X170695489Y-96772000D01*
X170812920Y-96889431D01*
X171193326Y-97047000D01*
X171605074Y-97047000D01*
X171985480Y-96889431D01*
X172276631Y-96598280D01*
X172434200Y-96217874D01*
X172434200Y-95806126D01*
X172276631Y-95425720D01*
X171985480Y-95134569D01*
X171605074Y-94977000D01*
X171193326Y-94977000D01*
X170812920Y-95134569D01*
X170695489Y-95252000D01*
X161130111Y-95252000D01*
X160961880Y-95083769D01*
X160581474Y-94926200D01*
X160169726Y-94926200D01*
X159789320Y-95083769D01*
X159498169Y-95374920D01*
X159340600Y-95755326D01*
X159340600Y-95986600D01*
X153873200Y-95986600D01*
X153824599Y-95996267D01*
X153783397Y-96023797D01*
X153755867Y-96064999D01*
X153746200Y-96113600D01*
X153746200Y-100469800D01*
X153495750Y-100469800D01*
X153337000Y-100628550D01*
X153337000Y-101777800D01*
X153357000Y-101777800D01*
X153357000Y-102031800D01*
X153337000Y-102031800D01*
X153337000Y-103181050D01*
X153495750Y-103339800D01*
X153746200Y-103339800D01*
X153746200Y-106553000D01*
X145303600Y-106553000D01*
X145303600Y-106406950D01*
X145144850Y-106248200D01*
X144500600Y-106248200D01*
X144500600Y-106268200D01*
X144366040Y-106268200D01*
X144366040Y-105974200D01*
X144500600Y-105974200D01*
X144500600Y-105994200D01*
X145144850Y-105994200D01*
X145303600Y-105835450D01*
X145303600Y-105369891D01*
X145206927Y-105136502D01*
X145028299Y-104957873D01*
X144794910Y-104861200D01*
X144659350Y-104861200D01*
X144500602Y-105019948D01*
X144500602Y-104861200D01*
X144443400Y-104861200D01*
X144443400Y-104645326D01*
X144318256Y-104343200D01*
X144443400Y-104041074D01*
X144443400Y-103629326D01*
X144285831Y-103248920D01*
X144043400Y-103006489D01*
X144043400Y-101371400D01*
X144246600Y-101371400D01*
X144246600Y-102345650D01*
X144405350Y-102504400D01*
X144745909Y-102504400D01*
X144979298Y-102407727D01*
X145157927Y-102229099D01*
X145173894Y-102190550D01*
X152075000Y-102190550D01*
X152075000Y-102831110D01*
X152171673Y-103064499D01*
X152350302Y-103243127D01*
X152583691Y-103339800D01*
X152924250Y-103339800D01*
X153083000Y-103181050D01*
X153083000Y-102031800D01*
X152233750Y-102031800D01*
X152075000Y-102190550D01*
X145173894Y-102190550D01*
X145254600Y-101995710D01*
X145254600Y-101530150D01*
X145095850Y-101371400D01*
X144246600Y-101371400D01*
X144043400Y-101371400D01*
X144043400Y-100143150D01*
X144246600Y-100143150D01*
X144246600Y-101117400D01*
X145095850Y-101117400D01*
X145254600Y-100958650D01*
X145254600Y-100493090D01*
X145157927Y-100259701D01*
X144979298Y-100081073D01*
X144745909Y-99984400D01*
X144405350Y-99984400D01*
X144246600Y-100143150D01*
X144043400Y-100143150D01*
X144043400Y-99945596D01*
X146838049Y-99945596D01*
X146838049Y-100636156D01*
X146934722Y-100869545D01*
X147113351Y-101048173D01*
X147346740Y-101144846D01*
X148037299Y-101144846D01*
X148196049Y-100986096D01*
X148196049Y-99786846D01*
X148450049Y-99786846D01*
X148450049Y-100986096D01*
X148608799Y-101144846D01*
X149299358Y-101144846D01*
X149532747Y-101048173D01*
X149602430Y-100978490D01*
X152075000Y-100978490D01*
X152075000Y-101619050D01*
X152233750Y-101777800D01*
X153083000Y-101777800D01*
X153083000Y-100628550D01*
X152924250Y-100469800D01*
X152583691Y-100469800D01*
X152350302Y-100566473D01*
X152171673Y-100745101D01*
X152075000Y-100978490D01*
X149602430Y-100978490D01*
X149711376Y-100869545D01*
X149808049Y-100636156D01*
X149808049Y-99945596D01*
X149649299Y-99786846D01*
X148450049Y-99786846D01*
X148196049Y-99786846D01*
X146996799Y-99786846D01*
X146838049Y-99945596D01*
X144043400Y-99945596D01*
X144043400Y-98683536D01*
X146838049Y-98683536D01*
X146838049Y-99374096D01*
X146996799Y-99532846D01*
X148196049Y-99532846D01*
X148196049Y-98333596D01*
X148450049Y-98333596D01*
X148450049Y-99532846D01*
X149649299Y-99532846D01*
X149808049Y-99374096D01*
X149808049Y-98683536D01*
X149711376Y-98450147D01*
X149532747Y-98271519D01*
X149299358Y-98174846D01*
X148608799Y-98174846D01*
X148450049Y-98333596D01*
X148196049Y-98333596D01*
X148037299Y-98174846D01*
X147346740Y-98174846D01*
X147113351Y-98271519D01*
X146934722Y-98450147D01*
X146838049Y-98683536D01*
X144043400Y-98683536D01*
X144043400Y-96012000D01*
X144033733Y-95963399D01*
X144006203Y-95922197D01*
X143965001Y-95894667D01*
X143916400Y-95885000D01*
X130514145Y-95885000D01*
X130676676Y-95492590D01*
X130555355Y-95262700D01*
X129362200Y-95262700D01*
X129362200Y-95282700D01*
X129108200Y-95282700D01*
X129108200Y-95262700D01*
X126822200Y-95262700D01*
X126822200Y-96456519D01*
X127052092Y-96577186D01*
X127576558Y-96330883D01*
X127965200Y-95904429D01*
X128353842Y-96330883D01*
X128878308Y-96577186D01*
X128955800Y-96536512D01*
X128955800Y-104163936D01*
X128713600Y-104115760D01*
X127013600Y-104115760D01*
X126765835Y-104165043D01*
X126555791Y-104305391D01*
X126415443Y-104515435D01*
X126406416Y-104560819D01*
X126394225Y-104542575D01*
X125903018Y-104214361D01*
X125469856Y-104128200D01*
X125177344Y-104128200D01*
X124744182Y-104214361D01*
X124252975Y-104542575D01*
X124053600Y-104840961D01*
X123854225Y-104542575D01*
X123363018Y-104214361D01*
X122929856Y-104128200D01*
X122637344Y-104128200D01*
X122204182Y-104214361D01*
X121712975Y-104542575D01*
X121513600Y-104840961D01*
X121314225Y-104542575D01*
X120823018Y-104214361D01*
X120389856Y-104128200D01*
X120097344Y-104128200D01*
X119664182Y-104214361D01*
X119172975Y-104542575D01*
X118973600Y-104840961D01*
X118774225Y-104542575D01*
X118283018Y-104214361D01*
X117849856Y-104128200D01*
X117557344Y-104128200D01*
X117124182Y-104214361D01*
X116632975Y-104542575D01*
X116433600Y-104840961D01*
X116234225Y-104542575D01*
X115743018Y-104214361D01*
X115309856Y-104128200D01*
X115017344Y-104128200D01*
X114584182Y-104214361D01*
X114092975Y-104542575D01*
X113893600Y-104840961D01*
X113694225Y-104542575D01*
X113203018Y-104214361D01*
X112769856Y-104128200D01*
X112477344Y-104128200D01*
X112044182Y-104214361D01*
X111552975Y-104542575D01*
X111353600Y-104840961D01*
X111154225Y-104542575D01*
X110663018Y-104214361D01*
X110229856Y-104128200D01*
X109937344Y-104128200D01*
X109504182Y-104214361D01*
X109012975Y-104542575D01*
X108684761Y-105033782D01*
X108569508Y-105613200D01*
X107683357Y-105613200D01*
X107678599Y-100266500D01*
X109941108Y-100266500D01*
X110056361Y-100845918D01*
X110384575Y-101337125D01*
X110875782Y-101665339D01*
X111308944Y-101751500D01*
X111601456Y-101751500D01*
X112034618Y-101665339D01*
X112525825Y-101337125D01*
X112725200Y-101038739D01*
X112924575Y-101337125D01*
X113415782Y-101665339D01*
X113848944Y-101751500D01*
X114141456Y-101751500D01*
X114574618Y-101665339D01*
X115065825Y-101337125D01*
X115265200Y-101038739D01*
X115464575Y-101337125D01*
X115955782Y-101665339D01*
X116388944Y-101751500D01*
X116681456Y-101751500D01*
X117114618Y-101665339D01*
X117605825Y-101337125D01*
X117805200Y-101038739D01*
X118004575Y-101337125D01*
X118495782Y-101665339D01*
X118928944Y-101751500D01*
X119221456Y-101751500D01*
X119654618Y-101665339D01*
X120145825Y-101337125D01*
X120345200Y-101038739D01*
X120544575Y-101337125D01*
X121035782Y-101665339D01*
X121468944Y-101751500D01*
X121761456Y-101751500D01*
X122194618Y-101665339D01*
X122685825Y-101337125D01*
X122698016Y-101318881D01*
X122707043Y-101364265D01*
X122847391Y-101574309D01*
X123057435Y-101714657D01*
X123305200Y-101763940D01*
X125005200Y-101763940D01*
X125252965Y-101714657D01*
X125463009Y-101574309D01*
X125603357Y-101364265D01*
X125652640Y-101116500D01*
X125652640Y-99416500D01*
X125603357Y-99168735D01*
X125463009Y-98958691D01*
X125252965Y-98818343D01*
X125005200Y-98769060D01*
X123305200Y-98769060D01*
X123057435Y-98818343D01*
X122847391Y-98958691D01*
X122707043Y-99168735D01*
X122698016Y-99214119D01*
X122685825Y-99195875D01*
X122194618Y-98867661D01*
X121761456Y-98781500D01*
X121468944Y-98781500D01*
X121035782Y-98867661D01*
X120544575Y-99195875D01*
X120345200Y-99494261D01*
X120145825Y-99195875D01*
X119654618Y-98867661D01*
X119221456Y-98781500D01*
X118928944Y-98781500D01*
X118495782Y-98867661D01*
X118004575Y-99195875D01*
X117805200Y-99494261D01*
X117605825Y-99195875D01*
X117114618Y-98867661D01*
X116681456Y-98781500D01*
X116388944Y-98781500D01*
X115955782Y-98867661D01*
X115464575Y-99195875D01*
X115265200Y-99494261D01*
X115065825Y-99195875D01*
X114574618Y-98867661D01*
X114141456Y-98781500D01*
X113848944Y-98781500D01*
X113415782Y-98867661D01*
X112924575Y-99195875D01*
X112725200Y-99494261D01*
X112525825Y-99195875D01*
X112034618Y-98867661D01*
X111601456Y-98781500D01*
X111308944Y-98781500D01*
X110875782Y-98867661D01*
X110384575Y-99195875D01*
X110056361Y-99687082D01*
X109941108Y-100266500D01*
X107678599Y-100266500D01*
X107674350Y-95492590D01*
X125253724Y-95492590D01*
X125423555Y-95902624D01*
X125813842Y-96330883D01*
X126338308Y-96577186D01*
X126568200Y-96456519D01*
X126568200Y-95262700D01*
X125375045Y-95262700D01*
X125253724Y-95492590D01*
X107674350Y-95492590D01*
X107650195Y-68354825D01*
X110166200Y-68354825D01*
X110166200Y-68766573D01*
X110323769Y-69146979D01*
X110614920Y-69438130D01*
X110995326Y-69595699D01*
X111407074Y-69595699D01*
X111787480Y-69438130D01*
X111904911Y-69320699D01*
X125263657Y-69320699D01*
X125181108Y-69735700D01*
X125295184Y-70309200D01*
X119829711Y-70309200D01*
X119712280Y-70191769D01*
X119331874Y-70034200D01*
X118920126Y-70034200D01*
X118539720Y-70191769D01*
X118248569Y-70482920D01*
X118091000Y-70863326D01*
X118091000Y-71275074D01*
X118248569Y-71655480D01*
X118539720Y-71946631D01*
X118920126Y-72104200D01*
X119331874Y-72104200D01*
X119712280Y-71946631D01*
X119829711Y-71829200D01*
X125269922Y-71829200D01*
X125181108Y-72275700D01*
X125285079Y-72798400D01*
X117188111Y-72798400D01*
X117070680Y-72680969D01*
X116690274Y-72523400D01*
X116278526Y-72523400D01*
X115898120Y-72680969D01*
X115606969Y-72972120D01*
X115449400Y-73352526D01*
X115449400Y-73764274D01*
X115606969Y-74144680D01*
X115898120Y-74435831D01*
X116278526Y-74593400D01*
X116690274Y-74593400D01*
X117070680Y-74435831D01*
X117188111Y-74318400D01*
X125280027Y-74318400D01*
X125181108Y-74815700D01*
X125285079Y-75338400D01*
X114800511Y-75338400D01*
X114733880Y-75271769D01*
X114353474Y-75114200D01*
X113941726Y-75114200D01*
X113561320Y-75271769D01*
X113270169Y-75562920D01*
X113112600Y-75943326D01*
X113112600Y-76355074D01*
X113270169Y-76735480D01*
X113561320Y-77026631D01*
X113941726Y-77184200D01*
X114353474Y-77184200D01*
X114733880Y-77026631D01*
X114902111Y-76858400D01*
X125280027Y-76858400D01*
X125181108Y-77355700D01*
X125296361Y-77935118D01*
X125624575Y-78426325D01*
X125922961Y-78625700D01*
X125624575Y-78825075D01*
X125296361Y-79316282D01*
X125181108Y-79895700D01*
X125296361Y-80475118D01*
X125624575Y-80966325D01*
X125922961Y-81165700D01*
X125624575Y-81365075D01*
X125296361Y-81856282D01*
X125181108Y-82435700D01*
X125296361Y-83015118D01*
X125624575Y-83506325D01*
X125922961Y-83705700D01*
X125624575Y-83905075D01*
X125296361Y-84396282D01*
X125181108Y-84975700D01*
X125296361Y-85555118D01*
X125624575Y-86046325D01*
X125922961Y-86245700D01*
X125624575Y-86445075D01*
X125296361Y-86936282D01*
X125181108Y-87515700D01*
X125296361Y-88095118D01*
X125624575Y-88586325D01*
X125922961Y-88785700D01*
X125624575Y-88985075D01*
X125296361Y-89476282D01*
X125181108Y-90055700D01*
X125296361Y-90635118D01*
X125624575Y-91126325D01*
X125922961Y-91325700D01*
X125624575Y-91525075D01*
X125296361Y-92016282D01*
X125181108Y-92595700D01*
X125296361Y-93175118D01*
X125624575Y-93666325D01*
X125943678Y-93879543D01*
X125813842Y-93940517D01*
X125423555Y-94368776D01*
X125253724Y-94778810D01*
X125375045Y-95008700D01*
X126568200Y-95008700D01*
X126568200Y-94988700D01*
X126822200Y-94988700D01*
X126822200Y-95008700D01*
X129108200Y-95008700D01*
X129108200Y-94988700D01*
X129362200Y-94988700D01*
X129362200Y-95008700D01*
X130555355Y-95008700D01*
X130676676Y-94778810D01*
X130506845Y-94368776D01*
X130116558Y-93940517D01*
X129986722Y-93879543D01*
X130305825Y-93666325D01*
X130634039Y-93175118D01*
X130749292Y-92595700D01*
X130634039Y-92016282D01*
X130305825Y-91525075D01*
X130122828Y-91402800D01*
X142114160Y-91402800D01*
X142114160Y-93102800D01*
X142163443Y-93350565D01*
X142303791Y-93560609D01*
X142513835Y-93700957D01*
X142761600Y-93750240D01*
X144461600Y-93750240D01*
X144709365Y-93700957D01*
X144919409Y-93560609D01*
X145059757Y-93350565D01*
X145068784Y-93305181D01*
X145080975Y-93323425D01*
X145572182Y-93651639D01*
X146005344Y-93737800D01*
X146297856Y-93737800D01*
X146731018Y-93651639D01*
X147222225Y-93323425D01*
X147421600Y-93025039D01*
X147620975Y-93323425D01*
X148112182Y-93651639D01*
X148545344Y-93737800D01*
X148837856Y-93737800D01*
X149271018Y-93651639D01*
X149762225Y-93323425D01*
X149975443Y-93004322D01*
X150036417Y-93134158D01*
X150464676Y-93524445D01*
X150874710Y-93694276D01*
X151104600Y-93572955D01*
X151104600Y-92379800D01*
X151358600Y-92379800D01*
X151358600Y-93572955D01*
X151588490Y-93694276D01*
X151998524Y-93524445D01*
X152426783Y-93134158D01*
X152673086Y-92609692D01*
X152552419Y-92379800D01*
X151358600Y-92379800D01*
X151104600Y-92379800D01*
X151084600Y-92379800D01*
X151084600Y-92125800D01*
X151104600Y-92125800D01*
X151104600Y-90932645D01*
X151358600Y-90932645D01*
X151358600Y-92125800D01*
X152552419Y-92125800D01*
X152673086Y-91895908D01*
X152441510Y-91402800D01*
X158776560Y-91402800D01*
X158776560Y-93102800D01*
X158825843Y-93350565D01*
X158966191Y-93560609D01*
X159176235Y-93700957D01*
X159424000Y-93750240D01*
X161124000Y-93750240D01*
X161371765Y-93700957D01*
X161581809Y-93560609D01*
X161722157Y-93350565D01*
X161731184Y-93305181D01*
X161743375Y-93323425D01*
X162234582Y-93651639D01*
X162667744Y-93737800D01*
X162960256Y-93737800D01*
X163393418Y-93651639D01*
X163884625Y-93323425D01*
X164084000Y-93025039D01*
X164283375Y-93323425D01*
X164774582Y-93651639D01*
X165207744Y-93737800D01*
X165500256Y-93737800D01*
X165933418Y-93651639D01*
X166424625Y-93323425D01*
X166752839Y-92832218D01*
X166868092Y-92252800D01*
X166752839Y-91673382D01*
X166424625Y-91182175D01*
X165933418Y-90853961D01*
X165500256Y-90767800D01*
X165207744Y-90767800D01*
X164774582Y-90853961D01*
X164283375Y-91182175D01*
X164084000Y-91480561D01*
X163884625Y-91182175D01*
X163393418Y-90853961D01*
X162960256Y-90767800D01*
X162667744Y-90767800D01*
X162234582Y-90853961D01*
X161743375Y-91182175D01*
X161731184Y-91200419D01*
X161722157Y-91155035D01*
X161581809Y-90944991D01*
X161371765Y-90804643D01*
X161124000Y-90755360D01*
X159424000Y-90755360D01*
X159176235Y-90804643D01*
X158966191Y-90944991D01*
X158825843Y-91155035D01*
X158776560Y-91402800D01*
X152441510Y-91402800D01*
X152426783Y-91371442D01*
X151998524Y-90981155D01*
X151588490Y-90811324D01*
X151358600Y-90932645D01*
X151104600Y-90932645D01*
X150874710Y-90811324D01*
X150464676Y-90981155D01*
X150036417Y-91371442D01*
X149975443Y-91501278D01*
X149762225Y-91182175D01*
X149271018Y-90853961D01*
X148837856Y-90767800D01*
X148545344Y-90767800D01*
X148112182Y-90853961D01*
X147620975Y-91182175D01*
X147421600Y-91480561D01*
X147222225Y-91182175D01*
X146731018Y-90853961D01*
X146297856Y-90767800D01*
X146005344Y-90767800D01*
X145572182Y-90853961D01*
X145080975Y-91182175D01*
X145068784Y-91200419D01*
X145059757Y-91155035D01*
X144919409Y-90944991D01*
X144709365Y-90804643D01*
X144461600Y-90755360D01*
X142761600Y-90755360D01*
X142513835Y-90804643D01*
X142303791Y-90944991D01*
X142163443Y-91155035D01*
X142114160Y-91402800D01*
X130122828Y-91402800D01*
X130007439Y-91325700D01*
X130305825Y-91126325D01*
X130634039Y-90635118D01*
X130749292Y-90055700D01*
X130634039Y-89476282D01*
X130305825Y-88985075D01*
X130007439Y-88785700D01*
X130305825Y-88586325D01*
X130386049Y-88466262D01*
X131659859Y-89740073D01*
X131702259Y-89803529D01*
X131953651Y-89971504D01*
X132175336Y-90015600D01*
X132175340Y-90015600D01*
X132250187Y-90030488D01*
X132325034Y-90015600D01*
X148038689Y-90015600D01*
X148105320Y-90082231D01*
X148485726Y-90239800D01*
X148897474Y-90239800D01*
X149277880Y-90082231D01*
X149569031Y-89791080D01*
X149726600Y-89410674D01*
X149726600Y-88998926D01*
X149569031Y-88618520D01*
X149277880Y-88327369D01*
X148897474Y-88169800D01*
X148485726Y-88169800D01*
X148105320Y-88327369D01*
X147937089Y-88495600D01*
X146648111Y-88495600D01*
X146825831Y-88317880D01*
X146983400Y-87937474D01*
X146983400Y-87525726D01*
X146941595Y-87424800D01*
X147501413Y-87424800D01*
X147523843Y-87537565D01*
X147664191Y-87747609D01*
X147874235Y-87887957D01*
X148122000Y-87937240D01*
X149122000Y-87937240D01*
X149369765Y-87887957D01*
X149579809Y-87747609D01*
X149620654Y-87686480D01*
X149762302Y-87828127D01*
X149995691Y-87924800D01*
X150336250Y-87924800D01*
X150495000Y-87766050D01*
X150495000Y-86791800D01*
X150749000Y-86791800D01*
X150749000Y-87766050D01*
X150907750Y-87924800D01*
X151248309Y-87924800D01*
X151481698Y-87828127D01*
X151660327Y-87649499D01*
X151757000Y-87416110D01*
X151757000Y-86950550D01*
X151598250Y-86791800D01*
X150749000Y-86791800D01*
X150495000Y-86791800D01*
X150475000Y-86791800D01*
X150475000Y-86537800D01*
X150495000Y-86537800D01*
X150495000Y-85563550D01*
X150749000Y-85563550D01*
X150749000Y-86537800D01*
X151598250Y-86537800D01*
X151757000Y-86379050D01*
X151757000Y-85913490D01*
X151660327Y-85680101D01*
X151481698Y-85501473D01*
X151248309Y-85404800D01*
X150907750Y-85404800D01*
X150749000Y-85563550D01*
X150495000Y-85563550D01*
X150336250Y-85404800D01*
X149995691Y-85404800D01*
X149762302Y-85501473D01*
X149620654Y-85643120D01*
X149579809Y-85581991D01*
X149369765Y-85441643D01*
X149122000Y-85392360D01*
X148122000Y-85392360D01*
X147874235Y-85441643D01*
X147664191Y-85581991D01*
X147523843Y-85792035D01*
X147501413Y-85904800D01*
X146466907Y-85904800D01*
X146493205Y-85841310D01*
X146493205Y-85375750D01*
X146334455Y-85217000D01*
X145485205Y-85217000D01*
X145485205Y-85237000D01*
X145231205Y-85237000D01*
X145231205Y-85217000D01*
X145211205Y-85217000D01*
X145211205Y-84963000D01*
X145231205Y-84963000D01*
X145231205Y-83988750D01*
X145485205Y-83988750D01*
X145485205Y-84963000D01*
X146334455Y-84963000D01*
X146493205Y-84804250D01*
X146493205Y-84338690D01*
X146396532Y-84105301D01*
X146217903Y-83926673D01*
X146146335Y-83897028D01*
X146221903Y-83865727D01*
X146400532Y-83687099D01*
X146497205Y-83453710D01*
X146497205Y-82988150D01*
X146338455Y-82829400D01*
X145489205Y-82829400D01*
X145489205Y-83803650D01*
X145579755Y-83894200D01*
X145485205Y-83988750D01*
X145231205Y-83988750D01*
X145140655Y-83898200D01*
X145235205Y-83803650D01*
X145235205Y-82829400D01*
X145215205Y-82829400D01*
X145215205Y-82575400D01*
X145235205Y-82575400D01*
X145235205Y-81601150D01*
X145489205Y-81601150D01*
X145489205Y-82575400D01*
X146338455Y-82575400D01*
X146497205Y-82416650D01*
X146497205Y-81951090D01*
X146400532Y-81717701D01*
X146221903Y-81539073D01*
X145988514Y-81442400D01*
X145647955Y-81442400D01*
X145489205Y-81601150D01*
X145235205Y-81601150D01*
X145076455Y-81442400D01*
X144735896Y-81442400D01*
X144502507Y-81539073D01*
X144360859Y-81680720D01*
X144320014Y-81619591D01*
X144109970Y-81479243D01*
X143862205Y-81429960D01*
X142862205Y-81429960D01*
X142614440Y-81479243D01*
X142404396Y-81619591D01*
X142264048Y-81829635D01*
X142241618Y-81942400D01*
X138935826Y-81942400D01*
X139029692Y-81470500D01*
X138977906Y-81210150D01*
X148324200Y-81210150D01*
X148324200Y-81900710D01*
X148420873Y-82134099D01*
X148599502Y-82312727D01*
X148832891Y-82409400D01*
X149523450Y-82409400D01*
X149682200Y-82250650D01*
X149682200Y-81051400D01*
X149936200Y-81051400D01*
X149936200Y-82250650D01*
X150094950Y-82409400D01*
X150785509Y-82409400D01*
X151018898Y-82312727D01*
X151197527Y-82134099D01*
X151294200Y-81900710D01*
X151294200Y-81464150D01*
X151749600Y-81464150D01*
X151749600Y-81804709D01*
X151846273Y-82038098D01*
X152024901Y-82216727D01*
X152258290Y-82313400D01*
X152723850Y-82313400D01*
X152882600Y-82154650D01*
X152882600Y-81305400D01*
X153136600Y-81305400D01*
X153136600Y-82154650D01*
X153295350Y-82313400D01*
X153760910Y-82313400D01*
X153994299Y-82216727D01*
X154172927Y-82038098D01*
X154269600Y-81804709D01*
X154269600Y-81464150D01*
X154110850Y-81305400D01*
X153136600Y-81305400D01*
X152882600Y-81305400D01*
X151908350Y-81305400D01*
X151749600Y-81464150D01*
X151294200Y-81464150D01*
X151294200Y-81210150D01*
X151135450Y-81051400D01*
X149936200Y-81051400D01*
X149682200Y-81051400D01*
X148482950Y-81051400D01*
X148324200Y-81210150D01*
X138977906Y-81210150D01*
X138914439Y-80891082D01*
X138586225Y-80399875D01*
X138267122Y-80186657D01*
X138396958Y-80125683D01*
X138787245Y-79697424D01*
X138957076Y-79287390D01*
X138835755Y-79057500D01*
X137642600Y-79057500D01*
X137642600Y-79077500D01*
X137388600Y-79077500D01*
X137388600Y-79057500D01*
X136195445Y-79057500D01*
X136074124Y-79287390D01*
X136243955Y-79697424D01*
X136634242Y-80125683D01*
X136764078Y-80186657D01*
X136444975Y-80399875D01*
X136116761Y-80891082D01*
X136001508Y-81470500D01*
X136116761Y-82049918D01*
X136444975Y-82541125D01*
X136743361Y-82740500D01*
X136444975Y-82939875D01*
X136116761Y-83431082D01*
X136001508Y-84010500D01*
X136116761Y-84589918D01*
X136444975Y-85081125D01*
X136936182Y-85409339D01*
X137369344Y-85495500D01*
X137661856Y-85495500D01*
X138095018Y-85409339D01*
X138586225Y-85081125D01*
X138914439Y-84589918D01*
X139029692Y-84010500D01*
X138956809Y-83644092D01*
X139138502Y-83462400D01*
X142241618Y-83462400D01*
X142264048Y-83575165D01*
X142404396Y-83785209D01*
X142568504Y-83894864D01*
X142400396Y-84007191D01*
X142260048Y-84217235D01*
X142210765Y-84465000D01*
X142210765Y-85715000D01*
X142248518Y-85904800D01*
X132072511Y-85904800D01*
X131955080Y-85787369D01*
X131574674Y-85629800D01*
X131162926Y-85629800D01*
X130847139Y-85760603D01*
X130845199Y-85750851D01*
X130845199Y-85750847D01*
X130801103Y-85529162D01*
X130676342Y-85342445D01*
X130749292Y-84975700D01*
X130634039Y-84396282D01*
X130305825Y-83905075D01*
X130007439Y-83705700D01*
X130305825Y-83506325D01*
X130504892Y-83208400D01*
X134271889Y-83208400D01*
X134389320Y-83325831D01*
X134769726Y-83483400D01*
X135181474Y-83483400D01*
X135561880Y-83325831D01*
X135853031Y-83034680D01*
X136010600Y-82654274D01*
X136010600Y-82242526D01*
X135853031Y-81862120D01*
X135561880Y-81570969D01*
X135181474Y-81413400D01*
X134769726Y-81413400D01*
X134389320Y-81570969D01*
X134271889Y-81688400D01*
X130521864Y-81688400D01*
X130305825Y-81365075D01*
X130007439Y-81165700D01*
X130305825Y-80966325D01*
X130634039Y-80475118D01*
X130636012Y-80465200D01*
X134119489Y-80465200D01*
X134236920Y-80582631D01*
X134617326Y-80740200D01*
X135029074Y-80740200D01*
X135409480Y-80582631D01*
X135700631Y-80291480D01*
X135858200Y-79911074D01*
X135858200Y-79499326D01*
X135700631Y-79118920D01*
X135409480Y-78827769D01*
X135029074Y-78670200D01*
X134617326Y-78670200D01*
X134236920Y-78827769D01*
X134119489Y-78945200D01*
X130386090Y-78945200D01*
X130305825Y-78825075D01*
X130007439Y-78625700D01*
X130305825Y-78426325D01*
X130634039Y-77935118D01*
X130646117Y-77874400D01*
X132493889Y-77874400D01*
X132611320Y-77991831D01*
X132991726Y-78149400D01*
X133403474Y-78149400D01*
X133783880Y-77991831D01*
X134075031Y-77700680D01*
X134232600Y-77320274D01*
X134232600Y-77163200D01*
X136245908Y-77163200D01*
X136444975Y-77461125D01*
X136764078Y-77674343D01*
X136634242Y-77735317D01*
X136243955Y-78163576D01*
X136074124Y-78573610D01*
X136195445Y-78803500D01*
X137388600Y-78803500D01*
X137388600Y-78783500D01*
X137642600Y-78783500D01*
X137642600Y-78803500D01*
X138835755Y-78803500D01*
X138957076Y-78573610D01*
X138787245Y-78163576D01*
X138396958Y-77735317D01*
X138267122Y-77674343D01*
X138586225Y-77461125D01*
X138914439Y-76969918D01*
X139029692Y-76390500D01*
X138914439Y-75811082D01*
X138897346Y-75785501D01*
X145730702Y-75785501D01*
X146274073Y-76328873D01*
X146316473Y-76392329D01*
X146567865Y-76560304D01*
X146789550Y-76604400D01*
X146789554Y-76604400D01*
X146864401Y-76619288D01*
X146939248Y-76604400D01*
X148531022Y-76604400D01*
X148738575Y-76915025D01*
X149036961Y-77114400D01*
X148738575Y-77313775D01*
X148410361Y-77804982D01*
X148295108Y-78384400D01*
X148410361Y-78963818D01*
X148738575Y-79455025D01*
X148760233Y-79469496D01*
X148599502Y-79536073D01*
X148420873Y-79714701D01*
X148324200Y-79948090D01*
X148324200Y-80638650D01*
X148482950Y-80797400D01*
X149682200Y-80797400D01*
X149682200Y-80777400D01*
X149936200Y-80777400D01*
X149936200Y-80797400D01*
X151135450Y-80797400D01*
X151294200Y-80638650D01*
X151294200Y-79948090D01*
X151292034Y-79942860D01*
X151314457Y-79938400D01*
X151794618Y-79938400D01*
X151926791Y-80136209D01*
X151987920Y-80177054D01*
X151846273Y-80318702D01*
X151749600Y-80552091D01*
X151749600Y-80892650D01*
X151908350Y-81051400D01*
X152882600Y-81051400D01*
X152882600Y-81031400D01*
X153136600Y-81031400D01*
X153136600Y-81051400D01*
X154110850Y-81051400D01*
X154269600Y-80892650D01*
X154269600Y-80552091D01*
X154172927Y-80318702D01*
X154031280Y-80177054D01*
X154092409Y-80136209D01*
X154144132Y-80058800D01*
X164650289Y-80058800D01*
X164767720Y-80176231D01*
X165148126Y-80333800D01*
X165559874Y-80333800D01*
X165940280Y-80176231D01*
X166231431Y-79885080D01*
X166389000Y-79504674D01*
X166389000Y-79092926D01*
X166231431Y-78712520D01*
X165940280Y-78421369D01*
X165559874Y-78263800D01*
X165148126Y-78263800D01*
X164767720Y-78421369D01*
X164650289Y-78538800D01*
X154254272Y-78538800D01*
X154232757Y-78430635D01*
X154092409Y-78220591D01*
X153882365Y-78080243D01*
X153634600Y-78030960D01*
X152384600Y-78030960D01*
X152136835Y-78080243D01*
X151926791Y-78220591D01*
X151794618Y-78418400D01*
X151554412Y-78418400D01*
X151274347Y-78138335D01*
X151208039Y-77804982D01*
X150879825Y-77313775D01*
X150581439Y-77114400D01*
X150879825Y-76915025D01*
X151208039Y-76423818D01*
X151323292Y-75844400D01*
X151208039Y-75264982D01*
X150879825Y-74773775D01*
X150581439Y-74574400D01*
X150879825Y-74375025D01*
X151208039Y-73883818D01*
X151323292Y-73304400D01*
X151208039Y-72724982D01*
X150879825Y-72233775D01*
X150581439Y-72034400D01*
X150879825Y-71835025D01*
X151208039Y-71343818D01*
X151323292Y-70764400D01*
X151208039Y-70184982D01*
X150879825Y-69693775D01*
X150388618Y-69365561D01*
X149955456Y-69279400D01*
X149662944Y-69279400D01*
X149229782Y-69365561D01*
X148738575Y-69693775D01*
X148410361Y-70184982D01*
X148295108Y-70764400D01*
X148410361Y-71343818D01*
X148738575Y-71835025D01*
X149036961Y-72034400D01*
X148738575Y-72233775D01*
X148687594Y-72310073D01*
X147280851Y-70903331D01*
X147238449Y-70839872D01*
X146987057Y-70671897D01*
X146765372Y-70627801D01*
X146765367Y-70627801D01*
X146690520Y-70612913D01*
X146615673Y-70627801D01*
X138550600Y-70627801D01*
X138550600Y-70456926D01*
X138393031Y-70076520D01*
X138051080Y-69734569D01*
X137670674Y-69577000D01*
X137258926Y-69577000D01*
X136878520Y-69734569D01*
X136761089Y-69852000D01*
X132165304Y-69852000D01*
X130415495Y-68102192D01*
X130634039Y-67775118D01*
X130727088Y-67307326D01*
X130943400Y-67307326D01*
X130943400Y-67719074D01*
X131100969Y-68099480D01*
X131392120Y-68390631D01*
X131772526Y-68548200D01*
X132184274Y-68548200D01*
X132564680Y-68390631D01*
X132682111Y-68273200D01*
X137142855Y-68273200D01*
X137170871Y-68315129D01*
X137422263Y-68483104D01*
X137643948Y-68527200D01*
X137643952Y-68527200D01*
X137718799Y-68542088D01*
X137793646Y-68527200D01*
X145149653Y-68527200D01*
X145224500Y-68542088D01*
X145299347Y-68527200D01*
X145299352Y-68527200D01*
X145363199Y-68514500D01*
X153385389Y-68514500D01*
X153490120Y-68619231D01*
X153870526Y-68776800D01*
X154282274Y-68776800D01*
X154662680Y-68619231D01*
X154953831Y-68328080D01*
X155111400Y-67947674D01*
X155111400Y-67535926D01*
X154953831Y-67155520D01*
X154662680Y-66864369D01*
X154282274Y-66706800D01*
X153870526Y-66706800D01*
X153490120Y-66864369D01*
X153359989Y-66994500D01*
X145312048Y-66994500D01*
X145237200Y-66979612D01*
X145162352Y-66994500D01*
X145162348Y-66994500D01*
X145098501Y-67007200D01*
X138040745Y-67007200D01*
X138012729Y-66965271D01*
X137761337Y-66797296D01*
X137539652Y-66753200D01*
X137539647Y-66753200D01*
X137464800Y-66738312D01*
X137389953Y-66753200D01*
X132682111Y-66753200D01*
X132564680Y-66635769D01*
X132184274Y-66478200D01*
X131772526Y-66478200D01*
X131392120Y-66635769D01*
X131100969Y-66926920D01*
X130943400Y-67307326D01*
X130727088Y-67307326D01*
X130749292Y-67195700D01*
X130634039Y-66616282D01*
X130305825Y-66125075D01*
X130007439Y-65925700D01*
X130305825Y-65726325D01*
X130634039Y-65235118D01*
X130749292Y-64655700D01*
X130634039Y-64076282D01*
X130305825Y-63585075D01*
X130007439Y-63385700D01*
X130305825Y-63186325D01*
X130589406Y-62761917D01*
X130614120Y-62786631D01*
X130994526Y-62944200D01*
X131406274Y-62944200D01*
X131786680Y-62786631D01*
X131904111Y-62669200D01*
X132744618Y-62669200D01*
X132876791Y-62867009D01*
X133086835Y-63007357D01*
X133334600Y-63056640D01*
X134584600Y-63056640D01*
X134832365Y-63007357D01*
X135042409Y-62867009D01*
X135174582Y-62669200D01*
X136373760Y-62669200D01*
X136373760Y-62826000D01*
X136423043Y-63073765D01*
X136563391Y-63283809D01*
X136773435Y-63424157D01*
X137021200Y-63473440D01*
X138721200Y-63473440D01*
X138968965Y-63424157D01*
X139179009Y-63283809D01*
X139319357Y-63073765D01*
X139368640Y-62826000D01*
X139368640Y-62618400D01*
X140059818Y-62618400D01*
X140191991Y-62816209D01*
X140402035Y-62956557D01*
X140649800Y-63005840D01*
X141899800Y-63005840D01*
X142147565Y-62956557D01*
X142357609Y-62816209D01*
X142497957Y-62606165D01*
X142500417Y-62593800D01*
X144097446Y-62593800D01*
X144129391Y-62641609D01*
X144339435Y-62781957D01*
X144587200Y-62831240D01*
X145165256Y-62831240D01*
X145336863Y-62945904D01*
X145558548Y-62990000D01*
X145558552Y-62990000D01*
X145633399Y-63004888D01*
X145708246Y-62990000D01*
X164650289Y-62990000D01*
X164767720Y-63107431D01*
X165148126Y-63265000D01*
X165559874Y-63265000D01*
X165940280Y-63107431D01*
X166231431Y-62816280D01*
X166389000Y-62435874D01*
X166389000Y-62024126D01*
X166231431Y-61643720D01*
X165940280Y-61352569D01*
X165559874Y-61195000D01*
X165148126Y-61195000D01*
X164767720Y-61352569D01*
X164650289Y-61470000D01*
X146531895Y-61470000D01*
X146485357Y-61236035D01*
X146345009Y-61025991D01*
X146176089Y-60913121D01*
X166733000Y-60913121D01*
X166733001Y-63054880D01*
X166833667Y-63560963D01*
X167217136Y-64134865D01*
X167791038Y-64518334D01*
X168468000Y-64652990D01*
X169144963Y-64518334D01*
X169718865Y-64134865D01*
X170102334Y-63560963D01*
X170203000Y-63054880D01*
X170203000Y-62484000D01*
X173099010Y-62484000D01*
X173233666Y-63160963D01*
X173617135Y-63734865D01*
X174191037Y-64118334D01*
X174697120Y-64219000D01*
X176838880Y-64219000D01*
X177344963Y-64118334D01*
X177918865Y-63734865D01*
X178302334Y-63160963D01*
X178436990Y-62484000D01*
X178302334Y-61807037D01*
X177918865Y-61233135D01*
X177344963Y-60849666D01*
X176838880Y-60749000D01*
X174697120Y-60749000D01*
X174191037Y-60849666D01*
X173617135Y-61233135D01*
X173233666Y-61807037D01*
X173099010Y-62484000D01*
X170203000Y-62484000D01*
X170203000Y-60913120D01*
X170102334Y-60407037D01*
X169718865Y-59833135D01*
X169144962Y-59449666D01*
X168468000Y-59315010D01*
X167791037Y-59449666D01*
X167217135Y-59833135D01*
X166833666Y-60407038D01*
X166733000Y-60913121D01*
X146176089Y-60913121D01*
X146134965Y-60885643D01*
X146125700Y-60883800D01*
X146134965Y-60881957D01*
X146345009Y-60741609D01*
X146485357Y-60531565D01*
X146534640Y-60283800D01*
X146534640Y-59583800D01*
X146485357Y-59336035D01*
X146345009Y-59125991D01*
X146183416Y-59018017D01*
X146272200Y-58803674D01*
X146272200Y-58391926D01*
X146114631Y-58011520D01*
X145823480Y-57720369D01*
X145443074Y-57562800D01*
X145031326Y-57562800D01*
X144650920Y-57720369D01*
X144359769Y-58011520D01*
X144202200Y-58391926D01*
X144202200Y-58803674D01*
X144290984Y-59018017D01*
X144129391Y-59125991D01*
X143989043Y-59336035D01*
X143939760Y-59583800D01*
X143939760Y-60283800D01*
X143989043Y-60531565D01*
X144129391Y-60741609D01*
X144339435Y-60881957D01*
X144348700Y-60883800D01*
X144339435Y-60885643D01*
X144129391Y-61025991D01*
X144097446Y-61073800D01*
X142473344Y-61073800D01*
X142357609Y-60900591D01*
X142296480Y-60859746D01*
X142438127Y-60718098D01*
X142534800Y-60484709D01*
X142534800Y-60144150D01*
X142376050Y-59985400D01*
X141401800Y-59985400D01*
X141401800Y-60005400D01*
X141147800Y-60005400D01*
X141147800Y-59985400D01*
X140173550Y-59985400D01*
X140014800Y-60144150D01*
X140014800Y-60484709D01*
X140111473Y-60718098D01*
X140253120Y-60859746D01*
X140191991Y-60900591D01*
X140059818Y-61098400D01*
X139363150Y-61098400D01*
X139319357Y-60878235D01*
X139179009Y-60668191D01*
X138968965Y-60527843D01*
X138865492Y-60507261D01*
X139142845Y-60202924D01*
X139312676Y-59792890D01*
X139191355Y-59563000D01*
X137998200Y-59563000D01*
X137998200Y-59583000D01*
X137744200Y-59583000D01*
X137744200Y-59563000D01*
X136551045Y-59563000D01*
X136429724Y-59792890D01*
X136599555Y-60202924D01*
X136876908Y-60507261D01*
X136773435Y-60527843D01*
X136563391Y-60668191D01*
X136423043Y-60878235D01*
X136373760Y-61126000D01*
X136373760Y-61149200D01*
X135174582Y-61149200D01*
X135042409Y-60951391D01*
X134981280Y-60910546D01*
X135122927Y-60768898D01*
X135219600Y-60535509D01*
X135219600Y-60194950D01*
X135060850Y-60036200D01*
X134086600Y-60036200D01*
X134086600Y-60056200D01*
X133832600Y-60056200D01*
X133832600Y-60036200D01*
X132858350Y-60036200D01*
X132699600Y-60194950D01*
X132699600Y-60535509D01*
X132796273Y-60768898D01*
X132937920Y-60910546D01*
X132876791Y-60951391D01*
X132744618Y-61149200D01*
X131904111Y-61149200D01*
X131786680Y-61031769D01*
X131406274Y-60874200D01*
X130994526Y-60874200D01*
X130614120Y-61031769D01*
X130423981Y-61221908D01*
X130305825Y-61045075D01*
X130007439Y-60845700D01*
X130305825Y-60646325D01*
X130634039Y-60155118D01*
X130749292Y-59575700D01*
X130691049Y-59282891D01*
X132699600Y-59282891D01*
X132699600Y-59623450D01*
X132858350Y-59782200D01*
X133832600Y-59782200D01*
X133832600Y-58932950D01*
X134086600Y-58932950D01*
X134086600Y-59782200D01*
X135060850Y-59782200D01*
X135219600Y-59623450D01*
X135219600Y-59282891D01*
X135122927Y-59049502D01*
X134944299Y-58870873D01*
X134710910Y-58774200D01*
X134245350Y-58774200D01*
X134086600Y-58932950D01*
X133832600Y-58932950D01*
X133673850Y-58774200D01*
X133208290Y-58774200D01*
X132974901Y-58870873D01*
X132796273Y-59049502D01*
X132699600Y-59282891D01*
X130691049Y-59282891D01*
X130634039Y-58996282D01*
X130305825Y-58505075D01*
X130007439Y-58305700D01*
X130305825Y-58106325D01*
X130634039Y-57615118D01*
X130749292Y-57035700D01*
X130634039Y-56456282D01*
X130305825Y-55965075D01*
X130007439Y-55765700D01*
X130305825Y-55566325D01*
X130634039Y-55075118D01*
X130749292Y-54495700D01*
X130634039Y-53916282D01*
X130305825Y-53425075D01*
X130287581Y-53412884D01*
X130332965Y-53403857D01*
X130543009Y-53263509D01*
X130553102Y-53248404D01*
X130943400Y-53638702D01*
X130943400Y-53850674D01*
X131100969Y-54231080D01*
X131392120Y-54522231D01*
X131772526Y-54679800D01*
X132184274Y-54679800D01*
X132564680Y-54522231D01*
X132855831Y-54231080D01*
X133013400Y-53850674D01*
X133013400Y-53438926D01*
X132855831Y-53058520D01*
X132564680Y-52767369D01*
X132184274Y-52609800D01*
X132064102Y-52609800D01*
X130925531Y-51471230D01*
X130883129Y-51407771D01*
X130732640Y-51307217D01*
X130732640Y-51105700D01*
X130683357Y-50857935D01*
X130543009Y-50647891D01*
X130332965Y-50507543D01*
X130085200Y-50458260D01*
X128385200Y-50458260D01*
X128137435Y-50507543D01*
X127927391Y-50647891D01*
X127787043Y-50857935D01*
X127778016Y-50903319D01*
X127765825Y-50885075D01*
X127274618Y-50556861D01*
X126841456Y-50470700D01*
X126548944Y-50470700D01*
X126115782Y-50556861D01*
X125624575Y-50885075D01*
X125296361Y-51376282D01*
X125181108Y-51955700D01*
X125296361Y-52535118D01*
X125624575Y-53026325D01*
X125922961Y-53225700D01*
X125624575Y-53425075D01*
X125442480Y-53697600D01*
X122014111Y-53697600D01*
X121896680Y-53580169D01*
X121516274Y-53422600D01*
X121104526Y-53422600D01*
X120724120Y-53580169D01*
X120432969Y-53871320D01*
X120275400Y-54251726D01*
X120275400Y-54663474D01*
X120432969Y-55043880D01*
X120724120Y-55335031D01*
X121104526Y-55492600D01*
X121516274Y-55492600D01*
X121896680Y-55335031D01*
X122014111Y-55217600D01*
X125391564Y-55217600D01*
X125624575Y-55566325D01*
X125922961Y-55765700D01*
X125624575Y-55965075D01*
X125510367Y-56136000D01*
X122826911Y-56136000D01*
X122709480Y-56018569D01*
X122329074Y-55861000D01*
X121917326Y-55861000D01*
X121536920Y-56018569D01*
X121245769Y-56309720D01*
X121088200Y-56690126D01*
X121088200Y-57101874D01*
X121245769Y-57482280D01*
X121536920Y-57773431D01*
X121917326Y-57931000D01*
X122329074Y-57931000D01*
X122709480Y-57773431D01*
X122826911Y-57656000D01*
X125323677Y-57656000D01*
X125624575Y-58106325D01*
X125922961Y-58305700D01*
X125624575Y-58505075D01*
X125442480Y-58777600D01*
X122115711Y-58777600D01*
X121998280Y-58660169D01*
X121617874Y-58502600D01*
X121206126Y-58502600D01*
X120825720Y-58660169D01*
X120534569Y-58951320D01*
X120377000Y-59331726D01*
X120377000Y-59743474D01*
X120534569Y-60123880D01*
X120825720Y-60415031D01*
X121206126Y-60572600D01*
X121617874Y-60572600D01*
X121998280Y-60415031D01*
X122115711Y-60297600D01*
X125391564Y-60297600D01*
X125624575Y-60646325D01*
X125922961Y-60845700D01*
X125624575Y-61045075D01*
X125476423Y-61266800D01*
X122268111Y-61266800D01*
X122150680Y-61149369D01*
X121770274Y-60991800D01*
X121358526Y-60991800D01*
X120978120Y-61149369D01*
X120686969Y-61440520D01*
X120529400Y-61820926D01*
X120529400Y-62232674D01*
X120686969Y-62613080D01*
X120978120Y-62904231D01*
X121358526Y-63061800D01*
X121770274Y-63061800D01*
X122150680Y-62904231D01*
X122268111Y-62786800D01*
X125357621Y-62786800D01*
X125624575Y-63186325D01*
X125922961Y-63385700D01*
X125624575Y-63585075D01*
X125476423Y-63806800D01*
X122217311Y-63806800D01*
X122099880Y-63689369D01*
X121719474Y-63531800D01*
X121307726Y-63531800D01*
X120927320Y-63689369D01*
X120636169Y-63980520D01*
X120478600Y-64360926D01*
X120478600Y-64772674D01*
X120636169Y-65153080D01*
X120927320Y-65444231D01*
X121307726Y-65601800D01*
X121719474Y-65601800D01*
X122099880Y-65444231D01*
X122217311Y-65326800D01*
X125357621Y-65326800D01*
X125624575Y-65726325D01*
X125922961Y-65925700D01*
X125624575Y-66125075D01*
X125476423Y-66346800D01*
X122318911Y-66346800D01*
X122201480Y-66229369D01*
X121821074Y-66071800D01*
X121409326Y-66071800D01*
X121028920Y-66229369D01*
X120737769Y-66520520D01*
X120580200Y-66900926D01*
X120580200Y-67312674D01*
X120737769Y-67693080D01*
X120845388Y-67800699D01*
X111904911Y-67800699D01*
X111787480Y-67683268D01*
X111407074Y-67525699D01*
X110995326Y-67525699D01*
X110614920Y-67683268D01*
X110323769Y-67974419D01*
X110166200Y-68354825D01*
X107650195Y-68354825D01*
X107634841Y-51105700D01*
X109906960Y-51105700D01*
X109906960Y-52805700D01*
X109956243Y-53053465D01*
X110096591Y-53263509D01*
X110306635Y-53403857D01*
X110554400Y-53453140D01*
X112254400Y-53453140D01*
X112502165Y-53403857D01*
X112712209Y-53263509D01*
X112852557Y-53053465D01*
X112861584Y-53008081D01*
X112873775Y-53026325D01*
X113364982Y-53354539D01*
X113798144Y-53440700D01*
X114090656Y-53440700D01*
X114523818Y-53354539D01*
X115015025Y-53026325D01*
X115214400Y-52727939D01*
X115413775Y-53026325D01*
X115904982Y-53354539D01*
X116338144Y-53440700D01*
X116630656Y-53440700D01*
X117063818Y-53354539D01*
X117555025Y-53026325D01*
X117754400Y-52727939D01*
X117953775Y-53026325D01*
X118444982Y-53354539D01*
X118878144Y-53440700D01*
X119170656Y-53440700D01*
X119603818Y-53354539D01*
X120095025Y-53026325D01*
X120423239Y-52535118D01*
X120538492Y-51955700D01*
X120423239Y-51376282D01*
X120095025Y-50885075D01*
X119603818Y-50556861D01*
X119170656Y-50470700D01*
X118878144Y-50470700D01*
X118444982Y-50556861D01*
X117953775Y-50885075D01*
X117754400Y-51183461D01*
X117555025Y-50885075D01*
X117063818Y-50556861D01*
X116630656Y-50470700D01*
X116338144Y-50470700D01*
X115904982Y-50556861D01*
X115413775Y-50885075D01*
X115214400Y-51183461D01*
X115015025Y-50885075D01*
X114523818Y-50556861D01*
X114090656Y-50470700D01*
X113798144Y-50470700D01*
X113364982Y-50556861D01*
X112873775Y-50885075D01*
X112861584Y-50903319D01*
X112852557Y-50857935D01*
X112712209Y-50647891D01*
X112502165Y-50507543D01*
X112254400Y-50458260D01*
X110554400Y-50458260D01*
X110306635Y-50507543D01*
X110096591Y-50647891D01*
X109956243Y-50857935D01*
X109906960Y-51105700D01*
X107634841Y-51105700D01*
X107631854Y-47749326D01*
X111233000Y-47749326D01*
X111233000Y-48161074D01*
X111390569Y-48541480D01*
X111681720Y-48832631D01*
X112062126Y-48990200D01*
X112473874Y-48990200D01*
X112854280Y-48832631D01*
X112971711Y-48715200D01*
X115910289Y-48715200D01*
X116011191Y-48866209D01*
X116221235Y-49006557D01*
X116469000Y-49055840D01*
X117719000Y-49055840D01*
X117966765Y-49006557D01*
X118176809Y-48866209D01*
X118317157Y-48656165D01*
X118325624Y-48613600D01*
X130461889Y-48613600D01*
X130579320Y-48731031D01*
X130959726Y-48888600D01*
X131371474Y-48888600D01*
X131751880Y-48731031D01*
X132043031Y-48439880D01*
X132200600Y-48059474D01*
X132200600Y-47647726D01*
X132043031Y-47267320D01*
X131751880Y-46976169D01*
X131371474Y-46818600D01*
X130959726Y-46818600D01*
X130579320Y-46976169D01*
X130461889Y-47093600D01*
X118272365Y-47093600D01*
X118176809Y-46950591D01*
X118115680Y-46909746D01*
X118257327Y-46768098D01*
X118354000Y-46534709D01*
X118354000Y-46194150D01*
X118195250Y-46035400D01*
X117221000Y-46035400D01*
X117221000Y-46055400D01*
X116967000Y-46055400D01*
X116967000Y-46035400D01*
X115992750Y-46035400D01*
X115834000Y-46194150D01*
X115834000Y-46534709D01*
X115930673Y-46768098D01*
X116072320Y-46909746D01*
X116011191Y-46950591D01*
X115870843Y-47160635D01*
X115863968Y-47195200D01*
X112971711Y-47195200D01*
X112854280Y-47077769D01*
X112473874Y-46920200D01*
X112062126Y-46920200D01*
X111681720Y-47077769D01*
X111390569Y-47368920D01*
X111233000Y-47749326D01*
X107631854Y-47749326D01*
X107629659Y-45282091D01*
X115834000Y-45282091D01*
X115834000Y-45622650D01*
X115992750Y-45781400D01*
X116967000Y-45781400D01*
X116967000Y-44932150D01*
X117221000Y-44932150D01*
X117221000Y-45781400D01*
X118195250Y-45781400D01*
X118354000Y-45622650D01*
X118354000Y-45282091D01*
X118257327Y-45048702D01*
X118078699Y-44870073D01*
X117845310Y-44773400D01*
X117379750Y-44773400D01*
X117221000Y-44932150D01*
X116967000Y-44932150D01*
X116808250Y-44773400D01*
X116342690Y-44773400D01*
X116109301Y-44870073D01*
X115930673Y-45048702D01*
X115834000Y-45282091D01*
X107629659Y-45282091D01*
X107627785Y-43177326D01*
X113569800Y-43177326D01*
X113569800Y-43589074D01*
X113727369Y-43969480D01*
X114018520Y-44260631D01*
X114398926Y-44418200D01*
X114810674Y-44418200D01*
X115191080Y-44260631D01*
X115308511Y-44143200D01*
X124746955Y-44143200D01*
X124821802Y-44158088D01*
X124896649Y-44143200D01*
X124896654Y-44143200D01*
X125118339Y-44099104D01*
X125369731Y-43931129D01*
X125412133Y-43867670D01*
X125498804Y-43780999D01*
X136439657Y-43780999D01*
X136357108Y-44196000D01*
X136472361Y-44775418D01*
X136800575Y-45266625D01*
X137098961Y-45466000D01*
X136800575Y-45665375D01*
X136615573Y-45942250D01*
X136611560Y-45943049D01*
X136527080Y-45858569D01*
X136146674Y-45701000D01*
X135734926Y-45701000D01*
X135354520Y-45858569D01*
X135063369Y-46149720D01*
X134905800Y-46530126D01*
X134905800Y-46941874D01*
X135063369Y-47322280D01*
X135354520Y-47613431D01*
X135734926Y-47771000D01*
X136146674Y-47771000D01*
X136527080Y-47613431D01*
X136613646Y-47526865D01*
X136800575Y-47806625D01*
X137098961Y-48006000D01*
X136800575Y-48205375D01*
X136615573Y-48482250D01*
X136540898Y-48497104D01*
X136540893Y-48497104D01*
X136445897Y-48516000D01*
X135526911Y-48516000D01*
X135409480Y-48398569D01*
X135029074Y-48241000D01*
X134617326Y-48241000D01*
X134236920Y-48398569D01*
X133945769Y-48689720D01*
X133788200Y-49070126D01*
X133788200Y-49481874D01*
X133945769Y-49862280D01*
X134236920Y-50153431D01*
X134617326Y-50311000D01*
X135029074Y-50311000D01*
X135409480Y-50153431D01*
X135526911Y-50036000D01*
X136522002Y-50036000D01*
X136596849Y-50050888D01*
X136602252Y-50049813D01*
X136800575Y-50346625D01*
X137098961Y-50546000D01*
X136800575Y-50745375D01*
X136615573Y-51022250D01*
X136540898Y-51037104D01*
X134385036Y-51037104D01*
X134224644Y-51005200D01*
X134224639Y-51005200D01*
X134149792Y-50990312D01*
X134074945Y-51005200D01*
X133850511Y-51005200D01*
X133733080Y-50887769D01*
X133352674Y-50730200D01*
X132940926Y-50730200D01*
X132560520Y-50887769D01*
X132269369Y-51178920D01*
X132111800Y-51559326D01*
X132111800Y-51971074D01*
X132269369Y-52351480D01*
X132560520Y-52642631D01*
X132940926Y-52800200D01*
X133352674Y-52800200D01*
X133733080Y-52642631D01*
X133850511Y-52525200D01*
X133946452Y-52525200D01*
X134106844Y-52557104D01*
X134106848Y-52557104D01*
X134181695Y-52571992D01*
X134256542Y-52557104D01*
X136427006Y-52557104D01*
X136596849Y-52590888D01*
X136602252Y-52589813D01*
X136800575Y-52886625D01*
X137098961Y-53086000D01*
X136800575Y-53285375D01*
X136593022Y-53596000D01*
X134764911Y-53596000D01*
X134596680Y-53427769D01*
X134216274Y-53270200D01*
X133804526Y-53270200D01*
X133424120Y-53427769D01*
X133132969Y-53718920D01*
X132975400Y-54099326D01*
X132975400Y-54511074D01*
X133132969Y-54891480D01*
X133424120Y-55182631D01*
X133804526Y-55340200D01*
X134216274Y-55340200D01*
X134596680Y-55182631D01*
X134663311Y-55116000D01*
X136593022Y-55116000D01*
X136800575Y-55426625D01*
X137098961Y-55626000D01*
X136800575Y-55825375D01*
X136472361Y-56316582D01*
X136357108Y-56896000D01*
X136472361Y-57475418D01*
X136800575Y-57966625D01*
X137119678Y-58179843D01*
X136989842Y-58240817D01*
X136599555Y-58669076D01*
X136429724Y-59079110D01*
X136551045Y-59309000D01*
X137744200Y-59309000D01*
X137744200Y-59289000D01*
X137998200Y-59289000D01*
X137998200Y-59309000D01*
X139191355Y-59309000D01*
X139231942Y-59232091D01*
X140014800Y-59232091D01*
X140014800Y-59572650D01*
X140173550Y-59731400D01*
X141147800Y-59731400D01*
X141147800Y-58882150D01*
X141401800Y-58882150D01*
X141401800Y-59731400D01*
X142376050Y-59731400D01*
X142534800Y-59572650D01*
X142534800Y-59232091D01*
X142438127Y-58998702D01*
X142259499Y-58820073D01*
X142026110Y-58723400D01*
X141560550Y-58723400D01*
X141401800Y-58882150D01*
X141147800Y-58882150D01*
X140989050Y-58723400D01*
X140523490Y-58723400D01*
X140290101Y-58820073D01*
X140111473Y-58998702D01*
X140014800Y-59232091D01*
X139231942Y-59232091D01*
X139312676Y-59079110D01*
X139142845Y-58669076D01*
X138752558Y-58240817D01*
X138622722Y-58179843D01*
X138941825Y-57966625D01*
X139270039Y-57475418D01*
X139385292Y-56896000D01*
X139270039Y-56316582D01*
X138941825Y-55825375D01*
X138643439Y-55626000D01*
X138941825Y-55426625D01*
X139270039Y-54935418D01*
X139385292Y-54356000D01*
X139270039Y-53776582D01*
X138941825Y-53285375D01*
X138643439Y-53086000D01*
X138941825Y-52886625D01*
X139270039Y-52395418D01*
X139385292Y-51816000D01*
X139270039Y-51236582D01*
X138941825Y-50745375D01*
X138643439Y-50546000D01*
X138941825Y-50346625D01*
X139270039Y-49855418D01*
X139385292Y-49276000D01*
X139270039Y-48696582D01*
X138941825Y-48205375D01*
X138643439Y-48006000D01*
X138941825Y-47806625D01*
X139270039Y-47315418D01*
X139385292Y-46736000D01*
X139270039Y-46156582D01*
X138941825Y-45665375D01*
X138643439Y-45466000D01*
X138941825Y-45266625D01*
X139270039Y-44775418D01*
X139385292Y-44196000D01*
X139327011Y-43903001D01*
X142741754Y-43903001D01*
X142816601Y-43917889D01*
X142891448Y-43903001D01*
X142891453Y-43903001D01*
X143113138Y-43858905D01*
X143364530Y-43690930D01*
X143406932Y-43627471D01*
X144344605Y-42689799D01*
X164281800Y-42689799D01*
X164281800Y-42881800D01*
X164261800Y-42881800D01*
X164261800Y-42901800D01*
X164007800Y-42901800D01*
X164007800Y-42881800D01*
X163033550Y-42881800D01*
X162874800Y-43040550D01*
X162874800Y-43381109D01*
X162971473Y-43614498D01*
X163113120Y-43756146D01*
X163051991Y-43796991D01*
X162919818Y-43994800D01*
X154729311Y-43994800D01*
X154662680Y-43928169D01*
X154282274Y-43770600D01*
X153870526Y-43770600D01*
X153490120Y-43928169D01*
X153198969Y-44219320D01*
X153041400Y-44599726D01*
X153041400Y-45011474D01*
X153198969Y-45391880D01*
X153490120Y-45683031D01*
X153870526Y-45840600D01*
X154282274Y-45840600D01*
X154662680Y-45683031D01*
X154830911Y-45514800D01*
X162919818Y-45514800D01*
X163051991Y-45712609D01*
X163262035Y-45852957D01*
X163509800Y-45902240D01*
X164759800Y-45902240D01*
X165007565Y-45852957D01*
X165217609Y-45712609D01*
X165350985Y-45512999D01*
X172807588Y-45512999D01*
X172928671Y-45593904D01*
X173150356Y-45638000D01*
X173150360Y-45638000D01*
X173225207Y-45652888D01*
X173300054Y-45638000D01*
X173313023Y-45638000D01*
X173349286Y-45725546D01*
X173730454Y-46106714D01*
X174228474Y-46313000D01*
X174767526Y-46313000D01*
X175265546Y-46106714D01*
X175646714Y-45725546D01*
X175853000Y-45227526D01*
X175853000Y-44688474D01*
X175646714Y-44190454D01*
X175265546Y-43809286D01*
X174767526Y-43603000D01*
X174228474Y-43603000D01*
X173730454Y-43809286D01*
X173460227Y-44079513D01*
X173396744Y-44037095D01*
X173175059Y-43992999D01*
X173175054Y-43992999D01*
X173100207Y-43978111D01*
X173025360Y-43992999D01*
X165348578Y-43992999D01*
X165217609Y-43796991D01*
X165156480Y-43756146D01*
X165298127Y-43614498D01*
X165394800Y-43381109D01*
X165394800Y-43138327D01*
X165468002Y-43152888D01*
X165542849Y-43138000D01*
X175743822Y-43138000D01*
X175880885Y-43165264D01*
X175889286Y-43185546D01*
X176270454Y-43566714D01*
X176768474Y-43773000D01*
X177307526Y-43773000D01*
X177805546Y-43566714D01*
X178186714Y-43185546D01*
X178393000Y-42687526D01*
X178393000Y-42148474D01*
X178186714Y-41650454D01*
X177805546Y-41269286D01*
X177307526Y-41063000D01*
X176768474Y-41063000D01*
X176270454Y-41269286D01*
X175925916Y-41613824D01*
X175904920Y-41618000D01*
X165782803Y-41618000D01*
X165610132Y-41445329D01*
X165567730Y-41381870D01*
X165316338Y-41213895D01*
X165094653Y-41169799D01*
X165094648Y-41169799D01*
X165019801Y-41154911D01*
X164944954Y-41169799D01*
X144104651Y-41169799D01*
X144029803Y-41154911D01*
X143954955Y-41169799D01*
X143954951Y-41169799D01*
X143781408Y-41204319D01*
X143733265Y-41213895D01*
X143546221Y-41338875D01*
X143481874Y-41381870D01*
X143439474Y-41445326D01*
X143199556Y-41685245D01*
X143054880Y-41540569D01*
X142674474Y-41383000D01*
X142262726Y-41383000D01*
X141882320Y-41540569D01*
X141764889Y-41658000D01*
X140848148Y-41658000D01*
X140963600Y-41379274D01*
X140963600Y-40967526D01*
X140905713Y-40827774D01*
X173727831Y-40827774D01*
X173792131Y-41065611D01*
X174300342Y-41245333D01*
X174838644Y-41216892D01*
X175203869Y-41065611D01*
X175268169Y-40827774D01*
X174498000Y-40057605D01*
X173727831Y-40827774D01*
X140905713Y-40827774D01*
X140806031Y-40587120D01*
X140514880Y-40295969D01*
X140134474Y-40138400D01*
X139722726Y-40138400D01*
X139342320Y-40295969D01*
X139275689Y-40362600D01*
X138308148Y-40362600D01*
X138423600Y-40083874D01*
X138423600Y-39680342D01*
X173130667Y-39680342D01*
X173159108Y-40218644D01*
X173310389Y-40583869D01*
X173548226Y-40648169D01*
X174318395Y-39878000D01*
X174677605Y-39878000D01*
X175447774Y-40648169D01*
X175685611Y-40583869D01*
X175865333Y-40075658D01*
X175836892Y-39537356D01*
X175685611Y-39172131D01*
X175447774Y-39107831D01*
X174677605Y-39878000D01*
X174318395Y-39878000D01*
X173548226Y-39107831D01*
X173310389Y-39172131D01*
X173130667Y-39680342D01*
X138423600Y-39680342D01*
X138423600Y-39672126D01*
X138266031Y-39291720D01*
X137974880Y-39000569D01*
X137800229Y-38928226D01*
X173727831Y-38928226D01*
X174498000Y-39698395D01*
X175268169Y-38928226D01*
X175203869Y-38690389D01*
X174695658Y-38510667D01*
X174157356Y-38539108D01*
X173792131Y-38690389D01*
X173727831Y-38928226D01*
X137800229Y-38928226D01*
X137594474Y-38843000D01*
X137182726Y-38843000D01*
X136802320Y-39000569D01*
X136684889Y-39118000D01*
X135711185Y-39118000D01*
X135858200Y-38763074D01*
X135858200Y-38351326D01*
X135700631Y-37970920D01*
X135409480Y-37679769D01*
X135045589Y-37529041D01*
X135472927Y-37444038D01*
X135980673Y-37104773D01*
X136144000Y-36860336D01*
X136307328Y-37104773D01*
X136815074Y-37444038D01*
X137414000Y-37563172D01*
X138012927Y-37444038D01*
X138520673Y-37104773D01*
X138684000Y-36860336D01*
X138847328Y-37104773D01*
X139355074Y-37444038D01*
X139954000Y-37563172D01*
X140552927Y-37444038D01*
X141060673Y-37104773D01*
X141224000Y-36860336D01*
X141387328Y-37104773D01*
X141895074Y-37444038D01*
X142494000Y-37563172D01*
X143092927Y-37444038D01*
X143600673Y-37104773D01*
X143764000Y-36860336D01*
X143927328Y-37104773D01*
X144435074Y-37444038D01*
X145034000Y-37563172D01*
X145632927Y-37444038D01*
X146140673Y-37104773D01*
X146315703Y-36842823D01*
X146578394Y-37173312D01*
X147103914Y-37464856D01*
X147209260Y-37489136D01*
X147447000Y-37368478D01*
X147447000Y-35725100D01*
X147701000Y-35725100D01*
X147701000Y-37368478D01*
X147938740Y-37489136D01*
X148044086Y-37464856D01*
X148569606Y-37173312D01*
X148943554Y-36702852D01*
X149109000Y-36125100D01*
X149109000Y-35725100D01*
X147701000Y-35725100D01*
X147447000Y-35725100D01*
X147427000Y-35725100D01*
X147427000Y-35471100D01*
X147447000Y-35471100D01*
X147447000Y-33827722D01*
X147701000Y-33827722D01*
X147701000Y-35471100D01*
X149109000Y-35471100D01*
X149109000Y-35071100D01*
X148943554Y-34493348D01*
X148569606Y-34022888D01*
X148044086Y-33731344D01*
X147938740Y-33707064D01*
X147701000Y-33827722D01*
X147447000Y-33827722D01*
X147209260Y-33707064D01*
X147103914Y-33731344D01*
X146578394Y-34022888D01*
X146315703Y-34353377D01*
X146140673Y-34091427D01*
X145632926Y-33752162D01*
X145034000Y-33633028D01*
X144435073Y-33752162D01*
X143927327Y-34091427D01*
X143764000Y-34335863D01*
X143600673Y-34091427D01*
X143092926Y-33752162D01*
X142494000Y-33633028D01*
X141895073Y-33752162D01*
X141387327Y-34091427D01*
X141224000Y-34335863D01*
X141060673Y-34091427D01*
X140552926Y-33752162D01*
X139954000Y-33633028D01*
X139355073Y-33752162D01*
X138847327Y-34091427D01*
X138684000Y-34335863D01*
X138520673Y-34091427D01*
X138012926Y-33752162D01*
X137414000Y-33633028D01*
X136815073Y-33752162D01*
X136307327Y-34091427D01*
X136144000Y-34335863D01*
X135980673Y-34091427D01*
X135472926Y-33752162D01*
X134874000Y-33633028D01*
X134275073Y-33752162D01*
X133767327Y-34091427D01*
X133604000Y-34335863D01*
X133440673Y-34091427D01*
X132932926Y-33752162D01*
X132334000Y-33633028D01*
X131735073Y-33752162D01*
X131227327Y-34091427D01*
X131064000Y-34335863D01*
X130900673Y-34091427D01*
X130392926Y-33752162D01*
X129794000Y-33633028D01*
X129195073Y-33752162D01*
X128687327Y-34091427D01*
X128524000Y-34335863D01*
X128360673Y-34091427D01*
X127852926Y-33752162D01*
X127254000Y-33633028D01*
X126655073Y-33752162D01*
X126147327Y-34091427D01*
X125984000Y-34335863D01*
X125820673Y-34091427D01*
X125312926Y-33752162D01*
X124714000Y-33633028D01*
X124115073Y-33752162D01*
X123607327Y-34091427D01*
X123444000Y-34335863D01*
X123280673Y-34091427D01*
X122772926Y-33752162D01*
X122174000Y-33633028D01*
X121575073Y-33752162D01*
X121067327Y-34091427D01*
X120892298Y-34353378D01*
X120629606Y-34022888D01*
X120104086Y-33731344D01*
X119998740Y-33707064D01*
X119761000Y-33827722D01*
X119761000Y-35471100D01*
X119781000Y-35471100D01*
X119781000Y-35725100D01*
X119761000Y-35725100D01*
X119761000Y-37368478D01*
X119998740Y-37489136D01*
X120104086Y-37464856D01*
X120629606Y-37173312D01*
X120892298Y-36842822D01*
X121067328Y-37104773D01*
X121575074Y-37444038D01*
X122174000Y-37563172D01*
X122772927Y-37444038D01*
X123280673Y-37104773D01*
X123444000Y-36860336D01*
X123607328Y-37104773D01*
X124115074Y-37444038D01*
X124714000Y-37563172D01*
X125312927Y-37444038D01*
X125820673Y-37104773D01*
X125984000Y-36860336D01*
X126147328Y-37104773D01*
X126655074Y-37444038D01*
X127254000Y-37563172D01*
X127852927Y-37444038D01*
X128360673Y-37104773D01*
X128524000Y-36860336D01*
X128687328Y-37104773D01*
X129195074Y-37444038D01*
X129794000Y-37563172D01*
X130392927Y-37444038D01*
X130900673Y-37104773D01*
X131064000Y-36860336D01*
X131227328Y-37104773D01*
X131735074Y-37444038D01*
X132334000Y-37563172D01*
X132932927Y-37444038D01*
X133440673Y-37104773D01*
X133604000Y-36860336D01*
X133767328Y-37104773D01*
X134275074Y-37444038D01*
X134668020Y-37522200D01*
X134617326Y-37522200D01*
X134236920Y-37679769D01*
X134170289Y-37746400D01*
X124186131Y-37746400D01*
X124111284Y-37731512D01*
X124044506Y-37744795D01*
X124030280Y-37730569D01*
X123649874Y-37573000D01*
X123238126Y-37573000D01*
X122857720Y-37730569D01*
X122566569Y-38021720D01*
X122409000Y-38402126D01*
X122409000Y-38813874D01*
X122566569Y-39194280D01*
X122857720Y-39485431D01*
X123017686Y-39551691D01*
X122967800Y-39672126D01*
X122967800Y-40083874D01*
X123125369Y-40464280D01*
X123369435Y-40708346D01*
X123272600Y-40942126D01*
X123272600Y-41353874D01*
X123430169Y-41734280D01*
X123721320Y-42025431D01*
X123751204Y-42037809D01*
X123679000Y-42212126D01*
X123679000Y-42623200D01*
X123146153Y-42623200D01*
X123209000Y-42471474D01*
X123209000Y-42059726D01*
X123051431Y-41679320D01*
X122760280Y-41388169D01*
X122379874Y-41230600D01*
X121968126Y-41230600D01*
X121587720Y-41388169D01*
X121495689Y-41480200D01*
X117873911Y-41480200D01*
X117756480Y-41362769D01*
X117376074Y-41205200D01*
X116964326Y-41205200D01*
X116583920Y-41362769D01*
X116292769Y-41653920D01*
X116135200Y-42034326D01*
X116135200Y-42446074D01*
X116208568Y-42623200D01*
X115308511Y-42623200D01*
X115191080Y-42505769D01*
X114810674Y-42348200D01*
X114398926Y-42348200D01*
X114018520Y-42505769D01*
X113727369Y-42796920D01*
X113569800Y-43177326D01*
X107627785Y-43177326D01*
X107621292Y-35883850D01*
X107939000Y-35883850D01*
X107939000Y-37024410D01*
X108035673Y-37257799D01*
X108214302Y-37436427D01*
X108447691Y-37533100D01*
X109188250Y-37533100D01*
X109347000Y-37374350D01*
X109347000Y-35725100D01*
X108097750Y-35725100D01*
X107939000Y-35883850D01*
X107621292Y-35883850D01*
X107619768Y-34171790D01*
X107939000Y-34171790D01*
X107939000Y-35312350D01*
X108097750Y-35471100D01*
X109347000Y-35471100D01*
X109347000Y-33821850D01*
X109601000Y-33821850D01*
X109601000Y-35471100D01*
X109621000Y-35471100D01*
X109621000Y-35725100D01*
X109601000Y-35725100D01*
X109601000Y-37374350D01*
X109759750Y-37533100D01*
X110500309Y-37533100D01*
X110733698Y-37436427D01*
X110912327Y-37257799D01*
X110960889Y-37140561D01*
X111415074Y-37444038D01*
X112014000Y-37563172D01*
X112612927Y-37444038D01*
X113120673Y-37104773D01*
X113284000Y-36860336D01*
X113447328Y-37104773D01*
X113955074Y-37444038D01*
X114554000Y-37563172D01*
X115152927Y-37444038D01*
X115660673Y-37104773D01*
X115824000Y-36860336D01*
X115987328Y-37104773D01*
X116495074Y-37444038D01*
X117094000Y-37563172D01*
X117692927Y-37444038D01*
X118200673Y-37104773D01*
X118375703Y-36842823D01*
X118638394Y-37173312D01*
X119163914Y-37464856D01*
X119269260Y-37489136D01*
X119507000Y-37368478D01*
X119507000Y-35725100D01*
X119487000Y-35725100D01*
X119487000Y-35471100D01*
X119507000Y-35471100D01*
X119507000Y-33827722D01*
X119269260Y-33707064D01*
X119163914Y-33731344D01*
X118638394Y-34022888D01*
X118375703Y-34353377D01*
X118200673Y-34091427D01*
X117692926Y-33752162D01*
X117094000Y-33633028D01*
X116495073Y-33752162D01*
X115987327Y-34091427D01*
X115824000Y-34335863D01*
X115660673Y-34091427D01*
X115152926Y-33752162D01*
X114554000Y-33633028D01*
X113955073Y-33752162D01*
X113447327Y-34091427D01*
X113284000Y-34335863D01*
X113120673Y-34091427D01*
X112612926Y-33752162D01*
X112014000Y-33633028D01*
X111415073Y-33752162D01*
X110960888Y-34055638D01*
X110912327Y-33938401D01*
X110733698Y-33759773D01*
X110500309Y-33663100D01*
X109759750Y-33663100D01*
X109601000Y-33821850D01*
X109347000Y-33821850D01*
X109188250Y-33663100D01*
X108447691Y-33663100D01*
X108214302Y-33759773D01*
X108035673Y-33938401D01*
X107939000Y-34171790D01*
X107619768Y-34171790D01*
X107618854Y-33145400D01*
X181026746Y-33145400D01*
X181025122Y-34970922D01*
G36*
X146951740Y-124272737D02*
X146811392Y-124482781D01*
X146762109Y-124730546D01*
X146762109Y-126430546D01*
X146811392Y-126678311D01*
X146951740Y-126888355D01*
X147124550Y-127003824D01*
X147124549Y-129014600D01*
X117707400Y-129014600D01*
X117707400Y-126763800D01*
X124847395Y-126763800D01*
X124968000Y-126787790D01*
X125088605Y-126763800D01*
X125139865Y-126763800D01*
X125648865Y-126662554D01*
X126226074Y-126276874D01*
X126351907Y-126088552D01*
X127119195Y-125321264D01*
X127264065Y-125224465D01*
X127647534Y-124650563D01*
X127730911Y-124231400D01*
X147013605Y-124231400D01*
X146951740Y-124272737D01*
X146951740Y-124272737D01*
G37*
X146951740Y-124272737D02*
X146811392Y-124482781D01*
X146762109Y-124730546D01*
X146762109Y-126430546D01*
X146811392Y-126678311D01*
X146951740Y-126888355D01*
X147124550Y-127003824D01*
X147124549Y-129014600D01*
X117707400Y-129014600D01*
X117707400Y-126763800D01*
X124847395Y-126763800D01*
X124968000Y-126787790D01*
X125088605Y-126763800D01*
X125139865Y-126763800D01*
X125648865Y-126662554D01*
X126226074Y-126276874D01*
X126351907Y-126088552D01*
X127119195Y-125321264D01*
X127264065Y-125224465D01*
X127647534Y-124650563D01*
X127730911Y-124231400D01*
X147013605Y-124231400D01*
X146951740Y-124272737D01*
G36*
X145248689Y-88495600D02*
X132564990Y-88495600D01*
X132510190Y-88440800D01*
X145193889Y-88440800D01*
X145248689Y-88495600D01*
X145248689Y-88495600D01*
G37*
X145248689Y-88495600D02*
X132564990Y-88495600D01*
X132510190Y-88440800D01*
X145193889Y-88440800D01*
X145248689Y-88495600D01*
G36*
X148016792Y-73788876D02*
X148059190Y-73852329D01*
X148122643Y-73894727D01*
X148122645Y-73894729D01*
X148248021Y-73978502D01*
X148310582Y-74020304D01*
X148530831Y-74064114D01*
X148738575Y-74375025D01*
X149036961Y-74574400D01*
X148738575Y-74773775D01*
X148531022Y-75084400D01*
X147179204Y-75084400D01*
X146635834Y-74541031D01*
X146593432Y-74477572D01*
X146342040Y-74309597D01*
X146120355Y-74265501D01*
X146120350Y-74265501D01*
X146045503Y-74250613D01*
X145970656Y-74265501D01*
X139013040Y-74265501D01*
X139013040Y-73000500D01*
X138963757Y-72752735D01*
X138823409Y-72542691D01*
X138613365Y-72402343D01*
X138365600Y-72353060D01*
X136665600Y-72353060D01*
X136417835Y-72402343D01*
X136207791Y-72542691D01*
X136067443Y-72752735D01*
X136018160Y-73000500D01*
X136018160Y-74265501D01*
X135646105Y-74265501D01*
X134454533Y-73073930D01*
X134412131Y-73010471D01*
X134160739Y-72842496D01*
X133939054Y-72798400D01*
X133939049Y-72798400D01*
X133864202Y-72783512D01*
X133789355Y-72798400D01*
X130645321Y-72798400D01*
X130749292Y-72275700D01*
X130723851Y-72147801D01*
X146375719Y-72147801D01*
X148016792Y-73788876D01*
X148016792Y-73788876D01*
G37*
X148016792Y-73788876D02*
X148059190Y-73852329D01*
X148122643Y-73894727D01*
X148122645Y-73894729D01*
X148248021Y-73978502D01*
X148310582Y-74020304D01*
X148530831Y-74064114D01*
X148738575Y-74375025D01*
X149036961Y-74574400D01*
X148738575Y-74773775D01*
X148531022Y-75084400D01*
X147179204Y-75084400D01*
X146635834Y-74541031D01*
X146593432Y-74477572D01*
X146342040Y-74309597D01*
X146120355Y-74265501D01*
X146120350Y-74265501D01*
X146045503Y-74250613D01*
X145970656Y-74265501D01*
X139013040Y-74265501D01*
X139013040Y-73000500D01*
X138963757Y-72752735D01*
X138823409Y-72542691D01*
X138613365Y-72402343D01*
X138365600Y-72353060D01*
X136665600Y-72353060D01*
X136417835Y-72402343D01*
X136207791Y-72542691D01*
X136067443Y-72752735D01*
X136018160Y-73000500D01*
X136018160Y-74265501D01*
X135646105Y-74265501D01*
X134454533Y-73073930D01*
X134412131Y-73010471D01*
X134160739Y-72842496D01*
X133939054Y-72798400D01*
X133939049Y-72798400D01*
X133864202Y-72783512D01*
X133789355Y-72798400D01*
X130645321Y-72798400D01*
X130749292Y-72275700D01*
X130723851Y-72147801D01*
X146375719Y-72147801D01*
X148016792Y-73788876D01*
G36*
X168999010Y-52684000D02*
X169133666Y-53360963D01*
X169517135Y-53934865D01*
X170091037Y-54318334D01*
X170534455Y-54406535D01*
X170333666Y-54707037D01*
X170199010Y-55384000D01*
X170333666Y-56060963D01*
X170717135Y-56634865D01*
X171291037Y-57018334D01*
X171483594Y-57056636D01*
X162790560Y-57056636D01*
X161228676Y-55494753D01*
X161344426Y-55215308D01*
X161344426Y-54485300D01*
X161065064Y-53810860D01*
X160548870Y-53294666D01*
X160079638Y-53100304D01*
X160548870Y-52905942D01*
X161065064Y-52389748D01*
X161180813Y-52110304D01*
X169113125Y-52110304D01*
X168999010Y-52684000D01*
X168999010Y-52684000D01*
G37*
X168999010Y-52684000D02*
X169133666Y-53360963D01*
X169517135Y-53934865D01*
X170091037Y-54318334D01*
X170534455Y-54406535D01*
X170333666Y-54707037D01*
X170199010Y-55384000D01*
X170333666Y-56060963D01*
X170717135Y-56634865D01*
X171291037Y-57018334D01*
X171483594Y-57056636D01*
X162790560Y-57056636D01*
X161228676Y-55494753D01*
X161344426Y-55215308D01*
X161344426Y-54485300D01*
X161065064Y-53810860D01*
X160548870Y-53294666D01*
X160079638Y-53100304D01*
X160548870Y-52905942D01*
X161065064Y-52389748D01*
X161180813Y-52110304D01*
X169113125Y-52110304D01*
X168999010Y-52684000D01*
G04 #@! TD*
M02*
