G04 #@! TF.GenerationSoftware,KiCad,Pcbnew,5.0.2-bee76a0~70~ubuntu18.04.1*
G04 #@! TF.CreationDate,2019-03-18T17:02:54-07:00*
G04 #@! TF.ProjectId,Half_Shield,48616c66-5f53-4686-9965-6c642e6b6963,rev?*
G04 #@! TF.SameCoordinates,Original*
G04 #@! TF.FileFunction,Legend,Top*
G04 #@! TF.FilePolarity,Positive*
%FSLAX46Y46*%
G04 Gerber Fmt 4.6, Leading zero omitted, Abs format (unit mm)*
G04 Created by KiCad (PCBNEW 5.0.2-bee76a0~70~ubuntu18.04.1) date Mon 18 Mar 2019 05:02:54 PM PDT*
%MOMM*%
%LPD*%
G01*
G04 APERTURE LIST*
%ADD10C,0.125000*%
%ADD11C,0.100000*%
%ADD12C,0.200000*%
%ADD13C,0.300000*%
%ADD14C,0.127000*%
%ADD15C,0.120000*%
%ADD16C,0.152400*%
%ADD17C,0.150000*%
G04 APERTURE END LIST*
D10*
X154107390Y-81210019D02*
X154107390Y-81162400D01*
X154131200Y-81114780D01*
X154155009Y-81090971D01*
X154202628Y-81067161D01*
X154297866Y-81043352D01*
X154416914Y-81043352D01*
X154512152Y-81067161D01*
X154559771Y-81090971D01*
X154583580Y-81114780D01*
X154607390Y-81162400D01*
X154607390Y-81210019D01*
X154583580Y-81257638D01*
X154559771Y-81281447D01*
X154512152Y-81305257D01*
X154416914Y-81329066D01*
X154297866Y-81329066D01*
X154202628Y-81305257D01*
X154155009Y-81281447D01*
X154131200Y-81257638D01*
X154107390Y-81210019D01*
X154559771Y-80829066D02*
X154583580Y-80805257D01*
X154607390Y-80829066D01*
X154583580Y-80852876D01*
X154559771Y-80829066D01*
X154607390Y-80829066D01*
X154607390Y-80329066D02*
X154607390Y-80614780D01*
X154607390Y-80471923D02*
X154107390Y-80471923D01*
X154178819Y-80519542D01*
X154226438Y-80567161D01*
X154250247Y-80614780D01*
X154274057Y-79733828D02*
X154774057Y-79733828D01*
X154535961Y-79495733D02*
X154583580Y-79471923D01*
X154607390Y-79424304D01*
X154535961Y-79733828D02*
X154583580Y-79710019D01*
X154607390Y-79662400D01*
X154607390Y-79567161D01*
X154583580Y-79519542D01*
X154535961Y-79495733D01*
X154274057Y-79495733D01*
X154345485Y-79043352D02*
X154345485Y-79210019D01*
X154607390Y-79210019D02*
X154107390Y-79210019D01*
X154107390Y-78971923D01*
D11*
X165232590Y-44938819D02*
X165232590Y-44891200D01*
X165256400Y-44843580D01*
X165280209Y-44819771D01*
X165327828Y-44795961D01*
X165423066Y-44772152D01*
X165542114Y-44772152D01*
X165637352Y-44795961D01*
X165684971Y-44819771D01*
X165708780Y-44843580D01*
X165732590Y-44891200D01*
X165732590Y-44938819D01*
X165708780Y-44986438D01*
X165684971Y-45010247D01*
X165637352Y-45034057D01*
X165542114Y-45057866D01*
X165423066Y-45057866D01*
X165327828Y-45034057D01*
X165280209Y-45010247D01*
X165256400Y-44986438D01*
X165232590Y-44938819D01*
X165684971Y-44557866D02*
X165708780Y-44534057D01*
X165732590Y-44557866D01*
X165708780Y-44581676D01*
X165684971Y-44557866D01*
X165732590Y-44557866D01*
X165732590Y-44057866D02*
X165732590Y-44343580D01*
X165732590Y-44200723D02*
X165232590Y-44200723D01*
X165304019Y-44248342D01*
X165351638Y-44295961D01*
X165375447Y-44343580D01*
X165399257Y-43462628D02*
X165899257Y-43462628D01*
X165661161Y-43224533D02*
X165708780Y-43200723D01*
X165732590Y-43153104D01*
X165661161Y-43462628D02*
X165708780Y-43438819D01*
X165732590Y-43391200D01*
X165732590Y-43295961D01*
X165708780Y-43248342D01*
X165661161Y-43224533D01*
X165399257Y-43224533D01*
X165470685Y-42772152D02*
X165470685Y-42938819D01*
X165732590Y-42938819D02*
X165232590Y-42938819D01*
X165232590Y-42700723D01*
D12*
X141412933Y-83161142D02*
X141365314Y-83208761D01*
X141222457Y-83256380D01*
X141127219Y-83256380D01*
X140984361Y-83208761D01*
X140889123Y-83113523D01*
X140841504Y-83018285D01*
X140793885Y-82827809D01*
X140793885Y-82684952D01*
X140841504Y-82494476D01*
X140889123Y-82399238D01*
X140984361Y-82304000D01*
X141127219Y-82256380D01*
X141222457Y-82256380D01*
X141365314Y-82304000D01*
X141412933Y-82351619D01*
X141746266Y-82256380D02*
X142412933Y-82256380D01*
X141984361Y-83256380D01*
X141412933Y-85447142D02*
X141365314Y-85494761D01*
X141222457Y-85542380D01*
X141127219Y-85542380D01*
X140984361Y-85494761D01*
X140889123Y-85399523D01*
X140841504Y-85304285D01*
X140793885Y-85113809D01*
X140793885Y-84970952D01*
X140841504Y-84780476D01*
X140889123Y-84685238D01*
X140984361Y-84590000D01*
X141127219Y-84542380D01*
X141222457Y-84542380D01*
X141365314Y-84590000D01*
X141412933Y-84637619D01*
X142270076Y-84542380D02*
X142079600Y-84542380D01*
X141984361Y-84590000D01*
X141936742Y-84637619D01*
X141841504Y-84780476D01*
X141793885Y-84970952D01*
X141793885Y-85351904D01*
X141841504Y-85447142D01*
X141889123Y-85494761D01*
X141984361Y-85542380D01*
X142174838Y-85542380D01*
X142270076Y-85494761D01*
X142317695Y-85447142D01*
X142365314Y-85351904D01*
X142365314Y-85113809D01*
X142317695Y-85018571D01*
X142270076Y-84970952D01*
X142174838Y-84923333D01*
X141984361Y-84923333D01*
X141889123Y-84970952D01*
X141841504Y-85018571D01*
X141793885Y-85113809D01*
D11*
X143560895Y-81506190D02*
X143275180Y-81506190D01*
X143418038Y-81506190D02*
X143418038Y-81006190D01*
X143370419Y-81077619D01*
X143322800Y-81125238D01*
X143275180Y-81149047D01*
X143870419Y-81006190D02*
X143918038Y-81006190D01*
X143965657Y-81030000D01*
X143989466Y-81053809D01*
X144013276Y-81101428D01*
X144037085Y-81196666D01*
X144037085Y-81315714D01*
X144013276Y-81410952D01*
X143989466Y-81458571D01*
X143965657Y-81482380D01*
X143918038Y-81506190D01*
X143870419Y-81506190D01*
X143822800Y-81482380D01*
X143798990Y-81458571D01*
X143775180Y-81410952D01*
X143751371Y-81315714D01*
X143751371Y-81196666D01*
X143775180Y-81101428D01*
X143798990Y-81053809D01*
X143822800Y-81030000D01*
X143870419Y-81006190D01*
X144632323Y-81172857D02*
X144632323Y-81672857D01*
X144870419Y-81434761D02*
X144894228Y-81482380D01*
X144941847Y-81506190D01*
X144632323Y-81434761D02*
X144656133Y-81482380D01*
X144703752Y-81506190D01*
X144798990Y-81506190D01*
X144846609Y-81482380D01*
X144870419Y-81434761D01*
X144870419Y-81172857D01*
X145322800Y-81244285D02*
X145156133Y-81244285D01*
X145156133Y-81506190D02*
X145156133Y-81006190D01*
X145394228Y-81006190D01*
D12*
X149337733Y-85294742D02*
X149290114Y-85342361D01*
X149147257Y-85389980D01*
X149052019Y-85389980D01*
X148909161Y-85342361D01*
X148813923Y-85247123D01*
X148766304Y-85151885D01*
X148718685Y-84961409D01*
X148718685Y-84818552D01*
X148766304Y-84628076D01*
X148813923Y-84532838D01*
X148909161Y-84437600D01*
X149052019Y-84389980D01*
X149147257Y-84389980D01*
X149290114Y-84437600D01*
X149337733Y-84485219D01*
X150290114Y-85389980D02*
X149718685Y-85389980D01*
X150004400Y-85389980D02*
X150004400Y-84389980D01*
X149909161Y-84532838D01*
X149813923Y-84628076D01*
X149718685Y-84675695D01*
D13*
X109630342Y-81957942D02*
X110344628Y-83957942D01*
X111058914Y-81957942D01*
X112201771Y-83672228D02*
X112344628Y-83815085D01*
X112201771Y-83957942D01*
X112058914Y-83815085D01*
X112201771Y-83672228D01*
X112201771Y-83957942D01*
X117487485Y-83957942D02*
X115773200Y-83957942D01*
X116630342Y-83957942D02*
X116630342Y-80957942D01*
X116344628Y-81386514D01*
X116058914Y-81672228D01*
X115773200Y-81815085D01*
X118773200Y-83672228D02*
X118916057Y-83815085D01*
X118773200Y-83957942D01*
X118630342Y-83815085D01*
X118773200Y-83672228D01*
X118773200Y-83957942D01*
X121487485Y-81957942D02*
X121487485Y-83957942D01*
X120773200Y-80815085D02*
X120058914Y-82957942D01*
X121916057Y-82957942D01*
D11*
X118293390Y-48037619D02*
X118293390Y-47990000D01*
X118317200Y-47942380D01*
X118341009Y-47918571D01*
X118388628Y-47894761D01*
X118483866Y-47870952D01*
X118602914Y-47870952D01*
X118698152Y-47894761D01*
X118745771Y-47918571D01*
X118769580Y-47942380D01*
X118793390Y-47990000D01*
X118793390Y-48037619D01*
X118769580Y-48085238D01*
X118745771Y-48109047D01*
X118698152Y-48132857D01*
X118602914Y-48156666D01*
X118483866Y-48156666D01*
X118388628Y-48132857D01*
X118341009Y-48109047D01*
X118317200Y-48085238D01*
X118293390Y-48037619D01*
X118745771Y-47656666D02*
X118769580Y-47632857D01*
X118793390Y-47656666D01*
X118769580Y-47680476D01*
X118745771Y-47656666D01*
X118793390Y-47656666D01*
X118793390Y-47156666D02*
X118793390Y-47442380D01*
X118793390Y-47299523D02*
X118293390Y-47299523D01*
X118364819Y-47347142D01*
X118412438Y-47394761D01*
X118436247Y-47442380D01*
X118460057Y-46561428D02*
X118960057Y-46561428D01*
X118721961Y-46323333D02*
X118769580Y-46299523D01*
X118793390Y-46251904D01*
X118721961Y-46561428D02*
X118769580Y-46537619D01*
X118793390Y-46490000D01*
X118793390Y-46394761D01*
X118769580Y-46347142D01*
X118721961Y-46323333D01*
X118460057Y-46323333D01*
X118531485Y-45870952D02*
X118531485Y-46037619D01*
X118793390Y-46037619D02*
X118293390Y-46037619D01*
X118293390Y-45799523D01*
X139680190Y-61855219D02*
X139680190Y-61807600D01*
X139704000Y-61759980D01*
X139727809Y-61736171D01*
X139775428Y-61712361D01*
X139870666Y-61688552D01*
X139989714Y-61688552D01*
X140084952Y-61712361D01*
X140132571Y-61736171D01*
X140156380Y-61759980D01*
X140180190Y-61807600D01*
X140180190Y-61855219D01*
X140156380Y-61902838D01*
X140132571Y-61926647D01*
X140084952Y-61950457D01*
X139989714Y-61974266D01*
X139870666Y-61974266D01*
X139775428Y-61950457D01*
X139727809Y-61926647D01*
X139704000Y-61902838D01*
X139680190Y-61855219D01*
X140132571Y-61474266D02*
X140156380Y-61450457D01*
X140180190Y-61474266D01*
X140156380Y-61498076D01*
X140132571Y-61474266D01*
X140180190Y-61474266D01*
X140180190Y-60974266D02*
X140180190Y-61259980D01*
X140180190Y-61117123D02*
X139680190Y-61117123D01*
X139751619Y-61164742D01*
X139799238Y-61212361D01*
X139823047Y-61259980D01*
X139846857Y-60379028D02*
X140346857Y-60379028D01*
X140108761Y-60140933D02*
X140156380Y-60117123D01*
X140180190Y-60069504D01*
X140108761Y-60379028D02*
X140156380Y-60355219D01*
X140180190Y-60307600D01*
X140180190Y-60212361D01*
X140156380Y-60164742D01*
X140108761Y-60140933D01*
X139846857Y-60140933D01*
X139918285Y-59688552D02*
X139918285Y-59855219D01*
X140180190Y-59855219D02*
X139680190Y-59855219D01*
X139680190Y-59617123D01*
X148405980Y-87660990D02*
X148453600Y-87660990D01*
X148501219Y-87684800D01*
X148525028Y-87708609D01*
X148548838Y-87756228D01*
X148572647Y-87851466D01*
X148572647Y-87970514D01*
X148548838Y-88065752D01*
X148525028Y-88113371D01*
X148501219Y-88137180D01*
X148453600Y-88160990D01*
X148405980Y-88160990D01*
X148358361Y-88137180D01*
X148334552Y-88113371D01*
X148310742Y-88065752D01*
X148286933Y-87970514D01*
X148286933Y-87851466D01*
X148310742Y-87756228D01*
X148334552Y-87708609D01*
X148358361Y-87684800D01*
X148405980Y-87660990D01*
X148786933Y-88113371D02*
X148810742Y-88137180D01*
X148786933Y-88160990D01*
X148763123Y-88137180D01*
X148786933Y-88113371D01*
X148786933Y-88160990D01*
X149286933Y-88160990D02*
X149001219Y-88160990D01*
X149144076Y-88160990D02*
X149144076Y-87660990D01*
X149096457Y-87732419D01*
X149048838Y-87780038D01*
X149001219Y-87803847D01*
X149882171Y-87827657D02*
X149882171Y-88327657D01*
X150120266Y-88089561D02*
X150144076Y-88137180D01*
X150191695Y-88160990D01*
X149882171Y-88089561D02*
X149905980Y-88137180D01*
X149953600Y-88160990D01*
X150048838Y-88160990D01*
X150096457Y-88137180D01*
X150120266Y-88089561D01*
X150120266Y-87827657D01*
X150572647Y-87899085D02*
X150405980Y-87899085D01*
X150405980Y-88160990D02*
X150405980Y-87660990D01*
X150644076Y-87660990D01*
X143427580Y-86086190D02*
X143475200Y-86086190D01*
X143522819Y-86110000D01*
X143546628Y-86133809D01*
X143570438Y-86181428D01*
X143594247Y-86276666D01*
X143594247Y-86395714D01*
X143570438Y-86490952D01*
X143546628Y-86538571D01*
X143522819Y-86562380D01*
X143475200Y-86586190D01*
X143427580Y-86586190D01*
X143379961Y-86562380D01*
X143356152Y-86538571D01*
X143332342Y-86490952D01*
X143308533Y-86395714D01*
X143308533Y-86276666D01*
X143332342Y-86181428D01*
X143356152Y-86133809D01*
X143379961Y-86110000D01*
X143427580Y-86086190D01*
X143808533Y-86538571D02*
X143832342Y-86562380D01*
X143808533Y-86586190D01*
X143784723Y-86562380D01*
X143808533Y-86538571D01*
X143808533Y-86586190D01*
X144308533Y-86586190D02*
X144022819Y-86586190D01*
X144165676Y-86586190D02*
X144165676Y-86086190D01*
X144118057Y-86157619D01*
X144070438Y-86205238D01*
X144022819Y-86229047D01*
X144903771Y-86252857D02*
X144903771Y-86752857D01*
X145141866Y-86514761D02*
X145165676Y-86562380D01*
X145213295Y-86586190D01*
X144903771Y-86514761D02*
X144927580Y-86562380D01*
X144975200Y-86586190D01*
X145070438Y-86586190D01*
X145118057Y-86562380D01*
X145141866Y-86514761D01*
X145141866Y-86252857D01*
X145594247Y-86324285D02*
X145427580Y-86324285D01*
X145427580Y-86586190D02*
X145427580Y-86086190D01*
X145665676Y-86086190D01*
D12*
X140955733Y-63806342D02*
X140908114Y-63853961D01*
X140765257Y-63901580D01*
X140670019Y-63901580D01*
X140527161Y-63853961D01*
X140431923Y-63758723D01*
X140384304Y-63663485D01*
X140336685Y-63473009D01*
X140336685Y-63330152D01*
X140384304Y-63139676D01*
X140431923Y-63044438D01*
X140527161Y-62949200D01*
X140670019Y-62901580D01*
X140765257Y-62901580D01*
X140908114Y-62949200D01*
X140955733Y-62996819D01*
X141812876Y-63234914D02*
X141812876Y-63901580D01*
X141574780Y-62853961D02*
X141336685Y-63568247D01*
X141955733Y-63568247D01*
X144063980Y-61025066D02*
X143587790Y-61358400D01*
X144063980Y-61596495D02*
X143063980Y-61596495D01*
X143063980Y-61215542D01*
X143111600Y-61120304D01*
X143159219Y-61072685D01*
X143254457Y-61025066D01*
X143397314Y-61025066D01*
X143492552Y-61072685D01*
X143540171Y-61120304D01*
X143587790Y-61215542D01*
X143587790Y-61596495D01*
X144063980Y-60072685D02*
X144063980Y-60644114D01*
X144063980Y-60358400D02*
X143063980Y-60358400D01*
X143206838Y-60453638D01*
X143302076Y-60548876D01*
X143349695Y-60644114D01*
D11*
X145307180Y-66426590D02*
X145354800Y-66426590D01*
X145402419Y-66450400D01*
X145426228Y-66474209D01*
X145450038Y-66521828D01*
X145473847Y-66617066D01*
X145473847Y-66736114D01*
X145450038Y-66831352D01*
X145426228Y-66878971D01*
X145402419Y-66902780D01*
X145354800Y-66926590D01*
X145307180Y-66926590D01*
X145259561Y-66902780D01*
X145235752Y-66878971D01*
X145211942Y-66831352D01*
X145188133Y-66736114D01*
X145188133Y-66617066D01*
X145211942Y-66521828D01*
X145235752Y-66474209D01*
X145259561Y-66450400D01*
X145307180Y-66426590D01*
X145688133Y-66878971D02*
X145711942Y-66902780D01*
X145688133Y-66926590D01*
X145664323Y-66902780D01*
X145688133Y-66878971D01*
X145688133Y-66926590D01*
X146188133Y-66926590D02*
X145902419Y-66926590D01*
X146045276Y-66926590D02*
X146045276Y-66426590D01*
X145997657Y-66498019D01*
X145950038Y-66545638D01*
X145902419Y-66569447D01*
X146783371Y-66593257D02*
X146783371Y-67093257D01*
X147021466Y-66855161D02*
X147045276Y-66902780D01*
X147092895Y-66926590D01*
X146783371Y-66855161D02*
X146807180Y-66902780D01*
X146854800Y-66926590D01*
X146950038Y-66926590D01*
X146997657Y-66902780D01*
X147021466Y-66855161D01*
X147021466Y-66593257D01*
X147473847Y-66664685D02*
X147307180Y-66664685D01*
X147307180Y-66926590D02*
X147307180Y-66426590D01*
X147545276Y-66426590D01*
X146385790Y-62079047D02*
X146385790Y-61769523D01*
X146576266Y-61936190D01*
X146576266Y-61864761D01*
X146600076Y-61817142D01*
X146623885Y-61793333D01*
X146671504Y-61769523D01*
X146790552Y-61769523D01*
X146838171Y-61793333D01*
X146861980Y-61817142D01*
X146885790Y-61864761D01*
X146885790Y-62007619D01*
X146861980Y-62055238D01*
X146838171Y-62079047D01*
X146385790Y-61602857D02*
X146385790Y-61293333D01*
X146576266Y-61460000D01*
X146576266Y-61388571D01*
X146600076Y-61340952D01*
X146623885Y-61317142D01*
X146671504Y-61293333D01*
X146790552Y-61293333D01*
X146838171Y-61317142D01*
X146861980Y-61340952D01*
X146885790Y-61388571D01*
X146885790Y-61531428D01*
X146861980Y-61579047D01*
X146838171Y-61602857D01*
X146385790Y-60983809D02*
X146385790Y-60936190D01*
X146409600Y-60888571D01*
X146433409Y-60864761D01*
X146481028Y-60840952D01*
X146576266Y-60817142D01*
X146695314Y-60817142D01*
X146790552Y-60840952D01*
X146838171Y-60864761D01*
X146861980Y-60888571D01*
X146885790Y-60936190D01*
X146885790Y-60983809D01*
X146861980Y-61031428D01*
X146838171Y-61055238D01*
X146790552Y-61079047D01*
X146695314Y-61102857D01*
X146576266Y-61102857D01*
X146481028Y-61079047D01*
X146433409Y-61055238D01*
X146409600Y-61031428D01*
X146385790Y-60983809D01*
X146885790Y-60245714D02*
X146885790Y-60126666D01*
X146790552Y-60126666D01*
X146766742Y-60174285D01*
X146719123Y-60221904D01*
X146647695Y-60245714D01*
X146528647Y-60245714D01*
X146457219Y-60221904D01*
X146409600Y-60174285D01*
X146385790Y-60102857D01*
X146385790Y-60007619D01*
X146409600Y-59936190D01*
X146457219Y-59888571D01*
X146528647Y-59864761D01*
X146647695Y-59864761D01*
X146719123Y-59888571D01*
X146766742Y-59936190D01*
X146790552Y-59983809D01*
X146885790Y-59983809D01*
X146885790Y-59864761D01*
D13*
X111349600Y-127377485D02*
X111349600Y-126663200D01*
X111778171Y-127520342D02*
X110278171Y-127020342D01*
X111778171Y-126520342D01*
X111635314Y-125163200D02*
X111706742Y-125234628D01*
X111778171Y-125448914D01*
X111778171Y-125591771D01*
X111706742Y-125806057D01*
X111563885Y-125948914D01*
X111421028Y-126020342D01*
X111135314Y-126091771D01*
X110921028Y-126091771D01*
X110635314Y-126020342D01*
X110492457Y-125948914D01*
X110349600Y-125806057D01*
X110278171Y-125591771D01*
X110278171Y-125448914D01*
X110349600Y-125234628D01*
X110421028Y-125163200D01*
X111206742Y-124520342D02*
X111206742Y-123377485D01*
X110992457Y-122663200D02*
X110992457Y-122163200D01*
X111778171Y-121948914D02*
X111778171Y-122663200D01*
X110278171Y-122663200D01*
X110278171Y-121948914D01*
X121560400Y-127326685D02*
X121560400Y-126612400D01*
X121988971Y-127469542D02*
X120488971Y-126969542D01*
X121988971Y-126469542D01*
X121846114Y-125112400D02*
X121917542Y-125183828D01*
X121988971Y-125398114D01*
X121988971Y-125540971D01*
X121917542Y-125755257D01*
X121774685Y-125898114D01*
X121631828Y-125969542D01*
X121346114Y-126040971D01*
X121131828Y-126040971D01*
X120846114Y-125969542D01*
X120703257Y-125898114D01*
X120560400Y-125755257D01*
X120488971Y-125540971D01*
X120488971Y-125398114D01*
X120560400Y-125183828D01*
X120631828Y-125112400D01*
X121417542Y-124469542D02*
X121417542Y-123326685D01*
X121203257Y-122612400D02*
X121203257Y-122112400D01*
X121988971Y-121898114D02*
X121988971Y-122612400D01*
X120488971Y-122612400D01*
X120488971Y-121898114D01*
X126284800Y-127332228D02*
X126284800Y-126617942D01*
X126713371Y-127475085D02*
X125213371Y-126975085D01*
X126713371Y-126475085D01*
X126570514Y-125117942D02*
X126641942Y-125189371D01*
X126713371Y-125403657D01*
X126713371Y-125546514D01*
X126641942Y-125760800D01*
X126499085Y-125903657D01*
X126356228Y-125975085D01*
X126070514Y-126046514D01*
X125856228Y-126046514D01*
X125570514Y-125975085D01*
X125427657Y-125903657D01*
X125284800Y-125760800D01*
X125213371Y-125546514D01*
X125213371Y-125403657D01*
X125284800Y-125189371D01*
X125356228Y-125117942D01*
X126141942Y-124475085D02*
X126141942Y-123332228D01*
X126713371Y-122617942D02*
X125213371Y-122617942D01*
X126713371Y-121760800D01*
X125213371Y-121760800D01*
X116277200Y-127332228D02*
X116277200Y-126617942D01*
X116705771Y-127475085D02*
X115205771Y-126975085D01*
X116705771Y-126475085D01*
X116562914Y-125117942D02*
X116634342Y-125189371D01*
X116705771Y-125403657D01*
X116705771Y-125546514D01*
X116634342Y-125760800D01*
X116491485Y-125903657D01*
X116348628Y-125975085D01*
X116062914Y-126046514D01*
X115848628Y-126046514D01*
X115562914Y-125975085D01*
X115420057Y-125903657D01*
X115277200Y-125760800D01*
X115205771Y-125546514D01*
X115205771Y-125403657D01*
X115277200Y-125189371D01*
X115348628Y-125117942D01*
X116134342Y-124475085D02*
X116134342Y-123332228D01*
X116705771Y-122617942D02*
X115205771Y-122617942D01*
X116705771Y-121760800D01*
X115205771Y-121760800D01*
D12*
X129666380Y-129456914D02*
X129666380Y-128885485D01*
X130666380Y-129171200D02*
X129666380Y-129171200D01*
X130666380Y-128409295D02*
X130618761Y-128504533D01*
X130571142Y-128552152D01*
X130475904Y-128599771D01*
X130190190Y-128599771D01*
X130094952Y-128552152D01*
X130047333Y-128504533D01*
X129999714Y-128409295D01*
X129999714Y-128266438D01*
X130047333Y-128171200D01*
X130094952Y-128123580D01*
X130190190Y-128075961D01*
X130475904Y-128075961D01*
X130571142Y-128123580D01*
X130618761Y-128171200D01*
X130666380Y-128266438D01*
X130666380Y-128409295D01*
X130380666Y-126933104D02*
X130380666Y-126456914D01*
X130666380Y-127028342D02*
X129666380Y-126695009D01*
X130666380Y-126361676D01*
X130666380Y-126028342D02*
X129999714Y-126028342D01*
X130190190Y-126028342D02*
X130094952Y-125980723D01*
X130047333Y-125933104D01*
X129999714Y-125837866D01*
X129999714Y-125742628D01*
X130666380Y-124980723D02*
X129666380Y-124980723D01*
X130618761Y-124980723D02*
X130666380Y-125075961D01*
X130666380Y-125266438D01*
X130618761Y-125361676D01*
X130571142Y-125409295D01*
X130475904Y-125456914D01*
X130190190Y-125456914D01*
X130094952Y-125409295D01*
X130047333Y-125361676D01*
X129999714Y-125266438D01*
X129999714Y-125075961D01*
X130047333Y-124980723D01*
X129999714Y-124075961D02*
X130666380Y-124075961D01*
X129999714Y-124504533D02*
X130523523Y-124504533D01*
X130618761Y-124456914D01*
X130666380Y-124361676D01*
X130666380Y-124218819D01*
X130618761Y-124123580D01*
X130571142Y-124075961D01*
X130666380Y-123599771D02*
X129999714Y-123599771D01*
X129666380Y-123599771D02*
X129714000Y-123647390D01*
X129761619Y-123599771D01*
X129714000Y-123552152D01*
X129666380Y-123599771D01*
X129761619Y-123599771D01*
X129999714Y-123123580D02*
X130666380Y-123123580D01*
X130094952Y-123123580D02*
X130047333Y-123075961D01*
X129999714Y-122980723D01*
X129999714Y-122837866D01*
X130047333Y-122742628D01*
X130142571Y-122695009D01*
X130666380Y-122695009D01*
X130666380Y-122075961D02*
X130618761Y-122171200D01*
X130571142Y-122218819D01*
X130475904Y-122266438D01*
X130190190Y-122266438D01*
X130094952Y-122218819D01*
X130047333Y-122171200D01*
X129999714Y-122075961D01*
X129999714Y-121933104D01*
X130047333Y-121837866D01*
X130094952Y-121790247D01*
X130190190Y-121742628D01*
X130475904Y-121742628D01*
X130571142Y-121790247D01*
X130618761Y-121837866D01*
X130666380Y-121933104D01*
X130666380Y-122075961D01*
X131366380Y-127695009D02*
X132366380Y-127361676D01*
X131366380Y-127028342D01*
X132366380Y-126695009D02*
X131366380Y-126695009D01*
X132366380Y-126218819D02*
X131366380Y-126218819D01*
X132366380Y-125647390D01*
X131366380Y-125647390D01*
X131318761Y-124456914D02*
X132604476Y-125314057D01*
X132366380Y-124075961D02*
X132366380Y-123885485D01*
X132318761Y-123790247D01*
X132271142Y-123742628D01*
X132128285Y-123647390D01*
X131937809Y-123599771D01*
X131556857Y-123599771D01*
X131461619Y-123647390D01*
X131414000Y-123695009D01*
X131366380Y-123790247D01*
X131366380Y-123980723D01*
X131414000Y-124075961D01*
X131461619Y-124123580D01*
X131556857Y-124171200D01*
X131794952Y-124171200D01*
X131890190Y-124123580D01*
X131937809Y-124075961D01*
X131985428Y-123980723D01*
X131985428Y-123790247D01*
X131937809Y-123695009D01*
X131890190Y-123647390D01*
X131794952Y-123599771D01*
X131366380Y-123314057D02*
X132366380Y-122980723D01*
X131366380Y-122647390D01*
X139564171Y-142861561D02*
X139707028Y-142909180D01*
X139945123Y-142909180D01*
X140040361Y-142861561D01*
X140087980Y-142813942D01*
X140135600Y-142718704D01*
X140135600Y-142623466D01*
X140087980Y-142528228D01*
X140040361Y-142480609D01*
X139945123Y-142432990D01*
X139754647Y-142385371D01*
X139659409Y-142337752D01*
X139611790Y-142290133D01*
X139564171Y-142194895D01*
X139564171Y-142099657D01*
X139611790Y-142004419D01*
X139659409Y-141956800D01*
X139754647Y-141909180D01*
X139992742Y-141909180D01*
X140135600Y-141956800D01*
X140707028Y-142909180D02*
X140611790Y-142861561D01*
X140564171Y-142813942D01*
X140516552Y-142718704D01*
X140516552Y-142432990D01*
X140564171Y-142337752D01*
X140611790Y-142290133D01*
X140707028Y-142242514D01*
X140849885Y-142242514D01*
X140945123Y-142290133D01*
X140992742Y-142337752D01*
X141040361Y-142432990D01*
X141040361Y-142718704D01*
X140992742Y-142813942D01*
X140945123Y-142861561D01*
X140849885Y-142909180D01*
X140707028Y-142909180D01*
X141611790Y-142909180D02*
X141516552Y-142861561D01*
X141468933Y-142766323D01*
X141468933Y-141909180D01*
X142421314Y-142909180D02*
X142421314Y-141909180D01*
X142421314Y-142861561D02*
X142326076Y-142909180D01*
X142135600Y-142909180D01*
X142040361Y-142861561D01*
X141992742Y-142813942D01*
X141945123Y-142718704D01*
X141945123Y-142432990D01*
X141992742Y-142337752D01*
X142040361Y-142290133D01*
X142135600Y-142242514D01*
X142326076Y-142242514D01*
X142421314Y-142290133D01*
X143278457Y-142861561D02*
X143183219Y-142909180D01*
X142992742Y-142909180D01*
X142897504Y-142861561D01*
X142849885Y-142766323D01*
X142849885Y-142385371D01*
X142897504Y-142290133D01*
X142992742Y-142242514D01*
X143183219Y-142242514D01*
X143278457Y-142290133D01*
X143326076Y-142385371D01*
X143326076Y-142480609D01*
X142849885Y-142575847D01*
X143754647Y-142909180D02*
X143754647Y-142242514D01*
X143754647Y-142432990D02*
X143802266Y-142337752D01*
X143849885Y-142290133D01*
X143945123Y-142242514D01*
X144040361Y-142242514D01*
X145040361Y-142242514D02*
X145230838Y-142909180D01*
X145421314Y-142432990D01*
X145611790Y-142909180D01*
X145802266Y-142242514D01*
X146183219Y-142909180D02*
X146183219Y-142242514D01*
X146183219Y-141909180D02*
X146135600Y-141956800D01*
X146183219Y-142004419D01*
X146230838Y-141956800D01*
X146183219Y-141909180D01*
X146183219Y-142004419D01*
X146659409Y-142909180D02*
X146659409Y-142242514D01*
X146659409Y-142432990D02*
X146707028Y-142337752D01*
X146754647Y-142290133D01*
X146849885Y-142242514D01*
X146945123Y-142242514D01*
X147659409Y-142861561D02*
X147564171Y-142909180D01*
X147373695Y-142909180D01*
X147278457Y-142861561D01*
X147230838Y-142766323D01*
X147230838Y-142385371D01*
X147278457Y-142290133D01*
X147373695Y-142242514D01*
X147564171Y-142242514D01*
X147659409Y-142290133D01*
X147707028Y-142385371D01*
X147707028Y-142480609D01*
X147230838Y-142575847D01*
X148754647Y-142242514D02*
X149135600Y-142242514D01*
X148897504Y-141909180D02*
X148897504Y-142766323D01*
X148945123Y-142861561D01*
X149040361Y-142909180D01*
X149135600Y-142909180D01*
X149611790Y-142909180D02*
X149516552Y-142861561D01*
X149468933Y-142813942D01*
X149421314Y-142718704D01*
X149421314Y-142432990D01*
X149468933Y-142337752D01*
X149516552Y-142290133D01*
X149611790Y-142242514D01*
X149754647Y-142242514D01*
X149849885Y-142290133D01*
X149897504Y-142337752D01*
X149945123Y-142432990D01*
X149945123Y-142718704D01*
X149897504Y-142813942D01*
X149849885Y-142861561D01*
X149754647Y-142909180D01*
X149611790Y-142909180D01*
X139707028Y-144561561D02*
X139611790Y-144609180D01*
X139421314Y-144609180D01*
X139326076Y-144561561D01*
X139278457Y-144513942D01*
X139230838Y-144418704D01*
X139230838Y-144132990D01*
X139278457Y-144037752D01*
X139326076Y-143990133D01*
X139421314Y-143942514D01*
X139611790Y-143942514D01*
X139707028Y-143990133D01*
X140516552Y-144561561D02*
X140421314Y-144609180D01*
X140230838Y-144609180D01*
X140135600Y-144561561D01*
X140087980Y-144466323D01*
X140087980Y-144085371D01*
X140135600Y-143990133D01*
X140230838Y-143942514D01*
X140421314Y-143942514D01*
X140516552Y-143990133D01*
X140564171Y-144085371D01*
X140564171Y-144180609D01*
X140087980Y-144275847D01*
X140992742Y-143942514D02*
X140992742Y-144609180D01*
X140992742Y-144037752D02*
X141040361Y-143990133D01*
X141135600Y-143942514D01*
X141278457Y-143942514D01*
X141373695Y-143990133D01*
X141421314Y-144085371D01*
X141421314Y-144609180D01*
X141754647Y-143942514D02*
X142135600Y-143942514D01*
X141897504Y-143609180D02*
X141897504Y-144466323D01*
X141945123Y-144561561D01*
X142040361Y-144609180D01*
X142135600Y-144609180D01*
X142468933Y-144609180D02*
X142468933Y-143942514D01*
X142468933Y-144132990D02*
X142516552Y-144037752D01*
X142564171Y-143990133D01*
X142659409Y-143942514D01*
X142754647Y-143942514D01*
X143516552Y-144609180D02*
X143516552Y-144085371D01*
X143468933Y-143990133D01*
X143373695Y-143942514D01*
X143183219Y-143942514D01*
X143087980Y-143990133D01*
X143516552Y-144561561D02*
X143421314Y-144609180D01*
X143183219Y-144609180D01*
X143087980Y-144561561D01*
X143040361Y-144466323D01*
X143040361Y-144371085D01*
X143087980Y-144275847D01*
X143183219Y-144228228D01*
X143421314Y-144228228D01*
X143516552Y-144180609D01*
X144135600Y-144609180D02*
X144040361Y-144561561D01*
X143992742Y-144466323D01*
X143992742Y-143609180D01*
X145135600Y-143942514D02*
X145516552Y-143942514D01*
X145278457Y-143609180D02*
X145278457Y-144466323D01*
X145326076Y-144561561D01*
X145421314Y-144609180D01*
X145516552Y-144609180D01*
X146230838Y-144561561D02*
X146135600Y-144609180D01*
X145945123Y-144609180D01*
X145849885Y-144561561D01*
X145802266Y-144466323D01*
X145802266Y-144085371D01*
X145849885Y-143990133D01*
X145945123Y-143942514D01*
X146135600Y-143942514D01*
X146230838Y-143990133D01*
X146278457Y-144085371D01*
X146278457Y-144180609D01*
X145802266Y-144275847D01*
X146707028Y-144609180D02*
X146707028Y-143942514D01*
X146707028Y-144132990D02*
X146754647Y-144037752D01*
X146802266Y-143990133D01*
X146897504Y-143942514D01*
X146992742Y-143942514D01*
X147326076Y-144609180D02*
X147326076Y-143942514D01*
X147326076Y-144037752D02*
X147373695Y-143990133D01*
X147468933Y-143942514D01*
X147611790Y-143942514D01*
X147707028Y-143990133D01*
X147754647Y-144085371D01*
X147754647Y-144609180D01*
X147754647Y-144085371D02*
X147802266Y-143990133D01*
X147897504Y-143942514D01*
X148040361Y-143942514D01*
X148135600Y-143990133D01*
X148183219Y-144085371D01*
X148183219Y-144609180D01*
X148659409Y-144609180D02*
X148659409Y-143942514D01*
X148659409Y-143609180D02*
X148611790Y-143656800D01*
X148659409Y-143704419D01*
X148707028Y-143656800D01*
X148659409Y-143609180D01*
X148659409Y-143704419D01*
X149135600Y-143942514D02*
X149135600Y-144609180D01*
X149135600Y-144037752D02*
X149183219Y-143990133D01*
X149278457Y-143942514D01*
X149421314Y-143942514D01*
X149516552Y-143990133D01*
X149564171Y-144085371D01*
X149564171Y-144609180D01*
X150468933Y-144609180D02*
X150468933Y-144085371D01*
X150421314Y-143990133D01*
X150326076Y-143942514D01*
X150135600Y-143942514D01*
X150040361Y-143990133D01*
X150468933Y-144561561D02*
X150373695Y-144609180D01*
X150135600Y-144609180D01*
X150040361Y-144561561D01*
X149992742Y-144466323D01*
X149992742Y-144371085D01*
X150040361Y-144275847D01*
X150135600Y-144228228D01*
X150373695Y-144228228D01*
X150468933Y-144180609D01*
X151087980Y-144609180D02*
X150992742Y-144561561D01*
X150945123Y-144466323D01*
X150945123Y-143609180D01*
X168266171Y-142658361D02*
X168409028Y-142705980D01*
X168647123Y-142705980D01*
X168742361Y-142658361D01*
X168789980Y-142610742D01*
X168837600Y-142515504D01*
X168837600Y-142420266D01*
X168789980Y-142325028D01*
X168742361Y-142277409D01*
X168647123Y-142229790D01*
X168456647Y-142182171D01*
X168361409Y-142134552D01*
X168313790Y-142086933D01*
X168266171Y-141991695D01*
X168266171Y-141896457D01*
X168313790Y-141801219D01*
X168361409Y-141753600D01*
X168456647Y-141705980D01*
X168694742Y-141705980D01*
X168837600Y-141753600D01*
X169409028Y-142705980D02*
X169313790Y-142658361D01*
X169266171Y-142610742D01*
X169218552Y-142515504D01*
X169218552Y-142229790D01*
X169266171Y-142134552D01*
X169313790Y-142086933D01*
X169409028Y-142039314D01*
X169551885Y-142039314D01*
X169647123Y-142086933D01*
X169694742Y-142134552D01*
X169742361Y-142229790D01*
X169742361Y-142515504D01*
X169694742Y-142610742D01*
X169647123Y-142658361D01*
X169551885Y-142705980D01*
X169409028Y-142705980D01*
X170313790Y-142705980D02*
X170218552Y-142658361D01*
X170170933Y-142563123D01*
X170170933Y-141705980D01*
X171123314Y-142705980D02*
X171123314Y-141705980D01*
X171123314Y-142658361D02*
X171028076Y-142705980D01*
X170837600Y-142705980D01*
X170742361Y-142658361D01*
X170694742Y-142610742D01*
X170647123Y-142515504D01*
X170647123Y-142229790D01*
X170694742Y-142134552D01*
X170742361Y-142086933D01*
X170837600Y-142039314D01*
X171028076Y-142039314D01*
X171123314Y-142086933D01*
X171980457Y-142658361D02*
X171885219Y-142705980D01*
X171694742Y-142705980D01*
X171599504Y-142658361D01*
X171551885Y-142563123D01*
X171551885Y-142182171D01*
X171599504Y-142086933D01*
X171694742Y-142039314D01*
X171885219Y-142039314D01*
X171980457Y-142086933D01*
X172028076Y-142182171D01*
X172028076Y-142277409D01*
X171551885Y-142372647D01*
X172456647Y-142705980D02*
X172456647Y-142039314D01*
X172456647Y-142229790D02*
X172504266Y-142134552D01*
X172551885Y-142086933D01*
X172647123Y-142039314D01*
X172742361Y-142039314D01*
X173742361Y-142039314D02*
X173932838Y-142705980D01*
X174123314Y-142229790D01*
X174313790Y-142705980D01*
X174504266Y-142039314D01*
X174885219Y-142705980D02*
X174885219Y-142039314D01*
X174885219Y-141705980D02*
X174837600Y-141753600D01*
X174885219Y-141801219D01*
X174932838Y-141753600D01*
X174885219Y-141705980D01*
X174885219Y-141801219D01*
X175361409Y-142705980D02*
X175361409Y-142039314D01*
X175361409Y-142229790D02*
X175409028Y-142134552D01*
X175456647Y-142086933D01*
X175551885Y-142039314D01*
X175647123Y-142039314D01*
X176361409Y-142658361D02*
X176266171Y-142705980D01*
X176075695Y-142705980D01*
X175980457Y-142658361D01*
X175932838Y-142563123D01*
X175932838Y-142182171D01*
X175980457Y-142086933D01*
X176075695Y-142039314D01*
X176266171Y-142039314D01*
X176361409Y-142086933D01*
X176409028Y-142182171D01*
X176409028Y-142277409D01*
X175932838Y-142372647D01*
X177456647Y-142039314D02*
X177837600Y-142039314D01*
X177599504Y-141705980D02*
X177599504Y-142563123D01*
X177647123Y-142658361D01*
X177742361Y-142705980D01*
X177837600Y-142705980D01*
X178313790Y-142705980D02*
X178218552Y-142658361D01*
X178170933Y-142610742D01*
X178123314Y-142515504D01*
X178123314Y-142229790D01*
X178170933Y-142134552D01*
X178218552Y-142086933D01*
X178313790Y-142039314D01*
X178456647Y-142039314D01*
X178551885Y-142086933D01*
X178599504Y-142134552D01*
X178647123Y-142229790D01*
X178647123Y-142515504D01*
X178599504Y-142610742D01*
X178551885Y-142658361D01*
X178456647Y-142705980D01*
X178313790Y-142705980D01*
X168409028Y-144358361D02*
X168313790Y-144405980D01*
X168123314Y-144405980D01*
X168028076Y-144358361D01*
X167980457Y-144310742D01*
X167932838Y-144215504D01*
X167932838Y-143929790D01*
X167980457Y-143834552D01*
X168028076Y-143786933D01*
X168123314Y-143739314D01*
X168313790Y-143739314D01*
X168409028Y-143786933D01*
X169218552Y-144358361D02*
X169123314Y-144405980D01*
X168932838Y-144405980D01*
X168837600Y-144358361D01*
X168789980Y-144263123D01*
X168789980Y-143882171D01*
X168837600Y-143786933D01*
X168932838Y-143739314D01*
X169123314Y-143739314D01*
X169218552Y-143786933D01*
X169266171Y-143882171D01*
X169266171Y-143977409D01*
X168789980Y-144072647D01*
X169694742Y-143739314D02*
X169694742Y-144405980D01*
X169694742Y-143834552D02*
X169742361Y-143786933D01*
X169837600Y-143739314D01*
X169980457Y-143739314D01*
X170075695Y-143786933D01*
X170123314Y-143882171D01*
X170123314Y-144405980D01*
X170456647Y-143739314D02*
X170837600Y-143739314D01*
X170599504Y-143405980D02*
X170599504Y-144263123D01*
X170647123Y-144358361D01*
X170742361Y-144405980D01*
X170837600Y-144405980D01*
X171170933Y-144405980D02*
X171170933Y-143739314D01*
X171170933Y-143929790D02*
X171218552Y-143834552D01*
X171266171Y-143786933D01*
X171361409Y-143739314D01*
X171456647Y-143739314D01*
X172218552Y-144405980D02*
X172218552Y-143882171D01*
X172170933Y-143786933D01*
X172075695Y-143739314D01*
X171885219Y-143739314D01*
X171789980Y-143786933D01*
X172218552Y-144358361D02*
X172123314Y-144405980D01*
X171885219Y-144405980D01*
X171789980Y-144358361D01*
X171742361Y-144263123D01*
X171742361Y-144167885D01*
X171789980Y-144072647D01*
X171885219Y-144025028D01*
X172123314Y-144025028D01*
X172218552Y-143977409D01*
X172837600Y-144405980D02*
X172742361Y-144358361D01*
X172694742Y-144263123D01*
X172694742Y-143405980D01*
X173837600Y-143739314D02*
X174218552Y-143739314D01*
X173980457Y-143405980D02*
X173980457Y-144263123D01*
X174028076Y-144358361D01*
X174123314Y-144405980D01*
X174218552Y-144405980D01*
X174932838Y-144358361D02*
X174837600Y-144405980D01*
X174647123Y-144405980D01*
X174551885Y-144358361D01*
X174504266Y-144263123D01*
X174504266Y-143882171D01*
X174551885Y-143786933D01*
X174647123Y-143739314D01*
X174837600Y-143739314D01*
X174932838Y-143786933D01*
X174980457Y-143882171D01*
X174980457Y-143977409D01*
X174504266Y-144072647D01*
X175409028Y-144405980D02*
X175409028Y-143739314D01*
X175409028Y-143929790D02*
X175456647Y-143834552D01*
X175504266Y-143786933D01*
X175599504Y-143739314D01*
X175694742Y-143739314D01*
X176028076Y-144405980D02*
X176028076Y-143739314D01*
X176028076Y-143834552D02*
X176075695Y-143786933D01*
X176170933Y-143739314D01*
X176313790Y-143739314D01*
X176409028Y-143786933D01*
X176456647Y-143882171D01*
X176456647Y-144405980D01*
X176456647Y-143882171D02*
X176504266Y-143786933D01*
X176599504Y-143739314D01*
X176742361Y-143739314D01*
X176837600Y-143786933D01*
X176885219Y-143882171D01*
X176885219Y-144405980D01*
X177361409Y-144405980D02*
X177361409Y-143739314D01*
X177361409Y-143405980D02*
X177313790Y-143453600D01*
X177361409Y-143501219D01*
X177409028Y-143453600D01*
X177361409Y-143405980D01*
X177361409Y-143501219D01*
X177837600Y-143739314D02*
X177837600Y-144405980D01*
X177837600Y-143834552D02*
X177885219Y-143786933D01*
X177980457Y-143739314D01*
X178123314Y-143739314D01*
X178218552Y-143786933D01*
X178266171Y-143882171D01*
X178266171Y-144405980D01*
X179170933Y-144405980D02*
X179170933Y-143882171D01*
X179123314Y-143786933D01*
X179028076Y-143739314D01*
X178837600Y-143739314D01*
X178742361Y-143786933D01*
X179170933Y-144358361D02*
X179075695Y-144405980D01*
X178837600Y-144405980D01*
X178742361Y-144358361D01*
X178694742Y-144263123D01*
X178694742Y-144167885D01*
X178742361Y-144072647D01*
X178837600Y-144025028D01*
X179075695Y-144025028D01*
X179170933Y-143977409D01*
X179789980Y-144405980D02*
X179694742Y-144358361D01*
X179647123Y-144263123D01*
X179647123Y-143405980D01*
D13*
X114454171Y-138934000D02*
X115168457Y-138934000D01*
X114311314Y-139362571D02*
X114811314Y-137862571D01*
X115311314Y-139362571D01*
X116668457Y-139219714D02*
X116597028Y-139291142D01*
X116382742Y-139362571D01*
X116239885Y-139362571D01*
X116025600Y-139291142D01*
X115882742Y-139148285D01*
X115811314Y-139005428D01*
X115739885Y-138719714D01*
X115739885Y-138505428D01*
X115811314Y-138219714D01*
X115882742Y-138076857D01*
X116025600Y-137934000D01*
X116239885Y-137862571D01*
X116382742Y-137862571D01*
X116597028Y-137934000D01*
X116668457Y-138005428D01*
X119311314Y-139362571D02*
X118811314Y-138648285D01*
X118454171Y-139362571D02*
X118454171Y-137862571D01*
X119025600Y-137862571D01*
X119168457Y-137934000D01*
X119239885Y-138005428D01*
X119311314Y-138148285D01*
X119311314Y-138362571D01*
X119239885Y-138505428D01*
X119168457Y-138576857D01*
X119025600Y-138648285D01*
X118454171Y-138648285D01*
X120525600Y-139291142D02*
X120382742Y-139362571D01*
X120097028Y-139362571D01*
X119954171Y-139291142D01*
X119882742Y-139148285D01*
X119882742Y-138576857D01*
X119954171Y-138434000D01*
X120097028Y-138362571D01*
X120382742Y-138362571D01*
X120525600Y-138434000D01*
X120597028Y-138576857D01*
X120597028Y-138719714D01*
X119882742Y-138862571D01*
X121882742Y-139291142D02*
X121739885Y-139362571D01*
X121454171Y-139362571D01*
X121311314Y-139291142D01*
X121239885Y-139219714D01*
X121168457Y-139076857D01*
X121168457Y-138648285D01*
X121239885Y-138505428D01*
X121311314Y-138434000D01*
X121454171Y-138362571D01*
X121739885Y-138362571D01*
X121882742Y-138434000D01*
X123097028Y-139291142D02*
X122954171Y-139362571D01*
X122668457Y-139362571D01*
X122525600Y-139291142D01*
X122454171Y-139148285D01*
X122454171Y-138576857D01*
X122525600Y-138434000D01*
X122668457Y-138362571D01*
X122954171Y-138362571D01*
X123097028Y-138434000D01*
X123168457Y-138576857D01*
X123168457Y-138719714D01*
X122454171Y-138862571D01*
X123811314Y-138362571D02*
X123811314Y-139862571D01*
X123811314Y-138434000D02*
X123954171Y-138362571D01*
X124239885Y-138362571D01*
X124382742Y-138434000D01*
X124454171Y-138505428D01*
X124525600Y-138648285D01*
X124525600Y-139076857D01*
X124454171Y-139219714D01*
X124382742Y-139291142D01*
X124239885Y-139362571D01*
X123954171Y-139362571D01*
X123811314Y-139291142D01*
X124954171Y-138362571D02*
X125525600Y-138362571D01*
X125168457Y-137862571D02*
X125168457Y-139148285D01*
X125239885Y-139291142D01*
X125382742Y-139362571D01*
X125525600Y-139362571D01*
X126668457Y-139362571D02*
X126668457Y-138576857D01*
X126597028Y-138434000D01*
X126454171Y-138362571D01*
X126168457Y-138362571D01*
X126025600Y-138434000D01*
X126668457Y-139291142D02*
X126525600Y-139362571D01*
X126168457Y-139362571D01*
X126025600Y-139291142D01*
X125954171Y-139148285D01*
X125954171Y-139005428D01*
X126025600Y-138862571D01*
X126168457Y-138791142D01*
X126525600Y-138791142D01*
X126668457Y-138719714D01*
X128025600Y-139291142D02*
X127882742Y-139362571D01*
X127597028Y-139362571D01*
X127454171Y-139291142D01*
X127382742Y-139219714D01*
X127311314Y-139076857D01*
X127311314Y-138648285D01*
X127382742Y-138505428D01*
X127454171Y-138434000D01*
X127597028Y-138362571D01*
X127882742Y-138362571D01*
X128025600Y-138434000D01*
X128882742Y-139362571D02*
X128739885Y-139291142D01*
X128668457Y-139148285D01*
X128668457Y-137862571D01*
X130025600Y-139291142D02*
X129882742Y-139362571D01*
X129597028Y-139362571D01*
X129454171Y-139291142D01*
X129382742Y-139148285D01*
X129382742Y-138576857D01*
X129454171Y-138434000D01*
X129597028Y-138362571D01*
X129882742Y-138362571D01*
X130025600Y-138434000D01*
X130097028Y-138576857D01*
X130097028Y-138719714D01*
X129382742Y-138862571D01*
X170873028Y-120498914D02*
X170801600Y-120427485D01*
X170730171Y-120284628D01*
X170730171Y-119927485D01*
X170801600Y-119784628D01*
X170873028Y-119713200D01*
X171015885Y-119641771D01*
X171158742Y-119641771D01*
X171373028Y-119713200D01*
X172230171Y-120570342D01*
X172230171Y-119641771D01*
X172230171Y-116998914D02*
X171515885Y-117498914D01*
X172230171Y-117856057D02*
X170730171Y-117856057D01*
X170730171Y-117284628D01*
X170801600Y-117141771D01*
X170873028Y-117070342D01*
X171015885Y-116998914D01*
X171230171Y-116998914D01*
X171373028Y-117070342D01*
X171444457Y-117141771D01*
X171515885Y-117284628D01*
X171515885Y-117856057D01*
X172158742Y-115784628D02*
X172230171Y-115927485D01*
X172230171Y-116213200D01*
X172158742Y-116356057D01*
X172015885Y-116427485D01*
X171444457Y-116427485D01*
X171301600Y-116356057D01*
X171230171Y-116213200D01*
X171230171Y-115927485D01*
X171301600Y-115784628D01*
X171444457Y-115713200D01*
X171587314Y-115713200D01*
X171730171Y-116427485D01*
X172230171Y-114856057D02*
X172158742Y-114998914D01*
X172015885Y-115070342D01*
X170730171Y-115070342D01*
X172230171Y-113641771D02*
X171444457Y-113641771D01*
X171301600Y-113713200D01*
X171230171Y-113856057D01*
X171230171Y-114141771D01*
X171301600Y-114284628D01*
X172158742Y-113641771D02*
X172230171Y-113784628D01*
X172230171Y-114141771D01*
X172158742Y-114284628D01*
X172015885Y-114356057D01*
X171873028Y-114356057D01*
X171730171Y-114284628D01*
X171658742Y-114141771D01*
X171658742Y-113784628D01*
X171587314Y-113641771D01*
X171230171Y-113070342D02*
X172230171Y-112713200D01*
X171230171Y-112356057D02*
X172230171Y-112713200D01*
X172587314Y-112856057D01*
X172658742Y-112927485D01*
X172730171Y-113070342D01*
X172230171Y-110641771D02*
X170730171Y-110641771D01*
X171801600Y-110141771D01*
X170730171Y-109641771D01*
X172230171Y-109641771D01*
X172230171Y-108713200D02*
X172158742Y-108856057D01*
X172087314Y-108927485D01*
X171944457Y-108998914D01*
X171515885Y-108998914D01*
X171373028Y-108927485D01*
X171301600Y-108856057D01*
X171230171Y-108713200D01*
X171230171Y-108498914D01*
X171301600Y-108356057D01*
X171373028Y-108284628D01*
X171515885Y-108213200D01*
X171944457Y-108213200D01*
X172087314Y-108284628D01*
X172158742Y-108356057D01*
X172230171Y-108498914D01*
X172230171Y-108713200D01*
X172230171Y-106927485D02*
X170730171Y-106927485D01*
X172158742Y-106927485D02*
X172230171Y-107070342D01*
X172230171Y-107356057D01*
X172158742Y-107498914D01*
X172087314Y-107570342D01*
X171944457Y-107641771D01*
X171515885Y-107641771D01*
X171373028Y-107570342D01*
X171301600Y-107498914D01*
X171230171Y-107356057D01*
X171230171Y-107070342D01*
X171301600Y-106927485D01*
X171230171Y-105570342D02*
X172230171Y-105570342D01*
X171230171Y-106213200D02*
X172015885Y-106213200D01*
X172158742Y-106141771D01*
X172230171Y-105998914D01*
X172230171Y-105784628D01*
X172158742Y-105641771D01*
X172087314Y-105570342D01*
X172230171Y-104641771D02*
X172158742Y-104784628D01*
X172015885Y-104856057D01*
X170730171Y-104856057D01*
X172158742Y-103498914D02*
X172230171Y-103641771D01*
X172230171Y-103927485D01*
X172158742Y-104070342D01*
X172015885Y-104141771D01*
X171444457Y-104141771D01*
X171301600Y-104070342D01*
X171230171Y-103927485D01*
X171230171Y-103641771D01*
X171301600Y-103498914D01*
X171444457Y-103427485D01*
X171587314Y-103427485D01*
X171730171Y-104141771D01*
D12*
X135788400Y-139954000D02*
X135788400Y-89509600D01*
X174345600Y-139954000D02*
X135788400Y-139954000D01*
X174396400Y-89509600D02*
X174345600Y-139954000D01*
X135737600Y-89509600D02*
X174396400Y-89509600D01*
D13*
X152324171Y-74811771D02*
X152324171Y-76311771D01*
X152324171Y-74883200D02*
X152467028Y-74811771D01*
X152752742Y-74811771D01*
X152895600Y-74883200D01*
X152967028Y-74954628D01*
X153038457Y-75097485D01*
X153038457Y-75526057D01*
X152967028Y-75668914D01*
X152895600Y-75740342D01*
X152752742Y-75811771D01*
X152467028Y-75811771D01*
X152324171Y-75740342D01*
X153681314Y-75811771D02*
X153681314Y-74311771D01*
X153681314Y-75026057D02*
X154538457Y-75026057D01*
X154538457Y-75811771D02*
X154538457Y-74311771D01*
X157252742Y-75668914D02*
X157181314Y-75740342D01*
X156967028Y-75811771D01*
X156824171Y-75811771D01*
X156609885Y-75740342D01*
X156467028Y-75597485D01*
X156395600Y-75454628D01*
X156324171Y-75168914D01*
X156324171Y-74954628D01*
X156395600Y-74668914D01*
X156467028Y-74526057D01*
X156609885Y-74383200D01*
X156824171Y-74311771D01*
X156967028Y-74311771D01*
X157181314Y-74383200D01*
X157252742Y-74454628D01*
X158538457Y-75811771D02*
X158538457Y-75026057D01*
X158467028Y-74883200D01*
X158324171Y-74811771D01*
X158038457Y-74811771D01*
X157895600Y-74883200D01*
X158538457Y-75740342D02*
X158395600Y-75811771D01*
X158038457Y-75811771D01*
X157895600Y-75740342D01*
X157824171Y-75597485D01*
X157824171Y-75454628D01*
X157895600Y-75311771D01*
X158038457Y-75240342D01*
X158395600Y-75240342D01*
X158538457Y-75168914D01*
X159252742Y-75811771D02*
X159252742Y-74811771D01*
X159252742Y-75097485D02*
X159324171Y-74954628D01*
X159395600Y-74883200D01*
X159538457Y-74811771D01*
X159681314Y-74811771D01*
X160181314Y-75811771D02*
X160181314Y-74811771D01*
X160181314Y-75097485D02*
X160252742Y-74954628D01*
X160324171Y-74883200D01*
X160467028Y-74811771D01*
X160609885Y-74811771D01*
X161109885Y-75811771D02*
X161109885Y-74811771D01*
X161109885Y-74311771D02*
X161038457Y-74383200D01*
X161109885Y-74454628D01*
X161181314Y-74383200D01*
X161109885Y-74311771D01*
X161109885Y-74454628D01*
X162395600Y-75740342D02*
X162252742Y-75811771D01*
X161967028Y-75811771D01*
X161824171Y-75740342D01*
X161752742Y-75597485D01*
X161752742Y-75026057D01*
X161824171Y-74883200D01*
X161967028Y-74811771D01*
X162252742Y-74811771D01*
X162395600Y-74883200D01*
X162467028Y-75026057D01*
X162467028Y-75168914D01*
X161752742Y-75311771D01*
X163109885Y-75811771D02*
X163109885Y-74811771D01*
X163109885Y-75097485D02*
X163181314Y-74954628D01*
X163252742Y-74883200D01*
X163395600Y-74811771D01*
X163538457Y-74811771D01*
X165681314Y-75026057D02*
X165895600Y-75097485D01*
X165967028Y-75168914D01*
X166038457Y-75311771D01*
X166038457Y-75526057D01*
X165967028Y-75668914D01*
X165895600Y-75740342D01*
X165752742Y-75811771D01*
X165181314Y-75811771D01*
X165181314Y-74311771D01*
X165681314Y-74311771D01*
X165824171Y-74383200D01*
X165895600Y-74454628D01*
X165967028Y-74597485D01*
X165967028Y-74740342D01*
X165895600Y-74883200D01*
X165824171Y-74954628D01*
X165681314Y-75026057D01*
X165181314Y-75026057D01*
X166895600Y-75811771D02*
X166752742Y-75740342D01*
X166681314Y-75668914D01*
X166609885Y-75526057D01*
X166609885Y-75097485D01*
X166681314Y-74954628D01*
X166752742Y-74883200D01*
X166895600Y-74811771D01*
X167109885Y-74811771D01*
X167252742Y-74883200D01*
X167324171Y-74954628D01*
X167395600Y-75097485D01*
X167395600Y-75526057D01*
X167324171Y-75668914D01*
X167252742Y-75740342D01*
X167109885Y-75811771D01*
X166895600Y-75811771D01*
X168681314Y-75811771D02*
X168681314Y-75026057D01*
X168609885Y-74883200D01*
X168467028Y-74811771D01*
X168181314Y-74811771D01*
X168038457Y-74883200D01*
X168681314Y-75740342D02*
X168538457Y-75811771D01*
X168181314Y-75811771D01*
X168038457Y-75740342D01*
X167967028Y-75597485D01*
X167967028Y-75454628D01*
X168038457Y-75311771D01*
X168181314Y-75240342D01*
X168538457Y-75240342D01*
X168681314Y-75168914D01*
X169395600Y-75811771D02*
X169395600Y-74811771D01*
X169395600Y-75097485D02*
X169467028Y-74954628D01*
X169538457Y-74883200D01*
X169681314Y-74811771D01*
X169824171Y-74811771D01*
X170967028Y-75811771D02*
X170967028Y-74311771D01*
X170967028Y-75740342D02*
X170824171Y-75811771D01*
X170538457Y-75811771D01*
X170395600Y-75740342D01*
X170324171Y-75668914D01*
X170252742Y-75526057D01*
X170252742Y-75097485D01*
X170324171Y-74954628D01*
X170395600Y-74883200D01*
X170538457Y-74811771D01*
X170824171Y-74811771D01*
X170967028Y-74883200D01*
D12*
X135229600Y-88341200D02*
X135229600Y-69951600D01*
X174447200Y-88392000D02*
X135229600Y-88341200D01*
X174447200Y-69951600D02*
X174447200Y-88392000D01*
X135229600Y-70002400D02*
X174447200Y-69951600D01*
G04 #@! TO.C,U1*
X144523600Y-104976200D02*
G75*
G03X144523600Y-104976200I-100000J0D01*
G01*
D14*
X141893600Y-106496200D02*
X141893600Y-108256200D01*
X144953600Y-108256200D02*
X144953600Y-106496200D01*
D15*
G04 #@! TO.C,A_Buck_9V1*
X137252400Y-98288800D02*
X138582400Y-98288800D01*
X137252400Y-99618800D02*
X137252400Y-98288800D01*
X137252400Y-100888800D02*
X139912400Y-100888800D01*
X139912400Y-100888800D02*
X139912400Y-100948800D01*
X137252400Y-100888800D02*
X137252400Y-100948800D01*
X137252400Y-100948800D02*
X139912400Y-100948800D01*
G04 #@! TO.C,LCD1*
X101334000Y-69238100D02*
X181614000Y-69238100D01*
X181614000Y-69238100D02*
X181614000Y-32958100D01*
X181614000Y-32958100D02*
X102134000Y-32958100D01*
X101334000Y-32958100D02*
X101334000Y-69238100D01*
X101344000Y-32958100D02*
X102134000Y-32958100D01*
X107974000Y-32598100D02*
X110974000Y-32598100D01*
X109674000Y-43598100D02*
X173174000Y-43598100D01*
X109174280Y-58097420D02*
X109174280Y-44098100D01*
X173174660Y-58598100D02*
X109674000Y-58598100D01*
X173674000Y-44098100D02*
X173674000Y-58098100D01*
X173674000Y-44098100D02*
G75*
G03X173174000Y-43598100I-500000J0D01*
G01*
X173174660Y-58597800D02*
G75*
G03X173675040Y-58097420I0J500380D01*
G01*
X109174280Y-58097420D02*
G75*
G03X109674660Y-58597800I500380J0D01*
G01*
X109674660Y-43596560D02*
G75*
G03X109174280Y-44096940I0J-500380D01*
G01*
X104474000Y-38598100D02*
X177474000Y-38598100D01*
X177474000Y-38598100D02*
X177474000Y-63598100D01*
X177474000Y-63598100D02*
X104474000Y-63598100D01*
X104474000Y-63598100D02*
X104474000Y-38598100D01*
G04 #@! TO.C,Keypad1*
X129193600Y-104283200D02*
X129193600Y-105613200D01*
X127863600Y-104283200D02*
X129193600Y-104283200D01*
X126593600Y-104283200D02*
X126593600Y-106943200D01*
X126593600Y-106943200D02*
X108753600Y-106943200D01*
X126593600Y-104283200D02*
X108753600Y-104283200D01*
X108753600Y-104283200D02*
X108753600Y-106943200D01*
G04 #@! TO.C,pH_carrier1*
X136185600Y-72520500D02*
X137515600Y-72520500D01*
X136185600Y-73850500D02*
X136185600Y-72520500D01*
X138845600Y-75120500D02*
X136185600Y-75120500D01*
X138845600Y-85340500D02*
X138845600Y-75120500D01*
X136185600Y-85340500D02*
X138845600Y-85340500D01*
X136185600Y-75120500D02*
X136185600Y-85340500D01*
G04 #@! TO.C,Relay_control1*
X142281600Y-93582800D02*
X142281600Y-92252800D01*
X143611600Y-93582800D02*
X142281600Y-93582800D01*
X144881600Y-93582800D02*
X144881600Y-90922800D01*
X144881600Y-90922800D02*
X152561600Y-90922800D01*
X144881600Y-93582800D02*
X152561600Y-93582800D01*
X152561600Y-93582800D02*
X152561600Y-90922800D01*
G04 #@! TO.C,Relay_pwr1*
X166684000Y-93582800D02*
X166684000Y-90922800D01*
X161544000Y-93582800D02*
X166684000Y-93582800D01*
X161544000Y-90922800D02*
X166684000Y-90922800D01*
X161544000Y-93582800D02*
X161544000Y-90922800D01*
X160274000Y-93582800D02*
X158944000Y-93582800D01*
X158944000Y-93582800D02*
X158944000Y-92252800D01*
G04 #@! TO.C,R1*
X144357200Y-61483800D02*
X144357200Y-60283800D01*
X146117200Y-60283800D02*
X146117200Y-61483800D01*
G04 #@! TO.C,C1*
X149122000Y-87514800D02*
X150122000Y-87514800D01*
X150122000Y-85814800D02*
X149122000Y-85814800D01*
G04 #@! TO.C,C2*
X116244000Y-46408400D02*
X116244000Y-47408400D01*
X117944000Y-47408400D02*
X117944000Y-46408400D01*
G04 #@! TO.C,C3*
X163284800Y-43254800D02*
X163284800Y-44254800D01*
X164984800Y-44254800D02*
X164984800Y-43254800D01*
G04 #@! TO.C,C4*
X140424800Y-60358400D02*
X140424800Y-61358400D01*
X142124800Y-61358400D02*
X142124800Y-60358400D01*
G04 #@! TO.C,C5*
X134809600Y-61409200D02*
X134809600Y-60409200D01*
X133109600Y-60409200D02*
X133109600Y-61409200D01*
G04 #@! TO.C,C6*
X143858205Y-85940000D02*
X144858205Y-85940000D01*
X144858205Y-84240000D02*
X143858205Y-84240000D01*
G04 #@! TO.C,C7*
X143862205Y-83552400D02*
X144862205Y-83552400D01*
X144862205Y-81852400D02*
X143862205Y-81852400D01*
G04 #@! TO.C,Power_Screws1*
X133813200Y-111066800D02*
X132313200Y-111066800D01*
X133813200Y-112806800D02*
X133813200Y-111066800D01*
X112193200Y-114390800D02*
X112287200Y-114297800D01*
X109943200Y-116641800D02*
X110002200Y-116582800D01*
X112023200Y-114150800D02*
X112082200Y-114092800D01*
X109738200Y-116435800D02*
X109832200Y-116342800D01*
X117193200Y-114390800D02*
X117287200Y-114297800D01*
X114943200Y-116641800D02*
X115002200Y-116582800D01*
X117023200Y-114150800D02*
X117082200Y-114092800D01*
X114738200Y-116435800D02*
X114832200Y-116342800D01*
X122193200Y-114390800D02*
X122287200Y-114297800D01*
X119943200Y-116641800D02*
X120002200Y-116582800D01*
X122023200Y-114150800D02*
X122082200Y-114092800D01*
X119738200Y-116435800D02*
X119832200Y-116342800D01*
X127193200Y-114390800D02*
X127287200Y-114297800D01*
X124943200Y-116641800D02*
X125002200Y-116582800D01*
X127023200Y-114150800D02*
X127082200Y-114092800D01*
X124738200Y-116435800D02*
X124832200Y-116342800D01*
X108453200Y-120426800D02*
X133573200Y-120426800D01*
X108453200Y-111306800D02*
X108453200Y-120426800D01*
X133573200Y-111306800D02*
X108453200Y-111306800D01*
X133573200Y-120426800D02*
X133573200Y-111306800D01*
X133573200Y-112866800D02*
X108453200Y-112866800D01*
X111913200Y-118366800D02*
G75*
G03X111913200Y-118366800I-900000J0D01*
G01*
X112693200Y-115366800D02*
G75*
G03X112693200Y-115366800I-1680000J0D01*
G01*
X116913200Y-118366800D02*
G75*
G03X116913200Y-118366800I-900000J0D01*
G01*
X117693200Y-115366800D02*
G75*
G03X117693200Y-115366800I-1680000J0D01*
G01*
X121913200Y-118366800D02*
G75*
G03X121913200Y-118366800I-900000J0D01*
G01*
X122693200Y-115366800D02*
G75*
G03X122693200Y-115366800I-1680000J0D01*
G01*
X126913200Y-118366800D02*
G75*
G03X126913200Y-118366800I-900000J0D01*
G01*
X127693200Y-115366800D02*
G75*
G03X127693200Y-115366800I-1680000J0D01*
G01*
X131913200Y-118366800D02*
G75*
G03X131913200Y-118366800I-900000J0D01*
G01*
X130983817Y-113686350D02*
G75*
G02X131802200Y-113882800I29383J-1680450D01*
G01*
X132497153Y-114577712D02*
G75*
G02X132497200Y-116155800I-1483953J-789088D01*
G01*
X131802288Y-116850753D02*
G75*
G02X130224200Y-116850800I-789088J1483953D01*
G01*
X129529247Y-116155888D02*
G75*
G02X129529200Y-114577800I1483953J789088D01*
G01*
X130224488Y-113883448D02*
G75*
G02X131013200Y-113686800I788712J-1483352D01*
G01*
G04 #@! TO.C,C8*
X153859600Y-80678400D02*
X153859600Y-79678400D01*
X152159600Y-79678400D02*
X152159600Y-80678400D01*
G04 #@! TO.C,Cbst1*
X145700800Y-111140800D02*
X145000800Y-111140800D01*
X145000800Y-109940800D02*
X145700800Y-109940800D01*
D16*
G04 #@! TO.C,L1*
X155625319Y-108585000D02*
X153797481Y-108585000D01*
X153797481Y-115036600D02*
X155625319Y-115036600D01*
D15*
G04 #@! TO.C,Rfbb1*
X140733200Y-109862000D02*
X140733200Y-110102000D01*
X141613200Y-110102000D02*
X141613200Y-109862000D01*
G04 #@! TO.C,Rfbt1*
X139457200Y-109242000D02*
X139957200Y-109242000D01*
X139957200Y-108182000D02*
X139457200Y-108182000D01*
G04 #@! TO.C,Cin1*
X142619600Y-102094400D02*
X143619600Y-102094400D01*
X143619600Y-100394400D02*
X142619600Y-100394400D01*
G04 #@! TO.C,Cout1*
X155710000Y-100884800D02*
X153710000Y-100884800D01*
X153710000Y-102924800D02*
X155710000Y-102924800D01*
G04 #@! TO.C,U1*
D10*
X145400780Y-108087304D02*
X146210304Y-108087304D01*
X146305542Y-108039685D01*
X146353161Y-107992066D01*
X146400780Y-107896828D01*
X146400780Y-107706352D01*
X146353161Y-107611114D01*
X146305542Y-107563495D01*
X146210304Y-107515876D01*
X145400780Y-107515876D01*
X146400780Y-106515876D02*
X146400780Y-107087304D01*
X146400780Y-106801590D02*
X145400780Y-106801590D01*
X145543638Y-106896828D01*
X145638876Y-106992066D01*
X145686495Y-107087304D01*
G04 #@! TO.C,LCD1*
D17*
X152909733Y-35809180D02*
X152433542Y-35809180D01*
X152433542Y-34809180D01*
X153814495Y-35713942D02*
X153766876Y-35761561D01*
X153624019Y-35809180D01*
X153528780Y-35809180D01*
X153385923Y-35761561D01*
X153290685Y-35666323D01*
X153243066Y-35571085D01*
X153195447Y-35380609D01*
X153195447Y-35237752D01*
X153243066Y-35047276D01*
X153290685Y-34952038D01*
X153385923Y-34856800D01*
X153528780Y-34809180D01*
X153624019Y-34809180D01*
X153766876Y-34856800D01*
X153814495Y-34904419D01*
X154243066Y-35809180D02*
X154243066Y-34809180D01*
X154481161Y-34809180D01*
X154624019Y-34856800D01*
X154719257Y-34952038D01*
X154766876Y-35047276D01*
X154814495Y-35237752D01*
X154814495Y-35380609D01*
X154766876Y-35571085D01*
X154719257Y-35666323D01*
X154624019Y-35761561D01*
X154481161Y-35809180D01*
X154243066Y-35809180D01*
X155766876Y-35809180D02*
X155195447Y-35809180D01*
X155481161Y-35809180D02*
X155481161Y-34809180D01*
X155385923Y-34952038D01*
X155290685Y-35047276D01*
X155195447Y-35094895D01*
G04 #@! TO.C,Keypad1*
X116119638Y-103677980D02*
X116119638Y-102677980D01*
X116691066Y-103677980D02*
X116262495Y-103106552D01*
X116691066Y-102677980D02*
X116119638Y-103249409D01*
X117500590Y-103630361D02*
X117405352Y-103677980D01*
X117214876Y-103677980D01*
X117119638Y-103630361D01*
X117072019Y-103535123D01*
X117072019Y-103154171D01*
X117119638Y-103058933D01*
X117214876Y-103011314D01*
X117405352Y-103011314D01*
X117500590Y-103058933D01*
X117548209Y-103154171D01*
X117548209Y-103249409D01*
X117072019Y-103344647D01*
X117881542Y-103011314D02*
X118119638Y-103677980D01*
X118357733Y-103011314D02*
X118119638Y-103677980D01*
X118024400Y-103916076D01*
X117976780Y-103963695D01*
X117881542Y-104011314D01*
X118738685Y-103011314D02*
X118738685Y-104011314D01*
X118738685Y-103058933D02*
X118833923Y-103011314D01*
X119024400Y-103011314D01*
X119119638Y-103058933D01*
X119167257Y-103106552D01*
X119214876Y-103201790D01*
X119214876Y-103487504D01*
X119167257Y-103582742D01*
X119119638Y-103630361D01*
X119024400Y-103677980D01*
X118833923Y-103677980D01*
X118738685Y-103630361D01*
X120072019Y-103677980D02*
X120072019Y-103154171D01*
X120024400Y-103058933D01*
X119929161Y-103011314D01*
X119738685Y-103011314D01*
X119643447Y-103058933D01*
X120072019Y-103630361D02*
X119976780Y-103677980D01*
X119738685Y-103677980D01*
X119643447Y-103630361D01*
X119595828Y-103535123D01*
X119595828Y-103439885D01*
X119643447Y-103344647D01*
X119738685Y-103297028D01*
X119976780Y-103297028D01*
X120072019Y-103249409D01*
X120976780Y-103677980D02*
X120976780Y-102677980D01*
X120976780Y-103630361D02*
X120881542Y-103677980D01*
X120691066Y-103677980D01*
X120595828Y-103630361D01*
X120548209Y-103582742D01*
X120500590Y-103487504D01*
X120500590Y-103201790D01*
X120548209Y-103106552D01*
X120595828Y-103058933D01*
X120691066Y-103011314D01*
X120881542Y-103011314D01*
X120976780Y-103058933D01*
X121976780Y-103677980D02*
X121405352Y-103677980D01*
X121691066Y-103677980D02*
X121691066Y-102677980D01*
X121595828Y-102820838D01*
X121500590Y-102916076D01*
X121405352Y-102963695D01*
G04 #@! TO.C,pH_carrier1*
X139739714Y-82443128D02*
X140739714Y-82443128D01*
X139787333Y-82443128D02*
X139739714Y-82347890D01*
X139739714Y-82157414D01*
X139787333Y-82062176D01*
X139834952Y-82014557D01*
X139930190Y-81966938D01*
X140215904Y-81966938D01*
X140311142Y-82014557D01*
X140358761Y-82062176D01*
X140406380Y-82157414D01*
X140406380Y-82347890D01*
X140358761Y-82443128D01*
X140406380Y-81538366D02*
X139406380Y-81538366D01*
X139882571Y-81538366D02*
X139882571Y-80966938D01*
X140406380Y-80966938D02*
X139406380Y-80966938D01*
X140501619Y-80728842D02*
X140501619Y-79966938D01*
X140358761Y-79300271D02*
X140406380Y-79395509D01*
X140406380Y-79585985D01*
X140358761Y-79681223D01*
X140311142Y-79728842D01*
X140215904Y-79776461D01*
X139930190Y-79776461D01*
X139834952Y-79728842D01*
X139787333Y-79681223D01*
X139739714Y-79585985D01*
X139739714Y-79395509D01*
X139787333Y-79300271D01*
X140406380Y-78443128D02*
X139882571Y-78443128D01*
X139787333Y-78490747D01*
X139739714Y-78585985D01*
X139739714Y-78776461D01*
X139787333Y-78871700D01*
X140358761Y-78443128D02*
X140406380Y-78538366D01*
X140406380Y-78776461D01*
X140358761Y-78871700D01*
X140263523Y-78919319D01*
X140168285Y-78919319D01*
X140073047Y-78871700D01*
X140025428Y-78776461D01*
X140025428Y-78538366D01*
X139977809Y-78443128D01*
X140406380Y-77966938D02*
X139739714Y-77966938D01*
X139930190Y-77966938D02*
X139834952Y-77919319D01*
X139787333Y-77871700D01*
X139739714Y-77776461D01*
X139739714Y-77681223D01*
X140406380Y-77347890D02*
X139739714Y-77347890D01*
X139930190Y-77347890D02*
X139834952Y-77300271D01*
X139787333Y-77252652D01*
X139739714Y-77157414D01*
X139739714Y-77062176D01*
X140406380Y-76728842D02*
X139739714Y-76728842D01*
X139406380Y-76728842D02*
X139454000Y-76776461D01*
X139501619Y-76728842D01*
X139454000Y-76681223D01*
X139406380Y-76728842D01*
X139501619Y-76728842D01*
X140358761Y-75871700D02*
X140406380Y-75966938D01*
X140406380Y-76157414D01*
X140358761Y-76252652D01*
X140263523Y-76300271D01*
X139882571Y-76300271D01*
X139787333Y-76252652D01*
X139739714Y-76157414D01*
X139739714Y-75966938D01*
X139787333Y-75871700D01*
X139882571Y-75824080D01*
X139977809Y-75824080D01*
X140073047Y-76300271D01*
X140406380Y-75395509D02*
X139739714Y-75395509D01*
X139930190Y-75395509D02*
X139834952Y-75347890D01*
X139787333Y-75300271D01*
X139739714Y-75205033D01*
X139739714Y-75109795D01*
X140406380Y-74252652D02*
X140406380Y-74824080D01*
X140406380Y-74538366D02*
X139406380Y-74538366D01*
X139549238Y-74633604D01*
X139644476Y-74728842D01*
X139692095Y-74824080D01*
G04 #@! TO.C,Relay_control1*
X142402514Y-95143580D02*
X142069180Y-94667390D01*
X141831085Y-95143580D02*
X141831085Y-94143580D01*
X142212038Y-94143580D01*
X142307276Y-94191200D01*
X142354895Y-94238819D01*
X142402514Y-94334057D01*
X142402514Y-94476914D01*
X142354895Y-94572152D01*
X142307276Y-94619771D01*
X142212038Y-94667390D01*
X141831085Y-94667390D01*
X143212038Y-95095961D02*
X143116800Y-95143580D01*
X142926323Y-95143580D01*
X142831085Y-95095961D01*
X142783466Y-95000723D01*
X142783466Y-94619771D01*
X142831085Y-94524533D01*
X142926323Y-94476914D01*
X143116800Y-94476914D01*
X143212038Y-94524533D01*
X143259657Y-94619771D01*
X143259657Y-94715009D01*
X142783466Y-94810247D01*
X143831085Y-95143580D02*
X143735847Y-95095961D01*
X143688228Y-95000723D01*
X143688228Y-94143580D01*
X144640609Y-95143580D02*
X144640609Y-94619771D01*
X144592990Y-94524533D01*
X144497752Y-94476914D01*
X144307276Y-94476914D01*
X144212038Y-94524533D01*
X144640609Y-95095961D02*
X144545371Y-95143580D01*
X144307276Y-95143580D01*
X144212038Y-95095961D01*
X144164419Y-95000723D01*
X144164419Y-94905485D01*
X144212038Y-94810247D01*
X144307276Y-94762628D01*
X144545371Y-94762628D01*
X144640609Y-94715009D01*
X145021561Y-94476914D02*
X145259657Y-95143580D01*
X145497752Y-94476914D02*
X145259657Y-95143580D01*
X145164419Y-95381676D01*
X145116800Y-95429295D01*
X145021561Y-95476914D01*
X145640609Y-95238819D02*
X146402514Y-95238819D01*
X147069180Y-95095961D02*
X146973942Y-95143580D01*
X146783466Y-95143580D01*
X146688228Y-95095961D01*
X146640609Y-95048342D01*
X146592990Y-94953104D01*
X146592990Y-94667390D01*
X146640609Y-94572152D01*
X146688228Y-94524533D01*
X146783466Y-94476914D01*
X146973942Y-94476914D01*
X147069180Y-94524533D01*
X147640609Y-95143580D02*
X147545371Y-95095961D01*
X147497752Y-95048342D01*
X147450133Y-94953104D01*
X147450133Y-94667390D01*
X147497752Y-94572152D01*
X147545371Y-94524533D01*
X147640609Y-94476914D01*
X147783466Y-94476914D01*
X147878704Y-94524533D01*
X147926323Y-94572152D01*
X147973942Y-94667390D01*
X147973942Y-94953104D01*
X147926323Y-95048342D01*
X147878704Y-95095961D01*
X147783466Y-95143580D01*
X147640609Y-95143580D01*
X148402514Y-94476914D02*
X148402514Y-95143580D01*
X148402514Y-94572152D02*
X148450133Y-94524533D01*
X148545371Y-94476914D01*
X148688228Y-94476914D01*
X148783466Y-94524533D01*
X148831085Y-94619771D01*
X148831085Y-95143580D01*
X149164419Y-94476914D02*
X149545371Y-94476914D01*
X149307276Y-94143580D02*
X149307276Y-95000723D01*
X149354895Y-95095961D01*
X149450133Y-95143580D01*
X149545371Y-95143580D01*
X149878704Y-95143580D02*
X149878704Y-94476914D01*
X149878704Y-94667390D02*
X149926323Y-94572152D01*
X149973942Y-94524533D01*
X150069180Y-94476914D01*
X150164419Y-94476914D01*
X150640609Y-95143580D02*
X150545371Y-95095961D01*
X150497752Y-95048342D01*
X150450133Y-94953104D01*
X150450133Y-94667390D01*
X150497752Y-94572152D01*
X150545371Y-94524533D01*
X150640609Y-94476914D01*
X150783466Y-94476914D01*
X150878704Y-94524533D01*
X150926323Y-94572152D01*
X150973942Y-94667390D01*
X150973942Y-94953104D01*
X150926323Y-95048342D01*
X150878704Y-95095961D01*
X150783466Y-95143580D01*
X150640609Y-95143580D01*
X151545371Y-95143580D02*
X151450133Y-95095961D01*
X151402514Y-95000723D01*
X151402514Y-94143580D01*
X152450133Y-95143580D02*
X151878704Y-95143580D01*
X152164419Y-95143580D02*
X152164419Y-94143580D01*
X152069180Y-94286438D01*
X151973942Y-94381676D01*
X151878704Y-94429295D01*
G04 #@! TO.C,Relay_pwr1*
X159202857Y-95143580D02*
X158869523Y-94667390D01*
X158631428Y-95143580D02*
X158631428Y-94143580D01*
X159012380Y-94143580D01*
X159107619Y-94191200D01*
X159155238Y-94238819D01*
X159202857Y-94334057D01*
X159202857Y-94476914D01*
X159155238Y-94572152D01*
X159107619Y-94619771D01*
X159012380Y-94667390D01*
X158631428Y-94667390D01*
X160012380Y-95095961D02*
X159917142Y-95143580D01*
X159726666Y-95143580D01*
X159631428Y-95095961D01*
X159583809Y-95000723D01*
X159583809Y-94619771D01*
X159631428Y-94524533D01*
X159726666Y-94476914D01*
X159917142Y-94476914D01*
X160012380Y-94524533D01*
X160060000Y-94619771D01*
X160060000Y-94715009D01*
X159583809Y-94810247D01*
X160631428Y-95143580D02*
X160536190Y-95095961D01*
X160488571Y-95000723D01*
X160488571Y-94143580D01*
X161440952Y-95143580D02*
X161440952Y-94619771D01*
X161393333Y-94524533D01*
X161298095Y-94476914D01*
X161107619Y-94476914D01*
X161012380Y-94524533D01*
X161440952Y-95095961D02*
X161345714Y-95143580D01*
X161107619Y-95143580D01*
X161012380Y-95095961D01*
X160964761Y-95000723D01*
X160964761Y-94905485D01*
X161012380Y-94810247D01*
X161107619Y-94762628D01*
X161345714Y-94762628D01*
X161440952Y-94715009D01*
X161821904Y-94476914D02*
X162060000Y-95143580D01*
X162298095Y-94476914D02*
X162060000Y-95143580D01*
X161964761Y-95381676D01*
X161917142Y-95429295D01*
X161821904Y-95476914D01*
X162440952Y-95238819D02*
X163202857Y-95238819D01*
X163440952Y-94476914D02*
X163440952Y-95476914D01*
X163440952Y-94524533D02*
X163536190Y-94476914D01*
X163726666Y-94476914D01*
X163821904Y-94524533D01*
X163869523Y-94572152D01*
X163917142Y-94667390D01*
X163917142Y-94953104D01*
X163869523Y-95048342D01*
X163821904Y-95095961D01*
X163726666Y-95143580D01*
X163536190Y-95143580D01*
X163440952Y-95095961D01*
X164250476Y-94476914D02*
X164440952Y-95143580D01*
X164631428Y-94667390D01*
X164821904Y-95143580D01*
X165012380Y-94476914D01*
X165393333Y-95143580D02*
X165393333Y-94476914D01*
X165393333Y-94667390D02*
X165440952Y-94572152D01*
X165488571Y-94524533D01*
X165583809Y-94476914D01*
X165679047Y-94476914D01*
X166536190Y-95143580D02*
X165964761Y-95143580D01*
X166250476Y-95143580D02*
X166250476Y-94143580D01*
X166155238Y-94286438D01*
X166060000Y-94381676D01*
X165964761Y-94429295D01*
G04 #@! TO.C,AC-E1*
X118770685Y-131274666D02*
X119246876Y-131274666D01*
X118675447Y-131560380D02*
X119008780Y-130560380D01*
X119342114Y-131560380D01*
X120246876Y-131465142D02*
X120199257Y-131512761D01*
X120056400Y-131560380D01*
X119961161Y-131560380D01*
X119818304Y-131512761D01*
X119723066Y-131417523D01*
X119675447Y-131322285D01*
X119627828Y-131131809D01*
X119627828Y-130988952D01*
X119675447Y-130798476D01*
X119723066Y-130703238D01*
X119818304Y-130608000D01*
X119961161Y-130560380D01*
X120056400Y-130560380D01*
X120199257Y-130608000D01*
X120246876Y-130655619D01*
X120675447Y-131179428D02*
X121437352Y-131179428D01*
X121913542Y-131036571D02*
X122246876Y-131036571D01*
X122389733Y-131560380D02*
X121913542Y-131560380D01*
X121913542Y-130560380D01*
X122389733Y-130560380D01*
X123342114Y-131560380D02*
X122770685Y-131560380D01*
X123056400Y-131560380D02*
X123056400Y-130560380D01*
X122961161Y-130703238D01*
X122865923Y-130798476D01*
X122770685Y-130846095D01*
G04 #@! TO.C,AC-L1*
X125828704Y-131274666D02*
X126304895Y-131274666D01*
X125733466Y-131560380D02*
X126066800Y-130560380D01*
X126400133Y-131560380D01*
X127304895Y-131465142D02*
X127257276Y-131512761D01*
X127114419Y-131560380D01*
X127019180Y-131560380D01*
X126876323Y-131512761D01*
X126781085Y-131417523D01*
X126733466Y-131322285D01*
X126685847Y-131131809D01*
X126685847Y-130988952D01*
X126733466Y-130798476D01*
X126781085Y-130703238D01*
X126876323Y-130608000D01*
X127019180Y-130560380D01*
X127114419Y-130560380D01*
X127257276Y-130608000D01*
X127304895Y-130655619D01*
X127733466Y-131179428D02*
X128495371Y-131179428D01*
X129447752Y-131560380D02*
X128971561Y-131560380D01*
X128971561Y-130560380D01*
X130304895Y-131560380D02*
X129733466Y-131560380D01*
X130019180Y-131560380D02*
X130019180Y-130560380D01*
X129923942Y-130703238D01*
X129828704Y-130798476D01*
X129733466Y-130846095D01*
G04 #@! TO.C,AC-N1*
X111739657Y-131274666D02*
X112215847Y-131274666D01*
X111644419Y-131560380D02*
X111977752Y-130560380D01*
X112311085Y-131560380D01*
X113215847Y-131465142D02*
X113168228Y-131512761D01*
X113025371Y-131560380D01*
X112930133Y-131560380D01*
X112787276Y-131512761D01*
X112692038Y-131417523D01*
X112644419Y-131322285D01*
X112596800Y-131131809D01*
X112596800Y-130988952D01*
X112644419Y-130798476D01*
X112692038Y-130703238D01*
X112787276Y-130608000D01*
X112930133Y-130560380D01*
X113025371Y-130560380D01*
X113168228Y-130608000D01*
X113215847Y-130655619D01*
X113644419Y-131179428D02*
X114406323Y-131179428D01*
X114882514Y-131560380D02*
X114882514Y-130560380D01*
X115453942Y-131560380D01*
X115453942Y-130560380D01*
X116453942Y-131560380D02*
X115882514Y-131560380D01*
X116168228Y-131560380D02*
X116168228Y-130560380D01*
X116072990Y-130703238D01*
X115977752Y-130798476D01*
X115882514Y-130846095D01*
G04 #@! TO.C,Screw1*
X150862019Y-140811561D02*
X151004876Y-140859180D01*
X151242971Y-140859180D01*
X151338209Y-140811561D01*
X151385828Y-140763942D01*
X151433447Y-140668704D01*
X151433447Y-140573466D01*
X151385828Y-140478228D01*
X151338209Y-140430609D01*
X151242971Y-140382990D01*
X151052495Y-140335371D01*
X150957257Y-140287752D01*
X150909638Y-140240133D01*
X150862019Y-140144895D01*
X150862019Y-140049657D01*
X150909638Y-139954419D01*
X150957257Y-139906800D01*
X151052495Y-139859180D01*
X151290590Y-139859180D01*
X151433447Y-139906800D01*
X152290590Y-140811561D02*
X152195352Y-140859180D01*
X152004876Y-140859180D01*
X151909638Y-140811561D01*
X151862019Y-140763942D01*
X151814400Y-140668704D01*
X151814400Y-140382990D01*
X151862019Y-140287752D01*
X151909638Y-140240133D01*
X152004876Y-140192514D01*
X152195352Y-140192514D01*
X152290590Y-140240133D01*
X152719161Y-140859180D02*
X152719161Y-140192514D01*
X152719161Y-140382990D02*
X152766780Y-140287752D01*
X152814400Y-140240133D01*
X152909638Y-140192514D01*
X153004876Y-140192514D01*
X153719161Y-140811561D02*
X153623923Y-140859180D01*
X153433447Y-140859180D01*
X153338209Y-140811561D01*
X153290590Y-140716323D01*
X153290590Y-140335371D01*
X153338209Y-140240133D01*
X153433447Y-140192514D01*
X153623923Y-140192514D01*
X153719161Y-140240133D01*
X153766780Y-140335371D01*
X153766780Y-140430609D01*
X153290590Y-140525847D01*
X154100114Y-140192514D02*
X154290590Y-140859180D01*
X154481066Y-140382990D01*
X154671542Y-140859180D01*
X154862019Y-140192514D01*
X155766780Y-140859180D02*
X155195352Y-140859180D01*
X155481066Y-140859180D02*
X155481066Y-139859180D01*
X155385828Y-140002038D01*
X155290590Y-140097276D01*
X155195352Y-140144895D01*
G04 #@! TO.C,Screw2*
X162647619Y-140811561D02*
X162790476Y-140859180D01*
X163028571Y-140859180D01*
X163123809Y-140811561D01*
X163171428Y-140763942D01*
X163219047Y-140668704D01*
X163219047Y-140573466D01*
X163171428Y-140478228D01*
X163123809Y-140430609D01*
X163028571Y-140382990D01*
X162838095Y-140335371D01*
X162742857Y-140287752D01*
X162695238Y-140240133D01*
X162647619Y-140144895D01*
X162647619Y-140049657D01*
X162695238Y-139954419D01*
X162742857Y-139906800D01*
X162838095Y-139859180D01*
X163076190Y-139859180D01*
X163219047Y-139906800D01*
X164076190Y-140811561D02*
X163980952Y-140859180D01*
X163790476Y-140859180D01*
X163695238Y-140811561D01*
X163647619Y-140763942D01*
X163600000Y-140668704D01*
X163600000Y-140382990D01*
X163647619Y-140287752D01*
X163695238Y-140240133D01*
X163790476Y-140192514D01*
X163980952Y-140192514D01*
X164076190Y-140240133D01*
X164504761Y-140859180D02*
X164504761Y-140192514D01*
X164504761Y-140382990D02*
X164552380Y-140287752D01*
X164600000Y-140240133D01*
X164695238Y-140192514D01*
X164790476Y-140192514D01*
X165504761Y-140811561D02*
X165409523Y-140859180D01*
X165219047Y-140859180D01*
X165123809Y-140811561D01*
X165076190Y-140716323D01*
X165076190Y-140335371D01*
X165123809Y-140240133D01*
X165219047Y-140192514D01*
X165409523Y-140192514D01*
X165504761Y-140240133D01*
X165552380Y-140335371D01*
X165552380Y-140430609D01*
X165076190Y-140525847D01*
X165885714Y-140192514D02*
X166076190Y-140859180D01*
X166266666Y-140382990D01*
X166457142Y-140859180D01*
X166647619Y-140192514D01*
X166980952Y-139954419D02*
X167028571Y-139906800D01*
X167123809Y-139859180D01*
X167361904Y-139859180D01*
X167457142Y-139906800D01*
X167504761Y-139954419D01*
X167552380Y-140049657D01*
X167552380Y-140144895D01*
X167504761Y-140287752D01*
X166933333Y-140859180D01*
X167552380Y-140859180D01*
G04 #@! TO.C,C2*
X115876342Y-46953466D02*
X115923961Y-47001085D01*
X115971580Y-47143942D01*
X115971580Y-47239180D01*
X115923961Y-47382038D01*
X115828723Y-47477276D01*
X115733485Y-47524895D01*
X115543009Y-47572514D01*
X115400152Y-47572514D01*
X115209676Y-47524895D01*
X115114438Y-47477276D01*
X115019200Y-47382038D01*
X114971580Y-47239180D01*
X114971580Y-47143942D01*
X115019200Y-47001085D01*
X115066819Y-46953466D01*
X115066819Y-46572514D02*
X115019200Y-46524895D01*
X114971580Y-46429657D01*
X114971580Y-46191561D01*
X115019200Y-46096323D01*
X115066819Y-46048704D01*
X115162057Y-46001085D01*
X115257295Y-46001085D01*
X115400152Y-46048704D01*
X115971580Y-46620133D01*
X115971580Y-46001085D01*
G04 #@! TO.C,C3*
X162917142Y-43905466D02*
X162964761Y-43953085D01*
X163012380Y-44095942D01*
X163012380Y-44191180D01*
X162964761Y-44334038D01*
X162869523Y-44429276D01*
X162774285Y-44476895D01*
X162583809Y-44524514D01*
X162440952Y-44524514D01*
X162250476Y-44476895D01*
X162155238Y-44429276D01*
X162060000Y-44334038D01*
X162012380Y-44191180D01*
X162012380Y-44095942D01*
X162060000Y-43953085D01*
X162107619Y-43905466D01*
X162012380Y-43572133D02*
X162012380Y-42953085D01*
X162393333Y-43286419D01*
X162393333Y-43143561D01*
X162440952Y-43048323D01*
X162488571Y-43000704D01*
X162583809Y-42953085D01*
X162821904Y-42953085D01*
X162917142Y-43000704D01*
X162964761Y-43048323D01*
X163012380Y-43143561D01*
X163012380Y-43429276D01*
X162964761Y-43524514D01*
X162917142Y-43572133D01*
G04 #@! TO.C,C5*
X132741942Y-61075866D02*
X132789561Y-61123485D01*
X132837180Y-61266342D01*
X132837180Y-61361580D01*
X132789561Y-61504438D01*
X132694323Y-61599676D01*
X132599085Y-61647295D01*
X132408609Y-61694914D01*
X132265752Y-61694914D01*
X132075276Y-61647295D01*
X131980038Y-61599676D01*
X131884800Y-61504438D01*
X131837180Y-61361580D01*
X131837180Y-61266342D01*
X131884800Y-61123485D01*
X131932419Y-61075866D01*
X131837180Y-60171104D02*
X131837180Y-60647295D01*
X132313371Y-60694914D01*
X132265752Y-60647295D01*
X132218133Y-60552057D01*
X132218133Y-60313961D01*
X132265752Y-60218723D01*
X132313371Y-60171104D01*
X132408609Y-60123485D01*
X132646704Y-60123485D01*
X132741942Y-60171104D01*
X132789561Y-60218723D01*
X132837180Y-60313961D01*
X132837180Y-60552057D01*
X132789561Y-60647295D01*
X132741942Y-60694914D01*
G04 #@! TO.C,Power_Screws1*
X115550038Y-110637580D02*
X115550038Y-109637580D01*
X115930990Y-109637580D01*
X116026228Y-109685200D01*
X116073847Y-109732819D01*
X116121466Y-109828057D01*
X116121466Y-109970914D01*
X116073847Y-110066152D01*
X116026228Y-110113771D01*
X115930990Y-110161390D01*
X115550038Y-110161390D01*
X116692895Y-110637580D02*
X116597657Y-110589961D01*
X116550038Y-110542342D01*
X116502419Y-110447104D01*
X116502419Y-110161390D01*
X116550038Y-110066152D01*
X116597657Y-110018533D01*
X116692895Y-109970914D01*
X116835752Y-109970914D01*
X116930990Y-110018533D01*
X116978609Y-110066152D01*
X117026228Y-110161390D01*
X117026228Y-110447104D01*
X116978609Y-110542342D01*
X116930990Y-110589961D01*
X116835752Y-110637580D01*
X116692895Y-110637580D01*
X117359561Y-109970914D02*
X117550038Y-110637580D01*
X117740514Y-110161390D01*
X117930990Y-110637580D01*
X118121466Y-109970914D01*
X118883371Y-110589961D02*
X118788133Y-110637580D01*
X118597657Y-110637580D01*
X118502419Y-110589961D01*
X118454800Y-110494723D01*
X118454800Y-110113771D01*
X118502419Y-110018533D01*
X118597657Y-109970914D01*
X118788133Y-109970914D01*
X118883371Y-110018533D01*
X118930990Y-110113771D01*
X118930990Y-110209009D01*
X118454800Y-110304247D01*
X119359561Y-110637580D02*
X119359561Y-109970914D01*
X119359561Y-110161390D02*
X119407180Y-110066152D01*
X119454800Y-110018533D01*
X119550038Y-109970914D01*
X119645276Y-109970914D01*
X119740514Y-110732819D02*
X120502419Y-110732819D01*
X120692895Y-110589961D02*
X120835752Y-110637580D01*
X121073847Y-110637580D01*
X121169085Y-110589961D01*
X121216704Y-110542342D01*
X121264323Y-110447104D01*
X121264323Y-110351866D01*
X121216704Y-110256628D01*
X121169085Y-110209009D01*
X121073847Y-110161390D01*
X120883371Y-110113771D01*
X120788133Y-110066152D01*
X120740514Y-110018533D01*
X120692895Y-109923295D01*
X120692895Y-109828057D01*
X120740514Y-109732819D01*
X120788133Y-109685200D01*
X120883371Y-109637580D01*
X121121466Y-109637580D01*
X121264323Y-109685200D01*
X122121466Y-110589961D02*
X122026228Y-110637580D01*
X121835752Y-110637580D01*
X121740514Y-110589961D01*
X121692895Y-110542342D01*
X121645276Y-110447104D01*
X121645276Y-110161390D01*
X121692895Y-110066152D01*
X121740514Y-110018533D01*
X121835752Y-109970914D01*
X122026228Y-109970914D01*
X122121466Y-110018533D01*
X122550038Y-110637580D02*
X122550038Y-109970914D01*
X122550038Y-110161390D02*
X122597657Y-110066152D01*
X122645276Y-110018533D01*
X122740514Y-109970914D01*
X122835752Y-109970914D01*
X123550038Y-110589961D02*
X123454800Y-110637580D01*
X123264323Y-110637580D01*
X123169085Y-110589961D01*
X123121466Y-110494723D01*
X123121466Y-110113771D01*
X123169085Y-110018533D01*
X123264323Y-109970914D01*
X123454800Y-109970914D01*
X123550038Y-110018533D01*
X123597657Y-110113771D01*
X123597657Y-110209009D01*
X123121466Y-110304247D01*
X123930990Y-109970914D02*
X124121466Y-110637580D01*
X124311942Y-110161390D01*
X124502419Y-110637580D01*
X124692895Y-109970914D01*
X125026228Y-110589961D02*
X125121466Y-110637580D01*
X125311942Y-110637580D01*
X125407180Y-110589961D01*
X125454800Y-110494723D01*
X125454800Y-110447104D01*
X125407180Y-110351866D01*
X125311942Y-110304247D01*
X125169085Y-110304247D01*
X125073847Y-110256628D01*
X125026228Y-110161390D01*
X125026228Y-110113771D01*
X125073847Y-110018533D01*
X125169085Y-109970914D01*
X125311942Y-109970914D01*
X125407180Y-110018533D01*
X126407180Y-110637580D02*
X125835752Y-110637580D01*
X126121466Y-110637580D02*
X126121466Y-109637580D01*
X126026228Y-109780438D01*
X125930990Y-109875676D01*
X125835752Y-109923295D01*
G04 #@! TO.C,C8*
X151866742Y-80345066D02*
X151914361Y-80392685D01*
X151961980Y-80535542D01*
X151961980Y-80630780D01*
X151914361Y-80773638D01*
X151819123Y-80868876D01*
X151723885Y-80916495D01*
X151533409Y-80964114D01*
X151390552Y-80964114D01*
X151200076Y-80916495D01*
X151104838Y-80868876D01*
X151009600Y-80773638D01*
X150961980Y-80630780D01*
X150961980Y-80535542D01*
X151009600Y-80392685D01*
X151057219Y-80345066D01*
X151390552Y-79773638D02*
X151342933Y-79868876D01*
X151295314Y-79916495D01*
X151200076Y-79964114D01*
X151152457Y-79964114D01*
X151057219Y-79916495D01*
X151009600Y-79868876D01*
X150961980Y-79773638D01*
X150961980Y-79583161D01*
X151009600Y-79487923D01*
X151057219Y-79440304D01*
X151152457Y-79392685D01*
X151200076Y-79392685D01*
X151295314Y-79440304D01*
X151342933Y-79487923D01*
X151390552Y-79583161D01*
X151390552Y-79773638D01*
X151438171Y-79868876D01*
X151485790Y-79916495D01*
X151581028Y-79964114D01*
X151771504Y-79964114D01*
X151866742Y-79916495D01*
X151914361Y-79868876D01*
X151961980Y-79773638D01*
X151961980Y-79583161D01*
X151914361Y-79487923D01*
X151866742Y-79440304D01*
X151771504Y-79392685D01*
X151581028Y-79392685D01*
X151485790Y-79440304D01*
X151438171Y-79487923D01*
X151390552Y-79583161D01*
G04 #@! TO.C,Cbst1*
X144029276Y-112523542D02*
X143981657Y-112571161D01*
X143838800Y-112618780D01*
X143743561Y-112618780D01*
X143600704Y-112571161D01*
X143505466Y-112475923D01*
X143457847Y-112380685D01*
X143410228Y-112190209D01*
X143410228Y-112047352D01*
X143457847Y-111856876D01*
X143505466Y-111761638D01*
X143600704Y-111666400D01*
X143743561Y-111618780D01*
X143838800Y-111618780D01*
X143981657Y-111666400D01*
X144029276Y-111714019D01*
X144457847Y-112618780D02*
X144457847Y-111618780D01*
X144457847Y-111999733D02*
X144553085Y-111952114D01*
X144743561Y-111952114D01*
X144838800Y-111999733D01*
X144886419Y-112047352D01*
X144934038Y-112142590D01*
X144934038Y-112428304D01*
X144886419Y-112523542D01*
X144838800Y-112571161D01*
X144743561Y-112618780D01*
X144553085Y-112618780D01*
X144457847Y-112571161D01*
X145314990Y-112571161D02*
X145410228Y-112618780D01*
X145600704Y-112618780D01*
X145695942Y-112571161D01*
X145743561Y-112475923D01*
X145743561Y-112428304D01*
X145695942Y-112333066D01*
X145600704Y-112285447D01*
X145457847Y-112285447D01*
X145362609Y-112237828D01*
X145314990Y-112142590D01*
X145314990Y-112094971D01*
X145362609Y-111999733D01*
X145457847Y-111952114D01*
X145600704Y-111952114D01*
X145695942Y-111999733D01*
X146029276Y-111952114D02*
X146410228Y-111952114D01*
X146172133Y-111618780D02*
X146172133Y-112475923D01*
X146219752Y-112571161D01*
X146314990Y-112618780D01*
X146410228Y-112618780D01*
X147267371Y-112618780D02*
X146695942Y-112618780D01*
X146981657Y-112618780D02*
X146981657Y-111618780D01*
X146886419Y-111761638D01*
X146791180Y-111856876D01*
X146695942Y-111904495D01*
G04 #@! TO.C,L1*
X154671733Y-116530380D02*
X154195542Y-116530380D01*
X154195542Y-115530380D01*
X155528876Y-116530380D02*
X154957447Y-116530380D01*
X155243161Y-116530380D02*
X155243161Y-115530380D01*
X155147923Y-115673238D01*
X155052685Y-115768476D01*
X154957447Y-115816095D01*
X154497114Y-113310800D02*
X155163780Y-113310800D01*
X154116161Y-113548895D02*
X154830447Y-113786990D01*
X154830447Y-113167942D01*
X155068542Y-112786990D02*
X155116161Y-112739371D01*
X155163780Y-112786990D01*
X155116161Y-112834609D01*
X155068542Y-112786990D01*
X155163780Y-112786990D01*
X154163780Y-112406038D02*
X154163780Y-111739371D01*
X155163780Y-112167942D01*
X154497114Y-110929847D02*
X155163780Y-110929847D01*
X154497114Y-111358419D02*
X155020923Y-111358419D01*
X155116161Y-111310800D01*
X155163780Y-111215561D01*
X155163780Y-111072704D01*
X155116161Y-110977466D01*
X155068542Y-110929847D01*
X155163780Y-110453657D02*
X154163780Y-110453657D01*
X154639971Y-110453657D02*
X154639971Y-109882228D01*
X155163780Y-109882228D02*
X154163780Y-109882228D01*
X158826200Y-111263180D02*
X158826200Y-111501276D01*
X158588104Y-111406038D02*
X158826200Y-111501276D01*
X159064295Y-111406038D01*
X158683342Y-111691752D02*
X158826200Y-111501276D01*
X158969057Y-111691752D01*
G04 #@! TO.C,Rfbb1*
X139765257Y-111907580D02*
X139431923Y-111431390D01*
X139193828Y-111907580D02*
X139193828Y-110907580D01*
X139574780Y-110907580D01*
X139670019Y-110955200D01*
X139717638Y-111002819D01*
X139765257Y-111098057D01*
X139765257Y-111240914D01*
X139717638Y-111336152D01*
X139670019Y-111383771D01*
X139574780Y-111431390D01*
X139193828Y-111431390D01*
X140050971Y-111240914D02*
X140431923Y-111240914D01*
X140193828Y-111907580D02*
X140193828Y-111050438D01*
X140241447Y-110955200D01*
X140336685Y-110907580D01*
X140431923Y-110907580D01*
X140765257Y-111907580D02*
X140765257Y-110907580D01*
X140765257Y-111288533D02*
X140860495Y-111240914D01*
X141050971Y-111240914D01*
X141146209Y-111288533D01*
X141193828Y-111336152D01*
X141241447Y-111431390D01*
X141241447Y-111717104D01*
X141193828Y-111812342D01*
X141146209Y-111859961D01*
X141050971Y-111907580D01*
X140860495Y-111907580D01*
X140765257Y-111859961D01*
X141670019Y-111907580D02*
X141670019Y-110907580D01*
X141670019Y-111288533D02*
X141765257Y-111240914D01*
X141955733Y-111240914D01*
X142050971Y-111288533D01*
X142098590Y-111336152D01*
X142146209Y-111431390D01*
X142146209Y-111717104D01*
X142098590Y-111812342D01*
X142050971Y-111859961D01*
X141955733Y-111907580D01*
X141765257Y-111907580D01*
X141670019Y-111859961D01*
X143098590Y-111907580D02*
X142527161Y-111907580D01*
X142812876Y-111907580D02*
X142812876Y-110907580D01*
X142717638Y-111050438D01*
X142622400Y-111145676D01*
X142527161Y-111193295D01*
G04 #@! TO.C,Rfbt1*
X137950723Y-107843580D02*
X137617390Y-107367390D01*
X137379295Y-107843580D02*
X137379295Y-106843580D01*
X137760247Y-106843580D01*
X137855485Y-106891200D01*
X137903104Y-106938819D01*
X137950723Y-107034057D01*
X137950723Y-107176914D01*
X137903104Y-107272152D01*
X137855485Y-107319771D01*
X137760247Y-107367390D01*
X137379295Y-107367390D01*
X138236438Y-107176914D02*
X138617390Y-107176914D01*
X138379295Y-107843580D02*
X138379295Y-106986438D01*
X138426914Y-106891200D01*
X138522152Y-106843580D01*
X138617390Y-106843580D01*
X138950723Y-107843580D02*
X138950723Y-106843580D01*
X138950723Y-107224533D02*
X139045961Y-107176914D01*
X139236438Y-107176914D01*
X139331676Y-107224533D01*
X139379295Y-107272152D01*
X139426914Y-107367390D01*
X139426914Y-107653104D01*
X139379295Y-107748342D01*
X139331676Y-107795961D01*
X139236438Y-107843580D01*
X139045961Y-107843580D01*
X138950723Y-107795961D01*
X139712628Y-107176914D02*
X140093580Y-107176914D01*
X139855485Y-106843580D02*
X139855485Y-107700723D01*
X139903104Y-107795961D01*
X139998342Y-107843580D01*
X140093580Y-107843580D01*
X140950723Y-107843580D02*
X140379295Y-107843580D01*
X140665009Y-107843580D02*
X140665009Y-106843580D01*
X140569771Y-106986438D01*
X140474533Y-107081676D01*
X140379295Y-107129295D01*
G04 #@! TO.C,Cin1*
X142262457Y-100101542D02*
X142214838Y-100149161D01*
X142071980Y-100196780D01*
X141976742Y-100196780D01*
X141833885Y-100149161D01*
X141738647Y-100053923D01*
X141691028Y-99958685D01*
X141643409Y-99768209D01*
X141643409Y-99625352D01*
X141691028Y-99434876D01*
X141738647Y-99339638D01*
X141833885Y-99244400D01*
X141976742Y-99196780D01*
X142071980Y-99196780D01*
X142214838Y-99244400D01*
X142262457Y-99292019D01*
X142691028Y-100196780D02*
X142691028Y-99530114D01*
X142691028Y-99196780D02*
X142643409Y-99244400D01*
X142691028Y-99292019D01*
X142738647Y-99244400D01*
X142691028Y-99196780D01*
X142691028Y-99292019D01*
X143167219Y-99530114D02*
X143167219Y-100196780D01*
X143167219Y-99625352D02*
X143214838Y-99577733D01*
X143310076Y-99530114D01*
X143452933Y-99530114D01*
X143548171Y-99577733D01*
X143595790Y-99672971D01*
X143595790Y-100196780D01*
X144595790Y-100196780D02*
X144024361Y-100196780D01*
X144310076Y-100196780D02*
X144310076Y-99196780D01*
X144214838Y-99339638D01*
X144119600Y-99434876D01*
X144024361Y-99482495D01*
G04 #@! TO.C,Cout1*
X153352857Y-104011942D02*
X153305238Y-104059561D01*
X153162380Y-104107180D01*
X153067142Y-104107180D01*
X152924285Y-104059561D01*
X152829047Y-103964323D01*
X152781428Y-103869085D01*
X152733809Y-103678609D01*
X152733809Y-103535752D01*
X152781428Y-103345276D01*
X152829047Y-103250038D01*
X152924285Y-103154800D01*
X153067142Y-103107180D01*
X153162380Y-103107180D01*
X153305238Y-103154800D01*
X153352857Y-103202419D01*
X153924285Y-104107180D02*
X153829047Y-104059561D01*
X153781428Y-104011942D01*
X153733809Y-103916704D01*
X153733809Y-103630990D01*
X153781428Y-103535752D01*
X153829047Y-103488133D01*
X153924285Y-103440514D01*
X154067142Y-103440514D01*
X154162380Y-103488133D01*
X154210000Y-103535752D01*
X154257619Y-103630990D01*
X154257619Y-103916704D01*
X154210000Y-104011942D01*
X154162380Y-104059561D01*
X154067142Y-104107180D01*
X153924285Y-104107180D01*
X155114761Y-103440514D02*
X155114761Y-104107180D01*
X154686190Y-103440514D02*
X154686190Y-103964323D01*
X154733809Y-104059561D01*
X154829047Y-104107180D01*
X154971904Y-104107180D01*
X155067142Y-104059561D01*
X155114761Y-104011942D01*
X155448095Y-103440514D02*
X155829047Y-103440514D01*
X155590952Y-103107180D02*
X155590952Y-103964323D01*
X155638571Y-104059561D01*
X155733809Y-104107180D01*
X155829047Y-104107180D01*
X156686190Y-104107180D02*
X156114761Y-104107180D01*
X156400476Y-104107180D02*
X156400476Y-103107180D01*
X156305238Y-103250038D01*
X156210000Y-103345276D01*
X156114761Y-103392895D01*
G04 #@! TD*
M02*
