G04 #@! TF.GenerationSoftware,KiCad,Pcbnew,5.0.2-bee76a0~70~ubuntu18.04.1*
G04 #@! TF.CreationDate,2019-03-18T17:02:54-07:00*
G04 #@! TF.ProjectId,Half_Shield,48616c66-5f53-4686-9965-6c642e6b6963,rev?*
G04 #@! TF.SameCoordinates,Original*
G04 #@! TF.FileFunction,Soldermask,Top*
G04 #@! TF.FilePolarity,Negative*
%FSLAX46Y46*%
G04 Gerber Fmt 4.6, Leading zero omitted, Abs format (unit mm)*
G04 Created by KiCad (PCBNEW 5.0.2-bee76a0~70~ubuntu18.04.1) date Mon 18 Mar 2019 05:02:54 PM PDT*
%MOMM*%
%LPD*%
G01*
G04 APERTURE LIST*
%ADD10C,0.100000*%
G04 APERTURE END LIST*
D10*
G36*
X165654209Y-141479816D02*
X165999986Y-141623041D01*
X166311182Y-141830976D01*
X166575824Y-142095618D01*
X166783759Y-142406814D01*
X166926984Y-142752591D01*
X167000000Y-143119665D01*
X167000000Y-143493935D01*
X166926984Y-143861009D01*
X166783759Y-144206786D01*
X166575824Y-144517982D01*
X166311182Y-144782624D01*
X165999986Y-144990559D01*
X165654209Y-145133784D01*
X165287135Y-145206800D01*
X164912865Y-145206800D01*
X164545791Y-145133784D01*
X164200014Y-144990559D01*
X163888818Y-144782624D01*
X163624176Y-144517982D01*
X163416241Y-144206786D01*
X163273016Y-143861009D01*
X163200000Y-143493935D01*
X163200000Y-143119665D01*
X163273016Y-142752591D01*
X163416241Y-142406814D01*
X163624176Y-142095618D01*
X163888818Y-141830976D01*
X164200014Y-141623041D01*
X164545791Y-141479816D01*
X164912865Y-141406800D01*
X165287135Y-141406800D01*
X165654209Y-141479816D01*
X165654209Y-141479816D01*
G37*
G36*
X153868609Y-141479816D02*
X154214386Y-141623041D01*
X154525582Y-141830976D01*
X154790224Y-142095618D01*
X154998159Y-142406814D01*
X155141384Y-142752591D01*
X155214400Y-143119665D01*
X155214400Y-143493935D01*
X155141384Y-143861009D01*
X154998159Y-144206786D01*
X154790224Y-144517982D01*
X154525582Y-144782624D01*
X154214386Y-144990559D01*
X153868609Y-145133784D01*
X153501535Y-145206800D01*
X153127265Y-145206800D01*
X152760191Y-145133784D01*
X152414414Y-144990559D01*
X152103218Y-144782624D01*
X151838576Y-144517982D01*
X151630641Y-144206786D01*
X151487416Y-143861009D01*
X151414400Y-143493935D01*
X151414400Y-143119665D01*
X151487416Y-142752591D01*
X151630641Y-142406814D01*
X151838576Y-142095618D01*
X152103218Y-141830976D01*
X152414414Y-141623041D01*
X152760191Y-141479816D01*
X153127265Y-141406800D01*
X153501535Y-141406800D01*
X153868609Y-141479816D01*
X153868609Y-141479816D01*
G37*
G36*
X121566856Y-132175251D02*
X121885336Y-132307170D01*
X122171960Y-132498686D01*
X122415714Y-132742440D01*
X122607230Y-133029064D01*
X122739149Y-133347544D01*
X122806400Y-133685640D01*
X122806400Y-134030360D01*
X122739149Y-134368456D01*
X122607230Y-134686936D01*
X122415714Y-134973560D01*
X122171960Y-135217314D01*
X121885336Y-135408830D01*
X121566856Y-135540749D01*
X121228760Y-135608000D01*
X120884040Y-135608000D01*
X120545944Y-135540749D01*
X120227464Y-135408830D01*
X119940840Y-135217314D01*
X119697086Y-134973560D01*
X119505570Y-134686936D01*
X119373651Y-134368456D01*
X119306400Y-134030360D01*
X119306400Y-133685640D01*
X119373651Y-133347544D01*
X119505570Y-133029064D01*
X119697086Y-132742440D01*
X119940840Y-132498686D01*
X120227464Y-132307170D01*
X120545944Y-132175251D01*
X120884040Y-132108000D01*
X121228760Y-132108000D01*
X121566856Y-132175251D01*
X121566856Y-132175251D01*
G37*
G36*
X114607256Y-132175251D02*
X114925736Y-132307170D01*
X115212360Y-132498686D01*
X115456114Y-132742440D01*
X115647630Y-133029064D01*
X115779549Y-133347544D01*
X115846800Y-133685640D01*
X115846800Y-134030360D01*
X115779549Y-134368456D01*
X115647630Y-134686936D01*
X115456114Y-134973560D01*
X115212360Y-135217314D01*
X114925736Y-135408830D01*
X114607256Y-135540749D01*
X114269160Y-135608000D01*
X113924440Y-135608000D01*
X113586344Y-135540749D01*
X113267864Y-135408830D01*
X112981240Y-135217314D01*
X112737486Y-134973560D01*
X112545970Y-134686936D01*
X112414051Y-134368456D01*
X112346800Y-134030360D01*
X112346800Y-133685640D01*
X112414051Y-133347544D01*
X112545970Y-133029064D01*
X112737486Y-132742440D01*
X112981240Y-132498686D01*
X113267864Y-132307170D01*
X113586344Y-132175251D01*
X113924440Y-132108000D01*
X114269160Y-132108000D01*
X114607256Y-132175251D01*
X114607256Y-132175251D01*
G37*
G36*
X128577256Y-132175251D02*
X128895736Y-132307170D01*
X129182360Y-132498686D01*
X129426114Y-132742440D01*
X129617630Y-133029064D01*
X129749549Y-133347544D01*
X129816800Y-133685640D01*
X129816800Y-134030360D01*
X129749549Y-134368456D01*
X129617630Y-134686936D01*
X129426114Y-134973560D01*
X129182360Y-135217314D01*
X128895736Y-135408830D01*
X128577256Y-135540749D01*
X128239160Y-135608000D01*
X127894440Y-135608000D01*
X127556344Y-135540749D01*
X127237864Y-135408830D01*
X126951240Y-135217314D01*
X126707486Y-134973560D01*
X126515970Y-134686936D01*
X126384051Y-134368456D01*
X126316800Y-134030360D01*
X126316800Y-133685640D01*
X126384051Y-133347544D01*
X126515970Y-133029064D01*
X126707486Y-132742440D01*
X126951240Y-132498686D01*
X127237864Y-132307170D01*
X127556344Y-132175251D01*
X127894440Y-132108000D01*
X128239160Y-132108000D01*
X128577256Y-132175251D01*
X128577256Y-132175251D01*
G37*
G36*
X153960949Y-126468646D02*
X152260949Y-126468646D01*
X152260949Y-124768646D01*
X153960949Y-124768646D01*
X153960949Y-126468646D01*
X153960949Y-126468646D01*
G37*
G36*
X149109549Y-126430546D02*
X147409549Y-126430546D01*
X147409549Y-124730546D01*
X149109549Y-124730546D01*
X149109549Y-126430546D01*
X149109549Y-126430546D01*
G37*
G36*
X172161176Y-126245992D02*
X170461176Y-126245992D01*
X170461176Y-124545992D01*
X172161176Y-124545992D01*
X172161176Y-126245992D01*
X172161176Y-126245992D01*
G37*
G36*
X176987176Y-126233292D02*
X175287176Y-126233292D01*
X175287176Y-124533292D01*
X176987176Y-124533292D01*
X176987176Y-126233292D01*
X176987176Y-126233292D01*
G37*
G36*
X111377812Y-114164837D02*
X111605296Y-114259064D01*
X111810031Y-114395864D01*
X111984136Y-114569969D01*
X112120936Y-114774704D01*
X112215163Y-115002188D01*
X112263200Y-115243685D01*
X112263200Y-115489915D01*
X112215163Y-115731412D01*
X112120936Y-115958896D01*
X111984136Y-116163631D01*
X111810031Y-116337736D01*
X111605296Y-116474536D01*
X111377812Y-116568763D01*
X111136315Y-116616800D01*
X110890085Y-116616800D01*
X110648588Y-116568763D01*
X110421104Y-116474536D01*
X110216369Y-116337736D01*
X110042264Y-116163631D01*
X109905464Y-115958896D01*
X109811237Y-115731412D01*
X109763200Y-115489915D01*
X109763200Y-115243685D01*
X109811237Y-115002188D01*
X109905464Y-114774704D01*
X110042264Y-114569969D01*
X110216369Y-114395864D01*
X110421104Y-114259064D01*
X110648588Y-114164837D01*
X110890085Y-114116800D01*
X111136315Y-114116800D01*
X111377812Y-114164837D01*
X111377812Y-114164837D01*
G37*
G36*
X132263200Y-116616800D02*
X129763200Y-116616800D01*
X129763200Y-114116800D01*
X132263200Y-114116800D01*
X132263200Y-116616800D01*
X132263200Y-116616800D01*
G37*
G36*
X126377812Y-114164837D02*
X126605296Y-114259064D01*
X126810031Y-114395864D01*
X126984136Y-114569969D01*
X127120936Y-114774704D01*
X127215163Y-115002188D01*
X127263200Y-115243685D01*
X127263200Y-115489915D01*
X127215163Y-115731412D01*
X127120936Y-115958896D01*
X126984136Y-116163631D01*
X126810031Y-116337736D01*
X126605296Y-116474536D01*
X126377812Y-116568763D01*
X126136315Y-116616800D01*
X125890085Y-116616800D01*
X125648588Y-116568763D01*
X125421104Y-116474536D01*
X125216369Y-116337736D01*
X125042264Y-116163631D01*
X124905464Y-115958896D01*
X124811237Y-115731412D01*
X124763200Y-115489915D01*
X124763200Y-115243685D01*
X124811237Y-115002188D01*
X124905464Y-114774704D01*
X125042264Y-114569969D01*
X125216369Y-114395864D01*
X125421104Y-114259064D01*
X125648588Y-114164837D01*
X125890085Y-114116800D01*
X126136315Y-114116800D01*
X126377812Y-114164837D01*
X126377812Y-114164837D01*
G37*
G36*
X121377812Y-114164837D02*
X121605296Y-114259064D01*
X121810031Y-114395864D01*
X121984136Y-114569969D01*
X122120936Y-114774704D01*
X122215163Y-115002188D01*
X122263200Y-115243685D01*
X122263200Y-115489915D01*
X122215163Y-115731412D01*
X122120936Y-115958896D01*
X121984136Y-116163631D01*
X121810031Y-116337736D01*
X121605296Y-116474536D01*
X121377812Y-116568763D01*
X121136315Y-116616800D01*
X120890085Y-116616800D01*
X120648588Y-116568763D01*
X120421104Y-116474536D01*
X120216369Y-116337736D01*
X120042264Y-116163631D01*
X119905464Y-115958896D01*
X119811237Y-115731412D01*
X119763200Y-115489915D01*
X119763200Y-115243685D01*
X119811237Y-115002188D01*
X119905464Y-114774704D01*
X120042264Y-114569969D01*
X120216369Y-114395864D01*
X120421104Y-114259064D01*
X120648588Y-114164837D01*
X120890085Y-114116800D01*
X121136315Y-114116800D01*
X121377812Y-114164837D01*
X121377812Y-114164837D01*
G37*
G36*
X116377812Y-114164837D02*
X116605296Y-114259064D01*
X116810031Y-114395864D01*
X116984136Y-114569969D01*
X117120936Y-114774704D01*
X117215163Y-115002188D01*
X117263200Y-115243685D01*
X117263200Y-115489915D01*
X117215163Y-115731412D01*
X117120936Y-115958896D01*
X116984136Y-116163631D01*
X116810031Y-116337736D01*
X116605296Y-116474536D01*
X116377812Y-116568763D01*
X116136315Y-116616800D01*
X115890085Y-116616800D01*
X115648588Y-116568763D01*
X115421104Y-116474536D01*
X115216369Y-116337736D01*
X115042264Y-116163631D01*
X114905464Y-115958896D01*
X114811237Y-115731412D01*
X114763200Y-115489915D01*
X114763200Y-115243685D01*
X114811237Y-115002188D01*
X114905464Y-114774704D01*
X115042264Y-114569969D01*
X115216369Y-114395864D01*
X115421104Y-114259064D01*
X115648588Y-114164837D01*
X115890085Y-114116800D01*
X116136315Y-114116800D01*
X116377812Y-114164837D01*
X116377812Y-114164837D01*
G37*
G36*
X153555700Y-114808000D02*
X151549100Y-114808000D01*
X151549100Y-108813600D01*
X153555700Y-108813600D01*
X153555700Y-114808000D01*
X153555700Y-114808000D01*
G37*
G36*
X157873700Y-114808000D02*
X155867100Y-114808000D01*
X155867100Y-108813600D01*
X157873700Y-108813600D01*
X157873700Y-114808000D01*
X157873700Y-114808000D01*
G37*
G36*
X145000800Y-110915800D02*
X144200800Y-110915800D01*
X144200800Y-110165800D01*
X145000800Y-110165800D01*
X145000800Y-110915800D01*
X145000800Y-110915800D01*
G37*
G36*
X146500800Y-110915800D02*
X145700800Y-110915800D01*
X145700800Y-110165800D01*
X146500800Y-110165800D01*
X146500800Y-110915800D01*
X146500800Y-110915800D01*
G37*
G36*
X141388200Y-110382000D02*
X140958200Y-110382000D01*
X140958200Y-109582000D01*
X141388200Y-109582000D01*
X141388200Y-110382000D01*
X141388200Y-110382000D01*
G37*
G36*
X144668600Y-109256200D02*
X144078600Y-109256200D01*
X144078600Y-108006200D01*
X144668600Y-108006200D01*
X144668600Y-109256200D01*
X144668600Y-109256200D01*
G37*
G36*
X142768600Y-109256200D02*
X142178600Y-109256200D01*
X142178600Y-108006200D01*
X142768600Y-108006200D01*
X142768600Y-109256200D01*
X142768600Y-109256200D01*
G37*
G36*
X143718600Y-109256200D02*
X143128600Y-109256200D01*
X143128600Y-108006200D01*
X143718600Y-108006200D01*
X143718600Y-109256200D01*
X143718600Y-109256200D01*
G37*
G36*
X139457200Y-109012000D02*
X139057200Y-109012000D01*
X139057200Y-108412000D01*
X139457200Y-108412000D01*
X139457200Y-109012000D01*
X139457200Y-109012000D01*
G37*
G36*
X140357200Y-109012000D02*
X139957200Y-109012000D01*
X139957200Y-108412000D01*
X140357200Y-108412000D01*
X140357200Y-109012000D01*
X140357200Y-109012000D01*
G37*
G36*
X144668600Y-106746200D02*
X144078600Y-106746200D01*
X144078600Y-105496200D01*
X144668600Y-105496200D01*
X144668600Y-106746200D01*
X144668600Y-106746200D01*
G37*
G36*
X143718600Y-106746200D02*
X143128600Y-106746200D01*
X143128600Y-105496200D01*
X143718600Y-105496200D01*
X143718600Y-106746200D01*
X143718600Y-106746200D01*
G37*
G36*
X142768600Y-106746200D02*
X142178600Y-106746200D01*
X142178600Y-105496200D01*
X142768600Y-105496200D01*
X142768600Y-106746200D01*
X142768600Y-106746200D01*
G37*
G36*
X120410230Y-104775499D02*
X120570455Y-104824103D01*
X120718120Y-104903031D01*
X120847549Y-105009251D01*
X120953769Y-105138680D01*
X121032697Y-105286345D01*
X121081301Y-105446570D01*
X121097712Y-105613200D01*
X121081301Y-105779830D01*
X121032697Y-105940055D01*
X120953769Y-106087720D01*
X120847549Y-106217149D01*
X120718120Y-106323369D01*
X120570455Y-106402297D01*
X120410230Y-106450901D01*
X120285352Y-106463200D01*
X120201848Y-106463200D01*
X120076970Y-106450901D01*
X119916745Y-106402297D01*
X119769080Y-106323369D01*
X119639651Y-106217149D01*
X119533431Y-106087720D01*
X119454503Y-105940055D01*
X119405899Y-105779830D01*
X119389488Y-105613200D01*
X119405899Y-105446570D01*
X119454503Y-105286345D01*
X119533431Y-105138680D01*
X119639651Y-105009251D01*
X119769080Y-104903031D01*
X119916745Y-104824103D01*
X120076970Y-104775499D01*
X120201848Y-104763200D01*
X120285352Y-104763200D01*
X120410230Y-104775499D01*
X120410230Y-104775499D01*
G37*
G36*
X128713600Y-106463200D02*
X127013600Y-106463200D01*
X127013600Y-104763200D01*
X128713600Y-104763200D01*
X128713600Y-106463200D01*
X128713600Y-106463200D01*
G37*
G36*
X125490230Y-104775499D02*
X125650455Y-104824103D01*
X125798120Y-104903031D01*
X125927549Y-105009251D01*
X126033769Y-105138680D01*
X126112697Y-105286345D01*
X126161301Y-105446570D01*
X126177712Y-105613200D01*
X126161301Y-105779830D01*
X126112697Y-105940055D01*
X126033769Y-106087720D01*
X125927549Y-106217149D01*
X125798120Y-106323369D01*
X125650455Y-106402297D01*
X125490230Y-106450901D01*
X125365352Y-106463200D01*
X125281848Y-106463200D01*
X125156970Y-106450901D01*
X124996745Y-106402297D01*
X124849080Y-106323369D01*
X124719651Y-106217149D01*
X124613431Y-106087720D01*
X124534503Y-105940055D01*
X124485899Y-105779830D01*
X124469488Y-105613200D01*
X124485899Y-105446570D01*
X124534503Y-105286345D01*
X124613431Y-105138680D01*
X124719651Y-105009251D01*
X124849080Y-104903031D01*
X124996745Y-104824103D01*
X125156970Y-104775499D01*
X125281848Y-104763200D01*
X125365352Y-104763200D01*
X125490230Y-104775499D01*
X125490230Y-104775499D01*
G37*
G36*
X117870230Y-104775499D02*
X118030455Y-104824103D01*
X118178120Y-104903031D01*
X118307549Y-105009251D01*
X118413769Y-105138680D01*
X118492697Y-105286345D01*
X118541301Y-105446570D01*
X118557712Y-105613200D01*
X118541301Y-105779830D01*
X118492697Y-105940055D01*
X118413769Y-106087720D01*
X118307549Y-106217149D01*
X118178120Y-106323369D01*
X118030455Y-106402297D01*
X117870230Y-106450901D01*
X117745352Y-106463200D01*
X117661848Y-106463200D01*
X117536970Y-106450901D01*
X117376745Y-106402297D01*
X117229080Y-106323369D01*
X117099651Y-106217149D01*
X116993431Y-106087720D01*
X116914503Y-105940055D01*
X116865899Y-105779830D01*
X116849488Y-105613200D01*
X116865899Y-105446570D01*
X116914503Y-105286345D01*
X116993431Y-105138680D01*
X117099651Y-105009251D01*
X117229080Y-104903031D01*
X117376745Y-104824103D01*
X117536970Y-104775499D01*
X117661848Y-104763200D01*
X117745352Y-104763200D01*
X117870230Y-104775499D01*
X117870230Y-104775499D01*
G37*
G36*
X115330230Y-104775499D02*
X115490455Y-104824103D01*
X115638120Y-104903031D01*
X115767549Y-105009251D01*
X115873769Y-105138680D01*
X115952697Y-105286345D01*
X116001301Y-105446570D01*
X116017712Y-105613200D01*
X116001301Y-105779830D01*
X115952697Y-105940055D01*
X115873769Y-106087720D01*
X115767549Y-106217149D01*
X115638120Y-106323369D01*
X115490455Y-106402297D01*
X115330230Y-106450901D01*
X115205352Y-106463200D01*
X115121848Y-106463200D01*
X114996970Y-106450901D01*
X114836745Y-106402297D01*
X114689080Y-106323369D01*
X114559651Y-106217149D01*
X114453431Y-106087720D01*
X114374503Y-105940055D01*
X114325899Y-105779830D01*
X114309488Y-105613200D01*
X114325899Y-105446570D01*
X114374503Y-105286345D01*
X114453431Y-105138680D01*
X114559651Y-105009251D01*
X114689080Y-104903031D01*
X114836745Y-104824103D01*
X114996970Y-104775499D01*
X115121848Y-104763200D01*
X115205352Y-104763200D01*
X115330230Y-104775499D01*
X115330230Y-104775499D01*
G37*
G36*
X112790230Y-104775499D02*
X112950455Y-104824103D01*
X113098120Y-104903031D01*
X113227549Y-105009251D01*
X113333769Y-105138680D01*
X113412697Y-105286345D01*
X113461301Y-105446570D01*
X113477712Y-105613200D01*
X113461301Y-105779830D01*
X113412697Y-105940055D01*
X113333769Y-106087720D01*
X113227549Y-106217149D01*
X113098120Y-106323369D01*
X112950455Y-106402297D01*
X112790230Y-106450901D01*
X112665352Y-106463200D01*
X112581848Y-106463200D01*
X112456970Y-106450901D01*
X112296745Y-106402297D01*
X112149080Y-106323369D01*
X112019651Y-106217149D01*
X111913431Y-106087720D01*
X111834503Y-105940055D01*
X111785899Y-105779830D01*
X111769488Y-105613200D01*
X111785899Y-105446570D01*
X111834503Y-105286345D01*
X111913431Y-105138680D01*
X112019651Y-105009251D01*
X112149080Y-104903031D01*
X112296745Y-104824103D01*
X112456970Y-104775499D01*
X112581848Y-104763200D01*
X112665352Y-104763200D01*
X112790230Y-104775499D01*
X112790230Y-104775499D01*
G37*
G36*
X110250230Y-104775499D02*
X110410455Y-104824103D01*
X110558120Y-104903031D01*
X110687549Y-105009251D01*
X110793769Y-105138680D01*
X110872697Y-105286345D01*
X110921301Y-105446570D01*
X110937712Y-105613200D01*
X110921301Y-105779830D01*
X110872697Y-105940055D01*
X110793769Y-106087720D01*
X110687549Y-106217149D01*
X110558120Y-106323369D01*
X110410455Y-106402297D01*
X110250230Y-106450901D01*
X110125352Y-106463200D01*
X110041848Y-106463200D01*
X109916970Y-106450901D01*
X109756745Y-106402297D01*
X109609080Y-106323369D01*
X109479651Y-106217149D01*
X109373431Y-106087720D01*
X109294503Y-105940055D01*
X109245899Y-105779830D01*
X109229488Y-105613200D01*
X109245899Y-105446570D01*
X109294503Y-105286345D01*
X109373431Y-105138680D01*
X109479651Y-105009251D01*
X109609080Y-104903031D01*
X109756745Y-104824103D01*
X109916970Y-104775499D01*
X110041848Y-104763200D01*
X110125352Y-104763200D01*
X110250230Y-104775499D01*
X110250230Y-104775499D01*
G37*
G36*
X122950230Y-104775499D02*
X123110455Y-104824103D01*
X123258120Y-104903031D01*
X123387549Y-105009251D01*
X123493769Y-105138680D01*
X123572697Y-105286345D01*
X123621301Y-105446570D01*
X123637712Y-105613200D01*
X123621301Y-105779830D01*
X123572697Y-105940055D01*
X123493769Y-106087720D01*
X123387549Y-106217149D01*
X123258120Y-106323369D01*
X123110455Y-106402297D01*
X122950230Y-106450901D01*
X122825352Y-106463200D01*
X122741848Y-106463200D01*
X122616970Y-106450901D01*
X122456745Y-106402297D01*
X122309080Y-106323369D01*
X122179651Y-106217149D01*
X122073431Y-106087720D01*
X121994503Y-105940055D01*
X121945899Y-105779830D01*
X121929488Y-105613200D01*
X121945899Y-105446570D01*
X121994503Y-105286345D01*
X122073431Y-105138680D01*
X122179651Y-105009251D01*
X122309080Y-104903031D01*
X122456745Y-104824103D01*
X122616970Y-104775499D01*
X122741848Y-104763200D01*
X122825352Y-104763200D01*
X122950230Y-104775499D01*
X122950230Y-104775499D01*
G37*
G36*
X153710000Y-102704800D02*
X152710000Y-102704800D01*
X152710000Y-101104800D01*
X153710000Y-101104800D01*
X153710000Y-102704800D01*
X153710000Y-102704800D01*
G37*
G36*
X156710000Y-102704800D02*
X155710000Y-102704800D01*
X155710000Y-101104800D01*
X156710000Y-101104800D01*
X156710000Y-102704800D01*
X156710000Y-102704800D01*
G37*
G36*
X142619600Y-101869400D02*
X141619600Y-101869400D01*
X141619600Y-100619400D01*
X142619600Y-100619400D01*
X142619600Y-101869400D01*
X142619600Y-101869400D01*
G37*
G36*
X144619600Y-101869400D02*
X143619600Y-101869400D01*
X143619600Y-100619400D01*
X144619600Y-100619400D01*
X144619600Y-101869400D01*
X144619600Y-101869400D01*
G37*
G36*
X125005200Y-101116500D02*
X123305200Y-101116500D01*
X123305200Y-99416500D01*
X125005200Y-99416500D01*
X125005200Y-101116500D01*
X125005200Y-101116500D01*
G37*
G36*
X121781830Y-99428799D02*
X121942055Y-99477403D01*
X122089720Y-99556331D01*
X122219149Y-99662551D01*
X122325369Y-99791980D01*
X122404297Y-99939645D01*
X122452901Y-100099870D01*
X122469312Y-100266500D01*
X122452901Y-100433130D01*
X122404297Y-100593355D01*
X122325369Y-100741020D01*
X122219149Y-100870449D01*
X122089720Y-100976669D01*
X121942055Y-101055597D01*
X121781830Y-101104201D01*
X121656952Y-101116500D01*
X121573448Y-101116500D01*
X121448570Y-101104201D01*
X121288345Y-101055597D01*
X121140680Y-100976669D01*
X121011251Y-100870449D01*
X120905031Y-100741020D01*
X120826103Y-100593355D01*
X120777499Y-100433130D01*
X120761088Y-100266500D01*
X120777499Y-100099870D01*
X120826103Y-99939645D01*
X120905031Y-99791980D01*
X121011251Y-99662551D01*
X121140680Y-99556331D01*
X121288345Y-99477403D01*
X121448570Y-99428799D01*
X121573448Y-99416500D01*
X121656952Y-99416500D01*
X121781830Y-99428799D01*
X121781830Y-99428799D01*
G37*
G36*
X119241830Y-99428799D02*
X119402055Y-99477403D01*
X119549720Y-99556331D01*
X119679149Y-99662551D01*
X119785369Y-99791980D01*
X119864297Y-99939645D01*
X119912901Y-100099870D01*
X119929312Y-100266500D01*
X119912901Y-100433130D01*
X119864297Y-100593355D01*
X119785369Y-100741020D01*
X119679149Y-100870449D01*
X119549720Y-100976669D01*
X119402055Y-101055597D01*
X119241830Y-101104201D01*
X119116952Y-101116500D01*
X119033448Y-101116500D01*
X118908570Y-101104201D01*
X118748345Y-101055597D01*
X118600680Y-100976669D01*
X118471251Y-100870449D01*
X118365031Y-100741020D01*
X118286103Y-100593355D01*
X118237499Y-100433130D01*
X118221088Y-100266500D01*
X118237499Y-100099870D01*
X118286103Y-99939645D01*
X118365031Y-99791980D01*
X118471251Y-99662551D01*
X118600680Y-99556331D01*
X118748345Y-99477403D01*
X118908570Y-99428799D01*
X119033448Y-99416500D01*
X119116952Y-99416500D01*
X119241830Y-99428799D01*
X119241830Y-99428799D01*
G37*
G36*
X114161830Y-99428799D02*
X114322055Y-99477403D01*
X114469720Y-99556331D01*
X114599149Y-99662551D01*
X114705369Y-99791980D01*
X114784297Y-99939645D01*
X114832901Y-100099870D01*
X114849312Y-100266500D01*
X114832901Y-100433130D01*
X114784297Y-100593355D01*
X114705369Y-100741020D01*
X114599149Y-100870449D01*
X114469720Y-100976669D01*
X114322055Y-101055597D01*
X114161830Y-101104201D01*
X114036952Y-101116500D01*
X113953448Y-101116500D01*
X113828570Y-101104201D01*
X113668345Y-101055597D01*
X113520680Y-100976669D01*
X113391251Y-100870449D01*
X113285031Y-100741020D01*
X113206103Y-100593355D01*
X113157499Y-100433130D01*
X113141088Y-100266500D01*
X113157499Y-100099870D01*
X113206103Y-99939645D01*
X113285031Y-99791980D01*
X113391251Y-99662551D01*
X113520680Y-99556331D01*
X113668345Y-99477403D01*
X113828570Y-99428799D01*
X113953448Y-99416500D01*
X114036952Y-99416500D01*
X114161830Y-99428799D01*
X114161830Y-99428799D01*
G37*
G36*
X116701830Y-99428799D02*
X116862055Y-99477403D01*
X117009720Y-99556331D01*
X117139149Y-99662551D01*
X117245369Y-99791980D01*
X117324297Y-99939645D01*
X117372901Y-100099870D01*
X117389312Y-100266500D01*
X117372901Y-100433130D01*
X117324297Y-100593355D01*
X117245369Y-100741020D01*
X117139149Y-100870449D01*
X117009720Y-100976669D01*
X116862055Y-101055597D01*
X116701830Y-101104201D01*
X116576952Y-101116500D01*
X116493448Y-101116500D01*
X116368570Y-101104201D01*
X116208345Y-101055597D01*
X116060680Y-100976669D01*
X115931251Y-100870449D01*
X115825031Y-100741020D01*
X115746103Y-100593355D01*
X115697499Y-100433130D01*
X115681088Y-100266500D01*
X115697499Y-100099870D01*
X115746103Y-99939645D01*
X115825031Y-99791980D01*
X115931251Y-99662551D01*
X116060680Y-99556331D01*
X116208345Y-99477403D01*
X116368570Y-99428799D01*
X116493448Y-99416500D01*
X116576952Y-99416500D01*
X116701830Y-99428799D01*
X116701830Y-99428799D01*
G37*
G36*
X111621830Y-99428799D02*
X111782055Y-99477403D01*
X111929720Y-99556331D01*
X112059149Y-99662551D01*
X112165369Y-99791980D01*
X112244297Y-99939645D01*
X112292901Y-100099870D01*
X112309312Y-100266500D01*
X112292901Y-100433130D01*
X112244297Y-100593355D01*
X112165369Y-100741020D01*
X112059149Y-100870449D01*
X111929720Y-100976669D01*
X111782055Y-101055597D01*
X111621830Y-101104201D01*
X111496952Y-101116500D01*
X111413448Y-101116500D01*
X111288570Y-101104201D01*
X111128345Y-101055597D01*
X110980680Y-100976669D01*
X110851251Y-100870449D01*
X110745031Y-100741020D01*
X110666103Y-100593355D01*
X110617499Y-100433130D01*
X110601088Y-100266500D01*
X110617499Y-100099870D01*
X110666103Y-99939645D01*
X110745031Y-99791980D01*
X110851251Y-99662551D01*
X110980680Y-99556331D01*
X111128345Y-99477403D01*
X111288570Y-99428799D01*
X111413448Y-99416500D01*
X111496952Y-99416500D01*
X111621830Y-99428799D01*
X111621830Y-99428799D01*
G37*
G36*
X149173049Y-100509846D02*
X147473049Y-100509846D01*
X147473049Y-98809846D01*
X149173049Y-98809846D01*
X149173049Y-100509846D01*
X149173049Y-100509846D01*
G37*
G36*
X139432400Y-100468800D02*
X137732400Y-100468800D01*
X137732400Y-98768800D01*
X139432400Y-98768800D01*
X139432400Y-100468800D01*
X139432400Y-100468800D01*
G37*
G36*
X162471076Y-100299892D02*
X160771076Y-100299892D01*
X160771076Y-98599892D01*
X162471076Y-98599892D01*
X162471076Y-100299892D01*
X162471076Y-100299892D01*
G37*
G36*
X172250076Y-100249092D02*
X170550076Y-100249092D01*
X170550076Y-98549092D01*
X172250076Y-98549092D01*
X172250076Y-100249092D01*
X172250076Y-100249092D01*
G37*
G36*
X129401830Y-94297999D02*
X129562055Y-94346603D01*
X129709720Y-94425531D01*
X129839149Y-94531751D01*
X129945369Y-94661180D01*
X130024297Y-94808845D01*
X130072901Y-94969070D01*
X130089312Y-95135700D01*
X130072901Y-95302330D01*
X130024297Y-95462555D01*
X129945369Y-95610220D01*
X129839149Y-95739649D01*
X129709720Y-95845869D01*
X129562055Y-95924797D01*
X129401830Y-95973401D01*
X129276952Y-95985700D01*
X129193448Y-95985700D01*
X129068570Y-95973401D01*
X128908345Y-95924797D01*
X128760680Y-95845869D01*
X128631251Y-95739649D01*
X128525031Y-95610220D01*
X128446103Y-95462555D01*
X128397499Y-95302330D01*
X128381088Y-95135700D01*
X128397499Y-94969070D01*
X128446103Y-94808845D01*
X128525031Y-94661180D01*
X128631251Y-94531751D01*
X128760680Y-94425531D01*
X128908345Y-94346603D01*
X129068570Y-94297999D01*
X129193448Y-94285700D01*
X129276952Y-94285700D01*
X129401830Y-94297999D01*
X129401830Y-94297999D01*
G37*
G36*
X126861830Y-94297999D02*
X127022055Y-94346603D01*
X127169720Y-94425531D01*
X127299149Y-94531751D01*
X127405369Y-94661180D01*
X127484297Y-94808845D01*
X127532901Y-94969070D01*
X127549312Y-95135700D01*
X127532901Y-95302330D01*
X127484297Y-95462555D01*
X127405369Y-95610220D01*
X127299149Y-95739649D01*
X127169720Y-95845869D01*
X127022055Y-95924797D01*
X126861830Y-95973401D01*
X126736952Y-95985700D01*
X126653448Y-95985700D01*
X126528570Y-95973401D01*
X126368345Y-95924797D01*
X126220680Y-95845869D01*
X126091251Y-95739649D01*
X125985031Y-95610220D01*
X125906103Y-95462555D01*
X125857499Y-95302330D01*
X125841088Y-95135700D01*
X125857499Y-94969070D01*
X125906103Y-94808845D01*
X125985031Y-94661180D01*
X126091251Y-94531751D01*
X126220680Y-94425531D01*
X126368345Y-94346603D01*
X126528570Y-94297999D01*
X126653448Y-94285700D01*
X126736952Y-94285700D01*
X126861830Y-94297999D01*
X126861830Y-94297999D01*
G37*
G36*
X126861830Y-91757999D02*
X127022055Y-91806603D01*
X127169720Y-91885531D01*
X127299149Y-91991751D01*
X127405369Y-92121180D01*
X127484297Y-92268845D01*
X127532901Y-92429070D01*
X127549312Y-92595700D01*
X127532901Y-92762330D01*
X127484297Y-92922555D01*
X127405369Y-93070220D01*
X127299149Y-93199649D01*
X127169720Y-93305869D01*
X127022055Y-93384797D01*
X126861830Y-93433401D01*
X126736952Y-93445700D01*
X126653448Y-93445700D01*
X126528570Y-93433401D01*
X126368345Y-93384797D01*
X126220680Y-93305869D01*
X126091251Y-93199649D01*
X125985031Y-93070220D01*
X125906103Y-92922555D01*
X125857499Y-92762330D01*
X125841088Y-92595700D01*
X125857499Y-92429070D01*
X125906103Y-92268845D01*
X125985031Y-92121180D01*
X126091251Y-91991751D01*
X126220680Y-91885531D01*
X126368345Y-91806603D01*
X126528570Y-91757999D01*
X126653448Y-91745700D01*
X126736952Y-91745700D01*
X126861830Y-91757999D01*
X126861830Y-91757999D01*
G37*
G36*
X129401830Y-91757999D02*
X129562055Y-91806603D01*
X129709720Y-91885531D01*
X129839149Y-91991751D01*
X129945369Y-92121180D01*
X130024297Y-92268845D01*
X130072901Y-92429070D01*
X130089312Y-92595700D01*
X130072901Y-92762330D01*
X130024297Y-92922555D01*
X129945369Y-93070220D01*
X129839149Y-93199649D01*
X129709720Y-93305869D01*
X129562055Y-93384797D01*
X129401830Y-93433401D01*
X129276952Y-93445700D01*
X129193448Y-93445700D01*
X129068570Y-93433401D01*
X128908345Y-93384797D01*
X128760680Y-93305869D01*
X128631251Y-93199649D01*
X128525031Y-93070220D01*
X128446103Y-92922555D01*
X128397499Y-92762330D01*
X128381088Y-92595700D01*
X128397499Y-92429070D01*
X128446103Y-92268845D01*
X128525031Y-92121180D01*
X128631251Y-91991751D01*
X128760680Y-91885531D01*
X128908345Y-91806603D01*
X129068570Y-91757999D01*
X129193448Y-91745700D01*
X129276952Y-91745700D01*
X129401830Y-91757999D01*
X129401830Y-91757999D01*
G37*
G36*
X165520630Y-91415099D02*
X165680855Y-91463703D01*
X165828520Y-91542631D01*
X165957949Y-91648851D01*
X166064169Y-91778280D01*
X166143097Y-91925945D01*
X166191701Y-92086170D01*
X166208112Y-92252800D01*
X166191701Y-92419430D01*
X166143097Y-92579655D01*
X166064169Y-92727320D01*
X165957949Y-92856749D01*
X165828520Y-92962969D01*
X165680855Y-93041897D01*
X165520630Y-93090501D01*
X165395752Y-93102800D01*
X165312248Y-93102800D01*
X165187370Y-93090501D01*
X165027145Y-93041897D01*
X164879480Y-92962969D01*
X164750051Y-92856749D01*
X164643831Y-92727320D01*
X164564903Y-92579655D01*
X164516299Y-92419430D01*
X164499888Y-92252800D01*
X164516299Y-92086170D01*
X164564903Y-91925945D01*
X164643831Y-91778280D01*
X164750051Y-91648851D01*
X164879480Y-91542631D01*
X165027145Y-91463703D01*
X165187370Y-91415099D01*
X165312248Y-91402800D01*
X165395752Y-91402800D01*
X165520630Y-91415099D01*
X165520630Y-91415099D01*
G37*
G36*
X162980630Y-91415099D02*
X163140855Y-91463703D01*
X163288520Y-91542631D01*
X163417949Y-91648851D01*
X163524169Y-91778280D01*
X163603097Y-91925945D01*
X163651701Y-92086170D01*
X163668112Y-92252800D01*
X163651701Y-92419430D01*
X163603097Y-92579655D01*
X163524169Y-92727320D01*
X163417949Y-92856749D01*
X163288520Y-92962969D01*
X163140855Y-93041897D01*
X162980630Y-93090501D01*
X162855752Y-93102800D01*
X162772248Y-93102800D01*
X162647370Y-93090501D01*
X162487145Y-93041897D01*
X162339480Y-92962969D01*
X162210051Y-92856749D01*
X162103831Y-92727320D01*
X162024903Y-92579655D01*
X161976299Y-92419430D01*
X161959888Y-92252800D01*
X161976299Y-92086170D01*
X162024903Y-91925945D01*
X162103831Y-91778280D01*
X162210051Y-91648851D01*
X162339480Y-91542631D01*
X162487145Y-91463703D01*
X162647370Y-91415099D01*
X162772248Y-91402800D01*
X162855752Y-91402800D01*
X162980630Y-91415099D01*
X162980630Y-91415099D01*
G37*
G36*
X161124000Y-93102800D02*
X159424000Y-93102800D01*
X159424000Y-91402800D01*
X161124000Y-91402800D01*
X161124000Y-93102800D01*
X161124000Y-93102800D01*
G37*
G36*
X144461600Y-93102800D02*
X142761600Y-93102800D01*
X142761600Y-91402800D01*
X144461600Y-91402800D01*
X144461600Y-93102800D01*
X144461600Y-93102800D01*
G37*
G36*
X146318230Y-91415099D02*
X146478455Y-91463703D01*
X146626120Y-91542631D01*
X146755549Y-91648851D01*
X146861769Y-91778280D01*
X146940697Y-91925945D01*
X146989301Y-92086170D01*
X147005712Y-92252800D01*
X146989301Y-92419430D01*
X146940697Y-92579655D01*
X146861769Y-92727320D01*
X146755549Y-92856749D01*
X146626120Y-92962969D01*
X146478455Y-93041897D01*
X146318230Y-93090501D01*
X146193352Y-93102800D01*
X146109848Y-93102800D01*
X145984970Y-93090501D01*
X145824745Y-93041897D01*
X145677080Y-92962969D01*
X145547651Y-92856749D01*
X145441431Y-92727320D01*
X145362503Y-92579655D01*
X145313899Y-92419430D01*
X145297488Y-92252800D01*
X145313899Y-92086170D01*
X145362503Y-91925945D01*
X145441431Y-91778280D01*
X145547651Y-91648851D01*
X145677080Y-91542631D01*
X145824745Y-91463703D01*
X145984970Y-91415099D01*
X146109848Y-91402800D01*
X146193352Y-91402800D01*
X146318230Y-91415099D01*
X146318230Y-91415099D01*
G37*
G36*
X148858230Y-91415099D02*
X149018455Y-91463703D01*
X149166120Y-91542631D01*
X149295549Y-91648851D01*
X149401769Y-91778280D01*
X149480697Y-91925945D01*
X149529301Y-92086170D01*
X149545712Y-92252800D01*
X149529301Y-92419430D01*
X149480697Y-92579655D01*
X149401769Y-92727320D01*
X149295549Y-92856749D01*
X149166120Y-92962969D01*
X149018455Y-93041897D01*
X148858230Y-93090501D01*
X148733352Y-93102800D01*
X148649848Y-93102800D01*
X148524970Y-93090501D01*
X148364745Y-93041897D01*
X148217080Y-92962969D01*
X148087651Y-92856749D01*
X147981431Y-92727320D01*
X147902503Y-92579655D01*
X147853899Y-92419430D01*
X147837488Y-92252800D01*
X147853899Y-92086170D01*
X147902503Y-91925945D01*
X147981431Y-91778280D01*
X148087651Y-91648851D01*
X148217080Y-91542631D01*
X148364745Y-91463703D01*
X148524970Y-91415099D01*
X148649848Y-91402800D01*
X148733352Y-91402800D01*
X148858230Y-91415099D01*
X148858230Y-91415099D01*
G37*
G36*
X151398230Y-91415099D02*
X151558455Y-91463703D01*
X151706120Y-91542631D01*
X151835549Y-91648851D01*
X151941769Y-91778280D01*
X152020697Y-91925945D01*
X152069301Y-92086170D01*
X152085712Y-92252800D01*
X152069301Y-92419430D01*
X152020697Y-92579655D01*
X151941769Y-92727320D01*
X151835549Y-92856749D01*
X151706120Y-92962969D01*
X151558455Y-93041897D01*
X151398230Y-93090501D01*
X151273352Y-93102800D01*
X151189848Y-93102800D01*
X151064970Y-93090501D01*
X150904745Y-93041897D01*
X150757080Y-92962969D01*
X150627651Y-92856749D01*
X150521431Y-92727320D01*
X150442503Y-92579655D01*
X150393899Y-92419430D01*
X150377488Y-92252800D01*
X150393899Y-92086170D01*
X150442503Y-91925945D01*
X150521431Y-91778280D01*
X150627651Y-91648851D01*
X150757080Y-91542631D01*
X150904745Y-91463703D01*
X151064970Y-91415099D01*
X151189848Y-91402800D01*
X151273352Y-91402800D01*
X151398230Y-91415099D01*
X151398230Y-91415099D01*
G37*
G36*
X129401830Y-89217999D02*
X129562055Y-89266603D01*
X129709720Y-89345531D01*
X129839149Y-89451751D01*
X129945369Y-89581180D01*
X130024297Y-89728845D01*
X130072901Y-89889070D01*
X130089312Y-90055700D01*
X130072901Y-90222330D01*
X130024297Y-90382555D01*
X129945369Y-90530220D01*
X129839149Y-90659649D01*
X129709720Y-90765869D01*
X129562055Y-90844797D01*
X129401830Y-90893401D01*
X129276952Y-90905700D01*
X129193448Y-90905700D01*
X129068570Y-90893401D01*
X128908345Y-90844797D01*
X128760680Y-90765869D01*
X128631251Y-90659649D01*
X128525031Y-90530220D01*
X128446103Y-90382555D01*
X128397499Y-90222330D01*
X128381088Y-90055700D01*
X128397499Y-89889070D01*
X128446103Y-89728845D01*
X128525031Y-89581180D01*
X128631251Y-89451751D01*
X128760680Y-89345531D01*
X128908345Y-89266603D01*
X129068570Y-89217999D01*
X129193448Y-89205700D01*
X129276952Y-89205700D01*
X129401830Y-89217999D01*
X129401830Y-89217999D01*
G37*
G36*
X126861830Y-89217999D02*
X127022055Y-89266603D01*
X127169720Y-89345531D01*
X127299149Y-89451751D01*
X127405369Y-89581180D01*
X127484297Y-89728845D01*
X127532901Y-89889070D01*
X127549312Y-90055700D01*
X127532901Y-90222330D01*
X127484297Y-90382555D01*
X127405369Y-90530220D01*
X127299149Y-90659649D01*
X127169720Y-90765869D01*
X127022055Y-90844797D01*
X126861830Y-90893401D01*
X126736952Y-90905700D01*
X126653448Y-90905700D01*
X126528570Y-90893401D01*
X126368345Y-90844797D01*
X126220680Y-90765869D01*
X126091251Y-90659649D01*
X125985031Y-90530220D01*
X125906103Y-90382555D01*
X125857499Y-90222330D01*
X125841088Y-90055700D01*
X125857499Y-89889070D01*
X125906103Y-89728845D01*
X125985031Y-89581180D01*
X126091251Y-89451751D01*
X126220680Y-89345531D01*
X126368345Y-89266603D01*
X126528570Y-89217999D01*
X126653448Y-89205700D01*
X126736952Y-89205700D01*
X126861830Y-89217999D01*
X126861830Y-89217999D01*
G37*
G36*
X126861830Y-86677999D02*
X127022055Y-86726603D01*
X127169720Y-86805531D01*
X127299149Y-86911751D01*
X127405369Y-87041180D01*
X127484297Y-87188845D01*
X127532901Y-87349070D01*
X127549312Y-87515700D01*
X127532901Y-87682330D01*
X127484297Y-87842555D01*
X127405369Y-87990220D01*
X127299149Y-88119649D01*
X127169720Y-88225869D01*
X127022055Y-88304797D01*
X126861830Y-88353401D01*
X126736952Y-88365700D01*
X126653448Y-88365700D01*
X126528570Y-88353401D01*
X126368345Y-88304797D01*
X126220680Y-88225869D01*
X126091251Y-88119649D01*
X125985031Y-87990220D01*
X125906103Y-87842555D01*
X125857499Y-87682330D01*
X125841088Y-87515700D01*
X125857499Y-87349070D01*
X125906103Y-87188845D01*
X125985031Y-87041180D01*
X126091251Y-86911751D01*
X126220680Y-86805531D01*
X126368345Y-86726603D01*
X126528570Y-86677999D01*
X126653448Y-86665700D01*
X126736952Y-86665700D01*
X126861830Y-86677999D01*
X126861830Y-86677999D01*
G37*
G36*
X129401830Y-86677999D02*
X129562055Y-86726603D01*
X129709720Y-86805531D01*
X129839149Y-86911751D01*
X129945369Y-87041180D01*
X130024297Y-87188845D01*
X130072901Y-87349070D01*
X130089312Y-87515700D01*
X130072901Y-87682330D01*
X130024297Y-87842555D01*
X129945369Y-87990220D01*
X129839149Y-88119649D01*
X129709720Y-88225869D01*
X129562055Y-88304797D01*
X129401830Y-88353401D01*
X129276952Y-88365700D01*
X129193448Y-88365700D01*
X129068570Y-88353401D01*
X128908345Y-88304797D01*
X128760680Y-88225869D01*
X128631251Y-88119649D01*
X128525031Y-87990220D01*
X128446103Y-87842555D01*
X128397499Y-87682330D01*
X128381088Y-87515700D01*
X128397499Y-87349070D01*
X128446103Y-87188845D01*
X128525031Y-87041180D01*
X128631251Y-86911751D01*
X128760680Y-86805531D01*
X128908345Y-86726603D01*
X129068570Y-86677999D01*
X129193448Y-86665700D01*
X129276952Y-86665700D01*
X129401830Y-86677999D01*
X129401830Y-86677999D01*
G37*
G36*
X151122000Y-87289800D02*
X150122000Y-87289800D01*
X150122000Y-86039800D01*
X151122000Y-86039800D01*
X151122000Y-87289800D01*
X151122000Y-87289800D01*
G37*
G36*
X149122000Y-87289800D02*
X148122000Y-87289800D01*
X148122000Y-86039800D01*
X149122000Y-86039800D01*
X149122000Y-87289800D01*
X149122000Y-87289800D01*
G37*
G36*
X129401830Y-84137999D02*
X129562055Y-84186603D01*
X129709720Y-84265531D01*
X129839149Y-84371751D01*
X129945369Y-84501180D01*
X130024297Y-84648845D01*
X130072901Y-84809070D01*
X130089312Y-84975700D01*
X130072901Y-85142330D01*
X130024297Y-85302555D01*
X129945369Y-85450220D01*
X129839149Y-85579649D01*
X129709720Y-85685869D01*
X129562055Y-85764797D01*
X129401830Y-85813401D01*
X129276952Y-85825700D01*
X129193448Y-85825700D01*
X129068570Y-85813401D01*
X128908345Y-85764797D01*
X128760680Y-85685869D01*
X128631251Y-85579649D01*
X128525031Y-85450220D01*
X128446103Y-85302555D01*
X128397499Y-85142330D01*
X128381088Y-84975700D01*
X128397499Y-84809070D01*
X128446103Y-84648845D01*
X128525031Y-84501180D01*
X128631251Y-84371751D01*
X128760680Y-84265531D01*
X128908345Y-84186603D01*
X129068570Y-84137999D01*
X129193448Y-84125700D01*
X129276952Y-84125700D01*
X129401830Y-84137999D01*
X129401830Y-84137999D01*
G37*
G36*
X126861830Y-84137999D02*
X127022055Y-84186603D01*
X127169720Y-84265531D01*
X127299149Y-84371751D01*
X127405369Y-84501180D01*
X127484297Y-84648845D01*
X127532901Y-84809070D01*
X127549312Y-84975700D01*
X127532901Y-85142330D01*
X127484297Y-85302555D01*
X127405369Y-85450220D01*
X127299149Y-85579649D01*
X127169720Y-85685869D01*
X127022055Y-85764797D01*
X126861830Y-85813401D01*
X126736952Y-85825700D01*
X126653448Y-85825700D01*
X126528570Y-85813401D01*
X126368345Y-85764797D01*
X126220680Y-85685869D01*
X126091251Y-85579649D01*
X125985031Y-85450220D01*
X125906103Y-85302555D01*
X125857499Y-85142330D01*
X125841088Y-84975700D01*
X125857499Y-84809070D01*
X125906103Y-84648845D01*
X125985031Y-84501180D01*
X126091251Y-84371751D01*
X126220680Y-84265531D01*
X126368345Y-84186603D01*
X126528570Y-84137999D01*
X126653448Y-84125700D01*
X126736952Y-84125700D01*
X126861830Y-84137999D01*
X126861830Y-84137999D01*
G37*
G36*
X145858205Y-85715000D02*
X144858205Y-85715000D01*
X144858205Y-84465000D01*
X145858205Y-84465000D01*
X145858205Y-85715000D01*
X145858205Y-85715000D01*
G37*
G36*
X143858205Y-85715000D02*
X142858205Y-85715000D01*
X142858205Y-84465000D01*
X143858205Y-84465000D01*
X143858205Y-85715000D01*
X143858205Y-85715000D01*
G37*
G36*
X137682230Y-83172799D02*
X137842455Y-83221403D01*
X137990120Y-83300331D01*
X138119549Y-83406551D01*
X138225769Y-83535980D01*
X138304697Y-83683645D01*
X138353301Y-83843870D01*
X138369712Y-84010500D01*
X138353301Y-84177130D01*
X138304697Y-84337355D01*
X138225769Y-84485020D01*
X138119549Y-84614449D01*
X137990120Y-84720669D01*
X137842455Y-84799597D01*
X137682230Y-84848201D01*
X137557352Y-84860500D01*
X137473848Y-84860500D01*
X137348970Y-84848201D01*
X137188745Y-84799597D01*
X137041080Y-84720669D01*
X136911651Y-84614449D01*
X136805431Y-84485020D01*
X136726503Y-84337355D01*
X136677899Y-84177130D01*
X136661488Y-84010500D01*
X136677899Y-83843870D01*
X136726503Y-83683645D01*
X136805431Y-83535980D01*
X136911651Y-83406551D01*
X137041080Y-83300331D01*
X137188745Y-83221403D01*
X137348970Y-83172799D01*
X137473848Y-83160500D01*
X137557352Y-83160500D01*
X137682230Y-83172799D01*
X137682230Y-83172799D01*
G37*
G36*
X143862205Y-83327400D02*
X142862205Y-83327400D01*
X142862205Y-82077400D01*
X143862205Y-82077400D01*
X143862205Y-83327400D01*
X143862205Y-83327400D01*
G37*
G36*
X145862205Y-83327400D02*
X144862205Y-83327400D01*
X144862205Y-82077400D01*
X145862205Y-82077400D01*
X145862205Y-83327400D01*
X145862205Y-83327400D01*
G37*
G36*
X129401830Y-81597999D02*
X129562055Y-81646603D01*
X129709720Y-81725531D01*
X129839149Y-81831751D01*
X129945369Y-81961180D01*
X130024297Y-82108845D01*
X130072901Y-82269070D01*
X130089312Y-82435700D01*
X130072901Y-82602330D01*
X130024297Y-82762555D01*
X129945369Y-82910220D01*
X129839149Y-83039649D01*
X129709720Y-83145869D01*
X129562055Y-83224797D01*
X129401830Y-83273401D01*
X129276952Y-83285700D01*
X129193448Y-83285700D01*
X129068570Y-83273401D01*
X128908345Y-83224797D01*
X128760680Y-83145869D01*
X128631251Y-83039649D01*
X128525031Y-82910220D01*
X128446103Y-82762555D01*
X128397499Y-82602330D01*
X128381088Y-82435700D01*
X128397499Y-82269070D01*
X128446103Y-82108845D01*
X128525031Y-81961180D01*
X128631251Y-81831751D01*
X128760680Y-81725531D01*
X128908345Y-81646603D01*
X129068570Y-81597999D01*
X129193448Y-81585700D01*
X129276952Y-81585700D01*
X129401830Y-81597999D01*
X129401830Y-81597999D01*
G37*
G36*
X126861830Y-81597999D02*
X127022055Y-81646603D01*
X127169720Y-81725531D01*
X127299149Y-81831751D01*
X127405369Y-81961180D01*
X127484297Y-82108845D01*
X127532901Y-82269070D01*
X127549312Y-82435700D01*
X127532901Y-82602330D01*
X127484297Y-82762555D01*
X127405369Y-82910220D01*
X127299149Y-83039649D01*
X127169720Y-83145869D01*
X127022055Y-83224797D01*
X126861830Y-83273401D01*
X126736952Y-83285700D01*
X126653448Y-83285700D01*
X126528570Y-83273401D01*
X126368345Y-83224797D01*
X126220680Y-83145869D01*
X126091251Y-83039649D01*
X125985031Y-82910220D01*
X125906103Y-82762555D01*
X125857499Y-82602330D01*
X125841088Y-82435700D01*
X125857499Y-82269070D01*
X125906103Y-82108845D01*
X125985031Y-81961180D01*
X126091251Y-81831751D01*
X126220680Y-81725531D01*
X126368345Y-81646603D01*
X126528570Y-81597999D01*
X126653448Y-81585700D01*
X126736952Y-81585700D01*
X126861830Y-81597999D01*
X126861830Y-81597999D01*
G37*
G36*
X137682230Y-80632799D02*
X137842455Y-80681403D01*
X137990120Y-80760331D01*
X138119549Y-80866551D01*
X138225769Y-80995980D01*
X138304697Y-81143645D01*
X138353301Y-81303870D01*
X138369712Y-81470500D01*
X138353301Y-81637130D01*
X138304697Y-81797355D01*
X138225769Y-81945020D01*
X138119549Y-82074449D01*
X137990120Y-82180669D01*
X137842455Y-82259597D01*
X137682230Y-82308201D01*
X137557352Y-82320500D01*
X137473848Y-82320500D01*
X137348970Y-82308201D01*
X137188745Y-82259597D01*
X137041080Y-82180669D01*
X136911651Y-82074449D01*
X136805431Y-81945020D01*
X136726503Y-81797355D01*
X136677899Y-81637130D01*
X136661488Y-81470500D01*
X136677899Y-81303870D01*
X136726503Y-81143645D01*
X136805431Y-80995980D01*
X136911651Y-80866551D01*
X137041080Y-80760331D01*
X137188745Y-80681403D01*
X137348970Y-80632799D01*
X137473848Y-80620500D01*
X137557352Y-80620500D01*
X137682230Y-80632799D01*
X137682230Y-80632799D01*
G37*
G36*
X150659200Y-81774400D02*
X148959200Y-81774400D01*
X148959200Y-80074400D01*
X150659200Y-80074400D01*
X150659200Y-81774400D01*
X150659200Y-81774400D01*
G37*
G36*
X153634600Y-81678400D02*
X152384600Y-81678400D01*
X152384600Y-80678400D01*
X153634600Y-80678400D01*
X153634600Y-81678400D01*
X153634600Y-81678400D01*
G37*
G36*
X126861830Y-79057999D02*
X127022055Y-79106603D01*
X127169720Y-79185531D01*
X127299149Y-79291751D01*
X127405369Y-79421180D01*
X127484297Y-79568845D01*
X127532901Y-79729070D01*
X127549312Y-79895700D01*
X127532901Y-80062330D01*
X127484297Y-80222555D01*
X127405369Y-80370220D01*
X127299149Y-80499649D01*
X127169720Y-80605869D01*
X127022055Y-80684797D01*
X126861830Y-80733401D01*
X126736952Y-80745700D01*
X126653448Y-80745700D01*
X126528570Y-80733401D01*
X126368345Y-80684797D01*
X126220680Y-80605869D01*
X126091251Y-80499649D01*
X125985031Y-80370220D01*
X125906103Y-80222555D01*
X125857499Y-80062330D01*
X125841088Y-79895700D01*
X125857499Y-79729070D01*
X125906103Y-79568845D01*
X125985031Y-79421180D01*
X126091251Y-79291751D01*
X126220680Y-79185531D01*
X126368345Y-79106603D01*
X126528570Y-79057999D01*
X126653448Y-79045700D01*
X126736952Y-79045700D01*
X126861830Y-79057999D01*
X126861830Y-79057999D01*
G37*
G36*
X129401830Y-79057999D02*
X129562055Y-79106603D01*
X129709720Y-79185531D01*
X129839149Y-79291751D01*
X129945369Y-79421180D01*
X130024297Y-79568845D01*
X130072901Y-79729070D01*
X130089312Y-79895700D01*
X130072901Y-80062330D01*
X130024297Y-80222555D01*
X129945369Y-80370220D01*
X129839149Y-80499649D01*
X129709720Y-80605869D01*
X129562055Y-80684797D01*
X129401830Y-80733401D01*
X129276952Y-80745700D01*
X129193448Y-80745700D01*
X129068570Y-80733401D01*
X128908345Y-80684797D01*
X128760680Y-80605869D01*
X128631251Y-80499649D01*
X128525031Y-80370220D01*
X128446103Y-80222555D01*
X128397499Y-80062330D01*
X128381088Y-79895700D01*
X128397499Y-79729070D01*
X128446103Y-79568845D01*
X128525031Y-79421180D01*
X128631251Y-79291751D01*
X128760680Y-79185531D01*
X128908345Y-79106603D01*
X129068570Y-79057999D01*
X129193448Y-79045700D01*
X129276952Y-79045700D01*
X129401830Y-79057999D01*
X129401830Y-79057999D01*
G37*
G36*
X137682230Y-78092799D02*
X137842455Y-78141403D01*
X137990120Y-78220331D01*
X138119549Y-78326551D01*
X138225769Y-78455980D01*
X138304697Y-78603645D01*
X138353301Y-78763870D01*
X138369712Y-78930500D01*
X138353301Y-79097130D01*
X138304697Y-79257355D01*
X138225769Y-79405020D01*
X138119549Y-79534449D01*
X137990120Y-79640669D01*
X137842455Y-79719597D01*
X137682230Y-79768201D01*
X137557352Y-79780500D01*
X137473848Y-79780500D01*
X137348970Y-79768201D01*
X137188745Y-79719597D01*
X137041080Y-79640669D01*
X136911651Y-79534449D01*
X136805431Y-79405020D01*
X136726503Y-79257355D01*
X136677899Y-79097130D01*
X136661488Y-78930500D01*
X136677899Y-78763870D01*
X136726503Y-78603645D01*
X136805431Y-78455980D01*
X136911651Y-78326551D01*
X137041080Y-78220331D01*
X137188745Y-78141403D01*
X137348970Y-78092799D01*
X137473848Y-78080500D01*
X137557352Y-78080500D01*
X137682230Y-78092799D01*
X137682230Y-78092799D01*
G37*
G36*
X153634600Y-79678400D02*
X152384600Y-79678400D01*
X152384600Y-78678400D01*
X153634600Y-78678400D01*
X153634600Y-79678400D01*
X153634600Y-79678400D01*
G37*
G36*
X149975830Y-77546699D02*
X150136055Y-77595303D01*
X150283720Y-77674231D01*
X150413149Y-77780451D01*
X150519369Y-77909880D01*
X150598297Y-78057545D01*
X150646901Y-78217770D01*
X150663312Y-78384400D01*
X150646901Y-78551030D01*
X150598297Y-78711255D01*
X150519369Y-78858920D01*
X150413149Y-78988349D01*
X150283720Y-79094569D01*
X150136055Y-79173497D01*
X149975830Y-79222101D01*
X149850952Y-79234400D01*
X149767448Y-79234400D01*
X149642570Y-79222101D01*
X149482345Y-79173497D01*
X149334680Y-79094569D01*
X149205251Y-78988349D01*
X149099031Y-78858920D01*
X149020103Y-78711255D01*
X148971499Y-78551030D01*
X148955088Y-78384400D01*
X148971499Y-78217770D01*
X149020103Y-78057545D01*
X149099031Y-77909880D01*
X149205251Y-77780451D01*
X149334680Y-77674231D01*
X149482345Y-77595303D01*
X149642570Y-77546699D01*
X149767448Y-77534400D01*
X149850952Y-77534400D01*
X149975830Y-77546699D01*
X149975830Y-77546699D01*
G37*
G36*
X129401830Y-76517999D02*
X129562055Y-76566603D01*
X129709720Y-76645531D01*
X129839149Y-76751751D01*
X129945369Y-76881180D01*
X130024297Y-77028845D01*
X130072901Y-77189070D01*
X130089312Y-77355700D01*
X130072901Y-77522330D01*
X130024297Y-77682555D01*
X129945369Y-77830220D01*
X129839149Y-77959649D01*
X129709720Y-78065869D01*
X129562055Y-78144797D01*
X129401830Y-78193401D01*
X129276952Y-78205700D01*
X129193448Y-78205700D01*
X129068570Y-78193401D01*
X128908345Y-78144797D01*
X128760680Y-78065869D01*
X128631251Y-77959649D01*
X128525031Y-77830220D01*
X128446103Y-77682555D01*
X128397499Y-77522330D01*
X128381088Y-77355700D01*
X128397499Y-77189070D01*
X128446103Y-77028845D01*
X128525031Y-76881180D01*
X128631251Y-76751751D01*
X128760680Y-76645531D01*
X128908345Y-76566603D01*
X129068570Y-76517999D01*
X129193448Y-76505700D01*
X129276952Y-76505700D01*
X129401830Y-76517999D01*
X129401830Y-76517999D01*
G37*
G36*
X126861830Y-76517999D02*
X127022055Y-76566603D01*
X127169720Y-76645531D01*
X127299149Y-76751751D01*
X127405369Y-76881180D01*
X127484297Y-77028845D01*
X127532901Y-77189070D01*
X127549312Y-77355700D01*
X127532901Y-77522330D01*
X127484297Y-77682555D01*
X127405369Y-77830220D01*
X127299149Y-77959649D01*
X127169720Y-78065869D01*
X127022055Y-78144797D01*
X126861830Y-78193401D01*
X126736952Y-78205700D01*
X126653448Y-78205700D01*
X126528570Y-78193401D01*
X126368345Y-78144797D01*
X126220680Y-78065869D01*
X126091251Y-77959649D01*
X125985031Y-77830220D01*
X125906103Y-77682555D01*
X125857499Y-77522330D01*
X125841088Y-77355700D01*
X125857499Y-77189070D01*
X125906103Y-77028845D01*
X125985031Y-76881180D01*
X126091251Y-76751751D01*
X126220680Y-76645531D01*
X126368345Y-76566603D01*
X126528570Y-76517999D01*
X126653448Y-76505700D01*
X126736952Y-76505700D01*
X126861830Y-76517999D01*
X126861830Y-76517999D01*
G37*
G36*
X137682230Y-75552799D02*
X137842455Y-75601403D01*
X137990120Y-75680331D01*
X138119549Y-75786551D01*
X138225769Y-75915980D01*
X138304697Y-76063645D01*
X138353301Y-76223870D01*
X138369712Y-76390500D01*
X138353301Y-76557130D01*
X138304697Y-76717355D01*
X138225769Y-76865020D01*
X138119549Y-76994449D01*
X137990120Y-77100669D01*
X137842455Y-77179597D01*
X137682230Y-77228201D01*
X137557352Y-77240500D01*
X137473848Y-77240500D01*
X137348970Y-77228201D01*
X137188745Y-77179597D01*
X137041080Y-77100669D01*
X136911651Y-76994449D01*
X136805431Y-76865020D01*
X136726503Y-76717355D01*
X136677899Y-76557130D01*
X136661488Y-76390500D01*
X136677899Y-76223870D01*
X136726503Y-76063645D01*
X136805431Y-75915980D01*
X136911651Y-75786551D01*
X137041080Y-75680331D01*
X137188745Y-75601403D01*
X137348970Y-75552799D01*
X137473848Y-75540500D01*
X137557352Y-75540500D01*
X137682230Y-75552799D01*
X137682230Y-75552799D01*
G37*
G36*
X149975830Y-75006699D02*
X150136055Y-75055303D01*
X150283720Y-75134231D01*
X150413149Y-75240451D01*
X150519369Y-75369880D01*
X150598297Y-75517545D01*
X150646901Y-75677770D01*
X150663312Y-75844400D01*
X150646901Y-76011030D01*
X150598297Y-76171255D01*
X150519369Y-76318920D01*
X150413149Y-76448349D01*
X150283720Y-76554569D01*
X150136055Y-76633497D01*
X149975830Y-76682101D01*
X149850952Y-76694400D01*
X149767448Y-76694400D01*
X149642570Y-76682101D01*
X149482345Y-76633497D01*
X149334680Y-76554569D01*
X149205251Y-76448349D01*
X149099031Y-76318920D01*
X149020103Y-76171255D01*
X148971499Y-76011030D01*
X148955088Y-75844400D01*
X148971499Y-75677770D01*
X149020103Y-75517545D01*
X149099031Y-75369880D01*
X149205251Y-75240451D01*
X149334680Y-75134231D01*
X149482345Y-75055303D01*
X149642570Y-75006699D01*
X149767448Y-74994400D01*
X149850952Y-74994400D01*
X149975830Y-75006699D01*
X149975830Y-75006699D01*
G37*
G36*
X126861830Y-73977999D02*
X127022055Y-74026603D01*
X127169720Y-74105531D01*
X127299149Y-74211751D01*
X127405369Y-74341180D01*
X127484297Y-74488845D01*
X127532901Y-74649070D01*
X127549312Y-74815700D01*
X127532901Y-74982330D01*
X127484297Y-75142555D01*
X127405369Y-75290220D01*
X127299149Y-75419649D01*
X127169720Y-75525869D01*
X127022055Y-75604797D01*
X126861830Y-75653401D01*
X126736952Y-75665700D01*
X126653448Y-75665700D01*
X126528570Y-75653401D01*
X126368345Y-75604797D01*
X126220680Y-75525869D01*
X126091251Y-75419649D01*
X125985031Y-75290220D01*
X125906103Y-75142555D01*
X125857499Y-74982330D01*
X125841088Y-74815700D01*
X125857499Y-74649070D01*
X125906103Y-74488845D01*
X125985031Y-74341180D01*
X126091251Y-74211751D01*
X126220680Y-74105531D01*
X126368345Y-74026603D01*
X126528570Y-73977999D01*
X126653448Y-73965700D01*
X126736952Y-73965700D01*
X126861830Y-73977999D01*
X126861830Y-73977999D01*
G37*
G36*
X129401830Y-73977999D02*
X129562055Y-74026603D01*
X129709720Y-74105531D01*
X129839149Y-74211751D01*
X129945369Y-74341180D01*
X130024297Y-74488845D01*
X130072901Y-74649070D01*
X130089312Y-74815700D01*
X130072901Y-74982330D01*
X130024297Y-75142555D01*
X129945369Y-75290220D01*
X129839149Y-75419649D01*
X129709720Y-75525869D01*
X129562055Y-75604797D01*
X129401830Y-75653401D01*
X129276952Y-75665700D01*
X129193448Y-75665700D01*
X129068570Y-75653401D01*
X128908345Y-75604797D01*
X128760680Y-75525869D01*
X128631251Y-75419649D01*
X128525031Y-75290220D01*
X128446103Y-75142555D01*
X128397499Y-74982330D01*
X128381088Y-74815700D01*
X128397499Y-74649070D01*
X128446103Y-74488845D01*
X128525031Y-74341180D01*
X128631251Y-74211751D01*
X128760680Y-74105531D01*
X128908345Y-74026603D01*
X129068570Y-73977999D01*
X129193448Y-73965700D01*
X129276952Y-73965700D01*
X129401830Y-73977999D01*
X129401830Y-73977999D01*
G37*
G36*
X138365600Y-74700500D02*
X136665600Y-74700500D01*
X136665600Y-73000500D01*
X138365600Y-73000500D01*
X138365600Y-74700500D01*
X138365600Y-74700500D01*
G37*
G36*
X149975830Y-72466699D02*
X150136055Y-72515303D01*
X150283720Y-72594231D01*
X150413149Y-72700451D01*
X150519369Y-72829880D01*
X150598297Y-72977545D01*
X150646901Y-73137770D01*
X150663312Y-73304400D01*
X150646901Y-73471030D01*
X150598297Y-73631255D01*
X150519369Y-73778920D01*
X150413149Y-73908349D01*
X150283720Y-74014569D01*
X150136055Y-74093497D01*
X149975830Y-74142101D01*
X149850952Y-74154400D01*
X149767448Y-74154400D01*
X149642570Y-74142101D01*
X149482345Y-74093497D01*
X149334680Y-74014569D01*
X149205251Y-73908349D01*
X149099031Y-73778920D01*
X149020103Y-73631255D01*
X148971499Y-73471030D01*
X148955088Y-73304400D01*
X148971499Y-73137770D01*
X149020103Y-72977545D01*
X149099031Y-72829880D01*
X149205251Y-72700451D01*
X149334680Y-72594231D01*
X149482345Y-72515303D01*
X149642570Y-72466699D01*
X149767448Y-72454400D01*
X149850952Y-72454400D01*
X149975830Y-72466699D01*
X149975830Y-72466699D01*
G37*
G36*
X129401830Y-71437999D02*
X129562055Y-71486603D01*
X129709720Y-71565531D01*
X129839149Y-71671751D01*
X129945369Y-71801180D01*
X130024297Y-71948845D01*
X130072901Y-72109070D01*
X130089312Y-72275700D01*
X130072901Y-72442330D01*
X130024297Y-72602555D01*
X129945369Y-72750220D01*
X129839149Y-72879649D01*
X129709720Y-72985869D01*
X129562055Y-73064797D01*
X129401830Y-73113401D01*
X129276952Y-73125700D01*
X129193448Y-73125700D01*
X129068570Y-73113401D01*
X128908345Y-73064797D01*
X128760680Y-72985869D01*
X128631251Y-72879649D01*
X128525031Y-72750220D01*
X128446103Y-72602555D01*
X128397499Y-72442330D01*
X128381088Y-72275700D01*
X128397499Y-72109070D01*
X128446103Y-71948845D01*
X128525031Y-71801180D01*
X128631251Y-71671751D01*
X128760680Y-71565531D01*
X128908345Y-71486603D01*
X129068570Y-71437999D01*
X129193448Y-71425700D01*
X129276952Y-71425700D01*
X129401830Y-71437999D01*
X129401830Y-71437999D01*
G37*
G36*
X126861830Y-71437999D02*
X127022055Y-71486603D01*
X127169720Y-71565531D01*
X127299149Y-71671751D01*
X127405369Y-71801180D01*
X127484297Y-71948845D01*
X127532901Y-72109070D01*
X127549312Y-72275700D01*
X127532901Y-72442330D01*
X127484297Y-72602555D01*
X127405369Y-72750220D01*
X127299149Y-72879649D01*
X127169720Y-72985869D01*
X127022055Y-73064797D01*
X126861830Y-73113401D01*
X126736952Y-73125700D01*
X126653448Y-73125700D01*
X126528570Y-73113401D01*
X126368345Y-73064797D01*
X126220680Y-72985869D01*
X126091251Y-72879649D01*
X125985031Y-72750220D01*
X125906103Y-72602555D01*
X125857499Y-72442330D01*
X125841088Y-72275700D01*
X125857499Y-72109070D01*
X125906103Y-71948845D01*
X125985031Y-71801180D01*
X126091251Y-71671751D01*
X126220680Y-71565531D01*
X126368345Y-71486603D01*
X126528570Y-71437999D01*
X126653448Y-71425700D01*
X126736952Y-71425700D01*
X126861830Y-71437999D01*
X126861830Y-71437999D01*
G37*
G36*
X149975830Y-69926699D02*
X150136055Y-69975303D01*
X150283720Y-70054231D01*
X150413149Y-70160451D01*
X150519369Y-70289880D01*
X150598297Y-70437545D01*
X150646901Y-70597770D01*
X150663312Y-70764400D01*
X150646901Y-70931030D01*
X150598297Y-71091255D01*
X150519369Y-71238920D01*
X150413149Y-71368349D01*
X150283720Y-71474569D01*
X150136055Y-71553497D01*
X149975830Y-71602101D01*
X149850952Y-71614400D01*
X149767448Y-71614400D01*
X149642570Y-71602101D01*
X149482345Y-71553497D01*
X149334680Y-71474569D01*
X149205251Y-71368349D01*
X149099031Y-71238920D01*
X149020103Y-71091255D01*
X148971499Y-70931030D01*
X148955088Y-70764400D01*
X148971499Y-70597770D01*
X149020103Y-70437545D01*
X149099031Y-70289880D01*
X149205251Y-70160451D01*
X149334680Y-70054231D01*
X149482345Y-69975303D01*
X149642570Y-69926699D01*
X149767448Y-69914400D01*
X149850952Y-69914400D01*
X149975830Y-69926699D01*
X149975830Y-69926699D01*
G37*
G36*
X129401830Y-68897999D02*
X129562055Y-68946603D01*
X129709720Y-69025531D01*
X129839149Y-69131751D01*
X129945369Y-69261180D01*
X130024297Y-69408845D01*
X130072901Y-69569070D01*
X130089312Y-69735700D01*
X130072901Y-69902330D01*
X130024297Y-70062555D01*
X129945369Y-70210220D01*
X129839149Y-70339649D01*
X129709720Y-70445869D01*
X129562055Y-70524797D01*
X129401830Y-70573401D01*
X129276952Y-70585700D01*
X129193448Y-70585700D01*
X129068570Y-70573401D01*
X128908345Y-70524797D01*
X128760680Y-70445869D01*
X128631251Y-70339649D01*
X128525031Y-70210220D01*
X128446103Y-70062555D01*
X128397499Y-69902330D01*
X128381088Y-69735700D01*
X128397499Y-69569070D01*
X128446103Y-69408845D01*
X128525031Y-69261180D01*
X128631251Y-69131751D01*
X128760680Y-69025531D01*
X128908345Y-68946603D01*
X129068570Y-68897999D01*
X129193448Y-68885700D01*
X129276952Y-68885700D01*
X129401830Y-68897999D01*
X129401830Y-68897999D01*
G37*
G36*
X126861830Y-68897999D02*
X127022055Y-68946603D01*
X127169720Y-69025531D01*
X127299149Y-69131751D01*
X127405369Y-69261180D01*
X127484297Y-69408845D01*
X127532901Y-69569070D01*
X127549312Y-69735700D01*
X127532901Y-69902330D01*
X127484297Y-70062555D01*
X127405369Y-70210220D01*
X127299149Y-70339649D01*
X127169720Y-70445869D01*
X127022055Y-70524797D01*
X126861830Y-70573401D01*
X126736952Y-70585700D01*
X126653448Y-70585700D01*
X126528570Y-70573401D01*
X126368345Y-70524797D01*
X126220680Y-70445869D01*
X126091251Y-70339649D01*
X125985031Y-70210220D01*
X125906103Y-70062555D01*
X125857499Y-69902330D01*
X125841088Y-69735700D01*
X125857499Y-69569070D01*
X125906103Y-69408845D01*
X125985031Y-69261180D01*
X126091251Y-69131751D01*
X126220680Y-69025531D01*
X126368345Y-68946603D01*
X126528570Y-68897999D01*
X126653448Y-68885700D01*
X126736952Y-68885700D01*
X126861830Y-68897999D01*
X126861830Y-68897999D01*
G37*
G36*
X179279172Y-65130219D02*
X179411014Y-65156444D01*
X179604040Y-65236398D01*
X179660174Y-65259649D01*
X179683997Y-65269517D01*
X179828197Y-65365869D01*
X179929677Y-65433676D01*
X180138604Y-65642603D01*
X180302764Y-65888285D01*
X180415836Y-66161267D01*
X180464637Y-66406603D01*
X180473480Y-66451063D01*
X180473480Y-66746537D01*
X180415836Y-67036334D01*
X180302763Y-67309317D01*
X180160281Y-67522555D01*
X180138604Y-67554997D01*
X179929677Y-67763924D01*
X179929674Y-67763926D01*
X179683997Y-67928083D01*
X179411014Y-68041156D01*
X179314415Y-68060371D01*
X179121219Y-68098800D01*
X178825741Y-68098800D01*
X178632545Y-68060371D01*
X178535946Y-68041156D01*
X178262963Y-67928083D01*
X178017286Y-67763926D01*
X178017283Y-67763924D01*
X177808356Y-67554997D01*
X177786679Y-67522555D01*
X177644197Y-67309317D01*
X177531124Y-67036334D01*
X177473480Y-66746537D01*
X177473480Y-66451063D01*
X177482324Y-66406603D01*
X177531124Y-66161267D01*
X177644196Y-65888285D01*
X177808356Y-65642603D01*
X178017283Y-65433676D01*
X178118763Y-65365869D01*
X178262963Y-65269517D01*
X178286787Y-65259649D01*
X178342920Y-65236398D01*
X178535946Y-65156444D01*
X178667788Y-65130219D01*
X178825741Y-65098800D01*
X179121219Y-65098800D01*
X179279172Y-65130219D01*
X179279172Y-65130219D01*
G37*
G36*
X126861830Y-66357999D02*
X127022055Y-66406603D01*
X127169720Y-66485531D01*
X127299149Y-66591751D01*
X127405369Y-66721180D01*
X127484297Y-66868845D01*
X127532901Y-67029070D01*
X127549312Y-67195700D01*
X127532901Y-67362330D01*
X127484297Y-67522555D01*
X127405369Y-67670220D01*
X127299149Y-67799649D01*
X127169720Y-67905869D01*
X127022055Y-67984797D01*
X126861830Y-68033401D01*
X126736952Y-68045700D01*
X126653448Y-68045700D01*
X126528570Y-68033401D01*
X126368345Y-67984797D01*
X126220680Y-67905869D01*
X126091251Y-67799649D01*
X125985031Y-67670220D01*
X125906103Y-67522555D01*
X125857499Y-67362330D01*
X125841088Y-67195700D01*
X125857499Y-67029070D01*
X125906103Y-66868845D01*
X125985031Y-66721180D01*
X126091251Y-66591751D01*
X126220680Y-66485531D01*
X126368345Y-66406603D01*
X126528570Y-66357999D01*
X126653448Y-66345700D01*
X126736952Y-66345700D01*
X126861830Y-66357999D01*
X126861830Y-66357999D01*
G37*
G36*
X129401830Y-66357999D02*
X129562055Y-66406603D01*
X129709720Y-66485531D01*
X129839149Y-66591751D01*
X129945369Y-66721180D01*
X130024297Y-66868845D01*
X130072901Y-67029070D01*
X130089312Y-67195700D01*
X130072901Y-67362330D01*
X130024297Y-67522555D01*
X129945369Y-67670220D01*
X129839149Y-67799649D01*
X129709720Y-67905869D01*
X129562055Y-67984797D01*
X129401830Y-68033401D01*
X129276952Y-68045700D01*
X129193448Y-68045700D01*
X129068570Y-68033401D01*
X128908345Y-67984797D01*
X128760680Y-67905869D01*
X128631251Y-67799649D01*
X128525031Y-67670220D01*
X128446103Y-67522555D01*
X128397499Y-67362330D01*
X128381088Y-67195700D01*
X128397499Y-67029070D01*
X128446103Y-66868845D01*
X128525031Y-66721180D01*
X128631251Y-66591751D01*
X128760680Y-66485531D01*
X128908345Y-66406603D01*
X129068570Y-66357999D01*
X129193448Y-66345700D01*
X129276952Y-66345700D01*
X129401830Y-66357999D01*
X129401830Y-66357999D01*
G37*
G36*
X126861830Y-63817999D02*
X127022055Y-63866603D01*
X127169720Y-63945531D01*
X127299149Y-64051751D01*
X127405369Y-64181180D01*
X127484297Y-64328845D01*
X127532901Y-64489070D01*
X127549312Y-64655700D01*
X127532901Y-64822330D01*
X127484297Y-64982555D01*
X127405369Y-65130220D01*
X127299149Y-65259649D01*
X127169720Y-65365869D01*
X127022055Y-65444797D01*
X126861830Y-65493401D01*
X126736952Y-65505700D01*
X126653448Y-65505700D01*
X126528570Y-65493401D01*
X126368345Y-65444797D01*
X126220680Y-65365869D01*
X126091251Y-65259649D01*
X125985031Y-65130220D01*
X125906103Y-64982555D01*
X125857499Y-64822330D01*
X125841088Y-64655700D01*
X125857499Y-64489070D01*
X125906103Y-64328845D01*
X125985031Y-64181180D01*
X126091251Y-64051751D01*
X126220680Y-63945531D01*
X126368345Y-63866603D01*
X126528570Y-63817999D01*
X126653448Y-63805700D01*
X126736952Y-63805700D01*
X126861830Y-63817999D01*
X126861830Y-63817999D01*
G37*
G36*
X129401830Y-63817999D02*
X129562055Y-63866603D01*
X129709720Y-63945531D01*
X129839149Y-64051751D01*
X129945369Y-64181180D01*
X130024297Y-64328845D01*
X130072901Y-64489070D01*
X130089312Y-64655700D01*
X130072901Y-64822330D01*
X130024297Y-64982555D01*
X129945369Y-65130220D01*
X129839149Y-65259649D01*
X129709720Y-65365869D01*
X129562055Y-65444797D01*
X129401830Y-65493401D01*
X129276952Y-65505700D01*
X129193448Y-65505700D01*
X129068570Y-65493401D01*
X128908345Y-65444797D01*
X128760680Y-65365869D01*
X128631251Y-65259649D01*
X128525031Y-65130220D01*
X128446103Y-64982555D01*
X128397499Y-64822330D01*
X128381088Y-64655700D01*
X128397499Y-64489070D01*
X128446103Y-64328845D01*
X128525031Y-64181180D01*
X128631251Y-64051751D01*
X128760680Y-63945531D01*
X128908345Y-63866603D01*
X129068570Y-63817999D01*
X129193448Y-63805700D01*
X129276952Y-63805700D01*
X129401830Y-63817999D01*
X129401830Y-63817999D01*
G37*
G36*
X168683638Y-59999916D02*
X168890985Y-60062815D01*
X168890987Y-60062816D01*
X169082084Y-60164958D01*
X169249581Y-60302419D01*
X169387042Y-60469916D01*
X169489184Y-60661012D01*
X169489185Y-60661014D01*
X169552084Y-60868361D01*
X169568000Y-61029962D01*
X169568000Y-62938038D01*
X169552237Y-63098082D01*
X169552084Y-63099638D01*
X169489184Y-63306988D01*
X169387042Y-63498084D01*
X169249581Y-63665581D01*
X169082084Y-63803042D01*
X168890988Y-63905184D01*
X168890986Y-63905185D01*
X168683639Y-63968084D01*
X168468000Y-63989322D01*
X168252362Y-63968084D01*
X168045015Y-63905185D01*
X168045013Y-63905184D01*
X167853917Y-63803042D01*
X167686420Y-63665581D01*
X167548959Y-63498084D01*
X167446817Y-63306988D01*
X167383917Y-63099638D01*
X167368000Y-62938036D01*
X167368000Y-61029965D01*
X167383916Y-60868363D01*
X167383916Y-60868362D01*
X167446815Y-60661015D01*
X167446817Y-60661012D01*
X167548958Y-60469916D01*
X167686419Y-60302419D01*
X167853916Y-60164958D01*
X168045012Y-60062816D01*
X168045014Y-60062815D01*
X168252361Y-59999916D01*
X168468000Y-59978678D01*
X168683638Y-59999916D01*
X168683638Y-59999916D01*
G37*
G36*
X176883639Y-61399916D02*
X177090986Y-61462815D01*
X177090988Y-61462816D01*
X177282084Y-61564958D01*
X177449581Y-61702419D01*
X177587042Y-61869916D01*
X177689184Y-62061012D01*
X177689185Y-62061014D01*
X177752084Y-62268361D01*
X177773322Y-62484000D01*
X177762861Y-62590220D01*
X177752084Y-62699638D01*
X177689184Y-62906988D01*
X177587042Y-63098084D01*
X177449581Y-63265581D01*
X177282084Y-63403042D01*
X177104275Y-63498082D01*
X177090986Y-63505185D01*
X176883639Y-63568084D01*
X176722038Y-63584000D01*
X174813962Y-63584000D01*
X174652361Y-63568084D01*
X174445014Y-63505185D01*
X174431725Y-63498082D01*
X174253916Y-63403042D01*
X174086419Y-63265581D01*
X173948958Y-63098084D01*
X173846816Y-62906988D01*
X173783916Y-62699638D01*
X173773140Y-62590220D01*
X173762678Y-62484000D01*
X173783916Y-62268361D01*
X173846815Y-62061014D01*
X173846816Y-62061012D01*
X173948958Y-61869916D01*
X174086419Y-61702419D01*
X174253916Y-61564958D01*
X174445012Y-61462816D01*
X174445014Y-61462815D01*
X174652361Y-61399916D01*
X174813962Y-61384000D01*
X176722038Y-61384000D01*
X176883639Y-61399916D01*
X176883639Y-61399916D01*
G37*
G36*
X129401830Y-61277999D02*
X129562055Y-61326603D01*
X129709720Y-61405531D01*
X129839149Y-61511751D01*
X129945369Y-61641180D01*
X130024297Y-61788845D01*
X130072901Y-61949070D01*
X130089312Y-62115700D01*
X130072901Y-62282330D01*
X130024297Y-62442555D01*
X129945369Y-62590220D01*
X129839149Y-62719649D01*
X129709720Y-62825869D01*
X129562055Y-62904797D01*
X129401830Y-62953401D01*
X129276952Y-62965700D01*
X129193448Y-62965700D01*
X129068570Y-62953401D01*
X128908345Y-62904797D01*
X128760680Y-62825869D01*
X128631251Y-62719649D01*
X128525031Y-62590220D01*
X128446103Y-62442555D01*
X128397499Y-62282330D01*
X128381088Y-62115700D01*
X128397499Y-61949070D01*
X128446103Y-61788845D01*
X128525031Y-61641180D01*
X128631251Y-61511751D01*
X128760680Y-61405531D01*
X128908345Y-61326603D01*
X129068570Y-61277999D01*
X129193448Y-61265700D01*
X129276952Y-61265700D01*
X129401830Y-61277999D01*
X129401830Y-61277999D01*
G37*
G36*
X126861830Y-61277999D02*
X127022055Y-61326603D01*
X127169720Y-61405531D01*
X127299149Y-61511751D01*
X127405369Y-61641180D01*
X127484297Y-61788845D01*
X127532901Y-61949070D01*
X127549312Y-62115700D01*
X127532901Y-62282330D01*
X127484297Y-62442555D01*
X127405369Y-62590220D01*
X127299149Y-62719649D01*
X127169720Y-62825869D01*
X127022055Y-62904797D01*
X126861830Y-62953401D01*
X126736952Y-62965700D01*
X126653448Y-62965700D01*
X126528570Y-62953401D01*
X126368345Y-62904797D01*
X126220680Y-62825869D01*
X126091251Y-62719649D01*
X125985031Y-62590220D01*
X125906103Y-62442555D01*
X125857499Y-62282330D01*
X125841088Y-62115700D01*
X125857499Y-61949070D01*
X125906103Y-61788845D01*
X125985031Y-61641180D01*
X126091251Y-61511751D01*
X126220680Y-61405531D01*
X126368345Y-61326603D01*
X126528570Y-61277999D01*
X126653448Y-61265700D01*
X126736952Y-61265700D01*
X126861830Y-61277999D01*
X126861830Y-61277999D01*
G37*
G36*
X138721200Y-62826000D02*
X137021200Y-62826000D01*
X137021200Y-61126000D01*
X138721200Y-61126000D01*
X138721200Y-62826000D01*
X138721200Y-62826000D01*
G37*
G36*
X134584600Y-62409200D02*
X133334600Y-62409200D01*
X133334600Y-61409200D01*
X134584600Y-61409200D01*
X134584600Y-62409200D01*
X134584600Y-62409200D01*
G37*
G36*
X141899800Y-62358400D02*
X140649800Y-62358400D01*
X140649800Y-61358400D01*
X141899800Y-61358400D01*
X141899800Y-62358400D01*
X141899800Y-62358400D01*
G37*
G36*
X145887200Y-62183800D02*
X144587200Y-62183800D01*
X144587200Y-61483800D01*
X145887200Y-61483800D01*
X145887200Y-62183800D01*
X145887200Y-62183800D01*
G37*
G36*
X129401830Y-58737999D02*
X129562055Y-58786603D01*
X129709720Y-58865531D01*
X129839149Y-58971751D01*
X129945369Y-59101180D01*
X130024297Y-59248845D01*
X130072901Y-59409070D01*
X130089312Y-59575700D01*
X130072901Y-59742330D01*
X130024297Y-59902555D01*
X129945369Y-60050220D01*
X129839149Y-60179649D01*
X129709720Y-60285869D01*
X129562055Y-60364797D01*
X129401830Y-60413401D01*
X129276952Y-60425700D01*
X129193448Y-60425700D01*
X129068570Y-60413401D01*
X128908345Y-60364797D01*
X128760680Y-60285869D01*
X128631251Y-60179649D01*
X128525031Y-60050220D01*
X128446103Y-59902555D01*
X128397499Y-59742330D01*
X128381088Y-59575700D01*
X128397499Y-59409070D01*
X128446103Y-59248845D01*
X128525031Y-59101180D01*
X128631251Y-58971751D01*
X128760680Y-58865531D01*
X128908345Y-58786603D01*
X129068570Y-58737999D01*
X129193448Y-58725700D01*
X129276952Y-58725700D01*
X129401830Y-58737999D01*
X129401830Y-58737999D01*
G37*
G36*
X126861830Y-58737999D02*
X127022055Y-58786603D01*
X127169720Y-58865531D01*
X127299149Y-58971751D01*
X127405369Y-59101180D01*
X127484297Y-59248845D01*
X127532901Y-59409070D01*
X127549312Y-59575700D01*
X127532901Y-59742330D01*
X127484297Y-59902555D01*
X127405369Y-60050220D01*
X127299149Y-60179649D01*
X127169720Y-60285869D01*
X127022055Y-60364797D01*
X126861830Y-60413401D01*
X126736952Y-60425700D01*
X126653448Y-60425700D01*
X126528570Y-60413401D01*
X126368345Y-60364797D01*
X126220680Y-60285869D01*
X126091251Y-60179649D01*
X125985031Y-60050220D01*
X125906103Y-59902555D01*
X125857499Y-59742330D01*
X125841088Y-59575700D01*
X125857499Y-59409070D01*
X125906103Y-59248845D01*
X125985031Y-59101180D01*
X126091251Y-58971751D01*
X126220680Y-58865531D01*
X126368345Y-58786603D01*
X126528570Y-58737999D01*
X126653448Y-58725700D01*
X126736952Y-58725700D01*
X126861830Y-58737999D01*
X126861830Y-58737999D01*
G37*
G36*
X134584600Y-60409200D02*
X133334600Y-60409200D01*
X133334600Y-59409200D01*
X134584600Y-59409200D01*
X134584600Y-60409200D01*
X134584600Y-60409200D01*
G37*
G36*
X141899800Y-60358400D02*
X140649800Y-60358400D01*
X140649800Y-59358400D01*
X141899800Y-59358400D01*
X141899800Y-60358400D01*
X141899800Y-60358400D01*
G37*
G36*
X138037830Y-58598299D02*
X138198055Y-58646903D01*
X138345720Y-58725831D01*
X138475149Y-58832051D01*
X138581369Y-58961480D01*
X138660297Y-59109145D01*
X138708901Y-59269370D01*
X138725312Y-59436000D01*
X138708901Y-59602630D01*
X138660297Y-59762855D01*
X138581369Y-59910520D01*
X138475149Y-60039949D01*
X138345720Y-60146169D01*
X138198055Y-60225097D01*
X138037830Y-60273701D01*
X137912952Y-60286000D01*
X137829448Y-60286000D01*
X137704570Y-60273701D01*
X137544345Y-60225097D01*
X137396680Y-60146169D01*
X137267251Y-60039949D01*
X137161031Y-59910520D01*
X137082103Y-59762855D01*
X137033499Y-59602630D01*
X137017088Y-59436000D01*
X137033499Y-59269370D01*
X137082103Y-59109145D01*
X137161031Y-58961480D01*
X137267251Y-58832051D01*
X137396680Y-58725831D01*
X137544345Y-58646903D01*
X137704570Y-58598299D01*
X137829448Y-58586000D01*
X137912952Y-58586000D01*
X138037830Y-58598299D01*
X138037830Y-58598299D01*
G37*
G36*
X145887200Y-60283800D02*
X144587200Y-60283800D01*
X144587200Y-59583800D01*
X145887200Y-59583800D01*
X145887200Y-60283800D01*
X145887200Y-60283800D01*
G37*
G36*
X179883639Y-55899916D02*
X180090986Y-55962815D01*
X180090988Y-55962816D01*
X180282084Y-56064958D01*
X180449581Y-56202419D01*
X180587042Y-56369916D01*
X180689184Y-56561012D01*
X180689185Y-56561014D01*
X180752084Y-56768361D01*
X180768000Y-56929962D01*
X180768000Y-58838038D01*
X180752084Y-58999637D01*
X180752084Y-58999638D01*
X180689184Y-59206988D01*
X180587042Y-59398084D01*
X180449581Y-59565581D01*
X180282084Y-59703042D01*
X180090987Y-59805184D01*
X180090985Y-59805185D01*
X179883638Y-59868084D01*
X179668000Y-59889322D01*
X179452361Y-59868084D01*
X179245014Y-59805185D01*
X179245012Y-59805184D01*
X179053916Y-59703042D01*
X178886419Y-59565581D01*
X178748958Y-59398084D01*
X178646816Y-59206987D01*
X178614720Y-59101181D01*
X178583916Y-58999638D01*
X178568000Y-58838037D01*
X178568000Y-56929963D01*
X178583917Y-56768361D01*
X178646816Y-56561014D01*
X178646817Y-56561012D01*
X178748959Y-56369916D01*
X178886420Y-56202419D01*
X179053917Y-56064958D01*
X179245013Y-55962816D01*
X179245015Y-55962815D01*
X179452362Y-55899916D01*
X179668000Y-55878678D01*
X179883639Y-55899916D01*
X179883639Y-55899916D01*
G37*
G36*
X160709426Y-59550304D02*
X158309426Y-59550304D01*
X158309426Y-57150304D01*
X160709426Y-57150304D01*
X160709426Y-59550304D01*
X160709426Y-59550304D01*
G37*
G36*
X126861830Y-56197999D02*
X127022055Y-56246603D01*
X127169720Y-56325531D01*
X127299149Y-56431751D01*
X127405369Y-56561180D01*
X127484297Y-56708845D01*
X127532901Y-56869070D01*
X127549312Y-57035700D01*
X127532901Y-57202330D01*
X127484297Y-57362555D01*
X127405369Y-57510220D01*
X127299149Y-57639649D01*
X127169720Y-57745869D01*
X127022055Y-57824797D01*
X126861830Y-57873401D01*
X126736952Y-57885700D01*
X126653448Y-57885700D01*
X126528570Y-57873401D01*
X126368345Y-57824797D01*
X126220680Y-57745869D01*
X126091251Y-57639649D01*
X125985031Y-57510220D01*
X125906103Y-57362555D01*
X125857499Y-57202330D01*
X125841088Y-57035700D01*
X125857499Y-56869070D01*
X125906103Y-56708845D01*
X125985031Y-56561180D01*
X126091251Y-56431751D01*
X126220680Y-56325531D01*
X126368345Y-56246603D01*
X126528570Y-56197999D01*
X126653448Y-56185700D01*
X126736952Y-56185700D01*
X126861830Y-56197999D01*
X126861830Y-56197999D01*
G37*
G36*
X129401830Y-56197999D02*
X129562055Y-56246603D01*
X129709720Y-56325531D01*
X129839149Y-56431751D01*
X129945369Y-56561180D01*
X130024297Y-56708845D01*
X130072901Y-56869070D01*
X130089312Y-57035700D01*
X130072901Y-57202330D01*
X130024297Y-57362555D01*
X129945369Y-57510220D01*
X129839149Y-57639649D01*
X129709720Y-57745869D01*
X129562055Y-57824797D01*
X129401830Y-57873401D01*
X129276952Y-57885700D01*
X129193448Y-57885700D01*
X129068570Y-57873401D01*
X128908345Y-57824797D01*
X128760680Y-57745869D01*
X128631251Y-57639649D01*
X128525031Y-57510220D01*
X128446103Y-57362555D01*
X128397499Y-57202330D01*
X128381088Y-57035700D01*
X128397499Y-56869070D01*
X128446103Y-56708845D01*
X128525031Y-56561180D01*
X128631251Y-56431751D01*
X128760680Y-56325531D01*
X128908345Y-56246603D01*
X129068570Y-56197999D01*
X129193448Y-56185700D01*
X129276952Y-56185700D01*
X129401830Y-56197999D01*
X129401830Y-56197999D01*
G37*
G36*
X138037830Y-56058299D02*
X138198055Y-56106903D01*
X138345720Y-56185831D01*
X138475149Y-56292051D01*
X138581369Y-56421480D01*
X138660297Y-56569145D01*
X138708901Y-56729370D01*
X138725312Y-56896000D01*
X138708901Y-57062630D01*
X138660297Y-57222855D01*
X138581369Y-57370520D01*
X138475149Y-57499949D01*
X138345720Y-57606169D01*
X138198055Y-57685097D01*
X138037830Y-57733701D01*
X137912952Y-57746000D01*
X137829448Y-57746000D01*
X137704570Y-57733701D01*
X137544345Y-57685097D01*
X137396680Y-57606169D01*
X137267251Y-57499949D01*
X137161031Y-57370520D01*
X137082103Y-57222855D01*
X137033499Y-57062630D01*
X137017088Y-56896000D01*
X137033499Y-56729370D01*
X137082103Y-56569145D01*
X137161031Y-56421480D01*
X137267251Y-56292051D01*
X137396680Y-56185831D01*
X137544345Y-56106903D01*
X137704570Y-56058299D01*
X137829448Y-56046000D01*
X137912952Y-56046000D01*
X138037830Y-56058299D01*
X138037830Y-56058299D01*
G37*
G36*
X173983639Y-54299916D02*
X174190986Y-54362815D01*
X174190988Y-54362816D01*
X174382084Y-54464958D01*
X174549581Y-54602419D01*
X174687042Y-54769916D01*
X174788615Y-54959948D01*
X174789185Y-54961014D01*
X174852084Y-55168361D01*
X174873322Y-55384000D01*
X174852084Y-55599639D01*
X174796642Y-55782405D01*
X174789184Y-55806988D01*
X174687042Y-55998084D01*
X174549581Y-56165581D01*
X174382084Y-56303042D01*
X174190988Y-56405184D01*
X174190986Y-56405185D01*
X173983639Y-56468084D01*
X173822038Y-56484000D01*
X171913962Y-56484000D01*
X171752361Y-56468084D01*
X171545014Y-56405185D01*
X171545012Y-56405184D01*
X171353916Y-56303042D01*
X171186419Y-56165581D01*
X171048958Y-55998084D01*
X170946816Y-55806988D01*
X170939359Y-55782405D01*
X170883916Y-55599639D01*
X170862678Y-55384000D01*
X170883916Y-55168361D01*
X170946815Y-54961014D01*
X170947385Y-54959948D01*
X171048958Y-54769916D01*
X171186419Y-54602419D01*
X171353916Y-54464958D01*
X171545012Y-54362816D01*
X171545014Y-54362815D01*
X171752361Y-54299916D01*
X171913962Y-54284000D01*
X173822038Y-54284000D01*
X173983639Y-54299916D01*
X173983639Y-54299916D01*
G37*
G36*
X159859452Y-53696419D02*
X160077838Y-53786877D01*
X160274384Y-53918205D01*
X160441525Y-54085346D01*
X160572853Y-54281892D01*
X160663311Y-54500278D01*
X160709426Y-54732113D01*
X160709426Y-54968495D01*
X160663311Y-55200330D01*
X160572853Y-55418716D01*
X160441525Y-55615262D01*
X160274384Y-55782403D01*
X160077838Y-55913731D01*
X159859452Y-56004189D01*
X159627617Y-56050304D01*
X159391235Y-56050304D01*
X159159400Y-56004189D01*
X158941014Y-55913731D01*
X158744468Y-55782403D01*
X158577327Y-55615262D01*
X158445999Y-55418716D01*
X158355541Y-55200330D01*
X158309426Y-54968495D01*
X158309426Y-54732113D01*
X158355541Y-54500278D01*
X158445999Y-54281892D01*
X158577327Y-54085346D01*
X158744468Y-53918205D01*
X158941014Y-53786877D01*
X159159400Y-53696419D01*
X159391235Y-53650304D01*
X159627617Y-53650304D01*
X159859452Y-53696419D01*
X159859452Y-53696419D01*
G37*
G36*
X129401830Y-53657999D02*
X129562055Y-53706603D01*
X129709720Y-53785531D01*
X129839149Y-53891751D01*
X129945369Y-54021180D01*
X130024297Y-54168845D01*
X130072901Y-54329070D01*
X130089312Y-54495700D01*
X130072901Y-54662330D01*
X130024297Y-54822555D01*
X129945369Y-54970220D01*
X129839149Y-55099649D01*
X129709720Y-55205869D01*
X129562055Y-55284797D01*
X129401830Y-55333401D01*
X129276952Y-55345700D01*
X129193448Y-55345700D01*
X129068570Y-55333401D01*
X128908345Y-55284797D01*
X128760680Y-55205869D01*
X128631251Y-55099649D01*
X128525031Y-54970220D01*
X128446103Y-54822555D01*
X128397499Y-54662330D01*
X128381088Y-54495700D01*
X128397499Y-54329070D01*
X128446103Y-54168845D01*
X128525031Y-54021180D01*
X128631251Y-53891751D01*
X128760680Y-53785531D01*
X128908345Y-53706603D01*
X129068570Y-53657999D01*
X129193448Y-53645700D01*
X129276952Y-53645700D01*
X129401830Y-53657999D01*
X129401830Y-53657999D01*
G37*
G36*
X126861830Y-53657999D02*
X127022055Y-53706603D01*
X127169720Y-53785531D01*
X127299149Y-53891751D01*
X127405369Y-54021180D01*
X127484297Y-54168845D01*
X127532901Y-54329070D01*
X127549312Y-54495700D01*
X127532901Y-54662330D01*
X127484297Y-54822555D01*
X127405369Y-54970220D01*
X127299149Y-55099649D01*
X127169720Y-55205869D01*
X127022055Y-55284797D01*
X126861830Y-55333401D01*
X126736952Y-55345700D01*
X126653448Y-55345700D01*
X126528570Y-55333401D01*
X126368345Y-55284797D01*
X126220680Y-55205869D01*
X126091251Y-55099649D01*
X125985031Y-54970220D01*
X125906103Y-54822555D01*
X125857499Y-54662330D01*
X125841088Y-54495700D01*
X125857499Y-54329070D01*
X125906103Y-54168845D01*
X125985031Y-54021180D01*
X126091251Y-53891751D01*
X126220680Y-53785531D01*
X126368345Y-53706603D01*
X126528570Y-53657999D01*
X126653448Y-53645700D01*
X126736952Y-53645700D01*
X126861830Y-53657999D01*
X126861830Y-53657999D01*
G37*
G36*
X138037830Y-53518299D02*
X138198055Y-53566903D01*
X138345720Y-53645831D01*
X138475149Y-53752051D01*
X138581369Y-53881480D01*
X138660297Y-54029145D01*
X138708901Y-54189370D01*
X138725312Y-54356000D01*
X138708901Y-54522630D01*
X138660297Y-54682855D01*
X138581369Y-54830520D01*
X138475149Y-54959949D01*
X138345720Y-55066169D01*
X138198055Y-55145097D01*
X138037830Y-55193701D01*
X137912952Y-55206000D01*
X137829448Y-55206000D01*
X137704570Y-55193701D01*
X137544345Y-55145097D01*
X137396680Y-55066169D01*
X137267251Y-54959949D01*
X137161031Y-54830520D01*
X137082103Y-54682855D01*
X137033499Y-54522630D01*
X137017088Y-54356000D01*
X137033499Y-54189370D01*
X137082103Y-54029145D01*
X137161031Y-53881480D01*
X137267251Y-53752051D01*
X137396680Y-53645831D01*
X137544345Y-53566903D01*
X137704570Y-53518299D01*
X137829448Y-53506000D01*
X137912952Y-53506000D01*
X138037830Y-53518299D01*
X138037830Y-53518299D01*
G37*
G36*
X172783639Y-51599916D02*
X172990986Y-51662815D01*
X172990988Y-51662816D01*
X173182084Y-51764958D01*
X173349581Y-51902419D01*
X173487042Y-52069916D01*
X173526028Y-52142855D01*
X173589185Y-52261014D01*
X173652084Y-52468361D01*
X173655613Y-52504189D01*
X173673322Y-52684000D01*
X173652084Y-52899638D01*
X173589184Y-53106988D01*
X173487042Y-53298084D01*
X173349581Y-53465581D01*
X173182084Y-53603042D01*
X173007386Y-53696419D01*
X172990986Y-53705185D01*
X172783639Y-53768084D01*
X172622038Y-53784000D01*
X170713962Y-53784000D01*
X170552361Y-53768084D01*
X170345014Y-53705185D01*
X170328614Y-53696419D01*
X170153916Y-53603042D01*
X169986419Y-53465581D01*
X169848958Y-53298084D01*
X169746816Y-53106988D01*
X169683916Y-52899638D01*
X169662678Y-52684000D01*
X169680387Y-52504189D01*
X169683916Y-52468361D01*
X169746815Y-52261014D01*
X169809972Y-52142855D01*
X169848958Y-52069916D01*
X169986419Y-51902419D01*
X170153916Y-51764958D01*
X170345012Y-51662816D01*
X170345014Y-51662815D01*
X170552361Y-51599916D01*
X170713962Y-51584000D01*
X172622038Y-51584000D01*
X172783639Y-51599916D01*
X172783639Y-51599916D01*
G37*
G36*
X126861830Y-51117999D02*
X127022055Y-51166603D01*
X127169720Y-51245531D01*
X127299149Y-51351751D01*
X127405369Y-51481180D01*
X127484297Y-51628845D01*
X127532901Y-51789070D01*
X127549312Y-51955700D01*
X127532901Y-52122330D01*
X127484297Y-52282555D01*
X127405369Y-52430220D01*
X127299149Y-52559649D01*
X127169720Y-52665869D01*
X127022055Y-52744797D01*
X126861830Y-52793401D01*
X126736952Y-52805700D01*
X126653448Y-52805700D01*
X126528570Y-52793401D01*
X126368345Y-52744797D01*
X126220680Y-52665869D01*
X126091251Y-52559649D01*
X125985031Y-52430220D01*
X125906103Y-52282555D01*
X125857499Y-52122330D01*
X125841088Y-51955700D01*
X125857499Y-51789070D01*
X125906103Y-51628845D01*
X125985031Y-51481180D01*
X126091251Y-51351751D01*
X126220680Y-51245531D01*
X126368345Y-51166603D01*
X126528570Y-51117999D01*
X126653448Y-51105700D01*
X126736952Y-51105700D01*
X126861830Y-51117999D01*
X126861830Y-51117999D01*
G37*
G36*
X114111030Y-51117999D02*
X114271255Y-51166603D01*
X114418920Y-51245531D01*
X114548349Y-51351751D01*
X114654569Y-51481180D01*
X114733497Y-51628845D01*
X114782101Y-51789070D01*
X114798512Y-51955700D01*
X114782101Y-52122330D01*
X114733497Y-52282555D01*
X114654569Y-52430220D01*
X114548349Y-52559649D01*
X114418920Y-52665869D01*
X114271255Y-52744797D01*
X114111030Y-52793401D01*
X113986152Y-52805700D01*
X113902648Y-52805700D01*
X113777770Y-52793401D01*
X113617545Y-52744797D01*
X113469880Y-52665869D01*
X113340451Y-52559649D01*
X113234231Y-52430220D01*
X113155303Y-52282555D01*
X113106699Y-52122330D01*
X113090288Y-51955700D01*
X113106699Y-51789070D01*
X113155303Y-51628845D01*
X113234231Y-51481180D01*
X113340451Y-51351751D01*
X113469880Y-51245531D01*
X113617545Y-51166603D01*
X113777770Y-51117999D01*
X113902648Y-51105700D01*
X113986152Y-51105700D01*
X114111030Y-51117999D01*
X114111030Y-51117999D01*
G37*
G36*
X130085200Y-52805700D02*
X128385200Y-52805700D01*
X128385200Y-51105700D01*
X130085200Y-51105700D01*
X130085200Y-52805700D01*
X130085200Y-52805700D01*
G37*
G36*
X119191030Y-51117999D02*
X119351255Y-51166603D01*
X119498920Y-51245531D01*
X119628349Y-51351751D01*
X119734569Y-51481180D01*
X119813497Y-51628845D01*
X119862101Y-51789070D01*
X119878512Y-51955700D01*
X119862101Y-52122330D01*
X119813497Y-52282555D01*
X119734569Y-52430220D01*
X119628349Y-52559649D01*
X119498920Y-52665869D01*
X119351255Y-52744797D01*
X119191030Y-52793401D01*
X119066152Y-52805700D01*
X118982648Y-52805700D01*
X118857770Y-52793401D01*
X118697545Y-52744797D01*
X118549880Y-52665869D01*
X118420451Y-52559649D01*
X118314231Y-52430220D01*
X118235303Y-52282555D01*
X118186699Y-52122330D01*
X118170288Y-51955700D01*
X118186699Y-51789070D01*
X118235303Y-51628845D01*
X118314231Y-51481180D01*
X118420451Y-51351751D01*
X118549880Y-51245531D01*
X118697545Y-51166603D01*
X118857770Y-51117999D01*
X118982648Y-51105700D01*
X119066152Y-51105700D01*
X119191030Y-51117999D01*
X119191030Y-51117999D01*
G37*
G36*
X112254400Y-52805700D02*
X110554400Y-52805700D01*
X110554400Y-51105700D01*
X112254400Y-51105700D01*
X112254400Y-52805700D01*
X112254400Y-52805700D01*
G37*
G36*
X116651030Y-51117999D02*
X116811255Y-51166603D01*
X116958920Y-51245531D01*
X117088349Y-51351751D01*
X117194569Y-51481180D01*
X117273497Y-51628845D01*
X117322101Y-51789070D01*
X117338512Y-51955700D01*
X117322101Y-52122330D01*
X117273497Y-52282555D01*
X117194569Y-52430220D01*
X117088349Y-52559649D01*
X116958920Y-52665869D01*
X116811255Y-52744797D01*
X116651030Y-52793401D01*
X116526152Y-52805700D01*
X116442648Y-52805700D01*
X116317770Y-52793401D01*
X116157545Y-52744797D01*
X116009880Y-52665869D01*
X115880451Y-52559649D01*
X115774231Y-52430220D01*
X115695303Y-52282555D01*
X115646699Y-52122330D01*
X115630288Y-51955700D01*
X115646699Y-51789070D01*
X115695303Y-51628845D01*
X115774231Y-51481180D01*
X115880451Y-51351751D01*
X116009880Y-51245531D01*
X116157545Y-51166603D01*
X116317770Y-51117999D01*
X116442648Y-51105700D01*
X116526152Y-51105700D01*
X116651030Y-51117999D01*
X116651030Y-51117999D01*
G37*
G36*
X138037830Y-50978299D02*
X138198055Y-51026903D01*
X138345720Y-51105831D01*
X138475149Y-51212051D01*
X138581369Y-51341480D01*
X138660297Y-51489145D01*
X138708901Y-51649370D01*
X138725312Y-51816000D01*
X138708901Y-51982630D01*
X138660297Y-52142855D01*
X138581369Y-52290520D01*
X138475149Y-52419949D01*
X138345720Y-52526169D01*
X138198055Y-52605097D01*
X138037830Y-52653701D01*
X137912952Y-52666000D01*
X137829448Y-52666000D01*
X137704570Y-52653701D01*
X137544345Y-52605097D01*
X137396680Y-52526169D01*
X137267251Y-52419949D01*
X137161031Y-52290520D01*
X137082103Y-52142855D01*
X137033499Y-51982630D01*
X137017088Y-51816000D01*
X137033499Y-51649370D01*
X137082103Y-51489145D01*
X137161031Y-51341480D01*
X137267251Y-51212051D01*
X137396680Y-51105831D01*
X137544345Y-51026903D01*
X137704570Y-50978299D01*
X137829448Y-50966000D01*
X137912952Y-50966000D01*
X138037830Y-50978299D01*
X138037830Y-50978299D01*
G37*
G36*
X159859452Y-50196419D02*
X160077838Y-50286877D01*
X160274384Y-50418205D01*
X160441525Y-50585346D01*
X160572853Y-50781892D01*
X160663311Y-51000278D01*
X160709426Y-51232113D01*
X160709426Y-51468495D01*
X160663311Y-51700330D01*
X160572853Y-51918716D01*
X160441525Y-52115262D01*
X160274384Y-52282403D01*
X160077838Y-52413731D01*
X159859452Y-52504189D01*
X159627617Y-52550304D01*
X159391235Y-52550304D01*
X159159400Y-52504189D01*
X158941014Y-52413731D01*
X158744468Y-52282403D01*
X158577327Y-52115262D01*
X158445999Y-51918716D01*
X158355541Y-51700330D01*
X158309426Y-51468495D01*
X158309426Y-51232113D01*
X158355541Y-51000278D01*
X158445999Y-50781892D01*
X158577327Y-50585346D01*
X158744468Y-50418205D01*
X158941014Y-50286877D01*
X159159400Y-50196419D01*
X159391235Y-50150304D01*
X159627617Y-50150304D01*
X159859452Y-50196419D01*
X159859452Y-50196419D01*
G37*
G36*
X138037830Y-48438299D02*
X138198055Y-48486903D01*
X138345720Y-48565831D01*
X138475149Y-48672051D01*
X138581369Y-48801480D01*
X138660297Y-48949145D01*
X138708901Y-49109370D01*
X138725312Y-49276000D01*
X138708901Y-49442630D01*
X138660297Y-49602855D01*
X138581369Y-49750520D01*
X138475149Y-49879949D01*
X138345720Y-49986169D01*
X138198055Y-50065097D01*
X138037830Y-50113701D01*
X137912952Y-50126000D01*
X137829448Y-50126000D01*
X137704570Y-50113701D01*
X137544345Y-50065097D01*
X137396680Y-49986169D01*
X137267251Y-49879949D01*
X137161031Y-49750520D01*
X137082103Y-49602855D01*
X137033499Y-49442630D01*
X137017088Y-49276000D01*
X137033499Y-49109370D01*
X137082103Y-48949145D01*
X137161031Y-48801480D01*
X137267251Y-48672051D01*
X137396680Y-48565831D01*
X137544345Y-48486903D01*
X137704570Y-48438299D01*
X137829448Y-48426000D01*
X137912952Y-48426000D01*
X138037830Y-48438299D01*
X138037830Y-48438299D01*
G37*
G36*
X159859452Y-46696419D02*
X160077838Y-46786877D01*
X160274384Y-46918205D01*
X160441525Y-47085346D01*
X160572853Y-47281892D01*
X160663311Y-47500278D01*
X160709426Y-47732113D01*
X160709426Y-47968495D01*
X160663311Y-48200330D01*
X160572853Y-48418716D01*
X160441525Y-48615262D01*
X160274384Y-48782403D01*
X160077838Y-48913731D01*
X159859452Y-49004189D01*
X159627617Y-49050304D01*
X159391235Y-49050304D01*
X159159400Y-49004189D01*
X158941014Y-48913731D01*
X158744468Y-48782403D01*
X158577327Y-48615262D01*
X158445999Y-48418716D01*
X158355541Y-48200330D01*
X158309426Y-47968495D01*
X158309426Y-47732113D01*
X158355541Y-47500278D01*
X158445999Y-47281892D01*
X158577327Y-47085346D01*
X158744468Y-46918205D01*
X158941014Y-46786877D01*
X159159400Y-46696419D01*
X159391235Y-46650304D01*
X159627617Y-46650304D01*
X159859452Y-46696419D01*
X159859452Y-46696419D01*
G37*
G36*
X117719000Y-48408400D02*
X116469000Y-48408400D01*
X116469000Y-47408400D01*
X117719000Y-47408400D01*
X117719000Y-48408400D01*
X117719000Y-48408400D01*
G37*
G36*
X138037830Y-45898299D02*
X138198055Y-45946903D01*
X138345720Y-46025831D01*
X138475149Y-46132051D01*
X138581369Y-46261480D01*
X138660297Y-46409145D01*
X138708901Y-46569370D01*
X138725312Y-46736000D01*
X138708901Y-46902630D01*
X138660297Y-47062855D01*
X138581369Y-47210520D01*
X138475149Y-47339949D01*
X138345720Y-47446169D01*
X138198055Y-47525097D01*
X138037830Y-47573701D01*
X137912952Y-47586000D01*
X137829448Y-47586000D01*
X137704570Y-47573701D01*
X137544345Y-47525097D01*
X137396680Y-47446169D01*
X137267251Y-47339949D01*
X137161031Y-47210520D01*
X137082103Y-47062855D01*
X137033499Y-46902630D01*
X137017088Y-46736000D01*
X137033499Y-46569370D01*
X137082103Y-46409145D01*
X137161031Y-46261480D01*
X137267251Y-46132051D01*
X137396680Y-46025831D01*
X137544345Y-45946903D01*
X137704570Y-45898299D01*
X137829448Y-45886000D01*
X137912952Y-45886000D01*
X138037830Y-45898299D01*
X138037830Y-45898299D01*
G37*
G36*
X117719000Y-46408400D02*
X116469000Y-46408400D01*
X116469000Y-45408400D01*
X117719000Y-45408400D01*
X117719000Y-46408400D01*
X117719000Y-46408400D01*
G37*
G36*
X174708015Y-44265668D02*
X174839049Y-44319944D01*
X174956975Y-44398740D01*
X175057260Y-44499025D01*
X175136056Y-44616951D01*
X175190332Y-44747985D01*
X175218000Y-44887085D01*
X175218000Y-45028915D01*
X175190332Y-45168015D01*
X175136056Y-45299049D01*
X175057260Y-45416975D01*
X174956975Y-45517260D01*
X174839049Y-45596056D01*
X174708015Y-45650332D01*
X174568915Y-45678000D01*
X174427085Y-45678000D01*
X174287985Y-45650332D01*
X174156951Y-45596056D01*
X174039025Y-45517260D01*
X173938740Y-45416975D01*
X173859944Y-45299049D01*
X173805668Y-45168015D01*
X173778000Y-45028915D01*
X173778000Y-44887085D01*
X173805668Y-44747985D01*
X173859944Y-44616951D01*
X173938740Y-44499025D01*
X174039025Y-44398740D01*
X174156951Y-44319944D01*
X174287985Y-44265668D01*
X174427085Y-44238000D01*
X174568915Y-44238000D01*
X174708015Y-44265668D01*
X174708015Y-44265668D01*
G37*
G36*
X164759800Y-45254800D02*
X163509800Y-45254800D01*
X163509800Y-44254800D01*
X164759800Y-44254800D01*
X164759800Y-45254800D01*
X164759800Y-45254800D01*
G37*
G36*
X138037830Y-43358299D02*
X138198055Y-43406903D01*
X138345720Y-43485831D01*
X138475149Y-43592051D01*
X138581369Y-43721480D01*
X138660297Y-43869145D01*
X138708901Y-44029370D01*
X138725312Y-44196000D01*
X138708901Y-44362630D01*
X138660297Y-44522855D01*
X138581369Y-44670520D01*
X138475149Y-44799949D01*
X138345720Y-44906169D01*
X138198055Y-44985097D01*
X138037830Y-45033701D01*
X137912952Y-45046000D01*
X137829448Y-45046000D01*
X137704570Y-45033701D01*
X137544345Y-44985097D01*
X137396680Y-44906169D01*
X137267251Y-44799949D01*
X137161031Y-44670520D01*
X137082103Y-44522855D01*
X137033499Y-44362630D01*
X137017088Y-44196000D01*
X137033499Y-44029370D01*
X137082103Y-43869145D01*
X137161031Y-43721480D01*
X137267251Y-43592051D01*
X137396680Y-43485831D01*
X137544345Y-43406903D01*
X137704570Y-43358299D01*
X137829448Y-43346000D01*
X137912952Y-43346000D01*
X138037830Y-43358299D01*
X138037830Y-43358299D01*
G37*
G36*
X164759800Y-43254800D02*
X163509800Y-43254800D01*
X163509800Y-42254800D01*
X164759800Y-42254800D01*
X164759800Y-43254800D01*
X164759800Y-43254800D01*
G37*
G36*
X177248015Y-41725668D02*
X177379049Y-41779944D01*
X177496975Y-41858740D01*
X177597260Y-41959025D01*
X177676056Y-42076951D01*
X177730332Y-42207985D01*
X177758000Y-42347085D01*
X177758000Y-42488915D01*
X177730332Y-42628015D01*
X177676056Y-42759049D01*
X177597260Y-42876975D01*
X177496975Y-42977260D01*
X177379049Y-43056056D01*
X177248015Y-43110332D01*
X177108915Y-43138000D01*
X176967085Y-43138000D01*
X176827985Y-43110332D01*
X176696951Y-43056056D01*
X176579025Y-42977260D01*
X176478740Y-42876975D01*
X176399944Y-42759049D01*
X176345668Y-42628015D01*
X176318000Y-42488915D01*
X176318000Y-42347085D01*
X176345668Y-42207985D01*
X176399944Y-42076951D01*
X176478740Y-41959025D01*
X176579025Y-41858740D01*
X176696951Y-41779944D01*
X176827985Y-41725668D01*
X176967085Y-41698000D01*
X177108915Y-41698000D01*
X177248015Y-41725668D01*
X177248015Y-41725668D01*
G37*
G36*
X174708015Y-39185668D02*
X174839049Y-39239944D01*
X174956975Y-39318740D01*
X175057260Y-39419025D01*
X175136056Y-39536951D01*
X175190332Y-39667985D01*
X175218000Y-39807085D01*
X175218000Y-39948915D01*
X175190332Y-40088015D01*
X175136056Y-40219049D01*
X175057260Y-40336975D01*
X174956975Y-40437260D01*
X174839049Y-40516056D01*
X174708015Y-40570332D01*
X174568915Y-40598000D01*
X174427085Y-40598000D01*
X174287985Y-40570332D01*
X174156951Y-40516056D01*
X174039025Y-40437260D01*
X173938740Y-40336975D01*
X173859944Y-40219049D01*
X173805668Y-40088015D01*
X173778000Y-39948915D01*
X173778000Y-39807085D01*
X173805668Y-39667985D01*
X173859944Y-39536951D01*
X173938740Y-39419025D01*
X174039025Y-39318740D01*
X174156951Y-39239944D01*
X174287985Y-39185668D01*
X174427085Y-39158000D01*
X174568915Y-39158000D01*
X174708015Y-39185668D01*
X174708015Y-39185668D01*
G37*
G36*
X179314935Y-34136529D02*
X179411534Y-34155744D01*
X179684517Y-34268817D01*
X179747832Y-34311123D01*
X179930197Y-34432976D01*
X180139124Y-34641903D01*
X180139126Y-34641906D01*
X180303283Y-34887583D01*
X180416356Y-35160566D01*
X180474000Y-35450363D01*
X180474000Y-35745837D01*
X180416356Y-36035634D01*
X180303283Y-36308617D01*
X180279516Y-36344186D01*
X180139124Y-36554297D01*
X179930197Y-36763224D01*
X179930194Y-36763226D01*
X179684517Y-36927383D01*
X179411534Y-37040456D01*
X179314935Y-37059671D01*
X179121739Y-37098100D01*
X178826261Y-37098100D01*
X178633065Y-37059671D01*
X178536466Y-37040456D01*
X178263483Y-36927383D01*
X178017806Y-36763226D01*
X178017803Y-36763224D01*
X177808876Y-36554297D01*
X177668484Y-36344186D01*
X177644717Y-36308617D01*
X177531644Y-36035634D01*
X177474000Y-35745837D01*
X177474000Y-35450363D01*
X177531644Y-35160566D01*
X177644717Y-34887583D01*
X177808874Y-34641906D01*
X177808876Y-34641903D01*
X178017803Y-34432976D01*
X178200168Y-34311123D01*
X178263483Y-34268817D01*
X178536466Y-34155744D01*
X178633065Y-34136529D01*
X178826261Y-34098100D01*
X179121739Y-34098100D01*
X179314935Y-34136529D01*
X179314935Y-34136529D01*
G37*
G36*
X124890431Y-34311122D02*
X125060076Y-34362584D01*
X125216436Y-34446159D01*
X125353475Y-34558625D01*
X125465944Y-34695667D01*
X125549515Y-34852019D01*
X125600978Y-35021668D01*
X125614000Y-35153889D01*
X125614000Y-36042310D01*
X125600978Y-36174526D01*
X125600977Y-36174528D01*
X125600977Y-36174531D01*
X125560302Y-36308617D01*
X125549512Y-36344186D01*
X125465944Y-36500533D01*
X125353475Y-36637575D01*
X125216433Y-36750044D01*
X125060081Y-36833615D01*
X124890432Y-36885078D01*
X124714000Y-36902454D01*
X124537569Y-36885078D01*
X124367920Y-36833615D01*
X124211568Y-36750044D01*
X124074526Y-36637575D01*
X123962057Y-36500533D01*
X123878486Y-36344181D01*
X123827023Y-36174532D01*
X123814000Y-36042310D01*
X123814000Y-35153890D01*
X123827022Y-35021669D01*
X123878484Y-34852024D01*
X123962059Y-34695664D01*
X124074525Y-34558625D01*
X124211567Y-34446156D01*
X124367919Y-34362585D01*
X124537568Y-34311122D01*
X124714000Y-34293746D01*
X124890431Y-34311122D01*
X124890431Y-34311122D01*
G37*
G36*
X145210431Y-34311122D02*
X145380076Y-34362584D01*
X145536436Y-34446159D01*
X145673475Y-34558625D01*
X145785944Y-34695667D01*
X145869515Y-34852019D01*
X145920978Y-35021668D01*
X145934000Y-35153889D01*
X145934000Y-36042310D01*
X145920978Y-36174526D01*
X145920977Y-36174528D01*
X145920977Y-36174531D01*
X145880302Y-36308617D01*
X145869512Y-36344186D01*
X145785944Y-36500533D01*
X145673475Y-36637575D01*
X145536433Y-36750044D01*
X145380081Y-36833615D01*
X145210432Y-36885078D01*
X145034000Y-36902454D01*
X144857569Y-36885078D01*
X144687920Y-36833615D01*
X144531568Y-36750044D01*
X144394526Y-36637575D01*
X144282057Y-36500533D01*
X144198486Y-36344181D01*
X144147023Y-36174532D01*
X144134000Y-36042310D01*
X144134000Y-35153890D01*
X144147022Y-35021669D01*
X144198484Y-34852024D01*
X144282059Y-34695664D01*
X144394525Y-34558625D01*
X144531567Y-34446156D01*
X144687919Y-34362585D01*
X144857568Y-34311122D01*
X145034000Y-34293746D01*
X145210431Y-34311122D01*
X145210431Y-34311122D01*
G37*
G36*
X142670431Y-34311122D02*
X142840076Y-34362584D01*
X142996436Y-34446159D01*
X143133475Y-34558625D01*
X143245944Y-34695667D01*
X143329515Y-34852019D01*
X143380978Y-35021668D01*
X143394000Y-35153889D01*
X143394000Y-36042310D01*
X143380978Y-36174526D01*
X143380977Y-36174528D01*
X143380977Y-36174531D01*
X143340302Y-36308617D01*
X143329512Y-36344186D01*
X143245944Y-36500533D01*
X143133475Y-36637575D01*
X142996433Y-36750044D01*
X142840081Y-36833615D01*
X142670432Y-36885078D01*
X142494000Y-36902454D01*
X142317569Y-36885078D01*
X142147920Y-36833615D01*
X141991568Y-36750044D01*
X141854526Y-36637575D01*
X141742057Y-36500533D01*
X141658486Y-36344181D01*
X141607023Y-36174532D01*
X141594000Y-36042310D01*
X141594000Y-35153890D01*
X141607022Y-35021669D01*
X141658484Y-34852024D01*
X141742059Y-34695664D01*
X141854525Y-34558625D01*
X141991567Y-34446156D01*
X142147919Y-34362585D01*
X142317568Y-34311122D01*
X142494000Y-34293746D01*
X142670431Y-34311122D01*
X142670431Y-34311122D01*
G37*
G36*
X140130431Y-34311122D02*
X140300076Y-34362584D01*
X140456436Y-34446159D01*
X140593475Y-34558625D01*
X140705944Y-34695667D01*
X140789515Y-34852019D01*
X140840978Y-35021668D01*
X140854000Y-35153889D01*
X140854000Y-36042310D01*
X140840978Y-36174526D01*
X140840977Y-36174528D01*
X140840977Y-36174531D01*
X140800302Y-36308617D01*
X140789512Y-36344186D01*
X140705944Y-36500533D01*
X140593475Y-36637575D01*
X140456433Y-36750044D01*
X140300081Y-36833615D01*
X140130432Y-36885078D01*
X139954000Y-36902454D01*
X139777569Y-36885078D01*
X139607920Y-36833615D01*
X139451568Y-36750044D01*
X139314526Y-36637575D01*
X139202057Y-36500533D01*
X139118486Y-36344181D01*
X139067023Y-36174532D01*
X139054000Y-36042310D01*
X139054000Y-35153890D01*
X139067022Y-35021669D01*
X139118484Y-34852024D01*
X139202059Y-34695664D01*
X139314525Y-34558625D01*
X139451567Y-34446156D01*
X139607919Y-34362585D01*
X139777568Y-34311122D01*
X139954000Y-34293746D01*
X140130431Y-34311122D01*
X140130431Y-34311122D01*
G37*
G36*
X137590431Y-34311122D02*
X137760076Y-34362584D01*
X137916436Y-34446159D01*
X138053475Y-34558625D01*
X138165944Y-34695667D01*
X138249515Y-34852019D01*
X138300978Y-35021668D01*
X138314000Y-35153889D01*
X138314000Y-36042310D01*
X138300978Y-36174526D01*
X138300977Y-36174528D01*
X138300977Y-36174531D01*
X138260302Y-36308617D01*
X138249512Y-36344186D01*
X138165944Y-36500533D01*
X138053475Y-36637575D01*
X137916433Y-36750044D01*
X137760081Y-36833615D01*
X137590432Y-36885078D01*
X137414000Y-36902454D01*
X137237569Y-36885078D01*
X137067920Y-36833615D01*
X136911568Y-36750044D01*
X136774526Y-36637575D01*
X136662057Y-36500533D01*
X136578486Y-36344181D01*
X136527023Y-36174532D01*
X136514000Y-36042310D01*
X136514000Y-35153890D01*
X136527022Y-35021669D01*
X136578484Y-34852024D01*
X136662059Y-34695664D01*
X136774525Y-34558625D01*
X136911567Y-34446156D01*
X137067919Y-34362585D01*
X137237568Y-34311122D01*
X137414000Y-34293746D01*
X137590431Y-34311122D01*
X137590431Y-34311122D01*
G37*
G36*
X135050431Y-34311122D02*
X135220076Y-34362584D01*
X135376436Y-34446159D01*
X135513475Y-34558625D01*
X135625944Y-34695667D01*
X135709515Y-34852019D01*
X135760978Y-35021668D01*
X135774000Y-35153889D01*
X135774000Y-36042310D01*
X135760978Y-36174526D01*
X135760977Y-36174528D01*
X135760977Y-36174531D01*
X135720302Y-36308617D01*
X135709512Y-36344186D01*
X135625944Y-36500533D01*
X135513475Y-36637575D01*
X135376433Y-36750044D01*
X135220081Y-36833615D01*
X135050432Y-36885078D01*
X134874000Y-36902454D01*
X134697569Y-36885078D01*
X134527920Y-36833615D01*
X134371568Y-36750044D01*
X134234526Y-36637575D01*
X134122057Y-36500533D01*
X134038486Y-36344181D01*
X133987023Y-36174532D01*
X133974000Y-36042310D01*
X133974000Y-35153890D01*
X133987022Y-35021669D01*
X134038484Y-34852024D01*
X134122059Y-34695664D01*
X134234525Y-34558625D01*
X134371567Y-34446156D01*
X134527919Y-34362585D01*
X134697568Y-34311122D01*
X134874000Y-34293746D01*
X135050431Y-34311122D01*
X135050431Y-34311122D01*
G37*
G36*
X132510431Y-34311122D02*
X132680076Y-34362584D01*
X132836436Y-34446159D01*
X132973475Y-34558625D01*
X133085944Y-34695667D01*
X133169515Y-34852019D01*
X133220978Y-35021668D01*
X133234000Y-35153889D01*
X133234000Y-36042310D01*
X133220978Y-36174526D01*
X133220977Y-36174528D01*
X133220977Y-36174531D01*
X133180302Y-36308617D01*
X133169512Y-36344186D01*
X133085944Y-36500533D01*
X132973475Y-36637575D01*
X132836433Y-36750044D01*
X132680081Y-36833615D01*
X132510432Y-36885078D01*
X132334000Y-36902454D01*
X132157569Y-36885078D01*
X131987920Y-36833615D01*
X131831568Y-36750044D01*
X131694526Y-36637575D01*
X131582057Y-36500533D01*
X131498486Y-36344181D01*
X131447023Y-36174532D01*
X131434000Y-36042310D01*
X131434000Y-35153890D01*
X131447022Y-35021669D01*
X131498484Y-34852024D01*
X131582059Y-34695664D01*
X131694525Y-34558625D01*
X131831567Y-34446156D01*
X131987919Y-34362585D01*
X132157568Y-34311122D01*
X132334000Y-34293746D01*
X132510431Y-34311122D01*
X132510431Y-34311122D01*
G37*
G36*
X129970431Y-34311122D02*
X130140076Y-34362584D01*
X130296436Y-34446159D01*
X130433475Y-34558625D01*
X130545944Y-34695667D01*
X130629515Y-34852019D01*
X130680978Y-35021668D01*
X130694000Y-35153889D01*
X130694000Y-36042310D01*
X130680978Y-36174526D01*
X130680977Y-36174528D01*
X130680977Y-36174531D01*
X130640302Y-36308617D01*
X130629512Y-36344186D01*
X130545944Y-36500533D01*
X130433475Y-36637575D01*
X130296433Y-36750044D01*
X130140081Y-36833615D01*
X129970432Y-36885078D01*
X129794000Y-36902454D01*
X129617569Y-36885078D01*
X129447920Y-36833615D01*
X129291568Y-36750044D01*
X129154526Y-36637575D01*
X129042057Y-36500533D01*
X128958486Y-36344181D01*
X128907023Y-36174532D01*
X128894000Y-36042310D01*
X128894000Y-35153890D01*
X128907022Y-35021669D01*
X128958484Y-34852024D01*
X129042059Y-34695664D01*
X129154525Y-34558625D01*
X129291567Y-34446156D01*
X129447919Y-34362585D01*
X129617568Y-34311122D01*
X129794000Y-34293746D01*
X129970431Y-34311122D01*
X129970431Y-34311122D01*
G37*
G36*
X127430431Y-34311122D02*
X127600076Y-34362584D01*
X127756436Y-34446159D01*
X127893475Y-34558625D01*
X128005944Y-34695667D01*
X128089515Y-34852019D01*
X128140978Y-35021668D01*
X128154000Y-35153889D01*
X128154000Y-36042310D01*
X128140978Y-36174526D01*
X128140977Y-36174528D01*
X128140977Y-36174531D01*
X128100302Y-36308617D01*
X128089512Y-36344186D01*
X128005944Y-36500533D01*
X127893475Y-36637575D01*
X127756433Y-36750044D01*
X127600081Y-36833615D01*
X127430432Y-36885078D01*
X127254000Y-36902454D01*
X127077569Y-36885078D01*
X126907920Y-36833615D01*
X126751568Y-36750044D01*
X126614526Y-36637575D01*
X126502057Y-36500533D01*
X126418486Y-36344181D01*
X126367023Y-36174532D01*
X126354000Y-36042310D01*
X126354000Y-35153890D01*
X126367022Y-35021669D01*
X126418484Y-34852024D01*
X126502059Y-34695664D01*
X126614525Y-34558625D01*
X126751567Y-34446156D01*
X126907919Y-34362585D01*
X127077568Y-34311122D01*
X127254000Y-34293746D01*
X127430431Y-34311122D01*
X127430431Y-34311122D01*
G37*
G36*
X122350431Y-34311122D02*
X122520076Y-34362584D01*
X122676436Y-34446159D01*
X122813475Y-34558625D01*
X122925944Y-34695667D01*
X123009515Y-34852019D01*
X123060978Y-35021668D01*
X123074000Y-35153889D01*
X123074000Y-36042310D01*
X123060978Y-36174526D01*
X123060977Y-36174528D01*
X123060977Y-36174531D01*
X123020302Y-36308617D01*
X123009512Y-36344186D01*
X122925944Y-36500533D01*
X122813475Y-36637575D01*
X122676433Y-36750044D01*
X122520081Y-36833615D01*
X122350432Y-36885078D01*
X122174000Y-36902454D01*
X121997569Y-36885078D01*
X121827920Y-36833615D01*
X121671568Y-36750044D01*
X121534526Y-36637575D01*
X121422057Y-36500533D01*
X121338486Y-36344181D01*
X121287023Y-36174532D01*
X121274000Y-36042310D01*
X121274000Y-35153890D01*
X121287022Y-35021669D01*
X121338484Y-34852024D01*
X121422059Y-34695664D01*
X121534525Y-34558625D01*
X121671567Y-34446156D01*
X121827919Y-34362585D01*
X121997568Y-34311122D01*
X122174000Y-34293746D01*
X122350431Y-34311122D01*
X122350431Y-34311122D01*
G37*
G36*
X119810431Y-34311122D02*
X119980076Y-34362584D01*
X120136436Y-34446159D01*
X120273475Y-34558625D01*
X120385944Y-34695667D01*
X120469515Y-34852019D01*
X120520978Y-35021668D01*
X120534000Y-35153889D01*
X120534000Y-36042310D01*
X120520978Y-36174526D01*
X120520977Y-36174528D01*
X120520977Y-36174531D01*
X120480302Y-36308617D01*
X120469512Y-36344186D01*
X120385944Y-36500533D01*
X120273475Y-36637575D01*
X120136433Y-36750044D01*
X119980081Y-36833615D01*
X119810432Y-36885078D01*
X119634000Y-36902454D01*
X119457569Y-36885078D01*
X119287920Y-36833615D01*
X119131568Y-36750044D01*
X118994526Y-36637575D01*
X118882057Y-36500533D01*
X118798486Y-36344181D01*
X118747023Y-36174532D01*
X118734000Y-36042310D01*
X118734000Y-35153890D01*
X118747022Y-35021669D01*
X118798484Y-34852024D01*
X118882059Y-34695664D01*
X118994525Y-34558625D01*
X119131567Y-34446156D01*
X119287919Y-34362585D01*
X119457568Y-34311122D01*
X119634000Y-34293746D01*
X119810431Y-34311122D01*
X119810431Y-34311122D01*
G37*
G36*
X117270431Y-34311122D02*
X117440076Y-34362584D01*
X117596436Y-34446159D01*
X117733475Y-34558625D01*
X117845944Y-34695667D01*
X117929515Y-34852019D01*
X117980978Y-35021668D01*
X117994000Y-35153889D01*
X117994000Y-36042310D01*
X117980978Y-36174526D01*
X117980977Y-36174528D01*
X117980977Y-36174531D01*
X117940302Y-36308617D01*
X117929512Y-36344186D01*
X117845944Y-36500533D01*
X117733475Y-36637575D01*
X117596433Y-36750044D01*
X117440081Y-36833615D01*
X117270432Y-36885078D01*
X117094000Y-36902454D01*
X116917569Y-36885078D01*
X116747920Y-36833615D01*
X116591568Y-36750044D01*
X116454526Y-36637575D01*
X116342057Y-36500533D01*
X116258486Y-36344181D01*
X116207023Y-36174532D01*
X116194000Y-36042310D01*
X116194000Y-35153890D01*
X116207022Y-35021669D01*
X116258484Y-34852024D01*
X116342059Y-34695664D01*
X116454525Y-34558625D01*
X116591567Y-34446156D01*
X116747919Y-34362585D01*
X116917568Y-34311122D01*
X117094000Y-34293746D01*
X117270431Y-34311122D01*
X117270431Y-34311122D01*
G37*
G36*
X112190431Y-34311122D02*
X112360076Y-34362584D01*
X112516436Y-34446159D01*
X112653475Y-34558625D01*
X112765944Y-34695667D01*
X112849515Y-34852019D01*
X112900978Y-35021668D01*
X112914000Y-35153889D01*
X112914000Y-36042310D01*
X112900978Y-36174526D01*
X112900977Y-36174528D01*
X112900977Y-36174531D01*
X112860302Y-36308617D01*
X112849512Y-36344186D01*
X112765944Y-36500533D01*
X112653475Y-36637575D01*
X112516433Y-36750044D01*
X112360081Y-36833615D01*
X112190432Y-36885078D01*
X112014000Y-36902454D01*
X111837569Y-36885078D01*
X111667920Y-36833615D01*
X111511568Y-36750044D01*
X111374526Y-36637575D01*
X111262057Y-36500533D01*
X111178486Y-36344181D01*
X111127023Y-36174532D01*
X111114000Y-36042310D01*
X111114000Y-35153890D01*
X111127022Y-35021669D01*
X111178484Y-34852024D01*
X111262059Y-34695664D01*
X111374525Y-34558625D01*
X111511567Y-34446156D01*
X111667919Y-34362585D01*
X111837568Y-34311122D01*
X112014000Y-34293746D01*
X112190431Y-34311122D01*
X112190431Y-34311122D01*
G37*
G36*
X114730431Y-34311122D02*
X114900076Y-34362584D01*
X115056436Y-34446159D01*
X115193475Y-34558625D01*
X115305944Y-34695667D01*
X115389515Y-34852019D01*
X115440978Y-35021668D01*
X115454000Y-35153889D01*
X115454000Y-36042310D01*
X115440978Y-36174526D01*
X115440977Y-36174528D01*
X115440977Y-36174531D01*
X115400302Y-36308617D01*
X115389512Y-36344186D01*
X115305944Y-36500533D01*
X115193475Y-36637575D01*
X115056433Y-36750044D01*
X114900081Y-36833615D01*
X114730432Y-36885078D01*
X114554000Y-36902454D01*
X114377569Y-36885078D01*
X114207920Y-36833615D01*
X114051568Y-36750044D01*
X113914526Y-36637575D01*
X113802057Y-36500533D01*
X113718486Y-36344181D01*
X113667023Y-36174532D01*
X113654000Y-36042310D01*
X113654000Y-35153890D01*
X113667022Y-35021669D01*
X113718484Y-34852024D01*
X113802059Y-34695664D01*
X113914525Y-34558625D01*
X114051567Y-34446156D01*
X114207919Y-34362585D01*
X114377568Y-34311122D01*
X114554000Y-34293746D01*
X114730431Y-34311122D01*
X114730431Y-34311122D01*
G37*
G36*
X147750431Y-34311122D02*
X147920076Y-34362584D01*
X148076436Y-34446159D01*
X148213475Y-34558625D01*
X148325944Y-34695667D01*
X148409515Y-34852019D01*
X148460978Y-35021668D01*
X148474000Y-35153889D01*
X148474000Y-36042310D01*
X148460978Y-36174526D01*
X148460977Y-36174528D01*
X148460977Y-36174531D01*
X148420302Y-36308617D01*
X148409512Y-36344186D01*
X148325944Y-36500533D01*
X148213475Y-36637575D01*
X148076433Y-36750044D01*
X147920081Y-36833615D01*
X147750432Y-36885078D01*
X147574000Y-36902454D01*
X147397569Y-36885078D01*
X147227920Y-36833615D01*
X147071568Y-36750044D01*
X146934526Y-36637575D01*
X146822057Y-36500533D01*
X146738486Y-36344181D01*
X146687023Y-36174532D01*
X146674000Y-36042310D01*
X146674000Y-35153890D01*
X146687022Y-35021669D01*
X146738484Y-34852024D01*
X146822059Y-34695664D01*
X146934525Y-34558625D01*
X147071567Y-34446156D01*
X147227919Y-34362585D01*
X147397568Y-34311122D01*
X147574000Y-34293746D01*
X147750431Y-34311122D01*
X147750431Y-34311122D01*
G37*
G36*
X110374000Y-36898100D02*
X108574000Y-36898100D01*
X108574000Y-34298100D01*
X110374000Y-34298100D01*
X110374000Y-36898100D01*
X110374000Y-36898100D01*
G37*
M02*
