G04 #@! TF.GenerationSoftware,KiCad,Pcbnew,5.0.2-bee76a0~70~ubuntu18.04.1*
G04 #@! TF.CreationDate,2019-05-13T15:11:37-07:00*
G04 #@! TF.ProjectId,Half_Shield,48616c66-5f53-4686-9965-6c642e6b6963,rev?*
G04 #@! TF.SameCoordinates,Original*
G04 #@! TF.FileFunction,Copper,L1,Top*
G04 #@! TF.FilePolarity,Positive*
%FSLAX46Y46*%
G04 Gerber Fmt 4.6, Leading zero omitted, Abs format (unit mm)*
G04 Created by KiCad (PCBNEW 5.0.2-bee76a0~70~ubuntu18.04.1) date Mon 13 May 2019 03:11:37 PM PDT*
%MOMM*%
%LPD*%
G01*
G04 APERTURE LIST*
G04 #@! TA.AperFunction,SMDPad,CuDef*
%ADD10R,0.590000X1.250000*%
G04 #@! TD*
G04 #@! TA.AperFunction,ComponentPad*
%ADD11R,1.700000X1.700000*%
G04 #@! TD*
G04 #@! TA.AperFunction,ComponentPad*
%ADD12R,1.800000X2.600000*%
G04 #@! TD*
G04 #@! TA.AperFunction,ComponentPad*
%ADD13O,1.800000X2.600000*%
G04 #@! TD*
G04 #@! TA.AperFunction,ComponentPad*
%ADD14C,3.000000*%
G04 #@! TD*
G04 #@! TA.AperFunction,ComponentPad*
%ADD15O,1.700000X1.700000*%
G04 #@! TD*
G04 #@! TA.AperFunction,ComponentPad*
%ADD16C,2.400000*%
G04 #@! TD*
G04 #@! TA.AperFunction,ComponentPad*
%ADD17R,2.400000X2.400000*%
G04 #@! TD*
G04 #@! TA.AperFunction,ComponentPad*
%ADD18O,4.000000X2.200000*%
G04 #@! TD*
G04 #@! TA.AperFunction,ComponentPad*
%ADD19O,2.200000X4.000000*%
G04 #@! TD*
G04 #@! TA.AperFunction,ComponentPad*
%ADD20C,3.500000*%
G04 #@! TD*
G04 #@! TA.AperFunction,ComponentPad*
%ADD21C,3.800000*%
G04 #@! TD*
G04 #@! TA.AperFunction,SMDPad,CuDef*
%ADD22R,1.300000X0.700000*%
G04 #@! TD*
G04 #@! TA.AperFunction,SMDPad,CuDef*
%ADD23R,1.250000X1.000000*%
G04 #@! TD*
G04 #@! TA.AperFunction,SMDPad,CuDef*
%ADD24R,1.000000X1.250000*%
G04 #@! TD*
G04 #@! TA.AperFunction,ComponentPad*
%ADD25C,2.500000*%
G04 #@! TD*
G04 #@! TA.AperFunction,ComponentPad*
%ADD26R,2.500000X2.500000*%
G04 #@! TD*
G04 #@! TA.AperFunction,ComponentPad*
%ADD27C,1.440000*%
G04 #@! TD*
G04 #@! TA.AperFunction,SMDPad,CuDef*
%ADD28R,0.800000X0.750000*%
G04 #@! TD*
G04 #@! TA.AperFunction,SMDPad,CuDef*
%ADD29R,2.006600X5.994400*%
G04 #@! TD*
G04 #@! TA.AperFunction,SMDPad,CuDef*
%ADD30R,1.000000X1.600000*%
G04 #@! TD*
G04 #@! TA.AperFunction,SMDPad,CuDef*
%ADD31R,0.700000X1.300000*%
G04 #@! TD*
G04 #@! TA.AperFunction,ViaPad*
%ADD32C,0.800000*%
G04 #@! TD*
G04 #@! TA.AperFunction,Conductor*
%ADD33C,0.250000*%
G04 #@! TD*
G04 #@! TA.AperFunction,Conductor*
%ADD34C,2.220000*%
G04 #@! TD*
G04 #@! TA.AperFunction,Conductor*
%ADD35C,1.000000*%
G04 #@! TD*
G04 #@! TA.AperFunction,Conductor*
%ADD36C,2.200000*%
G04 #@! TD*
G04 #@! TA.AperFunction,Conductor*
%ADD37C,0.254000*%
G04 #@! TD*
G04 APERTURE END LIST*
D10*
G04 #@! TO.P,U1,3*
G04 #@! TO.N,Net-(A_Buck_9V1-Pad1)*
X142473600Y-106121200D03*
G04 #@! TO.P,U1,2*
G04 #@! TO.N,Net-(Cbst1-Pad1)*
X143423600Y-106121200D03*
G04 #@! TO.P,U1,1*
G04 #@! TO.N,GND*
X144373600Y-106121200D03*
G04 #@! TO.P,U1,4*
G04 #@! TO.N,Net-(Rfbb1-Pad1)*
X142473600Y-108631200D03*
G04 #@! TO.P,U1,5*
G04 #@! TO.N,Net-(A_Buck_9V1-Pad1)*
X143423600Y-108631200D03*
G04 #@! TO.P,U1,6*
G04 #@! TO.N,Net-(Cbst1-Pad2)*
X144373600Y-108631200D03*
G04 #@! TD*
D11*
G04 #@! TO.P,A_Buck_9V1,1*
G04 #@! TO.N,Net-(A_Buck_9V1-Pad1)*
X138582400Y-99618800D03*
G04 #@! TD*
D12*
G04 #@! TO.P,LCD1,1*
G04 #@! TO.N,GND*
X109474000Y-35598100D03*
D13*
G04 #@! TO.P,LCD1,2*
G04 #@! TO.N,Net-(C2-Pad2)*
X112014000Y-35598100D03*
G04 #@! TO.P,LCD1,3*
G04 #@! TO.N,Net-(LCD1-Pad3)*
X114554000Y-35598100D03*
G04 #@! TO.P,LCD1,4*
G04 #@! TO.N,Net-(Arduino_Block1-Pad6)*
X117094000Y-35598100D03*
G04 #@! TO.P,LCD1,5*
G04 #@! TO.N,GND*
X119634000Y-35598100D03*
G04 #@! TO.P,LCD1,6*
G04 #@! TO.N,Net-(Arduino_Block1-Pad4)*
X122174000Y-35598100D03*
G04 #@! TO.P,LCD1,7*
G04 #@! TO.N,N/C*
X124714000Y-35598100D03*
G04 #@! TO.P,LCD1,8*
X127254000Y-35598100D03*
G04 #@! TO.P,LCD1,9*
X129794000Y-35598100D03*
G04 #@! TO.P,LCD1,10*
X132334000Y-35598100D03*
G04 #@! TO.P,LCD1,11*
G04 #@! TO.N,Net-(Arduino_Block1-Pad8)*
X134874000Y-35598100D03*
G04 #@! TO.P,LCD1,12*
G04 #@! TO.N,Net-(Arduino_Block1-Pad10)*
X137414000Y-35598100D03*
G04 #@! TO.P,LCD1,13*
G04 #@! TO.N,Net-(Arduino_Block1-Pad12)*
X139954000Y-35598100D03*
G04 #@! TO.P,LCD1,14*
G04 #@! TO.N,Net-(Arduino_Block1-Pad14)*
X142494000Y-35598100D03*
G04 #@! TO.P,LCD1,15*
G04 #@! TO.N,Net-(LCD1-Pad15)*
X145034000Y-35598100D03*
G04 #@! TO.P,LCD1,16*
G04 #@! TO.N,GND*
X147574000Y-35598100D03*
D14*
G04 #@! TO.P,LCD1,*
G04 #@! TO.N,*
X178973480Y-66598800D03*
X178974000Y-35598100D03*
G04 #@! TD*
D15*
G04 #@! TO.P,Arduino_Block1,36*
G04 #@! TO.N,GND*
X126695200Y-95135700D03*
G04 #@! TO.P,Arduino_Block1,35*
X129235200Y-95135700D03*
G04 #@! TO.P,Arduino_Block1,34*
G04 #@! TO.N,N/C*
X126695200Y-92595700D03*
G04 #@! TO.P,Arduino_Block1,33*
X129235200Y-92595700D03*
G04 #@! TO.P,Arduino_Block1,32*
X126695200Y-90055700D03*
G04 #@! TO.P,Arduino_Block1,31*
X129235200Y-90055700D03*
G04 #@! TO.P,Arduino_Block1,30*
G04 #@! TO.N,Net-(Arduino_Block1-Pad30)*
X126695200Y-87515700D03*
G04 #@! TO.P,Arduino_Block1,29*
G04 #@! TO.N,Relay_IN1*
X129235200Y-87515700D03*
G04 #@! TO.P,Arduino_Block1,28*
G04 #@! TO.N,Net-(Arduino_Block1-Pad28)*
X126695200Y-84975700D03*
G04 #@! TO.P,Arduino_Block1,27*
G04 #@! TO.N,Relay_IN2*
X129235200Y-84975700D03*
G04 #@! TO.P,Arduino_Block1,26*
G04 #@! TO.N,Net-(Arduino_Block1-Pad26)*
X126695200Y-82435700D03*
G04 #@! TO.P,Arduino_Block1,25*
G04 #@! TO.N,CS*
X129235200Y-82435700D03*
G04 #@! TO.P,Arduino_Block1,24*
G04 #@! TO.N,Net-(Arduino_Block1-Pad24)*
X126695200Y-79895700D03*
G04 #@! TO.P,Arduino_Block1,23*
G04 #@! TO.N,SDI*
X129235200Y-79895700D03*
G04 #@! TO.P,Arduino_Block1,22*
G04 #@! TO.N,Net-(Arduino_Block1-Pad22)*
X126695200Y-77355700D03*
G04 #@! TO.P,Arduino_Block1,21*
G04 #@! TO.N,SDO*
X129235200Y-77355700D03*
G04 #@! TO.P,Arduino_Block1,20*
G04 #@! TO.N,Net-(Arduino_Block1-Pad20)*
X126695200Y-74815700D03*
G04 #@! TO.P,Arduino_Block1,19*
G04 #@! TO.N,CLK*
X129235200Y-74815700D03*
G04 #@! TO.P,Arduino_Block1,18*
G04 #@! TO.N,Net-(Arduino_Block1-Pad18)*
X126695200Y-72275700D03*
G04 #@! TO.P,Arduino_Block1,17*
G04 #@! TO.N,N/C*
X129235200Y-72275700D03*
G04 #@! TO.P,Arduino_Block1,16*
G04 #@! TO.N,Net-(Arduino_Block1-Pad16)*
X126695200Y-69735700D03*
G04 #@! TO.P,Arduino_Block1,15*
G04 #@! TO.N,N/C*
X129235200Y-69735700D03*
G04 #@! TO.P,Arduino_Block1,14*
G04 #@! TO.N,Net-(Arduino_Block1-Pad14)*
X126695200Y-67195700D03*
G04 #@! TO.P,Arduino_Block1,13*
G04 #@! TO.N,N/C*
X129235200Y-67195700D03*
G04 #@! TO.P,Arduino_Block1,12*
G04 #@! TO.N,Net-(Arduino_Block1-Pad12)*
X126695200Y-64655700D03*
G04 #@! TO.P,Arduino_Block1,11*
G04 #@! TO.N,N/C*
X129235200Y-64655700D03*
G04 #@! TO.P,Arduino_Block1,10*
G04 #@! TO.N,Net-(Arduino_Block1-Pad10)*
X126695200Y-62115700D03*
G04 #@! TO.P,Arduino_Block1,9*
G04 #@! TO.N,N/C*
X129235200Y-62115700D03*
G04 #@! TO.P,Arduino_Block1,8*
G04 #@! TO.N,Net-(Arduino_Block1-Pad8)*
X126695200Y-59575700D03*
G04 #@! TO.P,Arduino_Block1,7*
G04 #@! TO.N,N/C*
X129235200Y-59575700D03*
G04 #@! TO.P,Arduino_Block1,6*
G04 #@! TO.N,Net-(Arduino_Block1-Pad6)*
X126695200Y-57035700D03*
G04 #@! TO.P,Arduino_Block1,5*
G04 #@! TO.N,N/C*
X129235200Y-57035700D03*
G04 #@! TO.P,Arduino_Block1,4*
G04 #@! TO.N,Net-(Arduino_Block1-Pad4)*
X126695200Y-54495700D03*
G04 #@! TO.P,Arduino_Block1,3*
G04 #@! TO.N,N/C*
X129235200Y-54495700D03*
G04 #@! TO.P,Arduino_Block1,2*
G04 #@! TO.N,+5V*
X126695200Y-51955700D03*
D11*
G04 #@! TO.P,Arduino_Block1,1*
X129235200Y-51955700D03*
G04 #@! TD*
D15*
G04 #@! TO.P,Arduino_Block2,4*
G04 #@! TO.N,Net-(Arduino_Block2-Pad4)*
X119024400Y-51955700D03*
G04 #@! TO.P,Arduino_Block2,3*
G04 #@! TO.N,Net-(Arduino_Block2-Pad3)*
X116484400Y-51955700D03*
G04 #@! TO.P,Arduino_Block2,2*
G04 #@! TO.N,pH_TX*
X113944400Y-51955700D03*
D11*
G04 #@! TO.P,Arduino_Block2,1*
G04 #@! TO.N,pH_RX*
X111404400Y-51955700D03*
G04 #@! TD*
D15*
G04 #@! TO.P,Arduino_Block3,6*
G04 #@! TO.N,N/C*
X111455200Y-100266500D03*
G04 #@! TO.P,Arduino_Block3,5*
X113995200Y-100266500D03*
G04 #@! TO.P,Arduino_Block3,4*
X116535200Y-100266500D03*
G04 #@! TO.P,Arduino_Block3,3*
X119075200Y-100266500D03*
G04 #@! TO.P,Arduino_Block3,2*
X121615200Y-100266500D03*
D11*
G04 #@! TO.P,Arduino_Block3,1*
X124155200Y-100266500D03*
G04 #@! TD*
D15*
G04 #@! TO.P,Keypad1,8*
G04 #@! TO.N,Net-(Arduino_Block1-Pad16)*
X110083600Y-105613200D03*
G04 #@! TO.P,Keypad1,7*
G04 #@! TO.N,Net-(Arduino_Block1-Pad18)*
X112623600Y-105613200D03*
G04 #@! TO.P,Keypad1,6*
G04 #@! TO.N,Net-(Arduino_Block1-Pad20)*
X115163600Y-105613200D03*
G04 #@! TO.P,Keypad1,5*
G04 #@! TO.N,Net-(Arduino_Block1-Pad22)*
X117703600Y-105613200D03*
G04 #@! TO.P,Keypad1,4*
G04 #@! TO.N,Net-(Arduino_Block1-Pad24)*
X120243600Y-105613200D03*
G04 #@! TO.P,Keypad1,3*
G04 #@! TO.N,Net-(Arduino_Block1-Pad26)*
X122783600Y-105613200D03*
G04 #@! TO.P,Keypad1,2*
G04 #@! TO.N,Net-(Arduino_Block1-Pad28)*
X125323600Y-105613200D03*
D11*
G04 #@! TO.P,Keypad1,1*
G04 #@! TO.N,Net-(Arduino_Block1-Pad30)*
X127863600Y-105613200D03*
G04 #@! TD*
D15*
G04 #@! TO.P,pH_carrier1,5*
G04 #@! TO.N,+5V*
X137515600Y-84010500D03*
G04 #@! TO.P,pH_carrier1,4*
G04 #@! TO.N,N/C*
X137515600Y-81470500D03*
G04 #@! TO.P,pH_carrier1,3*
G04 #@! TO.N,GND*
X137515600Y-78930500D03*
G04 #@! TO.P,pH_carrier1,2*
G04 #@! TO.N,pH_TX*
X137515600Y-76390500D03*
D11*
G04 #@! TO.P,pH_carrier1,1*
G04 #@! TO.N,pH_RX*
X137515600Y-73850500D03*
G04 #@! TD*
D16*
G04 #@! TO.P,PT100_Input1,3*
G04 #@! TO.N,Net-(PT100_Input1-Pad3)*
X159509426Y-51350304D03*
G04 #@! TO.P,PT100_Input1,4*
G04 #@! TO.N,Net-(PT100_Input1-Pad4)*
X159509426Y-47850304D03*
G04 #@! TO.P,PT100_Input1,2*
G04 #@! TO.N,Net-(PT100_Input1-Pad2)*
X159509426Y-54850304D03*
D17*
G04 #@! TO.P,PT100_Input1,1*
G04 #@! TO.N,N/C*
X159509426Y-58350304D03*
G04 #@! TD*
D18*
G04 #@! TO.P,PT100_Jack1,1*
G04 #@! TO.N,Net-(PT100_Input1-Pad4)*
X175768000Y-62484000D03*
D19*
G04 #@! TO.P,PT100_Jack1,4*
G04 #@! TO.N,N/C*
X168468000Y-61984000D03*
D18*
G04 #@! TO.P,PT100_Jack1,5*
X172868000Y-55384000D03*
G04 #@! TO.P,PT100_Jack1,2*
G04 #@! TO.N,Net-(PT100_Input1-Pad3)*
X171668000Y-52684000D03*
D19*
G04 #@! TO.P,PT100_Jack1,3*
G04 #@! TO.N,Net-(PT100_Input1-Pad2)*
X179668000Y-57884000D03*
G04 #@! TD*
D15*
G04 #@! TO.P,Relay_control1,4*
G04 #@! TO.N,GND*
X151231600Y-92252800D03*
G04 #@! TO.P,Relay_control1,3*
G04 #@! TO.N,Relay_IN1*
X148691600Y-92252800D03*
G04 #@! TO.P,Relay_control1,2*
G04 #@! TO.N,Relay_IN2*
X146151600Y-92252800D03*
D11*
G04 #@! TO.P,Relay_control1,1*
G04 #@! TO.N,+5V*
X143611600Y-92252800D03*
G04 #@! TD*
G04 #@! TO.P,Relay_pwr1,1*
G04 #@! TO.N,GND*
X160274000Y-92252800D03*
D15*
G04 #@! TO.P,Relay_pwr1,2*
G04 #@! TO.N,N/C*
X162814000Y-92252800D03*
G04 #@! TO.P,Relay_pwr1,3*
G04 #@! TO.N,Buck_5V*
X165354000Y-92252800D03*
G04 #@! TD*
D11*
G04 #@! TO.P,A_Buck1,1*
G04 #@! TO.N,Net-(AC-L1-Pad1)*
X153110949Y-125618646D03*
G04 #@! TD*
G04 #@! TO.P,A_Buck2,1*
G04 #@! TO.N,Net-(AC-N1-Pad1)*
X148259549Y-125580546D03*
G04 #@! TD*
G04 #@! TO.P,A_Buck_GND1,1*
G04 #@! TO.N,GND*
X148323049Y-99659846D03*
G04 #@! TD*
G04 #@! TO.P,R_Buck2,1*
G04 #@! TO.N,Net-(AC-L1-Pad1)*
X176137176Y-125383292D03*
G04 #@! TD*
G04 #@! TO.P,R_Buck_1,1*
G04 #@! TO.N,Net-(AC-N1-Pad1)*
X171311176Y-125395992D03*
G04 #@! TD*
G04 #@! TO.P,R_Buck_5V1,1*
G04 #@! TO.N,Buck_5V*
X161621076Y-99449892D03*
G04 #@! TD*
G04 #@! TO.P,R_Buck_GND1,1*
G04 #@! TO.N,GND*
X171400076Y-99399092D03*
G04 #@! TD*
D20*
G04 #@! TO.P,AC-E1,1*
G04 #@! TO.N,GND*
X121056400Y-133858000D03*
G04 #@! TD*
G04 #@! TO.P,AC-L1,1*
G04 #@! TO.N,Net-(AC-L1-Pad1)*
X128066800Y-133858000D03*
G04 #@! TD*
G04 #@! TO.P,AC-N1,1*
G04 #@! TO.N,Net-(AC-N1-Pad1)*
X114096800Y-133858000D03*
G04 #@! TD*
D15*
G04 #@! TO.P,PT100_amp1,8*
G04 #@! TO.N,N/C*
X137871200Y-44196000D03*
G04 #@! TO.P,PT100_amp1,7*
G04 #@! TO.N,CS*
X137871200Y-46736000D03*
G04 #@! TO.P,PT100_amp1,6*
G04 #@! TO.N,SDI*
X137871200Y-49276000D03*
G04 #@! TO.P,PT100_amp1,5*
G04 #@! TO.N,SDO*
X137871200Y-51816000D03*
G04 #@! TO.P,PT100_amp1,4*
G04 #@! TO.N,CLK*
X137871200Y-54356000D03*
G04 #@! TO.P,PT100_amp1,3*
G04 #@! TO.N,N/C*
X137871200Y-56896000D03*
G04 #@! TO.P,PT100_amp1,2*
G04 #@! TO.N,GND*
X137871200Y-59436000D03*
D11*
G04 #@! TO.P,PT100_amp1,1*
G04 #@! TO.N,Net-(C5-Pad2)*
X137871200Y-61976000D03*
G04 #@! TD*
D21*
G04 #@! TO.P,Screw1,1*
G04 #@! TO.N,Net-(AC-L1-Pad1)*
X153314400Y-143306800D03*
G04 #@! TD*
G04 #@! TO.P,Screw2,1*
G04 #@! TO.N,Net-(AC-L1-Pad1)*
X165100000Y-143306800D03*
G04 #@! TD*
D22*
G04 #@! TO.P,R1,2*
G04 #@! TO.N,Net-(LCD1-Pad15)*
X145084800Y-38333600D03*
G04 #@! TO.P,R1,1*
G04 #@! TO.N,Net-(C4-Pad1)*
X145084800Y-40233600D03*
G04 #@! TD*
D23*
G04 #@! TO.P,C1,1*
G04 #@! TO.N,GND*
X140563600Y-94218000D03*
G04 #@! TO.P,C1,2*
G04 #@! TO.N,+5V*
X140563600Y-92218000D03*
G04 #@! TD*
D24*
G04 #@! TO.P,C2,2*
G04 #@! TO.N,Net-(C2-Pad2)*
X111861600Y-38862000D03*
G04 #@! TO.P,C2,1*
G04 #@! TO.N,GND*
X109861600Y-38862000D03*
G04 #@! TD*
D23*
G04 #@! TO.P,C3,2*
G04 #@! TO.N,Net-(C3-Pad2)*
X164134800Y-44754800D03*
G04 #@! TO.P,C3,1*
G04 #@! TO.N,GND*
X164134800Y-42754800D03*
G04 #@! TD*
D24*
G04 #@! TO.P,C4,1*
G04 #@! TO.N,Net-(C4-Pad1)*
X147218400Y-40132000D03*
G04 #@! TO.P,C4,2*
G04 #@! TO.N,GND*
X149218400Y-40132000D03*
G04 #@! TD*
D23*
G04 #@! TO.P,C5,1*
G04 #@! TO.N,GND*
X140919200Y-59858400D03*
G04 #@! TO.P,C5,2*
G04 #@! TO.N,Net-(C5-Pad2)*
X140919200Y-61858400D03*
G04 #@! TD*
G04 #@! TO.P,C6,2*
G04 #@! TO.N,GND*
X142809661Y-81831708D03*
G04 #@! TO.P,C6,1*
G04 #@! TO.N,+5V*
X142809661Y-83831708D03*
G04 #@! TD*
G04 #@! TO.P,C7,2*
G04 #@! TO.N,GND*
X140422061Y-81827708D03*
G04 #@! TO.P,C7,1*
G04 #@! TO.N,+5V*
X140422061Y-83827708D03*
G04 #@! TD*
D25*
G04 #@! TO.P,Power_Screws1,5*
G04 #@! TO.N,GND*
X111013200Y-115366800D03*
G04 #@! TO.P,Power_Screws1,4*
G04 #@! TO.N,Net-(AC-N1-Pad1)*
X116013200Y-115366800D03*
G04 #@! TO.P,Power_Screws1,3*
G04 #@! TO.N,GND*
X121013200Y-115366800D03*
G04 #@! TO.P,Power_Screws1,2*
G04 #@! TO.N,Net-(AC-N1-Pad1)*
X126013200Y-115366800D03*
D26*
G04 #@! TO.P,Power_Screws1,1*
G04 #@! TO.N,Net-(Cout1-Pad1)*
X131013200Y-115366800D03*
G04 #@! TD*
D23*
G04 #@! TO.P,C8,2*
G04 #@! TO.N,Net-(C8-Pad2)*
X152501600Y-82127600D03*
G04 #@! TO.P,C8,1*
G04 #@! TO.N,GND*
X152501600Y-80127600D03*
G04 #@! TD*
D15*
G04 #@! TO.P,PCF8523_RTC1,5*
G04 #@! TO.N,N/C*
X149809200Y-74472800D03*
G04 #@! TO.P,PCF8523_RTC1,4*
G04 #@! TO.N,Net-(Arduino_Block2-Pad4)*
X149809200Y-77012800D03*
G04 #@! TO.P,PCF8523_RTC1,3*
G04 #@! TO.N,Net-(Arduino_Block2-Pad3)*
X149809200Y-79552800D03*
G04 #@! TO.P,PCF8523_RTC1,2*
G04 #@! TO.N,Net-(C8-Pad2)*
X149809200Y-82092800D03*
D11*
G04 #@! TO.P,PCF8523_RTC1,1*
G04 #@! TO.N,GND*
X149809200Y-84632800D03*
G04 #@! TD*
D27*
G04 #@! TO.P,RV1,1*
G04 #@! TO.N,GND*
X174498000Y-39878000D03*
G04 #@! TO.P,RV1,2*
G04 #@! TO.N,Net-(LCD1-Pad3)*
X177038000Y-42418000D03*
G04 #@! TO.P,RV1,3*
G04 #@! TO.N,Net-(C3-Pad2)*
X174498000Y-44958000D03*
G04 #@! TD*
D28*
G04 #@! TO.P,Cbst1,1*
G04 #@! TO.N,Net-(Cbst1-Pad1)*
X146100800Y-110540800D03*
G04 #@! TO.P,Cbst1,2*
G04 #@! TO.N,Net-(Cbst1-Pad2)*
X144600800Y-110540800D03*
G04 #@! TD*
D29*
G04 #@! TO.P,L1,1*
G04 #@! TO.N,Net-(Cout1-Pad1)*
X156870400Y-111810800D03*
G04 #@! TO.P,L1,2*
G04 #@! TO.N,Net-(Cbst1-Pad1)*
X152552400Y-111810800D03*
G04 #@! TD*
D24*
G04 #@! TO.P,Cin1,2*
G04 #@! TO.N,GND*
X144119600Y-101244400D03*
G04 #@! TO.P,Cin1,1*
G04 #@! TO.N,Net-(A_Buck_9V1-Pad1)*
X142119600Y-101244400D03*
G04 #@! TD*
D30*
G04 #@! TO.P,Cout1,2*
G04 #@! TO.N,GND*
X153210000Y-101904800D03*
G04 #@! TO.P,Cout1,1*
G04 #@! TO.N,Net-(Cout1-Pad1)*
X156210000Y-101904800D03*
G04 #@! TD*
D31*
G04 #@! TO.P,Rfbb1,2*
G04 #@! TO.N,GND*
X138140400Y-111048800D03*
G04 #@! TO.P,Rfbb1,1*
G04 #@! TO.N,Net-(Rfbb1-Pad1)*
X140040400Y-111048800D03*
G04 #@! TD*
G04 #@! TO.P,Rfbt1,1*
G04 #@! TO.N,Net-(Cout1-Pad1)*
X138226800Y-108712000D03*
G04 #@! TO.P,Rfbt1,2*
G04 #@! TO.N,Net-(Rfbb1-Pad1)*
X140126800Y-108712000D03*
G04 #@! TD*
D11*
G04 #@! TO.P,J1,1*
G04 #@! TO.N,Buck_5V*
X115866158Y-80732960D03*
D15*
G04 #@! TO.P,J1,2*
G04 #@! TO.N,Net-(C3-Pad2)*
X118406158Y-80732960D03*
G04 #@! TO.P,J1,3*
G04 #@! TO.N,+5V*
X120946158Y-80732960D03*
G04 #@! TD*
G04 #@! TO.P,J2,3*
G04 #@! TO.N,+5V*
X120946158Y-84382960D03*
G04 #@! TO.P,J2,2*
G04 #@! TO.N,Net-(C4-Pad1)*
X118406158Y-84382960D03*
D11*
G04 #@! TO.P,J2,1*
G04 #@! TO.N,Buck_5V*
X115866158Y-84382960D03*
G04 #@! TD*
G04 #@! TO.P,J3,1*
G04 #@! TO.N,Buck_5V*
X115866158Y-88032960D03*
D15*
G04 #@! TO.P,J3,2*
G04 #@! TO.N,Net-(C2-Pad2)*
X118406158Y-88032960D03*
G04 #@! TO.P,J3,3*
G04 #@! TO.N,+5V*
X120946158Y-88032960D03*
G04 #@! TD*
G04 #@! TO.P,J4,3*
G04 #@! TO.N,+5V*
X120946158Y-91682960D03*
G04 #@! TO.P,J4,2*
G04 #@! TO.N,Net-(C8-Pad2)*
X118406158Y-91682960D03*
D11*
G04 #@! TO.P,J4,1*
G04 #@! TO.N,Buck_5V*
X115866158Y-91682960D03*
G04 #@! TD*
D15*
G04 #@! TO.P,J5,3*
G04 #@! TO.N,+5V*
X120946158Y-95332960D03*
G04 #@! TO.P,J5,2*
G04 #@! TO.N,Net-(C5-Pad2)*
X118406158Y-95332960D03*
D11*
G04 #@! TO.P,J5,1*
G04 #@! TO.N,Buck_5V*
X115866158Y-95332960D03*
G04 #@! TD*
D32*
G04 #@! TO.N,GND*
X136702800Y-111099600D03*
X124206000Y-102920800D03*
X121615200Y-102920800D03*
X119024400Y-102920800D03*
X116687600Y-102920800D03*
X114096800Y-102920800D03*
X111353600Y-102920800D03*
X141224000Y-73152000D03*
X163423600Y-55270400D03*
X167335200Y-52628800D03*
X144170400Y-126746000D03*
X139090400Y-126746000D03*
X134010400Y-126746000D03*
X128930400Y-126746000D03*
X137058400Y-88493600D03*
X160375600Y-95961200D03*
X171399200Y-96012000D03*
X111506000Y-86614000D03*
X111506000Y-82092800D03*
X111506000Y-77622400D03*
X112776000Y-65430400D03*
X112776000Y-61925200D03*
X112776000Y-57658000D03*
X115316000Y-57658000D03*
X115316000Y-61976000D03*
X115316000Y-65430400D03*
X113538000Y-86664800D03*
X113538000Y-78282800D03*
X113538000Y-82194400D03*
X124206000Y-95351600D03*
X124206000Y-89306400D03*
X124104400Y-87426800D03*
X123139200Y-83820000D03*
X133350000Y-83972400D03*
X141224000Y-39217600D03*
X138633200Y-38506400D03*
G04 #@! TO.N,Relay_IN1*
X148691600Y-89204800D03*
G04 #@! TO.N,Relay_IN2*
X145948400Y-85242400D03*
G04 #@! TO.N,CS*
X134975600Y-82448400D03*
X135940800Y-46736000D03*
G04 #@! TO.N,Net-(Arduino_Block1-Pad24)*
X119684800Y-78486000D03*
G04 #@! TO.N,SDI*
X134823200Y-79705200D03*
X134823200Y-49276000D03*
G04 #@! TO.N,Net-(Arduino_Block1-Pad22)*
X117551200Y-77355700D03*
G04 #@! TO.N,SDO*
X133197600Y-77114400D03*
X133146800Y-51765200D03*
G04 #@! TO.N,Net-(Arduino_Block1-Pad20)*
X115176300Y-74815700D03*
G04 #@! TO.N,CLK*
X134010400Y-74777600D03*
X134010400Y-54305200D03*
G04 #@! TO.N,Net-(Arduino_Block1-Pad18)*
X112979200Y-72275700D03*
G04 #@! TO.N,Net-(Arduino_Block1-Pad16)*
X110426500Y-69735700D03*
G04 #@! TO.N,Net-(Arduino_Block1-Pad14)*
X121615200Y-67106800D03*
X142468600Y-42418000D03*
X124714000Y-42418000D03*
G04 #@! TO.N,Net-(Arduino_Block1-Pad12)*
X121513600Y-64566800D03*
X139928600Y-41173400D03*
X124307600Y-41148000D03*
G04 #@! TO.N,Net-(Arduino_Block1-Pad10)*
X121564400Y-62026800D03*
X137388600Y-39878000D03*
X124002800Y-39878000D03*
G04 #@! TO.N,Net-(Arduino_Block1-Pad8)*
X121412000Y-59537600D03*
X134823200Y-38557200D03*
X123444000Y-38608000D03*
G04 #@! TO.N,Net-(Arduino_Block1-Pad6)*
X122123200Y-56896000D03*
X117170200Y-42240200D03*
X122174000Y-42265600D03*
G04 #@! TO.N,Net-(Arduino_Block1-Pad4)*
X121310400Y-54457600D03*
G04 #@! TO.N,+5V*
X131368800Y-92202000D03*
X144983200Y-84023200D03*
X131114800Y-51955700D03*
G04 #@! TO.N,pH_TX*
X114147600Y-76149200D03*
G04 #@! TO.N,pH_RX*
X137464800Y-70612000D03*
X137515600Y-70662800D03*
X111201200Y-68560699D03*
G04 #@! TO.N,Net-(AC-L1-Pad1)*
X153111200Y-133807200D03*
G04 #@! TO.N,Net-(LCD1-Pad3)*
X114604800Y-43383200D03*
G04 #@! TO.N,Net-(A_Buck_9V1-Pad1)*
X142697200Y-110947200D03*
X140258800Y-106070400D03*
G04 #@! TO.N,Net-(Arduino_Block2-Pad4)*
X119126000Y-71069200D03*
X146608800Y-71387801D03*
X146608800Y-77165200D03*
G04 #@! TO.N,Net-(Arduino_Block2-Pad3)*
X116484400Y-73558400D03*
X142849600Y-75025501D03*
X142849600Y-79451200D03*
G04 #@! TO.N,Net-(Cbst1-Pad1)*
X143408400Y-104851200D03*
X143408400Y-103835200D03*
X146405600Y-108407200D03*
X147574000Y-108407200D03*
X148793200Y-108407200D03*
X148793200Y-109524800D03*
X147574000Y-109524800D03*
X146405600Y-109524800D03*
G04 #@! TO.N,Net-(Cout1-Pad1)*
X136448800Y-108712000D03*
X156260800Y-98196400D03*
G04 #@! TO.N,Net-(C2-Pad2)*
X118414800Y-89712800D03*
X108966000Y-89712800D03*
X108248999Y-41407801D03*
G04 #@! TO.N,Net-(C3-Pad2)*
X154076400Y-44805600D03*
X154076400Y-67741800D03*
X118414800Y-82448400D03*
X140157200Y-80105501D03*
X140258800Y-67767200D03*
G04 #@! TO.N,Net-(C4-Pad1)*
X145084800Y-41198800D03*
X118414800Y-86055200D03*
X144830800Y-86309200D03*
G04 #@! TO.N,Net-(C5-Pad2)*
X118262400Y-97078800D03*
X141274800Y-97078800D03*
X141949001Y-63666201D03*
G04 #@! TO.N,Net-(C8-Pad2)*
X118414800Y-93421200D03*
X154533600Y-95402400D03*
X154533600Y-82194400D03*
G04 #@! TO.N,Buck_5V*
X165303200Y-99415600D03*
X115874800Y-98196400D03*
X143611600Y-97231200D03*
X156108400Y-96520000D03*
X160731200Y-97028000D03*
G04 #@! TD*
D33*
G04 #@! TO.N,GND*
X137502900Y-78943200D02*
X137515600Y-78930500D01*
X137477500Y-78892400D02*
X137515600Y-78930500D01*
X138379200Y-58928000D02*
X137871200Y-59436000D01*
X137820400Y-59385200D02*
X137871200Y-59436000D01*
X138293600Y-59858400D02*
X137871200Y-59436000D01*
X137398000Y-59909200D02*
X137871200Y-59436000D01*
X148383603Y-99720400D02*
X148323049Y-99659846D01*
X136753600Y-111048800D02*
X136702800Y-111099600D01*
X138140400Y-111048800D02*
X136753600Y-111048800D01*
X171399200Y-96012000D02*
X160426400Y-96012000D01*
X160426400Y-96012000D02*
X160375600Y-95961200D01*
G04 #@! TO.N,Relay_IN1*
X132250188Y-89255600D02*
X148691600Y-89255600D01*
X129235200Y-87515700D02*
X130510288Y-87515700D01*
X130510288Y-87515700D02*
X132250188Y-89255600D01*
G04 #@! TO.N,Relay_IN2*
X130437281Y-84975700D02*
X130703981Y-85242400D01*
X129235200Y-84975700D02*
X130437281Y-84975700D01*
X130703981Y-85242400D02*
X145948400Y-85242400D01*
X145948400Y-85242400D02*
X145948400Y-85242400D01*
G04 #@! TO.N,CS*
X134975600Y-82448400D02*
X129247900Y-82448400D01*
X129247900Y-82448400D02*
X129235200Y-82435700D01*
X136596849Y-46736000D02*
X135940800Y-46736000D01*
X137817826Y-46717104D02*
X136615745Y-46717104D01*
X136615745Y-46717104D02*
X136596849Y-46736000D01*
G04 #@! TO.N,Net-(Arduino_Block1-Pad24)*
X126695200Y-79895700D02*
X125285500Y-78486000D01*
X125285500Y-78486000D02*
X119684800Y-78486000D01*
X119684800Y-78486000D02*
X119634000Y-78486000D01*
G04 #@! TO.N,SDI*
X134823200Y-79705200D02*
X129425700Y-79705200D01*
X129425700Y-79705200D02*
X129235200Y-79895700D01*
X136596849Y-49276000D02*
X134823200Y-49276000D01*
X137817826Y-49257104D02*
X136615745Y-49257104D01*
X136615745Y-49257104D02*
X136596849Y-49276000D01*
G04 #@! TO.N,Net-(Arduino_Block1-Pad22)*
X126695200Y-77355700D02*
X117551200Y-77355700D01*
X117551200Y-77355700D02*
X117360700Y-77355700D01*
G04 #@! TO.N,SDO*
X133197600Y-77114400D02*
X129476500Y-77114400D01*
X129476500Y-77114400D02*
X129235200Y-77355700D01*
X134181696Y-51797104D02*
X134149792Y-51765200D01*
X134149792Y-51765200D02*
X133146800Y-51765200D01*
X136615745Y-51797104D02*
X134181696Y-51797104D01*
X137817826Y-51797104D02*
X136615745Y-51797104D01*
X136615745Y-51797104D02*
X136596849Y-51816000D01*
G04 #@! TO.N,Net-(Arduino_Block1-Pad20)*
X126695200Y-74815700D02*
X115176300Y-74815700D01*
X115176300Y-74815700D02*
X115176300Y-74815700D01*
G04 #@! TO.N,CLK*
X134010400Y-74777600D02*
X133602899Y-75185101D01*
X133602899Y-75185101D02*
X130806682Y-75185101D01*
X130806682Y-75185101D02*
X130437281Y-74815700D01*
X130437281Y-74815700D02*
X129235200Y-74815700D01*
X137871200Y-54356000D02*
X133959600Y-54356000D01*
G04 #@! TO.N,Net-(Arduino_Block1-Pad18)*
X126695200Y-72275700D02*
X112979200Y-72275700D01*
X112979200Y-72275700D02*
X112915700Y-72275700D01*
G04 #@! TO.N,Net-(Arduino_Block1-Pad16)*
X126695200Y-69735700D02*
X110426500Y-69735700D01*
X110426500Y-69735700D02*
X110426500Y-69735700D01*
G04 #@! TO.N,Net-(Arduino_Block1-Pad14)*
X121615200Y-67106800D02*
X126606300Y-67106800D01*
X126606300Y-67106800D02*
X126695200Y-67195700D01*
X125279685Y-42418000D02*
X142468600Y-42418000D01*
X124714000Y-42418000D02*
X125279685Y-42418000D01*
G04 #@! TO.N,Net-(Arduino_Block1-Pad12)*
X121513600Y-64566800D02*
X126606300Y-64566800D01*
X126606300Y-64566800D02*
X126695200Y-64655700D01*
X124898685Y-41122600D02*
X139954000Y-41122600D01*
X124307600Y-41148000D02*
X124873285Y-41148000D01*
X124873285Y-41148000D02*
X124898685Y-41122600D01*
G04 #@! TO.N,Net-(Arduino_Block1-Pad10)*
X121564400Y-62026800D02*
X126606300Y-62026800D01*
X126606300Y-62026800D02*
X126695200Y-62115700D01*
X124568485Y-39878000D02*
X137414000Y-39878000D01*
X124002800Y-39878000D02*
X124568485Y-39878000D01*
G04 #@! TO.N,Net-(Arduino_Block1-Pad8)*
X121412000Y-59537600D02*
X126657100Y-59537600D01*
X126657100Y-59537600D02*
X126695200Y-59575700D01*
X124111285Y-38506400D02*
X134848600Y-38506400D01*
X123444000Y-38608000D02*
X124009685Y-38608000D01*
X124009685Y-38608000D02*
X124111285Y-38506400D01*
G04 #@! TO.N,Net-(Arduino_Block1-Pad6)*
X122123200Y-56896000D02*
X126555500Y-56896000D01*
X126555500Y-56896000D02*
X126695200Y-57035700D01*
X121582915Y-42240200D02*
X117170200Y-42240200D01*
X122174000Y-42265600D02*
X121608315Y-42265600D01*
X121608315Y-42265600D02*
X121582915Y-42240200D01*
G04 #@! TO.N,Net-(Arduino_Block1-Pad4)*
X121310400Y-54457600D02*
X126657100Y-54457600D01*
X126657100Y-54457600D02*
X126695200Y-54495700D01*
G04 #@! TO.N,+5V*
X126695200Y-51955700D02*
X129235200Y-51955700D01*
X142859856Y-83781513D02*
X142809661Y-83831708D01*
X143408400Y-92049600D02*
X143611600Y-92252800D01*
X140547600Y-92202000D02*
X140563600Y-92218000D01*
X131368800Y-92202000D02*
X140547600Y-92202000D01*
X143576800Y-92218000D02*
X143611600Y-92252800D01*
X140563600Y-92218000D02*
X143576800Y-92218000D01*
X143001153Y-84023200D02*
X142809661Y-83831708D01*
X144983200Y-84023200D02*
X143001153Y-84023200D01*
X140426061Y-83831708D02*
X140422061Y-83827708D01*
X142809661Y-83831708D02*
X140426061Y-83831708D01*
X137698392Y-83827708D02*
X137515600Y-84010500D01*
X140422061Y-83827708D02*
X137698392Y-83827708D01*
X122600498Y-91230701D02*
X122148239Y-91682960D01*
X130397501Y-91230701D02*
X122600498Y-91230701D01*
X122148239Y-91682960D02*
X120946158Y-91682960D01*
X131368800Y-92202000D02*
X130397501Y-91230701D01*
X129235200Y-51955700D02*
X131114800Y-51955700D01*
X131114800Y-51955700D02*
X131152900Y-51955700D01*
G04 #@! TO.N,pH_TX*
X133858000Y-76403200D02*
X133553200Y-76098400D01*
X133858000Y-76403200D02*
X137502900Y-76403200D01*
X133553200Y-76098400D02*
X114198400Y-76098400D01*
G04 #@! TO.N,pH_RX*
X129799201Y-68560699D02*
X111201200Y-68560699D01*
X137464800Y-70612000D02*
X131850502Y-70612000D01*
X131850502Y-70612000D02*
X129799201Y-68560699D01*
X111201200Y-68560699D02*
X111169701Y-68560699D01*
G04 #@! TO.N,Net-(PT100_Input1-Pad3)*
X170090848Y-51350304D02*
X171497591Y-52757047D01*
X159509426Y-51350304D02*
X170090848Y-51350304D01*
G04 #@! TO.N,Net-(PT100_Input1-Pad2)*
X159509426Y-54850304D02*
X162543122Y-57884000D01*
X162610486Y-57816636D02*
X179587125Y-57816636D01*
X162543122Y-57884000D02*
X162610486Y-57816636D01*
D34*
G04 #@! TO.N,Net-(AC-L1-Pad1)*
X146354800Y-143306800D02*
X153314400Y-143306800D01*
D35*
X176137176Y-126483292D02*
X176137176Y-125383292D01*
D34*
X128066800Y-133858000D02*
X130541673Y-133858000D01*
D33*
X130541673Y-133858000D02*
X130592473Y-133807200D01*
D35*
X165665685Y-133756400D02*
X176174400Y-133756400D01*
D33*
X165100000Y-133756400D02*
X165665685Y-133756400D01*
D35*
X165100000Y-133756400D02*
X165100000Y-143306800D01*
D34*
X146354800Y-133807200D02*
X146354800Y-143306800D01*
D35*
X153676885Y-133807200D02*
X165100000Y-133807200D01*
D33*
X153111200Y-133807200D02*
X153676885Y-133807200D01*
D35*
X146354800Y-133807200D02*
X153111200Y-133807200D01*
D34*
X130592473Y-133807200D02*
X146354800Y-133807200D01*
D33*
X176174400Y-126520516D02*
X176137176Y-126483292D01*
D35*
X176174400Y-133756400D02*
X176174400Y-126520516D01*
D34*
G04 #@! TO.N,Net-(AC-N1-Pad1)*
X124968000Y-125018800D02*
X115962400Y-125018800D01*
X115962400Y-129517527D02*
X115962400Y-125018800D01*
X115330327Y-130149600D02*
X115962400Y-129517527D01*
D35*
X147668715Y-130149600D02*
X148800085Y-130149600D01*
D33*
X148234400Y-130149600D02*
X148259549Y-130124451D01*
D35*
X148259549Y-130124451D02*
X148259549Y-125580546D01*
D34*
X114096800Y-133858000D02*
X114096800Y-131383127D01*
X114096800Y-131383127D02*
X115330327Y-130149600D01*
D35*
X115330327Y-130149600D02*
X147668715Y-130149600D01*
D33*
X147668715Y-130149600D02*
X148234400Y-130149600D01*
D35*
X171297600Y-130149600D02*
X171297600Y-125409568D01*
X148800085Y-130149600D02*
X171297600Y-130149600D01*
X148234400Y-130149600D02*
X148800085Y-130149600D01*
D36*
X116013200Y-124968000D02*
X116013200Y-115366800D01*
D33*
X115962400Y-125018800D02*
X116013200Y-124968000D01*
D36*
X126013200Y-123973600D02*
X124968000Y-125018800D01*
X126013200Y-115366800D02*
X126013200Y-123973600D01*
D33*
G04 #@! TO.N,Net-(LCD1-Pad3)*
X124821802Y-43383200D02*
X114604800Y-43383200D01*
X142816601Y-43143001D02*
X138557203Y-43143001D01*
X138557203Y-43143001D02*
X138435201Y-43020999D01*
X144029803Y-41929799D02*
X142816601Y-43143001D01*
X165019801Y-41929799D02*
X144029803Y-41929799D01*
X125184003Y-43020999D02*
X124821802Y-43383200D01*
X165468002Y-42378000D02*
X165019801Y-41929799D01*
X138435201Y-43020999D02*
X125184003Y-43020999D01*
X176019767Y-42418000D02*
X175979767Y-42378000D01*
X177038000Y-42418000D02*
X176019767Y-42418000D01*
X175979767Y-42378000D02*
X174294800Y-42378000D01*
X174498000Y-42378000D02*
X174294800Y-42378000D01*
X174294800Y-42378000D02*
X165468002Y-42378000D01*
G04 #@! TO.N,Net-(LCD1-Pad15)*
X145084800Y-35648900D02*
X145034000Y-35598100D01*
X145084800Y-38333600D02*
X145084800Y-35648900D01*
G04 #@! TO.N,Net-(A_Buck_9V1-Pad1)*
X143423600Y-109506200D02*
X142697200Y-110232600D01*
X143423600Y-108631200D02*
X143423600Y-109506200D01*
X142697200Y-110232600D02*
X142697200Y-110947200D01*
X142697200Y-110947200D02*
X142697200Y-110947200D01*
G04 #@! TO.N,Net-(Arduino_Block2-Pad4)*
X130086303Y-71387801D02*
X129767702Y-71069200D01*
X146690520Y-71387801D02*
X146608800Y-71387801D01*
X129767702Y-71069200D02*
X119126000Y-71069200D01*
X119126000Y-71069200D02*
X119126000Y-71069200D01*
X146608800Y-71387801D02*
X130086303Y-71387801D01*
X149656800Y-77165200D02*
X149809200Y-77012800D01*
X146608800Y-77165200D02*
X149656800Y-77165200D01*
G04 #@! TO.N,Net-(Arduino_Block2-Pad3)*
X135331303Y-75025501D02*
X133864202Y-73558400D01*
X133864202Y-73558400D02*
X116484400Y-73558400D01*
X116484400Y-73558400D02*
X116484400Y-73558400D01*
X135331303Y-75025501D02*
X142849600Y-75025501D01*
X142849600Y-75025501D02*
X142945101Y-75025501D01*
X149707600Y-79451200D02*
X149809200Y-79552800D01*
X142849600Y-79451200D02*
X149707600Y-79451200D01*
G04 #@! TO.N,Net-(Cbst1-Pad1)*
X143423600Y-105246200D02*
X143408400Y-104851200D01*
X143423600Y-106121200D02*
X143423600Y-105246200D01*
X143408400Y-105231000D02*
X143408400Y-104851200D01*
X143408400Y-104851200D02*
X143408400Y-105231000D01*
X143408400Y-104285515D02*
X143408400Y-103835200D01*
X143408400Y-103835200D02*
X143408400Y-104285515D01*
X143408400Y-104285515D02*
X143408400Y-104851200D01*
G04 #@! TO.N,Net-(Cbst1-Pad2)*
X144373600Y-110313600D02*
X144600800Y-110540800D01*
X144373600Y-108631200D02*
X144373600Y-110313600D01*
G04 #@! TO.N,Net-(Cout1-Pad1)*
X138226800Y-108712000D02*
X136448800Y-108712000D01*
G04 #@! TO.N,Net-(Rfbb1-Pad1)*
X140207600Y-108631200D02*
X140126800Y-108712000D01*
X141325600Y-108631200D02*
X140207600Y-108631200D01*
X141325600Y-108631200D02*
X141325600Y-110947200D01*
X142473600Y-108631200D02*
X141325600Y-108631200D01*
X141224000Y-111048800D02*
X140040400Y-111048800D01*
X141325600Y-110947200D02*
X141224000Y-111048800D01*
G04 #@! TO.N,Net-(C2-Pad2)*
X112268000Y-35852100D02*
X112014000Y-35598100D01*
X111861600Y-35750500D02*
X112014000Y-35598100D01*
X111861600Y-38862000D02*
X111861600Y-35750500D01*
X118414800Y-89712800D02*
X108966000Y-89712800D01*
X108966000Y-89712800D02*
X108915200Y-89712800D01*
X111861600Y-38987000D02*
X111861600Y-38862000D01*
X109840798Y-41007802D02*
X111861600Y-38987000D01*
X108648998Y-41007802D02*
X109840798Y-41007802D01*
X108248999Y-41407801D02*
X108648998Y-41007802D01*
G04 #@! TO.N,Net-(C3-Pad2)*
X164134800Y-44754800D02*
X154127200Y-44754800D01*
X154127200Y-44754800D02*
X154076400Y-44805600D01*
X174498000Y-44878000D02*
X173225208Y-44878000D01*
X173225208Y-44878000D02*
X173100207Y-44752999D01*
X173100207Y-44752999D02*
X165011601Y-44752999D01*
X165011601Y-44752999D02*
X165009800Y-44754800D01*
X165009800Y-44754800D02*
X164134800Y-44754800D01*
X145224500Y-67767200D02*
X145237200Y-67754500D01*
X145237200Y-67754500D02*
X154038300Y-67754500D01*
X136176397Y-81070701D02*
X137141597Y-80105501D01*
X137141597Y-80105501D02*
X140157200Y-80105501D01*
X126321197Y-81070701D02*
X136176397Y-81070701D01*
X124543499Y-82848399D02*
X126321197Y-81070701D01*
X118414800Y-82448400D02*
X118814799Y-82848399D01*
X118814799Y-82848399D02*
X124543499Y-82848399D01*
X140157200Y-80105501D02*
X140214099Y-80105501D01*
X140258800Y-67767200D02*
X145224500Y-67767200D01*
G04 #@! TO.N,Net-(C4-Pad1)*
X145186400Y-40132000D02*
X145084800Y-40233600D01*
X147218400Y-40132000D02*
X145186400Y-40132000D01*
X145084800Y-40233600D02*
X145084800Y-41198800D01*
X145084800Y-40833600D02*
X145084800Y-41198800D01*
X145084800Y-41198800D02*
X145084800Y-40833600D01*
X118980485Y-86055200D02*
X119234485Y-86309200D01*
X118414800Y-86055200D02*
X118980485Y-86055200D01*
X119234485Y-86309200D02*
X144830800Y-86309200D01*
X144830800Y-86309200D02*
X144830800Y-86309200D01*
G04 #@! TO.N,Net-(C5-Pad2)*
X138321210Y-61789600D02*
X138189405Y-61657795D01*
X138390010Y-61858400D02*
X138321210Y-61789600D01*
X137804400Y-61909200D02*
X137871200Y-61976000D01*
X118262400Y-97078800D02*
X141274800Y-97078800D01*
X141274800Y-97078800D02*
X141274800Y-97078800D01*
X141949001Y-62888201D02*
X140919200Y-61858400D01*
X141949001Y-63666201D02*
X141949001Y-62888201D01*
X137988800Y-61858400D02*
X137871200Y-61976000D01*
X140919200Y-61858400D02*
X137988800Y-61858400D01*
G04 #@! TO.N,Net-(C8-Pad2)*
X150266400Y-82550000D02*
X149809200Y-82092800D01*
X149758400Y-82143600D02*
X149809200Y-82092800D01*
X138596297Y-93960699D02*
X140037998Y-95402400D01*
X118414800Y-93421200D02*
X118954299Y-93960699D01*
X118954299Y-93960699D02*
X138596297Y-93960699D01*
X140037998Y-95402400D02*
X154533600Y-95402400D01*
X152466800Y-82092800D02*
X152501600Y-82127600D01*
X149809200Y-82092800D02*
X152466800Y-82092800D01*
X154533600Y-95402400D02*
X154533600Y-95402400D01*
X152568400Y-82194400D02*
X152501600Y-82127600D01*
X154533600Y-82194400D02*
X152568400Y-82194400D01*
G04 #@! TO.N,Buck_5V*
X161621076Y-99449892D02*
X165319708Y-99449892D01*
X115874800Y-98196400D02*
X142646400Y-98196400D01*
X142646400Y-98196400D02*
X143611600Y-97231200D01*
X143611600Y-97231200D02*
X143611600Y-97231200D01*
X156674085Y-96520000D02*
X157182085Y-97028000D01*
X156108400Y-96520000D02*
X156674085Y-96520000D01*
X157182085Y-97028000D02*
X160731200Y-97028000D01*
X160731200Y-97028000D02*
X160731200Y-97028000D01*
G04 #@! TD*
D37*
G04 #@! TO.N,Net-(A_Buck_9V1-Pad1)*
G36*
X142794643Y-102985246D02*
X142530969Y-103248920D01*
X142373400Y-103629326D01*
X142373400Y-104041074D01*
X142498544Y-104343200D01*
X142373400Y-104645326D01*
X142373400Y-105057074D01*
X142505210Y-105375292D01*
X142481160Y-105496200D01*
X142481160Y-106746200D01*
X142530443Y-106993965D01*
X142670791Y-107204009D01*
X142684846Y-107213400D01*
X130884961Y-107213400D01*
X130804010Y-98956400D01*
X142571553Y-98956400D01*
X142646400Y-98971288D01*
X142721247Y-98956400D01*
X142721252Y-98956400D01*
X142814386Y-98937874D01*
X142794643Y-102985246D01*
X142794643Y-102985246D01*
G37*
X142794643Y-102985246D02*
X142530969Y-103248920D01*
X142373400Y-103629326D01*
X142373400Y-104041074D01*
X142498544Y-104343200D01*
X142373400Y-104645326D01*
X142373400Y-105057074D01*
X142505210Y-105375292D01*
X142481160Y-105496200D01*
X142481160Y-106746200D01*
X142530443Y-106993965D01*
X142670791Y-107204009D01*
X142684846Y-107213400D01*
X130884961Y-107213400D01*
X130804010Y-98956400D01*
X142571553Y-98956400D01*
X142646400Y-98971288D01*
X142721247Y-98956400D01*
X142721252Y-98956400D01*
X142814386Y-98937874D01*
X142794643Y-102985246D01*
G04 #@! TO.N,Net-(Cout1-Pad1)*
G36*
X155522120Y-97397431D02*
X155902526Y-97555000D01*
X156314274Y-97555000D01*
X156540554Y-97461272D01*
X156591757Y-97512475D01*
X156634156Y-97575929D01*
X156697609Y-97618327D01*
X156697611Y-97618329D01*
X156822987Y-97702102D01*
X156885548Y-97743904D01*
X157107233Y-97788000D01*
X157107237Y-97788000D01*
X157182084Y-97802888D01*
X157256931Y-97788000D01*
X159442801Y-97788000D01*
X159394434Y-118344010D01*
X159385000Y-118390005D01*
X159385000Y-122250200D01*
X128549400Y-122250200D01*
X128549400Y-112395000D01*
X144043400Y-112395000D01*
X144043400Y-116992400D01*
X144053067Y-117041001D01*
X144080597Y-117082203D01*
X144121799Y-117109733D01*
X144170400Y-117119400D01*
X155158894Y-117119400D01*
X155207495Y-117109733D01*
X155248697Y-117082203D01*
X155276227Y-117041001D01*
X155285893Y-116993000D01*
X155379219Y-97254530D01*
X155522120Y-97397431D01*
X155522120Y-97397431D01*
G37*
X155522120Y-97397431D02*
X155902526Y-97555000D01*
X156314274Y-97555000D01*
X156540554Y-97461272D01*
X156591757Y-97512475D01*
X156634156Y-97575929D01*
X156697609Y-97618327D01*
X156697611Y-97618329D01*
X156822987Y-97702102D01*
X156885548Y-97743904D01*
X157107233Y-97788000D01*
X157107237Y-97788000D01*
X157182084Y-97802888D01*
X157256931Y-97788000D01*
X159442801Y-97788000D01*
X159394434Y-118344010D01*
X159385000Y-118390005D01*
X159385000Y-122250200D01*
X128549400Y-122250200D01*
X128549400Y-112395000D01*
X144043400Y-112395000D01*
X144043400Y-116992400D01*
X144053067Y-117041001D01*
X144080597Y-117082203D01*
X144121799Y-117109733D01*
X144170400Y-117119400D01*
X155158894Y-117119400D01*
X155207495Y-117109733D01*
X155248697Y-117082203D01*
X155276227Y-117041001D01*
X155285893Y-116993000D01*
X155379219Y-97254530D01*
X155522120Y-97397431D01*
G04 #@! TO.N,Net-(Cbst1-Pad1)*
G36*
X153746200Y-108205189D02*
X153682009Y-108178600D01*
X152838150Y-108178600D01*
X152679400Y-108337350D01*
X152679400Y-111683800D01*
X152699400Y-111683800D01*
X152699400Y-111937800D01*
X152679400Y-111937800D01*
X152679400Y-115284250D01*
X152838150Y-115443000D01*
X153682009Y-115443000D01*
X153746200Y-115416411D01*
X153746200Y-115595400D01*
X145465800Y-115595400D01*
X145465800Y-112096550D01*
X150914100Y-112096550D01*
X150914100Y-114934310D01*
X151010773Y-115167699D01*
X151189402Y-115346327D01*
X151422791Y-115443000D01*
X152266650Y-115443000D01*
X152425400Y-115284250D01*
X152425400Y-111937800D01*
X151072850Y-111937800D01*
X150914100Y-112096550D01*
X145465800Y-112096550D01*
X145465800Y-111505779D01*
X145574491Y-111550800D01*
X145815050Y-111550800D01*
X145973800Y-111392050D01*
X145973800Y-110667800D01*
X146227800Y-110667800D01*
X146227800Y-111392050D01*
X146386550Y-111550800D01*
X146627109Y-111550800D01*
X146860498Y-111454127D01*
X147039127Y-111275499D01*
X147135800Y-111042110D01*
X147135800Y-110826550D01*
X146977050Y-110667800D01*
X146227800Y-110667800D01*
X145973800Y-110667800D01*
X145953800Y-110667800D01*
X145953800Y-110413800D01*
X145973800Y-110413800D01*
X145973800Y-109689550D01*
X146227800Y-109689550D01*
X146227800Y-110413800D01*
X146977050Y-110413800D01*
X147135800Y-110255050D01*
X147135800Y-110039490D01*
X147039127Y-109806101D01*
X146860498Y-109627473D01*
X146627109Y-109530800D01*
X146386550Y-109530800D01*
X146227800Y-109689550D01*
X145973800Y-109689550D01*
X145815050Y-109530800D01*
X145574491Y-109530800D01*
X145465800Y-109575821D01*
X145465800Y-108687290D01*
X150914100Y-108687290D01*
X150914100Y-111525050D01*
X151072850Y-111683800D01*
X152425400Y-111683800D01*
X152425400Y-108337350D01*
X152266650Y-108178600D01*
X151422791Y-108178600D01*
X151189402Y-108275273D01*
X151010773Y-108453901D01*
X150914100Y-108687290D01*
X145465800Y-108687290D01*
X145465800Y-107924600D01*
X153746200Y-107924600D01*
X153746200Y-108205189D01*
X153746200Y-108205189D01*
G37*
X153746200Y-108205189D02*
X153682009Y-108178600D01*
X152838150Y-108178600D01*
X152679400Y-108337350D01*
X152679400Y-111683800D01*
X152699400Y-111683800D01*
X152699400Y-111937800D01*
X152679400Y-111937800D01*
X152679400Y-115284250D01*
X152838150Y-115443000D01*
X153682009Y-115443000D01*
X153746200Y-115416411D01*
X153746200Y-115595400D01*
X145465800Y-115595400D01*
X145465800Y-112096550D01*
X150914100Y-112096550D01*
X150914100Y-114934310D01*
X151010773Y-115167699D01*
X151189402Y-115346327D01*
X151422791Y-115443000D01*
X152266650Y-115443000D01*
X152425400Y-115284250D01*
X152425400Y-111937800D01*
X151072850Y-111937800D01*
X150914100Y-112096550D01*
X145465800Y-112096550D01*
X145465800Y-111505779D01*
X145574491Y-111550800D01*
X145815050Y-111550800D01*
X145973800Y-111392050D01*
X145973800Y-110667800D01*
X146227800Y-110667800D01*
X146227800Y-111392050D01*
X146386550Y-111550800D01*
X146627109Y-111550800D01*
X146860498Y-111454127D01*
X147039127Y-111275499D01*
X147135800Y-111042110D01*
X147135800Y-110826550D01*
X146977050Y-110667800D01*
X146227800Y-110667800D01*
X145973800Y-110667800D01*
X145953800Y-110667800D01*
X145953800Y-110413800D01*
X145973800Y-110413800D01*
X145973800Y-109689550D01*
X146227800Y-109689550D01*
X146227800Y-110413800D01*
X146977050Y-110413800D01*
X147135800Y-110255050D01*
X147135800Y-110039490D01*
X147039127Y-109806101D01*
X146860498Y-109627473D01*
X146627109Y-109530800D01*
X146386550Y-109530800D01*
X146227800Y-109689550D01*
X145973800Y-109689550D01*
X145815050Y-109530800D01*
X145574491Y-109530800D01*
X145465800Y-109575821D01*
X145465800Y-108687290D01*
X150914100Y-108687290D01*
X150914100Y-111525050D01*
X151072850Y-111683800D01*
X152425400Y-111683800D01*
X152425400Y-108337350D01*
X152266650Y-108178600D01*
X151422791Y-108178600D01*
X151189402Y-108275273D01*
X151010773Y-108453901D01*
X150914100Y-108687290D01*
X145465800Y-108687290D01*
X145465800Y-107924600D01*
X153746200Y-107924600D01*
X153746200Y-108205189D01*
G04 #@! TO.N,GND*
G36*
X181025122Y-34970922D02*
X180783966Y-34388720D01*
X180183380Y-33788134D01*
X179398678Y-33463100D01*
X178549322Y-33463100D01*
X177764620Y-33788134D01*
X177164034Y-34388720D01*
X176839000Y-35173422D01*
X176839000Y-36022778D01*
X177164034Y-36807480D01*
X177764620Y-37408066D01*
X178549322Y-37733100D01*
X179398678Y-37733100D01*
X180183380Y-37408066D01*
X180783966Y-36807480D01*
X181024004Y-36227978D01*
X181006533Y-55864340D01*
X180918865Y-55733135D01*
X180344963Y-55349666D01*
X179668000Y-55215010D01*
X178991038Y-55349666D01*
X178417136Y-55733135D01*
X178033667Y-56307037D01*
X177933001Y-56813120D01*
X177933001Y-57056636D01*
X174252406Y-57056636D01*
X174444963Y-57018334D01*
X175018865Y-56634865D01*
X175402334Y-56060963D01*
X175536990Y-55384000D01*
X175402334Y-54707037D01*
X175018865Y-54133135D01*
X174444963Y-53749666D01*
X174001545Y-53661465D01*
X174202334Y-53360963D01*
X174336990Y-52684000D01*
X174202334Y-52007037D01*
X173818865Y-51433135D01*
X173244963Y-51049666D01*
X172738880Y-50949000D01*
X170764345Y-50949000D01*
X170681179Y-50865834D01*
X170638777Y-50802375D01*
X170387385Y-50634400D01*
X170165700Y-50590304D01*
X170165695Y-50590304D01*
X170090848Y-50575416D01*
X170016001Y-50590304D01*
X161180813Y-50590304D01*
X161065064Y-50310860D01*
X160548870Y-49794666D01*
X160079638Y-49600304D01*
X160548870Y-49405942D01*
X161065064Y-48889748D01*
X161344426Y-48215308D01*
X161344426Y-47485300D01*
X161065064Y-46810860D01*
X160548870Y-46294666D01*
X159874430Y-46015304D01*
X159144422Y-46015304D01*
X158469982Y-46294666D01*
X157953788Y-46810860D01*
X157674426Y-47485300D01*
X157674426Y-48215308D01*
X157953788Y-48889748D01*
X158469982Y-49405942D01*
X158939214Y-49600304D01*
X158469982Y-49794666D01*
X157953788Y-50310860D01*
X157674426Y-50985300D01*
X157674426Y-51715308D01*
X157953788Y-52389748D01*
X158469982Y-52905942D01*
X158939214Y-53100304D01*
X158469982Y-53294666D01*
X157953788Y-53810860D01*
X157674426Y-54485300D01*
X157674426Y-55215308D01*
X157953788Y-55889748D01*
X158469982Y-56405942D01*
X158703973Y-56502864D01*
X158309426Y-56502864D01*
X158061661Y-56552147D01*
X157851617Y-56692495D01*
X157711269Y-56902539D01*
X157661986Y-57150304D01*
X157661986Y-59550304D01*
X157711269Y-59798069D01*
X157851617Y-60008113D01*
X158061661Y-60148461D01*
X158309426Y-60197744D01*
X160709426Y-60197744D01*
X160957191Y-60148461D01*
X161167235Y-60008113D01*
X161307583Y-59798069D01*
X161356866Y-59550304D01*
X161356866Y-57772546D01*
X161952794Y-58368474D01*
X161995193Y-58431929D01*
X162058648Y-58474328D01*
X162058649Y-58474329D01*
X162246584Y-58599903D01*
X162543121Y-58658888D01*
X162543122Y-58658888D01*
X162839659Y-58599903D01*
X162874481Y-58576636D01*
X177933000Y-58576636D01*
X177933000Y-58954879D01*
X178033666Y-59460962D01*
X178417135Y-60034865D01*
X178991037Y-60418334D01*
X179668000Y-60552990D01*
X180344962Y-60418334D01*
X180918865Y-60034865D01*
X181002935Y-59909045D01*
X180997599Y-65906432D01*
X180783446Y-65389420D01*
X180182860Y-64788834D01*
X179398158Y-64463800D01*
X178548802Y-64463800D01*
X177764100Y-64788834D01*
X177163514Y-65389420D01*
X176838480Y-66174122D01*
X176838480Y-67023478D01*
X177163514Y-67808180D01*
X177764100Y-68408766D01*
X178548802Y-68733800D01*
X179398158Y-68733800D01*
X180182860Y-68408766D01*
X180783446Y-67808180D01*
X180996365Y-67294149D01*
X180926454Y-145873301D01*
X107719146Y-145823499D01*
X107693226Y-116700120D01*
X109859485Y-116700120D01*
X109988733Y-116992923D01*
X110689006Y-117261188D01*
X111438635Y-117241050D01*
X112037667Y-116992923D01*
X112166915Y-116700120D01*
X111013200Y-115546405D01*
X109859485Y-116700120D01*
X107693226Y-116700120D01*
X107691750Y-115042606D01*
X109118812Y-115042606D01*
X109138950Y-115792235D01*
X109387077Y-116391267D01*
X109679880Y-116520515D01*
X110833595Y-115366800D01*
X111192805Y-115366800D01*
X112346520Y-116520515D01*
X112639323Y-116391267D01*
X112907588Y-115690994D01*
X112887450Y-114941365D01*
X112639323Y-114342333D01*
X112346520Y-114213085D01*
X111192805Y-115366800D01*
X110833595Y-115366800D01*
X109679880Y-114213085D01*
X109387077Y-114342333D01*
X109118812Y-115042606D01*
X107691750Y-115042606D01*
X107690852Y-114033480D01*
X109859485Y-114033480D01*
X111013200Y-115187195D01*
X112166915Y-114033480D01*
X112037667Y-113740677D01*
X111337394Y-113472412D01*
X110587765Y-113492550D01*
X109988733Y-113740677D01*
X109859485Y-114033480D01*
X107690852Y-114033480D01*
X107669021Y-89506926D01*
X107931000Y-89506926D01*
X107931000Y-89918674D01*
X108088569Y-90299080D01*
X108379720Y-90590231D01*
X108760126Y-90747800D01*
X109171874Y-90747800D01*
X109552280Y-90590231D01*
X109669711Y-90472800D01*
X114493102Y-90472800D01*
X114418001Y-90585195D01*
X114368718Y-90832960D01*
X114368718Y-92532960D01*
X114418001Y-92780725D01*
X114558349Y-92990769D01*
X114768393Y-93131117D01*
X115016158Y-93180400D01*
X116716158Y-93180400D01*
X116963923Y-93131117D01*
X117173967Y-92990769D01*
X117314315Y-92780725D01*
X117323342Y-92735341D01*
X117335533Y-92753585D01*
X117520003Y-92876844D01*
X117379800Y-93215326D01*
X117379800Y-93627074D01*
X117537369Y-94007480D01*
X117609299Y-94079410D01*
X117335533Y-94262335D01*
X117323342Y-94280579D01*
X117314315Y-94235195D01*
X117173967Y-94025151D01*
X116963923Y-93884803D01*
X116716158Y-93835520D01*
X115016158Y-93835520D01*
X114768393Y-93884803D01*
X114558349Y-94025151D01*
X114418001Y-94235195D01*
X114368718Y-94482960D01*
X114368718Y-96182960D01*
X114418001Y-96430725D01*
X114558349Y-96640769D01*
X114768393Y-96781117D01*
X115016158Y-96830400D01*
X116716158Y-96830400D01*
X116963923Y-96781117D01*
X117173967Y-96640769D01*
X117314315Y-96430725D01*
X117323342Y-96385341D01*
X117335533Y-96403585D01*
X117418480Y-96459009D01*
X117384969Y-96492520D01*
X117227400Y-96872926D01*
X117227400Y-97284674D01*
X117290247Y-97436400D01*
X116578511Y-97436400D01*
X116461080Y-97318969D01*
X116080674Y-97161400D01*
X115668926Y-97161400D01*
X115288520Y-97318969D01*
X114997369Y-97610120D01*
X114839800Y-97990526D01*
X114839800Y-98402274D01*
X114997369Y-98782680D01*
X115288520Y-99073831D01*
X115509956Y-99165553D01*
X115464575Y-99195875D01*
X115265200Y-99494261D01*
X115065825Y-99195875D01*
X114574618Y-98867661D01*
X114141456Y-98781500D01*
X113848944Y-98781500D01*
X113415782Y-98867661D01*
X112924575Y-99195875D01*
X112725200Y-99494261D01*
X112525825Y-99195875D01*
X112034618Y-98867661D01*
X111601456Y-98781500D01*
X111308944Y-98781500D01*
X110875782Y-98867661D01*
X110384575Y-99195875D01*
X110056361Y-99687082D01*
X109941108Y-100266500D01*
X110056361Y-100845918D01*
X110384575Y-101337125D01*
X110875782Y-101665339D01*
X111308944Y-101751500D01*
X111601456Y-101751500D01*
X112034618Y-101665339D01*
X112525825Y-101337125D01*
X112725200Y-101038739D01*
X112924575Y-101337125D01*
X113415782Y-101665339D01*
X113848944Y-101751500D01*
X114141456Y-101751500D01*
X114574618Y-101665339D01*
X115065825Y-101337125D01*
X115265200Y-101038739D01*
X115464575Y-101337125D01*
X115955782Y-101665339D01*
X116388944Y-101751500D01*
X116681456Y-101751500D01*
X117114618Y-101665339D01*
X117605825Y-101337125D01*
X117805200Y-101038739D01*
X118004575Y-101337125D01*
X118495782Y-101665339D01*
X118928944Y-101751500D01*
X119221456Y-101751500D01*
X119654618Y-101665339D01*
X120145825Y-101337125D01*
X120345200Y-101038739D01*
X120544575Y-101337125D01*
X121035782Y-101665339D01*
X121468944Y-101751500D01*
X121761456Y-101751500D01*
X122194618Y-101665339D01*
X122685825Y-101337125D01*
X122698016Y-101318881D01*
X122707043Y-101364265D01*
X122847391Y-101574309D01*
X123057435Y-101714657D01*
X123305200Y-101763940D01*
X125005200Y-101763940D01*
X125252965Y-101714657D01*
X125463009Y-101574309D01*
X125603357Y-101364265D01*
X125652640Y-101116500D01*
X125652640Y-99416500D01*
X125603357Y-99168735D01*
X125463009Y-98958691D01*
X125459580Y-98956400D01*
X128955800Y-98956400D01*
X128955800Y-104163936D01*
X128713600Y-104115760D01*
X127013600Y-104115760D01*
X126765835Y-104165043D01*
X126555791Y-104305391D01*
X126415443Y-104515435D01*
X126406416Y-104560819D01*
X126394225Y-104542575D01*
X125903018Y-104214361D01*
X125469856Y-104128200D01*
X125177344Y-104128200D01*
X124744182Y-104214361D01*
X124252975Y-104542575D01*
X124053600Y-104840961D01*
X123854225Y-104542575D01*
X123363018Y-104214361D01*
X122929856Y-104128200D01*
X122637344Y-104128200D01*
X122204182Y-104214361D01*
X121712975Y-104542575D01*
X121513600Y-104840961D01*
X121314225Y-104542575D01*
X120823018Y-104214361D01*
X120389856Y-104128200D01*
X120097344Y-104128200D01*
X119664182Y-104214361D01*
X119172975Y-104542575D01*
X118973600Y-104840961D01*
X118774225Y-104542575D01*
X118283018Y-104214361D01*
X117849856Y-104128200D01*
X117557344Y-104128200D01*
X117124182Y-104214361D01*
X116632975Y-104542575D01*
X116433600Y-104840961D01*
X116234225Y-104542575D01*
X115743018Y-104214361D01*
X115309856Y-104128200D01*
X115017344Y-104128200D01*
X114584182Y-104214361D01*
X114092975Y-104542575D01*
X113893600Y-104840961D01*
X113694225Y-104542575D01*
X113203018Y-104214361D01*
X112769856Y-104128200D01*
X112477344Y-104128200D01*
X112044182Y-104214361D01*
X111552975Y-104542575D01*
X111353600Y-104840961D01*
X111154225Y-104542575D01*
X110663018Y-104214361D01*
X110229856Y-104128200D01*
X109937344Y-104128200D01*
X109504182Y-104214361D01*
X109012975Y-104542575D01*
X108684761Y-105033782D01*
X108569508Y-105613200D01*
X108684761Y-106192618D01*
X109012975Y-106683825D01*
X109504182Y-107012039D01*
X109937344Y-107098200D01*
X110229856Y-107098200D01*
X110663018Y-107012039D01*
X111154225Y-106683825D01*
X111353600Y-106385439D01*
X111552975Y-106683825D01*
X112044182Y-107012039D01*
X112477344Y-107098200D01*
X112769856Y-107098200D01*
X113203018Y-107012039D01*
X113694225Y-106683825D01*
X113893600Y-106385439D01*
X114092975Y-106683825D01*
X114584182Y-107012039D01*
X115017344Y-107098200D01*
X115309856Y-107098200D01*
X115743018Y-107012039D01*
X116234225Y-106683825D01*
X116433600Y-106385439D01*
X116632975Y-106683825D01*
X117124182Y-107012039D01*
X117557344Y-107098200D01*
X117849856Y-107098200D01*
X118283018Y-107012039D01*
X118774225Y-106683825D01*
X118973600Y-106385439D01*
X119172975Y-106683825D01*
X119664182Y-107012039D01*
X120097344Y-107098200D01*
X120389856Y-107098200D01*
X120823018Y-107012039D01*
X121314225Y-106683825D01*
X121513600Y-106385439D01*
X121712975Y-106683825D01*
X122204182Y-107012039D01*
X122637344Y-107098200D01*
X122929856Y-107098200D01*
X123363018Y-107012039D01*
X123854225Y-106683825D01*
X124053600Y-106385439D01*
X124252975Y-106683825D01*
X124744182Y-107012039D01*
X125177344Y-107098200D01*
X125469856Y-107098200D01*
X125903018Y-107012039D01*
X126394225Y-106683825D01*
X126406416Y-106665581D01*
X126415443Y-106710965D01*
X126555791Y-106921009D01*
X126765835Y-107061357D01*
X127013600Y-107110640D01*
X128713600Y-107110640D01*
X128955800Y-107062464D01*
X128955800Y-110515400D01*
X127000000Y-110515400D01*
X126951399Y-110525067D01*
X126910197Y-110552597D01*
X126882667Y-110593799D01*
X126873000Y-110642400D01*
X126873000Y-113682631D01*
X126388150Y-113481800D01*
X125638250Y-113481800D01*
X124945433Y-113768774D01*
X124415174Y-114299033D01*
X124128200Y-114991850D01*
X124128200Y-115741750D01*
X124278200Y-116103883D01*
X124278201Y-123254940D01*
X124259341Y-123273800D01*
X117748200Y-123273800D01*
X117748200Y-116700120D01*
X119859485Y-116700120D01*
X119988733Y-116992923D01*
X120689006Y-117261188D01*
X121438635Y-117241050D01*
X122037667Y-116992923D01*
X122166915Y-116700120D01*
X121013200Y-115546405D01*
X119859485Y-116700120D01*
X117748200Y-116700120D01*
X117748200Y-116103882D01*
X117898200Y-115741750D01*
X117898200Y-115042606D01*
X119118812Y-115042606D01*
X119138950Y-115792235D01*
X119387077Y-116391267D01*
X119679880Y-116520515D01*
X120833595Y-115366800D01*
X121192805Y-115366800D01*
X122346520Y-116520515D01*
X122639323Y-116391267D01*
X122907588Y-115690994D01*
X122887450Y-114941365D01*
X122639323Y-114342333D01*
X122346520Y-114213085D01*
X121192805Y-115366800D01*
X120833595Y-115366800D01*
X119679880Y-114213085D01*
X119387077Y-114342333D01*
X119118812Y-115042606D01*
X117898200Y-115042606D01*
X117898200Y-114991850D01*
X117611226Y-114299033D01*
X117345673Y-114033480D01*
X119859485Y-114033480D01*
X121013200Y-115187195D01*
X122166915Y-114033480D01*
X122037667Y-113740677D01*
X121337394Y-113472412D01*
X120587765Y-113492550D01*
X119988733Y-113740677D01*
X119859485Y-114033480D01*
X117345673Y-114033480D01*
X117080967Y-113768774D01*
X116388150Y-113481800D01*
X115638250Y-113481800D01*
X114945433Y-113768774D01*
X114415174Y-114299033D01*
X114128200Y-114991850D01*
X114128200Y-115741750D01*
X114278201Y-116103884D01*
X114278200Y-124541271D01*
X114183214Y-125018800D01*
X114217401Y-125190670D01*
X114217400Y-128794724D01*
X112984423Y-130027701D01*
X112838727Y-130125053D01*
X112741375Y-130270750D01*
X112741372Y-130270753D01*
X112453047Y-130702262D01*
X112317615Y-131383127D01*
X112351801Y-131554992D01*
X112351801Y-132230100D01*
X112074895Y-132507006D01*
X111711800Y-133383594D01*
X111711800Y-134332406D01*
X112074895Y-135208994D01*
X112745806Y-135879905D01*
X113622394Y-136243000D01*
X114571206Y-136243000D01*
X115447794Y-135879905D01*
X115775171Y-135552528D01*
X119541477Y-135552528D01*
X119731764Y-135897271D01*
X120612991Y-136248956D01*
X121561723Y-136236641D01*
X122381036Y-135897271D01*
X122571323Y-135552528D01*
X121056400Y-134037605D01*
X119541477Y-135552528D01*
X115775171Y-135552528D01*
X116118705Y-135208994D01*
X116481800Y-134332406D01*
X116481800Y-133414591D01*
X118665444Y-133414591D01*
X118677759Y-134363323D01*
X119017129Y-135182636D01*
X119361872Y-135372923D01*
X120876795Y-133858000D01*
X121236005Y-133858000D01*
X122750928Y-135372923D01*
X123095671Y-135182636D01*
X123447356Y-134301409D01*
X123435443Y-133383594D01*
X125681800Y-133383594D01*
X125681800Y-134332406D01*
X126044895Y-135208994D01*
X126715806Y-135879905D01*
X127592394Y-136243000D01*
X128541206Y-136243000D01*
X129417794Y-135879905D01*
X129694699Y-135603000D01*
X130713538Y-135603000D01*
X130968928Y-135552200D01*
X144609800Y-135552200D01*
X144609801Y-143134930D01*
X144575614Y-143306800D01*
X144711046Y-143987665D01*
X145096726Y-144564874D01*
X145673935Y-144950554D01*
X146182935Y-145051800D01*
X146354800Y-145085986D01*
X146526665Y-145051800D01*
X151474368Y-145051800D01*
X151878438Y-145455870D01*
X152810157Y-145841800D01*
X153818643Y-145841800D01*
X154750362Y-145455870D01*
X155463470Y-144742762D01*
X155849400Y-143811043D01*
X155849400Y-142802557D01*
X155463470Y-141870838D01*
X154750362Y-141157730D01*
X153818643Y-140771800D01*
X152810157Y-140771800D01*
X151878438Y-141157730D01*
X151474368Y-141561800D01*
X148099800Y-141561800D01*
X148099800Y-134942200D01*
X153222983Y-134942200D01*
X153394043Y-134908174D01*
X153565102Y-134942200D01*
X163965000Y-134942200D01*
X163965001Y-141033067D01*
X163664038Y-141157730D01*
X162950930Y-141870838D01*
X162565000Y-142802557D01*
X162565000Y-143811043D01*
X162950930Y-144742762D01*
X163664038Y-145455870D01*
X164595757Y-145841800D01*
X165604243Y-145841800D01*
X166535962Y-145455870D01*
X167249070Y-144742762D01*
X167635000Y-143811043D01*
X167635000Y-142802557D01*
X167249070Y-141870838D01*
X166535962Y-141157730D01*
X166235000Y-141033068D01*
X166235000Y-134891400D01*
X176062617Y-134891400D01*
X176174400Y-134913635D01*
X176286183Y-134891400D01*
X176617255Y-134825546D01*
X176992689Y-134574689D01*
X177243546Y-134199255D01*
X177331635Y-133756400D01*
X177309400Y-133644617D01*
X177309400Y-126781697D01*
X177444985Y-126691101D01*
X177585333Y-126481057D01*
X177634616Y-126233292D01*
X177634616Y-124533292D01*
X177585333Y-124285527D01*
X177444985Y-124075483D01*
X177234941Y-123935135D01*
X176987176Y-123885852D01*
X175287176Y-123885852D01*
X175039411Y-123935135D01*
X174829367Y-124075483D01*
X174689019Y-124285527D01*
X174639736Y-124533292D01*
X174639736Y-126233292D01*
X174689019Y-126481057D01*
X174829367Y-126691101D01*
X175039401Y-126831442D01*
X175039400Y-132621400D01*
X165553902Y-132621400D01*
X165382842Y-132655426D01*
X165100000Y-132599165D01*
X164732827Y-132672200D01*
X153565102Y-132672200D01*
X153394043Y-132706226D01*
X153222983Y-132672200D01*
X147695110Y-132672200D01*
X147612874Y-132549126D01*
X147035665Y-132163446D01*
X146526665Y-132062200D01*
X146354800Y-132028014D01*
X146182935Y-132062200D01*
X130420608Y-132062200D01*
X130165218Y-132113000D01*
X129694699Y-132113000D01*
X129417794Y-131836095D01*
X128541206Y-131473000D01*
X127592394Y-131473000D01*
X126715806Y-131836095D01*
X126044895Y-132507006D01*
X125681800Y-133383594D01*
X123435443Y-133383594D01*
X123435041Y-133352677D01*
X123095671Y-132533364D01*
X122750928Y-132343077D01*
X121236005Y-133858000D01*
X120876795Y-133858000D01*
X119361872Y-132343077D01*
X119017129Y-132533364D01*
X118665444Y-133414591D01*
X116481800Y-133414591D01*
X116481800Y-133383594D01*
X116118705Y-132507006D01*
X115841800Y-132230101D01*
X115841800Y-132163472D01*
X119541477Y-132163472D01*
X121056400Y-133678395D01*
X122571323Y-132163472D01*
X122381036Y-131818729D01*
X121499809Y-131467044D01*
X120551077Y-131479359D01*
X119731764Y-131818729D01*
X119541477Y-132163472D01*
X115841800Y-132163472D01*
X115841800Y-132105929D01*
X116663130Y-131284600D01*
X171185817Y-131284600D01*
X171297600Y-131306835D01*
X171409383Y-131284600D01*
X171740455Y-131218746D01*
X172115889Y-130967889D01*
X172366746Y-130592455D01*
X172454835Y-130149600D01*
X172432600Y-130037817D01*
X172432600Y-126828340D01*
X172618985Y-126703801D01*
X172759333Y-126493757D01*
X172808616Y-126245992D01*
X172808616Y-124545992D01*
X172759333Y-124298227D01*
X172618985Y-124088183D01*
X172408941Y-123947835D01*
X172161176Y-123898552D01*
X170461176Y-123898552D01*
X170213411Y-123947835D01*
X170003367Y-124088183D01*
X169863019Y-124298227D01*
X169813736Y-124545992D01*
X169813736Y-126245992D01*
X169863019Y-126493757D01*
X170003367Y-126703801D01*
X170162601Y-126810198D01*
X170162600Y-129014600D01*
X149394549Y-129014600D01*
X149394549Y-127003823D01*
X149567358Y-126888355D01*
X149707706Y-126678311D01*
X149756989Y-126430546D01*
X149756989Y-124730546D01*
X149707706Y-124482781D01*
X149567358Y-124272737D01*
X149505493Y-124231400D01*
X151922025Y-124231400D01*
X151803140Y-124310837D01*
X151662792Y-124520881D01*
X151613509Y-124768646D01*
X151613509Y-126468646D01*
X151662792Y-126716411D01*
X151803140Y-126926455D01*
X152013184Y-127066803D01*
X152260949Y-127116086D01*
X153960949Y-127116086D01*
X154208714Y-127066803D01*
X154418758Y-126926455D01*
X154559106Y-126716411D01*
X154608389Y-126468646D01*
X154608389Y-124768646D01*
X154559106Y-124520881D01*
X154418758Y-124310837D01*
X154299873Y-124231400D01*
X161544000Y-124231400D01*
X161592601Y-124221733D01*
X161633803Y-124194203D01*
X161661333Y-124153001D01*
X161671000Y-124104400D01*
X161671000Y-100947332D01*
X162471076Y-100947332D01*
X162718841Y-100898049D01*
X162928885Y-100757701D01*
X163069233Y-100547657D01*
X163118516Y-100299892D01*
X163118516Y-100209892D01*
X164633781Y-100209892D01*
X164716920Y-100293031D01*
X165097326Y-100450600D01*
X165509074Y-100450600D01*
X165889480Y-100293031D01*
X166180631Y-100001880D01*
X166311952Y-99684842D01*
X169915076Y-99684842D01*
X169915076Y-100375402D01*
X170011749Y-100608791D01*
X170190378Y-100787419D01*
X170423767Y-100884092D01*
X171114326Y-100884092D01*
X171273076Y-100725342D01*
X171273076Y-99526092D01*
X171527076Y-99526092D01*
X171527076Y-100725342D01*
X171685826Y-100884092D01*
X172376385Y-100884092D01*
X172609774Y-100787419D01*
X172788403Y-100608791D01*
X172885076Y-100375402D01*
X172885076Y-99684842D01*
X172726326Y-99526092D01*
X171527076Y-99526092D01*
X171273076Y-99526092D01*
X170073826Y-99526092D01*
X169915076Y-99684842D01*
X166311952Y-99684842D01*
X166338200Y-99621474D01*
X166338200Y-99209726D01*
X166180631Y-98829320D01*
X165889480Y-98538169D01*
X165610911Y-98422782D01*
X169915076Y-98422782D01*
X169915076Y-99113342D01*
X170073826Y-99272092D01*
X171273076Y-99272092D01*
X171273076Y-98072842D01*
X171527076Y-98072842D01*
X171527076Y-99272092D01*
X172726326Y-99272092D01*
X172885076Y-99113342D01*
X172885076Y-98422782D01*
X172788403Y-98189393D01*
X172609774Y-98010765D01*
X172376385Y-97914092D01*
X171685826Y-97914092D01*
X171527076Y-98072842D01*
X171273076Y-98072842D01*
X171114326Y-97914092D01*
X170423767Y-97914092D01*
X170190378Y-98010765D01*
X170011749Y-98189393D01*
X169915076Y-98422782D01*
X165610911Y-98422782D01*
X165509074Y-98380600D01*
X165097326Y-98380600D01*
X164716920Y-98538169D01*
X164565197Y-98689892D01*
X163118516Y-98689892D01*
X163118516Y-98599892D01*
X163069233Y-98352127D01*
X162928885Y-98142083D01*
X162718841Y-98001735D01*
X162471076Y-97952452D01*
X161671000Y-97952452D01*
X161671000Y-97463708D01*
X161766200Y-97233874D01*
X161766200Y-96822126D01*
X161671000Y-96592292D01*
X161671000Y-96113600D01*
X161661333Y-96064999D01*
X161633803Y-96023797D01*
X161592601Y-95996267D01*
X161544000Y-95986600D01*
X157231722Y-95986600D01*
X157222014Y-95972071D01*
X156970622Y-95804096D01*
X156827797Y-95775686D01*
X156694680Y-95642569D01*
X156314274Y-95485000D01*
X155902526Y-95485000D01*
X155561079Y-95626432D01*
X155568600Y-95608274D01*
X155568600Y-95196526D01*
X155411031Y-94816120D01*
X155119880Y-94524969D01*
X154739474Y-94367400D01*
X154327726Y-94367400D01*
X153947320Y-94524969D01*
X153829889Y-94642400D01*
X141823600Y-94642400D01*
X141823600Y-94503750D01*
X141664850Y-94345000D01*
X140690600Y-94345000D01*
X140690600Y-94365000D01*
X140436600Y-94365000D01*
X140436600Y-94345000D01*
X140416600Y-94345000D01*
X140416600Y-94091000D01*
X140436600Y-94091000D01*
X140436600Y-94071000D01*
X140690600Y-94071000D01*
X140690600Y-94091000D01*
X141664850Y-94091000D01*
X141823600Y-93932250D01*
X141823600Y-93591691D01*
X141726927Y-93358302D01*
X141585280Y-93216654D01*
X141646409Y-93175809D01*
X141778582Y-92978000D01*
X142114160Y-92978000D01*
X142114160Y-93102800D01*
X142163443Y-93350565D01*
X142303791Y-93560609D01*
X142513835Y-93700957D01*
X142761600Y-93750240D01*
X144461600Y-93750240D01*
X144709365Y-93700957D01*
X144919409Y-93560609D01*
X145059757Y-93350565D01*
X145068784Y-93305181D01*
X145080975Y-93323425D01*
X145572182Y-93651639D01*
X146005344Y-93737800D01*
X146297856Y-93737800D01*
X146731018Y-93651639D01*
X147222225Y-93323425D01*
X147421600Y-93025039D01*
X147620975Y-93323425D01*
X148112182Y-93651639D01*
X148545344Y-93737800D01*
X148837856Y-93737800D01*
X149271018Y-93651639D01*
X149762225Y-93323425D01*
X149975443Y-93004322D01*
X150036417Y-93134158D01*
X150464676Y-93524445D01*
X150874710Y-93694276D01*
X151104600Y-93572955D01*
X151104600Y-92379800D01*
X151358600Y-92379800D01*
X151358600Y-93572955D01*
X151588490Y-93694276D01*
X151998524Y-93524445D01*
X152426783Y-93134158D01*
X152673086Y-92609692D01*
X152635745Y-92538550D01*
X158789000Y-92538550D01*
X158789000Y-93229109D01*
X158885673Y-93462498D01*
X159064301Y-93641127D01*
X159297690Y-93737800D01*
X159988250Y-93737800D01*
X160147000Y-93579050D01*
X160147000Y-92379800D01*
X158947750Y-92379800D01*
X158789000Y-92538550D01*
X152635745Y-92538550D01*
X152552419Y-92379800D01*
X151358600Y-92379800D01*
X151104600Y-92379800D01*
X151084600Y-92379800D01*
X151084600Y-92125800D01*
X151104600Y-92125800D01*
X151104600Y-90932645D01*
X151358600Y-90932645D01*
X151358600Y-92125800D01*
X152552419Y-92125800D01*
X152673086Y-91895908D01*
X152426783Y-91371442D01*
X152322594Y-91276491D01*
X158789000Y-91276491D01*
X158789000Y-91967050D01*
X158947750Y-92125800D01*
X160147000Y-92125800D01*
X160147000Y-90926550D01*
X160401000Y-90926550D01*
X160401000Y-92125800D01*
X160421000Y-92125800D01*
X160421000Y-92379800D01*
X160401000Y-92379800D01*
X160401000Y-93579050D01*
X160559750Y-93737800D01*
X161250310Y-93737800D01*
X161483699Y-93641127D01*
X161662327Y-93462498D01*
X161728904Y-93301767D01*
X161743375Y-93323425D01*
X162234582Y-93651639D01*
X162667744Y-93737800D01*
X162960256Y-93737800D01*
X163393418Y-93651639D01*
X163884625Y-93323425D01*
X164084000Y-93025039D01*
X164283375Y-93323425D01*
X164774582Y-93651639D01*
X165207744Y-93737800D01*
X165500256Y-93737800D01*
X165933418Y-93651639D01*
X166424625Y-93323425D01*
X166752839Y-92832218D01*
X166868092Y-92252800D01*
X166752839Y-91673382D01*
X166424625Y-91182175D01*
X165933418Y-90853961D01*
X165500256Y-90767800D01*
X165207744Y-90767800D01*
X164774582Y-90853961D01*
X164283375Y-91182175D01*
X164084000Y-91480561D01*
X163884625Y-91182175D01*
X163393418Y-90853961D01*
X162960256Y-90767800D01*
X162667744Y-90767800D01*
X162234582Y-90853961D01*
X161743375Y-91182175D01*
X161728904Y-91203833D01*
X161662327Y-91043102D01*
X161483699Y-90864473D01*
X161250310Y-90767800D01*
X160559750Y-90767800D01*
X160401000Y-90926550D01*
X160147000Y-90926550D01*
X159988250Y-90767800D01*
X159297690Y-90767800D01*
X159064301Y-90864473D01*
X158885673Y-91043102D01*
X158789000Y-91276491D01*
X152322594Y-91276491D01*
X151998524Y-90981155D01*
X151588490Y-90811324D01*
X151358600Y-90932645D01*
X151104600Y-90932645D01*
X150874710Y-90811324D01*
X150464676Y-90981155D01*
X150036417Y-91371442D01*
X149975443Y-91501278D01*
X149762225Y-91182175D01*
X149271018Y-90853961D01*
X148837856Y-90767800D01*
X148545344Y-90767800D01*
X148112182Y-90853961D01*
X147620975Y-91182175D01*
X147421600Y-91480561D01*
X147222225Y-91182175D01*
X146731018Y-90853961D01*
X146297856Y-90767800D01*
X146005344Y-90767800D01*
X145572182Y-90853961D01*
X145080975Y-91182175D01*
X145068784Y-91200419D01*
X145059757Y-91155035D01*
X144919409Y-90944991D01*
X144709365Y-90804643D01*
X144461600Y-90755360D01*
X142761600Y-90755360D01*
X142513835Y-90804643D01*
X142303791Y-90944991D01*
X142163443Y-91155035D01*
X142114160Y-91402800D01*
X142114160Y-91458000D01*
X141778582Y-91458000D01*
X141646409Y-91260191D01*
X141436365Y-91119843D01*
X141188600Y-91070560D01*
X139938600Y-91070560D01*
X139690835Y-91119843D01*
X139480791Y-91260191D01*
X139359309Y-91442000D01*
X132072511Y-91442000D01*
X131955080Y-91324569D01*
X131574674Y-91167000D01*
X131408601Y-91167000D01*
X130987832Y-90746231D01*
X130945430Y-90682772D01*
X130694038Y-90514797D01*
X130659345Y-90507896D01*
X130749292Y-90055700D01*
X130634039Y-89476282D01*
X130305825Y-88985075D01*
X130007439Y-88785700D01*
X130305825Y-88586325D01*
X130386049Y-88466262D01*
X131659859Y-89740073D01*
X131702259Y-89803529D01*
X131953651Y-89971504D01*
X132175336Y-90015600D01*
X132175340Y-90015600D01*
X132250187Y-90030488D01*
X132325034Y-90015600D01*
X148038689Y-90015600D01*
X148105320Y-90082231D01*
X148485726Y-90239800D01*
X148897474Y-90239800D01*
X149277880Y-90082231D01*
X149569031Y-89791080D01*
X149726600Y-89410674D01*
X149726600Y-88998926D01*
X149569031Y-88618520D01*
X149277880Y-88327369D01*
X148897474Y-88169800D01*
X148485726Y-88169800D01*
X148105320Y-88327369D01*
X147937089Y-88495600D01*
X132564990Y-88495600D01*
X131138589Y-87069200D01*
X144127089Y-87069200D01*
X144244520Y-87186631D01*
X144624926Y-87344200D01*
X145036674Y-87344200D01*
X145417080Y-87186631D01*
X145708231Y-86895480D01*
X145865800Y-86515074D01*
X145865800Y-86277400D01*
X146154274Y-86277400D01*
X146534680Y-86119831D01*
X146825831Y-85828680D01*
X146983400Y-85448274D01*
X146983400Y-85036526D01*
X146934533Y-84918550D01*
X148324200Y-84918550D01*
X148324200Y-85609110D01*
X148420873Y-85842499D01*
X148599502Y-86021127D01*
X148832891Y-86117800D01*
X149523450Y-86117800D01*
X149682200Y-85959050D01*
X149682200Y-84759800D01*
X149936200Y-84759800D01*
X149936200Y-85959050D01*
X150094950Y-86117800D01*
X150785509Y-86117800D01*
X151018898Y-86021127D01*
X151197527Y-85842499D01*
X151294200Y-85609110D01*
X151294200Y-84918550D01*
X151135450Y-84759800D01*
X149936200Y-84759800D01*
X149682200Y-84759800D01*
X148482950Y-84759800D01*
X148324200Y-84918550D01*
X146934533Y-84918550D01*
X146825831Y-84656120D01*
X146534680Y-84364969D01*
X146154274Y-84207400D01*
X146018200Y-84207400D01*
X146018200Y-83817326D01*
X145860631Y-83436920D01*
X145569480Y-83145769D01*
X145189074Y-82988200D01*
X144777326Y-82988200D01*
X144396920Y-83145769D01*
X144279489Y-83263200D01*
X144068474Y-83263200D01*
X144032818Y-83083943D01*
X143892470Y-82873899D01*
X143831341Y-82833054D01*
X143972988Y-82691406D01*
X144069661Y-82458017D01*
X144069661Y-82117458D01*
X143910911Y-81958708D01*
X142936661Y-81958708D01*
X142936661Y-81978708D01*
X142682661Y-81978708D01*
X142682661Y-81958708D01*
X141708411Y-81958708D01*
X141617861Y-82049258D01*
X141523311Y-81954708D01*
X140549061Y-81954708D01*
X140549061Y-81974708D01*
X140295061Y-81974708D01*
X140295061Y-81954708D01*
X139320811Y-81954708D01*
X139162061Y-82113458D01*
X139162061Y-82454017D01*
X139258734Y-82687406D01*
X139400381Y-82829054D01*
X139339252Y-82869899D01*
X139207079Y-83067708D01*
X138671640Y-83067708D01*
X138586225Y-82939875D01*
X138287839Y-82740500D01*
X138586225Y-82541125D01*
X138914439Y-82049918D01*
X139029692Y-81470500D01*
X138914439Y-80891082D01*
X138897346Y-80865501D01*
X139361242Y-80865501D01*
X139258734Y-80968010D01*
X139162061Y-81201399D01*
X139162061Y-81541958D01*
X139320811Y-81700708D01*
X140295061Y-81700708D01*
X140295061Y-81680708D01*
X140549061Y-81680708D01*
X140549061Y-81700708D01*
X141523311Y-81700708D01*
X141613861Y-81610158D01*
X141708411Y-81704708D01*
X142682661Y-81704708D01*
X142682661Y-80855458D01*
X142936661Y-80855458D01*
X142936661Y-81704708D01*
X143910911Y-81704708D01*
X144069661Y-81545958D01*
X144069661Y-81205399D01*
X143972988Y-80972010D01*
X143794360Y-80793381D01*
X143560971Y-80696708D01*
X143095411Y-80696708D01*
X142936661Y-80855458D01*
X142682661Y-80855458D01*
X142523911Y-80696708D01*
X142058351Y-80696708D01*
X141824962Y-80793381D01*
X141646334Y-80972010D01*
X141616689Y-81043578D01*
X141585388Y-80968010D01*
X141406760Y-80789381D01*
X141173371Y-80692708D01*
X141033704Y-80692708D01*
X141034631Y-80691781D01*
X141192200Y-80311375D01*
X141192200Y-79899627D01*
X141034631Y-79519221D01*
X140760736Y-79245326D01*
X141814600Y-79245326D01*
X141814600Y-79657074D01*
X141972169Y-80037480D01*
X142263320Y-80328631D01*
X142643726Y-80486200D01*
X143055474Y-80486200D01*
X143435880Y-80328631D01*
X143553311Y-80211200D01*
X148463135Y-80211200D01*
X148738575Y-80623425D01*
X149036961Y-80822800D01*
X148738575Y-81022175D01*
X148410361Y-81513382D01*
X148295108Y-82092800D01*
X148410361Y-82672218D01*
X148738575Y-83163425D01*
X148760233Y-83177896D01*
X148599502Y-83244473D01*
X148420873Y-83423101D01*
X148324200Y-83656490D01*
X148324200Y-84347050D01*
X148482950Y-84505800D01*
X149682200Y-84505800D01*
X149682200Y-84485800D01*
X149936200Y-84485800D01*
X149936200Y-84505800D01*
X151135450Y-84505800D01*
X151294200Y-84347050D01*
X151294200Y-83656490D01*
X151197527Y-83423101D01*
X151018898Y-83244473D01*
X150858167Y-83177896D01*
X150879825Y-83163425D01*
X151087378Y-82852800D01*
X151273955Y-82852800D01*
X151278443Y-82875365D01*
X151418791Y-83085409D01*
X151628835Y-83225757D01*
X151876600Y-83275040D01*
X153126600Y-83275040D01*
X153374365Y-83225757D01*
X153584409Y-83085409D01*
X153671947Y-82954400D01*
X153829889Y-82954400D01*
X153947320Y-83071831D01*
X154327726Y-83229400D01*
X154739474Y-83229400D01*
X155119880Y-83071831D01*
X155411031Y-82780680D01*
X155568600Y-82400274D01*
X155568600Y-81988526D01*
X155411031Y-81608120D01*
X155119880Y-81316969D01*
X154739474Y-81159400D01*
X154327726Y-81159400D01*
X153947320Y-81316969D01*
X153829889Y-81434400D01*
X153735611Y-81434400D01*
X153724757Y-81379835D01*
X153584409Y-81169791D01*
X153523280Y-81128946D01*
X153664927Y-80987298D01*
X153761600Y-80753909D01*
X153761600Y-80413350D01*
X153602850Y-80254600D01*
X152628600Y-80254600D01*
X152628600Y-80274600D01*
X152374600Y-80274600D01*
X152374600Y-80254600D01*
X151400350Y-80254600D01*
X151241600Y-80413350D01*
X151241600Y-80753909D01*
X151338273Y-80987298D01*
X151479920Y-81128946D01*
X151418791Y-81169791D01*
X151309871Y-81332800D01*
X151087378Y-81332800D01*
X150879825Y-81022175D01*
X150581439Y-80822800D01*
X150879825Y-80623425D01*
X151208039Y-80132218D01*
X151261782Y-79862032D01*
X151400350Y-80000600D01*
X152374600Y-80000600D01*
X152374600Y-79151350D01*
X152628600Y-79151350D01*
X152628600Y-80000600D01*
X153602850Y-80000600D01*
X153761600Y-79841850D01*
X153761600Y-79501291D01*
X153664927Y-79267902D01*
X153486299Y-79089273D01*
X153252910Y-78992600D01*
X152787350Y-78992600D01*
X152628600Y-79151350D01*
X152374600Y-79151350D01*
X152215850Y-78992600D01*
X151750290Y-78992600D01*
X151516901Y-79089273D01*
X151338273Y-79267902D01*
X151289867Y-79384763D01*
X151208039Y-78973382D01*
X150879825Y-78482175D01*
X150581439Y-78282800D01*
X150879825Y-78083425D01*
X151208039Y-77592218D01*
X151323292Y-77012800D01*
X151208039Y-76433382D01*
X150879825Y-75942175D01*
X150581439Y-75742800D01*
X150879825Y-75543425D01*
X151208039Y-75052218D01*
X151323292Y-74472800D01*
X151208039Y-73893382D01*
X150879825Y-73402175D01*
X150388618Y-73073961D01*
X149955456Y-72987800D01*
X149662944Y-72987800D01*
X149229782Y-73073961D01*
X148738575Y-73402175D01*
X148410361Y-73893382D01*
X148295108Y-74472800D01*
X148410361Y-75052218D01*
X148738575Y-75543425D01*
X149036961Y-75742800D01*
X148738575Y-75942175D01*
X148429192Y-76405200D01*
X147312511Y-76405200D01*
X147195080Y-76287769D01*
X146814674Y-76130200D01*
X146402926Y-76130200D01*
X146022520Y-76287769D01*
X145731369Y-76578920D01*
X145573800Y-76959326D01*
X145573800Y-77371074D01*
X145731369Y-77751480D01*
X146022520Y-78042631D01*
X146402926Y-78200200D01*
X146814674Y-78200200D01*
X147195080Y-78042631D01*
X147312511Y-77925200D01*
X148632852Y-77925200D01*
X148738575Y-78083425D01*
X149036961Y-78282800D01*
X148738575Y-78482175D01*
X148598909Y-78691200D01*
X143553311Y-78691200D01*
X143435880Y-78573769D01*
X143055474Y-78416200D01*
X142643726Y-78416200D01*
X142263320Y-78573769D01*
X141972169Y-78864920D01*
X141814600Y-79245326D01*
X140760736Y-79245326D01*
X140743480Y-79228070D01*
X140363074Y-79070501D01*
X139951326Y-79070501D01*
X139570920Y-79228070D01*
X139453489Y-79345501D01*
X138933007Y-79345501D01*
X138957076Y-79287390D01*
X138835755Y-79057500D01*
X137642600Y-79057500D01*
X137642600Y-79077500D01*
X137388600Y-79077500D01*
X137388600Y-79057500D01*
X136195445Y-79057500D01*
X136074124Y-79287390D01*
X136243955Y-79697424D01*
X136354058Y-79818239D01*
X135861596Y-80310701D01*
X135681410Y-80310701D01*
X135700631Y-80291480D01*
X135858200Y-79911074D01*
X135858200Y-79499326D01*
X135700631Y-79118920D01*
X135409480Y-78827769D01*
X135029074Y-78670200D01*
X134617326Y-78670200D01*
X134236920Y-78827769D01*
X134119489Y-78945200D01*
X130386090Y-78945200D01*
X130305825Y-78825075D01*
X130007439Y-78625700D01*
X130305825Y-78426325D01*
X130634039Y-77935118D01*
X130646117Y-77874400D01*
X132493889Y-77874400D01*
X132611320Y-77991831D01*
X132991726Y-78149400D01*
X133403474Y-78149400D01*
X133783880Y-77991831D01*
X134075031Y-77700680D01*
X134232600Y-77320274D01*
X134232600Y-77163200D01*
X136245908Y-77163200D01*
X136444975Y-77461125D01*
X136764078Y-77674343D01*
X136634242Y-77735317D01*
X136243955Y-78163576D01*
X136074124Y-78573610D01*
X136195445Y-78803500D01*
X137388600Y-78803500D01*
X137388600Y-78783500D01*
X137642600Y-78783500D01*
X137642600Y-78803500D01*
X138835755Y-78803500D01*
X138957076Y-78573610D01*
X138787245Y-78163576D01*
X138396958Y-77735317D01*
X138267122Y-77674343D01*
X138586225Y-77461125D01*
X138914439Y-76969918D01*
X139029692Y-76390500D01*
X138914439Y-75811082D01*
X138897346Y-75785501D01*
X142145889Y-75785501D01*
X142263320Y-75902932D01*
X142643726Y-76060501D01*
X143055474Y-76060501D01*
X143435880Y-75902932D01*
X143727031Y-75611781D01*
X143884600Y-75231375D01*
X143884600Y-74819627D01*
X143727031Y-74439221D01*
X143435880Y-74148070D01*
X143055474Y-73990501D01*
X142643726Y-73990501D01*
X142263320Y-74148070D01*
X142145889Y-74265501D01*
X139013040Y-74265501D01*
X139013040Y-73000500D01*
X138963757Y-72752735D01*
X138823409Y-72542691D01*
X138613365Y-72402343D01*
X138365600Y-72353060D01*
X136665600Y-72353060D01*
X136417835Y-72402343D01*
X136207791Y-72542691D01*
X136067443Y-72752735D01*
X136018160Y-73000500D01*
X136018160Y-74265501D01*
X135646105Y-74265501D01*
X134454533Y-73073930D01*
X134412131Y-73010471D01*
X134160739Y-72842496D01*
X133939054Y-72798400D01*
X133939049Y-72798400D01*
X133864202Y-72783512D01*
X133789355Y-72798400D01*
X130645321Y-72798400D01*
X130749292Y-72275700D01*
X130723851Y-72147801D01*
X145905089Y-72147801D01*
X146022520Y-72265232D01*
X146402926Y-72422801D01*
X146814674Y-72422801D01*
X147195080Y-72265232D01*
X147486231Y-71974081D01*
X147643800Y-71593675D01*
X147643800Y-71181927D01*
X147486231Y-70801521D01*
X147195080Y-70510370D01*
X146814674Y-70352801D01*
X146402926Y-70352801D01*
X146022520Y-70510370D01*
X145905089Y-70627801D01*
X138550600Y-70627801D01*
X138550600Y-70456926D01*
X138393031Y-70076520D01*
X138051080Y-69734569D01*
X137670674Y-69577000D01*
X137258926Y-69577000D01*
X136878520Y-69734569D01*
X136761089Y-69852000D01*
X132165304Y-69852000D01*
X130415495Y-68102192D01*
X130634039Y-67775118D01*
X130676564Y-67561326D01*
X139223800Y-67561326D01*
X139223800Y-67973074D01*
X139381369Y-68353480D01*
X139672520Y-68644631D01*
X140052926Y-68802200D01*
X140464674Y-68802200D01*
X140845080Y-68644631D01*
X140962511Y-68527200D01*
X145149653Y-68527200D01*
X145224500Y-68542088D01*
X145299347Y-68527200D01*
X145299352Y-68527200D01*
X145363199Y-68514500D01*
X153385389Y-68514500D01*
X153490120Y-68619231D01*
X153870526Y-68776800D01*
X154282274Y-68776800D01*
X154662680Y-68619231D01*
X154953831Y-68328080D01*
X155111400Y-67947674D01*
X155111400Y-67535926D01*
X154953831Y-67155520D01*
X154662680Y-66864369D01*
X154282274Y-66706800D01*
X153870526Y-66706800D01*
X153490120Y-66864369D01*
X153359989Y-66994500D01*
X145312048Y-66994500D01*
X145237200Y-66979612D01*
X145162352Y-66994500D01*
X145162348Y-66994500D01*
X145098501Y-67007200D01*
X140962511Y-67007200D01*
X140845080Y-66889769D01*
X140464674Y-66732200D01*
X140052926Y-66732200D01*
X139672520Y-66889769D01*
X139381369Y-67180920D01*
X139223800Y-67561326D01*
X130676564Y-67561326D01*
X130749292Y-67195700D01*
X130634039Y-66616282D01*
X130305825Y-66125075D01*
X130007439Y-65925700D01*
X130305825Y-65726325D01*
X130634039Y-65235118D01*
X130749292Y-64655700D01*
X130634039Y-64076282D01*
X130305825Y-63585075D01*
X130007439Y-63385700D01*
X130305825Y-63186325D01*
X130634039Y-62695118D01*
X130749292Y-62115700D01*
X130634039Y-61536282D01*
X130359898Y-61126000D01*
X136373760Y-61126000D01*
X136373760Y-62826000D01*
X136423043Y-63073765D01*
X136563391Y-63283809D01*
X136773435Y-63424157D01*
X137021200Y-63473440D01*
X138721200Y-63473440D01*
X138968965Y-63424157D01*
X139179009Y-63283809D01*
X139319357Y-63073765D01*
X139368640Y-62826000D01*
X139368640Y-62618400D01*
X139704218Y-62618400D01*
X139836391Y-62816209D01*
X140046435Y-62956557D01*
X140294200Y-63005840D01*
X140991838Y-63005840D01*
X141069915Y-63083917D01*
X140914001Y-63460327D01*
X140914001Y-63872075D01*
X141071570Y-64252481D01*
X141362721Y-64543632D01*
X141743127Y-64701201D01*
X142154875Y-64701201D01*
X142535281Y-64543632D01*
X142826432Y-64252481D01*
X142984001Y-63872075D01*
X142984001Y-63460327D01*
X142826432Y-63079921D01*
X142709094Y-62962583D01*
X142723889Y-62888201D01*
X142709001Y-62813353D01*
X142709001Y-62813349D01*
X142664905Y-62591664D01*
X142496930Y-62340272D01*
X142433474Y-62297872D01*
X142191640Y-62056038D01*
X142191640Y-61358400D01*
X142142357Y-61110635D01*
X142010382Y-60913121D01*
X166733000Y-60913121D01*
X166733001Y-63054880D01*
X166833667Y-63560963D01*
X167217136Y-64134865D01*
X167791038Y-64518334D01*
X168468000Y-64652990D01*
X169144963Y-64518334D01*
X169718865Y-64134865D01*
X170102334Y-63560963D01*
X170203000Y-63054880D01*
X170203000Y-62484000D01*
X173099010Y-62484000D01*
X173233666Y-63160963D01*
X173617135Y-63734865D01*
X174191037Y-64118334D01*
X174697120Y-64219000D01*
X176838880Y-64219000D01*
X177344963Y-64118334D01*
X177918865Y-63734865D01*
X178302334Y-63160963D01*
X178436990Y-62484000D01*
X178302334Y-61807037D01*
X177918865Y-61233135D01*
X177344963Y-60849666D01*
X176838880Y-60749000D01*
X174697120Y-60749000D01*
X174191037Y-60849666D01*
X173617135Y-61233135D01*
X173233666Y-61807037D01*
X173099010Y-62484000D01*
X170203000Y-62484000D01*
X170203000Y-60913120D01*
X170102334Y-60407037D01*
X169718865Y-59833135D01*
X169144962Y-59449666D01*
X168468000Y-59315010D01*
X167791037Y-59449666D01*
X167217135Y-59833135D01*
X166833666Y-60407038D01*
X166733000Y-60913121D01*
X142010382Y-60913121D01*
X142002009Y-60900591D01*
X141940880Y-60859746D01*
X142082527Y-60718098D01*
X142179200Y-60484709D01*
X142179200Y-60144150D01*
X142020450Y-59985400D01*
X141046200Y-59985400D01*
X141046200Y-60005400D01*
X140792200Y-60005400D01*
X140792200Y-59985400D01*
X139817950Y-59985400D01*
X139659200Y-60144150D01*
X139659200Y-60484709D01*
X139755873Y-60718098D01*
X139897520Y-60859746D01*
X139836391Y-60900591D01*
X139704218Y-61098400D01*
X139363150Y-61098400D01*
X139319357Y-60878235D01*
X139179009Y-60668191D01*
X138968965Y-60527843D01*
X138865492Y-60507261D01*
X139142845Y-60202924D01*
X139312676Y-59792890D01*
X139191355Y-59563000D01*
X137998200Y-59563000D01*
X137998200Y-59583000D01*
X137744200Y-59583000D01*
X137744200Y-59563000D01*
X136551045Y-59563000D01*
X136429724Y-59792890D01*
X136599555Y-60202924D01*
X136876908Y-60507261D01*
X136773435Y-60527843D01*
X136563391Y-60668191D01*
X136423043Y-60878235D01*
X136373760Y-61126000D01*
X130359898Y-61126000D01*
X130305825Y-61045075D01*
X130007439Y-60845700D01*
X130305825Y-60646325D01*
X130634039Y-60155118D01*
X130749292Y-59575700D01*
X130634039Y-58996282D01*
X130305825Y-58505075D01*
X130007439Y-58305700D01*
X130305825Y-58106325D01*
X130634039Y-57615118D01*
X130749292Y-57035700D01*
X130634039Y-56456282D01*
X130305825Y-55965075D01*
X130007439Y-55765700D01*
X130305825Y-55566325D01*
X130634039Y-55075118D01*
X130749292Y-54495700D01*
X130634039Y-53916282D01*
X130305825Y-53425075D01*
X130287581Y-53412884D01*
X130332965Y-53403857D01*
X130543009Y-53263509D01*
X130683357Y-53053465D01*
X130712061Y-52909156D01*
X130908926Y-52990700D01*
X131320674Y-52990700D01*
X131701080Y-52833131D01*
X131992231Y-52541980D01*
X132149800Y-52161574D01*
X132149800Y-52062814D01*
X132269369Y-52351480D01*
X132560520Y-52642631D01*
X132940926Y-52800200D01*
X133352674Y-52800200D01*
X133733080Y-52642631D01*
X133850511Y-52525200D01*
X133946452Y-52525200D01*
X134106844Y-52557104D01*
X134106848Y-52557104D01*
X134181695Y-52571992D01*
X134256542Y-52557104D01*
X136427006Y-52557104D01*
X136596849Y-52590888D01*
X136602252Y-52589813D01*
X136800575Y-52886625D01*
X137098961Y-53086000D01*
X136800575Y-53285375D01*
X136593022Y-53596000D01*
X134764911Y-53596000D01*
X134596680Y-53427769D01*
X134216274Y-53270200D01*
X133804526Y-53270200D01*
X133424120Y-53427769D01*
X133132969Y-53718920D01*
X132975400Y-54099326D01*
X132975400Y-54511074D01*
X133132969Y-54891480D01*
X133424120Y-55182631D01*
X133804526Y-55340200D01*
X134216274Y-55340200D01*
X134596680Y-55182631D01*
X134663311Y-55116000D01*
X136593022Y-55116000D01*
X136800575Y-55426625D01*
X137098961Y-55626000D01*
X136800575Y-55825375D01*
X136472361Y-56316582D01*
X136357108Y-56896000D01*
X136472361Y-57475418D01*
X136800575Y-57966625D01*
X137119678Y-58179843D01*
X136989842Y-58240817D01*
X136599555Y-58669076D01*
X136429724Y-59079110D01*
X136551045Y-59309000D01*
X137744200Y-59309000D01*
X137744200Y-59289000D01*
X137998200Y-59289000D01*
X137998200Y-59309000D01*
X139191355Y-59309000D01*
X139231942Y-59232091D01*
X139659200Y-59232091D01*
X139659200Y-59572650D01*
X139817950Y-59731400D01*
X140792200Y-59731400D01*
X140792200Y-58882150D01*
X141046200Y-58882150D01*
X141046200Y-59731400D01*
X142020450Y-59731400D01*
X142179200Y-59572650D01*
X142179200Y-59232091D01*
X142082527Y-58998702D01*
X141903899Y-58820073D01*
X141670510Y-58723400D01*
X141204950Y-58723400D01*
X141046200Y-58882150D01*
X140792200Y-58882150D01*
X140633450Y-58723400D01*
X140167890Y-58723400D01*
X139934501Y-58820073D01*
X139755873Y-58998702D01*
X139659200Y-59232091D01*
X139231942Y-59232091D01*
X139312676Y-59079110D01*
X139142845Y-58669076D01*
X138752558Y-58240817D01*
X138622722Y-58179843D01*
X138941825Y-57966625D01*
X139270039Y-57475418D01*
X139385292Y-56896000D01*
X139270039Y-56316582D01*
X138941825Y-55825375D01*
X138643439Y-55626000D01*
X138941825Y-55426625D01*
X139270039Y-54935418D01*
X139385292Y-54356000D01*
X139270039Y-53776582D01*
X138941825Y-53285375D01*
X138643439Y-53086000D01*
X138941825Y-52886625D01*
X139270039Y-52395418D01*
X139385292Y-51816000D01*
X139270039Y-51236582D01*
X138941825Y-50745375D01*
X138643439Y-50546000D01*
X138941825Y-50346625D01*
X139270039Y-49855418D01*
X139385292Y-49276000D01*
X139270039Y-48696582D01*
X138941825Y-48205375D01*
X138643439Y-48006000D01*
X138941825Y-47806625D01*
X139270039Y-47315418D01*
X139385292Y-46736000D01*
X139270039Y-46156582D01*
X138941825Y-45665375D01*
X138643439Y-45466000D01*
X138941825Y-45266625D01*
X139270039Y-44775418D01*
X139385292Y-44196000D01*
X139327011Y-43903001D01*
X142741754Y-43903001D01*
X142816601Y-43917889D01*
X142891448Y-43903001D01*
X142891453Y-43903001D01*
X143113138Y-43858905D01*
X143364530Y-43690930D01*
X143406932Y-43627471D01*
X144344605Y-42689799D01*
X164281800Y-42689799D01*
X164281800Y-42881800D01*
X164261800Y-42881800D01*
X164261800Y-42901800D01*
X164007800Y-42901800D01*
X164007800Y-42881800D01*
X163033550Y-42881800D01*
X162874800Y-43040550D01*
X162874800Y-43381109D01*
X162971473Y-43614498D01*
X163113120Y-43756146D01*
X163051991Y-43796991D01*
X162919818Y-43994800D01*
X154729311Y-43994800D01*
X154662680Y-43928169D01*
X154282274Y-43770600D01*
X153870526Y-43770600D01*
X153490120Y-43928169D01*
X153198969Y-44219320D01*
X153041400Y-44599726D01*
X153041400Y-45011474D01*
X153198969Y-45391880D01*
X153490120Y-45683031D01*
X153870526Y-45840600D01*
X154282274Y-45840600D01*
X154662680Y-45683031D01*
X154830911Y-45514800D01*
X162919818Y-45514800D01*
X163051991Y-45712609D01*
X163262035Y-45852957D01*
X163509800Y-45902240D01*
X164759800Y-45902240D01*
X165007565Y-45852957D01*
X165217609Y-45712609D01*
X165350985Y-45512999D01*
X172807588Y-45512999D01*
X172928671Y-45593904D01*
X173150356Y-45638000D01*
X173150360Y-45638000D01*
X173225207Y-45652888D01*
X173300054Y-45638000D01*
X173313023Y-45638000D01*
X173349286Y-45725546D01*
X173730454Y-46106714D01*
X174228474Y-46313000D01*
X174767526Y-46313000D01*
X175265546Y-46106714D01*
X175646714Y-45725546D01*
X175853000Y-45227526D01*
X175853000Y-44688474D01*
X175646714Y-44190454D01*
X175265546Y-43809286D01*
X174767526Y-43603000D01*
X174228474Y-43603000D01*
X173730454Y-43809286D01*
X173460227Y-44079513D01*
X173396744Y-44037095D01*
X173175059Y-43992999D01*
X173175054Y-43992999D01*
X173100207Y-43978111D01*
X173025360Y-43992999D01*
X165348578Y-43992999D01*
X165217609Y-43796991D01*
X165156480Y-43756146D01*
X165298127Y-43614498D01*
X165394800Y-43381109D01*
X165394800Y-43138327D01*
X165468002Y-43152888D01*
X165542849Y-43138000D01*
X175743822Y-43138000D01*
X175880885Y-43165264D01*
X175889286Y-43185546D01*
X176270454Y-43566714D01*
X176768474Y-43773000D01*
X177307526Y-43773000D01*
X177805546Y-43566714D01*
X178186714Y-43185546D01*
X178393000Y-42687526D01*
X178393000Y-42148474D01*
X178186714Y-41650454D01*
X177805546Y-41269286D01*
X177307526Y-41063000D01*
X176768474Y-41063000D01*
X176270454Y-41269286D01*
X175925916Y-41613824D01*
X175904920Y-41618000D01*
X165782803Y-41618000D01*
X165610132Y-41445329D01*
X165567730Y-41381870D01*
X165316338Y-41213895D01*
X165094653Y-41169799D01*
X165094648Y-41169799D01*
X165019801Y-41154911D01*
X164944954Y-41169799D01*
X150203627Y-41169799D01*
X150256727Y-41116699D01*
X150353400Y-40883310D01*
X150353400Y-40827774D01*
X173727831Y-40827774D01*
X173792131Y-41065611D01*
X174300342Y-41245333D01*
X174838644Y-41216892D01*
X175203869Y-41065611D01*
X175268169Y-40827774D01*
X174498000Y-40057605D01*
X173727831Y-40827774D01*
X150353400Y-40827774D01*
X150353400Y-40417750D01*
X150194650Y-40259000D01*
X149345400Y-40259000D01*
X149345400Y-40279000D01*
X149091400Y-40279000D01*
X149091400Y-40259000D01*
X149071400Y-40259000D01*
X149071400Y-40005000D01*
X149091400Y-40005000D01*
X149091400Y-39030750D01*
X149345400Y-39030750D01*
X149345400Y-40005000D01*
X150194650Y-40005000D01*
X150353400Y-39846250D01*
X150353400Y-39680342D01*
X173130667Y-39680342D01*
X173159108Y-40218644D01*
X173310389Y-40583869D01*
X173548226Y-40648169D01*
X174318395Y-39878000D01*
X174677605Y-39878000D01*
X175447774Y-40648169D01*
X175685611Y-40583869D01*
X175865333Y-40075658D01*
X175836892Y-39537356D01*
X175685611Y-39172131D01*
X175447774Y-39107831D01*
X174677605Y-39878000D01*
X174318395Y-39878000D01*
X173548226Y-39107831D01*
X173310389Y-39172131D01*
X173130667Y-39680342D01*
X150353400Y-39680342D01*
X150353400Y-39380690D01*
X150256727Y-39147301D01*
X150078098Y-38968673D01*
X149980451Y-38928226D01*
X173727831Y-38928226D01*
X174498000Y-39698395D01*
X175268169Y-38928226D01*
X175203869Y-38690389D01*
X174695658Y-38510667D01*
X174157356Y-38539108D01*
X173792131Y-38690389D01*
X173727831Y-38928226D01*
X149980451Y-38928226D01*
X149844709Y-38872000D01*
X149504150Y-38872000D01*
X149345400Y-39030750D01*
X149091400Y-39030750D01*
X148932650Y-38872000D01*
X148592091Y-38872000D01*
X148358702Y-38968673D01*
X148217054Y-39110320D01*
X148176209Y-39049191D01*
X147966165Y-38908843D01*
X147718400Y-38859560D01*
X146718400Y-38859560D01*
X146470635Y-38908843D01*
X146260591Y-39049191D01*
X146120243Y-39259235D01*
X146099490Y-39363570D01*
X145982565Y-39285443D01*
X145973300Y-39283600D01*
X145982565Y-39281757D01*
X146192609Y-39141409D01*
X146332957Y-38931365D01*
X146382240Y-38683600D01*
X146382240Y-37983600D01*
X146332957Y-37735835D01*
X146192609Y-37525791D01*
X145982565Y-37385443D01*
X145844800Y-37358040D01*
X145844800Y-37302469D01*
X146140673Y-37104773D01*
X146315703Y-36842823D01*
X146578394Y-37173312D01*
X147103914Y-37464856D01*
X147209260Y-37489136D01*
X147447000Y-37368478D01*
X147447000Y-35725100D01*
X147701000Y-35725100D01*
X147701000Y-37368478D01*
X147938740Y-37489136D01*
X148044086Y-37464856D01*
X148569606Y-37173312D01*
X148943554Y-36702852D01*
X149109000Y-36125100D01*
X149109000Y-35725100D01*
X147701000Y-35725100D01*
X147447000Y-35725100D01*
X147427000Y-35725100D01*
X147427000Y-35471100D01*
X147447000Y-35471100D01*
X147447000Y-33827722D01*
X147701000Y-33827722D01*
X147701000Y-35471100D01*
X149109000Y-35471100D01*
X149109000Y-35071100D01*
X148943554Y-34493348D01*
X148569606Y-34022888D01*
X148044086Y-33731344D01*
X147938740Y-33707064D01*
X147701000Y-33827722D01*
X147447000Y-33827722D01*
X147209260Y-33707064D01*
X147103914Y-33731344D01*
X146578394Y-34022888D01*
X146315703Y-34353377D01*
X146140673Y-34091427D01*
X145632926Y-33752162D01*
X145034000Y-33633028D01*
X144435073Y-33752162D01*
X143927327Y-34091427D01*
X143764000Y-34335863D01*
X143600673Y-34091427D01*
X143092926Y-33752162D01*
X142494000Y-33633028D01*
X141895073Y-33752162D01*
X141387327Y-34091427D01*
X141224000Y-34335863D01*
X141060673Y-34091427D01*
X140552926Y-33752162D01*
X139954000Y-33633028D01*
X139355073Y-33752162D01*
X138847327Y-34091427D01*
X138684000Y-34335863D01*
X138520673Y-34091427D01*
X138012926Y-33752162D01*
X137414000Y-33633028D01*
X136815073Y-33752162D01*
X136307327Y-34091427D01*
X136144000Y-34335863D01*
X135980673Y-34091427D01*
X135472926Y-33752162D01*
X134874000Y-33633028D01*
X134275073Y-33752162D01*
X133767327Y-34091427D01*
X133604000Y-34335863D01*
X133440673Y-34091427D01*
X132932926Y-33752162D01*
X132334000Y-33633028D01*
X131735073Y-33752162D01*
X131227327Y-34091427D01*
X131064000Y-34335863D01*
X130900673Y-34091427D01*
X130392926Y-33752162D01*
X129794000Y-33633028D01*
X129195073Y-33752162D01*
X128687327Y-34091427D01*
X128524000Y-34335863D01*
X128360673Y-34091427D01*
X127852926Y-33752162D01*
X127254000Y-33633028D01*
X126655073Y-33752162D01*
X126147327Y-34091427D01*
X125984000Y-34335863D01*
X125820673Y-34091427D01*
X125312926Y-33752162D01*
X124714000Y-33633028D01*
X124115073Y-33752162D01*
X123607327Y-34091427D01*
X123444000Y-34335863D01*
X123280673Y-34091427D01*
X122772926Y-33752162D01*
X122174000Y-33633028D01*
X121575073Y-33752162D01*
X121067327Y-34091427D01*
X120892298Y-34353378D01*
X120629606Y-34022888D01*
X120104086Y-33731344D01*
X119998740Y-33707064D01*
X119761000Y-33827722D01*
X119761000Y-35471100D01*
X119781000Y-35471100D01*
X119781000Y-35725100D01*
X119761000Y-35725100D01*
X119761000Y-37368478D01*
X119998740Y-37489136D01*
X120104086Y-37464856D01*
X120629606Y-37173312D01*
X120892298Y-36842822D01*
X121067328Y-37104773D01*
X121575074Y-37444038D01*
X122174000Y-37563172D01*
X122772927Y-37444038D01*
X123280673Y-37104773D01*
X123444000Y-36860336D01*
X123607328Y-37104773D01*
X124115074Y-37444038D01*
X124714000Y-37563172D01*
X125312927Y-37444038D01*
X125820673Y-37104773D01*
X125984000Y-36860336D01*
X126147328Y-37104773D01*
X126655074Y-37444038D01*
X127254000Y-37563172D01*
X127852927Y-37444038D01*
X128360673Y-37104773D01*
X128524000Y-36860336D01*
X128687328Y-37104773D01*
X129195074Y-37444038D01*
X129794000Y-37563172D01*
X130392927Y-37444038D01*
X130900673Y-37104773D01*
X131064000Y-36860336D01*
X131227328Y-37104773D01*
X131735074Y-37444038D01*
X132334000Y-37563172D01*
X132932927Y-37444038D01*
X133440673Y-37104773D01*
X133604000Y-36860336D01*
X133767328Y-37104773D01*
X134275074Y-37444038D01*
X134668020Y-37522200D01*
X134617326Y-37522200D01*
X134236920Y-37679769D01*
X134170289Y-37746400D01*
X124186131Y-37746400D01*
X124111284Y-37731512D01*
X124044506Y-37744795D01*
X124030280Y-37730569D01*
X123649874Y-37573000D01*
X123238126Y-37573000D01*
X122857720Y-37730569D01*
X122566569Y-38021720D01*
X122409000Y-38402126D01*
X122409000Y-38813874D01*
X122566569Y-39194280D01*
X122857720Y-39485431D01*
X123017686Y-39551691D01*
X122967800Y-39672126D01*
X122967800Y-40083874D01*
X123125369Y-40464280D01*
X123369435Y-40708346D01*
X123272600Y-40942126D01*
X123272600Y-41353874D01*
X123430169Y-41734280D01*
X123721320Y-42025431D01*
X123751204Y-42037809D01*
X123679000Y-42212126D01*
X123679000Y-42623200D01*
X123146153Y-42623200D01*
X123209000Y-42471474D01*
X123209000Y-42059726D01*
X123051431Y-41679320D01*
X122760280Y-41388169D01*
X122379874Y-41230600D01*
X121968126Y-41230600D01*
X121587720Y-41388169D01*
X121495689Y-41480200D01*
X117873911Y-41480200D01*
X117756480Y-41362769D01*
X117376074Y-41205200D01*
X116964326Y-41205200D01*
X116583920Y-41362769D01*
X116292769Y-41653920D01*
X116135200Y-42034326D01*
X116135200Y-42446074D01*
X116208568Y-42623200D01*
X115308511Y-42623200D01*
X115191080Y-42505769D01*
X114810674Y-42348200D01*
X114398926Y-42348200D01*
X114018520Y-42505769D01*
X113727369Y-42796920D01*
X113569800Y-43177326D01*
X113569800Y-43589074D01*
X113727369Y-43969480D01*
X114018520Y-44260631D01*
X114398926Y-44418200D01*
X114810674Y-44418200D01*
X115191080Y-44260631D01*
X115308511Y-44143200D01*
X124746955Y-44143200D01*
X124821802Y-44158088D01*
X124896649Y-44143200D01*
X124896654Y-44143200D01*
X125118339Y-44099104D01*
X125369731Y-43931129D01*
X125412133Y-43867670D01*
X125498804Y-43780999D01*
X136439657Y-43780999D01*
X136357108Y-44196000D01*
X136472361Y-44775418D01*
X136800575Y-45266625D01*
X137098961Y-45466000D01*
X136800575Y-45665375D01*
X136615573Y-45942250D01*
X136611560Y-45943049D01*
X136527080Y-45858569D01*
X136146674Y-45701000D01*
X135734926Y-45701000D01*
X135354520Y-45858569D01*
X135063369Y-46149720D01*
X134905800Y-46530126D01*
X134905800Y-46941874D01*
X135063369Y-47322280D01*
X135354520Y-47613431D01*
X135734926Y-47771000D01*
X136146674Y-47771000D01*
X136527080Y-47613431D01*
X136613646Y-47526865D01*
X136800575Y-47806625D01*
X137098961Y-48006000D01*
X136800575Y-48205375D01*
X136615573Y-48482250D01*
X136540898Y-48497104D01*
X136540893Y-48497104D01*
X136445897Y-48516000D01*
X135526911Y-48516000D01*
X135409480Y-48398569D01*
X135029074Y-48241000D01*
X134617326Y-48241000D01*
X134236920Y-48398569D01*
X133945769Y-48689720D01*
X133788200Y-49070126D01*
X133788200Y-49481874D01*
X133945769Y-49862280D01*
X134236920Y-50153431D01*
X134617326Y-50311000D01*
X135029074Y-50311000D01*
X135409480Y-50153431D01*
X135526911Y-50036000D01*
X136522002Y-50036000D01*
X136596849Y-50050888D01*
X136602252Y-50049813D01*
X136800575Y-50346625D01*
X137098961Y-50546000D01*
X136800575Y-50745375D01*
X136615573Y-51022250D01*
X136540898Y-51037104D01*
X134385036Y-51037104D01*
X134224644Y-51005200D01*
X134224639Y-51005200D01*
X134149792Y-50990312D01*
X134074945Y-51005200D01*
X133850511Y-51005200D01*
X133733080Y-50887769D01*
X133352674Y-50730200D01*
X132940926Y-50730200D01*
X132560520Y-50887769D01*
X132269369Y-51178920D01*
X132111800Y-51559326D01*
X132111800Y-51658086D01*
X131992231Y-51369420D01*
X131701080Y-51078269D01*
X131320674Y-50920700D01*
X130908926Y-50920700D01*
X130712061Y-51002244D01*
X130683357Y-50857935D01*
X130543009Y-50647891D01*
X130332965Y-50507543D01*
X130085200Y-50458260D01*
X128385200Y-50458260D01*
X128137435Y-50507543D01*
X127927391Y-50647891D01*
X127787043Y-50857935D01*
X127778016Y-50903319D01*
X127765825Y-50885075D01*
X127274618Y-50556861D01*
X126841456Y-50470700D01*
X126548944Y-50470700D01*
X126115782Y-50556861D01*
X125624575Y-50885075D01*
X125296361Y-51376282D01*
X125181108Y-51955700D01*
X125296361Y-52535118D01*
X125624575Y-53026325D01*
X125922961Y-53225700D01*
X125624575Y-53425075D01*
X125442480Y-53697600D01*
X122014111Y-53697600D01*
X121896680Y-53580169D01*
X121516274Y-53422600D01*
X121104526Y-53422600D01*
X120724120Y-53580169D01*
X120432969Y-53871320D01*
X120275400Y-54251726D01*
X120275400Y-54663474D01*
X120432969Y-55043880D01*
X120724120Y-55335031D01*
X121104526Y-55492600D01*
X121516274Y-55492600D01*
X121896680Y-55335031D01*
X122014111Y-55217600D01*
X125391564Y-55217600D01*
X125624575Y-55566325D01*
X125922961Y-55765700D01*
X125624575Y-55965075D01*
X125510367Y-56136000D01*
X122826911Y-56136000D01*
X122709480Y-56018569D01*
X122329074Y-55861000D01*
X121917326Y-55861000D01*
X121536920Y-56018569D01*
X121245769Y-56309720D01*
X121088200Y-56690126D01*
X121088200Y-57101874D01*
X121245769Y-57482280D01*
X121536920Y-57773431D01*
X121917326Y-57931000D01*
X122329074Y-57931000D01*
X122709480Y-57773431D01*
X122826911Y-57656000D01*
X125323677Y-57656000D01*
X125624575Y-58106325D01*
X125922961Y-58305700D01*
X125624575Y-58505075D01*
X125442480Y-58777600D01*
X122115711Y-58777600D01*
X121998280Y-58660169D01*
X121617874Y-58502600D01*
X121206126Y-58502600D01*
X120825720Y-58660169D01*
X120534569Y-58951320D01*
X120377000Y-59331726D01*
X120377000Y-59743474D01*
X120534569Y-60123880D01*
X120825720Y-60415031D01*
X121206126Y-60572600D01*
X121617874Y-60572600D01*
X121998280Y-60415031D01*
X122115711Y-60297600D01*
X125391564Y-60297600D01*
X125624575Y-60646325D01*
X125922961Y-60845700D01*
X125624575Y-61045075D01*
X125476423Y-61266800D01*
X122268111Y-61266800D01*
X122150680Y-61149369D01*
X121770274Y-60991800D01*
X121358526Y-60991800D01*
X120978120Y-61149369D01*
X120686969Y-61440520D01*
X120529400Y-61820926D01*
X120529400Y-62232674D01*
X120686969Y-62613080D01*
X120978120Y-62904231D01*
X121358526Y-63061800D01*
X121770274Y-63061800D01*
X122150680Y-62904231D01*
X122268111Y-62786800D01*
X125357621Y-62786800D01*
X125624575Y-63186325D01*
X125922961Y-63385700D01*
X125624575Y-63585075D01*
X125476423Y-63806800D01*
X122217311Y-63806800D01*
X122099880Y-63689369D01*
X121719474Y-63531800D01*
X121307726Y-63531800D01*
X120927320Y-63689369D01*
X120636169Y-63980520D01*
X120478600Y-64360926D01*
X120478600Y-64772674D01*
X120636169Y-65153080D01*
X120927320Y-65444231D01*
X121307726Y-65601800D01*
X121719474Y-65601800D01*
X122099880Y-65444231D01*
X122217311Y-65326800D01*
X125357621Y-65326800D01*
X125624575Y-65726325D01*
X125922961Y-65925700D01*
X125624575Y-66125075D01*
X125476423Y-66346800D01*
X122318911Y-66346800D01*
X122201480Y-66229369D01*
X121821074Y-66071800D01*
X121409326Y-66071800D01*
X121028920Y-66229369D01*
X120737769Y-66520520D01*
X120580200Y-66900926D01*
X120580200Y-67312674D01*
X120737769Y-67693080D01*
X120845388Y-67800699D01*
X111904911Y-67800699D01*
X111787480Y-67683268D01*
X111407074Y-67525699D01*
X110995326Y-67525699D01*
X110614920Y-67683268D01*
X110323769Y-67974419D01*
X110166200Y-68354825D01*
X110166200Y-68723244D01*
X109840220Y-68858269D01*
X109549069Y-69149420D01*
X109391500Y-69529826D01*
X109391500Y-69941574D01*
X109549069Y-70321980D01*
X109840220Y-70613131D01*
X110220626Y-70770700D01*
X110632374Y-70770700D01*
X111012780Y-70613131D01*
X111130211Y-70495700D01*
X118243275Y-70495700D01*
X118091000Y-70863326D01*
X118091000Y-71275074D01*
X118190670Y-71515700D01*
X113682911Y-71515700D01*
X113565480Y-71398269D01*
X113185074Y-71240700D01*
X112773326Y-71240700D01*
X112392920Y-71398269D01*
X112101769Y-71689420D01*
X111944200Y-72069826D01*
X111944200Y-72481574D01*
X112101769Y-72861980D01*
X112392920Y-73153131D01*
X112773326Y-73310700D01*
X113185074Y-73310700D01*
X113565480Y-73153131D01*
X113682911Y-73035700D01*
X115580633Y-73035700D01*
X115449400Y-73352526D01*
X115449400Y-73764274D01*
X115471536Y-73817715D01*
X115382174Y-73780700D01*
X114970426Y-73780700D01*
X114590020Y-73938269D01*
X114298869Y-74229420D01*
X114141300Y-74609826D01*
X114141300Y-75021574D01*
X114179667Y-75114200D01*
X113941726Y-75114200D01*
X113561320Y-75271769D01*
X113270169Y-75562920D01*
X113112600Y-75943326D01*
X113112600Y-76355074D01*
X113270169Y-76735480D01*
X113561320Y-77026631D01*
X113941726Y-77184200D01*
X114353474Y-77184200D01*
X114733880Y-77026631D01*
X114902111Y-76858400D01*
X116636912Y-76858400D01*
X116516200Y-77149826D01*
X116516200Y-77561574D01*
X116673769Y-77941980D01*
X116964920Y-78233131D01*
X117345326Y-78390700D01*
X117757074Y-78390700D01*
X118137480Y-78233131D01*
X118254911Y-78115700D01*
X118717907Y-78115700D01*
X118649800Y-78280126D01*
X118649800Y-78691874D01*
X118807369Y-79072280D01*
X119098520Y-79363431D01*
X119478926Y-79521000D01*
X119890674Y-79521000D01*
X120271080Y-79363431D01*
X120388511Y-79246000D01*
X124970699Y-79246000D01*
X125253991Y-79529292D01*
X125181108Y-79895700D01*
X125296361Y-80475118D01*
X125514905Y-80802192D01*
X124228698Y-82088399D01*
X121590529Y-82088399D01*
X122016783Y-81803585D01*
X122344997Y-81312378D01*
X122460250Y-80732960D01*
X122344997Y-80153542D01*
X122016783Y-79662335D01*
X121525576Y-79334121D01*
X121092414Y-79247960D01*
X120799902Y-79247960D01*
X120366740Y-79334121D01*
X119875533Y-79662335D01*
X119676158Y-79960721D01*
X119476783Y-79662335D01*
X118985576Y-79334121D01*
X118552414Y-79247960D01*
X118259902Y-79247960D01*
X117826740Y-79334121D01*
X117335533Y-79662335D01*
X117323342Y-79680579D01*
X117314315Y-79635195D01*
X117173967Y-79425151D01*
X116963923Y-79284803D01*
X116716158Y-79235520D01*
X115016158Y-79235520D01*
X114768393Y-79284803D01*
X114558349Y-79425151D01*
X114418001Y-79635195D01*
X114368718Y-79882960D01*
X114368718Y-81582960D01*
X114418001Y-81830725D01*
X114558349Y-82040769D01*
X114768393Y-82181117D01*
X115016158Y-82230400D01*
X116716158Y-82230400D01*
X116963923Y-82181117D01*
X117173967Y-82040769D01*
X117314315Y-81830725D01*
X117323342Y-81785341D01*
X117335533Y-81803585D01*
X117512607Y-81921902D01*
X117379800Y-82242526D01*
X117379800Y-82654274D01*
X117537369Y-83034680D01*
X117622967Y-83120278D01*
X117335533Y-83312335D01*
X117323342Y-83330579D01*
X117314315Y-83285195D01*
X117173967Y-83075151D01*
X116963923Y-82934803D01*
X116716158Y-82885520D01*
X115016158Y-82885520D01*
X114768393Y-82934803D01*
X114558349Y-83075151D01*
X114418001Y-83285195D01*
X114368718Y-83532960D01*
X114368718Y-85232960D01*
X114418001Y-85480725D01*
X114558349Y-85690769D01*
X114768393Y-85831117D01*
X115016158Y-85880400D01*
X116716158Y-85880400D01*
X116963923Y-85831117D01*
X117173967Y-85690769D01*
X117314315Y-85480725D01*
X117323342Y-85435341D01*
X117335533Y-85453585D01*
X117498592Y-85562537D01*
X117379800Y-85849326D01*
X117379800Y-86261074D01*
X117537369Y-86641480D01*
X117648863Y-86752974D01*
X117335533Y-86962335D01*
X117323342Y-86980579D01*
X117314315Y-86935195D01*
X117173967Y-86725151D01*
X116963923Y-86584803D01*
X116716158Y-86535520D01*
X115016158Y-86535520D01*
X114768393Y-86584803D01*
X114558349Y-86725151D01*
X114418001Y-86935195D01*
X114368718Y-87182960D01*
X114368718Y-88882960D01*
X114382610Y-88952800D01*
X109669711Y-88952800D01*
X109552280Y-88835369D01*
X109171874Y-88677800D01*
X108760126Y-88677800D01*
X108379720Y-88835369D01*
X108088569Y-89126520D01*
X107931000Y-89506926D01*
X107669021Y-89506926D01*
X107634841Y-51105700D01*
X109906960Y-51105700D01*
X109906960Y-52805700D01*
X109956243Y-53053465D01*
X110096591Y-53263509D01*
X110306635Y-53403857D01*
X110554400Y-53453140D01*
X112254400Y-53453140D01*
X112502165Y-53403857D01*
X112712209Y-53263509D01*
X112852557Y-53053465D01*
X112861584Y-53008081D01*
X112873775Y-53026325D01*
X113364982Y-53354539D01*
X113798144Y-53440700D01*
X114090656Y-53440700D01*
X114523818Y-53354539D01*
X115015025Y-53026325D01*
X115214400Y-52727939D01*
X115413775Y-53026325D01*
X115904982Y-53354539D01*
X116338144Y-53440700D01*
X116630656Y-53440700D01*
X117063818Y-53354539D01*
X117555025Y-53026325D01*
X117754400Y-52727939D01*
X117953775Y-53026325D01*
X118444982Y-53354539D01*
X118878144Y-53440700D01*
X119170656Y-53440700D01*
X119603818Y-53354539D01*
X120095025Y-53026325D01*
X120423239Y-52535118D01*
X120538492Y-51955700D01*
X120423239Y-51376282D01*
X120095025Y-50885075D01*
X119603818Y-50556861D01*
X119170656Y-50470700D01*
X118878144Y-50470700D01*
X118444982Y-50556861D01*
X117953775Y-50885075D01*
X117754400Y-51183461D01*
X117555025Y-50885075D01*
X117063818Y-50556861D01*
X116630656Y-50470700D01*
X116338144Y-50470700D01*
X115904982Y-50556861D01*
X115413775Y-50885075D01*
X115214400Y-51183461D01*
X115015025Y-50885075D01*
X114523818Y-50556861D01*
X114090656Y-50470700D01*
X113798144Y-50470700D01*
X113364982Y-50556861D01*
X112873775Y-50885075D01*
X112861584Y-50903319D01*
X112852557Y-50857935D01*
X112712209Y-50647891D01*
X112502165Y-50507543D01*
X112254400Y-50458260D01*
X110554400Y-50458260D01*
X110306635Y-50507543D01*
X110096591Y-50647891D01*
X109956243Y-50857935D01*
X109906960Y-51105700D01*
X107634841Y-51105700D01*
X107626958Y-42249471D01*
X107662719Y-42285232D01*
X108043125Y-42442801D01*
X108454873Y-42442801D01*
X108835279Y-42285232D01*
X109126430Y-41994081D01*
X109220158Y-41767802D01*
X109765951Y-41767802D01*
X109840798Y-41782690D01*
X109915645Y-41767802D01*
X109915650Y-41767802D01*
X110137335Y-41723706D01*
X110388727Y-41555731D01*
X110431129Y-41492272D01*
X111788962Y-40134440D01*
X112361600Y-40134440D01*
X112609365Y-40085157D01*
X112819409Y-39944809D01*
X112959757Y-39734765D01*
X113009040Y-39487000D01*
X113009040Y-38237000D01*
X112959757Y-37989235D01*
X112819409Y-37779191D01*
X112621600Y-37647018D01*
X112621600Y-37438243D01*
X113120673Y-37104773D01*
X113284000Y-36860336D01*
X113447328Y-37104773D01*
X113955074Y-37444038D01*
X114554000Y-37563172D01*
X115152927Y-37444038D01*
X115660673Y-37104773D01*
X115824000Y-36860336D01*
X115987328Y-37104773D01*
X116495074Y-37444038D01*
X117094000Y-37563172D01*
X117692927Y-37444038D01*
X118200673Y-37104773D01*
X118375703Y-36842823D01*
X118638394Y-37173312D01*
X119163914Y-37464856D01*
X119269260Y-37489136D01*
X119507000Y-37368478D01*
X119507000Y-35725100D01*
X119487000Y-35725100D01*
X119487000Y-35471100D01*
X119507000Y-35471100D01*
X119507000Y-33827722D01*
X119269260Y-33707064D01*
X119163914Y-33731344D01*
X118638394Y-34022888D01*
X118375703Y-34353377D01*
X118200673Y-34091427D01*
X117692926Y-33752162D01*
X117094000Y-33633028D01*
X116495073Y-33752162D01*
X115987327Y-34091427D01*
X115824000Y-34335863D01*
X115660673Y-34091427D01*
X115152926Y-33752162D01*
X114554000Y-33633028D01*
X113955073Y-33752162D01*
X113447327Y-34091427D01*
X113284000Y-34335863D01*
X113120673Y-34091427D01*
X112612926Y-33752162D01*
X112014000Y-33633028D01*
X111415073Y-33752162D01*
X110960888Y-34055638D01*
X110912327Y-33938401D01*
X110733698Y-33759773D01*
X110500309Y-33663100D01*
X109759750Y-33663100D01*
X109601000Y-33821850D01*
X109601000Y-35471100D01*
X109621000Y-35471100D01*
X109621000Y-35725100D01*
X109601000Y-35725100D01*
X109601000Y-37374350D01*
X109759750Y-37533100D01*
X110500309Y-37533100D01*
X110733698Y-37436427D01*
X110912327Y-37257799D01*
X110960889Y-37140561D01*
X111101601Y-37234582D01*
X111101600Y-37647018D01*
X110903791Y-37779191D01*
X110862946Y-37840320D01*
X110721298Y-37698673D01*
X110487909Y-37602000D01*
X110147350Y-37602000D01*
X109988600Y-37760750D01*
X109988600Y-38735000D01*
X110008600Y-38735000D01*
X110008600Y-38989000D01*
X109988600Y-38989000D01*
X109988600Y-39009000D01*
X109734600Y-39009000D01*
X109734600Y-38989000D01*
X108885350Y-38989000D01*
X108726600Y-39147750D01*
X108726600Y-39613310D01*
X108823273Y-39846699D01*
X109001902Y-40025327D01*
X109235291Y-40122000D01*
X109575850Y-40122000D01*
X109734598Y-39963252D01*
X109734598Y-40039201D01*
X109525997Y-40247802D01*
X108723844Y-40247802D01*
X108648997Y-40232914D01*
X108574150Y-40247802D01*
X108574146Y-40247802D01*
X108352461Y-40291898D01*
X108231381Y-40372801D01*
X108043125Y-40372801D01*
X107662719Y-40530370D01*
X107625461Y-40567628D01*
X107623275Y-38110690D01*
X108726600Y-38110690D01*
X108726600Y-38576250D01*
X108885350Y-38735000D01*
X109734600Y-38735000D01*
X109734600Y-37760750D01*
X109575850Y-37602000D01*
X109235291Y-37602000D01*
X109001902Y-37698673D01*
X108823273Y-37877301D01*
X108726600Y-38110690D01*
X107623275Y-38110690D01*
X107621292Y-35883850D01*
X107939000Y-35883850D01*
X107939000Y-37024410D01*
X108035673Y-37257799D01*
X108214302Y-37436427D01*
X108447691Y-37533100D01*
X109188250Y-37533100D01*
X109347000Y-37374350D01*
X109347000Y-35725100D01*
X108097750Y-35725100D01*
X107939000Y-35883850D01*
X107621292Y-35883850D01*
X107619768Y-34171790D01*
X107939000Y-34171790D01*
X107939000Y-35312350D01*
X108097750Y-35471100D01*
X109347000Y-35471100D01*
X109347000Y-33821850D01*
X109188250Y-33663100D01*
X108447691Y-33663100D01*
X108214302Y-33759773D01*
X108035673Y-33938401D01*
X107939000Y-34171790D01*
X107619768Y-34171790D01*
X107618854Y-33145400D01*
X181026746Y-33145400D01*
X181025122Y-34970922D01*
X181025122Y-34970922D01*
G37*
X181025122Y-34970922D02*
X180783966Y-34388720D01*
X180183380Y-33788134D01*
X179398678Y-33463100D01*
X178549322Y-33463100D01*
X177764620Y-33788134D01*
X177164034Y-34388720D01*
X176839000Y-35173422D01*
X176839000Y-36022778D01*
X177164034Y-36807480D01*
X177764620Y-37408066D01*
X178549322Y-37733100D01*
X179398678Y-37733100D01*
X180183380Y-37408066D01*
X180783966Y-36807480D01*
X181024004Y-36227978D01*
X181006533Y-55864340D01*
X180918865Y-55733135D01*
X180344963Y-55349666D01*
X179668000Y-55215010D01*
X178991038Y-55349666D01*
X178417136Y-55733135D01*
X178033667Y-56307037D01*
X177933001Y-56813120D01*
X177933001Y-57056636D01*
X174252406Y-57056636D01*
X174444963Y-57018334D01*
X175018865Y-56634865D01*
X175402334Y-56060963D01*
X175536990Y-55384000D01*
X175402334Y-54707037D01*
X175018865Y-54133135D01*
X174444963Y-53749666D01*
X174001545Y-53661465D01*
X174202334Y-53360963D01*
X174336990Y-52684000D01*
X174202334Y-52007037D01*
X173818865Y-51433135D01*
X173244963Y-51049666D01*
X172738880Y-50949000D01*
X170764345Y-50949000D01*
X170681179Y-50865834D01*
X170638777Y-50802375D01*
X170387385Y-50634400D01*
X170165700Y-50590304D01*
X170165695Y-50590304D01*
X170090848Y-50575416D01*
X170016001Y-50590304D01*
X161180813Y-50590304D01*
X161065064Y-50310860D01*
X160548870Y-49794666D01*
X160079638Y-49600304D01*
X160548870Y-49405942D01*
X161065064Y-48889748D01*
X161344426Y-48215308D01*
X161344426Y-47485300D01*
X161065064Y-46810860D01*
X160548870Y-46294666D01*
X159874430Y-46015304D01*
X159144422Y-46015304D01*
X158469982Y-46294666D01*
X157953788Y-46810860D01*
X157674426Y-47485300D01*
X157674426Y-48215308D01*
X157953788Y-48889748D01*
X158469982Y-49405942D01*
X158939214Y-49600304D01*
X158469982Y-49794666D01*
X157953788Y-50310860D01*
X157674426Y-50985300D01*
X157674426Y-51715308D01*
X157953788Y-52389748D01*
X158469982Y-52905942D01*
X158939214Y-53100304D01*
X158469982Y-53294666D01*
X157953788Y-53810860D01*
X157674426Y-54485300D01*
X157674426Y-55215308D01*
X157953788Y-55889748D01*
X158469982Y-56405942D01*
X158703973Y-56502864D01*
X158309426Y-56502864D01*
X158061661Y-56552147D01*
X157851617Y-56692495D01*
X157711269Y-56902539D01*
X157661986Y-57150304D01*
X157661986Y-59550304D01*
X157711269Y-59798069D01*
X157851617Y-60008113D01*
X158061661Y-60148461D01*
X158309426Y-60197744D01*
X160709426Y-60197744D01*
X160957191Y-60148461D01*
X161167235Y-60008113D01*
X161307583Y-59798069D01*
X161356866Y-59550304D01*
X161356866Y-57772546D01*
X161952794Y-58368474D01*
X161995193Y-58431929D01*
X162058648Y-58474328D01*
X162058649Y-58474329D01*
X162246584Y-58599903D01*
X162543121Y-58658888D01*
X162543122Y-58658888D01*
X162839659Y-58599903D01*
X162874481Y-58576636D01*
X177933000Y-58576636D01*
X177933000Y-58954879D01*
X178033666Y-59460962D01*
X178417135Y-60034865D01*
X178991037Y-60418334D01*
X179668000Y-60552990D01*
X180344962Y-60418334D01*
X180918865Y-60034865D01*
X181002935Y-59909045D01*
X180997599Y-65906432D01*
X180783446Y-65389420D01*
X180182860Y-64788834D01*
X179398158Y-64463800D01*
X178548802Y-64463800D01*
X177764100Y-64788834D01*
X177163514Y-65389420D01*
X176838480Y-66174122D01*
X176838480Y-67023478D01*
X177163514Y-67808180D01*
X177764100Y-68408766D01*
X178548802Y-68733800D01*
X179398158Y-68733800D01*
X180182860Y-68408766D01*
X180783446Y-67808180D01*
X180996365Y-67294149D01*
X180926454Y-145873301D01*
X107719146Y-145823499D01*
X107693226Y-116700120D01*
X109859485Y-116700120D01*
X109988733Y-116992923D01*
X110689006Y-117261188D01*
X111438635Y-117241050D01*
X112037667Y-116992923D01*
X112166915Y-116700120D01*
X111013200Y-115546405D01*
X109859485Y-116700120D01*
X107693226Y-116700120D01*
X107691750Y-115042606D01*
X109118812Y-115042606D01*
X109138950Y-115792235D01*
X109387077Y-116391267D01*
X109679880Y-116520515D01*
X110833595Y-115366800D01*
X111192805Y-115366800D01*
X112346520Y-116520515D01*
X112639323Y-116391267D01*
X112907588Y-115690994D01*
X112887450Y-114941365D01*
X112639323Y-114342333D01*
X112346520Y-114213085D01*
X111192805Y-115366800D01*
X110833595Y-115366800D01*
X109679880Y-114213085D01*
X109387077Y-114342333D01*
X109118812Y-115042606D01*
X107691750Y-115042606D01*
X107690852Y-114033480D01*
X109859485Y-114033480D01*
X111013200Y-115187195D01*
X112166915Y-114033480D01*
X112037667Y-113740677D01*
X111337394Y-113472412D01*
X110587765Y-113492550D01*
X109988733Y-113740677D01*
X109859485Y-114033480D01*
X107690852Y-114033480D01*
X107669021Y-89506926D01*
X107931000Y-89506926D01*
X107931000Y-89918674D01*
X108088569Y-90299080D01*
X108379720Y-90590231D01*
X108760126Y-90747800D01*
X109171874Y-90747800D01*
X109552280Y-90590231D01*
X109669711Y-90472800D01*
X114493102Y-90472800D01*
X114418001Y-90585195D01*
X114368718Y-90832960D01*
X114368718Y-92532960D01*
X114418001Y-92780725D01*
X114558349Y-92990769D01*
X114768393Y-93131117D01*
X115016158Y-93180400D01*
X116716158Y-93180400D01*
X116963923Y-93131117D01*
X117173967Y-92990769D01*
X117314315Y-92780725D01*
X117323342Y-92735341D01*
X117335533Y-92753585D01*
X117520003Y-92876844D01*
X117379800Y-93215326D01*
X117379800Y-93627074D01*
X117537369Y-94007480D01*
X117609299Y-94079410D01*
X117335533Y-94262335D01*
X117323342Y-94280579D01*
X117314315Y-94235195D01*
X117173967Y-94025151D01*
X116963923Y-93884803D01*
X116716158Y-93835520D01*
X115016158Y-93835520D01*
X114768393Y-93884803D01*
X114558349Y-94025151D01*
X114418001Y-94235195D01*
X114368718Y-94482960D01*
X114368718Y-96182960D01*
X114418001Y-96430725D01*
X114558349Y-96640769D01*
X114768393Y-96781117D01*
X115016158Y-96830400D01*
X116716158Y-96830400D01*
X116963923Y-96781117D01*
X117173967Y-96640769D01*
X117314315Y-96430725D01*
X117323342Y-96385341D01*
X117335533Y-96403585D01*
X117418480Y-96459009D01*
X117384969Y-96492520D01*
X117227400Y-96872926D01*
X117227400Y-97284674D01*
X117290247Y-97436400D01*
X116578511Y-97436400D01*
X116461080Y-97318969D01*
X116080674Y-97161400D01*
X115668926Y-97161400D01*
X115288520Y-97318969D01*
X114997369Y-97610120D01*
X114839800Y-97990526D01*
X114839800Y-98402274D01*
X114997369Y-98782680D01*
X115288520Y-99073831D01*
X115509956Y-99165553D01*
X115464575Y-99195875D01*
X115265200Y-99494261D01*
X115065825Y-99195875D01*
X114574618Y-98867661D01*
X114141456Y-98781500D01*
X113848944Y-98781500D01*
X113415782Y-98867661D01*
X112924575Y-99195875D01*
X112725200Y-99494261D01*
X112525825Y-99195875D01*
X112034618Y-98867661D01*
X111601456Y-98781500D01*
X111308944Y-98781500D01*
X110875782Y-98867661D01*
X110384575Y-99195875D01*
X110056361Y-99687082D01*
X109941108Y-100266500D01*
X110056361Y-100845918D01*
X110384575Y-101337125D01*
X110875782Y-101665339D01*
X111308944Y-101751500D01*
X111601456Y-101751500D01*
X112034618Y-101665339D01*
X112525825Y-101337125D01*
X112725200Y-101038739D01*
X112924575Y-101337125D01*
X113415782Y-101665339D01*
X113848944Y-101751500D01*
X114141456Y-101751500D01*
X114574618Y-101665339D01*
X115065825Y-101337125D01*
X115265200Y-101038739D01*
X115464575Y-101337125D01*
X115955782Y-101665339D01*
X116388944Y-101751500D01*
X116681456Y-101751500D01*
X117114618Y-101665339D01*
X117605825Y-101337125D01*
X117805200Y-101038739D01*
X118004575Y-101337125D01*
X118495782Y-101665339D01*
X118928944Y-101751500D01*
X119221456Y-101751500D01*
X119654618Y-101665339D01*
X120145825Y-101337125D01*
X120345200Y-101038739D01*
X120544575Y-101337125D01*
X121035782Y-101665339D01*
X121468944Y-101751500D01*
X121761456Y-101751500D01*
X122194618Y-101665339D01*
X122685825Y-101337125D01*
X122698016Y-101318881D01*
X122707043Y-101364265D01*
X122847391Y-101574309D01*
X123057435Y-101714657D01*
X123305200Y-101763940D01*
X125005200Y-101763940D01*
X125252965Y-101714657D01*
X125463009Y-101574309D01*
X125603357Y-101364265D01*
X125652640Y-101116500D01*
X125652640Y-99416500D01*
X125603357Y-99168735D01*
X125463009Y-98958691D01*
X125459580Y-98956400D01*
X128955800Y-98956400D01*
X128955800Y-104163936D01*
X128713600Y-104115760D01*
X127013600Y-104115760D01*
X126765835Y-104165043D01*
X126555791Y-104305391D01*
X126415443Y-104515435D01*
X126406416Y-104560819D01*
X126394225Y-104542575D01*
X125903018Y-104214361D01*
X125469856Y-104128200D01*
X125177344Y-104128200D01*
X124744182Y-104214361D01*
X124252975Y-104542575D01*
X124053600Y-104840961D01*
X123854225Y-104542575D01*
X123363018Y-104214361D01*
X122929856Y-104128200D01*
X122637344Y-104128200D01*
X122204182Y-104214361D01*
X121712975Y-104542575D01*
X121513600Y-104840961D01*
X121314225Y-104542575D01*
X120823018Y-104214361D01*
X120389856Y-104128200D01*
X120097344Y-104128200D01*
X119664182Y-104214361D01*
X119172975Y-104542575D01*
X118973600Y-104840961D01*
X118774225Y-104542575D01*
X118283018Y-104214361D01*
X117849856Y-104128200D01*
X117557344Y-104128200D01*
X117124182Y-104214361D01*
X116632975Y-104542575D01*
X116433600Y-104840961D01*
X116234225Y-104542575D01*
X115743018Y-104214361D01*
X115309856Y-104128200D01*
X115017344Y-104128200D01*
X114584182Y-104214361D01*
X114092975Y-104542575D01*
X113893600Y-104840961D01*
X113694225Y-104542575D01*
X113203018Y-104214361D01*
X112769856Y-104128200D01*
X112477344Y-104128200D01*
X112044182Y-104214361D01*
X111552975Y-104542575D01*
X111353600Y-104840961D01*
X111154225Y-104542575D01*
X110663018Y-104214361D01*
X110229856Y-104128200D01*
X109937344Y-104128200D01*
X109504182Y-104214361D01*
X109012975Y-104542575D01*
X108684761Y-105033782D01*
X108569508Y-105613200D01*
X108684761Y-106192618D01*
X109012975Y-106683825D01*
X109504182Y-107012039D01*
X109937344Y-107098200D01*
X110229856Y-107098200D01*
X110663018Y-107012039D01*
X111154225Y-106683825D01*
X111353600Y-106385439D01*
X111552975Y-106683825D01*
X112044182Y-107012039D01*
X112477344Y-107098200D01*
X112769856Y-107098200D01*
X113203018Y-107012039D01*
X113694225Y-106683825D01*
X113893600Y-106385439D01*
X114092975Y-106683825D01*
X114584182Y-107012039D01*
X115017344Y-107098200D01*
X115309856Y-107098200D01*
X115743018Y-107012039D01*
X116234225Y-106683825D01*
X116433600Y-106385439D01*
X116632975Y-106683825D01*
X117124182Y-107012039D01*
X117557344Y-107098200D01*
X117849856Y-107098200D01*
X118283018Y-107012039D01*
X118774225Y-106683825D01*
X118973600Y-106385439D01*
X119172975Y-106683825D01*
X119664182Y-107012039D01*
X120097344Y-107098200D01*
X120389856Y-107098200D01*
X120823018Y-107012039D01*
X121314225Y-106683825D01*
X121513600Y-106385439D01*
X121712975Y-106683825D01*
X122204182Y-107012039D01*
X122637344Y-107098200D01*
X122929856Y-107098200D01*
X123363018Y-107012039D01*
X123854225Y-106683825D01*
X124053600Y-106385439D01*
X124252975Y-106683825D01*
X124744182Y-107012039D01*
X125177344Y-107098200D01*
X125469856Y-107098200D01*
X125903018Y-107012039D01*
X126394225Y-106683825D01*
X126406416Y-106665581D01*
X126415443Y-106710965D01*
X126555791Y-106921009D01*
X126765835Y-107061357D01*
X127013600Y-107110640D01*
X128713600Y-107110640D01*
X128955800Y-107062464D01*
X128955800Y-110515400D01*
X127000000Y-110515400D01*
X126951399Y-110525067D01*
X126910197Y-110552597D01*
X126882667Y-110593799D01*
X126873000Y-110642400D01*
X126873000Y-113682631D01*
X126388150Y-113481800D01*
X125638250Y-113481800D01*
X124945433Y-113768774D01*
X124415174Y-114299033D01*
X124128200Y-114991850D01*
X124128200Y-115741750D01*
X124278200Y-116103883D01*
X124278201Y-123254940D01*
X124259341Y-123273800D01*
X117748200Y-123273800D01*
X117748200Y-116700120D01*
X119859485Y-116700120D01*
X119988733Y-116992923D01*
X120689006Y-117261188D01*
X121438635Y-117241050D01*
X122037667Y-116992923D01*
X122166915Y-116700120D01*
X121013200Y-115546405D01*
X119859485Y-116700120D01*
X117748200Y-116700120D01*
X117748200Y-116103882D01*
X117898200Y-115741750D01*
X117898200Y-115042606D01*
X119118812Y-115042606D01*
X119138950Y-115792235D01*
X119387077Y-116391267D01*
X119679880Y-116520515D01*
X120833595Y-115366800D01*
X121192805Y-115366800D01*
X122346520Y-116520515D01*
X122639323Y-116391267D01*
X122907588Y-115690994D01*
X122887450Y-114941365D01*
X122639323Y-114342333D01*
X122346520Y-114213085D01*
X121192805Y-115366800D01*
X120833595Y-115366800D01*
X119679880Y-114213085D01*
X119387077Y-114342333D01*
X119118812Y-115042606D01*
X117898200Y-115042606D01*
X117898200Y-114991850D01*
X117611226Y-114299033D01*
X117345673Y-114033480D01*
X119859485Y-114033480D01*
X121013200Y-115187195D01*
X122166915Y-114033480D01*
X122037667Y-113740677D01*
X121337394Y-113472412D01*
X120587765Y-113492550D01*
X119988733Y-113740677D01*
X119859485Y-114033480D01*
X117345673Y-114033480D01*
X117080967Y-113768774D01*
X116388150Y-113481800D01*
X115638250Y-113481800D01*
X114945433Y-113768774D01*
X114415174Y-114299033D01*
X114128200Y-114991850D01*
X114128200Y-115741750D01*
X114278201Y-116103884D01*
X114278200Y-124541271D01*
X114183214Y-125018800D01*
X114217401Y-125190670D01*
X114217400Y-128794724D01*
X112984423Y-130027701D01*
X112838727Y-130125053D01*
X112741375Y-130270750D01*
X112741372Y-130270753D01*
X112453047Y-130702262D01*
X112317615Y-131383127D01*
X112351801Y-131554992D01*
X112351801Y-132230100D01*
X112074895Y-132507006D01*
X111711800Y-133383594D01*
X111711800Y-134332406D01*
X112074895Y-135208994D01*
X112745806Y-135879905D01*
X113622394Y-136243000D01*
X114571206Y-136243000D01*
X115447794Y-135879905D01*
X115775171Y-135552528D01*
X119541477Y-135552528D01*
X119731764Y-135897271D01*
X120612991Y-136248956D01*
X121561723Y-136236641D01*
X122381036Y-135897271D01*
X122571323Y-135552528D01*
X121056400Y-134037605D01*
X119541477Y-135552528D01*
X115775171Y-135552528D01*
X116118705Y-135208994D01*
X116481800Y-134332406D01*
X116481800Y-133414591D01*
X118665444Y-133414591D01*
X118677759Y-134363323D01*
X119017129Y-135182636D01*
X119361872Y-135372923D01*
X120876795Y-133858000D01*
X121236005Y-133858000D01*
X122750928Y-135372923D01*
X123095671Y-135182636D01*
X123447356Y-134301409D01*
X123435443Y-133383594D01*
X125681800Y-133383594D01*
X125681800Y-134332406D01*
X126044895Y-135208994D01*
X126715806Y-135879905D01*
X127592394Y-136243000D01*
X128541206Y-136243000D01*
X129417794Y-135879905D01*
X129694699Y-135603000D01*
X130713538Y-135603000D01*
X130968928Y-135552200D01*
X144609800Y-135552200D01*
X144609801Y-143134930D01*
X144575614Y-143306800D01*
X144711046Y-143987665D01*
X145096726Y-144564874D01*
X145673935Y-144950554D01*
X146182935Y-145051800D01*
X146354800Y-145085986D01*
X146526665Y-145051800D01*
X151474368Y-145051800D01*
X151878438Y-145455870D01*
X152810157Y-145841800D01*
X153818643Y-145841800D01*
X154750362Y-145455870D01*
X155463470Y-144742762D01*
X155849400Y-143811043D01*
X155849400Y-142802557D01*
X155463470Y-141870838D01*
X154750362Y-141157730D01*
X153818643Y-140771800D01*
X152810157Y-140771800D01*
X151878438Y-141157730D01*
X151474368Y-141561800D01*
X148099800Y-141561800D01*
X148099800Y-134942200D01*
X153222983Y-134942200D01*
X153394043Y-134908174D01*
X153565102Y-134942200D01*
X163965000Y-134942200D01*
X163965001Y-141033067D01*
X163664038Y-141157730D01*
X162950930Y-141870838D01*
X162565000Y-142802557D01*
X162565000Y-143811043D01*
X162950930Y-144742762D01*
X163664038Y-145455870D01*
X164595757Y-145841800D01*
X165604243Y-145841800D01*
X166535962Y-145455870D01*
X167249070Y-144742762D01*
X167635000Y-143811043D01*
X167635000Y-142802557D01*
X167249070Y-141870838D01*
X166535962Y-141157730D01*
X166235000Y-141033068D01*
X166235000Y-134891400D01*
X176062617Y-134891400D01*
X176174400Y-134913635D01*
X176286183Y-134891400D01*
X176617255Y-134825546D01*
X176992689Y-134574689D01*
X177243546Y-134199255D01*
X177331635Y-133756400D01*
X177309400Y-133644617D01*
X177309400Y-126781697D01*
X177444985Y-126691101D01*
X177585333Y-126481057D01*
X177634616Y-126233292D01*
X177634616Y-124533292D01*
X177585333Y-124285527D01*
X177444985Y-124075483D01*
X177234941Y-123935135D01*
X176987176Y-123885852D01*
X175287176Y-123885852D01*
X175039411Y-123935135D01*
X174829367Y-124075483D01*
X174689019Y-124285527D01*
X174639736Y-124533292D01*
X174639736Y-126233292D01*
X174689019Y-126481057D01*
X174829367Y-126691101D01*
X175039401Y-126831442D01*
X175039400Y-132621400D01*
X165553902Y-132621400D01*
X165382842Y-132655426D01*
X165100000Y-132599165D01*
X164732827Y-132672200D01*
X153565102Y-132672200D01*
X153394043Y-132706226D01*
X153222983Y-132672200D01*
X147695110Y-132672200D01*
X147612874Y-132549126D01*
X147035665Y-132163446D01*
X146526665Y-132062200D01*
X146354800Y-132028014D01*
X146182935Y-132062200D01*
X130420608Y-132062200D01*
X130165218Y-132113000D01*
X129694699Y-132113000D01*
X129417794Y-131836095D01*
X128541206Y-131473000D01*
X127592394Y-131473000D01*
X126715806Y-131836095D01*
X126044895Y-132507006D01*
X125681800Y-133383594D01*
X123435443Y-133383594D01*
X123435041Y-133352677D01*
X123095671Y-132533364D01*
X122750928Y-132343077D01*
X121236005Y-133858000D01*
X120876795Y-133858000D01*
X119361872Y-132343077D01*
X119017129Y-132533364D01*
X118665444Y-133414591D01*
X116481800Y-133414591D01*
X116481800Y-133383594D01*
X116118705Y-132507006D01*
X115841800Y-132230101D01*
X115841800Y-132163472D01*
X119541477Y-132163472D01*
X121056400Y-133678395D01*
X122571323Y-132163472D01*
X122381036Y-131818729D01*
X121499809Y-131467044D01*
X120551077Y-131479359D01*
X119731764Y-131818729D01*
X119541477Y-132163472D01*
X115841800Y-132163472D01*
X115841800Y-132105929D01*
X116663130Y-131284600D01*
X171185817Y-131284600D01*
X171297600Y-131306835D01*
X171409383Y-131284600D01*
X171740455Y-131218746D01*
X172115889Y-130967889D01*
X172366746Y-130592455D01*
X172454835Y-130149600D01*
X172432600Y-130037817D01*
X172432600Y-126828340D01*
X172618985Y-126703801D01*
X172759333Y-126493757D01*
X172808616Y-126245992D01*
X172808616Y-124545992D01*
X172759333Y-124298227D01*
X172618985Y-124088183D01*
X172408941Y-123947835D01*
X172161176Y-123898552D01*
X170461176Y-123898552D01*
X170213411Y-123947835D01*
X170003367Y-124088183D01*
X169863019Y-124298227D01*
X169813736Y-124545992D01*
X169813736Y-126245992D01*
X169863019Y-126493757D01*
X170003367Y-126703801D01*
X170162601Y-126810198D01*
X170162600Y-129014600D01*
X149394549Y-129014600D01*
X149394549Y-127003823D01*
X149567358Y-126888355D01*
X149707706Y-126678311D01*
X149756989Y-126430546D01*
X149756989Y-124730546D01*
X149707706Y-124482781D01*
X149567358Y-124272737D01*
X149505493Y-124231400D01*
X151922025Y-124231400D01*
X151803140Y-124310837D01*
X151662792Y-124520881D01*
X151613509Y-124768646D01*
X151613509Y-126468646D01*
X151662792Y-126716411D01*
X151803140Y-126926455D01*
X152013184Y-127066803D01*
X152260949Y-127116086D01*
X153960949Y-127116086D01*
X154208714Y-127066803D01*
X154418758Y-126926455D01*
X154559106Y-126716411D01*
X154608389Y-126468646D01*
X154608389Y-124768646D01*
X154559106Y-124520881D01*
X154418758Y-124310837D01*
X154299873Y-124231400D01*
X161544000Y-124231400D01*
X161592601Y-124221733D01*
X161633803Y-124194203D01*
X161661333Y-124153001D01*
X161671000Y-124104400D01*
X161671000Y-100947332D01*
X162471076Y-100947332D01*
X162718841Y-100898049D01*
X162928885Y-100757701D01*
X163069233Y-100547657D01*
X163118516Y-100299892D01*
X163118516Y-100209892D01*
X164633781Y-100209892D01*
X164716920Y-100293031D01*
X165097326Y-100450600D01*
X165509074Y-100450600D01*
X165889480Y-100293031D01*
X166180631Y-100001880D01*
X166311952Y-99684842D01*
X169915076Y-99684842D01*
X169915076Y-100375402D01*
X170011749Y-100608791D01*
X170190378Y-100787419D01*
X170423767Y-100884092D01*
X171114326Y-100884092D01*
X171273076Y-100725342D01*
X171273076Y-99526092D01*
X171527076Y-99526092D01*
X171527076Y-100725342D01*
X171685826Y-100884092D01*
X172376385Y-100884092D01*
X172609774Y-100787419D01*
X172788403Y-100608791D01*
X172885076Y-100375402D01*
X172885076Y-99684842D01*
X172726326Y-99526092D01*
X171527076Y-99526092D01*
X171273076Y-99526092D01*
X170073826Y-99526092D01*
X169915076Y-99684842D01*
X166311952Y-99684842D01*
X166338200Y-99621474D01*
X166338200Y-99209726D01*
X166180631Y-98829320D01*
X165889480Y-98538169D01*
X165610911Y-98422782D01*
X169915076Y-98422782D01*
X169915076Y-99113342D01*
X170073826Y-99272092D01*
X171273076Y-99272092D01*
X171273076Y-98072842D01*
X171527076Y-98072842D01*
X171527076Y-99272092D01*
X172726326Y-99272092D01*
X172885076Y-99113342D01*
X172885076Y-98422782D01*
X172788403Y-98189393D01*
X172609774Y-98010765D01*
X172376385Y-97914092D01*
X171685826Y-97914092D01*
X171527076Y-98072842D01*
X171273076Y-98072842D01*
X171114326Y-97914092D01*
X170423767Y-97914092D01*
X170190378Y-98010765D01*
X170011749Y-98189393D01*
X169915076Y-98422782D01*
X165610911Y-98422782D01*
X165509074Y-98380600D01*
X165097326Y-98380600D01*
X164716920Y-98538169D01*
X164565197Y-98689892D01*
X163118516Y-98689892D01*
X163118516Y-98599892D01*
X163069233Y-98352127D01*
X162928885Y-98142083D01*
X162718841Y-98001735D01*
X162471076Y-97952452D01*
X161671000Y-97952452D01*
X161671000Y-97463708D01*
X161766200Y-97233874D01*
X161766200Y-96822126D01*
X161671000Y-96592292D01*
X161671000Y-96113600D01*
X161661333Y-96064999D01*
X161633803Y-96023797D01*
X161592601Y-95996267D01*
X161544000Y-95986600D01*
X157231722Y-95986600D01*
X157222014Y-95972071D01*
X156970622Y-95804096D01*
X156827797Y-95775686D01*
X156694680Y-95642569D01*
X156314274Y-95485000D01*
X155902526Y-95485000D01*
X155561079Y-95626432D01*
X155568600Y-95608274D01*
X155568600Y-95196526D01*
X155411031Y-94816120D01*
X155119880Y-94524969D01*
X154739474Y-94367400D01*
X154327726Y-94367400D01*
X153947320Y-94524969D01*
X153829889Y-94642400D01*
X141823600Y-94642400D01*
X141823600Y-94503750D01*
X141664850Y-94345000D01*
X140690600Y-94345000D01*
X140690600Y-94365000D01*
X140436600Y-94365000D01*
X140436600Y-94345000D01*
X140416600Y-94345000D01*
X140416600Y-94091000D01*
X140436600Y-94091000D01*
X140436600Y-94071000D01*
X140690600Y-94071000D01*
X140690600Y-94091000D01*
X141664850Y-94091000D01*
X141823600Y-93932250D01*
X141823600Y-93591691D01*
X141726927Y-93358302D01*
X141585280Y-93216654D01*
X141646409Y-93175809D01*
X141778582Y-92978000D01*
X142114160Y-92978000D01*
X142114160Y-93102800D01*
X142163443Y-93350565D01*
X142303791Y-93560609D01*
X142513835Y-93700957D01*
X142761600Y-93750240D01*
X144461600Y-93750240D01*
X144709365Y-93700957D01*
X144919409Y-93560609D01*
X145059757Y-93350565D01*
X145068784Y-93305181D01*
X145080975Y-93323425D01*
X145572182Y-93651639D01*
X146005344Y-93737800D01*
X146297856Y-93737800D01*
X146731018Y-93651639D01*
X147222225Y-93323425D01*
X147421600Y-93025039D01*
X147620975Y-93323425D01*
X148112182Y-93651639D01*
X148545344Y-93737800D01*
X148837856Y-93737800D01*
X149271018Y-93651639D01*
X149762225Y-93323425D01*
X149975443Y-93004322D01*
X150036417Y-93134158D01*
X150464676Y-93524445D01*
X150874710Y-93694276D01*
X151104600Y-93572955D01*
X151104600Y-92379800D01*
X151358600Y-92379800D01*
X151358600Y-93572955D01*
X151588490Y-93694276D01*
X151998524Y-93524445D01*
X152426783Y-93134158D01*
X152673086Y-92609692D01*
X152635745Y-92538550D01*
X158789000Y-92538550D01*
X158789000Y-93229109D01*
X158885673Y-93462498D01*
X159064301Y-93641127D01*
X159297690Y-93737800D01*
X159988250Y-93737800D01*
X160147000Y-93579050D01*
X160147000Y-92379800D01*
X158947750Y-92379800D01*
X158789000Y-92538550D01*
X152635745Y-92538550D01*
X152552419Y-92379800D01*
X151358600Y-92379800D01*
X151104600Y-92379800D01*
X151084600Y-92379800D01*
X151084600Y-92125800D01*
X151104600Y-92125800D01*
X151104600Y-90932645D01*
X151358600Y-90932645D01*
X151358600Y-92125800D01*
X152552419Y-92125800D01*
X152673086Y-91895908D01*
X152426783Y-91371442D01*
X152322594Y-91276491D01*
X158789000Y-91276491D01*
X158789000Y-91967050D01*
X158947750Y-92125800D01*
X160147000Y-92125800D01*
X160147000Y-90926550D01*
X160401000Y-90926550D01*
X160401000Y-92125800D01*
X160421000Y-92125800D01*
X160421000Y-92379800D01*
X160401000Y-92379800D01*
X160401000Y-93579050D01*
X160559750Y-93737800D01*
X161250310Y-93737800D01*
X161483699Y-93641127D01*
X161662327Y-93462498D01*
X161728904Y-93301767D01*
X161743375Y-93323425D01*
X162234582Y-93651639D01*
X162667744Y-93737800D01*
X162960256Y-93737800D01*
X163393418Y-93651639D01*
X163884625Y-93323425D01*
X164084000Y-93025039D01*
X164283375Y-93323425D01*
X164774582Y-93651639D01*
X165207744Y-93737800D01*
X165500256Y-93737800D01*
X165933418Y-93651639D01*
X166424625Y-93323425D01*
X166752839Y-92832218D01*
X166868092Y-92252800D01*
X166752839Y-91673382D01*
X166424625Y-91182175D01*
X165933418Y-90853961D01*
X165500256Y-90767800D01*
X165207744Y-90767800D01*
X164774582Y-90853961D01*
X164283375Y-91182175D01*
X164084000Y-91480561D01*
X163884625Y-91182175D01*
X163393418Y-90853961D01*
X162960256Y-90767800D01*
X162667744Y-90767800D01*
X162234582Y-90853961D01*
X161743375Y-91182175D01*
X161728904Y-91203833D01*
X161662327Y-91043102D01*
X161483699Y-90864473D01*
X161250310Y-90767800D01*
X160559750Y-90767800D01*
X160401000Y-90926550D01*
X160147000Y-90926550D01*
X159988250Y-90767800D01*
X159297690Y-90767800D01*
X159064301Y-90864473D01*
X158885673Y-91043102D01*
X158789000Y-91276491D01*
X152322594Y-91276491D01*
X151998524Y-90981155D01*
X151588490Y-90811324D01*
X151358600Y-90932645D01*
X151104600Y-90932645D01*
X150874710Y-90811324D01*
X150464676Y-90981155D01*
X150036417Y-91371442D01*
X149975443Y-91501278D01*
X149762225Y-91182175D01*
X149271018Y-90853961D01*
X148837856Y-90767800D01*
X148545344Y-90767800D01*
X148112182Y-90853961D01*
X147620975Y-91182175D01*
X147421600Y-91480561D01*
X147222225Y-91182175D01*
X146731018Y-90853961D01*
X146297856Y-90767800D01*
X146005344Y-90767800D01*
X145572182Y-90853961D01*
X145080975Y-91182175D01*
X145068784Y-91200419D01*
X145059757Y-91155035D01*
X144919409Y-90944991D01*
X144709365Y-90804643D01*
X144461600Y-90755360D01*
X142761600Y-90755360D01*
X142513835Y-90804643D01*
X142303791Y-90944991D01*
X142163443Y-91155035D01*
X142114160Y-91402800D01*
X142114160Y-91458000D01*
X141778582Y-91458000D01*
X141646409Y-91260191D01*
X141436365Y-91119843D01*
X141188600Y-91070560D01*
X139938600Y-91070560D01*
X139690835Y-91119843D01*
X139480791Y-91260191D01*
X139359309Y-91442000D01*
X132072511Y-91442000D01*
X131955080Y-91324569D01*
X131574674Y-91167000D01*
X131408601Y-91167000D01*
X130987832Y-90746231D01*
X130945430Y-90682772D01*
X130694038Y-90514797D01*
X130659345Y-90507896D01*
X130749292Y-90055700D01*
X130634039Y-89476282D01*
X130305825Y-88985075D01*
X130007439Y-88785700D01*
X130305825Y-88586325D01*
X130386049Y-88466262D01*
X131659859Y-89740073D01*
X131702259Y-89803529D01*
X131953651Y-89971504D01*
X132175336Y-90015600D01*
X132175340Y-90015600D01*
X132250187Y-90030488D01*
X132325034Y-90015600D01*
X148038689Y-90015600D01*
X148105320Y-90082231D01*
X148485726Y-90239800D01*
X148897474Y-90239800D01*
X149277880Y-90082231D01*
X149569031Y-89791080D01*
X149726600Y-89410674D01*
X149726600Y-88998926D01*
X149569031Y-88618520D01*
X149277880Y-88327369D01*
X148897474Y-88169800D01*
X148485726Y-88169800D01*
X148105320Y-88327369D01*
X147937089Y-88495600D01*
X132564990Y-88495600D01*
X131138589Y-87069200D01*
X144127089Y-87069200D01*
X144244520Y-87186631D01*
X144624926Y-87344200D01*
X145036674Y-87344200D01*
X145417080Y-87186631D01*
X145708231Y-86895480D01*
X145865800Y-86515074D01*
X145865800Y-86277400D01*
X146154274Y-86277400D01*
X146534680Y-86119831D01*
X146825831Y-85828680D01*
X146983400Y-85448274D01*
X146983400Y-85036526D01*
X146934533Y-84918550D01*
X148324200Y-84918550D01*
X148324200Y-85609110D01*
X148420873Y-85842499D01*
X148599502Y-86021127D01*
X148832891Y-86117800D01*
X149523450Y-86117800D01*
X149682200Y-85959050D01*
X149682200Y-84759800D01*
X149936200Y-84759800D01*
X149936200Y-85959050D01*
X150094950Y-86117800D01*
X150785509Y-86117800D01*
X151018898Y-86021127D01*
X151197527Y-85842499D01*
X151294200Y-85609110D01*
X151294200Y-84918550D01*
X151135450Y-84759800D01*
X149936200Y-84759800D01*
X149682200Y-84759800D01*
X148482950Y-84759800D01*
X148324200Y-84918550D01*
X146934533Y-84918550D01*
X146825831Y-84656120D01*
X146534680Y-84364969D01*
X146154274Y-84207400D01*
X146018200Y-84207400D01*
X146018200Y-83817326D01*
X145860631Y-83436920D01*
X145569480Y-83145769D01*
X145189074Y-82988200D01*
X144777326Y-82988200D01*
X144396920Y-83145769D01*
X144279489Y-83263200D01*
X144068474Y-83263200D01*
X144032818Y-83083943D01*
X143892470Y-82873899D01*
X143831341Y-82833054D01*
X143972988Y-82691406D01*
X144069661Y-82458017D01*
X144069661Y-82117458D01*
X143910911Y-81958708D01*
X142936661Y-81958708D01*
X142936661Y-81978708D01*
X142682661Y-81978708D01*
X142682661Y-81958708D01*
X141708411Y-81958708D01*
X141617861Y-82049258D01*
X141523311Y-81954708D01*
X140549061Y-81954708D01*
X140549061Y-81974708D01*
X140295061Y-81974708D01*
X140295061Y-81954708D01*
X139320811Y-81954708D01*
X139162061Y-82113458D01*
X139162061Y-82454017D01*
X139258734Y-82687406D01*
X139400381Y-82829054D01*
X139339252Y-82869899D01*
X139207079Y-83067708D01*
X138671640Y-83067708D01*
X138586225Y-82939875D01*
X138287839Y-82740500D01*
X138586225Y-82541125D01*
X138914439Y-82049918D01*
X139029692Y-81470500D01*
X138914439Y-80891082D01*
X138897346Y-80865501D01*
X139361242Y-80865501D01*
X139258734Y-80968010D01*
X139162061Y-81201399D01*
X139162061Y-81541958D01*
X139320811Y-81700708D01*
X140295061Y-81700708D01*
X140295061Y-81680708D01*
X140549061Y-81680708D01*
X140549061Y-81700708D01*
X141523311Y-81700708D01*
X141613861Y-81610158D01*
X141708411Y-81704708D01*
X142682661Y-81704708D01*
X142682661Y-80855458D01*
X142936661Y-80855458D01*
X142936661Y-81704708D01*
X143910911Y-81704708D01*
X144069661Y-81545958D01*
X144069661Y-81205399D01*
X143972988Y-80972010D01*
X143794360Y-80793381D01*
X143560971Y-80696708D01*
X143095411Y-80696708D01*
X142936661Y-80855458D01*
X142682661Y-80855458D01*
X142523911Y-80696708D01*
X142058351Y-80696708D01*
X141824962Y-80793381D01*
X141646334Y-80972010D01*
X141616689Y-81043578D01*
X141585388Y-80968010D01*
X141406760Y-80789381D01*
X141173371Y-80692708D01*
X141033704Y-80692708D01*
X141034631Y-80691781D01*
X141192200Y-80311375D01*
X141192200Y-79899627D01*
X141034631Y-79519221D01*
X140760736Y-79245326D01*
X141814600Y-79245326D01*
X141814600Y-79657074D01*
X141972169Y-80037480D01*
X142263320Y-80328631D01*
X142643726Y-80486200D01*
X143055474Y-80486200D01*
X143435880Y-80328631D01*
X143553311Y-80211200D01*
X148463135Y-80211200D01*
X148738575Y-80623425D01*
X149036961Y-80822800D01*
X148738575Y-81022175D01*
X148410361Y-81513382D01*
X148295108Y-82092800D01*
X148410361Y-82672218D01*
X148738575Y-83163425D01*
X148760233Y-83177896D01*
X148599502Y-83244473D01*
X148420873Y-83423101D01*
X148324200Y-83656490D01*
X148324200Y-84347050D01*
X148482950Y-84505800D01*
X149682200Y-84505800D01*
X149682200Y-84485800D01*
X149936200Y-84485800D01*
X149936200Y-84505800D01*
X151135450Y-84505800D01*
X151294200Y-84347050D01*
X151294200Y-83656490D01*
X151197527Y-83423101D01*
X151018898Y-83244473D01*
X150858167Y-83177896D01*
X150879825Y-83163425D01*
X151087378Y-82852800D01*
X151273955Y-82852800D01*
X151278443Y-82875365D01*
X151418791Y-83085409D01*
X151628835Y-83225757D01*
X151876600Y-83275040D01*
X153126600Y-83275040D01*
X153374365Y-83225757D01*
X153584409Y-83085409D01*
X153671947Y-82954400D01*
X153829889Y-82954400D01*
X153947320Y-83071831D01*
X154327726Y-83229400D01*
X154739474Y-83229400D01*
X155119880Y-83071831D01*
X155411031Y-82780680D01*
X155568600Y-82400274D01*
X155568600Y-81988526D01*
X155411031Y-81608120D01*
X155119880Y-81316969D01*
X154739474Y-81159400D01*
X154327726Y-81159400D01*
X153947320Y-81316969D01*
X153829889Y-81434400D01*
X153735611Y-81434400D01*
X153724757Y-81379835D01*
X153584409Y-81169791D01*
X153523280Y-81128946D01*
X153664927Y-80987298D01*
X153761600Y-80753909D01*
X153761600Y-80413350D01*
X153602850Y-80254600D01*
X152628600Y-80254600D01*
X152628600Y-80274600D01*
X152374600Y-80274600D01*
X152374600Y-80254600D01*
X151400350Y-80254600D01*
X151241600Y-80413350D01*
X151241600Y-80753909D01*
X151338273Y-80987298D01*
X151479920Y-81128946D01*
X151418791Y-81169791D01*
X151309871Y-81332800D01*
X151087378Y-81332800D01*
X150879825Y-81022175D01*
X150581439Y-80822800D01*
X150879825Y-80623425D01*
X151208039Y-80132218D01*
X151261782Y-79862032D01*
X151400350Y-80000600D01*
X152374600Y-80000600D01*
X152374600Y-79151350D01*
X152628600Y-79151350D01*
X152628600Y-80000600D01*
X153602850Y-80000600D01*
X153761600Y-79841850D01*
X153761600Y-79501291D01*
X153664927Y-79267902D01*
X153486299Y-79089273D01*
X153252910Y-78992600D01*
X152787350Y-78992600D01*
X152628600Y-79151350D01*
X152374600Y-79151350D01*
X152215850Y-78992600D01*
X151750290Y-78992600D01*
X151516901Y-79089273D01*
X151338273Y-79267902D01*
X151289867Y-79384763D01*
X151208039Y-78973382D01*
X150879825Y-78482175D01*
X150581439Y-78282800D01*
X150879825Y-78083425D01*
X151208039Y-77592218D01*
X151323292Y-77012800D01*
X151208039Y-76433382D01*
X150879825Y-75942175D01*
X150581439Y-75742800D01*
X150879825Y-75543425D01*
X151208039Y-75052218D01*
X151323292Y-74472800D01*
X151208039Y-73893382D01*
X150879825Y-73402175D01*
X150388618Y-73073961D01*
X149955456Y-72987800D01*
X149662944Y-72987800D01*
X149229782Y-73073961D01*
X148738575Y-73402175D01*
X148410361Y-73893382D01*
X148295108Y-74472800D01*
X148410361Y-75052218D01*
X148738575Y-75543425D01*
X149036961Y-75742800D01*
X148738575Y-75942175D01*
X148429192Y-76405200D01*
X147312511Y-76405200D01*
X147195080Y-76287769D01*
X146814674Y-76130200D01*
X146402926Y-76130200D01*
X146022520Y-76287769D01*
X145731369Y-76578920D01*
X145573800Y-76959326D01*
X145573800Y-77371074D01*
X145731369Y-77751480D01*
X146022520Y-78042631D01*
X146402926Y-78200200D01*
X146814674Y-78200200D01*
X147195080Y-78042631D01*
X147312511Y-77925200D01*
X148632852Y-77925200D01*
X148738575Y-78083425D01*
X149036961Y-78282800D01*
X148738575Y-78482175D01*
X148598909Y-78691200D01*
X143553311Y-78691200D01*
X143435880Y-78573769D01*
X143055474Y-78416200D01*
X142643726Y-78416200D01*
X142263320Y-78573769D01*
X141972169Y-78864920D01*
X141814600Y-79245326D01*
X140760736Y-79245326D01*
X140743480Y-79228070D01*
X140363074Y-79070501D01*
X139951326Y-79070501D01*
X139570920Y-79228070D01*
X139453489Y-79345501D01*
X138933007Y-79345501D01*
X138957076Y-79287390D01*
X138835755Y-79057500D01*
X137642600Y-79057500D01*
X137642600Y-79077500D01*
X137388600Y-79077500D01*
X137388600Y-79057500D01*
X136195445Y-79057500D01*
X136074124Y-79287390D01*
X136243955Y-79697424D01*
X136354058Y-79818239D01*
X135861596Y-80310701D01*
X135681410Y-80310701D01*
X135700631Y-80291480D01*
X135858200Y-79911074D01*
X135858200Y-79499326D01*
X135700631Y-79118920D01*
X135409480Y-78827769D01*
X135029074Y-78670200D01*
X134617326Y-78670200D01*
X134236920Y-78827769D01*
X134119489Y-78945200D01*
X130386090Y-78945200D01*
X130305825Y-78825075D01*
X130007439Y-78625700D01*
X130305825Y-78426325D01*
X130634039Y-77935118D01*
X130646117Y-77874400D01*
X132493889Y-77874400D01*
X132611320Y-77991831D01*
X132991726Y-78149400D01*
X133403474Y-78149400D01*
X133783880Y-77991831D01*
X134075031Y-77700680D01*
X134232600Y-77320274D01*
X134232600Y-77163200D01*
X136245908Y-77163200D01*
X136444975Y-77461125D01*
X136764078Y-77674343D01*
X136634242Y-77735317D01*
X136243955Y-78163576D01*
X136074124Y-78573610D01*
X136195445Y-78803500D01*
X137388600Y-78803500D01*
X137388600Y-78783500D01*
X137642600Y-78783500D01*
X137642600Y-78803500D01*
X138835755Y-78803500D01*
X138957076Y-78573610D01*
X138787245Y-78163576D01*
X138396958Y-77735317D01*
X138267122Y-77674343D01*
X138586225Y-77461125D01*
X138914439Y-76969918D01*
X139029692Y-76390500D01*
X138914439Y-75811082D01*
X138897346Y-75785501D01*
X142145889Y-75785501D01*
X142263320Y-75902932D01*
X142643726Y-76060501D01*
X143055474Y-76060501D01*
X143435880Y-75902932D01*
X143727031Y-75611781D01*
X143884600Y-75231375D01*
X143884600Y-74819627D01*
X143727031Y-74439221D01*
X143435880Y-74148070D01*
X143055474Y-73990501D01*
X142643726Y-73990501D01*
X142263320Y-74148070D01*
X142145889Y-74265501D01*
X139013040Y-74265501D01*
X139013040Y-73000500D01*
X138963757Y-72752735D01*
X138823409Y-72542691D01*
X138613365Y-72402343D01*
X138365600Y-72353060D01*
X136665600Y-72353060D01*
X136417835Y-72402343D01*
X136207791Y-72542691D01*
X136067443Y-72752735D01*
X136018160Y-73000500D01*
X136018160Y-74265501D01*
X135646105Y-74265501D01*
X134454533Y-73073930D01*
X134412131Y-73010471D01*
X134160739Y-72842496D01*
X133939054Y-72798400D01*
X133939049Y-72798400D01*
X133864202Y-72783512D01*
X133789355Y-72798400D01*
X130645321Y-72798400D01*
X130749292Y-72275700D01*
X130723851Y-72147801D01*
X145905089Y-72147801D01*
X146022520Y-72265232D01*
X146402926Y-72422801D01*
X146814674Y-72422801D01*
X147195080Y-72265232D01*
X147486231Y-71974081D01*
X147643800Y-71593675D01*
X147643800Y-71181927D01*
X147486231Y-70801521D01*
X147195080Y-70510370D01*
X146814674Y-70352801D01*
X146402926Y-70352801D01*
X146022520Y-70510370D01*
X145905089Y-70627801D01*
X138550600Y-70627801D01*
X138550600Y-70456926D01*
X138393031Y-70076520D01*
X138051080Y-69734569D01*
X137670674Y-69577000D01*
X137258926Y-69577000D01*
X136878520Y-69734569D01*
X136761089Y-69852000D01*
X132165304Y-69852000D01*
X130415495Y-68102192D01*
X130634039Y-67775118D01*
X130676564Y-67561326D01*
X139223800Y-67561326D01*
X139223800Y-67973074D01*
X139381369Y-68353480D01*
X139672520Y-68644631D01*
X140052926Y-68802200D01*
X140464674Y-68802200D01*
X140845080Y-68644631D01*
X140962511Y-68527200D01*
X145149653Y-68527200D01*
X145224500Y-68542088D01*
X145299347Y-68527200D01*
X145299352Y-68527200D01*
X145363199Y-68514500D01*
X153385389Y-68514500D01*
X153490120Y-68619231D01*
X153870526Y-68776800D01*
X154282274Y-68776800D01*
X154662680Y-68619231D01*
X154953831Y-68328080D01*
X155111400Y-67947674D01*
X155111400Y-67535926D01*
X154953831Y-67155520D01*
X154662680Y-66864369D01*
X154282274Y-66706800D01*
X153870526Y-66706800D01*
X153490120Y-66864369D01*
X153359989Y-66994500D01*
X145312048Y-66994500D01*
X145237200Y-66979612D01*
X145162352Y-66994500D01*
X145162348Y-66994500D01*
X145098501Y-67007200D01*
X140962511Y-67007200D01*
X140845080Y-66889769D01*
X140464674Y-66732200D01*
X140052926Y-66732200D01*
X139672520Y-66889769D01*
X139381369Y-67180920D01*
X139223800Y-67561326D01*
X130676564Y-67561326D01*
X130749292Y-67195700D01*
X130634039Y-66616282D01*
X130305825Y-66125075D01*
X130007439Y-65925700D01*
X130305825Y-65726325D01*
X130634039Y-65235118D01*
X130749292Y-64655700D01*
X130634039Y-64076282D01*
X130305825Y-63585075D01*
X130007439Y-63385700D01*
X130305825Y-63186325D01*
X130634039Y-62695118D01*
X130749292Y-62115700D01*
X130634039Y-61536282D01*
X130359898Y-61126000D01*
X136373760Y-61126000D01*
X136373760Y-62826000D01*
X136423043Y-63073765D01*
X136563391Y-63283809D01*
X136773435Y-63424157D01*
X137021200Y-63473440D01*
X138721200Y-63473440D01*
X138968965Y-63424157D01*
X139179009Y-63283809D01*
X139319357Y-63073765D01*
X139368640Y-62826000D01*
X139368640Y-62618400D01*
X139704218Y-62618400D01*
X139836391Y-62816209D01*
X140046435Y-62956557D01*
X140294200Y-63005840D01*
X140991838Y-63005840D01*
X141069915Y-63083917D01*
X140914001Y-63460327D01*
X140914001Y-63872075D01*
X141071570Y-64252481D01*
X141362721Y-64543632D01*
X141743127Y-64701201D01*
X142154875Y-64701201D01*
X142535281Y-64543632D01*
X142826432Y-64252481D01*
X142984001Y-63872075D01*
X142984001Y-63460327D01*
X142826432Y-63079921D01*
X142709094Y-62962583D01*
X142723889Y-62888201D01*
X142709001Y-62813353D01*
X142709001Y-62813349D01*
X142664905Y-62591664D01*
X142496930Y-62340272D01*
X142433474Y-62297872D01*
X142191640Y-62056038D01*
X142191640Y-61358400D01*
X142142357Y-61110635D01*
X142010382Y-60913121D01*
X166733000Y-60913121D01*
X166733001Y-63054880D01*
X166833667Y-63560963D01*
X167217136Y-64134865D01*
X167791038Y-64518334D01*
X168468000Y-64652990D01*
X169144963Y-64518334D01*
X169718865Y-64134865D01*
X170102334Y-63560963D01*
X170203000Y-63054880D01*
X170203000Y-62484000D01*
X173099010Y-62484000D01*
X173233666Y-63160963D01*
X173617135Y-63734865D01*
X174191037Y-64118334D01*
X174697120Y-64219000D01*
X176838880Y-64219000D01*
X177344963Y-64118334D01*
X177918865Y-63734865D01*
X178302334Y-63160963D01*
X178436990Y-62484000D01*
X178302334Y-61807037D01*
X177918865Y-61233135D01*
X177344963Y-60849666D01*
X176838880Y-60749000D01*
X174697120Y-60749000D01*
X174191037Y-60849666D01*
X173617135Y-61233135D01*
X173233666Y-61807037D01*
X173099010Y-62484000D01*
X170203000Y-62484000D01*
X170203000Y-60913120D01*
X170102334Y-60407037D01*
X169718865Y-59833135D01*
X169144962Y-59449666D01*
X168468000Y-59315010D01*
X167791037Y-59449666D01*
X167217135Y-59833135D01*
X166833666Y-60407038D01*
X166733000Y-60913121D01*
X142010382Y-60913121D01*
X142002009Y-60900591D01*
X141940880Y-60859746D01*
X142082527Y-60718098D01*
X142179200Y-60484709D01*
X142179200Y-60144150D01*
X142020450Y-59985400D01*
X141046200Y-59985400D01*
X141046200Y-60005400D01*
X140792200Y-60005400D01*
X140792200Y-59985400D01*
X139817950Y-59985400D01*
X139659200Y-60144150D01*
X139659200Y-60484709D01*
X139755873Y-60718098D01*
X139897520Y-60859746D01*
X139836391Y-60900591D01*
X139704218Y-61098400D01*
X139363150Y-61098400D01*
X139319357Y-60878235D01*
X139179009Y-60668191D01*
X138968965Y-60527843D01*
X138865492Y-60507261D01*
X139142845Y-60202924D01*
X139312676Y-59792890D01*
X139191355Y-59563000D01*
X137998200Y-59563000D01*
X137998200Y-59583000D01*
X137744200Y-59583000D01*
X137744200Y-59563000D01*
X136551045Y-59563000D01*
X136429724Y-59792890D01*
X136599555Y-60202924D01*
X136876908Y-60507261D01*
X136773435Y-60527843D01*
X136563391Y-60668191D01*
X136423043Y-60878235D01*
X136373760Y-61126000D01*
X130359898Y-61126000D01*
X130305825Y-61045075D01*
X130007439Y-60845700D01*
X130305825Y-60646325D01*
X130634039Y-60155118D01*
X130749292Y-59575700D01*
X130634039Y-58996282D01*
X130305825Y-58505075D01*
X130007439Y-58305700D01*
X130305825Y-58106325D01*
X130634039Y-57615118D01*
X130749292Y-57035700D01*
X130634039Y-56456282D01*
X130305825Y-55965075D01*
X130007439Y-55765700D01*
X130305825Y-55566325D01*
X130634039Y-55075118D01*
X130749292Y-54495700D01*
X130634039Y-53916282D01*
X130305825Y-53425075D01*
X130287581Y-53412884D01*
X130332965Y-53403857D01*
X130543009Y-53263509D01*
X130683357Y-53053465D01*
X130712061Y-52909156D01*
X130908926Y-52990700D01*
X131320674Y-52990700D01*
X131701080Y-52833131D01*
X131992231Y-52541980D01*
X132149800Y-52161574D01*
X132149800Y-52062814D01*
X132269369Y-52351480D01*
X132560520Y-52642631D01*
X132940926Y-52800200D01*
X133352674Y-52800200D01*
X133733080Y-52642631D01*
X133850511Y-52525200D01*
X133946452Y-52525200D01*
X134106844Y-52557104D01*
X134106848Y-52557104D01*
X134181695Y-52571992D01*
X134256542Y-52557104D01*
X136427006Y-52557104D01*
X136596849Y-52590888D01*
X136602252Y-52589813D01*
X136800575Y-52886625D01*
X137098961Y-53086000D01*
X136800575Y-53285375D01*
X136593022Y-53596000D01*
X134764911Y-53596000D01*
X134596680Y-53427769D01*
X134216274Y-53270200D01*
X133804526Y-53270200D01*
X133424120Y-53427769D01*
X133132969Y-53718920D01*
X132975400Y-54099326D01*
X132975400Y-54511074D01*
X133132969Y-54891480D01*
X133424120Y-55182631D01*
X133804526Y-55340200D01*
X134216274Y-55340200D01*
X134596680Y-55182631D01*
X134663311Y-55116000D01*
X136593022Y-55116000D01*
X136800575Y-55426625D01*
X137098961Y-55626000D01*
X136800575Y-55825375D01*
X136472361Y-56316582D01*
X136357108Y-56896000D01*
X136472361Y-57475418D01*
X136800575Y-57966625D01*
X137119678Y-58179843D01*
X136989842Y-58240817D01*
X136599555Y-58669076D01*
X136429724Y-59079110D01*
X136551045Y-59309000D01*
X137744200Y-59309000D01*
X137744200Y-59289000D01*
X137998200Y-59289000D01*
X137998200Y-59309000D01*
X139191355Y-59309000D01*
X139231942Y-59232091D01*
X139659200Y-59232091D01*
X139659200Y-59572650D01*
X139817950Y-59731400D01*
X140792200Y-59731400D01*
X140792200Y-58882150D01*
X141046200Y-58882150D01*
X141046200Y-59731400D01*
X142020450Y-59731400D01*
X142179200Y-59572650D01*
X142179200Y-59232091D01*
X142082527Y-58998702D01*
X141903899Y-58820073D01*
X141670510Y-58723400D01*
X141204950Y-58723400D01*
X141046200Y-58882150D01*
X140792200Y-58882150D01*
X140633450Y-58723400D01*
X140167890Y-58723400D01*
X139934501Y-58820073D01*
X139755873Y-58998702D01*
X139659200Y-59232091D01*
X139231942Y-59232091D01*
X139312676Y-59079110D01*
X139142845Y-58669076D01*
X138752558Y-58240817D01*
X138622722Y-58179843D01*
X138941825Y-57966625D01*
X139270039Y-57475418D01*
X139385292Y-56896000D01*
X139270039Y-56316582D01*
X138941825Y-55825375D01*
X138643439Y-55626000D01*
X138941825Y-55426625D01*
X139270039Y-54935418D01*
X139385292Y-54356000D01*
X139270039Y-53776582D01*
X138941825Y-53285375D01*
X138643439Y-53086000D01*
X138941825Y-52886625D01*
X139270039Y-52395418D01*
X139385292Y-51816000D01*
X139270039Y-51236582D01*
X138941825Y-50745375D01*
X138643439Y-50546000D01*
X138941825Y-50346625D01*
X139270039Y-49855418D01*
X139385292Y-49276000D01*
X139270039Y-48696582D01*
X138941825Y-48205375D01*
X138643439Y-48006000D01*
X138941825Y-47806625D01*
X139270039Y-47315418D01*
X139385292Y-46736000D01*
X139270039Y-46156582D01*
X138941825Y-45665375D01*
X138643439Y-45466000D01*
X138941825Y-45266625D01*
X139270039Y-44775418D01*
X139385292Y-44196000D01*
X139327011Y-43903001D01*
X142741754Y-43903001D01*
X142816601Y-43917889D01*
X142891448Y-43903001D01*
X142891453Y-43903001D01*
X143113138Y-43858905D01*
X143364530Y-43690930D01*
X143406932Y-43627471D01*
X144344605Y-42689799D01*
X164281800Y-42689799D01*
X164281800Y-42881800D01*
X164261800Y-42881800D01*
X164261800Y-42901800D01*
X164007800Y-42901800D01*
X164007800Y-42881800D01*
X163033550Y-42881800D01*
X162874800Y-43040550D01*
X162874800Y-43381109D01*
X162971473Y-43614498D01*
X163113120Y-43756146D01*
X163051991Y-43796991D01*
X162919818Y-43994800D01*
X154729311Y-43994800D01*
X154662680Y-43928169D01*
X154282274Y-43770600D01*
X153870526Y-43770600D01*
X153490120Y-43928169D01*
X153198969Y-44219320D01*
X153041400Y-44599726D01*
X153041400Y-45011474D01*
X153198969Y-45391880D01*
X153490120Y-45683031D01*
X153870526Y-45840600D01*
X154282274Y-45840600D01*
X154662680Y-45683031D01*
X154830911Y-45514800D01*
X162919818Y-45514800D01*
X163051991Y-45712609D01*
X163262035Y-45852957D01*
X163509800Y-45902240D01*
X164759800Y-45902240D01*
X165007565Y-45852957D01*
X165217609Y-45712609D01*
X165350985Y-45512999D01*
X172807588Y-45512999D01*
X172928671Y-45593904D01*
X173150356Y-45638000D01*
X173150360Y-45638000D01*
X173225207Y-45652888D01*
X173300054Y-45638000D01*
X173313023Y-45638000D01*
X173349286Y-45725546D01*
X173730454Y-46106714D01*
X174228474Y-46313000D01*
X174767526Y-46313000D01*
X175265546Y-46106714D01*
X175646714Y-45725546D01*
X175853000Y-45227526D01*
X175853000Y-44688474D01*
X175646714Y-44190454D01*
X175265546Y-43809286D01*
X174767526Y-43603000D01*
X174228474Y-43603000D01*
X173730454Y-43809286D01*
X173460227Y-44079513D01*
X173396744Y-44037095D01*
X173175059Y-43992999D01*
X173175054Y-43992999D01*
X173100207Y-43978111D01*
X173025360Y-43992999D01*
X165348578Y-43992999D01*
X165217609Y-43796991D01*
X165156480Y-43756146D01*
X165298127Y-43614498D01*
X165394800Y-43381109D01*
X165394800Y-43138327D01*
X165468002Y-43152888D01*
X165542849Y-43138000D01*
X175743822Y-43138000D01*
X175880885Y-43165264D01*
X175889286Y-43185546D01*
X176270454Y-43566714D01*
X176768474Y-43773000D01*
X177307526Y-43773000D01*
X177805546Y-43566714D01*
X178186714Y-43185546D01*
X178393000Y-42687526D01*
X178393000Y-42148474D01*
X178186714Y-41650454D01*
X177805546Y-41269286D01*
X177307526Y-41063000D01*
X176768474Y-41063000D01*
X176270454Y-41269286D01*
X175925916Y-41613824D01*
X175904920Y-41618000D01*
X165782803Y-41618000D01*
X165610132Y-41445329D01*
X165567730Y-41381870D01*
X165316338Y-41213895D01*
X165094653Y-41169799D01*
X165094648Y-41169799D01*
X165019801Y-41154911D01*
X164944954Y-41169799D01*
X150203627Y-41169799D01*
X150256727Y-41116699D01*
X150353400Y-40883310D01*
X150353400Y-40827774D01*
X173727831Y-40827774D01*
X173792131Y-41065611D01*
X174300342Y-41245333D01*
X174838644Y-41216892D01*
X175203869Y-41065611D01*
X175268169Y-40827774D01*
X174498000Y-40057605D01*
X173727831Y-40827774D01*
X150353400Y-40827774D01*
X150353400Y-40417750D01*
X150194650Y-40259000D01*
X149345400Y-40259000D01*
X149345400Y-40279000D01*
X149091400Y-40279000D01*
X149091400Y-40259000D01*
X149071400Y-40259000D01*
X149071400Y-40005000D01*
X149091400Y-40005000D01*
X149091400Y-39030750D01*
X149345400Y-39030750D01*
X149345400Y-40005000D01*
X150194650Y-40005000D01*
X150353400Y-39846250D01*
X150353400Y-39680342D01*
X173130667Y-39680342D01*
X173159108Y-40218644D01*
X173310389Y-40583869D01*
X173548226Y-40648169D01*
X174318395Y-39878000D01*
X174677605Y-39878000D01*
X175447774Y-40648169D01*
X175685611Y-40583869D01*
X175865333Y-40075658D01*
X175836892Y-39537356D01*
X175685611Y-39172131D01*
X175447774Y-39107831D01*
X174677605Y-39878000D01*
X174318395Y-39878000D01*
X173548226Y-39107831D01*
X173310389Y-39172131D01*
X173130667Y-39680342D01*
X150353400Y-39680342D01*
X150353400Y-39380690D01*
X150256727Y-39147301D01*
X150078098Y-38968673D01*
X149980451Y-38928226D01*
X173727831Y-38928226D01*
X174498000Y-39698395D01*
X175268169Y-38928226D01*
X175203869Y-38690389D01*
X174695658Y-38510667D01*
X174157356Y-38539108D01*
X173792131Y-38690389D01*
X173727831Y-38928226D01*
X149980451Y-38928226D01*
X149844709Y-38872000D01*
X149504150Y-38872000D01*
X149345400Y-39030750D01*
X149091400Y-39030750D01*
X148932650Y-38872000D01*
X148592091Y-38872000D01*
X148358702Y-38968673D01*
X148217054Y-39110320D01*
X148176209Y-39049191D01*
X147966165Y-38908843D01*
X147718400Y-38859560D01*
X146718400Y-38859560D01*
X146470635Y-38908843D01*
X146260591Y-39049191D01*
X146120243Y-39259235D01*
X146099490Y-39363570D01*
X145982565Y-39285443D01*
X145973300Y-39283600D01*
X145982565Y-39281757D01*
X146192609Y-39141409D01*
X146332957Y-38931365D01*
X146382240Y-38683600D01*
X146382240Y-37983600D01*
X146332957Y-37735835D01*
X146192609Y-37525791D01*
X145982565Y-37385443D01*
X145844800Y-37358040D01*
X145844800Y-37302469D01*
X146140673Y-37104773D01*
X146315703Y-36842823D01*
X146578394Y-37173312D01*
X147103914Y-37464856D01*
X147209260Y-37489136D01*
X147447000Y-37368478D01*
X147447000Y-35725100D01*
X147701000Y-35725100D01*
X147701000Y-37368478D01*
X147938740Y-37489136D01*
X148044086Y-37464856D01*
X148569606Y-37173312D01*
X148943554Y-36702852D01*
X149109000Y-36125100D01*
X149109000Y-35725100D01*
X147701000Y-35725100D01*
X147447000Y-35725100D01*
X147427000Y-35725100D01*
X147427000Y-35471100D01*
X147447000Y-35471100D01*
X147447000Y-33827722D01*
X147701000Y-33827722D01*
X147701000Y-35471100D01*
X149109000Y-35471100D01*
X149109000Y-35071100D01*
X148943554Y-34493348D01*
X148569606Y-34022888D01*
X148044086Y-33731344D01*
X147938740Y-33707064D01*
X147701000Y-33827722D01*
X147447000Y-33827722D01*
X147209260Y-33707064D01*
X147103914Y-33731344D01*
X146578394Y-34022888D01*
X146315703Y-34353377D01*
X146140673Y-34091427D01*
X145632926Y-33752162D01*
X145034000Y-33633028D01*
X144435073Y-33752162D01*
X143927327Y-34091427D01*
X143764000Y-34335863D01*
X143600673Y-34091427D01*
X143092926Y-33752162D01*
X142494000Y-33633028D01*
X141895073Y-33752162D01*
X141387327Y-34091427D01*
X141224000Y-34335863D01*
X141060673Y-34091427D01*
X140552926Y-33752162D01*
X139954000Y-33633028D01*
X139355073Y-33752162D01*
X138847327Y-34091427D01*
X138684000Y-34335863D01*
X138520673Y-34091427D01*
X138012926Y-33752162D01*
X137414000Y-33633028D01*
X136815073Y-33752162D01*
X136307327Y-34091427D01*
X136144000Y-34335863D01*
X135980673Y-34091427D01*
X135472926Y-33752162D01*
X134874000Y-33633028D01*
X134275073Y-33752162D01*
X133767327Y-34091427D01*
X133604000Y-34335863D01*
X133440673Y-34091427D01*
X132932926Y-33752162D01*
X132334000Y-33633028D01*
X131735073Y-33752162D01*
X131227327Y-34091427D01*
X131064000Y-34335863D01*
X130900673Y-34091427D01*
X130392926Y-33752162D01*
X129794000Y-33633028D01*
X129195073Y-33752162D01*
X128687327Y-34091427D01*
X128524000Y-34335863D01*
X128360673Y-34091427D01*
X127852926Y-33752162D01*
X127254000Y-33633028D01*
X126655073Y-33752162D01*
X126147327Y-34091427D01*
X125984000Y-34335863D01*
X125820673Y-34091427D01*
X125312926Y-33752162D01*
X124714000Y-33633028D01*
X124115073Y-33752162D01*
X123607327Y-34091427D01*
X123444000Y-34335863D01*
X123280673Y-34091427D01*
X122772926Y-33752162D01*
X122174000Y-33633028D01*
X121575073Y-33752162D01*
X121067327Y-34091427D01*
X120892298Y-34353378D01*
X120629606Y-34022888D01*
X120104086Y-33731344D01*
X119998740Y-33707064D01*
X119761000Y-33827722D01*
X119761000Y-35471100D01*
X119781000Y-35471100D01*
X119781000Y-35725100D01*
X119761000Y-35725100D01*
X119761000Y-37368478D01*
X119998740Y-37489136D01*
X120104086Y-37464856D01*
X120629606Y-37173312D01*
X120892298Y-36842822D01*
X121067328Y-37104773D01*
X121575074Y-37444038D01*
X122174000Y-37563172D01*
X122772927Y-37444038D01*
X123280673Y-37104773D01*
X123444000Y-36860336D01*
X123607328Y-37104773D01*
X124115074Y-37444038D01*
X124714000Y-37563172D01*
X125312927Y-37444038D01*
X125820673Y-37104773D01*
X125984000Y-36860336D01*
X126147328Y-37104773D01*
X126655074Y-37444038D01*
X127254000Y-37563172D01*
X127852927Y-37444038D01*
X128360673Y-37104773D01*
X128524000Y-36860336D01*
X128687328Y-37104773D01*
X129195074Y-37444038D01*
X129794000Y-37563172D01*
X130392927Y-37444038D01*
X130900673Y-37104773D01*
X131064000Y-36860336D01*
X131227328Y-37104773D01*
X131735074Y-37444038D01*
X132334000Y-37563172D01*
X132932927Y-37444038D01*
X133440673Y-37104773D01*
X133604000Y-36860336D01*
X133767328Y-37104773D01*
X134275074Y-37444038D01*
X134668020Y-37522200D01*
X134617326Y-37522200D01*
X134236920Y-37679769D01*
X134170289Y-37746400D01*
X124186131Y-37746400D01*
X124111284Y-37731512D01*
X124044506Y-37744795D01*
X124030280Y-37730569D01*
X123649874Y-37573000D01*
X123238126Y-37573000D01*
X122857720Y-37730569D01*
X122566569Y-38021720D01*
X122409000Y-38402126D01*
X122409000Y-38813874D01*
X122566569Y-39194280D01*
X122857720Y-39485431D01*
X123017686Y-39551691D01*
X122967800Y-39672126D01*
X122967800Y-40083874D01*
X123125369Y-40464280D01*
X123369435Y-40708346D01*
X123272600Y-40942126D01*
X123272600Y-41353874D01*
X123430169Y-41734280D01*
X123721320Y-42025431D01*
X123751204Y-42037809D01*
X123679000Y-42212126D01*
X123679000Y-42623200D01*
X123146153Y-42623200D01*
X123209000Y-42471474D01*
X123209000Y-42059726D01*
X123051431Y-41679320D01*
X122760280Y-41388169D01*
X122379874Y-41230600D01*
X121968126Y-41230600D01*
X121587720Y-41388169D01*
X121495689Y-41480200D01*
X117873911Y-41480200D01*
X117756480Y-41362769D01*
X117376074Y-41205200D01*
X116964326Y-41205200D01*
X116583920Y-41362769D01*
X116292769Y-41653920D01*
X116135200Y-42034326D01*
X116135200Y-42446074D01*
X116208568Y-42623200D01*
X115308511Y-42623200D01*
X115191080Y-42505769D01*
X114810674Y-42348200D01*
X114398926Y-42348200D01*
X114018520Y-42505769D01*
X113727369Y-42796920D01*
X113569800Y-43177326D01*
X113569800Y-43589074D01*
X113727369Y-43969480D01*
X114018520Y-44260631D01*
X114398926Y-44418200D01*
X114810674Y-44418200D01*
X115191080Y-44260631D01*
X115308511Y-44143200D01*
X124746955Y-44143200D01*
X124821802Y-44158088D01*
X124896649Y-44143200D01*
X124896654Y-44143200D01*
X125118339Y-44099104D01*
X125369731Y-43931129D01*
X125412133Y-43867670D01*
X125498804Y-43780999D01*
X136439657Y-43780999D01*
X136357108Y-44196000D01*
X136472361Y-44775418D01*
X136800575Y-45266625D01*
X137098961Y-45466000D01*
X136800575Y-45665375D01*
X136615573Y-45942250D01*
X136611560Y-45943049D01*
X136527080Y-45858569D01*
X136146674Y-45701000D01*
X135734926Y-45701000D01*
X135354520Y-45858569D01*
X135063369Y-46149720D01*
X134905800Y-46530126D01*
X134905800Y-46941874D01*
X135063369Y-47322280D01*
X135354520Y-47613431D01*
X135734926Y-47771000D01*
X136146674Y-47771000D01*
X136527080Y-47613431D01*
X136613646Y-47526865D01*
X136800575Y-47806625D01*
X137098961Y-48006000D01*
X136800575Y-48205375D01*
X136615573Y-48482250D01*
X136540898Y-48497104D01*
X136540893Y-48497104D01*
X136445897Y-48516000D01*
X135526911Y-48516000D01*
X135409480Y-48398569D01*
X135029074Y-48241000D01*
X134617326Y-48241000D01*
X134236920Y-48398569D01*
X133945769Y-48689720D01*
X133788200Y-49070126D01*
X133788200Y-49481874D01*
X133945769Y-49862280D01*
X134236920Y-50153431D01*
X134617326Y-50311000D01*
X135029074Y-50311000D01*
X135409480Y-50153431D01*
X135526911Y-50036000D01*
X136522002Y-50036000D01*
X136596849Y-50050888D01*
X136602252Y-50049813D01*
X136800575Y-50346625D01*
X137098961Y-50546000D01*
X136800575Y-50745375D01*
X136615573Y-51022250D01*
X136540898Y-51037104D01*
X134385036Y-51037104D01*
X134224644Y-51005200D01*
X134224639Y-51005200D01*
X134149792Y-50990312D01*
X134074945Y-51005200D01*
X133850511Y-51005200D01*
X133733080Y-50887769D01*
X133352674Y-50730200D01*
X132940926Y-50730200D01*
X132560520Y-50887769D01*
X132269369Y-51178920D01*
X132111800Y-51559326D01*
X132111800Y-51658086D01*
X131992231Y-51369420D01*
X131701080Y-51078269D01*
X131320674Y-50920700D01*
X130908926Y-50920700D01*
X130712061Y-51002244D01*
X130683357Y-50857935D01*
X130543009Y-50647891D01*
X130332965Y-50507543D01*
X130085200Y-50458260D01*
X128385200Y-50458260D01*
X128137435Y-50507543D01*
X127927391Y-50647891D01*
X127787043Y-50857935D01*
X127778016Y-50903319D01*
X127765825Y-50885075D01*
X127274618Y-50556861D01*
X126841456Y-50470700D01*
X126548944Y-50470700D01*
X126115782Y-50556861D01*
X125624575Y-50885075D01*
X125296361Y-51376282D01*
X125181108Y-51955700D01*
X125296361Y-52535118D01*
X125624575Y-53026325D01*
X125922961Y-53225700D01*
X125624575Y-53425075D01*
X125442480Y-53697600D01*
X122014111Y-53697600D01*
X121896680Y-53580169D01*
X121516274Y-53422600D01*
X121104526Y-53422600D01*
X120724120Y-53580169D01*
X120432969Y-53871320D01*
X120275400Y-54251726D01*
X120275400Y-54663474D01*
X120432969Y-55043880D01*
X120724120Y-55335031D01*
X121104526Y-55492600D01*
X121516274Y-55492600D01*
X121896680Y-55335031D01*
X122014111Y-55217600D01*
X125391564Y-55217600D01*
X125624575Y-55566325D01*
X125922961Y-55765700D01*
X125624575Y-55965075D01*
X125510367Y-56136000D01*
X122826911Y-56136000D01*
X122709480Y-56018569D01*
X122329074Y-55861000D01*
X121917326Y-55861000D01*
X121536920Y-56018569D01*
X121245769Y-56309720D01*
X121088200Y-56690126D01*
X121088200Y-57101874D01*
X121245769Y-57482280D01*
X121536920Y-57773431D01*
X121917326Y-57931000D01*
X122329074Y-57931000D01*
X122709480Y-57773431D01*
X122826911Y-57656000D01*
X125323677Y-57656000D01*
X125624575Y-58106325D01*
X125922961Y-58305700D01*
X125624575Y-58505075D01*
X125442480Y-58777600D01*
X122115711Y-58777600D01*
X121998280Y-58660169D01*
X121617874Y-58502600D01*
X121206126Y-58502600D01*
X120825720Y-58660169D01*
X120534569Y-58951320D01*
X120377000Y-59331726D01*
X120377000Y-59743474D01*
X120534569Y-60123880D01*
X120825720Y-60415031D01*
X121206126Y-60572600D01*
X121617874Y-60572600D01*
X121998280Y-60415031D01*
X122115711Y-60297600D01*
X125391564Y-60297600D01*
X125624575Y-60646325D01*
X125922961Y-60845700D01*
X125624575Y-61045075D01*
X125476423Y-61266800D01*
X122268111Y-61266800D01*
X122150680Y-61149369D01*
X121770274Y-60991800D01*
X121358526Y-60991800D01*
X120978120Y-61149369D01*
X120686969Y-61440520D01*
X120529400Y-61820926D01*
X120529400Y-62232674D01*
X120686969Y-62613080D01*
X120978120Y-62904231D01*
X121358526Y-63061800D01*
X121770274Y-63061800D01*
X122150680Y-62904231D01*
X122268111Y-62786800D01*
X125357621Y-62786800D01*
X125624575Y-63186325D01*
X125922961Y-63385700D01*
X125624575Y-63585075D01*
X125476423Y-63806800D01*
X122217311Y-63806800D01*
X122099880Y-63689369D01*
X121719474Y-63531800D01*
X121307726Y-63531800D01*
X120927320Y-63689369D01*
X120636169Y-63980520D01*
X120478600Y-64360926D01*
X120478600Y-64772674D01*
X120636169Y-65153080D01*
X120927320Y-65444231D01*
X121307726Y-65601800D01*
X121719474Y-65601800D01*
X122099880Y-65444231D01*
X122217311Y-65326800D01*
X125357621Y-65326800D01*
X125624575Y-65726325D01*
X125922961Y-65925700D01*
X125624575Y-66125075D01*
X125476423Y-66346800D01*
X122318911Y-66346800D01*
X122201480Y-66229369D01*
X121821074Y-66071800D01*
X121409326Y-66071800D01*
X121028920Y-66229369D01*
X120737769Y-66520520D01*
X120580200Y-66900926D01*
X120580200Y-67312674D01*
X120737769Y-67693080D01*
X120845388Y-67800699D01*
X111904911Y-67800699D01*
X111787480Y-67683268D01*
X111407074Y-67525699D01*
X110995326Y-67525699D01*
X110614920Y-67683268D01*
X110323769Y-67974419D01*
X110166200Y-68354825D01*
X110166200Y-68723244D01*
X109840220Y-68858269D01*
X109549069Y-69149420D01*
X109391500Y-69529826D01*
X109391500Y-69941574D01*
X109549069Y-70321980D01*
X109840220Y-70613131D01*
X110220626Y-70770700D01*
X110632374Y-70770700D01*
X111012780Y-70613131D01*
X111130211Y-70495700D01*
X118243275Y-70495700D01*
X118091000Y-70863326D01*
X118091000Y-71275074D01*
X118190670Y-71515700D01*
X113682911Y-71515700D01*
X113565480Y-71398269D01*
X113185074Y-71240700D01*
X112773326Y-71240700D01*
X112392920Y-71398269D01*
X112101769Y-71689420D01*
X111944200Y-72069826D01*
X111944200Y-72481574D01*
X112101769Y-72861980D01*
X112392920Y-73153131D01*
X112773326Y-73310700D01*
X113185074Y-73310700D01*
X113565480Y-73153131D01*
X113682911Y-73035700D01*
X115580633Y-73035700D01*
X115449400Y-73352526D01*
X115449400Y-73764274D01*
X115471536Y-73817715D01*
X115382174Y-73780700D01*
X114970426Y-73780700D01*
X114590020Y-73938269D01*
X114298869Y-74229420D01*
X114141300Y-74609826D01*
X114141300Y-75021574D01*
X114179667Y-75114200D01*
X113941726Y-75114200D01*
X113561320Y-75271769D01*
X113270169Y-75562920D01*
X113112600Y-75943326D01*
X113112600Y-76355074D01*
X113270169Y-76735480D01*
X113561320Y-77026631D01*
X113941726Y-77184200D01*
X114353474Y-77184200D01*
X114733880Y-77026631D01*
X114902111Y-76858400D01*
X116636912Y-76858400D01*
X116516200Y-77149826D01*
X116516200Y-77561574D01*
X116673769Y-77941980D01*
X116964920Y-78233131D01*
X117345326Y-78390700D01*
X117757074Y-78390700D01*
X118137480Y-78233131D01*
X118254911Y-78115700D01*
X118717907Y-78115700D01*
X118649800Y-78280126D01*
X118649800Y-78691874D01*
X118807369Y-79072280D01*
X119098520Y-79363431D01*
X119478926Y-79521000D01*
X119890674Y-79521000D01*
X120271080Y-79363431D01*
X120388511Y-79246000D01*
X124970699Y-79246000D01*
X125253991Y-79529292D01*
X125181108Y-79895700D01*
X125296361Y-80475118D01*
X125514905Y-80802192D01*
X124228698Y-82088399D01*
X121590529Y-82088399D01*
X122016783Y-81803585D01*
X122344997Y-81312378D01*
X122460250Y-80732960D01*
X122344997Y-80153542D01*
X122016783Y-79662335D01*
X121525576Y-79334121D01*
X121092414Y-79247960D01*
X120799902Y-79247960D01*
X120366740Y-79334121D01*
X119875533Y-79662335D01*
X119676158Y-79960721D01*
X119476783Y-79662335D01*
X118985576Y-79334121D01*
X118552414Y-79247960D01*
X118259902Y-79247960D01*
X117826740Y-79334121D01*
X117335533Y-79662335D01*
X117323342Y-79680579D01*
X117314315Y-79635195D01*
X117173967Y-79425151D01*
X116963923Y-79284803D01*
X116716158Y-79235520D01*
X115016158Y-79235520D01*
X114768393Y-79284803D01*
X114558349Y-79425151D01*
X114418001Y-79635195D01*
X114368718Y-79882960D01*
X114368718Y-81582960D01*
X114418001Y-81830725D01*
X114558349Y-82040769D01*
X114768393Y-82181117D01*
X115016158Y-82230400D01*
X116716158Y-82230400D01*
X116963923Y-82181117D01*
X117173967Y-82040769D01*
X117314315Y-81830725D01*
X117323342Y-81785341D01*
X117335533Y-81803585D01*
X117512607Y-81921902D01*
X117379800Y-82242526D01*
X117379800Y-82654274D01*
X117537369Y-83034680D01*
X117622967Y-83120278D01*
X117335533Y-83312335D01*
X117323342Y-83330579D01*
X117314315Y-83285195D01*
X117173967Y-83075151D01*
X116963923Y-82934803D01*
X116716158Y-82885520D01*
X115016158Y-82885520D01*
X114768393Y-82934803D01*
X114558349Y-83075151D01*
X114418001Y-83285195D01*
X114368718Y-83532960D01*
X114368718Y-85232960D01*
X114418001Y-85480725D01*
X114558349Y-85690769D01*
X114768393Y-85831117D01*
X115016158Y-85880400D01*
X116716158Y-85880400D01*
X116963923Y-85831117D01*
X117173967Y-85690769D01*
X117314315Y-85480725D01*
X117323342Y-85435341D01*
X117335533Y-85453585D01*
X117498592Y-85562537D01*
X117379800Y-85849326D01*
X117379800Y-86261074D01*
X117537369Y-86641480D01*
X117648863Y-86752974D01*
X117335533Y-86962335D01*
X117323342Y-86980579D01*
X117314315Y-86935195D01*
X117173967Y-86725151D01*
X116963923Y-86584803D01*
X116716158Y-86535520D01*
X115016158Y-86535520D01*
X114768393Y-86584803D01*
X114558349Y-86725151D01*
X114418001Y-86935195D01*
X114368718Y-87182960D01*
X114368718Y-88882960D01*
X114382610Y-88952800D01*
X109669711Y-88952800D01*
X109552280Y-88835369D01*
X109171874Y-88677800D01*
X108760126Y-88677800D01*
X108379720Y-88835369D01*
X108088569Y-89126520D01*
X107931000Y-89506926D01*
X107669021Y-89506926D01*
X107634841Y-51105700D01*
X109906960Y-51105700D01*
X109906960Y-52805700D01*
X109956243Y-53053465D01*
X110096591Y-53263509D01*
X110306635Y-53403857D01*
X110554400Y-53453140D01*
X112254400Y-53453140D01*
X112502165Y-53403857D01*
X112712209Y-53263509D01*
X112852557Y-53053465D01*
X112861584Y-53008081D01*
X112873775Y-53026325D01*
X113364982Y-53354539D01*
X113798144Y-53440700D01*
X114090656Y-53440700D01*
X114523818Y-53354539D01*
X115015025Y-53026325D01*
X115214400Y-52727939D01*
X115413775Y-53026325D01*
X115904982Y-53354539D01*
X116338144Y-53440700D01*
X116630656Y-53440700D01*
X117063818Y-53354539D01*
X117555025Y-53026325D01*
X117754400Y-52727939D01*
X117953775Y-53026325D01*
X118444982Y-53354539D01*
X118878144Y-53440700D01*
X119170656Y-53440700D01*
X119603818Y-53354539D01*
X120095025Y-53026325D01*
X120423239Y-52535118D01*
X120538492Y-51955700D01*
X120423239Y-51376282D01*
X120095025Y-50885075D01*
X119603818Y-50556861D01*
X119170656Y-50470700D01*
X118878144Y-50470700D01*
X118444982Y-50556861D01*
X117953775Y-50885075D01*
X117754400Y-51183461D01*
X117555025Y-50885075D01*
X117063818Y-50556861D01*
X116630656Y-50470700D01*
X116338144Y-50470700D01*
X115904982Y-50556861D01*
X115413775Y-50885075D01*
X115214400Y-51183461D01*
X115015025Y-50885075D01*
X114523818Y-50556861D01*
X114090656Y-50470700D01*
X113798144Y-50470700D01*
X113364982Y-50556861D01*
X112873775Y-50885075D01*
X112861584Y-50903319D01*
X112852557Y-50857935D01*
X112712209Y-50647891D01*
X112502165Y-50507543D01*
X112254400Y-50458260D01*
X110554400Y-50458260D01*
X110306635Y-50507543D01*
X110096591Y-50647891D01*
X109956243Y-50857935D01*
X109906960Y-51105700D01*
X107634841Y-51105700D01*
X107626958Y-42249471D01*
X107662719Y-42285232D01*
X108043125Y-42442801D01*
X108454873Y-42442801D01*
X108835279Y-42285232D01*
X109126430Y-41994081D01*
X109220158Y-41767802D01*
X109765951Y-41767802D01*
X109840798Y-41782690D01*
X109915645Y-41767802D01*
X109915650Y-41767802D01*
X110137335Y-41723706D01*
X110388727Y-41555731D01*
X110431129Y-41492272D01*
X111788962Y-40134440D01*
X112361600Y-40134440D01*
X112609365Y-40085157D01*
X112819409Y-39944809D01*
X112959757Y-39734765D01*
X113009040Y-39487000D01*
X113009040Y-38237000D01*
X112959757Y-37989235D01*
X112819409Y-37779191D01*
X112621600Y-37647018D01*
X112621600Y-37438243D01*
X113120673Y-37104773D01*
X113284000Y-36860336D01*
X113447328Y-37104773D01*
X113955074Y-37444038D01*
X114554000Y-37563172D01*
X115152927Y-37444038D01*
X115660673Y-37104773D01*
X115824000Y-36860336D01*
X115987328Y-37104773D01*
X116495074Y-37444038D01*
X117094000Y-37563172D01*
X117692927Y-37444038D01*
X118200673Y-37104773D01*
X118375703Y-36842823D01*
X118638394Y-37173312D01*
X119163914Y-37464856D01*
X119269260Y-37489136D01*
X119507000Y-37368478D01*
X119507000Y-35725100D01*
X119487000Y-35725100D01*
X119487000Y-35471100D01*
X119507000Y-35471100D01*
X119507000Y-33827722D01*
X119269260Y-33707064D01*
X119163914Y-33731344D01*
X118638394Y-34022888D01*
X118375703Y-34353377D01*
X118200673Y-34091427D01*
X117692926Y-33752162D01*
X117094000Y-33633028D01*
X116495073Y-33752162D01*
X115987327Y-34091427D01*
X115824000Y-34335863D01*
X115660673Y-34091427D01*
X115152926Y-33752162D01*
X114554000Y-33633028D01*
X113955073Y-33752162D01*
X113447327Y-34091427D01*
X113284000Y-34335863D01*
X113120673Y-34091427D01*
X112612926Y-33752162D01*
X112014000Y-33633028D01*
X111415073Y-33752162D01*
X110960888Y-34055638D01*
X110912327Y-33938401D01*
X110733698Y-33759773D01*
X110500309Y-33663100D01*
X109759750Y-33663100D01*
X109601000Y-33821850D01*
X109601000Y-35471100D01*
X109621000Y-35471100D01*
X109621000Y-35725100D01*
X109601000Y-35725100D01*
X109601000Y-37374350D01*
X109759750Y-37533100D01*
X110500309Y-37533100D01*
X110733698Y-37436427D01*
X110912327Y-37257799D01*
X110960889Y-37140561D01*
X111101601Y-37234582D01*
X111101600Y-37647018D01*
X110903791Y-37779191D01*
X110862946Y-37840320D01*
X110721298Y-37698673D01*
X110487909Y-37602000D01*
X110147350Y-37602000D01*
X109988600Y-37760750D01*
X109988600Y-38735000D01*
X110008600Y-38735000D01*
X110008600Y-38989000D01*
X109988600Y-38989000D01*
X109988600Y-39009000D01*
X109734600Y-39009000D01*
X109734600Y-38989000D01*
X108885350Y-38989000D01*
X108726600Y-39147750D01*
X108726600Y-39613310D01*
X108823273Y-39846699D01*
X109001902Y-40025327D01*
X109235291Y-40122000D01*
X109575850Y-40122000D01*
X109734598Y-39963252D01*
X109734598Y-40039201D01*
X109525997Y-40247802D01*
X108723844Y-40247802D01*
X108648997Y-40232914D01*
X108574150Y-40247802D01*
X108574146Y-40247802D01*
X108352461Y-40291898D01*
X108231381Y-40372801D01*
X108043125Y-40372801D01*
X107662719Y-40530370D01*
X107625461Y-40567628D01*
X107623275Y-38110690D01*
X108726600Y-38110690D01*
X108726600Y-38576250D01*
X108885350Y-38735000D01*
X109734600Y-38735000D01*
X109734600Y-37760750D01*
X109575850Y-37602000D01*
X109235291Y-37602000D01*
X109001902Y-37698673D01*
X108823273Y-37877301D01*
X108726600Y-38110690D01*
X107623275Y-38110690D01*
X107621292Y-35883850D01*
X107939000Y-35883850D01*
X107939000Y-37024410D01*
X108035673Y-37257799D01*
X108214302Y-37436427D01*
X108447691Y-37533100D01*
X109188250Y-37533100D01*
X109347000Y-37374350D01*
X109347000Y-35725100D01*
X108097750Y-35725100D01*
X107939000Y-35883850D01*
X107621292Y-35883850D01*
X107619768Y-34171790D01*
X107939000Y-34171790D01*
X107939000Y-35312350D01*
X108097750Y-35471100D01*
X109347000Y-35471100D01*
X109347000Y-33821850D01*
X109188250Y-33663100D01*
X108447691Y-33663100D01*
X108214302Y-33759773D01*
X108035673Y-33938401D01*
X107939000Y-34171790D01*
X107619768Y-34171790D01*
X107618854Y-33145400D01*
X181026746Y-33145400D01*
X181025122Y-34970922D01*
G36*
X146951740Y-124272737D02*
X146811392Y-124482781D01*
X146762109Y-124730546D01*
X146762109Y-126430546D01*
X146811392Y-126678311D01*
X146951740Y-126888355D01*
X147124550Y-127003824D01*
X147124549Y-129014600D01*
X117707400Y-129014600D01*
X117707400Y-126763800D01*
X124847395Y-126763800D01*
X124968000Y-126787790D01*
X125088605Y-126763800D01*
X125139865Y-126763800D01*
X125648865Y-126662554D01*
X126226074Y-126276874D01*
X126351907Y-126088552D01*
X127119195Y-125321264D01*
X127264065Y-125224465D01*
X127647534Y-124650563D01*
X127730911Y-124231400D01*
X147013605Y-124231400D01*
X146951740Y-124272737D01*
X146951740Y-124272737D01*
G37*
X146951740Y-124272737D02*
X146811392Y-124482781D01*
X146762109Y-124730546D01*
X146762109Y-126430546D01*
X146811392Y-126678311D01*
X146951740Y-126888355D01*
X147124550Y-127003824D01*
X147124549Y-129014600D01*
X117707400Y-129014600D01*
X117707400Y-126763800D01*
X124847395Y-126763800D01*
X124968000Y-126787790D01*
X125088605Y-126763800D01*
X125139865Y-126763800D01*
X125648865Y-126662554D01*
X126226074Y-126276874D01*
X126351907Y-126088552D01*
X127119195Y-125321264D01*
X127264065Y-125224465D01*
X127647534Y-124650563D01*
X127730911Y-124231400D01*
X147013605Y-124231400D01*
X146951740Y-124272737D01*
G36*
X153746200Y-100469800D02*
X153495750Y-100469800D01*
X153337000Y-100628550D01*
X153337000Y-101777800D01*
X153357000Y-101777800D01*
X153357000Y-102031800D01*
X153337000Y-102031800D01*
X153337000Y-103181050D01*
X153495750Y-103339800D01*
X153746200Y-103339800D01*
X153746200Y-106553000D01*
X145303600Y-106553000D01*
X145303600Y-106406950D01*
X145144850Y-106248200D01*
X144500600Y-106248200D01*
X144500600Y-106268200D01*
X144366040Y-106268200D01*
X144366040Y-105974200D01*
X144500600Y-105974200D01*
X144500600Y-105994200D01*
X145144850Y-105994200D01*
X145303600Y-105835450D01*
X145303600Y-105369891D01*
X145206927Y-105136502D01*
X145028299Y-104957873D01*
X144794910Y-104861200D01*
X144659350Y-104861200D01*
X144500602Y-105019948D01*
X144500602Y-104861200D01*
X144443400Y-104861200D01*
X144443400Y-104645326D01*
X144318256Y-104343200D01*
X144443400Y-104041074D01*
X144443400Y-103629326D01*
X144285831Y-103248920D01*
X144043400Y-103006489D01*
X144043400Y-101371400D01*
X144246600Y-101371400D01*
X144246600Y-102345650D01*
X144405350Y-102504400D01*
X144745909Y-102504400D01*
X144979298Y-102407727D01*
X145157927Y-102229099D01*
X145173894Y-102190550D01*
X152075000Y-102190550D01*
X152075000Y-102831110D01*
X152171673Y-103064499D01*
X152350302Y-103243127D01*
X152583691Y-103339800D01*
X152924250Y-103339800D01*
X153083000Y-103181050D01*
X153083000Y-102031800D01*
X152233750Y-102031800D01*
X152075000Y-102190550D01*
X145173894Y-102190550D01*
X145254600Y-101995710D01*
X145254600Y-101530150D01*
X145095850Y-101371400D01*
X144246600Y-101371400D01*
X144043400Y-101371400D01*
X144043400Y-100143150D01*
X144246600Y-100143150D01*
X144246600Y-101117400D01*
X145095850Y-101117400D01*
X145254600Y-100958650D01*
X145254600Y-100493090D01*
X145157927Y-100259701D01*
X144979298Y-100081073D01*
X144745909Y-99984400D01*
X144405350Y-99984400D01*
X144246600Y-100143150D01*
X144043400Y-100143150D01*
X144043400Y-99945596D01*
X146838049Y-99945596D01*
X146838049Y-100636156D01*
X146934722Y-100869545D01*
X147113351Y-101048173D01*
X147346740Y-101144846D01*
X148037299Y-101144846D01*
X148196049Y-100986096D01*
X148196049Y-99786846D01*
X148450049Y-99786846D01*
X148450049Y-100986096D01*
X148608799Y-101144846D01*
X149299358Y-101144846D01*
X149532747Y-101048173D01*
X149602430Y-100978490D01*
X152075000Y-100978490D01*
X152075000Y-101619050D01*
X152233750Y-101777800D01*
X153083000Y-101777800D01*
X153083000Y-100628550D01*
X152924250Y-100469800D01*
X152583691Y-100469800D01*
X152350302Y-100566473D01*
X152171673Y-100745101D01*
X152075000Y-100978490D01*
X149602430Y-100978490D01*
X149711376Y-100869545D01*
X149808049Y-100636156D01*
X149808049Y-99945596D01*
X149649299Y-99786846D01*
X148450049Y-99786846D01*
X148196049Y-99786846D01*
X146996799Y-99786846D01*
X146838049Y-99945596D01*
X144043400Y-99945596D01*
X144043400Y-98683536D01*
X146838049Y-98683536D01*
X146838049Y-99374096D01*
X146996799Y-99532846D01*
X148196049Y-99532846D01*
X148196049Y-98333596D01*
X148450049Y-98333596D01*
X148450049Y-99532846D01*
X149649299Y-99532846D01*
X149808049Y-99374096D01*
X149808049Y-98683536D01*
X149711376Y-98450147D01*
X149532747Y-98271519D01*
X149299358Y-98174846D01*
X148608799Y-98174846D01*
X148450049Y-98333596D01*
X148196049Y-98333596D01*
X148037299Y-98174846D01*
X147346740Y-98174846D01*
X147113351Y-98271519D01*
X146934722Y-98450147D01*
X146838049Y-98683536D01*
X144043400Y-98683536D01*
X144043400Y-98172619D01*
X144197880Y-98108631D01*
X144489031Y-97817480D01*
X144646600Y-97437074D01*
X144646600Y-97025326D01*
X144489031Y-96644920D01*
X144197880Y-96353769D01*
X144043400Y-96289781D01*
X144043400Y-96162400D01*
X153746200Y-96162400D01*
X153746200Y-100469800D01*
X153746200Y-100469800D01*
G37*
X153746200Y-100469800D02*
X153495750Y-100469800D01*
X153337000Y-100628550D01*
X153337000Y-101777800D01*
X153357000Y-101777800D01*
X153357000Y-102031800D01*
X153337000Y-102031800D01*
X153337000Y-103181050D01*
X153495750Y-103339800D01*
X153746200Y-103339800D01*
X153746200Y-106553000D01*
X145303600Y-106553000D01*
X145303600Y-106406950D01*
X145144850Y-106248200D01*
X144500600Y-106248200D01*
X144500600Y-106268200D01*
X144366040Y-106268200D01*
X144366040Y-105974200D01*
X144500600Y-105974200D01*
X144500600Y-105994200D01*
X145144850Y-105994200D01*
X145303600Y-105835450D01*
X145303600Y-105369891D01*
X145206927Y-105136502D01*
X145028299Y-104957873D01*
X144794910Y-104861200D01*
X144659350Y-104861200D01*
X144500602Y-105019948D01*
X144500602Y-104861200D01*
X144443400Y-104861200D01*
X144443400Y-104645326D01*
X144318256Y-104343200D01*
X144443400Y-104041074D01*
X144443400Y-103629326D01*
X144285831Y-103248920D01*
X144043400Y-103006489D01*
X144043400Y-101371400D01*
X144246600Y-101371400D01*
X144246600Y-102345650D01*
X144405350Y-102504400D01*
X144745909Y-102504400D01*
X144979298Y-102407727D01*
X145157927Y-102229099D01*
X145173894Y-102190550D01*
X152075000Y-102190550D01*
X152075000Y-102831110D01*
X152171673Y-103064499D01*
X152350302Y-103243127D01*
X152583691Y-103339800D01*
X152924250Y-103339800D01*
X153083000Y-103181050D01*
X153083000Y-102031800D01*
X152233750Y-102031800D01*
X152075000Y-102190550D01*
X145173894Y-102190550D01*
X145254600Y-101995710D01*
X145254600Y-101530150D01*
X145095850Y-101371400D01*
X144246600Y-101371400D01*
X144043400Y-101371400D01*
X144043400Y-100143150D01*
X144246600Y-100143150D01*
X144246600Y-101117400D01*
X145095850Y-101117400D01*
X145254600Y-100958650D01*
X145254600Y-100493090D01*
X145157927Y-100259701D01*
X144979298Y-100081073D01*
X144745909Y-99984400D01*
X144405350Y-99984400D01*
X144246600Y-100143150D01*
X144043400Y-100143150D01*
X144043400Y-99945596D01*
X146838049Y-99945596D01*
X146838049Y-100636156D01*
X146934722Y-100869545D01*
X147113351Y-101048173D01*
X147346740Y-101144846D01*
X148037299Y-101144846D01*
X148196049Y-100986096D01*
X148196049Y-99786846D01*
X148450049Y-99786846D01*
X148450049Y-100986096D01*
X148608799Y-101144846D01*
X149299358Y-101144846D01*
X149532747Y-101048173D01*
X149602430Y-100978490D01*
X152075000Y-100978490D01*
X152075000Y-101619050D01*
X152233750Y-101777800D01*
X153083000Y-101777800D01*
X153083000Y-100628550D01*
X152924250Y-100469800D01*
X152583691Y-100469800D01*
X152350302Y-100566473D01*
X152171673Y-100745101D01*
X152075000Y-100978490D01*
X149602430Y-100978490D01*
X149711376Y-100869545D01*
X149808049Y-100636156D01*
X149808049Y-99945596D01*
X149649299Y-99786846D01*
X148450049Y-99786846D01*
X148196049Y-99786846D01*
X146996799Y-99786846D01*
X146838049Y-99945596D01*
X144043400Y-99945596D01*
X144043400Y-98683536D01*
X146838049Y-98683536D01*
X146838049Y-99374096D01*
X146996799Y-99532846D01*
X148196049Y-99532846D01*
X148196049Y-98333596D01*
X148450049Y-98333596D01*
X148450049Y-99532846D01*
X149649299Y-99532846D01*
X149808049Y-99374096D01*
X149808049Y-98683536D01*
X149711376Y-98450147D01*
X149532747Y-98271519D01*
X149299358Y-98174846D01*
X148608799Y-98174846D01*
X148450049Y-98333596D01*
X148196049Y-98333596D01*
X148037299Y-98174846D01*
X147346740Y-98174846D01*
X147113351Y-98271519D01*
X146934722Y-98450147D01*
X146838049Y-98683536D01*
X144043400Y-98683536D01*
X144043400Y-98172619D01*
X144197880Y-98108631D01*
X144489031Y-97817480D01*
X144646600Y-97437074D01*
X144646600Y-97025326D01*
X144489031Y-96644920D01*
X144197880Y-96353769D01*
X144043400Y-96289781D01*
X144043400Y-96162400D01*
X153746200Y-96162400D01*
X153746200Y-100469800D01*
G36*
X125253724Y-94778810D02*
X125375045Y-95008700D01*
X126568200Y-95008700D01*
X126568200Y-94988700D01*
X126822200Y-94988700D01*
X126822200Y-95008700D01*
X129108200Y-95008700D01*
X129108200Y-94988700D01*
X129362200Y-94988700D01*
X129362200Y-95008700D01*
X130555355Y-95008700D01*
X130676676Y-94778810D01*
X130652607Y-94720699D01*
X138281496Y-94720699D01*
X139445796Y-95885000D01*
X130514145Y-95885000D01*
X130676676Y-95492590D01*
X130555355Y-95262700D01*
X129362200Y-95262700D01*
X129362200Y-95282700D01*
X129108200Y-95282700D01*
X129108200Y-95262700D01*
X126822200Y-95262700D01*
X126822200Y-95282700D01*
X126568200Y-95282700D01*
X126568200Y-95262700D01*
X125375045Y-95262700D01*
X125253724Y-95492590D01*
X125423555Y-95902624D01*
X125802830Y-96318800D01*
X122073435Y-96318800D01*
X122344997Y-95912378D01*
X122460250Y-95332960D01*
X122344997Y-94753542D01*
X122323052Y-94720699D01*
X125277793Y-94720699D01*
X125253724Y-94778810D01*
X125253724Y-94778810D01*
G37*
X125253724Y-94778810D02*
X125375045Y-95008700D01*
X126568200Y-95008700D01*
X126568200Y-94988700D01*
X126822200Y-94988700D01*
X126822200Y-95008700D01*
X129108200Y-95008700D01*
X129108200Y-94988700D01*
X129362200Y-94988700D01*
X129362200Y-95008700D01*
X130555355Y-95008700D01*
X130676676Y-94778810D01*
X130652607Y-94720699D01*
X138281496Y-94720699D01*
X139445796Y-95885000D01*
X130514145Y-95885000D01*
X130676676Y-95492590D01*
X130555355Y-95262700D01*
X129362200Y-95262700D01*
X129362200Y-95282700D01*
X129108200Y-95282700D01*
X129108200Y-95262700D01*
X126822200Y-95262700D01*
X126822200Y-95282700D01*
X126568200Y-95282700D01*
X126568200Y-95262700D01*
X125375045Y-95262700D01*
X125253724Y-95492590D01*
X125423555Y-95902624D01*
X125802830Y-96318800D01*
X122073435Y-96318800D01*
X122344997Y-95912378D01*
X122460250Y-95332960D01*
X122344997Y-94753542D01*
X122323052Y-94720699D01*
X125277793Y-94720699D01*
X125253724Y-94778810D01*
G36*
X125181108Y-87515700D02*
X125296361Y-88095118D01*
X125624575Y-88586325D01*
X125922961Y-88785700D01*
X125624575Y-88985075D01*
X125296361Y-89476282D01*
X125181108Y-90055700D01*
X125263657Y-90470701D01*
X122675346Y-90470701D01*
X122600498Y-90455813D01*
X122525650Y-90470701D01*
X122525646Y-90470701D01*
X122352103Y-90505221D01*
X122303960Y-90514797D01*
X122210216Y-90577435D01*
X122060366Y-90677562D01*
X122016783Y-90612335D01*
X121525576Y-90284121D01*
X121092414Y-90197960D01*
X120799902Y-90197960D01*
X120366740Y-90284121D01*
X119875533Y-90612335D01*
X119676158Y-90910721D01*
X119476783Y-90612335D01*
X119178370Y-90412941D01*
X119292231Y-90299080D01*
X119449800Y-89918674D01*
X119449800Y-89506926D01*
X119324796Y-89205139D01*
X119476783Y-89103585D01*
X119676158Y-88805199D01*
X119875533Y-89103585D01*
X120366740Y-89431799D01*
X120799902Y-89517960D01*
X121092414Y-89517960D01*
X121525576Y-89431799D01*
X122016783Y-89103585D01*
X122344997Y-88612378D01*
X122460250Y-88032960D01*
X122344997Y-87453542D01*
X122088188Y-87069200D01*
X125269922Y-87069200D01*
X125181108Y-87515700D01*
X125181108Y-87515700D01*
G37*
X125181108Y-87515700D02*
X125296361Y-88095118D01*
X125624575Y-88586325D01*
X125922961Y-88785700D01*
X125624575Y-88985075D01*
X125296361Y-89476282D01*
X125181108Y-90055700D01*
X125263657Y-90470701D01*
X122675346Y-90470701D01*
X122600498Y-90455813D01*
X122525650Y-90470701D01*
X122525646Y-90470701D01*
X122352103Y-90505221D01*
X122303960Y-90514797D01*
X122210216Y-90577435D01*
X122060366Y-90677562D01*
X122016783Y-90612335D01*
X121525576Y-90284121D01*
X121092414Y-90197960D01*
X120799902Y-90197960D01*
X120366740Y-90284121D01*
X119875533Y-90612335D01*
X119676158Y-90910721D01*
X119476783Y-90612335D01*
X119178370Y-90412941D01*
X119292231Y-90299080D01*
X119449800Y-89918674D01*
X119449800Y-89506926D01*
X119324796Y-89205139D01*
X119476783Y-89103585D01*
X119676158Y-88805199D01*
X119875533Y-89103585D01*
X120366740Y-89431799D01*
X120799902Y-89517960D01*
X121092414Y-89517960D01*
X121525576Y-89431799D01*
X122016783Y-89103585D01*
X122344997Y-88612378D01*
X122460250Y-88032960D01*
X122344997Y-87453542D01*
X122088188Y-87069200D01*
X125269922Y-87069200D01*
X125181108Y-87515700D01*
G36*
X125624575Y-83506325D02*
X125922961Y-83705700D01*
X125624575Y-83905075D01*
X125296361Y-84396282D01*
X125181108Y-84975700D01*
X125295184Y-85549200D01*
X121873685Y-85549200D01*
X122016783Y-85453585D01*
X122344997Y-84962378D01*
X122460250Y-84382960D01*
X122344997Y-83803542D01*
X122214607Y-83608399D01*
X124468652Y-83608399D01*
X124543499Y-83623287D01*
X124618346Y-83608399D01*
X124618351Y-83608399D01*
X124840036Y-83564303D01*
X125091428Y-83396328D01*
X125133830Y-83332869D01*
X125358533Y-83108166D01*
X125624575Y-83506325D01*
X125624575Y-83506325D01*
G37*
X125624575Y-83506325D02*
X125922961Y-83705700D01*
X125624575Y-83905075D01*
X125296361Y-84396282D01*
X125181108Y-84975700D01*
X125295184Y-85549200D01*
X121873685Y-85549200D01*
X122016783Y-85453585D01*
X122344997Y-84962378D01*
X122460250Y-84382960D01*
X122344997Y-83803542D01*
X122214607Y-83608399D01*
X124468652Y-83608399D01*
X124543499Y-83623287D01*
X124618346Y-83608399D01*
X124618351Y-83608399D01*
X124840036Y-83564303D01*
X125091428Y-83396328D01*
X125133830Y-83332869D01*
X125358533Y-83108166D01*
X125624575Y-83506325D01*
G36*
X136116761Y-82049918D02*
X136444975Y-82541125D01*
X136743361Y-82740500D01*
X136444975Y-82939875D01*
X136116761Y-83431082D01*
X136001508Y-84010500D01*
X136095374Y-84482400D01*
X131021712Y-84482400D01*
X130985210Y-84427771D01*
X130733818Y-84259796D01*
X130513569Y-84215986D01*
X130305825Y-83905075D01*
X130007439Y-83705700D01*
X130305825Y-83506325D01*
X130504892Y-83208400D01*
X134271889Y-83208400D01*
X134389320Y-83325831D01*
X134769726Y-83483400D01*
X135181474Y-83483400D01*
X135561880Y-83325831D01*
X135853031Y-83034680D01*
X136010600Y-82654274D01*
X136010600Y-82242526D01*
X135853031Y-81862120D01*
X135821612Y-81830701D01*
X136073156Y-81830701D01*
X136116761Y-82049918D01*
X136116761Y-82049918D01*
G37*
X136116761Y-82049918D02*
X136444975Y-82541125D01*
X136743361Y-82740500D01*
X136444975Y-82939875D01*
X136116761Y-83431082D01*
X136001508Y-84010500D01*
X136095374Y-84482400D01*
X131021712Y-84482400D01*
X130985210Y-84427771D01*
X130733818Y-84259796D01*
X130513569Y-84215986D01*
X130305825Y-83905075D01*
X130007439Y-83705700D01*
X130305825Y-83506325D01*
X130504892Y-83208400D01*
X134271889Y-83208400D01*
X134389320Y-83325831D01*
X134769726Y-83483400D01*
X135181474Y-83483400D01*
X135561880Y-83325831D01*
X135853031Y-83034680D01*
X136010600Y-82654274D01*
X136010600Y-82242526D01*
X135853031Y-81862120D01*
X135821612Y-81830701D01*
X136073156Y-81830701D01*
X136116761Y-82049918D01*
G36*
X143927328Y-37104773D02*
X144310597Y-37360865D01*
X144187035Y-37385443D01*
X143976991Y-37525791D01*
X143836643Y-37735835D01*
X143787360Y-37983600D01*
X143787360Y-38683600D01*
X143836643Y-38931365D01*
X143976991Y-39141409D01*
X144187035Y-39281757D01*
X144196300Y-39283600D01*
X144187035Y-39285443D01*
X143976991Y-39425791D01*
X143836643Y-39635835D01*
X143787360Y-39883600D01*
X143787360Y-40583600D01*
X143836643Y-40831365D01*
X143976991Y-41041409D01*
X144049800Y-41090059D01*
X144049800Y-41158889D01*
X144029803Y-41154911D01*
X143954955Y-41169799D01*
X143954951Y-41169799D01*
X143793433Y-41201927D01*
X143733265Y-41213895D01*
X143546221Y-41338875D01*
X143481874Y-41381870D01*
X143439474Y-41445326D01*
X143199556Y-41685245D01*
X143054880Y-41540569D01*
X142674474Y-41383000D01*
X142262726Y-41383000D01*
X141882320Y-41540569D01*
X141764889Y-41658000D01*
X140848148Y-41658000D01*
X140963600Y-41379274D01*
X140963600Y-40967526D01*
X140806031Y-40587120D01*
X140514880Y-40295969D01*
X140134474Y-40138400D01*
X139722726Y-40138400D01*
X139342320Y-40295969D01*
X139275689Y-40362600D01*
X138308148Y-40362600D01*
X138423600Y-40083874D01*
X138423600Y-39672126D01*
X138266031Y-39291720D01*
X137974880Y-39000569D01*
X137594474Y-38843000D01*
X137182726Y-38843000D01*
X136802320Y-39000569D01*
X136684889Y-39118000D01*
X135711185Y-39118000D01*
X135858200Y-38763074D01*
X135858200Y-38351326D01*
X135700631Y-37970920D01*
X135409480Y-37679769D01*
X135045589Y-37529041D01*
X135472927Y-37444038D01*
X135980673Y-37104773D01*
X136144000Y-36860336D01*
X136307328Y-37104773D01*
X136815074Y-37444038D01*
X137414000Y-37563172D01*
X138012927Y-37444038D01*
X138520673Y-37104773D01*
X138684000Y-36860336D01*
X138847328Y-37104773D01*
X139355074Y-37444038D01*
X139954000Y-37563172D01*
X140552927Y-37444038D01*
X141060673Y-37104773D01*
X141224000Y-36860336D01*
X141387328Y-37104773D01*
X141895074Y-37444038D01*
X142494000Y-37563172D01*
X143092927Y-37444038D01*
X143600673Y-37104773D01*
X143764000Y-36860336D01*
X143927328Y-37104773D01*
X143927328Y-37104773D01*
G37*
X143927328Y-37104773D02*
X144310597Y-37360865D01*
X144187035Y-37385443D01*
X143976991Y-37525791D01*
X143836643Y-37735835D01*
X143787360Y-37983600D01*
X143787360Y-38683600D01*
X143836643Y-38931365D01*
X143976991Y-39141409D01*
X144187035Y-39281757D01*
X144196300Y-39283600D01*
X144187035Y-39285443D01*
X143976991Y-39425791D01*
X143836643Y-39635835D01*
X143787360Y-39883600D01*
X143787360Y-40583600D01*
X143836643Y-40831365D01*
X143976991Y-41041409D01*
X144049800Y-41090059D01*
X144049800Y-41158889D01*
X144029803Y-41154911D01*
X143954955Y-41169799D01*
X143954951Y-41169799D01*
X143793433Y-41201927D01*
X143733265Y-41213895D01*
X143546221Y-41338875D01*
X143481874Y-41381870D01*
X143439474Y-41445326D01*
X143199556Y-41685245D01*
X143054880Y-41540569D01*
X142674474Y-41383000D01*
X142262726Y-41383000D01*
X141882320Y-41540569D01*
X141764889Y-41658000D01*
X140848148Y-41658000D01*
X140963600Y-41379274D01*
X140963600Y-40967526D01*
X140806031Y-40587120D01*
X140514880Y-40295969D01*
X140134474Y-40138400D01*
X139722726Y-40138400D01*
X139342320Y-40295969D01*
X139275689Y-40362600D01*
X138308148Y-40362600D01*
X138423600Y-40083874D01*
X138423600Y-39672126D01*
X138266031Y-39291720D01*
X137974880Y-39000569D01*
X137594474Y-38843000D01*
X137182726Y-38843000D01*
X136802320Y-39000569D01*
X136684889Y-39118000D01*
X135711185Y-39118000D01*
X135858200Y-38763074D01*
X135858200Y-38351326D01*
X135700631Y-37970920D01*
X135409480Y-37679769D01*
X135045589Y-37529041D01*
X135472927Y-37444038D01*
X135980673Y-37104773D01*
X136144000Y-36860336D01*
X136307328Y-37104773D01*
X136815074Y-37444038D01*
X137414000Y-37563172D01*
X138012927Y-37444038D01*
X138520673Y-37104773D01*
X138684000Y-36860336D01*
X138847328Y-37104773D01*
X139355074Y-37444038D01*
X139954000Y-37563172D01*
X140552927Y-37444038D01*
X141060673Y-37104773D01*
X141224000Y-36860336D01*
X141387328Y-37104773D01*
X141895074Y-37444038D01*
X142494000Y-37563172D01*
X143092927Y-37444038D01*
X143600673Y-37104773D01*
X143764000Y-36860336D01*
X143927328Y-37104773D01*
G36*
X168999010Y-52684000D02*
X169133666Y-53360963D01*
X169517135Y-53934865D01*
X170091037Y-54318334D01*
X170534455Y-54406535D01*
X170333666Y-54707037D01*
X170199010Y-55384000D01*
X170333666Y-56060963D01*
X170717135Y-56634865D01*
X171291037Y-57018334D01*
X171483594Y-57056636D01*
X162790560Y-57056636D01*
X161228676Y-55494753D01*
X161344426Y-55215308D01*
X161344426Y-54485300D01*
X161065064Y-53810860D01*
X160548870Y-53294666D01*
X160079638Y-53100304D01*
X160548870Y-52905942D01*
X161065064Y-52389748D01*
X161180813Y-52110304D01*
X169113125Y-52110304D01*
X168999010Y-52684000D01*
X168999010Y-52684000D01*
G37*
X168999010Y-52684000D02*
X169133666Y-53360963D01*
X169517135Y-53934865D01*
X170091037Y-54318334D01*
X170534455Y-54406535D01*
X170333666Y-54707037D01*
X170199010Y-55384000D01*
X170333666Y-56060963D01*
X170717135Y-56634865D01*
X171291037Y-57018334D01*
X171483594Y-57056636D01*
X162790560Y-57056636D01*
X161228676Y-55494753D01*
X161344426Y-55215308D01*
X161344426Y-54485300D01*
X161065064Y-53810860D01*
X160548870Y-53294666D01*
X160079638Y-53100304D01*
X160548870Y-52905942D01*
X161065064Y-52389748D01*
X161180813Y-52110304D01*
X169113125Y-52110304D01*
X168999010Y-52684000D01*
G04 #@! TD*
M02*
