G04 #@! TF.GenerationSoftware,KiCad,Pcbnew,5.0.2-bee76a0~70~ubuntu18.04.1*
G04 #@! TF.CreationDate,2019-05-13T15:11:37-07:00*
G04 #@! TF.ProjectId,Half_Shield,48616c66-5f53-4686-9965-6c642e6b6963,rev?*
G04 #@! TF.SameCoordinates,Original*
G04 #@! TF.FileFunction,Copper,L2,Bot*
G04 #@! TF.FilePolarity,Positive*
%FSLAX46Y46*%
G04 Gerber Fmt 4.6, Leading zero omitted, Abs format (unit mm)*
G04 Created by KiCad (PCBNEW 5.0.2-bee76a0~70~ubuntu18.04.1) date Mon 13 May 2019 03:11:37 PM PDT*
%MOMM*%
%LPD*%
G01*
G04 APERTURE LIST*
G04 #@! TA.AperFunction,ComponentPad*
%ADD10R,1.700000X1.700000*%
G04 #@! TD*
G04 #@! TA.AperFunction,ComponentPad*
%ADD11R,1.800000X2.600000*%
G04 #@! TD*
G04 #@! TA.AperFunction,ComponentPad*
%ADD12O,1.800000X2.600000*%
G04 #@! TD*
G04 #@! TA.AperFunction,ComponentPad*
%ADD13C,3.000000*%
G04 #@! TD*
G04 #@! TA.AperFunction,ComponentPad*
%ADD14O,1.700000X1.700000*%
G04 #@! TD*
G04 #@! TA.AperFunction,ComponentPad*
%ADD15C,2.400000*%
G04 #@! TD*
G04 #@! TA.AperFunction,ComponentPad*
%ADD16R,2.400000X2.400000*%
G04 #@! TD*
G04 #@! TA.AperFunction,ComponentPad*
%ADD17O,4.000000X2.200000*%
G04 #@! TD*
G04 #@! TA.AperFunction,ComponentPad*
%ADD18O,2.200000X4.000000*%
G04 #@! TD*
G04 #@! TA.AperFunction,ComponentPad*
%ADD19C,3.500000*%
G04 #@! TD*
G04 #@! TA.AperFunction,ComponentPad*
%ADD20C,3.800000*%
G04 #@! TD*
G04 #@! TA.AperFunction,ComponentPad*
%ADD21C,2.500000*%
G04 #@! TD*
G04 #@! TA.AperFunction,ComponentPad*
%ADD22R,2.500000X2.500000*%
G04 #@! TD*
G04 #@! TA.AperFunction,ComponentPad*
%ADD23C,1.440000*%
G04 #@! TD*
G04 #@! TA.AperFunction,ViaPad*
%ADD24C,0.800000*%
G04 #@! TD*
G04 #@! TA.AperFunction,Conductor*
%ADD25C,0.250000*%
G04 #@! TD*
G04 #@! TA.AperFunction,Conductor*
%ADD26C,1.000000*%
G04 #@! TD*
G04 #@! TA.AperFunction,Conductor*
%ADD27C,2.000000*%
G04 #@! TD*
G04 #@! TA.AperFunction,Conductor*
%ADD28C,0.500000*%
G04 #@! TD*
G04 #@! TA.AperFunction,Conductor*
%ADD29C,0.254000*%
G04 #@! TD*
G04 APERTURE END LIST*
D10*
G04 #@! TO.P,A_Buck_9V1,1*
G04 #@! TO.N,Net-(A_Buck_9V1-Pad1)*
X138582400Y-99618800D03*
G04 #@! TD*
D11*
G04 #@! TO.P,LCD1,1*
G04 #@! TO.N,GND*
X109474000Y-35598100D03*
D12*
G04 #@! TO.P,LCD1,2*
G04 #@! TO.N,Net-(C2-Pad2)*
X112014000Y-35598100D03*
G04 #@! TO.P,LCD1,3*
G04 #@! TO.N,Net-(LCD1-Pad3)*
X114554000Y-35598100D03*
G04 #@! TO.P,LCD1,4*
G04 #@! TO.N,Net-(Arduino_Block1-Pad6)*
X117094000Y-35598100D03*
G04 #@! TO.P,LCD1,5*
G04 #@! TO.N,GND*
X119634000Y-35598100D03*
G04 #@! TO.P,LCD1,6*
G04 #@! TO.N,Net-(Arduino_Block1-Pad4)*
X122174000Y-35598100D03*
G04 #@! TO.P,LCD1,7*
G04 #@! TO.N,N/C*
X124714000Y-35598100D03*
G04 #@! TO.P,LCD1,8*
X127254000Y-35598100D03*
G04 #@! TO.P,LCD1,9*
X129794000Y-35598100D03*
G04 #@! TO.P,LCD1,10*
X132334000Y-35598100D03*
G04 #@! TO.P,LCD1,11*
G04 #@! TO.N,Net-(Arduino_Block1-Pad8)*
X134874000Y-35598100D03*
G04 #@! TO.P,LCD1,12*
G04 #@! TO.N,Net-(Arduino_Block1-Pad10)*
X137414000Y-35598100D03*
G04 #@! TO.P,LCD1,13*
G04 #@! TO.N,Net-(Arduino_Block1-Pad12)*
X139954000Y-35598100D03*
G04 #@! TO.P,LCD1,14*
G04 #@! TO.N,Net-(Arduino_Block1-Pad14)*
X142494000Y-35598100D03*
G04 #@! TO.P,LCD1,15*
G04 #@! TO.N,Net-(LCD1-Pad15)*
X145034000Y-35598100D03*
G04 #@! TO.P,LCD1,16*
G04 #@! TO.N,GND*
X147574000Y-35598100D03*
D13*
G04 #@! TO.P,LCD1,*
G04 #@! TO.N,*
X178973480Y-66598800D03*
X178974000Y-35598100D03*
G04 #@! TD*
D14*
G04 #@! TO.P,Arduino_Block1,36*
G04 #@! TO.N,GND*
X126695200Y-95135700D03*
G04 #@! TO.P,Arduino_Block1,35*
X129235200Y-95135700D03*
G04 #@! TO.P,Arduino_Block1,34*
G04 #@! TO.N,N/C*
X126695200Y-92595700D03*
G04 #@! TO.P,Arduino_Block1,33*
X129235200Y-92595700D03*
G04 #@! TO.P,Arduino_Block1,32*
X126695200Y-90055700D03*
G04 #@! TO.P,Arduino_Block1,31*
X129235200Y-90055700D03*
G04 #@! TO.P,Arduino_Block1,30*
G04 #@! TO.N,Net-(Arduino_Block1-Pad30)*
X126695200Y-87515700D03*
G04 #@! TO.P,Arduino_Block1,29*
G04 #@! TO.N,Relay_IN1*
X129235200Y-87515700D03*
G04 #@! TO.P,Arduino_Block1,28*
G04 #@! TO.N,Net-(Arduino_Block1-Pad28)*
X126695200Y-84975700D03*
G04 #@! TO.P,Arduino_Block1,27*
G04 #@! TO.N,Relay_IN2*
X129235200Y-84975700D03*
G04 #@! TO.P,Arduino_Block1,26*
G04 #@! TO.N,Net-(Arduino_Block1-Pad26)*
X126695200Y-82435700D03*
G04 #@! TO.P,Arduino_Block1,25*
G04 #@! TO.N,CS*
X129235200Y-82435700D03*
G04 #@! TO.P,Arduino_Block1,24*
G04 #@! TO.N,Net-(Arduino_Block1-Pad24)*
X126695200Y-79895700D03*
G04 #@! TO.P,Arduino_Block1,23*
G04 #@! TO.N,SDI*
X129235200Y-79895700D03*
G04 #@! TO.P,Arduino_Block1,22*
G04 #@! TO.N,Net-(Arduino_Block1-Pad22)*
X126695200Y-77355700D03*
G04 #@! TO.P,Arduino_Block1,21*
G04 #@! TO.N,SDO*
X129235200Y-77355700D03*
G04 #@! TO.P,Arduino_Block1,20*
G04 #@! TO.N,Net-(Arduino_Block1-Pad20)*
X126695200Y-74815700D03*
G04 #@! TO.P,Arduino_Block1,19*
G04 #@! TO.N,CLK*
X129235200Y-74815700D03*
G04 #@! TO.P,Arduino_Block1,18*
G04 #@! TO.N,Net-(Arduino_Block1-Pad18)*
X126695200Y-72275700D03*
G04 #@! TO.P,Arduino_Block1,17*
G04 #@! TO.N,N/C*
X129235200Y-72275700D03*
G04 #@! TO.P,Arduino_Block1,16*
G04 #@! TO.N,Net-(Arduino_Block1-Pad16)*
X126695200Y-69735700D03*
G04 #@! TO.P,Arduino_Block1,15*
G04 #@! TO.N,N/C*
X129235200Y-69735700D03*
G04 #@! TO.P,Arduino_Block1,14*
G04 #@! TO.N,Net-(Arduino_Block1-Pad14)*
X126695200Y-67195700D03*
G04 #@! TO.P,Arduino_Block1,13*
G04 #@! TO.N,N/C*
X129235200Y-67195700D03*
G04 #@! TO.P,Arduino_Block1,12*
G04 #@! TO.N,Net-(Arduino_Block1-Pad12)*
X126695200Y-64655700D03*
G04 #@! TO.P,Arduino_Block1,11*
G04 #@! TO.N,N/C*
X129235200Y-64655700D03*
G04 #@! TO.P,Arduino_Block1,10*
G04 #@! TO.N,Net-(Arduino_Block1-Pad10)*
X126695200Y-62115700D03*
G04 #@! TO.P,Arduino_Block1,9*
G04 #@! TO.N,N/C*
X129235200Y-62115700D03*
G04 #@! TO.P,Arduino_Block1,8*
G04 #@! TO.N,Net-(Arduino_Block1-Pad8)*
X126695200Y-59575700D03*
G04 #@! TO.P,Arduino_Block1,7*
G04 #@! TO.N,N/C*
X129235200Y-59575700D03*
G04 #@! TO.P,Arduino_Block1,6*
G04 #@! TO.N,Net-(Arduino_Block1-Pad6)*
X126695200Y-57035700D03*
G04 #@! TO.P,Arduino_Block1,5*
G04 #@! TO.N,N/C*
X129235200Y-57035700D03*
G04 #@! TO.P,Arduino_Block1,4*
G04 #@! TO.N,Net-(Arduino_Block1-Pad4)*
X126695200Y-54495700D03*
G04 #@! TO.P,Arduino_Block1,3*
G04 #@! TO.N,N/C*
X129235200Y-54495700D03*
G04 #@! TO.P,Arduino_Block1,2*
G04 #@! TO.N,+5V*
X126695200Y-51955700D03*
D10*
G04 #@! TO.P,Arduino_Block1,1*
X129235200Y-51955700D03*
G04 #@! TD*
D14*
G04 #@! TO.P,Arduino_Block2,4*
G04 #@! TO.N,Net-(Arduino_Block2-Pad4)*
X119024400Y-51955700D03*
G04 #@! TO.P,Arduino_Block2,3*
G04 #@! TO.N,Net-(Arduino_Block2-Pad3)*
X116484400Y-51955700D03*
G04 #@! TO.P,Arduino_Block2,2*
G04 #@! TO.N,pH_TX*
X113944400Y-51955700D03*
D10*
G04 #@! TO.P,Arduino_Block2,1*
G04 #@! TO.N,pH_RX*
X111404400Y-51955700D03*
G04 #@! TD*
D14*
G04 #@! TO.P,Arduino_Block3,6*
G04 #@! TO.N,N/C*
X111455200Y-100266500D03*
G04 #@! TO.P,Arduino_Block3,5*
X113995200Y-100266500D03*
G04 #@! TO.P,Arduino_Block3,4*
X116535200Y-100266500D03*
G04 #@! TO.P,Arduino_Block3,3*
X119075200Y-100266500D03*
G04 #@! TO.P,Arduino_Block3,2*
X121615200Y-100266500D03*
D10*
G04 #@! TO.P,Arduino_Block3,1*
X124155200Y-100266500D03*
G04 #@! TD*
D14*
G04 #@! TO.P,Keypad1,8*
G04 #@! TO.N,Net-(Arduino_Block1-Pad16)*
X110083600Y-105613200D03*
G04 #@! TO.P,Keypad1,7*
G04 #@! TO.N,Net-(Arduino_Block1-Pad18)*
X112623600Y-105613200D03*
G04 #@! TO.P,Keypad1,6*
G04 #@! TO.N,Net-(Arduino_Block1-Pad20)*
X115163600Y-105613200D03*
G04 #@! TO.P,Keypad1,5*
G04 #@! TO.N,Net-(Arduino_Block1-Pad22)*
X117703600Y-105613200D03*
G04 #@! TO.P,Keypad1,4*
G04 #@! TO.N,Net-(Arduino_Block1-Pad24)*
X120243600Y-105613200D03*
G04 #@! TO.P,Keypad1,3*
G04 #@! TO.N,Net-(Arduino_Block1-Pad26)*
X122783600Y-105613200D03*
G04 #@! TO.P,Keypad1,2*
G04 #@! TO.N,Net-(Arduino_Block1-Pad28)*
X125323600Y-105613200D03*
D10*
G04 #@! TO.P,Keypad1,1*
G04 #@! TO.N,Net-(Arduino_Block1-Pad30)*
X127863600Y-105613200D03*
G04 #@! TD*
D14*
G04 #@! TO.P,pH_carrier1,5*
G04 #@! TO.N,+5V*
X137515600Y-84010500D03*
G04 #@! TO.P,pH_carrier1,4*
G04 #@! TO.N,N/C*
X137515600Y-81470500D03*
G04 #@! TO.P,pH_carrier1,3*
G04 #@! TO.N,GND*
X137515600Y-78930500D03*
G04 #@! TO.P,pH_carrier1,2*
G04 #@! TO.N,pH_TX*
X137515600Y-76390500D03*
D10*
G04 #@! TO.P,pH_carrier1,1*
G04 #@! TO.N,pH_RX*
X137515600Y-73850500D03*
G04 #@! TD*
D15*
G04 #@! TO.P,PT100_Input1,3*
G04 #@! TO.N,Net-(PT100_Input1-Pad3)*
X159509426Y-51350304D03*
G04 #@! TO.P,PT100_Input1,4*
G04 #@! TO.N,Net-(PT100_Input1-Pad4)*
X159509426Y-47850304D03*
G04 #@! TO.P,PT100_Input1,2*
G04 #@! TO.N,Net-(PT100_Input1-Pad2)*
X159509426Y-54850304D03*
D16*
G04 #@! TO.P,PT100_Input1,1*
G04 #@! TO.N,N/C*
X159509426Y-58350304D03*
G04 #@! TD*
D17*
G04 #@! TO.P,PT100_Jack1,1*
G04 #@! TO.N,Net-(PT100_Input1-Pad4)*
X175768000Y-62484000D03*
D18*
G04 #@! TO.P,PT100_Jack1,4*
G04 #@! TO.N,N/C*
X168468000Y-61984000D03*
D17*
G04 #@! TO.P,PT100_Jack1,5*
X172868000Y-55384000D03*
G04 #@! TO.P,PT100_Jack1,2*
G04 #@! TO.N,Net-(PT100_Input1-Pad3)*
X171668000Y-52684000D03*
D18*
G04 #@! TO.P,PT100_Jack1,3*
G04 #@! TO.N,Net-(PT100_Input1-Pad2)*
X179668000Y-57884000D03*
G04 #@! TD*
D14*
G04 #@! TO.P,Relay_control1,4*
G04 #@! TO.N,GND*
X151231600Y-92252800D03*
G04 #@! TO.P,Relay_control1,3*
G04 #@! TO.N,Relay_IN1*
X148691600Y-92252800D03*
G04 #@! TO.P,Relay_control1,2*
G04 #@! TO.N,Relay_IN2*
X146151600Y-92252800D03*
D10*
G04 #@! TO.P,Relay_control1,1*
G04 #@! TO.N,+5V*
X143611600Y-92252800D03*
G04 #@! TD*
G04 #@! TO.P,Relay_pwr1,1*
G04 #@! TO.N,GND*
X160274000Y-92252800D03*
D14*
G04 #@! TO.P,Relay_pwr1,2*
G04 #@! TO.N,N/C*
X162814000Y-92252800D03*
G04 #@! TO.P,Relay_pwr1,3*
G04 #@! TO.N,Buck_5V*
X165354000Y-92252800D03*
G04 #@! TD*
D10*
G04 #@! TO.P,A_Buck1,1*
G04 #@! TO.N,Net-(AC-L1-Pad1)*
X153110949Y-125618646D03*
G04 #@! TD*
G04 #@! TO.P,A_Buck2,1*
G04 #@! TO.N,Net-(AC-N1-Pad1)*
X148259549Y-125580546D03*
G04 #@! TD*
G04 #@! TO.P,A_Buck_GND1,1*
G04 #@! TO.N,GND*
X148323049Y-99659846D03*
G04 #@! TD*
G04 #@! TO.P,R_Buck2,1*
G04 #@! TO.N,Net-(AC-L1-Pad1)*
X176137176Y-125383292D03*
G04 #@! TD*
G04 #@! TO.P,R_Buck_1,1*
G04 #@! TO.N,Net-(AC-N1-Pad1)*
X171311176Y-125395992D03*
G04 #@! TD*
G04 #@! TO.P,R_Buck_5V1,1*
G04 #@! TO.N,Buck_5V*
X161621076Y-99449892D03*
G04 #@! TD*
G04 #@! TO.P,R_Buck_GND1,1*
G04 #@! TO.N,GND*
X171400076Y-99399092D03*
G04 #@! TD*
D19*
G04 #@! TO.P,AC-E1,1*
G04 #@! TO.N,GND*
X121056400Y-133858000D03*
G04 #@! TD*
G04 #@! TO.P,AC-L1,1*
G04 #@! TO.N,Net-(AC-L1-Pad1)*
X128066800Y-133858000D03*
G04 #@! TD*
G04 #@! TO.P,AC-N1,1*
G04 #@! TO.N,Net-(AC-N1-Pad1)*
X114096800Y-133858000D03*
G04 #@! TD*
D14*
G04 #@! TO.P,PT100_amp1,8*
G04 #@! TO.N,N/C*
X137871200Y-44196000D03*
G04 #@! TO.P,PT100_amp1,7*
G04 #@! TO.N,CS*
X137871200Y-46736000D03*
G04 #@! TO.P,PT100_amp1,6*
G04 #@! TO.N,SDI*
X137871200Y-49276000D03*
G04 #@! TO.P,PT100_amp1,5*
G04 #@! TO.N,SDO*
X137871200Y-51816000D03*
G04 #@! TO.P,PT100_amp1,4*
G04 #@! TO.N,CLK*
X137871200Y-54356000D03*
G04 #@! TO.P,PT100_amp1,3*
G04 #@! TO.N,N/C*
X137871200Y-56896000D03*
G04 #@! TO.P,PT100_amp1,2*
G04 #@! TO.N,GND*
X137871200Y-59436000D03*
D10*
G04 #@! TO.P,PT100_amp1,1*
G04 #@! TO.N,Net-(C5-Pad2)*
X137871200Y-61976000D03*
G04 #@! TD*
D20*
G04 #@! TO.P,Screw1,1*
G04 #@! TO.N,Net-(AC-L1-Pad1)*
X153314400Y-143306800D03*
G04 #@! TD*
G04 #@! TO.P,Screw2,1*
G04 #@! TO.N,Net-(AC-L1-Pad1)*
X165100000Y-143306800D03*
G04 #@! TD*
D21*
G04 #@! TO.P,Power_Screws1,5*
G04 #@! TO.N,GND*
X111013200Y-115366800D03*
G04 #@! TO.P,Power_Screws1,4*
G04 #@! TO.N,Net-(AC-N1-Pad1)*
X116013200Y-115366800D03*
G04 #@! TO.P,Power_Screws1,3*
G04 #@! TO.N,GND*
X121013200Y-115366800D03*
G04 #@! TO.P,Power_Screws1,2*
G04 #@! TO.N,Net-(AC-N1-Pad1)*
X126013200Y-115366800D03*
D22*
G04 #@! TO.P,Power_Screws1,1*
G04 #@! TO.N,Net-(Cout1-Pad1)*
X131013200Y-115366800D03*
G04 #@! TD*
D14*
G04 #@! TO.P,PCF8523_RTC1,5*
G04 #@! TO.N,N/C*
X149809200Y-74472800D03*
G04 #@! TO.P,PCF8523_RTC1,4*
G04 #@! TO.N,Net-(Arduino_Block2-Pad4)*
X149809200Y-77012800D03*
G04 #@! TO.P,PCF8523_RTC1,3*
G04 #@! TO.N,Net-(Arduino_Block2-Pad3)*
X149809200Y-79552800D03*
G04 #@! TO.P,PCF8523_RTC1,2*
G04 #@! TO.N,Net-(C8-Pad2)*
X149809200Y-82092800D03*
D10*
G04 #@! TO.P,PCF8523_RTC1,1*
G04 #@! TO.N,GND*
X149809200Y-84632800D03*
G04 #@! TD*
D23*
G04 #@! TO.P,RV1,1*
G04 #@! TO.N,GND*
X174498000Y-39878000D03*
G04 #@! TO.P,RV1,2*
G04 #@! TO.N,Net-(LCD1-Pad3)*
X177038000Y-42418000D03*
G04 #@! TO.P,RV1,3*
G04 #@! TO.N,Net-(C3-Pad2)*
X174498000Y-44958000D03*
G04 #@! TD*
D10*
G04 #@! TO.P,J1,1*
G04 #@! TO.N,Buck_5V*
X115866158Y-80732960D03*
D14*
G04 #@! TO.P,J1,2*
G04 #@! TO.N,Net-(C3-Pad2)*
X118406158Y-80732960D03*
G04 #@! TO.P,J1,3*
G04 #@! TO.N,+5V*
X120946158Y-80732960D03*
G04 #@! TD*
G04 #@! TO.P,J2,3*
G04 #@! TO.N,+5V*
X120946158Y-84382960D03*
G04 #@! TO.P,J2,2*
G04 #@! TO.N,Net-(C4-Pad1)*
X118406158Y-84382960D03*
D10*
G04 #@! TO.P,J2,1*
G04 #@! TO.N,Buck_5V*
X115866158Y-84382960D03*
G04 #@! TD*
G04 #@! TO.P,J3,1*
G04 #@! TO.N,Buck_5V*
X115866158Y-88032960D03*
D14*
G04 #@! TO.P,J3,2*
G04 #@! TO.N,Net-(C2-Pad2)*
X118406158Y-88032960D03*
G04 #@! TO.P,J3,3*
G04 #@! TO.N,+5V*
X120946158Y-88032960D03*
G04 #@! TD*
G04 #@! TO.P,J4,3*
G04 #@! TO.N,+5V*
X120946158Y-91682960D03*
G04 #@! TO.P,J4,2*
G04 #@! TO.N,Net-(C8-Pad2)*
X118406158Y-91682960D03*
D10*
G04 #@! TO.P,J4,1*
G04 #@! TO.N,Buck_5V*
X115866158Y-91682960D03*
G04 #@! TD*
D14*
G04 #@! TO.P,J5,3*
G04 #@! TO.N,+5V*
X120946158Y-95332960D03*
G04 #@! TO.P,J5,2*
G04 #@! TO.N,Net-(C5-Pad2)*
X118406158Y-95332960D03*
D10*
G04 #@! TO.P,J5,1*
G04 #@! TO.N,Buck_5V*
X115866158Y-95332960D03*
G04 #@! TD*
D24*
G04 #@! TO.N,GND*
X136702800Y-111099600D03*
X124206000Y-102920800D03*
X121615200Y-102920800D03*
X119024400Y-102920800D03*
X116687600Y-102920800D03*
X114096800Y-102920800D03*
X111353600Y-102920800D03*
X141224000Y-73152000D03*
X163423600Y-55270400D03*
X167335200Y-52628800D03*
X144170400Y-126746000D03*
X139090400Y-126746000D03*
X134010400Y-126746000D03*
X128930400Y-126746000D03*
X137058400Y-88493600D03*
X160375600Y-95961200D03*
X171399200Y-96012000D03*
X111506000Y-86614000D03*
X111506000Y-82092800D03*
X111506000Y-77622400D03*
X112776000Y-65430400D03*
X112776000Y-61925200D03*
X112776000Y-57658000D03*
X115316000Y-57658000D03*
X115316000Y-61976000D03*
X115316000Y-65430400D03*
X113538000Y-86664800D03*
X113538000Y-78282800D03*
X113538000Y-82194400D03*
X124206000Y-95351600D03*
X124206000Y-89306400D03*
X124104400Y-87426800D03*
X123139200Y-83820000D03*
X133350000Y-83972400D03*
X141224000Y-39217600D03*
X138633200Y-38506400D03*
G04 #@! TO.N,Relay_IN1*
X148691600Y-89204800D03*
G04 #@! TO.N,Relay_IN2*
X145948400Y-85242400D03*
G04 #@! TO.N,CS*
X134975600Y-82448400D03*
X135940800Y-46736000D03*
G04 #@! TO.N,Net-(Arduino_Block1-Pad24)*
X119684800Y-78486000D03*
G04 #@! TO.N,SDI*
X134823200Y-79705200D03*
X134823200Y-49276000D03*
G04 #@! TO.N,Net-(Arduino_Block1-Pad22)*
X117551200Y-77355700D03*
G04 #@! TO.N,SDO*
X133197600Y-77114400D03*
X133146800Y-51765200D03*
G04 #@! TO.N,Net-(Arduino_Block1-Pad20)*
X115176300Y-74815700D03*
G04 #@! TO.N,CLK*
X134010400Y-74777600D03*
X134010400Y-54305200D03*
G04 #@! TO.N,Net-(Arduino_Block1-Pad18)*
X112979200Y-72275700D03*
G04 #@! TO.N,Net-(Arduino_Block1-Pad16)*
X110426500Y-69735700D03*
G04 #@! TO.N,Net-(Arduino_Block1-Pad14)*
X121615200Y-67106800D03*
X142468600Y-42418000D03*
X124714000Y-42418000D03*
G04 #@! TO.N,Net-(Arduino_Block1-Pad12)*
X121513600Y-64566800D03*
X139928600Y-41173400D03*
X124307600Y-41148000D03*
G04 #@! TO.N,Net-(Arduino_Block1-Pad10)*
X121564400Y-62026800D03*
X137388600Y-39878000D03*
X124002800Y-39878000D03*
G04 #@! TO.N,Net-(Arduino_Block1-Pad8)*
X121412000Y-59537600D03*
X134823200Y-38557200D03*
X123444000Y-38608000D03*
G04 #@! TO.N,Net-(Arduino_Block1-Pad6)*
X122123200Y-56896000D03*
X117170200Y-42240200D03*
X122174000Y-42265600D03*
G04 #@! TO.N,Net-(Arduino_Block1-Pad4)*
X121310400Y-54457600D03*
G04 #@! TO.N,+5V*
X131368800Y-92202000D03*
X144983200Y-84023200D03*
X131114800Y-51955700D03*
G04 #@! TO.N,pH_TX*
X114147600Y-76149200D03*
G04 #@! TO.N,pH_RX*
X137464800Y-70612000D03*
X137515600Y-70662800D03*
X111201200Y-68560699D03*
G04 #@! TO.N,Net-(AC-L1-Pad1)*
X153111200Y-133807200D03*
G04 #@! TO.N,Net-(LCD1-Pad3)*
X114604800Y-43383200D03*
G04 #@! TO.N,Net-(A_Buck_9V1-Pad1)*
X142697200Y-110947200D03*
X140258800Y-106070400D03*
G04 #@! TO.N,Net-(Arduino_Block2-Pad4)*
X119126000Y-71069200D03*
X146608800Y-71387801D03*
X146608800Y-77165200D03*
G04 #@! TO.N,Net-(Arduino_Block2-Pad3)*
X116484400Y-73558400D03*
X142849600Y-75025501D03*
X142849600Y-79451200D03*
G04 #@! TO.N,Net-(Cbst1-Pad1)*
X143408400Y-104851200D03*
X143408400Y-103835200D03*
X146405600Y-108407200D03*
X147574000Y-108407200D03*
X148793200Y-108407200D03*
X148793200Y-109524800D03*
X147574000Y-109524800D03*
X146405600Y-109524800D03*
G04 #@! TO.N,Net-(Cout1-Pad1)*
X136448800Y-108712000D03*
X156260800Y-98196400D03*
G04 #@! TO.N,Net-(C2-Pad2)*
X118414800Y-89712800D03*
X108966000Y-89712800D03*
X108248999Y-41407801D03*
G04 #@! TO.N,Net-(C3-Pad2)*
X154076400Y-44805600D03*
X154076400Y-67741800D03*
X118414800Y-82448400D03*
X140157200Y-80105501D03*
X140258800Y-67767200D03*
G04 #@! TO.N,Net-(C4-Pad1)*
X145084800Y-41198800D03*
X118414800Y-86055200D03*
X144830800Y-86309200D03*
G04 #@! TO.N,Net-(C5-Pad2)*
X118262400Y-97078800D03*
X141274800Y-97078800D03*
X141949001Y-63666201D03*
G04 #@! TO.N,Net-(C8-Pad2)*
X118414800Y-93421200D03*
X154533600Y-95402400D03*
X154533600Y-82194400D03*
G04 #@! TO.N,Buck_5V*
X165303200Y-99415600D03*
X115874800Y-98196400D03*
X143611600Y-97231200D03*
X156108400Y-96520000D03*
X160731200Y-97028000D03*
G04 #@! TD*
D25*
G04 #@! TO.N,GND*
X119684800Y-35648900D02*
X119634000Y-35598100D01*
X137805126Y-59429804D02*
X137817826Y-59417104D01*
X119532400Y-35699700D02*
X119634000Y-35598100D01*
X147828000Y-35852100D02*
X147574000Y-35598100D01*
X111150400Y-115229600D02*
X111013200Y-115366800D01*
X160426400Y-93505200D02*
X160426400Y-95961200D01*
X160274000Y-92252800D02*
X160274000Y-93352800D01*
X160274000Y-93352800D02*
X160426400Y-93505200D01*
X171399200Y-98298216D02*
X171399200Y-95961200D01*
X171400076Y-99399092D02*
X171400076Y-98299092D01*
X171400076Y-98299092D02*
X171399200Y-98298216D01*
G04 #@! TO.N,Relay_IN1*
X148691600Y-89204800D02*
X148691600Y-89770485D01*
X148691600Y-89770485D02*
X148691600Y-92252800D01*
G04 #@! TO.N,Relay_IN2*
X145948400Y-91948000D02*
X146050000Y-92049600D01*
X145948400Y-92049600D02*
X146151600Y-92252800D01*
X145948400Y-85242400D02*
X145948400Y-92049600D01*
G04 #@! TO.N,Net-(Arduino_Block1-Pad30)*
X127762000Y-88582500D02*
X126695200Y-87515700D01*
X127870201Y-88690701D02*
X127762000Y-88582500D01*
X127863600Y-105613200D02*
X127863600Y-95706302D01*
X127863600Y-95706302D02*
X127870201Y-95699701D01*
X127870201Y-95699701D02*
X127870201Y-88690701D01*
G04 #@! TO.N,Net-(Arduino_Block1-Pad28)*
X125323600Y-105613200D02*
X125323600Y-104411119D01*
X125323600Y-104411119D02*
X125520199Y-104214520D01*
X125520199Y-104214520D02*
X125520199Y-86150701D01*
X125520199Y-86150701D02*
X126695200Y-84975700D01*
G04 #@! TO.N,Net-(Arduino_Block1-Pad26)*
X122783600Y-104411119D02*
X122790201Y-104404518D01*
X122790201Y-86340699D02*
X126695200Y-82435700D01*
X122848201Y-86398699D02*
X122848201Y-88202601D01*
X122790201Y-86340699D02*
X122848201Y-86398699D01*
X122783600Y-104411119D02*
X122783600Y-105613200D01*
X122848201Y-104346518D02*
X122783600Y-104411119D01*
X122848201Y-88202601D02*
X122848201Y-104346518D01*
G04 #@! TO.N,CS*
X135940800Y-81483200D02*
X134975600Y-82448400D01*
X135940800Y-46736000D02*
X135940800Y-81483200D01*
X137754326Y-46780604D02*
X137817826Y-46717104D01*
G04 #@! TO.N,Net-(Arduino_Block1-Pad24)*
X120243600Y-105613200D02*
X120243600Y-100837102D01*
X120243600Y-100837102D02*
X120440199Y-100640503D01*
X120243600Y-104411119D02*
X120243600Y-105613200D01*
X120250201Y-104404518D02*
X120243600Y-104411119D01*
X120250201Y-99702499D02*
X120250201Y-104404518D01*
X119684800Y-99137098D02*
X120250201Y-99702499D01*
X119684800Y-78486000D02*
X119684800Y-99137098D01*
G04 #@! TO.N,SDI*
X134823200Y-49276000D02*
X134823200Y-79806800D01*
X137754326Y-49320604D02*
X137817826Y-49257104D01*
G04 #@! TO.N,Net-(Arduino_Block1-Pad22)*
X117703600Y-104411119D02*
X117703600Y-105613200D01*
X117710201Y-104404518D02*
X117703600Y-104411119D01*
X117710201Y-99702499D02*
X117710201Y-104404518D01*
X117151201Y-99143499D02*
X117710201Y-99702499D01*
X117151201Y-77755699D02*
X117151201Y-99143499D01*
X117551200Y-77355700D02*
X117151201Y-77755699D01*
G04 #@! TO.N,SDO*
X133132999Y-52933600D02*
X133132999Y-77128201D01*
X133132999Y-52795001D02*
X133132999Y-52933600D01*
X133146800Y-51765200D02*
X133146800Y-52330885D01*
X133146800Y-52330885D02*
X133132999Y-52344686D01*
X133132999Y-52344686D02*
X133132999Y-52933600D01*
X137805126Y-51809804D02*
X137817826Y-51797104D01*
G04 #@! TO.N,Net-(Arduino_Block1-Pad20)*
X115163600Y-104411119D02*
X115163600Y-105613200D01*
X115170201Y-104404518D02*
X115163600Y-104411119D01*
X115170201Y-99702499D02*
X115170201Y-104404518D01*
X114655600Y-99187898D02*
X115170201Y-99702499D01*
X114655600Y-79658516D02*
X114655600Y-99187898D01*
X115176300Y-79137816D02*
X114655600Y-79658516D01*
X115176300Y-74815700D02*
X115176300Y-79137816D01*
G04 #@! TO.N,CLK*
X134010400Y-54305200D02*
X134010400Y-74828400D01*
X137805126Y-54349804D02*
X137817826Y-54337104D01*
G04 #@! TO.N,Net-(Arduino_Block1-Pad18)*
X112623600Y-104411119D02*
X112623600Y-105613200D01*
X112630201Y-104404518D02*
X112623600Y-104411119D01*
X112630201Y-76402801D02*
X112630201Y-104404518D01*
X112979200Y-76053802D02*
X112630201Y-76402801D01*
X112979200Y-72275700D02*
X112979200Y-76053802D01*
G04 #@! TO.N,Net-(Arduino_Block1-Pad16)*
X110083600Y-104411119D02*
X110083600Y-105613200D01*
X110083600Y-99899098D02*
X110083600Y-104411119D01*
X110426500Y-99556198D02*
X110083600Y-99899098D01*
X110426500Y-69735700D02*
X110426500Y-99556198D01*
G04 #@! TO.N,Net-(Arduino_Block1-Pad14)*
X124249610Y-64370790D02*
X121513600Y-67106800D01*
X124714000Y-42418000D02*
X124249610Y-42882390D01*
X124249610Y-42882390D02*
X124249610Y-64370790D01*
X142468600Y-42418000D02*
X142468600Y-35623500D01*
X142468600Y-35623500D02*
X142494000Y-35598100D01*
G04 #@! TO.N,Net-(Arduino_Block1-Pad12)*
X123799600Y-62230000D02*
X121513600Y-64516000D01*
X124307600Y-41148000D02*
X123799600Y-41656000D01*
X123799600Y-41656000D02*
X123799600Y-62230000D01*
X139928600Y-41173400D02*
X139928600Y-35623500D01*
X139928600Y-35623500D02*
X139954000Y-35598100D01*
G04 #@! TO.N,Net-(Arduino_Block1-Pad10)*
X123349011Y-60191389D02*
X121513600Y-62026800D01*
X124002800Y-39878000D02*
X123349011Y-40531789D01*
X123349011Y-40531789D02*
X123349011Y-60191389D01*
X137388600Y-39878000D02*
X137388600Y-35623500D01*
X137388600Y-35623500D02*
X137414000Y-35598100D01*
G04 #@! TO.N,Net-(Arduino_Block1-Pad8)*
X122899001Y-58050599D02*
X121412000Y-59537600D01*
X123444000Y-39173685D02*
X122899001Y-39718684D01*
X123444000Y-38608000D02*
X123444000Y-39173685D01*
X122899001Y-39718684D02*
X122899001Y-58050599D01*
X134874000Y-35598100D02*
X134874000Y-38506400D01*
X134874000Y-38506400D02*
X134823200Y-38557200D01*
G04 #@! TO.N,Net-(Arduino_Block1-Pad6)*
X122174000Y-42265600D02*
X122174000Y-56997600D01*
X117170200Y-42240200D02*
X117170200Y-35674300D01*
X117170200Y-35674300D02*
X117094000Y-35598100D01*
G04 #@! TO.N,Net-(Arduino_Block1-Pad4)*
X122174000Y-37148100D02*
X121398199Y-37923901D01*
X121398199Y-37923901D02*
X121398199Y-54392999D01*
X122174000Y-35598100D02*
X122174000Y-37148100D01*
G04 #@! TO.N,+5V*
X131368800Y-92202000D02*
X131368800Y-92202000D01*
X143611600Y-92252800D02*
X143611600Y-85394800D01*
X143611600Y-85394800D02*
X144983200Y-84023200D01*
X144983200Y-84023200D02*
X144983200Y-84023200D01*
X120946158Y-81935041D02*
X120946158Y-84382960D01*
X120946158Y-80732960D02*
X120946158Y-81935041D01*
X120946158Y-85585041D02*
X120946158Y-88032960D01*
X120946158Y-84382960D02*
X120946158Y-85585041D01*
X120946158Y-89235041D02*
X120946158Y-91682960D01*
X120946158Y-88032960D02*
X120946158Y-89235041D01*
X120946158Y-92885041D02*
X120946158Y-95332960D01*
X120946158Y-91682960D02*
X120946158Y-92885041D01*
X131114800Y-91948000D02*
X131368800Y-92202000D01*
X131114800Y-51955700D02*
X131114800Y-91948000D01*
G04 #@! TO.N,pH_TX*
X114147600Y-52158900D02*
X113944400Y-51955700D01*
X137502900Y-76403200D02*
X137515600Y-76390500D01*
X114147600Y-76149200D02*
X114147600Y-52158900D01*
G04 #@! TO.N,pH_RX*
X137515600Y-73850500D02*
X137515600Y-70662800D01*
X111404400Y-68357499D02*
X111201200Y-68560699D01*
X111404400Y-51955700D02*
X111404400Y-68357499D01*
G04 #@! TO.N,Net-(AC-L1-Pad1)*
X176174400Y-126520516D02*
X176137176Y-126483292D01*
X176137176Y-126483292D02*
X176137176Y-125383292D01*
D26*
X153111200Y-133807200D02*
X153111200Y-125618897D01*
D25*
X153111200Y-125618897D02*
X153110949Y-125618646D01*
G04 #@! TO.N,Net-(AC-N1-Pad1)*
X171297600Y-125409568D02*
X171311176Y-125395992D01*
G04 #@! TO.N,Net-(LCD1-Pad3)*
X114604800Y-43383200D02*
X114604800Y-35648900D01*
X114604800Y-35648900D02*
X114554000Y-35598100D01*
G04 #@! TO.N,Net-(LCD1-Pad15)*
X145237200Y-35801300D02*
X145034000Y-35598100D01*
X145110200Y-35674300D02*
X145034000Y-35598100D01*
G04 #@! TO.N,Net-(PT100_Input1-Pad4)*
X174143122Y-62484000D02*
X175768000Y-62484000D01*
X159509426Y-47850304D02*
X174143122Y-62484000D01*
G04 #@! TO.N,Net-(A_Buck_9V1-Pad1)*
X142297201Y-110547201D02*
X142297201Y-108108801D01*
X142697200Y-110947200D02*
X142297201Y-110547201D01*
X142297201Y-108108801D02*
X140258800Y-106070400D01*
X140258800Y-106070400D02*
X140208000Y-106019600D01*
G04 #@! TO.N,Net-(Arduino_Block2-Pad4)*
X119024400Y-70967600D02*
X119126000Y-71069200D01*
X119024400Y-51955700D02*
X119024400Y-70967600D01*
X146608800Y-71387801D02*
X146608800Y-77165200D01*
X146608800Y-77165200D02*
X146608800Y-77165200D01*
G04 #@! TO.N,Net-(Arduino_Block2-Pad3)*
X116484400Y-51955700D02*
X116484400Y-73558400D01*
X142849600Y-75025501D02*
X142849600Y-79451200D01*
X142849600Y-79451200D02*
X142849600Y-79451200D01*
G04 #@! TO.N,Net-(Cbst1-Pad1)*
X146405600Y-107841515D02*
X146405600Y-108407200D01*
D27*
X146405600Y-106266715D02*
X146405600Y-107841515D01*
X143974085Y-103835200D02*
X146405600Y-106266715D01*
D25*
X143408400Y-103835200D02*
X143974085Y-103835200D01*
D27*
X146405600Y-108407200D02*
X147574000Y-108407200D01*
X147574000Y-108407200D02*
X148793200Y-108407200D01*
X148793200Y-108407200D02*
X148793200Y-109524800D01*
X148793200Y-109524800D02*
X147574000Y-109524800D01*
X147574000Y-109524800D02*
X146405600Y-109524800D01*
X146405600Y-109524800D02*
X146405600Y-108407200D01*
D25*
G04 #@! TO.N,Net-(Cout1-Pad1)*
X156260800Y-98196400D02*
X156260800Y-98196400D01*
D28*
X156260800Y-98196400D02*
X144221200Y-98196400D01*
X144221200Y-98196400D02*
X137617200Y-104800400D01*
X136448800Y-105968800D02*
X136448800Y-108712000D01*
X137617200Y-104800400D02*
X136448800Y-105968800D01*
D25*
G04 #@! TO.N,Net-(C2-Pad2)*
X118406158Y-89235041D02*
X118414800Y-89712800D01*
X118406158Y-88032960D02*
X118406158Y-89235041D01*
X118414800Y-89243683D02*
X118414800Y-89712800D01*
X118414800Y-89712800D02*
X118414800Y-89243683D01*
X108248999Y-88995799D02*
X108248999Y-41407801D01*
X108966000Y-89712800D02*
X108248999Y-88995799D01*
X108248999Y-41407801D02*
X108248999Y-41407801D01*
G04 #@! TO.N,Net-(C3-Pad2)*
X154076400Y-67176115D02*
X154076400Y-44805600D01*
X154076400Y-67741800D02*
X154076400Y-67176115D01*
X118406158Y-81935041D02*
X118414800Y-82448400D01*
X118406158Y-80732960D02*
X118406158Y-81935041D01*
X118414800Y-81943683D02*
X118414800Y-82448400D01*
X118414800Y-82448400D02*
X118414800Y-81943683D01*
X140157200Y-67868800D02*
X140258800Y-67767200D01*
X140157200Y-80105501D02*
X140157200Y-67868800D01*
G04 #@! TO.N,Net-(C4-Pad1)*
X118406158Y-85585041D02*
X118414800Y-86055200D01*
X118406158Y-84382960D02*
X118406158Y-85585041D01*
X118414800Y-85593683D02*
X118414800Y-86055200D01*
X118414800Y-86055200D02*
X118414800Y-85593683D01*
X145708201Y-41822201D02*
X145484799Y-41598799D01*
X145484799Y-41598799D02*
X145084800Y-41198800D01*
X145708201Y-84371201D02*
X145708201Y-41822201D01*
X144830800Y-85248602D02*
X145708201Y-84371201D01*
X144830800Y-86309200D02*
X144830800Y-85248602D01*
G04 #@! TO.N,Net-(C5-Pad2)*
X137668000Y-62179200D02*
X137871200Y-61976000D01*
X137718800Y-62128400D02*
X137871200Y-61976000D01*
X118406158Y-96535041D02*
X118262400Y-97078800D01*
X118406158Y-95332960D02*
X118406158Y-96535041D01*
X118262400Y-96678799D02*
X118262400Y-97078800D01*
X118262400Y-97078800D02*
X118262400Y-96678799D01*
X141949001Y-96404599D02*
X141949001Y-63666201D01*
X141274800Y-97078800D02*
X141949001Y-96404599D01*
X141949001Y-63666201D02*
X141949001Y-63666201D01*
G04 #@! TO.N,Net-(C8-Pad2)*
X118406158Y-92885041D02*
X118414800Y-92893683D01*
X118406158Y-91682960D02*
X118406158Y-92885041D01*
X118414800Y-92893683D02*
X118414800Y-93421200D01*
X118414800Y-93421200D02*
X118414800Y-93421200D01*
X154533600Y-95402400D02*
X154533600Y-94836715D01*
X154533600Y-94836715D02*
X154533600Y-82194400D01*
X154533600Y-82194400D02*
X154533600Y-82143600D01*
G04 #@! TO.N,Buck_5V*
X165354000Y-92252800D02*
X165354000Y-99364800D01*
X165354000Y-99364800D02*
X165303200Y-99415600D01*
X161640595Y-99430373D02*
X161621076Y-99449892D01*
X115866158Y-81832960D02*
X115866158Y-84382960D01*
X115866158Y-80732960D02*
X115866158Y-81832960D01*
X115866158Y-85482960D02*
X115866158Y-88032960D01*
X115866158Y-84382960D02*
X115866158Y-85482960D01*
X115866158Y-89132960D02*
X115866158Y-91682960D01*
X115866158Y-88032960D02*
X115866158Y-89132960D01*
X115866158Y-91682960D02*
X115866158Y-95332960D01*
X115866158Y-96432960D02*
X115874800Y-96441602D01*
X115866158Y-95332960D02*
X115866158Y-96432960D01*
X115874800Y-96441602D02*
X115874800Y-98196400D01*
X115874800Y-98196400D02*
X115874800Y-98196400D01*
X144177285Y-97231200D02*
X144888485Y-96520000D01*
X143611600Y-97231200D02*
X144177285Y-97231200D01*
X144888485Y-96520000D02*
X156108400Y-96520000D01*
X156108400Y-96520000D02*
X156108400Y-96520000D01*
X161621076Y-97917876D02*
X161621076Y-99449892D01*
X160731200Y-97028000D02*
X161621076Y-97917876D01*
G04 #@! TD*
D29*
G04 #@! TO.N,GND*
G36*
X181025122Y-34970922D02*
X180783966Y-34388720D01*
X180183380Y-33788134D01*
X179398678Y-33463100D01*
X178549322Y-33463100D01*
X177764620Y-33788134D01*
X177164034Y-34388720D01*
X176839000Y-35173422D01*
X176839000Y-36022778D01*
X177164034Y-36807480D01*
X177764620Y-37408066D01*
X178549322Y-37733100D01*
X179398678Y-37733100D01*
X180183380Y-37408066D01*
X180783966Y-36807480D01*
X181024004Y-36227978D01*
X181006533Y-55864340D01*
X180918865Y-55733135D01*
X180344963Y-55349666D01*
X179668000Y-55215010D01*
X178991038Y-55349666D01*
X178417136Y-55733135D01*
X178033667Y-56307037D01*
X177933001Y-56813120D01*
X177933000Y-58954879D01*
X178033666Y-59460962D01*
X178417135Y-60034865D01*
X178991037Y-60418334D01*
X179668000Y-60552990D01*
X180344962Y-60418334D01*
X180918865Y-60034865D01*
X181002935Y-59909045D01*
X180997599Y-65906432D01*
X180783446Y-65389420D01*
X180182860Y-64788834D01*
X179398158Y-64463800D01*
X178548802Y-64463800D01*
X177764100Y-64788834D01*
X177163514Y-65389420D01*
X176838480Y-66174122D01*
X176838480Y-67023478D01*
X177163514Y-67808180D01*
X177764100Y-68408766D01*
X178548802Y-68733800D01*
X179398158Y-68733800D01*
X180182860Y-68408766D01*
X180783446Y-67808180D01*
X180996365Y-67294149D01*
X180926454Y-145873301D01*
X107719146Y-145823499D01*
X107716458Y-142802557D01*
X150779400Y-142802557D01*
X150779400Y-143811043D01*
X151165330Y-144742762D01*
X151878438Y-145455870D01*
X152810157Y-145841800D01*
X153818643Y-145841800D01*
X154750362Y-145455870D01*
X155463470Y-144742762D01*
X155849400Y-143811043D01*
X155849400Y-142802557D01*
X162565000Y-142802557D01*
X162565000Y-143811043D01*
X162950930Y-144742762D01*
X163664038Y-145455870D01*
X164595757Y-145841800D01*
X165604243Y-145841800D01*
X166535962Y-145455870D01*
X167249070Y-144742762D01*
X167635000Y-143811043D01*
X167635000Y-142802557D01*
X167249070Y-141870838D01*
X166535962Y-141157730D01*
X165604243Y-140771800D01*
X164595757Y-140771800D01*
X163664038Y-141157730D01*
X162950930Y-141870838D01*
X162565000Y-142802557D01*
X155849400Y-142802557D01*
X155463470Y-141870838D01*
X154750362Y-141157730D01*
X153818643Y-140771800D01*
X152810157Y-140771800D01*
X151878438Y-141157730D01*
X151165330Y-141870838D01*
X150779400Y-142802557D01*
X107716458Y-142802557D01*
X107708074Y-133383594D01*
X111711800Y-133383594D01*
X111711800Y-134332406D01*
X112074895Y-135208994D01*
X112745806Y-135879905D01*
X113622394Y-136243000D01*
X114571206Y-136243000D01*
X115447794Y-135879905D01*
X115775171Y-135552528D01*
X119541477Y-135552528D01*
X119731764Y-135897271D01*
X120612991Y-136248956D01*
X121561723Y-136236641D01*
X122381036Y-135897271D01*
X122571323Y-135552528D01*
X121056400Y-134037605D01*
X119541477Y-135552528D01*
X115775171Y-135552528D01*
X116118705Y-135208994D01*
X116481800Y-134332406D01*
X116481800Y-133414591D01*
X118665444Y-133414591D01*
X118677759Y-134363323D01*
X119017129Y-135182636D01*
X119361872Y-135372923D01*
X120876795Y-133858000D01*
X121236005Y-133858000D01*
X122750928Y-135372923D01*
X123095671Y-135182636D01*
X123447356Y-134301409D01*
X123435443Y-133383594D01*
X125681800Y-133383594D01*
X125681800Y-134332406D01*
X126044895Y-135208994D01*
X126715806Y-135879905D01*
X127592394Y-136243000D01*
X128541206Y-136243000D01*
X129417794Y-135879905D01*
X130088705Y-135208994D01*
X130451800Y-134332406D01*
X130451800Y-133383594D01*
X130088705Y-132507006D01*
X129417794Y-131836095D01*
X128541206Y-131473000D01*
X127592394Y-131473000D01*
X126715806Y-131836095D01*
X126044895Y-132507006D01*
X125681800Y-133383594D01*
X123435443Y-133383594D01*
X123435041Y-133352677D01*
X123095671Y-132533364D01*
X122750928Y-132343077D01*
X121236005Y-133858000D01*
X120876795Y-133858000D01*
X119361872Y-132343077D01*
X119017129Y-132533364D01*
X118665444Y-133414591D01*
X116481800Y-133414591D01*
X116481800Y-133383594D01*
X116118705Y-132507006D01*
X115775171Y-132163472D01*
X119541477Y-132163472D01*
X121056400Y-133678395D01*
X122571323Y-132163472D01*
X122381036Y-131818729D01*
X121499809Y-131467044D01*
X120551077Y-131479359D01*
X119731764Y-131818729D01*
X119541477Y-132163472D01*
X115775171Y-132163472D01*
X115447794Y-131836095D01*
X114571206Y-131473000D01*
X113622394Y-131473000D01*
X112745806Y-131836095D01*
X112074895Y-132507006D01*
X111711800Y-133383594D01*
X107708074Y-133383594D01*
X107700373Y-124730546D01*
X146762109Y-124730546D01*
X146762109Y-126430546D01*
X146811392Y-126678311D01*
X146951740Y-126888355D01*
X147161784Y-127028703D01*
X147409549Y-127077986D01*
X149109549Y-127077986D01*
X149357314Y-127028703D01*
X149567358Y-126888355D01*
X149707706Y-126678311D01*
X149756989Y-126430546D01*
X149756989Y-124768646D01*
X151613509Y-124768646D01*
X151613509Y-126468646D01*
X151662792Y-126716411D01*
X151803140Y-126926455D01*
X151976201Y-127042091D01*
X151976200Y-133918982D01*
X152042054Y-134250054D01*
X152292911Y-134625489D01*
X152668345Y-134876346D01*
X153111200Y-134964435D01*
X153554054Y-134876346D01*
X153929489Y-134625489D01*
X154180346Y-134250055D01*
X154246200Y-133918983D01*
X154246200Y-127041755D01*
X154418758Y-126926455D01*
X154559106Y-126716411D01*
X154608389Y-126468646D01*
X154608389Y-124768646D01*
X154564101Y-124545992D01*
X169813736Y-124545992D01*
X169813736Y-126245992D01*
X169863019Y-126493757D01*
X170003367Y-126703801D01*
X170213411Y-126844149D01*
X170461176Y-126893432D01*
X172161176Y-126893432D01*
X172408941Y-126844149D01*
X172618985Y-126703801D01*
X172759333Y-126493757D01*
X172808616Y-126245992D01*
X172808616Y-124545992D01*
X172806090Y-124533292D01*
X174639736Y-124533292D01*
X174639736Y-126233292D01*
X174689019Y-126481057D01*
X174829367Y-126691101D01*
X175039411Y-126831449D01*
X175287176Y-126880732D01*
X175488694Y-126880732D01*
X175589247Y-127031221D01*
X175652706Y-127073623D01*
X175689928Y-127110845D01*
X175877863Y-127236420D01*
X176174400Y-127295404D01*
X176470937Y-127236420D01*
X176722329Y-127068445D01*
X176847755Y-126880732D01*
X176987176Y-126880732D01*
X177234941Y-126831449D01*
X177444985Y-126691101D01*
X177585333Y-126481057D01*
X177634616Y-126233292D01*
X177634616Y-124533292D01*
X177585333Y-124285527D01*
X177444985Y-124075483D01*
X177234941Y-123935135D01*
X176987176Y-123885852D01*
X175287176Y-123885852D01*
X175039411Y-123935135D01*
X174829367Y-124075483D01*
X174689019Y-124285527D01*
X174639736Y-124533292D01*
X172806090Y-124533292D01*
X172759333Y-124298227D01*
X172618985Y-124088183D01*
X172408941Y-123947835D01*
X172161176Y-123898552D01*
X170461176Y-123898552D01*
X170213411Y-123947835D01*
X170003367Y-124088183D01*
X169863019Y-124298227D01*
X169813736Y-124545992D01*
X154564101Y-124545992D01*
X154559106Y-124520881D01*
X154418758Y-124310837D01*
X154208714Y-124170489D01*
X153960949Y-124121206D01*
X152260949Y-124121206D01*
X152013184Y-124170489D01*
X151803140Y-124310837D01*
X151662792Y-124520881D01*
X151613509Y-124768646D01*
X149756989Y-124768646D01*
X149756989Y-124730546D01*
X149707706Y-124482781D01*
X149567358Y-124272737D01*
X149357314Y-124132389D01*
X149109549Y-124083106D01*
X147409549Y-124083106D01*
X147161784Y-124132389D01*
X146951740Y-124272737D01*
X146811392Y-124482781D01*
X146762109Y-124730546D01*
X107700373Y-124730546D01*
X107693225Y-116700120D01*
X109859485Y-116700120D01*
X109988733Y-116992923D01*
X110689006Y-117261188D01*
X111438635Y-117241050D01*
X112037667Y-116992923D01*
X112166915Y-116700120D01*
X111013200Y-115546405D01*
X109859485Y-116700120D01*
X107693225Y-116700120D01*
X107691749Y-115042606D01*
X109118812Y-115042606D01*
X109138950Y-115792235D01*
X109387077Y-116391267D01*
X109679880Y-116520515D01*
X110833595Y-115366800D01*
X111192805Y-115366800D01*
X112346520Y-116520515D01*
X112639323Y-116391267D01*
X112907588Y-115690994D01*
X112888807Y-114991850D01*
X114128200Y-114991850D01*
X114128200Y-115741750D01*
X114415174Y-116434567D01*
X114945433Y-116964826D01*
X115638250Y-117251800D01*
X116388150Y-117251800D01*
X117080967Y-116964826D01*
X117345673Y-116700120D01*
X119859485Y-116700120D01*
X119988733Y-116992923D01*
X120689006Y-117261188D01*
X121438635Y-117241050D01*
X122037667Y-116992923D01*
X122166915Y-116700120D01*
X121013200Y-115546405D01*
X119859485Y-116700120D01*
X117345673Y-116700120D01*
X117611226Y-116434567D01*
X117898200Y-115741750D01*
X117898200Y-115042606D01*
X119118812Y-115042606D01*
X119138950Y-115792235D01*
X119387077Y-116391267D01*
X119679880Y-116520515D01*
X120833595Y-115366800D01*
X121192805Y-115366800D01*
X122346520Y-116520515D01*
X122639323Y-116391267D01*
X122907588Y-115690994D01*
X122888807Y-114991850D01*
X124128200Y-114991850D01*
X124128200Y-115741750D01*
X124415174Y-116434567D01*
X124945433Y-116964826D01*
X125638250Y-117251800D01*
X126388150Y-117251800D01*
X127080967Y-116964826D01*
X127611226Y-116434567D01*
X127898200Y-115741750D01*
X127898200Y-114991850D01*
X127611226Y-114299033D01*
X127428993Y-114116800D01*
X129115760Y-114116800D01*
X129115760Y-116616800D01*
X129165043Y-116864565D01*
X129305391Y-117074609D01*
X129515435Y-117214957D01*
X129763200Y-117264240D01*
X132263200Y-117264240D01*
X132510965Y-117214957D01*
X132721009Y-117074609D01*
X132861357Y-116864565D01*
X132910640Y-116616800D01*
X132910640Y-114116800D01*
X132861357Y-113869035D01*
X132721009Y-113658991D01*
X132510965Y-113518643D01*
X132263200Y-113469360D01*
X129763200Y-113469360D01*
X129515435Y-113518643D01*
X129305391Y-113658991D01*
X129165043Y-113869035D01*
X129115760Y-114116800D01*
X127428993Y-114116800D01*
X127080967Y-113768774D01*
X126388150Y-113481800D01*
X125638250Y-113481800D01*
X124945433Y-113768774D01*
X124415174Y-114299033D01*
X124128200Y-114991850D01*
X122888807Y-114991850D01*
X122887450Y-114941365D01*
X122639323Y-114342333D01*
X122346520Y-114213085D01*
X121192805Y-115366800D01*
X120833595Y-115366800D01*
X119679880Y-114213085D01*
X119387077Y-114342333D01*
X119118812Y-115042606D01*
X117898200Y-115042606D01*
X117898200Y-114991850D01*
X117611226Y-114299033D01*
X117345673Y-114033480D01*
X119859485Y-114033480D01*
X121013200Y-115187195D01*
X122166915Y-114033480D01*
X122037667Y-113740677D01*
X121337394Y-113472412D01*
X120587765Y-113492550D01*
X119988733Y-113740677D01*
X119859485Y-114033480D01*
X117345673Y-114033480D01*
X117080967Y-113768774D01*
X116388150Y-113481800D01*
X115638250Y-113481800D01*
X114945433Y-113768774D01*
X114415174Y-114299033D01*
X114128200Y-114991850D01*
X112888807Y-114991850D01*
X112887450Y-114941365D01*
X112639323Y-114342333D01*
X112346520Y-114213085D01*
X111192805Y-115366800D01*
X110833595Y-115366800D01*
X109679880Y-114213085D01*
X109387077Y-114342333D01*
X109118812Y-115042606D01*
X107691749Y-115042606D01*
X107690851Y-114033480D01*
X109859485Y-114033480D01*
X111013200Y-115187195D01*
X112166915Y-114033480D01*
X112037667Y-113740677D01*
X111337394Y-113472412D01*
X110587765Y-113492550D01*
X109988733Y-113740677D01*
X109859485Y-114033480D01*
X107690851Y-114033480D01*
X107685932Y-108506126D01*
X135413800Y-108506126D01*
X135413800Y-108917874D01*
X135571369Y-109298280D01*
X135862520Y-109589431D01*
X136242926Y-109747000D01*
X136654674Y-109747000D01*
X137035080Y-109589431D01*
X137326231Y-109298280D01*
X137483800Y-108917874D01*
X137483800Y-108506126D01*
X137333800Y-108143993D01*
X137333800Y-106335378D01*
X137804652Y-105864526D01*
X139223800Y-105864526D01*
X139223800Y-106276274D01*
X139381369Y-106656680D01*
X139672520Y-106947831D01*
X140052926Y-107105400D01*
X140218998Y-107105400D01*
X141537202Y-108423605D01*
X141537201Y-110472354D01*
X141522313Y-110547201D01*
X141537201Y-110622048D01*
X141537201Y-110622052D01*
X141581297Y-110843737D01*
X141662200Y-110964817D01*
X141662200Y-111153074D01*
X141819769Y-111533480D01*
X142110920Y-111824631D01*
X142491326Y-111982200D01*
X142903074Y-111982200D01*
X143283480Y-111824631D01*
X143574631Y-111533480D01*
X143732200Y-111153074D01*
X143732200Y-110741326D01*
X143574631Y-110360920D01*
X143283480Y-110069769D01*
X143057201Y-109976041D01*
X143057201Y-108183647D01*
X143072089Y-108108800D01*
X143057201Y-108033953D01*
X143057201Y-108033949D01*
X143013105Y-107812264D01*
X142971303Y-107749703D01*
X142887530Y-107624327D01*
X142887528Y-107624325D01*
X142845130Y-107560872D01*
X142781677Y-107518474D01*
X141293800Y-106030598D01*
X141293800Y-105864526D01*
X141136231Y-105484120D01*
X140845080Y-105192969D01*
X140464674Y-105035400D01*
X140052926Y-105035400D01*
X139672520Y-105192969D01*
X139381369Y-105484120D01*
X139223800Y-105864526D01*
X137804652Y-105864526D01*
X138304624Y-105364555D01*
X138304626Y-105364552D01*
X139833978Y-103835200D01*
X142307054Y-103835200D01*
X142433950Y-104473145D01*
X142440598Y-104483095D01*
X142373400Y-104645326D01*
X142373400Y-105057074D01*
X142530969Y-105437480D01*
X142822120Y-105728631D01*
X143202526Y-105886200D01*
X143614274Y-105886200D01*
X143683975Y-105857329D01*
X144770600Y-106943954D01*
X144770600Y-108002546D01*
X144794830Y-108124357D01*
X144738569Y-108407200D01*
X144770600Y-108568231D01*
X144770600Y-109363769D01*
X144738569Y-109524800D01*
X144865464Y-110162745D01*
X145122349Y-110547201D01*
X145226831Y-110703569D01*
X145767655Y-111064936D01*
X146405600Y-111191831D01*
X146566631Y-111159800D01*
X148632169Y-111159800D01*
X148793200Y-111191831D01*
X149431145Y-111064936D01*
X149971969Y-110703569D01*
X150333336Y-110162745D01*
X150428200Y-109685831D01*
X150428200Y-109685830D01*
X150460231Y-109524800D01*
X150428200Y-109363769D01*
X150428200Y-108568231D01*
X150460231Y-108407200D01*
X150333336Y-107769255D01*
X149971969Y-107228431D01*
X149431145Y-106867064D01*
X148954231Y-106772200D01*
X148793200Y-106740169D01*
X148632169Y-106772200D01*
X148040600Y-106772200D01*
X148040600Y-106427740D01*
X148072630Y-106266714D01*
X148040600Y-106105688D01*
X148040600Y-106105684D01*
X147945736Y-105628770D01*
X147584369Y-105087946D01*
X147447853Y-104996729D01*
X145016338Y-102565215D01*
X144612030Y-102295065D01*
X143974085Y-102168169D01*
X143336140Y-102295065D01*
X142795317Y-102656432D01*
X142433950Y-103197255D01*
X142307054Y-103835200D01*
X139833978Y-103835200D01*
X143723582Y-99945596D01*
X146838049Y-99945596D01*
X146838049Y-100636156D01*
X146934722Y-100869545D01*
X147113351Y-101048173D01*
X147346740Y-101144846D01*
X148037299Y-101144846D01*
X148196049Y-100986096D01*
X148196049Y-99786846D01*
X148450049Y-99786846D01*
X148450049Y-100986096D01*
X148608799Y-101144846D01*
X149299358Y-101144846D01*
X149532747Y-101048173D01*
X149711376Y-100869545D01*
X149808049Y-100636156D01*
X149808049Y-99945596D01*
X149649299Y-99786846D01*
X148450049Y-99786846D01*
X148196049Y-99786846D01*
X146996799Y-99786846D01*
X146838049Y-99945596D01*
X143723582Y-99945596D01*
X144587779Y-99081400D01*
X146838049Y-99081400D01*
X146838049Y-99374096D01*
X146996799Y-99532846D01*
X148196049Y-99532846D01*
X148196049Y-99512846D01*
X148450049Y-99512846D01*
X148450049Y-99532846D01*
X149649299Y-99532846D01*
X149808049Y-99374096D01*
X149808049Y-99081400D01*
X155692793Y-99081400D01*
X156054926Y-99231400D01*
X156466674Y-99231400D01*
X156847080Y-99073831D01*
X157138231Y-98782680D01*
X157295800Y-98402274D01*
X157295800Y-97990526D01*
X157138231Y-97610120D01*
X156847080Y-97318969D01*
X156794798Y-97297313D01*
X156985831Y-97106280D01*
X157103531Y-96822126D01*
X159696200Y-96822126D01*
X159696200Y-97233874D01*
X159853769Y-97614280D01*
X160144920Y-97905431D01*
X160467481Y-98039040D01*
X160313267Y-98142083D01*
X160172919Y-98352127D01*
X160123636Y-98599892D01*
X160123636Y-100299892D01*
X160172919Y-100547657D01*
X160313267Y-100757701D01*
X160523311Y-100898049D01*
X160771076Y-100947332D01*
X162471076Y-100947332D01*
X162718841Y-100898049D01*
X162928885Y-100757701D01*
X163069233Y-100547657D01*
X163118516Y-100299892D01*
X163118516Y-98599892D01*
X163069233Y-98352127D01*
X162928885Y-98142083D01*
X162718841Y-98001735D01*
X162471076Y-97952452D01*
X162389087Y-97952452D01*
X162395964Y-97917876D01*
X162381076Y-97843028D01*
X162381076Y-97843024D01*
X162336980Y-97621339D01*
X162336980Y-97621338D01*
X162211405Y-97433403D01*
X162169005Y-97369947D01*
X162105549Y-97327547D01*
X161766200Y-96988198D01*
X161766200Y-96822126D01*
X161608631Y-96441720D01*
X161317480Y-96150569D01*
X160937074Y-95993000D01*
X160525326Y-95993000D01*
X160144920Y-96150569D01*
X159853769Y-96441720D01*
X159696200Y-96822126D01*
X157103531Y-96822126D01*
X157143400Y-96725874D01*
X157143400Y-96314126D01*
X156985831Y-95933720D01*
X156694680Y-95642569D01*
X156314274Y-95485000D01*
X155902526Y-95485000D01*
X155561079Y-95626432D01*
X155568600Y-95608274D01*
X155568600Y-95196526D01*
X155411031Y-94816120D01*
X155293600Y-94698689D01*
X155293600Y-92538550D01*
X158789000Y-92538550D01*
X158789000Y-93229109D01*
X158885673Y-93462498D01*
X159064301Y-93641127D01*
X159297690Y-93737800D01*
X159988250Y-93737800D01*
X160147000Y-93579050D01*
X160147000Y-92379800D01*
X158947750Y-92379800D01*
X158789000Y-92538550D01*
X155293600Y-92538550D01*
X155293600Y-91276491D01*
X158789000Y-91276491D01*
X158789000Y-91967050D01*
X158947750Y-92125800D01*
X160147000Y-92125800D01*
X160147000Y-90926550D01*
X160401000Y-90926550D01*
X160401000Y-92125800D01*
X160421000Y-92125800D01*
X160421000Y-92379800D01*
X160401000Y-92379800D01*
X160401000Y-93579050D01*
X160559750Y-93737800D01*
X161250310Y-93737800D01*
X161483699Y-93641127D01*
X161662327Y-93462498D01*
X161728904Y-93301767D01*
X161743375Y-93323425D01*
X162234582Y-93651639D01*
X162667744Y-93737800D01*
X162960256Y-93737800D01*
X163393418Y-93651639D01*
X163884625Y-93323425D01*
X164084000Y-93025039D01*
X164283375Y-93323425D01*
X164594000Y-93530978D01*
X164594001Y-98661088D01*
X164425769Y-98829320D01*
X164268200Y-99209726D01*
X164268200Y-99621474D01*
X164425769Y-100001880D01*
X164716920Y-100293031D01*
X165097326Y-100450600D01*
X165509074Y-100450600D01*
X165889480Y-100293031D01*
X166180631Y-100001880D01*
X166311952Y-99684842D01*
X169915076Y-99684842D01*
X169915076Y-100375402D01*
X170011749Y-100608791D01*
X170190378Y-100787419D01*
X170423767Y-100884092D01*
X171114326Y-100884092D01*
X171273076Y-100725342D01*
X171273076Y-99526092D01*
X171527076Y-99526092D01*
X171527076Y-100725342D01*
X171685826Y-100884092D01*
X172376385Y-100884092D01*
X172609774Y-100787419D01*
X172788403Y-100608791D01*
X172885076Y-100375402D01*
X172885076Y-99684842D01*
X172726326Y-99526092D01*
X171527076Y-99526092D01*
X171273076Y-99526092D01*
X170073826Y-99526092D01*
X169915076Y-99684842D01*
X166311952Y-99684842D01*
X166338200Y-99621474D01*
X166338200Y-99209726D01*
X166180631Y-98829320D01*
X166114000Y-98762689D01*
X166114000Y-98422782D01*
X169915076Y-98422782D01*
X169915076Y-99113342D01*
X170073826Y-99272092D01*
X171273076Y-99272092D01*
X171273076Y-98072842D01*
X171527076Y-98072842D01*
X171527076Y-99272092D01*
X172726326Y-99272092D01*
X172885076Y-99113342D01*
X172885076Y-98422782D01*
X172788403Y-98189393D01*
X172609774Y-98010765D01*
X172376385Y-97914092D01*
X171685826Y-97914092D01*
X171527076Y-98072842D01*
X171273076Y-98072842D01*
X171114326Y-97914092D01*
X170423767Y-97914092D01*
X170190378Y-98010765D01*
X170011749Y-98189393D01*
X169915076Y-98422782D01*
X166114000Y-98422782D01*
X166114000Y-93530978D01*
X166424625Y-93323425D01*
X166752839Y-92832218D01*
X166868092Y-92252800D01*
X166752839Y-91673382D01*
X166424625Y-91182175D01*
X165933418Y-90853961D01*
X165500256Y-90767800D01*
X165207744Y-90767800D01*
X164774582Y-90853961D01*
X164283375Y-91182175D01*
X164084000Y-91480561D01*
X163884625Y-91182175D01*
X163393418Y-90853961D01*
X162960256Y-90767800D01*
X162667744Y-90767800D01*
X162234582Y-90853961D01*
X161743375Y-91182175D01*
X161728904Y-91203833D01*
X161662327Y-91043102D01*
X161483699Y-90864473D01*
X161250310Y-90767800D01*
X160559750Y-90767800D01*
X160401000Y-90926550D01*
X160147000Y-90926550D01*
X159988250Y-90767800D01*
X159297690Y-90767800D01*
X159064301Y-90864473D01*
X158885673Y-91043102D01*
X158789000Y-91276491D01*
X155293600Y-91276491D01*
X155293600Y-82898111D01*
X155411031Y-82780680D01*
X155568600Y-82400274D01*
X155568600Y-81988526D01*
X155411031Y-81608120D01*
X155119880Y-81316969D01*
X154739474Y-81159400D01*
X154327726Y-81159400D01*
X153947320Y-81316969D01*
X153656169Y-81608120D01*
X153498600Y-81988526D01*
X153498600Y-82400274D01*
X153656169Y-82780680D01*
X153773601Y-82898112D01*
X153773600Y-94698689D01*
X153656169Y-94816120D01*
X153498600Y-95196526D01*
X153498600Y-95608274D01*
X153561447Y-95760000D01*
X144963333Y-95760000D01*
X144888485Y-95745112D01*
X144813637Y-95760000D01*
X144813633Y-95760000D01*
X144640090Y-95794520D01*
X144591947Y-95804096D01*
X144442566Y-95903910D01*
X144340556Y-95972071D01*
X144298156Y-96035527D01*
X144043755Y-96289928D01*
X143817474Y-96196200D01*
X143405726Y-96196200D01*
X143025320Y-96353769D01*
X142734169Y-96644920D01*
X142576600Y-97025326D01*
X142576600Y-97437074D01*
X142734169Y-97817480D01*
X143025320Y-98108631D01*
X143047997Y-98118024D01*
X137053048Y-104112974D01*
X137053045Y-104112976D01*
X135884647Y-105281375D01*
X135810751Y-105330751D01*
X135615148Y-105623491D01*
X135563800Y-105881636D01*
X135563800Y-105881639D01*
X135546463Y-105968800D01*
X135563800Y-106055961D01*
X135563801Y-108143991D01*
X135413800Y-108506126D01*
X107685932Y-108506126D01*
X107669010Y-89495747D01*
X107701070Y-89543728D01*
X107764529Y-89586130D01*
X107931000Y-89752601D01*
X107931000Y-89918674D01*
X108088569Y-90299080D01*
X108379720Y-90590231D01*
X108760126Y-90747800D01*
X109171874Y-90747800D01*
X109552280Y-90590231D01*
X109666501Y-90476010D01*
X109666501Y-99241396D01*
X109599130Y-99308767D01*
X109535671Y-99351169D01*
X109367696Y-99602562D01*
X109323600Y-99824247D01*
X109323600Y-99824251D01*
X109308712Y-99899098D01*
X109323600Y-99973945D01*
X109323601Y-104335021D01*
X109012975Y-104542575D01*
X108684761Y-105033782D01*
X108569508Y-105613200D01*
X108684761Y-106192618D01*
X109012975Y-106683825D01*
X109504182Y-107012039D01*
X109937344Y-107098200D01*
X110229856Y-107098200D01*
X110663018Y-107012039D01*
X111154225Y-106683825D01*
X111353600Y-106385439D01*
X111552975Y-106683825D01*
X112044182Y-107012039D01*
X112477344Y-107098200D01*
X112769856Y-107098200D01*
X113203018Y-107012039D01*
X113694225Y-106683825D01*
X113893600Y-106385439D01*
X114092975Y-106683825D01*
X114584182Y-107012039D01*
X115017344Y-107098200D01*
X115309856Y-107098200D01*
X115743018Y-107012039D01*
X116234225Y-106683825D01*
X116433600Y-106385439D01*
X116632975Y-106683825D01*
X117124182Y-107012039D01*
X117557344Y-107098200D01*
X117849856Y-107098200D01*
X118283018Y-107012039D01*
X118774225Y-106683825D01*
X118973600Y-106385439D01*
X119172975Y-106683825D01*
X119664182Y-107012039D01*
X120097344Y-107098200D01*
X120389856Y-107098200D01*
X120823018Y-107012039D01*
X121314225Y-106683825D01*
X121513600Y-106385439D01*
X121712975Y-106683825D01*
X122204182Y-107012039D01*
X122637344Y-107098200D01*
X122929856Y-107098200D01*
X123363018Y-107012039D01*
X123854225Y-106683825D01*
X124053600Y-106385439D01*
X124252975Y-106683825D01*
X124744182Y-107012039D01*
X125177344Y-107098200D01*
X125469856Y-107098200D01*
X125903018Y-107012039D01*
X126394225Y-106683825D01*
X126406416Y-106665581D01*
X126415443Y-106710965D01*
X126555791Y-106921009D01*
X126765835Y-107061357D01*
X127013600Y-107110640D01*
X128713600Y-107110640D01*
X128961365Y-107061357D01*
X129171409Y-106921009D01*
X129311757Y-106710965D01*
X129361040Y-106463200D01*
X129361040Y-104763200D01*
X129311757Y-104515435D01*
X129171409Y-104305391D01*
X128961365Y-104165043D01*
X128713600Y-104115760D01*
X128623600Y-104115760D01*
X128623600Y-98768800D01*
X137084960Y-98768800D01*
X137084960Y-100468800D01*
X137134243Y-100716565D01*
X137274591Y-100926609D01*
X137484635Y-101066957D01*
X137732400Y-101116240D01*
X139432400Y-101116240D01*
X139680165Y-101066957D01*
X139890209Y-100926609D01*
X140030557Y-100716565D01*
X140079840Y-100468800D01*
X140079840Y-98768800D01*
X140030557Y-98521035D01*
X139890209Y-98310991D01*
X139680165Y-98170643D01*
X139432400Y-98121360D01*
X137732400Y-98121360D01*
X137484635Y-98170643D01*
X137274591Y-98310991D01*
X137134243Y-98521035D01*
X137084960Y-98768800D01*
X128623600Y-98768800D01*
X128623600Y-96457568D01*
X128878308Y-96577186D01*
X129108200Y-96456519D01*
X129108200Y-95262700D01*
X129362200Y-95262700D01*
X129362200Y-96456519D01*
X129592092Y-96577186D01*
X130116558Y-96330883D01*
X130506845Y-95902624D01*
X130676676Y-95492590D01*
X130555355Y-95262700D01*
X129362200Y-95262700D01*
X129108200Y-95262700D01*
X129088200Y-95262700D01*
X129088200Y-95008700D01*
X129108200Y-95008700D01*
X129108200Y-94988700D01*
X129362200Y-94988700D01*
X129362200Y-95008700D01*
X130555355Y-95008700D01*
X130676676Y-94778810D01*
X130506845Y-94368776D01*
X130116558Y-93940517D01*
X129986722Y-93879543D01*
X130305825Y-93666325D01*
X130634039Y-93175118D01*
X130674549Y-92971460D01*
X130782520Y-93079431D01*
X131162926Y-93237000D01*
X131574674Y-93237000D01*
X131955080Y-93079431D01*
X132246231Y-92788280D01*
X132403800Y-92407874D01*
X132403800Y-91996126D01*
X132246231Y-91615720D01*
X131955080Y-91324569D01*
X131874800Y-91291316D01*
X131874800Y-52659411D01*
X131992231Y-52541980D01*
X132149800Y-52161574D01*
X132149800Y-52062814D01*
X132269369Y-52351480D01*
X132372999Y-52455110D01*
X132372999Y-52858749D01*
X132373000Y-76475289D01*
X132320169Y-76528120D01*
X132162600Y-76908526D01*
X132162600Y-77320274D01*
X132320169Y-77700680D01*
X132611320Y-77991831D01*
X132991726Y-78149400D01*
X133403474Y-78149400D01*
X133783880Y-77991831D01*
X134063201Y-77712510D01*
X134063201Y-79001488D01*
X133945769Y-79118920D01*
X133788200Y-79499326D01*
X133788200Y-79911074D01*
X133945769Y-80291480D01*
X134236920Y-80582631D01*
X134617326Y-80740200D01*
X135029074Y-80740200D01*
X135180801Y-80677353D01*
X135180801Y-81168397D01*
X134935798Y-81413400D01*
X134769726Y-81413400D01*
X134389320Y-81570969D01*
X134098169Y-81862120D01*
X133940600Y-82242526D01*
X133940600Y-82654274D01*
X134098169Y-83034680D01*
X134389320Y-83325831D01*
X134769726Y-83483400D01*
X135181474Y-83483400D01*
X135561880Y-83325831D01*
X135853031Y-83034680D01*
X136010600Y-82654274D01*
X136010600Y-82488202D01*
X136249791Y-82249011D01*
X136444975Y-82541125D01*
X136743361Y-82740500D01*
X136444975Y-82939875D01*
X136116761Y-83431082D01*
X136001508Y-84010500D01*
X136116761Y-84589918D01*
X136444975Y-85081125D01*
X136936182Y-85409339D01*
X137369344Y-85495500D01*
X137661856Y-85495500D01*
X138095018Y-85409339D01*
X138586225Y-85081125D01*
X138914439Y-84589918D01*
X139029692Y-84010500D01*
X138914439Y-83431082D01*
X138586225Y-82939875D01*
X138287839Y-82740500D01*
X138586225Y-82541125D01*
X138914439Y-82049918D01*
X139029692Y-81470500D01*
X138914439Y-80891082D01*
X138586225Y-80399875D01*
X138267122Y-80186657D01*
X138396958Y-80125683D01*
X138602970Y-79899627D01*
X139122200Y-79899627D01*
X139122200Y-80311375D01*
X139279769Y-80691781D01*
X139570920Y-80982932D01*
X139951326Y-81140501D01*
X140363074Y-81140501D01*
X140743480Y-80982932D01*
X141034631Y-80691781D01*
X141189001Y-80319097D01*
X141189001Y-96043800D01*
X141068926Y-96043800D01*
X140688520Y-96201369D01*
X140397369Y-96492520D01*
X140239800Y-96872926D01*
X140239800Y-97284674D01*
X140397369Y-97665080D01*
X140688520Y-97956231D01*
X141068926Y-98113800D01*
X141480674Y-98113800D01*
X141861080Y-97956231D01*
X142152231Y-97665080D01*
X142309800Y-97284674D01*
X142309800Y-97118602D01*
X142433474Y-96994928D01*
X142496930Y-96952528D01*
X142664905Y-96701136D01*
X142709001Y-96479451D01*
X142709001Y-96479447D01*
X142723889Y-96404600D01*
X142709001Y-96329753D01*
X142709001Y-93739778D01*
X142761600Y-93750240D01*
X144461600Y-93750240D01*
X144709365Y-93700957D01*
X144919409Y-93560609D01*
X145059757Y-93350565D01*
X145068784Y-93305181D01*
X145080975Y-93323425D01*
X145572182Y-93651639D01*
X146005344Y-93737800D01*
X146297856Y-93737800D01*
X146731018Y-93651639D01*
X147222225Y-93323425D01*
X147421600Y-93025039D01*
X147620975Y-93323425D01*
X148112182Y-93651639D01*
X148545344Y-93737800D01*
X148837856Y-93737800D01*
X149271018Y-93651639D01*
X149762225Y-93323425D01*
X149975443Y-93004322D01*
X150036417Y-93134158D01*
X150464676Y-93524445D01*
X150874710Y-93694276D01*
X151104600Y-93572955D01*
X151104600Y-92379800D01*
X151358600Y-92379800D01*
X151358600Y-93572955D01*
X151588490Y-93694276D01*
X151998524Y-93524445D01*
X152426783Y-93134158D01*
X152673086Y-92609692D01*
X152552419Y-92379800D01*
X151358600Y-92379800D01*
X151104600Y-92379800D01*
X151084600Y-92379800D01*
X151084600Y-92125800D01*
X151104600Y-92125800D01*
X151104600Y-90932645D01*
X151358600Y-90932645D01*
X151358600Y-92125800D01*
X152552419Y-92125800D01*
X152673086Y-91895908D01*
X152426783Y-91371442D01*
X151998524Y-90981155D01*
X151588490Y-90811324D01*
X151358600Y-90932645D01*
X151104600Y-90932645D01*
X150874710Y-90811324D01*
X150464676Y-90981155D01*
X150036417Y-91371442D01*
X149975443Y-91501278D01*
X149762225Y-91182175D01*
X149451600Y-90974622D01*
X149451600Y-89908511D01*
X149569031Y-89791080D01*
X149726600Y-89410674D01*
X149726600Y-88998926D01*
X149569031Y-88618520D01*
X149277880Y-88327369D01*
X148897474Y-88169800D01*
X148485726Y-88169800D01*
X148105320Y-88327369D01*
X147814169Y-88618520D01*
X147656600Y-88998926D01*
X147656600Y-89410674D01*
X147814169Y-89791080D01*
X147931600Y-89908511D01*
X147931600Y-90974622D01*
X147620975Y-91182175D01*
X147421600Y-91480561D01*
X147222225Y-91182175D01*
X146731018Y-90853961D01*
X146708400Y-90849462D01*
X146708400Y-85946111D01*
X146825831Y-85828680D01*
X146983400Y-85448274D01*
X146983400Y-85036526D01*
X146934533Y-84918550D01*
X148324200Y-84918550D01*
X148324200Y-85609110D01*
X148420873Y-85842499D01*
X148599502Y-86021127D01*
X148832891Y-86117800D01*
X149523450Y-86117800D01*
X149682200Y-85959050D01*
X149682200Y-84759800D01*
X149936200Y-84759800D01*
X149936200Y-85959050D01*
X150094950Y-86117800D01*
X150785509Y-86117800D01*
X151018898Y-86021127D01*
X151197527Y-85842499D01*
X151294200Y-85609110D01*
X151294200Y-84918550D01*
X151135450Y-84759800D01*
X149936200Y-84759800D01*
X149682200Y-84759800D01*
X148482950Y-84759800D01*
X148324200Y-84918550D01*
X146934533Y-84918550D01*
X146825831Y-84656120D01*
X146534680Y-84364969D01*
X146477105Y-84341121D01*
X146468201Y-84296355D01*
X146468201Y-78200200D01*
X146814674Y-78200200D01*
X147195080Y-78042631D01*
X147486231Y-77751480D01*
X147643800Y-77371074D01*
X147643800Y-76959326D01*
X147486231Y-76578920D01*
X147368800Y-76461489D01*
X147368800Y-74472800D01*
X148295108Y-74472800D01*
X148410361Y-75052218D01*
X148738575Y-75543425D01*
X149036961Y-75742800D01*
X148738575Y-75942175D01*
X148410361Y-76433382D01*
X148295108Y-77012800D01*
X148410361Y-77592218D01*
X148738575Y-78083425D01*
X149036961Y-78282800D01*
X148738575Y-78482175D01*
X148410361Y-78973382D01*
X148295108Y-79552800D01*
X148410361Y-80132218D01*
X148738575Y-80623425D01*
X149036961Y-80822800D01*
X148738575Y-81022175D01*
X148410361Y-81513382D01*
X148295108Y-82092800D01*
X148410361Y-82672218D01*
X148738575Y-83163425D01*
X148760233Y-83177896D01*
X148599502Y-83244473D01*
X148420873Y-83423101D01*
X148324200Y-83656490D01*
X148324200Y-84347050D01*
X148482950Y-84505800D01*
X149682200Y-84505800D01*
X149682200Y-84485800D01*
X149936200Y-84485800D01*
X149936200Y-84505800D01*
X151135450Y-84505800D01*
X151294200Y-84347050D01*
X151294200Y-83656490D01*
X151197527Y-83423101D01*
X151018898Y-83244473D01*
X150858167Y-83177896D01*
X150879825Y-83163425D01*
X151208039Y-82672218D01*
X151323292Y-82092800D01*
X151208039Y-81513382D01*
X150879825Y-81022175D01*
X150581439Y-80822800D01*
X150879825Y-80623425D01*
X151208039Y-80132218D01*
X151323292Y-79552800D01*
X151208039Y-78973382D01*
X150879825Y-78482175D01*
X150581439Y-78282800D01*
X150879825Y-78083425D01*
X151208039Y-77592218D01*
X151323292Y-77012800D01*
X151208039Y-76433382D01*
X150879825Y-75942175D01*
X150581439Y-75742800D01*
X150879825Y-75543425D01*
X151208039Y-75052218D01*
X151323292Y-74472800D01*
X151208039Y-73893382D01*
X150879825Y-73402175D01*
X150388618Y-73073961D01*
X149955456Y-72987800D01*
X149662944Y-72987800D01*
X149229782Y-73073961D01*
X148738575Y-73402175D01*
X148410361Y-73893382D01*
X148295108Y-74472800D01*
X147368800Y-74472800D01*
X147368800Y-72091512D01*
X147486231Y-71974081D01*
X147643800Y-71593675D01*
X147643800Y-71181927D01*
X147486231Y-70801521D01*
X147195080Y-70510370D01*
X146814674Y-70352801D01*
X146468201Y-70352801D01*
X146468201Y-44599726D01*
X153041400Y-44599726D01*
X153041400Y-45011474D01*
X153198969Y-45391880D01*
X153316401Y-45509312D01*
X153316400Y-67038089D01*
X153198969Y-67155520D01*
X153041400Y-67535926D01*
X153041400Y-67947674D01*
X153198969Y-68328080D01*
X153490120Y-68619231D01*
X153870526Y-68776800D01*
X154282274Y-68776800D01*
X154662680Y-68619231D01*
X154953831Y-68328080D01*
X155111400Y-67947674D01*
X155111400Y-67535926D01*
X154953831Y-67155520D01*
X154836400Y-67038089D01*
X154836400Y-60913121D01*
X166733000Y-60913121D01*
X166733001Y-63054880D01*
X166833667Y-63560963D01*
X167217136Y-64134865D01*
X167791038Y-64518334D01*
X168468000Y-64652990D01*
X169144963Y-64518334D01*
X169718865Y-64134865D01*
X170102334Y-63560963D01*
X170203000Y-63054880D01*
X170203000Y-60913120D01*
X170102334Y-60407037D01*
X169718865Y-59833135D01*
X169144962Y-59449666D01*
X168468000Y-59315010D01*
X167791037Y-59449666D01*
X167217135Y-59833135D01*
X166833666Y-60407038D01*
X166733000Y-60913121D01*
X154836400Y-60913121D01*
X154836400Y-57150304D01*
X157661986Y-57150304D01*
X157661986Y-59550304D01*
X157711269Y-59798069D01*
X157851617Y-60008113D01*
X158061661Y-60148461D01*
X158309426Y-60197744D01*
X160709426Y-60197744D01*
X160957191Y-60148461D01*
X161167235Y-60008113D01*
X161307583Y-59798069D01*
X161356866Y-59550304D01*
X161356866Y-57150304D01*
X161307583Y-56902539D01*
X161167235Y-56692495D01*
X160957191Y-56552147D01*
X160709426Y-56502864D01*
X160314879Y-56502864D01*
X160548870Y-56405942D01*
X161065064Y-55889748D01*
X161344426Y-55215308D01*
X161344426Y-54485300D01*
X161065064Y-53810860D01*
X160548870Y-53294666D01*
X160079638Y-53100304D01*
X160548870Y-52905942D01*
X161065064Y-52389748D01*
X161344426Y-51715308D01*
X161344426Y-50985300D01*
X161185189Y-50600869D01*
X173106631Y-62522312D01*
X173233666Y-63160963D01*
X173617135Y-63734865D01*
X174191037Y-64118334D01*
X174697120Y-64219000D01*
X176838880Y-64219000D01*
X177344963Y-64118334D01*
X177918865Y-63734865D01*
X178302334Y-63160963D01*
X178436990Y-62484000D01*
X178302334Y-61807037D01*
X177918865Y-61233135D01*
X177344963Y-60849666D01*
X176838880Y-60749000D01*
X174697120Y-60749000D01*
X174191037Y-60849666D01*
X173826900Y-61092975D01*
X165417924Y-52684000D01*
X168999010Y-52684000D01*
X169133666Y-53360963D01*
X169517135Y-53934865D01*
X170091037Y-54318334D01*
X170534455Y-54406535D01*
X170333666Y-54707037D01*
X170199010Y-55384000D01*
X170333666Y-56060963D01*
X170717135Y-56634865D01*
X171291037Y-57018334D01*
X171797120Y-57119000D01*
X173938880Y-57119000D01*
X174444963Y-57018334D01*
X175018865Y-56634865D01*
X175402334Y-56060963D01*
X175536990Y-55384000D01*
X175402334Y-54707037D01*
X175018865Y-54133135D01*
X174444963Y-53749666D01*
X174001545Y-53661465D01*
X174202334Y-53360963D01*
X174336990Y-52684000D01*
X174202334Y-52007037D01*
X173818865Y-51433135D01*
X173244963Y-51049666D01*
X172738880Y-50949000D01*
X170597120Y-50949000D01*
X170091037Y-51049666D01*
X169517135Y-51433135D01*
X169133666Y-52007037D01*
X168999010Y-52684000D01*
X165417924Y-52684000D01*
X161228676Y-48494753D01*
X161344426Y-48215308D01*
X161344426Y-47485300D01*
X161065064Y-46810860D01*
X160548870Y-46294666D01*
X159874430Y-46015304D01*
X159144422Y-46015304D01*
X158469982Y-46294666D01*
X157953788Y-46810860D01*
X157674426Y-47485300D01*
X157674426Y-48215308D01*
X157953788Y-48889748D01*
X158469982Y-49405942D01*
X158939214Y-49600304D01*
X158469982Y-49794666D01*
X157953788Y-50310860D01*
X157674426Y-50985300D01*
X157674426Y-51715308D01*
X157953788Y-52389748D01*
X158469982Y-52905942D01*
X158939214Y-53100304D01*
X158469982Y-53294666D01*
X157953788Y-53810860D01*
X157674426Y-54485300D01*
X157674426Y-55215308D01*
X157953788Y-55889748D01*
X158469982Y-56405942D01*
X158703973Y-56502864D01*
X158309426Y-56502864D01*
X158061661Y-56552147D01*
X157851617Y-56692495D01*
X157711269Y-56902539D01*
X157661986Y-57150304D01*
X154836400Y-57150304D01*
X154836400Y-45509311D01*
X154953831Y-45391880D01*
X155111400Y-45011474D01*
X155111400Y-44688474D01*
X173143000Y-44688474D01*
X173143000Y-45227526D01*
X173349286Y-45725546D01*
X173730454Y-46106714D01*
X174228474Y-46313000D01*
X174767526Y-46313000D01*
X175265546Y-46106714D01*
X175646714Y-45725546D01*
X175853000Y-45227526D01*
X175853000Y-44688474D01*
X175646714Y-44190454D01*
X175265546Y-43809286D01*
X174767526Y-43603000D01*
X174228474Y-43603000D01*
X173730454Y-43809286D01*
X173349286Y-44190454D01*
X173143000Y-44688474D01*
X155111400Y-44688474D01*
X155111400Y-44599726D01*
X154953831Y-44219320D01*
X154662680Y-43928169D01*
X154282274Y-43770600D01*
X153870526Y-43770600D01*
X153490120Y-43928169D01*
X153198969Y-44219320D01*
X153041400Y-44599726D01*
X146468201Y-44599726D01*
X146468201Y-42148474D01*
X175683000Y-42148474D01*
X175683000Y-42687526D01*
X175889286Y-43185546D01*
X176270454Y-43566714D01*
X176768474Y-43773000D01*
X177307526Y-43773000D01*
X177805546Y-43566714D01*
X178186714Y-43185546D01*
X178393000Y-42687526D01*
X178393000Y-42148474D01*
X178186714Y-41650454D01*
X177805546Y-41269286D01*
X177307526Y-41063000D01*
X176768474Y-41063000D01*
X176270454Y-41269286D01*
X175889286Y-41650454D01*
X175683000Y-42148474D01*
X146468201Y-42148474D01*
X146468201Y-41897047D01*
X146483089Y-41822200D01*
X146468201Y-41747353D01*
X146468201Y-41747349D01*
X146424105Y-41525664D01*
X146256130Y-41274272D01*
X146192671Y-41231870D01*
X146119800Y-41158999D01*
X146119800Y-40992926D01*
X146051392Y-40827774D01*
X173727831Y-40827774D01*
X173792131Y-41065611D01*
X174300342Y-41245333D01*
X174838644Y-41216892D01*
X175203869Y-41065611D01*
X175268169Y-40827774D01*
X174498000Y-40057605D01*
X173727831Y-40827774D01*
X146051392Y-40827774D01*
X145962231Y-40612520D01*
X145671080Y-40321369D01*
X145290674Y-40163800D01*
X144878926Y-40163800D01*
X144498520Y-40321369D01*
X144207369Y-40612520D01*
X144049800Y-40992926D01*
X144049800Y-41404674D01*
X144207369Y-41785080D01*
X144498520Y-42076231D01*
X144878926Y-42233800D01*
X144948202Y-42233800D01*
X144948201Y-82988200D01*
X144777326Y-82988200D01*
X144396920Y-83145769D01*
X144105769Y-83436920D01*
X143948200Y-83817326D01*
X143948200Y-83983398D01*
X143127128Y-84804471D01*
X143063672Y-84846871D01*
X143021272Y-84910327D01*
X143021271Y-84910328D01*
X142895697Y-85098263D01*
X142836712Y-85394800D01*
X142851601Y-85469652D01*
X142851600Y-90755360D01*
X142761600Y-90755360D01*
X142709001Y-90765822D01*
X142709001Y-80486200D01*
X143055474Y-80486200D01*
X143435880Y-80328631D01*
X143727031Y-80037480D01*
X143884600Y-79657074D01*
X143884600Y-79245326D01*
X143727031Y-78864920D01*
X143609600Y-78747489D01*
X143609600Y-75729212D01*
X143727031Y-75611781D01*
X143884600Y-75231375D01*
X143884600Y-74819627D01*
X143727031Y-74439221D01*
X143435880Y-74148070D01*
X143055474Y-73990501D01*
X142709001Y-73990501D01*
X142709001Y-64369912D01*
X142826432Y-64252481D01*
X142984001Y-63872075D01*
X142984001Y-63460327D01*
X142826432Y-63079921D01*
X142535281Y-62788770D01*
X142154875Y-62631201D01*
X141743127Y-62631201D01*
X141362721Y-62788770D01*
X141071570Y-63079921D01*
X140914001Y-63460327D01*
X140914001Y-63872075D01*
X141071570Y-64252481D01*
X141189002Y-64369913D01*
X141189002Y-67308320D01*
X141136231Y-67180920D01*
X140845080Y-66889769D01*
X140464674Y-66732200D01*
X140052926Y-66732200D01*
X139672520Y-66889769D01*
X139381369Y-67180920D01*
X139223800Y-67561326D01*
X139223800Y-67973074D01*
X139381369Y-68353480D01*
X139397201Y-68369312D01*
X139397200Y-79401790D01*
X139279769Y-79519221D01*
X139122200Y-79899627D01*
X138602970Y-79899627D01*
X138787245Y-79697424D01*
X138957076Y-79287390D01*
X138835755Y-79057500D01*
X137642600Y-79057500D01*
X137642600Y-79077500D01*
X137388600Y-79077500D01*
X137388600Y-79057500D01*
X137368600Y-79057500D01*
X137368600Y-78803500D01*
X137388600Y-78803500D01*
X137388600Y-78783500D01*
X137642600Y-78783500D01*
X137642600Y-78803500D01*
X138835755Y-78803500D01*
X138957076Y-78573610D01*
X138787245Y-78163576D01*
X138396958Y-77735317D01*
X138267122Y-77674343D01*
X138586225Y-77461125D01*
X138914439Y-76969918D01*
X139029692Y-76390500D01*
X138914439Y-75811082D01*
X138586225Y-75319875D01*
X138567981Y-75307684D01*
X138613365Y-75298657D01*
X138823409Y-75158309D01*
X138963757Y-74948265D01*
X139013040Y-74700500D01*
X139013040Y-73000500D01*
X138963757Y-72752735D01*
X138823409Y-72542691D01*
X138613365Y-72402343D01*
X138365600Y-72353060D01*
X138275600Y-72353060D01*
X138275600Y-71366511D01*
X138393031Y-71249080D01*
X138550600Y-70868674D01*
X138550600Y-70456926D01*
X138393031Y-70076520D01*
X138051080Y-69734569D01*
X137670674Y-69577000D01*
X137258926Y-69577000D01*
X136878520Y-69734569D01*
X136700800Y-69912289D01*
X136700800Y-63375623D01*
X136773435Y-63424157D01*
X137021200Y-63473440D01*
X138721200Y-63473440D01*
X138968965Y-63424157D01*
X139179009Y-63283809D01*
X139319357Y-63073765D01*
X139368640Y-62826000D01*
X139368640Y-61126000D01*
X139319357Y-60878235D01*
X139179009Y-60668191D01*
X138968965Y-60527843D01*
X138865492Y-60507261D01*
X139142845Y-60202924D01*
X139312676Y-59792890D01*
X139191355Y-59563000D01*
X137998200Y-59563000D01*
X137998200Y-59583000D01*
X137744200Y-59583000D01*
X137744200Y-59563000D01*
X137724200Y-59563000D01*
X137724200Y-59309000D01*
X137744200Y-59309000D01*
X137744200Y-59289000D01*
X137998200Y-59289000D01*
X137998200Y-59309000D01*
X139191355Y-59309000D01*
X139312676Y-59079110D01*
X139142845Y-58669076D01*
X138752558Y-58240817D01*
X138622722Y-58179843D01*
X138941825Y-57966625D01*
X139270039Y-57475418D01*
X139385292Y-56896000D01*
X139270039Y-56316582D01*
X138941825Y-55825375D01*
X138643439Y-55626000D01*
X138941825Y-55426625D01*
X139270039Y-54935418D01*
X139385292Y-54356000D01*
X139270039Y-53776582D01*
X138941825Y-53285375D01*
X138643439Y-53086000D01*
X138941825Y-52886625D01*
X139270039Y-52395418D01*
X139385292Y-51816000D01*
X139270039Y-51236582D01*
X138941825Y-50745375D01*
X138643439Y-50546000D01*
X138941825Y-50346625D01*
X139270039Y-49855418D01*
X139385292Y-49276000D01*
X139270039Y-48696582D01*
X138941825Y-48205375D01*
X138643439Y-48006000D01*
X138941825Y-47806625D01*
X139270039Y-47315418D01*
X139385292Y-46736000D01*
X139270039Y-46156582D01*
X138941825Y-45665375D01*
X138643439Y-45466000D01*
X138941825Y-45266625D01*
X139270039Y-44775418D01*
X139385292Y-44196000D01*
X139270039Y-43616582D01*
X138941825Y-43125375D01*
X138450618Y-42797161D01*
X138017456Y-42711000D01*
X137724944Y-42711000D01*
X137291782Y-42797161D01*
X136800575Y-43125375D01*
X136472361Y-43616582D01*
X136357108Y-44196000D01*
X136472361Y-44775418D01*
X136800575Y-45266625D01*
X137098961Y-45466000D01*
X136800575Y-45665375D01*
X136613646Y-45945135D01*
X136527080Y-45858569D01*
X136146674Y-45701000D01*
X135734926Y-45701000D01*
X135354520Y-45858569D01*
X135063369Y-46149720D01*
X134905800Y-46530126D01*
X134905800Y-46941874D01*
X135063369Y-47322280D01*
X135180800Y-47439711D01*
X135180800Y-48303847D01*
X135029074Y-48241000D01*
X134617326Y-48241000D01*
X134236920Y-48398569D01*
X133945769Y-48689720D01*
X133788200Y-49070126D01*
X133788200Y-49481874D01*
X133945769Y-49862280D01*
X134063200Y-49979711D01*
X134063200Y-51273000D01*
X134024231Y-51178920D01*
X133733080Y-50887769D01*
X133352674Y-50730200D01*
X132940926Y-50730200D01*
X132560520Y-50887769D01*
X132269369Y-51178920D01*
X132111800Y-51559326D01*
X132111800Y-51658086D01*
X131992231Y-51369420D01*
X131701080Y-51078269D01*
X131320674Y-50920700D01*
X130908926Y-50920700D01*
X130712061Y-51002244D01*
X130683357Y-50857935D01*
X130543009Y-50647891D01*
X130332965Y-50507543D01*
X130085200Y-50458260D01*
X128385200Y-50458260D01*
X128137435Y-50507543D01*
X127927391Y-50647891D01*
X127787043Y-50857935D01*
X127778016Y-50903319D01*
X127765825Y-50885075D01*
X127274618Y-50556861D01*
X126841456Y-50470700D01*
X126548944Y-50470700D01*
X126115782Y-50556861D01*
X125624575Y-50885075D01*
X125296361Y-51376282D01*
X125181108Y-51955700D01*
X125296361Y-52535118D01*
X125624575Y-53026325D01*
X125922961Y-53225700D01*
X125624575Y-53425075D01*
X125296361Y-53916282D01*
X125181108Y-54495700D01*
X125296361Y-55075118D01*
X125624575Y-55566325D01*
X125922961Y-55765700D01*
X125624575Y-55965075D01*
X125296361Y-56456282D01*
X125181108Y-57035700D01*
X125296361Y-57615118D01*
X125624575Y-58106325D01*
X125922961Y-58305700D01*
X125624575Y-58505075D01*
X125296361Y-58996282D01*
X125181108Y-59575700D01*
X125296361Y-60155118D01*
X125624575Y-60646325D01*
X125922961Y-60845700D01*
X125624575Y-61045075D01*
X125296361Y-61536282D01*
X125181108Y-62115700D01*
X125296361Y-62695118D01*
X125624575Y-63186325D01*
X125922961Y-63385700D01*
X125624575Y-63585075D01*
X125296361Y-64076282D01*
X125181108Y-64655700D01*
X125296361Y-65235118D01*
X125624575Y-65726325D01*
X125922961Y-65925700D01*
X125624575Y-66125075D01*
X125296361Y-66616282D01*
X125181108Y-67195700D01*
X125296361Y-67775118D01*
X125624575Y-68266325D01*
X125922961Y-68465700D01*
X125624575Y-68665075D01*
X125296361Y-69156282D01*
X125181108Y-69735700D01*
X125296361Y-70315118D01*
X125624575Y-70806325D01*
X125922961Y-71005700D01*
X125624575Y-71205075D01*
X125296361Y-71696282D01*
X125181108Y-72275700D01*
X125296361Y-72855118D01*
X125624575Y-73346325D01*
X125922961Y-73545700D01*
X125624575Y-73745075D01*
X125296361Y-74236282D01*
X125181108Y-74815700D01*
X125296361Y-75395118D01*
X125624575Y-75886325D01*
X125922961Y-76085700D01*
X125624575Y-76285075D01*
X125296361Y-76776282D01*
X125181108Y-77355700D01*
X125296361Y-77935118D01*
X125624575Y-78426325D01*
X125922961Y-78625700D01*
X125624575Y-78825075D01*
X125296361Y-79316282D01*
X125181108Y-79895700D01*
X125296361Y-80475118D01*
X125624575Y-80966325D01*
X125922961Y-81165700D01*
X125624575Y-81365075D01*
X125296361Y-81856282D01*
X125181108Y-82435700D01*
X125253991Y-82802108D01*
X122305730Y-85750369D01*
X122242272Y-85792770D01*
X122089689Y-86021127D01*
X122074298Y-86044162D01*
X122015313Y-86340699D01*
X122074298Y-86637236D01*
X122088201Y-86658044D01*
X122088201Y-87069220D01*
X122016783Y-86962335D01*
X121706158Y-86754782D01*
X121706158Y-85661138D01*
X122016783Y-85453585D01*
X122344997Y-84962378D01*
X122460250Y-84382960D01*
X122344997Y-83803542D01*
X122016783Y-83312335D01*
X121706158Y-83104782D01*
X121706158Y-82011138D01*
X122016783Y-81803585D01*
X122344997Y-81312378D01*
X122460250Y-80732960D01*
X122344997Y-80153542D01*
X122016783Y-79662335D01*
X121525576Y-79334121D01*
X121092414Y-79247960D01*
X120799902Y-79247960D01*
X120444800Y-79318594D01*
X120444800Y-79189711D01*
X120562231Y-79072280D01*
X120719800Y-78691874D01*
X120719800Y-78280126D01*
X120562231Y-77899720D01*
X120271080Y-77608569D01*
X119890674Y-77451000D01*
X119478926Y-77451000D01*
X119098520Y-77608569D01*
X118807369Y-77899720D01*
X118649800Y-78280126D01*
X118649800Y-78691874D01*
X118807369Y-79072280D01*
X118924800Y-79189711D01*
X118924800Y-79322032D01*
X118552414Y-79247960D01*
X118259902Y-79247960D01*
X117911201Y-79317321D01*
X117911201Y-78326859D01*
X118137480Y-78233131D01*
X118428631Y-77941980D01*
X118586200Y-77561574D01*
X118586200Y-77149826D01*
X118428631Y-76769420D01*
X118137480Y-76478269D01*
X117757074Y-76320700D01*
X117345326Y-76320700D01*
X116964920Y-76478269D01*
X116673769Y-76769420D01*
X116516200Y-77149826D01*
X116516200Y-77338083D01*
X116435297Y-77459163D01*
X116391201Y-77680848D01*
X116391201Y-77680852D01*
X116376313Y-77755699D01*
X116391201Y-77830546D01*
X116391201Y-79235520D01*
X115931754Y-79235520D01*
X115936300Y-79212668D01*
X115936300Y-79212664D01*
X115951188Y-79137817D01*
X115936300Y-79062970D01*
X115936300Y-75519411D01*
X116053731Y-75401980D01*
X116211300Y-75021574D01*
X116211300Y-74609826D01*
X116189164Y-74556385D01*
X116278526Y-74593400D01*
X116690274Y-74593400D01*
X117070680Y-74435831D01*
X117361831Y-74144680D01*
X117519400Y-73764274D01*
X117519400Y-73352526D01*
X117361831Y-72972120D01*
X117244400Y-72854689D01*
X117244400Y-53233878D01*
X117555025Y-53026325D01*
X117754400Y-52727939D01*
X117953775Y-53026325D01*
X118264400Y-53233878D01*
X118264401Y-70467088D01*
X118248569Y-70482920D01*
X118091000Y-70863326D01*
X118091000Y-71275074D01*
X118248569Y-71655480D01*
X118539720Y-71946631D01*
X118920126Y-72104200D01*
X119331874Y-72104200D01*
X119712280Y-71946631D01*
X120003431Y-71655480D01*
X120161000Y-71275074D01*
X120161000Y-70863326D01*
X120003431Y-70482920D01*
X119784400Y-70263889D01*
X119784400Y-53233878D01*
X120095025Y-53026325D01*
X120423239Y-52535118D01*
X120538492Y-51955700D01*
X120423239Y-51376282D01*
X120095025Y-50885075D01*
X119603818Y-50556861D01*
X119170656Y-50470700D01*
X118878144Y-50470700D01*
X118444982Y-50556861D01*
X117953775Y-50885075D01*
X117754400Y-51183461D01*
X117555025Y-50885075D01*
X117063818Y-50556861D01*
X116630656Y-50470700D01*
X116338144Y-50470700D01*
X115904982Y-50556861D01*
X115413775Y-50885075D01*
X115214400Y-51183461D01*
X115015025Y-50885075D01*
X114523818Y-50556861D01*
X114090656Y-50470700D01*
X113798144Y-50470700D01*
X113364982Y-50556861D01*
X112873775Y-50885075D01*
X112861584Y-50903319D01*
X112852557Y-50857935D01*
X112712209Y-50647891D01*
X112502165Y-50507543D01*
X112254400Y-50458260D01*
X110554400Y-50458260D01*
X110306635Y-50507543D01*
X110096591Y-50647891D01*
X109956243Y-50857935D01*
X109906960Y-51105700D01*
X109906960Y-52805700D01*
X109956243Y-53053465D01*
X110096591Y-53263509D01*
X110306635Y-53403857D01*
X110554400Y-53453140D01*
X110644400Y-53453140D01*
X110644401Y-67671057D01*
X110614920Y-67683268D01*
X110323769Y-67974419D01*
X110166200Y-68354825D01*
X110166200Y-68723244D01*
X109840220Y-68858269D01*
X109549069Y-69149420D01*
X109391500Y-69529826D01*
X109391500Y-69941574D01*
X109549069Y-70321980D01*
X109666500Y-70439411D01*
X109666501Y-88949590D01*
X109552280Y-88835369D01*
X109171874Y-88677800D01*
X109008999Y-88677800D01*
X109008999Y-42111512D01*
X109126430Y-41994081D01*
X109283999Y-41613675D01*
X109283999Y-41201927D01*
X109126430Y-40821521D01*
X108835279Y-40530370D01*
X108454873Y-40372801D01*
X108043125Y-40372801D01*
X107662719Y-40530370D01*
X107625461Y-40567628D01*
X107621292Y-35883850D01*
X107939000Y-35883850D01*
X107939000Y-37024410D01*
X108035673Y-37257799D01*
X108214302Y-37436427D01*
X108447691Y-37533100D01*
X109188250Y-37533100D01*
X109347000Y-37374350D01*
X109347000Y-35725100D01*
X108097750Y-35725100D01*
X107939000Y-35883850D01*
X107621292Y-35883850D01*
X107619768Y-34171790D01*
X107939000Y-34171790D01*
X107939000Y-35312350D01*
X108097750Y-35471100D01*
X109347000Y-35471100D01*
X109347000Y-33821850D01*
X109601000Y-33821850D01*
X109601000Y-35471100D01*
X109621000Y-35471100D01*
X109621000Y-35725100D01*
X109601000Y-35725100D01*
X109601000Y-37374350D01*
X109759750Y-37533100D01*
X110500309Y-37533100D01*
X110733698Y-37436427D01*
X110912327Y-37257799D01*
X110960889Y-37140561D01*
X111415074Y-37444038D01*
X112014000Y-37563172D01*
X112612927Y-37444038D01*
X113120673Y-37104773D01*
X113284000Y-36860336D01*
X113447328Y-37104773D01*
X113844801Y-37370356D01*
X113844800Y-42679489D01*
X113727369Y-42796920D01*
X113569800Y-43177326D01*
X113569800Y-43589074D01*
X113727369Y-43969480D01*
X114018520Y-44260631D01*
X114398926Y-44418200D01*
X114810674Y-44418200D01*
X115191080Y-44260631D01*
X115482231Y-43969480D01*
X115639800Y-43589074D01*
X115639800Y-43177326D01*
X115482231Y-42796920D01*
X115364800Y-42679489D01*
X115364800Y-37302469D01*
X115660673Y-37104773D01*
X115824000Y-36860336D01*
X115987328Y-37104773D01*
X116410201Y-37387328D01*
X116410200Y-41536489D01*
X116292769Y-41653920D01*
X116135200Y-42034326D01*
X116135200Y-42446074D01*
X116292769Y-42826480D01*
X116583920Y-43117631D01*
X116964326Y-43275200D01*
X117376074Y-43275200D01*
X117756480Y-43117631D01*
X118047631Y-42826480D01*
X118205200Y-42446074D01*
X118205200Y-42034326D01*
X118047631Y-41653920D01*
X117930200Y-41536489D01*
X117930200Y-37285497D01*
X118200673Y-37104773D01*
X118375703Y-36842823D01*
X118638394Y-37173312D01*
X119163914Y-37464856D01*
X119269260Y-37489136D01*
X119507000Y-37368478D01*
X119507000Y-35725100D01*
X119487000Y-35725100D01*
X119487000Y-35471100D01*
X119507000Y-35471100D01*
X119507000Y-33827722D01*
X119761000Y-33827722D01*
X119761000Y-35471100D01*
X119781000Y-35471100D01*
X119781000Y-35725100D01*
X119761000Y-35725100D01*
X119761000Y-37368478D01*
X119998740Y-37489136D01*
X120104086Y-37464856D01*
X120629606Y-37173312D01*
X120892298Y-36842822D01*
X121067328Y-37104773D01*
X121112405Y-37134893D01*
X120913728Y-37333570D01*
X120850270Y-37375972D01*
X120682295Y-37627365D01*
X120638199Y-37849050D01*
X120638199Y-37849054D01*
X120623311Y-37923901D01*
X120638199Y-37998748D01*
X120638200Y-53666089D01*
X120432969Y-53871320D01*
X120275400Y-54251726D01*
X120275400Y-54663474D01*
X120432969Y-55043880D01*
X120724120Y-55335031D01*
X121104526Y-55492600D01*
X121414001Y-55492600D01*
X121414001Y-56141488D01*
X121245769Y-56309720D01*
X121088200Y-56690126D01*
X121088200Y-57101874D01*
X121245769Y-57482280D01*
X121536920Y-57773431D01*
X121917326Y-57931000D01*
X121943798Y-57931000D01*
X121372199Y-58502600D01*
X121206126Y-58502600D01*
X120825720Y-58660169D01*
X120534569Y-58951320D01*
X120377000Y-59331726D01*
X120377000Y-59743474D01*
X120534569Y-60123880D01*
X120825720Y-60415031D01*
X121206126Y-60572600D01*
X121617874Y-60572600D01*
X121998280Y-60415031D01*
X122289431Y-60123880D01*
X122447000Y-59743474D01*
X122447000Y-59577401D01*
X122589012Y-59435389D01*
X122589012Y-59876586D01*
X121473799Y-60991800D01*
X121358526Y-60991800D01*
X120978120Y-61149369D01*
X120686969Y-61440520D01*
X120529400Y-61820926D01*
X120529400Y-62232674D01*
X120686969Y-62613080D01*
X120978120Y-62904231D01*
X121358526Y-63061800D01*
X121770274Y-63061800D01*
X121979778Y-62975021D01*
X121422999Y-63531800D01*
X121307726Y-63531800D01*
X120927320Y-63689369D01*
X120636169Y-63980520D01*
X120478600Y-64360926D01*
X120478600Y-64772674D01*
X120636169Y-65153080D01*
X120927320Y-65444231D01*
X121307726Y-65601800D01*
X121719474Y-65601800D01*
X122099880Y-65444231D01*
X122391031Y-65153080D01*
X122548600Y-64772674D01*
X122548600Y-64555801D01*
X123489611Y-63614791D01*
X123489611Y-64055986D01*
X121473799Y-66071800D01*
X121409326Y-66071800D01*
X121028920Y-66229369D01*
X120737769Y-66520520D01*
X120580200Y-66900926D01*
X120580200Y-67312674D01*
X120737769Y-67693080D01*
X121028920Y-67984231D01*
X121409326Y-68141800D01*
X121821074Y-68141800D01*
X122201480Y-67984231D01*
X122492631Y-67693080D01*
X122650200Y-67312674D01*
X122650200Y-67045001D01*
X124734086Y-64961117D01*
X124797539Y-64918719D01*
X124839937Y-64855266D01*
X124839939Y-64855264D01*
X124965513Y-64667328D01*
X124965514Y-64667327D01*
X125009610Y-64445642D01*
X125009610Y-64445638D01*
X125024498Y-64370791D01*
X125009610Y-64295944D01*
X125009610Y-43415830D01*
X125300280Y-43295431D01*
X125591431Y-43004280D01*
X125749000Y-42623874D01*
X125749000Y-42212126D01*
X125591431Y-41831720D01*
X125300280Y-41540569D01*
X125270396Y-41528191D01*
X125342600Y-41353874D01*
X125342600Y-40942126D01*
X125185031Y-40561720D01*
X124940965Y-40317654D01*
X125037800Y-40083874D01*
X125037800Y-39672126D01*
X124880231Y-39291720D01*
X124589080Y-39000569D01*
X124429114Y-38934309D01*
X124479000Y-38813874D01*
X124479000Y-38402126D01*
X124321431Y-38021720D01*
X124030280Y-37730569D01*
X123649874Y-37573000D01*
X123238126Y-37573000D01*
X122857720Y-37730569D01*
X122566569Y-38021720D01*
X122409000Y-38402126D01*
X122409000Y-38813874D01*
X122502729Y-39040155D01*
X122414531Y-39128353D01*
X122351072Y-39170755D01*
X122183097Y-39422148D01*
X122158199Y-39547318D01*
X122158199Y-38238703D01*
X122658475Y-37738427D01*
X122721929Y-37696029D01*
X122764327Y-37632576D01*
X122764329Y-37632574D01*
X122889903Y-37444638D01*
X122889904Y-37444637D01*
X122907972Y-37353804D01*
X123280673Y-37104773D01*
X123444000Y-36860336D01*
X123607328Y-37104773D01*
X124115074Y-37444038D01*
X124714000Y-37563172D01*
X125312927Y-37444038D01*
X125820673Y-37104773D01*
X125984000Y-36860336D01*
X126147328Y-37104773D01*
X126655074Y-37444038D01*
X127254000Y-37563172D01*
X127852927Y-37444038D01*
X128360673Y-37104773D01*
X128524000Y-36860336D01*
X128687328Y-37104773D01*
X129195074Y-37444038D01*
X129794000Y-37563172D01*
X130392927Y-37444038D01*
X130900673Y-37104773D01*
X131064000Y-36860336D01*
X131227328Y-37104773D01*
X131735074Y-37444038D01*
X132334000Y-37563172D01*
X132932927Y-37444038D01*
X133440673Y-37104773D01*
X133604000Y-36860336D01*
X133767328Y-37104773D01*
X134114001Y-37336412D01*
X134114001Y-37802688D01*
X133945769Y-37970920D01*
X133788200Y-38351326D01*
X133788200Y-38763074D01*
X133945769Y-39143480D01*
X134236920Y-39434631D01*
X134617326Y-39592200D01*
X135029074Y-39592200D01*
X135409480Y-39434631D01*
X135700631Y-39143480D01*
X135858200Y-38763074D01*
X135858200Y-38351326D01*
X135700631Y-37970920D01*
X135634000Y-37904289D01*
X135634000Y-37336412D01*
X135980673Y-37104773D01*
X136144000Y-36860336D01*
X136307328Y-37104773D01*
X136628601Y-37319440D01*
X136628600Y-39174289D01*
X136511169Y-39291720D01*
X136353600Y-39672126D01*
X136353600Y-40083874D01*
X136511169Y-40464280D01*
X136802320Y-40755431D01*
X137182726Y-40913000D01*
X137594474Y-40913000D01*
X137974880Y-40755431D01*
X138266031Y-40464280D01*
X138423600Y-40083874D01*
X138423600Y-39672126D01*
X138266031Y-39291720D01*
X138148600Y-39174289D01*
X138148600Y-37353384D01*
X138520673Y-37104773D01*
X138684000Y-36860336D01*
X138847328Y-37104773D01*
X139168601Y-37319441D01*
X139168600Y-40469689D01*
X139051169Y-40587120D01*
X138893600Y-40967526D01*
X138893600Y-41379274D01*
X139051169Y-41759680D01*
X139342320Y-42050831D01*
X139722726Y-42208400D01*
X140134474Y-42208400D01*
X140514880Y-42050831D01*
X140806031Y-41759680D01*
X140963600Y-41379274D01*
X140963600Y-40967526D01*
X140806031Y-40587120D01*
X140688600Y-40469689D01*
X140688600Y-37353384D01*
X141060673Y-37104773D01*
X141224000Y-36860336D01*
X141387328Y-37104773D01*
X141708601Y-37319441D01*
X141708600Y-41714289D01*
X141591169Y-41831720D01*
X141433600Y-42212126D01*
X141433600Y-42623874D01*
X141591169Y-43004280D01*
X141882320Y-43295431D01*
X142262726Y-43453000D01*
X142674474Y-43453000D01*
X143054880Y-43295431D01*
X143346031Y-43004280D01*
X143503600Y-42623874D01*
X143503600Y-42212126D01*
X143346031Y-41831720D01*
X143228600Y-41714289D01*
X143228600Y-39680342D01*
X173130667Y-39680342D01*
X173159108Y-40218644D01*
X173310389Y-40583869D01*
X173548226Y-40648169D01*
X174318395Y-39878000D01*
X174677605Y-39878000D01*
X175447774Y-40648169D01*
X175685611Y-40583869D01*
X175865333Y-40075658D01*
X175836892Y-39537356D01*
X175685611Y-39172131D01*
X175447774Y-39107831D01*
X174677605Y-39878000D01*
X174318395Y-39878000D01*
X173548226Y-39107831D01*
X173310389Y-39172131D01*
X173130667Y-39680342D01*
X143228600Y-39680342D01*
X143228600Y-38928226D01*
X173727831Y-38928226D01*
X174498000Y-39698395D01*
X175268169Y-38928226D01*
X175203869Y-38690389D01*
X174695658Y-38510667D01*
X174157356Y-38539108D01*
X173792131Y-38690389D01*
X173727831Y-38928226D01*
X143228600Y-38928226D01*
X143228600Y-37353384D01*
X143600673Y-37104773D01*
X143764000Y-36860336D01*
X143927328Y-37104773D01*
X144435074Y-37444038D01*
X145034000Y-37563172D01*
X145632927Y-37444038D01*
X146140673Y-37104773D01*
X146315703Y-36842823D01*
X146578394Y-37173312D01*
X147103914Y-37464856D01*
X147209260Y-37489136D01*
X147447000Y-37368478D01*
X147447000Y-35725100D01*
X147701000Y-35725100D01*
X147701000Y-37368478D01*
X147938740Y-37489136D01*
X148044086Y-37464856D01*
X148569606Y-37173312D01*
X148943554Y-36702852D01*
X149109000Y-36125100D01*
X149109000Y-35725100D01*
X147701000Y-35725100D01*
X147447000Y-35725100D01*
X147427000Y-35725100D01*
X147427000Y-35471100D01*
X147447000Y-35471100D01*
X147447000Y-33827722D01*
X147701000Y-33827722D01*
X147701000Y-35471100D01*
X149109000Y-35471100D01*
X149109000Y-35071100D01*
X148943554Y-34493348D01*
X148569606Y-34022888D01*
X148044086Y-33731344D01*
X147938740Y-33707064D01*
X147701000Y-33827722D01*
X147447000Y-33827722D01*
X147209260Y-33707064D01*
X147103914Y-33731344D01*
X146578394Y-34022888D01*
X146315703Y-34353377D01*
X146140673Y-34091427D01*
X145632926Y-33752162D01*
X145034000Y-33633028D01*
X144435073Y-33752162D01*
X143927327Y-34091427D01*
X143764000Y-34335863D01*
X143600673Y-34091427D01*
X143092926Y-33752162D01*
X142494000Y-33633028D01*
X141895073Y-33752162D01*
X141387327Y-34091427D01*
X141224000Y-34335863D01*
X141060673Y-34091427D01*
X140552926Y-33752162D01*
X139954000Y-33633028D01*
X139355073Y-33752162D01*
X138847327Y-34091427D01*
X138684000Y-34335863D01*
X138520673Y-34091427D01*
X138012926Y-33752162D01*
X137414000Y-33633028D01*
X136815073Y-33752162D01*
X136307327Y-34091427D01*
X136144000Y-34335863D01*
X135980673Y-34091427D01*
X135472926Y-33752162D01*
X134874000Y-33633028D01*
X134275073Y-33752162D01*
X133767327Y-34091427D01*
X133604000Y-34335863D01*
X133440673Y-34091427D01*
X132932926Y-33752162D01*
X132334000Y-33633028D01*
X131735073Y-33752162D01*
X131227327Y-34091427D01*
X131064000Y-34335863D01*
X130900673Y-34091427D01*
X130392926Y-33752162D01*
X129794000Y-33633028D01*
X129195073Y-33752162D01*
X128687327Y-34091427D01*
X128524000Y-34335863D01*
X128360673Y-34091427D01*
X127852926Y-33752162D01*
X127254000Y-33633028D01*
X126655073Y-33752162D01*
X126147327Y-34091427D01*
X125984000Y-34335863D01*
X125820673Y-34091427D01*
X125312926Y-33752162D01*
X124714000Y-33633028D01*
X124115073Y-33752162D01*
X123607327Y-34091427D01*
X123444000Y-34335863D01*
X123280673Y-34091427D01*
X122772926Y-33752162D01*
X122174000Y-33633028D01*
X121575073Y-33752162D01*
X121067327Y-34091427D01*
X120892298Y-34353378D01*
X120629606Y-34022888D01*
X120104086Y-33731344D01*
X119998740Y-33707064D01*
X119761000Y-33827722D01*
X119507000Y-33827722D01*
X119269260Y-33707064D01*
X119163914Y-33731344D01*
X118638394Y-34022888D01*
X118375703Y-34353377D01*
X118200673Y-34091427D01*
X117692926Y-33752162D01*
X117094000Y-33633028D01*
X116495073Y-33752162D01*
X115987327Y-34091427D01*
X115824000Y-34335863D01*
X115660673Y-34091427D01*
X115152926Y-33752162D01*
X114554000Y-33633028D01*
X113955073Y-33752162D01*
X113447327Y-34091427D01*
X113284000Y-34335863D01*
X113120673Y-34091427D01*
X112612926Y-33752162D01*
X112014000Y-33633028D01*
X111415073Y-33752162D01*
X110960888Y-34055638D01*
X110912327Y-33938401D01*
X110733698Y-33759773D01*
X110500309Y-33663100D01*
X109759750Y-33663100D01*
X109601000Y-33821850D01*
X109347000Y-33821850D01*
X109188250Y-33663100D01*
X108447691Y-33663100D01*
X108214302Y-33759773D01*
X108035673Y-33938401D01*
X107939000Y-34171790D01*
X107619768Y-34171790D01*
X107618854Y-33145400D01*
X181026746Y-33145400D01*
X181025122Y-34970922D01*
X181025122Y-34970922D01*
G37*
X181025122Y-34970922D02*
X180783966Y-34388720D01*
X180183380Y-33788134D01*
X179398678Y-33463100D01*
X178549322Y-33463100D01*
X177764620Y-33788134D01*
X177164034Y-34388720D01*
X176839000Y-35173422D01*
X176839000Y-36022778D01*
X177164034Y-36807480D01*
X177764620Y-37408066D01*
X178549322Y-37733100D01*
X179398678Y-37733100D01*
X180183380Y-37408066D01*
X180783966Y-36807480D01*
X181024004Y-36227978D01*
X181006533Y-55864340D01*
X180918865Y-55733135D01*
X180344963Y-55349666D01*
X179668000Y-55215010D01*
X178991038Y-55349666D01*
X178417136Y-55733135D01*
X178033667Y-56307037D01*
X177933001Y-56813120D01*
X177933000Y-58954879D01*
X178033666Y-59460962D01*
X178417135Y-60034865D01*
X178991037Y-60418334D01*
X179668000Y-60552990D01*
X180344962Y-60418334D01*
X180918865Y-60034865D01*
X181002935Y-59909045D01*
X180997599Y-65906432D01*
X180783446Y-65389420D01*
X180182860Y-64788834D01*
X179398158Y-64463800D01*
X178548802Y-64463800D01*
X177764100Y-64788834D01*
X177163514Y-65389420D01*
X176838480Y-66174122D01*
X176838480Y-67023478D01*
X177163514Y-67808180D01*
X177764100Y-68408766D01*
X178548802Y-68733800D01*
X179398158Y-68733800D01*
X180182860Y-68408766D01*
X180783446Y-67808180D01*
X180996365Y-67294149D01*
X180926454Y-145873301D01*
X107719146Y-145823499D01*
X107716458Y-142802557D01*
X150779400Y-142802557D01*
X150779400Y-143811043D01*
X151165330Y-144742762D01*
X151878438Y-145455870D01*
X152810157Y-145841800D01*
X153818643Y-145841800D01*
X154750362Y-145455870D01*
X155463470Y-144742762D01*
X155849400Y-143811043D01*
X155849400Y-142802557D01*
X162565000Y-142802557D01*
X162565000Y-143811043D01*
X162950930Y-144742762D01*
X163664038Y-145455870D01*
X164595757Y-145841800D01*
X165604243Y-145841800D01*
X166535962Y-145455870D01*
X167249070Y-144742762D01*
X167635000Y-143811043D01*
X167635000Y-142802557D01*
X167249070Y-141870838D01*
X166535962Y-141157730D01*
X165604243Y-140771800D01*
X164595757Y-140771800D01*
X163664038Y-141157730D01*
X162950930Y-141870838D01*
X162565000Y-142802557D01*
X155849400Y-142802557D01*
X155463470Y-141870838D01*
X154750362Y-141157730D01*
X153818643Y-140771800D01*
X152810157Y-140771800D01*
X151878438Y-141157730D01*
X151165330Y-141870838D01*
X150779400Y-142802557D01*
X107716458Y-142802557D01*
X107708074Y-133383594D01*
X111711800Y-133383594D01*
X111711800Y-134332406D01*
X112074895Y-135208994D01*
X112745806Y-135879905D01*
X113622394Y-136243000D01*
X114571206Y-136243000D01*
X115447794Y-135879905D01*
X115775171Y-135552528D01*
X119541477Y-135552528D01*
X119731764Y-135897271D01*
X120612991Y-136248956D01*
X121561723Y-136236641D01*
X122381036Y-135897271D01*
X122571323Y-135552528D01*
X121056400Y-134037605D01*
X119541477Y-135552528D01*
X115775171Y-135552528D01*
X116118705Y-135208994D01*
X116481800Y-134332406D01*
X116481800Y-133414591D01*
X118665444Y-133414591D01*
X118677759Y-134363323D01*
X119017129Y-135182636D01*
X119361872Y-135372923D01*
X120876795Y-133858000D01*
X121236005Y-133858000D01*
X122750928Y-135372923D01*
X123095671Y-135182636D01*
X123447356Y-134301409D01*
X123435443Y-133383594D01*
X125681800Y-133383594D01*
X125681800Y-134332406D01*
X126044895Y-135208994D01*
X126715806Y-135879905D01*
X127592394Y-136243000D01*
X128541206Y-136243000D01*
X129417794Y-135879905D01*
X130088705Y-135208994D01*
X130451800Y-134332406D01*
X130451800Y-133383594D01*
X130088705Y-132507006D01*
X129417794Y-131836095D01*
X128541206Y-131473000D01*
X127592394Y-131473000D01*
X126715806Y-131836095D01*
X126044895Y-132507006D01*
X125681800Y-133383594D01*
X123435443Y-133383594D01*
X123435041Y-133352677D01*
X123095671Y-132533364D01*
X122750928Y-132343077D01*
X121236005Y-133858000D01*
X120876795Y-133858000D01*
X119361872Y-132343077D01*
X119017129Y-132533364D01*
X118665444Y-133414591D01*
X116481800Y-133414591D01*
X116481800Y-133383594D01*
X116118705Y-132507006D01*
X115775171Y-132163472D01*
X119541477Y-132163472D01*
X121056400Y-133678395D01*
X122571323Y-132163472D01*
X122381036Y-131818729D01*
X121499809Y-131467044D01*
X120551077Y-131479359D01*
X119731764Y-131818729D01*
X119541477Y-132163472D01*
X115775171Y-132163472D01*
X115447794Y-131836095D01*
X114571206Y-131473000D01*
X113622394Y-131473000D01*
X112745806Y-131836095D01*
X112074895Y-132507006D01*
X111711800Y-133383594D01*
X107708074Y-133383594D01*
X107700373Y-124730546D01*
X146762109Y-124730546D01*
X146762109Y-126430546D01*
X146811392Y-126678311D01*
X146951740Y-126888355D01*
X147161784Y-127028703D01*
X147409549Y-127077986D01*
X149109549Y-127077986D01*
X149357314Y-127028703D01*
X149567358Y-126888355D01*
X149707706Y-126678311D01*
X149756989Y-126430546D01*
X149756989Y-124768646D01*
X151613509Y-124768646D01*
X151613509Y-126468646D01*
X151662792Y-126716411D01*
X151803140Y-126926455D01*
X151976201Y-127042091D01*
X151976200Y-133918982D01*
X152042054Y-134250054D01*
X152292911Y-134625489D01*
X152668345Y-134876346D01*
X153111200Y-134964435D01*
X153554054Y-134876346D01*
X153929489Y-134625489D01*
X154180346Y-134250055D01*
X154246200Y-133918983D01*
X154246200Y-127041755D01*
X154418758Y-126926455D01*
X154559106Y-126716411D01*
X154608389Y-126468646D01*
X154608389Y-124768646D01*
X154564101Y-124545992D01*
X169813736Y-124545992D01*
X169813736Y-126245992D01*
X169863019Y-126493757D01*
X170003367Y-126703801D01*
X170213411Y-126844149D01*
X170461176Y-126893432D01*
X172161176Y-126893432D01*
X172408941Y-126844149D01*
X172618985Y-126703801D01*
X172759333Y-126493757D01*
X172808616Y-126245992D01*
X172808616Y-124545992D01*
X172806090Y-124533292D01*
X174639736Y-124533292D01*
X174639736Y-126233292D01*
X174689019Y-126481057D01*
X174829367Y-126691101D01*
X175039411Y-126831449D01*
X175287176Y-126880732D01*
X175488694Y-126880732D01*
X175589247Y-127031221D01*
X175652706Y-127073623D01*
X175689928Y-127110845D01*
X175877863Y-127236420D01*
X176174400Y-127295404D01*
X176470937Y-127236420D01*
X176722329Y-127068445D01*
X176847755Y-126880732D01*
X176987176Y-126880732D01*
X177234941Y-126831449D01*
X177444985Y-126691101D01*
X177585333Y-126481057D01*
X177634616Y-126233292D01*
X177634616Y-124533292D01*
X177585333Y-124285527D01*
X177444985Y-124075483D01*
X177234941Y-123935135D01*
X176987176Y-123885852D01*
X175287176Y-123885852D01*
X175039411Y-123935135D01*
X174829367Y-124075483D01*
X174689019Y-124285527D01*
X174639736Y-124533292D01*
X172806090Y-124533292D01*
X172759333Y-124298227D01*
X172618985Y-124088183D01*
X172408941Y-123947835D01*
X172161176Y-123898552D01*
X170461176Y-123898552D01*
X170213411Y-123947835D01*
X170003367Y-124088183D01*
X169863019Y-124298227D01*
X169813736Y-124545992D01*
X154564101Y-124545992D01*
X154559106Y-124520881D01*
X154418758Y-124310837D01*
X154208714Y-124170489D01*
X153960949Y-124121206D01*
X152260949Y-124121206D01*
X152013184Y-124170489D01*
X151803140Y-124310837D01*
X151662792Y-124520881D01*
X151613509Y-124768646D01*
X149756989Y-124768646D01*
X149756989Y-124730546D01*
X149707706Y-124482781D01*
X149567358Y-124272737D01*
X149357314Y-124132389D01*
X149109549Y-124083106D01*
X147409549Y-124083106D01*
X147161784Y-124132389D01*
X146951740Y-124272737D01*
X146811392Y-124482781D01*
X146762109Y-124730546D01*
X107700373Y-124730546D01*
X107693225Y-116700120D01*
X109859485Y-116700120D01*
X109988733Y-116992923D01*
X110689006Y-117261188D01*
X111438635Y-117241050D01*
X112037667Y-116992923D01*
X112166915Y-116700120D01*
X111013200Y-115546405D01*
X109859485Y-116700120D01*
X107693225Y-116700120D01*
X107691749Y-115042606D01*
X109118812Y-115042606D01*
X109138950Y-115792235D01*
X109387077Y-116391267D01*
X109679880Y-116520515D01*
X110833595Y-115366800D01*
X111192805Y-115366800D01*
X112346520Y-116520515D01*
X112639323Y-116391267D01*
X112907588Y-115690994D01*
X112888807Y-114991850D01*
X114128200Y-114991850D01*
X114128200Y-115741750D01*
X114415174Y-116434567D01*
X114945433Y-116964826D01*
X115638250Y-117251800D01*
X116388150Y-117251800D01*
X117080967Y-116964826D01*
X117345673Y-116700120D01*
X119859485Y-116700120D01*
X119988733Y-116992923D01*
X120689006Y-117261188D01*
X121438635Y-117241050D01*
X122037667Y-116992923D01*
X122166915Y-116700120D01*
X121013200Y-115546405D01*
X119859485Y-116700120D01*
X117345673Y-116700120D01*
X117611226Y-116434567D01*
X117898200Y-115741750D01*
X117898200Y-115042606D01*
X119118812Y-115042606D01*
X119138950Y-115792235D01*
X119387077Y-116391267D01*
X119679880Y-116520515D01*
X120833595Y-115366800D01*
X121192805Y-115366800D01*
X122346520Y-116520515D01*
X122639323Y-116391267D01*
X122907588Y-115690994D01*
X122888807Y-114991850D01*
X124128200Y-114991850D01*
X124128200Y-115741750D01*
X124415174Y-116434567D01*
X124945433Y-116964826D01*
X125638250Y-117251800D01*
X126388150Y-117251800D01*
X127080967Y-116964826D01*
X127611226Y-116434567D01*
X127898200Y-115741750D01*
X127898200Y-114991850D01*
X127611226Y-114299033D01*
X127428993Y-114116800D01*
X129115760Y-114116800D01*
X129115760Y-116616800D01*
X129165043Y-116864565D01*
X129305391Y-117074609D01*
X129515435Y-117214957D01*
X129763200Y-117264240D01*
X132263200Y-117264240D01*
X132510965Y-117214957D01*
X132721009Y-117074609D01*
X132861357Y-116864565D01*
X132910640Y-116616800D01*
X132910640Y-114116800D01*
X132861357Y-113869035D01*
X132721009Y-113658991D01*
X132510965Y-113518643D01*
X132263200Y-113469360D01*
X129763200Y-113469360D01*
X129515435Y-113518643D01*
X129305391Y-113658991D01*
X129165043Y-113869035D01*
X129115760Y-114116800D01*
X127428993Y-114116800D01*
X127080967Y-113768774D01*
X126388150Y-113481800D01*
X125638250Y-113481800D01*
X124945433Y-113768774D01*
X124415174Y-114299033D01*
X124128200Y-114991850D01*
X122888807Y-114991850D01*
X122887450Y-114941365D01*
X122639323Y-114342333D01*
X122346520Y-114213085D01*
X121192805Y-115366800D01*
X120833595Y-115366800D01*
X119679880Y-114213085D01*
X119387077Y-114342333D01*
X119118812Y-115042606D01*
X117898200Y-115042606D01*
X117898200Y-114991850D01*
X117611226Y-114299033D01*
X117345673Y-114033480D01*
X119859485Y-114033480D01*
X121013200Y-115187195D01*
X122166915Y-114033480D01*
X122037667Y-113740677D01*
X121337394Y-113472412D01*
X120587765Y-113492550D01*
X119988733Y-113740677D01*
X119859485Y-114033480D01*
X117345673Y-114033480D01*
X117080967Y-113768774D01*
X116388150Y-113481800D01*
X115638250Y-113481800D01*
X114945433Y-113768774D01*
X114415174Y-114299033D01*
X114128200Y-114991850D01*
X112888807Y-114991850D01*
X112887450Y-114941365D01*
X112639323Y-114342333D01*
X112346520Y-114213085D01*
X111192805Y-115366800D01*
X110833595Y-115366800D01*
X109679880Y-114213085D01*
X109387077Y-114342333D01*
X109118812Y-115042606D01*
X107691749Y-115042606D01*
X107690851Y-114033480D01*
X109859485Y-114033480D01*
X111013200Y-115187195D01*
X112166915Y-114033480D01*
X112037667Y-113740677D01*
X111337394Y-113472412D01*
X110587765Y-113492550D01*
X109988733Y-113740677D01*
X109859485Y-114033480D01*
X107690851Y-114033480D01*
X107685932Y-108506126D01*
X135413800Y-108506126D01*
X135413800Y-108917874D01*
X135571369Y-109298280D01*
X135862520Y-109589431D01*
X136242926Y-109747000D01*
X136654674Y-109747000D01*
X137035080Y-109589431D01*
X137326231Y-109298280D01*
X137483800Y-108917874D01*
X137483800Y-108506126D01*
X137333800Y-108143993D01*
X137333800Y-106335378D01*
X137804652Y-105864526D01*
X139223800Y-105864526D01*
X139223800Y-106276274D01*
X139381369Y-106656680D01*
X139672520Y-106947831D01*
X140052926Y-107105400D01*
X140218998Y-107105400D01*
X141537202Y-108423605D01*
X141537201Y-110472354D01*
X141522313Y-110547201D01*
X141537201Y-110622048D01*
X141537201Y-110622052D01*
X141581297Y-110843737D01*
X141662200Y-110964817D01*
X141662200Y-111153074D01*
X141819769Y-111533480D01*
X142110920Y-111824631D01*
X142491326Y-111982200D01*
X142903074Y-111982200D01*
X143283480Y-111824631D01*
X143574631Y-111533480D01*
X143732200Y-111153074D01*
X143732200Y-110741326D01*
X143574631Y-110360920D01*
X143283480Y-110069769D01*
X143057201Y-109976041D01*
X143057201Y-108183647D01*
X143072089Y-108108800D01*
X143057201Y-108033953D01*
X143057201Y-108033949D01*
X143013105Y-107812264D01*
X142971303Y-107749703D01*
X142887530Y-107624327D01*
X142887528Y-107624325D01*
X142845130Y-107560872D01*
X142781677Y-107518474D01*
X141293800Y-106030598D01*
X141293800Y-105864526D01*
X141136231Y-105484120D01*
X140845080Y-105192969D01*
X140464674Y-105035400D01*
X140052926Y-105035400D01*
X139672520Y-105192969D01*
X139381369Y-105484120D01*
X139223800Y-105864526D01*
X137804652Y-105864526D01*
X138304624Y-105364555D01*
X138304626Y-105364552D01*
X139833978Y-103835200D01*
X142307054Y-103835200D01*
X142433950Y-104473145D01*
X142440598Y-104483095D01*
X142373400Y-104645326D01*
X142373400Y-105057074D01*
X142530969Y-105437480D01*
X142822120Y-105728631D01*
X143202526Y-105886200D01*
X143614274Y-105886200D01*
X143683975Y-105857329D01*
X144770600Y-106943954D01*
X144770600Y-108002546D01*
X144794830Y-108124357D01*
X144738569Y-108407200D01*
X144770600Y-108568231D01*
X144770600Y-109363769D01*
X144738569Y-109524800D01*
X144865464Y-110162745D01*
X145122349Y-110547201D01*
X145226831Y-110703569D01*
X145767655Y-111064936D01*
X146405600Y-111191831D01*
X146566631Y-111159800D01*
X148632169Y-111159800D01*
X148793200Y-111191831D01*
X149431145Y-111064936D01*
X149971969Y-110703569D01*
X150333336Y-110162745D01*
X150428200Y-109685831D01*
X150428200Y-109685830D01*
X150460231Y-109524800D01*
X150428200Y-109363769D01*
X150428200Y-108568231D01*
X150460231Y-108407200D01*
X150333336Y-107769255D01*
X149971969Y-107228431D01*
X149431145Y-106867064D01*
X148954231Y-106772200D01*
X148793200Y-106740169D01*
X148632169Y-106772200D01*
X148040600Y-106772200D01*
X148040600Y-106427740D01*
X148072630Y-106266714D01*
X148040600Y-106105688D01*
X148040600Y-106105684D01*
X147945736Y-105628770D01*
X147584369Y-105087946D01*
X147447853Y-104996729D01*
X145016338Y-102565215D01*
X144612030Y-102295065D01*
X143974085Y-102168169D01*
X143336140Y-102295065D01*
X142795317Y-102656432D01*
X142433950Y-103197255D01*
X142307054Y-103835200D01*
X139833978Y-103835200D01*
X143723582Y-99945596D01*
X146838049Y-99945596D01*
X146838049Y-100636156D01*
X146934722Y-100869545D01*
X147113351Y-101048173D01*
X147346740Y-101144846D01*
X148037299Y-101144846D01*
X148196049Y-100986096D01*
X148196049Y-99786846D01*
X148450049Y-99786846D01*
X148450049Y-100986096D01*
X148608799Y-101144846D01*
X149299358Y-101144846D01*
X149532747Y-101048173D01*
X149711376Y-100869545D01*
X149808049Y-100636156D01*
X149808049Y-99945596D01*
X149649299Y-99786846D01*
X148450049Y-99786846D01*
X148196049Y-99786846D01*
X146996799Y-99786846D01*
X146838049Y-99945596D01*
X143723582Y-99945596D01*
X144587779Y-99081400D01*
X146838049Y-99081400D01*
X146838049Y-99374096D01*
X146996799Y-99532846D01*
X148196049Y-99532846D01*
X148196049Y-99512846D01*
X148450049Y-99512846D01*
X148450049Y-99532846D01*
X149649299Y-99532846D01*
X149808049Y-99374096D01*
X149808049Y-99081400D01*
X155692793Y-99081400D01*
X156054926Y-99231400D01*
X156466674Y-99231400D01*
X156847080Y-99073831D01*
X157138231Y-98782680D01*
X157295800Y-98402274D01*
X157295800Y-97990526D01*
X157138231Y-97610120D01*
X156847080Y-97318969D01*
X156794798Y-97297313D01*
X156985831Y-97106280D01*
X157103531Y-96822126D01*
X159696200Y-96822126D01*
X159696200Y-97233874D01*
X159853769Y-97614280D01*
X160144920Y-97905431D01*
X160467481Y-98039040D01*
X160313267Y-98142083D01*
X160172919Y-98352127D01*
X160123636Y-98599892D01*
X160123636Y-100299892D01*
X160172919Y-100547657D01*
X160313267Y-100757701D01*
X160523311Y-100898049D01*
X160771076Y-100947332D01*
X162471076Y-100947332D01*
X162718841Y-100898049D01*
X162928885Y-100757701D01*
X163069233Y-100547657D01*
X163118516Y-100299892D01*
X163118516Y-98599892D01*
X163069233Y-98352127D01*
X162928885Y-98142083D01*
X162718841Y-98001735D01*
X162471076Y-97952452D01*
X162389087Y-97952452D01*
X162395964Y-97917876D01*
X162381076Y-97843028D01*
X162381076Y-97843024D01*
X162336980Y-97621339D01*
X162336980Y-97621338D01*
X162211405Y-97433403D01*
X162169005Y-97369947D01*
X162105549Y-97327547D01*
X161766200Y-96988198D01*
X161766200Y-96822126D01*
X161608631Y-96441720D01*
X161317480Y-96150569D01*
X160937074Y-95993000D01*
X160525326Y-95993000D01*
X160144920Y-96150569D01*
X159853769Y-96441720D01*
X159696200Y-96822126D01*
X157103531Y-96822126D01*
X157143400Y-96725874D01*
X157143400Y-96314126D01*
X156985831Y-95933720D01*
X156694680Y-95642569D01*
X156314274Y-95485000D01*
X155902526Y-95485000D01*
X155561079Y-95626432D01*
X155568600Y-95608274D01*
X155568600Y-95196526D01*
X155411031Y-94816120D01*
X155293600Y-94698689D01*
X155293600Y-92538550D01*
X158789000Y-92538550D01*
X158789000Y-93229109D01*
X158885673Y-93462498D01*
X159064301Y-93641127D01*
X159297690Y-93737800D01*
X159988250Y-93737800D01*
X160147000Y-93579050D01*
X160147000Y-92379800D01*
X158947750Y-92379800D01*
X158789000Y-92538550D01*
X155293600Y-92538550D01*
X155293600Y-91276491D01*
X158789000Y-91276491D01*
X158789000Y-91967050D01*
X158947750Y-92125800D01*
X160147000Y-92125800D01*
X160147000Y-90926550D01*
X160401000Y-90926550D01*
X160401000Y-92125800D01*
X160421000Y-92125800D01*
X160421000Y-92379800D01*
X160401000Y-92379800D01*
X160401000Y-93579050D01*
X160559750Y-93737800D01*
X161250310Y-93737800D01*
X161483699Y-93641127D01*
X161662327Y-93462498D01*
X161728904Y-93301767D01*
X161743375Y-93323425D01*
X162234582Y-93651639D01*
X162667744Y-93737800D01*
X162960256Y-93737800D01*
X163393418Y-93651639D01*
X163884625Y-93323425D01*
X164084000Y-93025039D01*
X164283375Y-93323425D01*
X164594000Y-93530978D01*
X164594001Y-98661088D01*
X164425769Y-98829320D01*
X164268200Y-99209726D01*
X164268200Y-99621474D01*
X164425769Y-100001880D01*
X164716920Y-100293031D01*
X165097326Y-100450600D01*
X165509074Y-100450600D01*
X165889480Y-100293031D01*
X166180631Y-100001880D01*
X166311952Y-99684842D01*
X169915076Y-99684842D01*
X169915076Y-100375402D01*
X170011749Y-100608791D01*
X170190378Y-100787419D01*
X170423767Y-100884092D01*
X171114326Y-100884092D01*
X171273076Y-100725342D01*
X171273076Y-99526092D01*
X171527076Y-99526092D01*
X171527076Y-100725342D01*
X171685826Y-100884092D01*
X172376385Y-100884092D01*
X172609774Y-100787419D01*
X172788403Y-100608791D01*
X172885076Y-100375402D01*
X172885076Y-99684842D01*
X172726326Y-99526092D01*
X171527076Y-99526092D01*
X171273076Y-99526092D01*
X170073826Y-99526092D01*
X169915076Y-99684842D01*
X166311952Y-99684842D01*
X166338200Y-99621474D01*
X166338200Y-99209726D01*
X166180631Y-98829320D01*
X166114000Y-98762689D01*
X166114000Y-98422782D01*
X169915076Y-98422782D01*
X169915076Y-99113342D01*
X170073826Y-99272092D01*
X171273076Y-99272092D01*
X171273076Y-98072842D01*
X171527076Y-98072842D01*
X171527076Y-99272092D01*
X172726326Y-99272092D01*
X172885076Y-99113342D01*
X172885076Y-98422782D01*
X172788403Y-98189393D01*
X172609774Y-98010765D01*
X172376385Y-97914092D01*
X171685826Y-97914092D01*
X171527076Y-98072842D01*
X171273076Y-98072842D01*
X171114326Y-97914092D01*
X170423767Y-97914092D01*
X170190378Y-98010765D01*
X170011749Y-98189393D01*
X169915076Y-98422782D01*
X166114000Y-98422782D01*
X166114000Y-93530978D01*
X166424625Y-93323425D01*
X166752839Y-92832218D01*
X166868092Y-92252800D01*
X166752839Y-91673382D01*
X166424625Y-91182175D01*
X165933418Y-90853961D01*
X165500256Y-90767800D01*
X165207744Y-90767800D01*
X164774582Y-90853961D01*
X164283375Y-91182175D01*
X164084000Y-91480561D01*
X163884625Y-91182175D01*
X163393418Y-90853961D01*
X162960256Y-90767800D01*
X162667744Y-90767800D01*
X162234582Y-90853961D01*
X161743375Y-91182175D01*
X161728904Y-91203833D01*
X161662327Y-91043102D01*
X161483699Y-90864473D01*
X161250310Y-90767800D01*
X160559750Y-90767800D01*
X160401000Y-90926550D01*
X160147000Y-90926550D01*
X159988250Y-90767800D01*
X159297690Y-90767800D01*
X159064301Y-90864473D01*
X158885673Y-91043102D01*
X158789000Y-91276491D01*
X155293600Y-91276491D01*
X155293600Y-82898111D01*
X155411031Y-82780680D01*
X155568600Y-82400274D01*
X155568600Y-81988526D01*
X155411031Y-81608120D01*
X155119880Y-81316969D01*
X154739474Y-81159400D01*
X154327726Y-81159400D01*
X153947320Y-81316969D01*
X153656169Y-81608120D01*
X153498600Y-81988526D01*
X153498600Y-82400274D01*
X153656169Y-82780680D01*
X153773601Y-82898112D01*
X153773600Y-94698689D01*
X153656169Y-94816120D01*
X153498600Y-95196526D01*
X153498600Y-95608274D01*
X153561447Y-95760000D01*
X144963333Y-95760000D01*
X144888485Y-95745112D01*
X144813637Y-95760000D01*
X144813633Y-95760000D01*
X144640090Y-95794520D01*
X144591947Y-95804096D01*
X144442566Y-95903910D01*
X144340556Y-95972071D01*
X144298156Y-96035527D01*
X144043755Y-96289928D01*
X143817474Y-96196200D01*
X143405726Y-96196200D01*
X143025320Y-96353769D01*
X142734169Y-96644920D01*
X142576600Y-97025326D01*
X142576600Y-97437074D01*
X142734169Y-97817480D01*
X143025320Y-98108631D01*
X143047997Y-98118024D01*
X137053048Y-104112974D01*
X137053045Y-104112976D01*
X135884647Y-105281375D01*
X135810751Y-105330751D01*
X135615148Y-105623491D01*
X135563800Y-105881636D01*
X135563800Y-105881639D01*
X135546463Y-105968800D01*
X135563800Y-106055961D01*
X135563801Y-108143991D01*
X135413800Y-108506126D01*
X107685932Y-108506126D01*
X107669010Y-89495747D01*
X107701070Y-89543728D01*
X107764529Y-89586130D01*
X107931000Y-89752601D01*
X107931000Y-89918674D01*
X108088569Y-90299080D01*
X108379720Y-90590231D01*
X108760126Y-90747800D01*
X109171874Y-90747800D01*
X109552280Y-90590231D01*
X109666501Y-90476010D01*
X109666501Y-99241396D01*
X109599130Y-99308767D01*
X109535671Y-99351169D01*
X109367696Y-99602562D01*
X109323600Y-99824247D01*
X109323600Y-99824251D01*
X109308712Y-99899098D01*
X109323600Y-99973945D01*
X109323601Y-104335021D01*
X109012975Y-104542575D01*
X108684761Y-105033782D01*
X108569508Y-105613200D01*
X108684761Y-106192618D01*
X109012975Y-106683825D01*
X109504182Y-107012039D01*
X109937344Y-107098200D01*
X110229856Y-107098200D01*
X110663018Y-107012039D01*
X111154225Y-106683825D01*
X111353600Y-106385439D01*
X111552975Y-106683825D01*
X112044182Y-107012039D01*
X112477344Y-107098200D01*
X112769856Y-107098200D01*
X113203018Y-107012039D01*
X113694225Y-106683825D01*
X113893600Y-106385439D01*
X114092975Y-106683825D01*
X114584182Y-107012039D01*
X115017344Y-107098200D01*
X115309856Y-107098200D01*
X115743018Y-107012039D01*
X116234225Y-106683825D01*
X116433600Y-106385439D01*
X116632975Y-106683825D01*
X117124182Y-107012039D01*
X117557344Y-107098200D01*
X117849856Y-107098200D01*
X118283018Y-107012039D01*
X118774225Y-106683825D01*
X118973600Y-106385439D01*
X119172975Y-106683825D01*
X119664182Y-107012039D01*
X120097344Y-107098200D01*
X120389856Y-107098200D01*
X120823018Y-107012039D01*
X121314225Y-106683825D01*
X121513600Y-106385439D01*
X121712975Y-106683825D01*
X122204182Y-107012039D01*
X122637344Y-107098200D01*
X122929856Y-107098200D01*
X123363018Y-107012039D01*
X123854225Y-106683825D01*
X124053600Y-106385439D01*
X124252975Y-106683825D01*
X124744182Y-107012039D01*
X125177344Y-107098200D01*
X125469856Y-107098200D01*
X125903018Y-107012039D01*
X126394225Y-106683825D01*
X126406416Y-106665581D01*
X126415443Y-106710965D01*
X126555791Y-106921009D01*
X126765835Y-107061357D01*
X127013600Y-107110640D01*
X128713600Y-107110640D01*
X128961365Y-107061357D01*
X129171409Y-106921009D01*
X129311757Y-106710965D01*
X129361040Y-106463200D01*
X129361040Y-104763200D01*
X129311757Y-104515435D01*
X129171409Y-104305391D01*
X128961365Y-104165043D01*
X128713600Y-104115760D01*
X128623600Y-104115760D01*
X128623600Y-98768800D01*
X137084960Y-98768800D01*
X137084960Y-100468800D01*
X137134243Y-100716565D01*
X137274591Y-100926609D01*
X137484635Y-101066957D01*
X137732400Y-101116240D01*
X139432400Y-101116240D01*
X139680165Y-101066957D01*
X139890209Y-100926609D01*
X140030557Y-100716565D01*
X140079840Y-100468800D01*
X140079840Y-98768800D01*
X140030557Y-98521035D01*
X139890209Y-98310991D01*
X139680165Y-98170643D01*
X139432400Y-98121360D01*
X137732400Y-98121360D01*
X137484635Y-98170643D01*
X137274591Y-98310991D01*
X137134243Y-98521035D01*
X137084960Y-98768800D01*
X128623600Y-98768800D01*
X128623600Y-96457568D01*
X128878308Y-96577186D01*
X129108200Y-96456519D01*
X129108200Y-95262700D01*
X129362200Y-95262700D01*
X129362200Y-96456519D01*
X129592092Y-96577186D01*
X130116558Y-96330883D01*
X130506845Y-95902624D01*
X130676676Y-95492590D01*
X130555355Y-95262700D01*
X129362200Y-95262700D01*
X129108200Y-95262700D01*
X129088200Y-95262700D01*
X129088200Y-95008700D01*
X129108200Y-95008700D01*
X129108200Y-94988700D01*
X129362200Y-94988700D01*
X129362200Y-95008700D01*
X130555355Y-95008700D01*
X130676676Y-94778810D01*
X130506845Y-94368776D01*
X130116558Y-93940517D01*
X129986722Y-93879543D01*
X130305825Y-93666325D01*
X130634039Y-93175118D01*
X130674549Y-92971460D01*
X130782520Y-93079431D01*
X131162926Y-93237000D01*
X131574674Y-93237000D01*
X131955080Y-93079431D01*
X132246231Y-92788280D01*
X132403800Y-92407874D01*
X132403800Y-91996126D01*
X132246231Y-91615720D01*
X131955080Y-91324569D01*
X131874800Y-91291316D01*
X131874800Y-52659411D01*
X131992231Y-52541980D01*
X132149800Y-52161574D01*
X132149800Y-52062814D01*
X132269369Y-52351480D01*
X132372999Y-52455110D01*
X132372999Y-52858749D01*
X132373000Y-76475289D01*
X132320169Y-76528120D01*
X132162600Y-76908526D01*
X132162600Y-77320274D01*
X132320169Y-77700680D01*
X132611320Y-77991831D01*
X132991726Y-78149400D01*
X133403474Y-78149400D01*
X133783880Y-77991831D01*
X134063201Y-77712510D01*
X134063201Y-79001488D01*
X133945769Y-79118920D01*
X133788200Y-79499326D01*
X133788200Y-79911074D01*
X133945769Y-80291480D01*
X134236920Y-80582631D01*
X134617326Y-80740200D01*
X135029074Y-80740200D01*
X135180801Y-80677353D01*
X135180801Y-81168397D01*
X134935798Y-81413400D01*
X134769726Y-81413400D01*
X134389320Y-81570969D01*
X134098169Y-81862120D01*
X133940600Y-82242526D01*
X133940600Y-82654274D01*
X134098169Y-83034680D01*
X134389320Y-83325831D01*
X134769726Y-83483400D01*
X135181474Y-83483400D01*
X135561880Y-83325831D01*
X135853031Y-83034680D01*
X136010600Y-82654274D01*
X136010600Y-82488202D01*
X136249791Y-82249011D01*
X136444975Y-82541125D01*
X136743361Y-82740500D01*
X136444975Y-82939875D01*
X136116761Y-83431082D01*
X136001508Y-84010500D01*
X136116761Y-84589918D01*
X136444975Y-85081125D01*
X136936182Y-85409339D01*
X137369344Y-85495500D01*
X137661856Y-85495500D01*
X138095018Y-85409339D01*
X138586225Y-85081125D01*
X138914439Y-84589918D01*
X139029692Y-84010500D01*
X138914439Y-83431082D01*
X138586225Y-82939875D01*
X138287839Y-82740500D01*
X138586225Y-82541125D01*
X138914439Y-82049918D01*
X139029692Y-81470500D01*
X138914439Y-80891082D01*
X138586225Y-80399875D01*
X138267122Y-80186657D01*
X138396958Y-80125683D01*
X138602970Y-79899627D01*
X139122200Y-79899627D01*
X139122200Y-80311375D01*
X139279769Y-80691781D01*
X139570920Y-80982932D01*
X139951326Y-81140501D01*
X140363074Y-81140501D01*
X140743480Y-80982932D01*
X141034631Y-80691781D01*
X141189001Y-80319097D01*
X141189001Y-96043800D01*
X141068926Y-96043800D01*
X140688520Y-96201369D01*
X140397369Y-96492520D01*
X140239800Y-96872926D01*
X140239800Y-97284674D01*
X140397369Y-97665080D01*
X140688520Y-97956231D01*
X141068926Y-98113800D01*
X141480674Y-98113800D01*
X141861080Y-97956231D01*
X142152231Y-97665080D01*
X142309800Y-97284674D01*
X142309800Y-97118602D01*
X142433474Y-96994928D01*
X142496930Y-96952528D01*
X142664905Y-96701136D01*
X142709001Y-96479451D01*
X142709001Y-96479447D01*
X142723889Y-96404600D01*
X142709001Y-96329753D01*
X142709001Y-93739778D01*
X142761600Y-93750240D01*
X144461600Y-93750240D01*
X144709365Y-93700957D01*
X144919409Y-93560609D01*
X145059757Y-93350565D01*
X145068784Y-93305181D01*
X145080975Y-93323425D01*
X145572182Y-93651639D01*
X146005344Y-93737800D01*
X146297856Y-93737800D01*
X146731018Y-93651639D01*
X147222225Y-93323425D01*
X147421600Y-93025039D01*
X147620975Y-93323425D01*
X148112182Y-93651639D01*
X148545344Y-93737800D01*
X148837856Y-93737800D01*
X149271018Y-93651639D01*
X149762225Y-93323425D01*
X149975443Y-93004322D01*
X150036417Y-93134158D01*
X150464676Y-93524445D01*
X150874710Y-93694276D01*
X151104600Y-93572955D01*
X151104600Y-92379800D01*
X151358600Y-92379800D01*
X151358600Y-93572955D01*
X151588490Y-93694276D01*
X151998524Y-93524445D01*
X152426783Y-93134158D01*
X152673086Y-92609692D01*
X152552419Y-92379800D01*
X151358600Y-92379800D01*
X151104600Y-92379800D01*
X151084600Y-92379800D01*
X151084600Y-92125800D01*
X151104600Y-92125800D01*
X151104600Y-90932645D01*
X151358600Y-90932645D01*
X151358600Y-92125800D01*
X152552419Y-92125800D01*
X152673086Y-91895908D01*
X152426783Y-91371442D01*
X151998524Y-90981155D01*
X151588490Y-90811324D01*
X151358600Y-90932645D01*
X151104600Y-90932645D01*
X150874710Y-90811324D01*
X150464676Y-90981155D01*
X150036417Y-91371442D01*
X149975443Y-91501278D01*
X149762225Y-91182175D01*
X149451600Y-90974622D01*
X149451600Y-89908511D01*
X149569031Y-89791080D01*
X149726600Y-89410674D01*
X149726600Y-88998926D01*
X149569031Y-88618520D01*
X149277880Y-88327369D01*
X148897474Y-88169800D01*
X148485726Y-88169800D01*
X148105320Y-88327369D01*
X147814169Y-88618520D01*
X147656600Y-88998926D01*
X147656600Y-89410674D01*
X147814169Y-89791080D01*
X147931600Y-89908511D01*
X147931600Y-90974622D01*
X147620975Y-91182175D01*
X147421600Y-91480561D01*
X147222225Y-91182175D01*
X146731018Y-90853961D01*
X146708400Y-90849462D01*
X146708400Y-85946111D01*
X146825831Y-85828680D01*
X146983400Y-85448274D01*
X146983400Y-85036526D01*
X146934533Y-84918550D01*
X148324200Y-84918550D01*
X148324200Y-85609110D01*
X148420873Y-85842499D01*
X148599502Y-86021127D01*
X148832891Y-86117800D01*
X149523450Y-86117800D01*
X149682200Y-85959050D01*
X149682200Y-84759800D01*
X149936200Y-84759800D01*
X149936200Y-85959050D01*
X150094950Y-86117800D01*
X150785509Y-86117800D01*
X151018898Y-86021127D01*
X151197527Y-85842499D01*
X151294200Y-85609110D01*
X151294200Y-84918550D01*
X151135450Y-84759800D01*
X149936200Y-84759800D01*
X149682200Y-84759800D01*
X148482950Y-84759800D01*
X148324200Y-84918550D01*
X146934533Y-84918550D01*
X146825831Y-84656120D01*
X146534680Y-84364969D01*
X146477105Y-84341121D01*
X146468201Y-84296355D01*
X146468201Y-78200200D01*
X146814674Y-78200200D01*
X147195080Y-78042631D01*
X147486231Y-77751480D01*
X147643800Y-77371074D01*
X147643800Y-76959326D01*
X147486231Y-76578920D01*
X147368800Y-76461489D01*
X147368800Y-74472800D01*
X148295108Y-74472800D01*
X148410361Y-75052218D01*
X148738575Y-75543425D01*
X149036961Y-75742800D01*
X148738575Y-75942175D01*
X148410361Y-76433382D01*
X148295108Y-77012800D01*
X148410361Y-77592218D01*
X148738575Y-78083425D01*
X149036961Y-78282800D01*
X148738575Y-78482175D01*
X148410361Y-78973382D01*
X148295108Y-79552800D01*
X148410361Y-80132218D01*
X148738575Y-80623425D01*
X149036961Y-80822800D01*
X148738575Y-81022175D01*
X148410361Y-81513382D01*
X148295108Y-82092800D01*
X148410361Y-82672218D01*
X148738575Y-83163425D01*
X148760233Y-83177896D01*
X148599502Y-83244473D01*
X148420873Y-83423101D01*
X148324200Y-83656490D01*
X148324200Y-84347050D01*
X148482950Y-84505800D01*
X149682200Y-84505800D01*
X149682200Y-84485800D01*
X149936200Y-84485800D01*
X149936200Y-84505800D01*
X151135450Y-84505800D01*
X151294200Y-84347050D01*
X151294200Y-83656490D01*
X151197527Y-83423101D01*
X151018898Y-83244473D01*
X150858167Y-83177896D01*
X150879825Y-83163425D01*
X151208039Y-82672218D01*
X151323292Y-82092800D01*
X151208039Y-81513382D01*
X150879825Y-81022175D01*
X150581439Y-80822800D01*
X150879825Y-80623425D01*
X151208039Y-80132218D01*
X151323292Y-79552800D01*
X151208039Y-78973382D01*
X150879825Y-78482175D01*
X150581439Y-78282800D01*
X150879825Y-78083425D01*
X151208039Y-77592218D01*
X151323292Y-77012800D01*
X151208039Y-76433382D01*
X150879825Y-75942175D01*
X150581439Y-75742800D01*
X150879825Y-75543425D01*
X151208039Y-75052218D01*
X151323292Y-74472800D01*
X151208039Y-73893382D01*
X150879825Y-73402175D01*
X150388618Y-73073961D01*
X149955456Y-72987800D01*
X149662944Y-72987800D01*
X149229782Y-73073961D01*
X148738575Y-73402175D01*
X148410361Y-73893382D01*
X148295108Y-74472800D01*
X147368800Y-74472800D01*
X147368800Y-72091512D01*
X147486231Y-71974081D01*
X147643800Y-71593675D01*
X147643800Y-71181927D01*
X147486231Y-70801521D01*
X147195080Y-70510370D01*
X146814674Y-70352801D01*
X146468201Y-70352801D01*
X146468201Y-44599726D01*
X153041400Y-44599726D01*
X153041400Y-45011474D01*
X153198969Y-45391880D01*
X153316401Y-45509312D01*
X153316400Y-67038089D01*
X153198969Y-67155520D01*
X153041400Y-67535926D01*
X153041400Y-67947674D01*
X153198969Y-68328080D01*
X153490120Y-68619231D01*
X153870526Y-68776800D01*
X154282274Y-68776800D01*
X154662680Y-68619231D01*
X154953831Y-68328080D01*
X155111400Y-67947674D01*
X155111400Y-67535926D01*
X154953831Y-67155520D01*
X154836400Y-67038089D01*
X154836400Y-60913121D01*
X166733000Y-60913121D01*
X166733001Y-63054880D01*
X166833667Y-63560963D01*
X167217136Y-64134865D01*
X167791038Y-64518334D01*
X168468000Y-64652990D01*
X169144963Y-64518334D01*
X169718865Y-64134865D01*
X170102334Y-63560963D01*
X170203000Y-63054880D01*
X170203000Y-60913120D01*
X170102334Y-60407037D01*
X169718865Y-59833135D01*
X169144962Y-59449666D01*
X168468000Y-59315010D01*
X167791037Y-59449666D01*
X167217135Y-59833135D01*
X166833666Y-60407038D01*
X166733000Y-60913121D01*
X154836400Y-60913121D01*
X154836400Y-57150304D01*
X157661986Y-57150304D01*
X157661986Y-59550304D01*
X157711269Y-59798069D01*
X157851617Y-60008113D01*
X158061661Y-60148461D01*
X158309426Y-60197744D01*
X160709426Y-60197744D01*
X160957191Y-60148461D01*
X161167235Y-60008113D01*
X161307583Y-59798069D01*
X161356866Y-59550304D01*
X161356866Y-57150304D01*
X161307583Y-56902539D01*
X161167235Y-56692495D01*
X160957191Y-56552147D01*
X160709426Y-56502864D01*
X160314879Y-56502864D01*
X160548870Y-56405942D01*
X161065064Y-55889748D01*
X161344426Y-55215308D01*
X161344426Y-54485300D01*
X161065064Y-53810860D01*
X160548870Y-53294666D01*
X160079638Y-53100304D01*
X160548870Y-52905942D01*
X161065064Y-52389748D01*
X161344426Y-51715308D01*
X161344426Y-50985300D01*
X161185189Y-50600869D01*
X173106631Y-62522312D01*
X173233666Y-63160963D01*
X173617135Y-63734865D01*
X174191037Y-64118334D01*
X174697120Y-64219000D01*
X176838880Y-64219000D01*
X177344963Y-64118334D01*
X177918865Y-63734865D01*
X178302334Y-63160963D01*
X178436990Y-62484000D01*
X178302334Y-61807037D01*
X177918865Y-61233135D01*
X177344963Y-60849666D01*
X176838880Y-60749000D01*
X174697120Y-60749000D01*
X174191037Y-60849666D01*
X173826900Y-61092975D01*
X165417924Y-52684000D01*
X168999010Y-52684000D01*
X169133666Y-53360963D01*
X169517135Y-53934865D01*
X170091037Y-54318334D01*
X170534455Y-54406535D01*
X170333666Y-54707037D01*
X170199010Y-55384000D01*
X170333666Y-56060963D01*
X170717135Y-56634865D01*
X171291037Y-57018334D01*
X171797120Y-57119000D01*
X173938880Y-57119000D01*
X174444963Y-57018334D01*
X175018865Y-56634865D01*
X175402334Y-56060963D01*
X175536990Y-55384000D01*
X175402334Y-54707037D01*
X175018865Y-54133135D01*
X174444963Y-53749666D01*
X174001545Y-53661465D01*
X174202334Y-53360963D01*
X174336990Y-52684000D01*
X174202334Y-52007037D01*
X173818865Y-51433135D01*
X173244963Y-51049666D01*
X172738880Y-50949000D01*
X170597120Y-50949000D01*
X170091037Y-51049666D01*
X169517135Y-51433135D01*
X169133666Y-52007037D01*
X168999010Y-52684000D01*
X165417924Y-52684000D01*
X161228676Y-48494753D01*
X161344426Y-48215308D01*
X161344426Y-47485300D01*
X161065064Y-46810860D01*
X160548870Y-46294666D01*
X159874430Y-46015304D01*
X159144422Y-46015304D01*
X158469982Y-46294666D01*
X157953788Y-46810860D01*
X157674426Y-47485300D01*
X157674426Y-48215308D01*
X157953788Y-48889748D01*
X158469982Y-49405942D01*
X158939214Y-49600304D01*
X158469982Y-49794666D01*
X157953788Y-50310860D01*
X157674426Y-50985300D01*
X157674426Y-51715308D01*
X157953788Y-52389748D01*
X158469982Y-52905942D01*
X158939214Y-53100304D01*
X158469982Y-53294666D01*
X157953788Y-53810860D01*
X157674426Y-54485300D01*
X157674426Y-55215308D01*
X157953788Y-55889748D01*
X158469982Y-56405942D01*
X158703973Y-56502864D01*
X158309426Y-56502864D01*
X158061661Y-56552147D01*
X157851617Y-56692495D01*
X157711269Y-56902539D01*
X157661986Y-57150304D01*
X154836400Y-57150304D01*
X154836400Y-45509311D01*
X154953831Y-45391880D01*
X155111400Y-45011474D01*
X155111400Y-44688474D01*
X173143000Y-44688474D01*
X173143000Y-45227526D01*
X173349286Y-45725546D01*
X173730454Y-46106714D01*
X174228474Y-46313000D01*
X174767526Y-46313000D01*
X175265546Y-46106714D01*
X175646714Y-45725546D01*
X175853000Y-45227526D01*
X175853000Y-44688474D01*
X175646714Y-44190454D01*
X175265546Y-43809286D01*
X174767526Y-43603000D01*
X174228474Y-43603000D01*
X173730454Y-43809286D01*
X173349286Y-44190454D01*
X173143000Y-44688474D01*
X155111400Y-44688474D01*
X155111400Y-44599726D01*
X154953831Y-44219320D01*
X154662680Y-43928169D01*
X154282274Y-43770600D01*
X153870526Y-43770600D01*
X153490120Y-43928169D01*
X153198969Y-44219320D01*
X153041400Y-44599726D01*
X146468201Y-44599726D01*
X146468201Y-42148474D01*
X175683000Y-42148474D01*
X175683000Y-42687526D01*
X175889286Y-43185546D01*
X176270454Y-43566714D01*
X176768474Y-43773000D01*
X177307526Y-43773000D01*
X177805546Y-43566714D01*
X178186714Y-43185546D01*
X178393000Y-42687526D01*
X178393000Y-42148474D01*
X178186714Y-41650454D01*
X177805546Y-41269286D01*
X177307526Y-41063000D01*
X176768474Y-41063000D01*
X176270454Y-41269286D01*
X175889286Y-41650454D01*
X175683000Y-42148474D01*
X146468201Y-42148474D01*
X146468201Y-41897047D01*
X146483089Y-41822200D01*
X146468201Y-41747353D01*
X146468201Y-41747349D01*
X146424105Y-41525664D01*
X146256130Y-41274272D01*
X146192671Y-41231870D01*
X146119800Y-41158999D01*
X146119800Y-40992926D01*
X146051392Y-40827774D01*
X173727831Y-40827774D01*
X173792131Y-41065611D01*
X174300342Y-41245333D01*
X174838644Y-41216892D01*
X175203869Y-41065611D01*
X175268169Y-40827774D01*
X174498000Y-40057605D01*
X173727831Y-40827774D01*
X146051392Y-40827774D01*
X145962231Y-40612520D01*
X145671080Y-40321369D01*
X145290674Y-40163800D01*
X144878926Y-40163800D01*
X144498520Y-40321369D01*
X144207369Y-40612520D01*
X144049800Y-40992926D01*
X144049800Y-41404674D01*
X144207369Y-41785080D01*
X144498520Y-42076231D01*
X144878926Y-42233800D01*
X144948202Y-42233800D01*
X144948201Y-82988200D01*
X144777326Y-82988200D01*
X144396920Y-83145769D01*
X144105769Y-83436920D01*
X143948200Y-83817326D01*
X143948200Y-83983398D01*
X143127128Y-84804471D01*
X143063672Y-84846871D01*
X143021272Y-84910327D01*
X143021271Y-84910328D01*
X142895697Y-85098263D01*
X142836712Y-85394800D01*
X142851601Y-85469652D01*
X142851600Y-90755360D01*
X142761600Y-90755360D01*
X142709001Y-90765822D01*
X142709001Y-80486200D01*
X143055474Y-80486200D01*
X143435880Y-80328631D01*
X143727031Y-80037480D01*
X143884600Y-79657074D01*
X143884600Y-79245326D01*
X143727031Y-78864920D01*
X143609600Y-78747489D01*
X143609600Y-75729212D01*
X143727031Y-75611781D01*
X143884600Y-75231375D01*
X143884600Y-74819627D01*
X143727031Y-74439221D01*
X143435880Y-74148070D01*
X143055474Y-73990501D01*
X142709001Y-73990501D01*
X142709001Y-64369912D01*
X142826432Y-64252481D01*
X142984001Y-63872075D01*
X142984001Y-63460327D01*
X142826432Y-63079921D01*
X142535281Y-62788770D01*
X142154875Y-62631201D01*
X141743127Y-62631201D01*
X141362721Y-62788770D01*
X141071570Y-63079921D01*
X140914001Y-63460327D01*
X140914001Y-63872075D01*
X141071570Y-64252481D01*
X141189002Y-64369913D01*
X141189002Y-67308320D01*
X141136231Y-67180920D01*
X140845080Y-66889769D01*
X140464674Y-66732200D01*
X140052926Y-66732200D01*
X139672520Y-66889769D01*
X139381369Y-67180920D01*
X139223800Y-67561326D01*
X139223800Y-67973074D01*
X139381369Y-68353480D01*
X139397201Y-68369312D01*
X139397200Y-79401790D01*
X139279769Y-79519221D01*
X139122200Y-79899627D01*
X138602970Y-79899627D01*
X138787245Y-79697424D01*
X138957076Y-79287390D01*
X138835755Y-79057500D01*
X137642600Y-79057500D01*
X137642600Y-79077500D01*
X137388600Y-79077500D01*
X137388600Y-79057500D01*
X137368600Y-79057500D01*
X137368600Y-78803500D01*
X137388600Y-78803500D01*
X137388600Y-78783500D01*
X137642600Y-78783500D01*
X137642600Y-78803500D01*
X138835755Y-78803500D01*
X138957076Y-78573610D01*
X138787245Y-78163576D01*
X138396958Y-77735317D01*
X138267122Y-77674343D01*
X138586225Y-77461125D01*
X138914439Y-76969918D01*
X139029692Y-76390500D01*
X138914439Y-75811082D01*
X138586225Y-75319875D01*
X138567981Y-75307684D01*
X138613365Y-75298657D01*
X138823409Y-75158309D01*
X138963757Y-74948265D01*
X139013040Y-74700500D01*
X139013040Y-73000500D01*
X138963757Y-72752735D01*
X138823409Y-72542691D01*
X138613365Y-72402343D01*
X138365600Y-72353060D01*
X138275600Y-72353060D01*
X138275600Y-71366511D01*
X138393031Y-71249080D01*
X138550600Y-70868674D01*
X138550600Y-70456926D01*
X138393031Y-70076520D01*
X138051080Y-69734569D01*
X137670674Y-69577000D01*
X137258926Y-69577000D01*
X136878520Y-69734569D01*
X136700800Y-69912289D01*
X136700800Y-63375623D01*
X136773435Y-63424157D01*
X137021200Y-63473440D01*
X138721200Y-63473440D01*
X138968965Y-63424157D01*
X139179009Y-63283809D01*
X139319357Y-63073765D01*
X139368640Y-62826000D01*
X139368640Y-61126000D01*
X139319357Y-60878235D01*
X139179009Y-60668191D01*
X138968965Y-60527843D01*
X138865492Y-60507261D01*
X139142845Y-60202924D01*
X139312676Y-59792890D01*
X139191355Y-59563000D01*
X137998200Y-59563000D01*
X137998200Y-59583000D01*
X137744200Y-59583000D01*
X137744200Y-59563000D01*
X137724200Y-59563000D01*
X137724200Y-59309000D01*
X137744200Y-59309000D01*
X137744200Y-59289000D01*
X137998200Y-59289000D01*
X137998200Y-59309000D01*
X139191355Y-59309000D01*
X139312676Y-59079110D01*
X139142845Y-58669076D01*
X138752558Y-58240817D01*
X138622722Y-58179843D01*
X138941825Y-57966625D01*
X139270039Y-57475418D01*
X139385292Y-56896000D01*
X139270039Y-56316582D01*
X138941825Y-55825375D01*
X138643439Y-55626000D01*
X138941825Y-55426625D01*
X139270039Y-54935418D01*
X139385292Y-54356000D01*
X139270039Y-53776582D01*
X138941825Y-53285375D01*
X138643439Y-53086000D01*
X138941825Y-52886625D01*
X139270039Y-52395418D01*
X139385292Y-51816000D01*
X139270039Y-51236582D01*
X138941825Y-50745375D01*
X138643439Y-50546000D01*
X138941825Y-50346625D01*
X139270039Y-49855418D01*
X139385292Y-49276000D01*
X139270039Y-48696582D01*
X138941825Y-48205375D01*
X138643439Y-48006000D01*
X138941825Y-47806625D01*
X139270039Y-47315418D01*
X139385292Y-46736000D01*
X139270039Y-46156582D01*
X138941825Y-45665375D01*
X138643439Y-45466000D01*
X138941825Y-45266625D01*
X139270039Y-44775418D01*
X139385292Y-44196000D01*
X139270039Y-43616582D01*
X138941825Y-43125375D01*
X138450618Y-42797161D01*
X138017456Y-42711000D01*
X137724944Y-42711000D01*
X137291782Y-42797161D01*
X136800575Y-43125375D01*
X136472361Y-43616582D01*
X136357108Y-44196000D01*
X136472361Y-44775418D01*
X136800575Y-45266625D01*
X137098961Y-45466000D01*
X136800575Y-45665375D01*
X136613646Y-45945135D01*
X136527080Y-45858569D01*
X136146674Y-45701000D01*
X135734926Y-45701000D01*
X135354520Y-45858569D01*
X135063369Y-46149720D01*
X134905800Y-46530126D01*
X134905800Y-46941874D01*
X135063369Y-47322280D01*
X135180800Y-47439711D01*
X135180800Y-48303847D01*
X135029074Y-48241000D01*
X134617326Y-48241000D01*
X134236920Y-48398569D01*
X133945769Y-48689720D01*
X133788200Y-49070126D01*
X133788200Y-49481874D01*
X133945769Y-49862280D01*
X134063200Y-49979711D01*
X134063200Y-51273000D01*
X134024231Y-51178920D01*
X133733080Y-50887769D01*
X133352674Y-50730200D01*
X132940926Y-50730200D01*
X132560520Y-50887769D01*
X132269369Y-51178920D01*
X132111800Y-51559326D01*
X132111800Y-51658086D01*
X131992231Y-51369420D01*
X131701080Y-51078269D01*
X131320674Y-50920700D01*
X130908926Y-50920700D01*
X130712061Y-51002244D01*
X130683357Y-50857935D01*
X130543009Y-50647891D01*
X130332965Y-50507543D01*
X130085200Y-50458260D01*
X128385200Y-50458260D01*
X128137435Y-50507543D01*
X127927391Y-50647891D01*
X127787043Y-50857935D01*
X127778016Y-50903319D01*
X127765825Y-50885075D01*
X127274618Y-50556861D01*
X126841456Y-50470700D01*
X126548944Y-50470700D01*
X126115782Y-50556861D01*
X125624575Y-50885075D01*
X125296361Y-51376282D01*
X125181108Y-51955700D01*
X125296361Y-52535118D01*
X125624575Y-53026325D01*
X125922961Y-53225700D01*
X125624575Y-53425075D01*
X125296361Y-53916282D01*
X125181108Y-54495700D01*
X125296361Y-55075118D01*
X125624575Y-55566325D01*
X125922961Y-55765700D01*
X125624575Y-55965075D01*
X125296361Y-56456282D01*
X125181108Y-57035700D01*
X125296361Y-57615118D01*
X125624575Y-58106325D01*
X125922961Y-58305700D01*
X125624575Y-58505075D01*
X125296361Y-58996282D01*
X125181108Y-59575700D01*
X125296361Y-60155118D01*
X125624575Y-60646325D01*
X125922961Y-60845700D01*
X125624575Y-61045075D01*
X125296361Y-61536282D01*
X125181108Y-62115700D01*
X125296361Y-62695118D01*
X125624575Y-63186325D01*
X125922961Y-63385700D01*
X125624575Y-63585075D01*
X125296361Y-64076282D01*
X125181108Y-64655700D01*
X125296361Y-65235118D01*
X125624575Y-65726325D01*
X125922961Y-65925700D01*
X125624575Y-66125075D01*
X125296361Y-66616282D01*
X125181108Y-67195700D01*
X125296361Y-67775118D01*
X125624575Y-68266325D01*
X125922961Y-68465700D01*
X125624575Y-68665075D01*
X125296361Y-69156282D01*
X125181108Y-69735700D01*
X125296361Y-70315118D01*
X125624575Y-70806325D01*
X125922961Y-71005700D01*
X125624575Y-71205075D01*
X125296361Y-71696282D01*
X125181108Y-72275700D01*
X125296361Y-72855118D01*
X125624575Y-73346325D01*
X125922961Y-73545700D01*
X125624575Y-73745075D01*
X125296361Y-74236282D01*
X125181108Y-74815700D01*
X125296361Y-75395118D01*
X125624575Y-75886325D01*
X125922961Y-76085700D01*
X125624575Y-76285075D01*
X125296361Y-76776282D01*
X125181108Y-77355700D01*
X125296361Y-77935118D01*
X125624575Y-78426325D01*
X125922961Y-78625700D01*
X125624575Y-78825075D01*
X125296361Y-79316282D01*
X125181108Y-79895700D01*
X125296361Y-80475118D01*
X125624575Y-80966325D01*
X125922961Y-81165700D01*
X125624575Y-81365075D01*
X125296361Y-81856282D01*
X125181108Y-82435700D01*
X125253991Y-82802108D01*
X122305730Y-85750369D01*
X122242272Y-85792770D01*
X122089689Y-86021127D01*
X122074298Y-86044162D01*
X122015313Y-86340699D01*
X122074298Y-86637236D01*
X122088201Y-86658044D01*
X122088201Y-87069220D01*
X122016783Y-86962335D01*
X121706158Y-86754782D01*
X121706158Y-85661138D01*
X122016783Y-85453585D01*
X122344997Y-84962378D01*
X122460250Y-84382960D01*
X122344997Y-83803542D01*
X122016783Y-83312335D01*
X121706158Y-83104782D01*
X121706158Y-82011138D01*
X122016783Y-81803585D01*
X122344997Y-81312378D01*
X122460250Y-80732960D01*
X122344997Y-80153542D01*
X122016783Y-79662335D01*
X121525576Y-79334121D01*
X121092414Y-79247960D01*
X120799902Y-79247960D01*
X120444800Y-79318594D01*
X120444800Y-79189711D01*
X120562231Y-79072280D01*
X120719800Y-78691874D01*
X120719800Y-78280126D01*
X120562231Y-77899720D01*
X120271080Y-77608569D01*
X119890674Y-77451000D01*
X119478926Y-77451000D01*
X119098520Y-77608569D01*
X118807369Y-77899720D01*
X118649800Y-78280126D01*
X118649800Y-78691874D01*
X118807369Y-79072280D01*
X118924800Y-79189711D01*
X118924800Y-79322032D01*
X118552414Y-79247960D01*
X118259902Y-79247960D01*
X117911201Y-79317321D01*
X117911201Y-78326859D01*
X118137480Y-78233131D01*
X118428631Y-77941980D01*
X118586200Y-77561574D01*
X118586200Y-77149826D01*
X118428631Y-76769420D01*
X118137480Y-76478269D01*
X117757074Y-76320700D01*
X117345326Y-76320700D01*
X116964920Y-76478269D01*
X116673769Y-76769420D01*
X116516200Y-77149826D01*
X116516200Y-77338083D01*
X116435297Y-77459163D01*
X116391201Y-77680848D01*
X116391201Y-77680852D01*
X116376313Y-77755699D01*
X116391201Y-77830546D01*
X116391201Y-79235520D01*
X115931754Y-79235520D01*
X115936300Y-79212668D01*
X115936300Y-79212664D01*
X115951188Y-79137817D01*
X115936300Y-79062970D01*
X115936300Y-75519411D01*
X116053731Y-75401980D01*
X116211300Y-75021574D01*
X116211300Y-74609826D01*
X116189164Y-74556385D01*
X116278526Y-74593400D01*
X116690274Y-74593400D01*
X117070680Y-74435831D01*
X117361831Y-74144680D01*
X117519400Y-73764274D01*
X117519400Y-73352526D01*
X117361831Y-72972120D01*
X117244400Y-72854689D01*
X117244400Y-53233878D01*
X117555025Y-53026325D01*
X117754400Y-52727939D01*
X117953775Y-53026325D01*
X118264400Y-53233878D01*
X118264401Y-70467088D01*
X118248569Y-70482920D01*
X118091000Y-70863326D01*
X118091000Y-71275074D01*
X118248569Y-71655480D01*
X118539720Y-71946631D01*
X118920126Y-72104200D01*
X119331874Y-72104200D01*
X119712280Y-71946631D01*
X120003431Y-71655480D01*
X120161000Y-71275074D01*
X120161000Y-70863326D01*
X120003431Y-70482920D01*
X119784400Y-70263889D01*
X119784400Y-53233878D01*
X120095025Y-53026325D01*
X120423239Y-52535118D01*
X120538492Y-51955700D01*
X120423239Y-51376282D01*
X120095025Y-50885075D01*
X119603818Y-50556861D01*
X119170656Y-50470700D01*
X118878144Y-50470700D01*
X118444982Y-50556861D01*
X117953775Y-50885075D01*
X117754400Y-51183461D01*
X117555025Y-50885075D01*
X117063818Y-50556861D01*
X116630656Y-50470700D01*
X116338144Y-50470700D01*
X115904982Y-50556861D01*
X115413775Y-50885075D01*
X115214400Y-51183461D01*
X115015025Y-50885075D01*
X114523818Y-50556861D01*
X114090656Y-50470700D01*
X113798144Y-50470700D01*
X113364982Y-50556861D01*
X112873775Y-50885075D01*
X112861584Y-50903319D01*
X112852557Y-50857935D01*
X112712209Y-50647891D01*
X112502165Y-50507543D01*
X112254400Y-50458260D01*
X110554400Y-50458260D01*
X110306635Y-50507543D01*
X110096591Y-50647891D01*
X109956243Y-50857935D01*
X109906960Y-51105700D01*
X109906960Y-52805700D01*
X109956243Y-53053465D01*
X110096591Y-53263509D01*
X110306635Y-53403857D01*
X110554400Y-53453140D01*
X110644400Y-53453140D01*
X110644401Y-67671057D01*
X110614920Y-67683268D01*
X110323769Y-67974419D01*
X110166200Y-68354825D01*
X110166200Y-68723244D01*
X109840220Y-68858269D01*
X109549069Y-69149420D01*
X109391500Y-69529826D01*
X109391500Y-69941574D01*
X109549069Y-70321980D01*
X109666500Y-70439411D01*
X109666501Y-88949590D01*
X109552280Y-88835369D01*
X109171874Y-88677800D01*
X109008999Y-88677800D01*
X109008999Y-42111512D01*
X109126430Y-41994081D01*
X109283999Y-41613675D01*
X109283999Y-41201927D01*
X109126430Y-40821521D01*
X108835279Y-40530370D01*
X108454873Y-40372801D01*
X108043125Y-40372801D01*
X107662719Y-40530370D01*
X107625461Y-40567628D01*
X107621292Y-35883850D01*
X107939000Y-35883850D01*
X107939000Y-37024410D01*
X108035673Y-37257799D01*
X108214302Y-37436427D01*
X108447691Y-37533100D01*
X109188250Y-37533100D01*
X109347000Y-37374350D01*
X109347000Y-35725100D01*
X108097750Y-35725100D01*
X107939000Y-35883850D01*
X107621292Y-35883850D01*
X107619768Y-34171790D01*
X107939000Y-34171790D01*
X107939000Y-35312350D01*
X108097750Y-35471100D01*
X109347000Y-35471100D01*
X109347000Y-33821850D01*
X109601000Y-33821850D01*
X109601000Y-35471100D01*
X109621000Y-35471100D01*
X109621000Y-35725100D01*
X109601000Y-35725100D01*
X109601000Y-37374350D01*
X109759750Y-37533100D01*
X110500309Y-37533100D01*
X110733698Y-37436427D01*
X110912327Y-37257799D01*
X110960889Y-37140561D01*
X111415074Y-37444038D01*
X112014000Y-37563172D01*
X112612927Y-37444038D01*
X113120673Y-37104773D01*
X113284000Y-36860336D01*
X113447328Y-37104773D01*
X113844801Y-37370356D01*
X113844800Y-42679489D01*
X113727369Y-42796920D01*
X113569800Y-43177326D01*
X113569800Y-43589074D01*
X113727369Y-43969480D01*
X114018520Y-44260631D01*
X114398926Y-44418200D01*
X114810674Y-44418200D01*
X115191080Y-44260631D01*
X115482231Y-43969480D01*
X115639800Y-43589074D01*
X115639800Y-43177326D01*
X115482231Y-42796920D01*
X115364800Y-42679489D01*
X115364800Y-37302469D01*
X115660673Y-37104773D01*
X115824000Y-36860336D01*
X115987328Y-37104773D01*
X116410201Y-37387328D01*
X116410200Y-41536489D01*
X116292769Y-41653920D01*
X116135200Y-42034326D01*
X116135200Y-42446074D01*
X116292769Y-42826480D01*
X116583920Y-43117631D01*
X116964326Y-43275200D01*
X117376074Y-43275200D01*
X117756480Y-43117631D01*
X118047631Y-42826480D01*
X118205200Y-42446074D01*
X118205200Y-42034326D01*
X118047631Y-41653920D01*
X117930200Y-41536489D01*
X117930200Y-37285497D01*
X118200673Y-37104773D01*
X118375703Y-36842823D01*
X118638394Y-37173312D01*
X119163914Y-37464856D01*
X119269260Y-37489136D01*
X119507000Y-37368478D01*
X119507000Y-35725100D01*
X119487000Y-35725100D01*
X119487000Y-35471100D01*
X119507000Y-35471100D01*
X119507000Y-33827722D01*
X119761000Y-33827722D01*
X119761000Y-35471100D01*
X119781000Y-35471100D01*
X119781000Y-35725100D01*
X119761000Y-35725100D01*
X119761000Y-37368478D01*
X119998740Y-37489136D01*
X120104086Y-37464856D01*
X120629606Y-37173312D01*
X120892298Y-36842822D01*
X121067328Y-37104773D01*
X121112405Y-37134893D01*
X120913728Y-37333570D01*
X120850270Y-37375972D01*
X120682295Y-37627365D01*
X120638199Y-37849050D01*
X120638199Y-37849054D01*
X120623311Y-37923901D01*
X120638199Y-37998748D01*
X120638200Y-53666089D01*
X120432969Y-53871320D01*
X120275400Y-54251726D01*
X120275400Y-54663474D01*
X120432969Y-55043880D01*
X120724120Y-55335031D01*
X121104526Y-55492600D01*
X121414001Y-55492600D01*
X121414001Y-56141488D01*
X121245769Y-56309720D01*
X121088200Y-56690126D01*
X121088200Y-57101874D01*
X121245769Y-57482280D01*
X121536920Y-57773431D01*
X121917326Y-57931000D01*
X121943798Y-57931000D01*
X121372199Y-58502600D01*
X121206126Y-58502600D01*
X120825720Y-58660169D01*
X120534569Y-58951320D01*
X120377000Y-59331726D01*
X120377000Y-59743474D01*
X120534569Y-60123880D01*
X120825720Y-60415031D01*
X121206126Y-60572600D01*
X121617874Y-60572600D01*
X121998280Y-60415031D01*
X122289431Y-60123880D01*
X122447000Y-59743474D01*
X122447000Y-59577401D01*
X122589012Y-59435389D01*
X122589012Y-59876586D01*
X121473799Y-60991800D01*
X121358526Y-60991800D01*
X120978120Y-61149369D01*
X120686969Y-61440520D01*
X120529400Y-61820926D01*
X120529400Y-62232674D01*
X120686969Y-62613080D01*
X120978120Y-62904231D01*
X121358526Y-63061800D01*
X121770274Y-63061800D01*
X121979778Y-62975021D01*
X121422999Y-63531800D01*
X121307726Y-63531800D01*
X120927320Y-63689369D01*
X120636169Y-63980520D01*
X120478600Y-64360926D01*
X120478600Y-64772674D01*
X120636169Y-65153080D01*
X120927320Y-65444231D01*
X121307726Y-65601800D01*
X121719474Y-65601800D01*
X122099880Y-65444231D01*
X122391031Y-65153080D01*
X122548600Y-64772674D01*
X122548600Y-64555801D01*
X123489611Y-63614791D01*
X123489611Y-64055986D01*
X121473799Y-66071800D01*
X121409326Y-66071800D01*
X121028920Y-66229369D01*
X120737769Y-66520520D01*
X120580200Y-66900926D01*
X120580200Y-67312674D01*
X120737769Y-67693080D01*
X121028920Y-67984231D01*
X121409326Y-68141800D01*
X121821074Y-68141800D01*
X122201480Y-67984231D01*
X122492631Y-67693080D01*
X122650200Y-67312674D01*
X122650200Y-67045001D01*
X124734086Y-64961117D01*
X124797539Y-64918719D01*
X124839937Y-64855266D01*
X124839939Y-64855264D01*
X124965513Y-64667328D01*
X124965514Y-64667327D01*
X125009610Y-64445642D01*
X125009610Y-64445638D01*
X125024498Y-64370791D01*
X125009610Y-64295944D01*
X125009610Y-43415830D01*
X125300280Y-43295431D01*
X125591431Y-43004280D01*
X125749000Y-42623874D01*
X125749000Y-42212126D01*
X125591431Y-41831720D01*
X125300280Y-41540569D01*
X125270396Y-41528191D01*
X125342600Y-41353874D01*
X125342600Y-40942126D01*
X125185031Y-40561720D01*
X124940965Y-40317654D01*
X125037800Y-40083874D01*
X125037800Y-39672126D01*
X124880231Y-39291720D01*
X124589080Y-39000569D01*
X124429114Y-38934309D01*
X124479000Y-38813874D01*
X124479000Y-38402126D01*
X124321431Y-38021720D01*
X124030280Y-37730569D01*
X123649874Y-37573000D01*
X123238126Y-37573000D01*
X122857720Y-37730569D01*
X122566569Y-38021720D01*
X122409000Y-38402126D01*
X122409000Y-38813874D01*
X122502729Y-39040155D01*
X122414531Y-39128353D01*
X122351072Y-39170755D01*
X122183097Y-39422148D01*
X122158199Y-39547318D01*
X122158199Y-38238703D01*
X122658475Y-37738427D01*
X122721929Y-37696029D01*
X122764327Y-37632576D01*
X122764329Y-37632574D01*
X122889903Y-37444638D01*
X122889904Y-37444637D01*
X122907972Y-37353804D01*
X123280673Y-37104773D01*
X123444000Y-36860336D01*
X123607328Y-37104773D01*
X124115074Y-37444038D01*
X124714000Y-37563172D01*
X125312927Y-37444038D01*
X125820673Y-37104773D01*
X125984000Y-36860336D01*
X126147328Y-37104773D01*
X126655074Y-37444038D01*
X127254000Y-37563172D01*
X127852927Y-37444038D01*
X128360673Y-37104773D01*
X128524000Y-36860336D01*
X128687328Y-37104773D01*
X129195074Y-37444038D01*
X129794000Y-37563172D01*
X130392927Y-37444038D01*
X130900673Y-37104773D01*
X131064000Y-36860336D01*
X131227328Y-37104773D01*
X131735074Y-37444038D01*
X132334000Y-37563172D01*
X132932927Y-37444038D01*
X133440673Y-37104773D01*
X133604000Y-36860336D01*
X133767328Y-37104773D01*
X134114001Y-37336412D01*
X134114001Y-37802688D01*
X133945769Y-37970920D01*
X133788200Y-38351326D01*
X133788200Y-38763074D01*
X133945769Y-39143480D01*
X134236920Y-39434631D01*
X134617326Y-39592200D01*
X135029074Y-39592200D01*
X135409480Y-39434631D01*
X135700631Y-39143480D01*
X135858200Y-38763074D01*
X135858200Y-38351326D01*
X135700631Y-37970920D01*
X135634000Y-37904289D01*
X135634000Y-37336412D01*
X135980673Y-37104773D01*
X136144000Y-36860336D01*
X136307328Y-37104773D01*
X136628601Y-37319440D01*
X136628600Y-39174289D01*
X136511169Y-39291720D01*
X136353600Y-39672126D01*
X136353600Y-40083874D01*
X136511169Y-40464280D01*
X136802320Y-40755431D01*
X137182726Y-40913000D01*
X137594474Y-40913000D01*
X137974880Y-40755431D01*
X138266031Y-40464280D01*
X138423600Y-40083874D01*
X138423600Y-39672126D01*
X138266031Y-39291720D01*
X138148600Y-39174289D01*
X138148600Y-37353384D01*
X138520673Y-37104773D01*
X138684000Y-36860336D01*
X138847328Y-37104773D01*
X139168601Y-37319441D01*
X139168600Y-40469689D01*
X139051169Y-40587120D01*
X138893600Y-40967526D01*
X138893600Y-41379274D01*
X139051169Y-41759680D01*
X139342320Y-42050831D01*
X139722726Y-42208400D01*
X140134474Y-42208400D01*
X140514880Y-42050831D01*
X140806031Y-41759680D01*
X140963600Y-41379274D01*
X140963600Y-40967526D01*
X140806031Y-40587120D01*
X140688600Y-40469689D01*
X140688600Y-37353384D01*
X141060673Y-37104773D01*
X141224000Y-36860336D01*
X141387328Y-37104773D01*
X141708601Y-37319441D01*
X141708600Y-41714289D01*
X141591169Y-41831720D01*
X141433600Y-42212126D01*
X141433600Y-42623874D01*
X141591169Y-43004280D01*
X141882320Y-43295431D01*
X142262726Y-43453000D01*
X142674474Y-43453000D01*
X143054880Y-43295431D01*
X143346031Y-43004280D01*
X143503600Y-42623874D01*
X143503600Y-42212126D01*
X143346031Y-41831720D01*
X143228600Y-41714289D01*
X143228600Y-39680342D01*
X173130667Y-39680342D01*
X173159108Y-40218644D01*
X173310389Y-40583869D01*
X173548226Y-40648169D01*
X174318395Y-39878000D01*
X174677605Y-39878000D01*
X175447774Y-40648169D01*
X175685611Y-40583869D01*
X175865333Y-40075658D01*
X175836892Y-39537356D01*
X175685611Y-39172131D01*
X175447774Y-39107831D01*
X174677605Y-39878000D01*
X174318395Y-39878000D01*
X173548226Y-39107831D01*
X173310389Y-39172131D01*
X173130667Y-39680342D01*
X143228600Y-39680342D01*
X143228600Y-38928226D01*
X173727831Y-38928226D01*
X174498000Y-39698395D01*
X175268169Y-38928226D01*
X175203869Y-38690389D01*
X174695658Y-38510667D01*
X174157356Y-38539108D01*
X173792131Y-38690389D01*
X173727831Y-38928226D01*
X143228600Y-38928226D01*
X143228600Y-37353384D01*
X143600673Y-37104773D01*
X143764000Y-36860336D01*
X143927328Y-37104773D01*
X144435074Y-37444038D01*
X145034000Y-37563172D01*
X145632927Y-37444038D01*
X146140673Y-37104773D01*
X146315703Y-36842823D01*
X146578394Y-37173312D01*
X147103914Y-37464856D01*
X147209260Y-37489136D01*
X147447000Y-37368478D01*
X147447000Y-35725100D01*
X147701000Y-35725100D01*
X147701000Y-37368478D01*
X147938740Y-37489136D01*
X148044086Y-37464856D01*
X148569606Y-37173312D01*
X148943554Y-36702852D01*
X149109000Y-36125100D01*
X149109000Y-35725100D01*
X147701000Y-35725100D01*
X147447000Y-35725100D01*
X147427000Y-35725100D01*
X147427000Y-35471100D01*
X147447000Y-35471100D01*
X147447000Y-33827722D01*
X147701000Y-33827722D01*
X147701000Y-35471100D01*
X149109000Y-35471100D01*
X149109000Y-35071100D01*
X148943554Y-34493348D01*
X148569606Y-34022888D01*
X148044086Y-33731344D01*
X147938740Y-33707064D01*
X147701000Y-33827722D01*
X147447000Y-33827722D01*
X147209260Y-33707064D01*
X147103914Y-33731344D01*
X146578394Y-34022888D01*
X146315703Y-34353377D01*
X146140673Y-34091427D01*
X145632926Y-33752162D01*
X145034000Y-33633028D01*
X144435073Y-33752162D01*
X143927327Y-34091427D01*
X143764000Y-34335863D01*
X143600673Y-34091427D01*
X143092926Y-33752162D01*
X142494000Y-33633028D01*
X141895073Y-33752162D01*
X141387327Y-34091427D01*
X141224000Y-34335863D01*
X141060673Y-34091427D01*
X140552926Y-33752162D01*
X139954000Y-33633028D01*
X139355073Y-33752162D01*
X138847327Y-34091427D01*
X138684000Y-34335863D01*
X138520673Y-34091427D01*
X138012926Y-33752162D01*
X137414000Y-33633028D01*
X136815073Y-33752162D01*
X136307327Y-34091427D01*
X136144000Y-34335863D01*
X135980673Y-34091427D01*
X135472926Y-33752162D01*
X134874000Y-33633028D01*
X134275073Y-33752162D01*
X133767327Y-34091427D01*
X133604000Y-34335863D01*
X133440673Y-34091427D01*
X132932926Y-33752162D01*
X132334000Y-33633028D01*
X131735073Y-33752162D01*
X131227327Y-34091427D01*
X131064000Y-34335863D01*
X130900673Y-34091427D01*
X130392926Y-33752162D01*
X129794000Y-33633028D01*
X129195073Y-33752162D01*
X128687327Y-34091427D01*
X128524000Y-34335863D01*
X128360673Y-34091427D01*
X127852926Y-33752162D01*
X127254000Y-33633028D01*
X126655073Y-33752162D01*
X126147327Y-34091427D01*
X125984000Y-34335863D01*
X125820673Y-34091427D01*
X125312926Y-33752162D01*
X124714000Y-33633028D01*
X124115073Y-33752162D01*
X123607327Y-34091427D01*
X123444000Y-34335863D01*
X123280673Y-34091427D01*
X122772926Y-33752162D01*
X122174000Y-33633028D01*
X121575073Y-33752162D01*
X121067327Y-34091427D01*
X120892298Y-34353378D01*
X120629606Y-34022888D01*
X120104086Y-33731344D01*
X119998740Y-33707064D01*
X119761000Y-33827722D01*
X119507000Y-33827722D01*
X119269260Y-33707064D01*
X119163914Y-33731344D01*
X118638394Y-34022888D01*
X118375703Y-34353377D01*
X118200673Y-34091427D01*
X117692926Y-33752162D01*
X117094000Y-33633028D01*
X116495073Y-33752162D01*
X115987327Y-34091427D01*
X115824000Y-34335863D01*
X115660673Y-34091427D01*
X115152926Y-33752162D01*
X114554000Y-33633028D01*
X113955073Y-33752162D01*
X113447327Y-34091427D01*
X113284000Y-34335863D01*
X113120673Y-34091427D01*
X112612926Y-33752162D01*
X112014000Y-33633028D01*
X111415073Y-33752162D01*
X110960888Y-34055638D01*
X110912327Y-33938401D01*
X110733698Y-33759773D01*
X110500309Y-33663100D01*
X109759750Y-33663100D01*
X109601000Y-33821850D01*
X109347000Y-33821850D01*
X109188250Y-33663100D01*
X108447691Y-33663100D01*
X108214302Y-33759773D01*
X108035673Y-33938401D01*
X107939000Y-34171790D01*
X107619768Y-34171790D01*
X107618854Y-33145400D01*
X181026746Y-33145400D01*
X181025122Y-34970922D01*
G36*
X141189002Y-79891905D02*
X141034631Y-79519221D01*
X140917200Y-79401790D01*
X140917200Y-68572511D01*
X141136231Y-68353480D01*
X141189002Y-68226080D01*
X141189002Y-79891905D01*
X141189002Y-79891905D01*
G37*
X141189002Y-79891905D02*
X141034631Y-79519221D01*
X140917200Y-79401790D01*
X140917200Y-68572511D01*
X141136231Y-68353480D01*
X141189002Y-68226080D01*
X141189002Y-79891905D01*
G36*
X121035782Y-101665339D02*
X121468944Y-101751500D01*
X121761456Y-101751500D01*
X122088202Y-101686506D01*
X122088202Y-104083894D01*
X122067696Y-104114583D01*
X122023886Y-104334831D01*
X121712975Y-104542575D01*
X121513600Y-104840961D01*
X121314225Y-104542575D01*
X121012440Y-104340929D01*
X121010201Y-104329672D01*
X121010201Y-101648246D01*
X121035782Y-101665339D01*
X121035782Y-101665339D01*
G37*
X121035782Y-101665339D02*
X121468944Y-101751500D01*
X121761456Y-101751500D01*
X122088202Y-101686506D01*
X122088202Y-104083894D01*
X122067696Y-104114583D01*
X122023886Y-104334831D01*
X121712975Y-104542575D01*
X121513600Y-104840961D01*
X121314225Y-104542575D01*
X121012440Y-104340929D01*
X121010201Y-104329672D01*
X121010201Y-101648246D01*
X121035782Y-101665339D01*
G36*
X115955782Y-101665339D02*
X116388944Y-101751500D01*
X116681456Y-101751500D01*
X116950201Y-101698043D01*
X116950202Y-104303078D01*
X116943886Y-104334831D01*
X116632975Y-104542575D01*
X116433600Y-104840961D01*
X116234225Y-104542575D01*
X115932440Y-104340929D01*
X115930201Y-104329672D01*
X115930201Y-101648246D01*
X115955782Y-101665339D01*
X115955782Y-101665339D01*
G37*
X115955782Y-101665339D02*
X116388944Y-101751500D01*
X116681456Y-101751500D01*
X116950201Y-101698043D01*
X116950202Y-104303078D01*
X116943886Y-104334831D01*
X116632975Y-104542575D01*
X116433600Y-104840961D01*
X116234225Y-104542575D01*
X115932440Y-104340929D01*
X115930201Y-104329672D01*
X115930201Y-101648246D01*
X115955782Y-101665339D01*
G36*
X118495782Y-101665339D02*
X118928944Y-101751500D01*
X119221456Y-101751500D01*
X119483601Y-101699356D01*
X119483600Y-104335022D01*
X119172975Y-104542575D01*
X118973600Y-104840961D01*
X118774225Y-104542575D01*
X118472440Y-104340929D01*
X118470201Y-104329672D01*
X118470201Y-101648246D01*
X118495782Y-101665339D01*
X118495782Y-101665339D01*
G37*
X118495782Y-101665339D02*
X118928944Y-101751500D01*
X119221456Y-101751500D01*
X119483601Y-101699356D01*
X119483600Y-104335022D01*
X119172975Y-104542575D01*
X118973600Y-104840961D01*
X118774225Y-104542575D01*
X118472440Y-104340929D01*
X118470201Y-104329672D01*
X118470201Y-101648246D01*
X118495782Y-101665339D01*
G36*
X124760199Y-103886347D02*
X124733272Y-103926646D01*
X124733271Y-103926647D01*
X124607697Y-104114582D01*
X124563887Y-104334830D01*
X124252975Y-104542575D01*
X124053600Y-104840961D01*
X123854225Y-104542575D01*
X123615782Y-104383253D01*
X123623089Y-104346518D01*
X123608201Y-104271670D01*
X123608201Y-101763940D01*
X124760199Y-101763940D01*
X124760199Y-103886347D01*
X124760199Y-103886347D01*
G37*
X124760199Y-103886347D02*
X124733272Y-103926646D01*
X124733271Y-103926647D01*
X124607697Y-104114582D01*
X124563887Y-104334830D01*
X124252975Y-104542575D01*
X124053600Y-104840961D01*
X123854225Y-104542575D01*
X123615782Y-104383253D01*
X123623089Y-104346518D01*
X123608201Y-104271670D01*
X123608201Y-101763940D01*
X124760199Y-101763940D01*
X124760199Y-103886347D01*
G36*
X110875782Y-101665339D02*
X111308944Y-101751500D01*
X111601456Y-101751500D01*
X111870202Y-101698043D01*
X111870202Y-104303078D01*
X111863886Y-104334831D01*
X111552975Y-104542575D01*
X111353600Y-104840961D01*
X111154225Y-104542575D01*
X110843600Y-104335022D01*
X110843600Y-101643836D01*
X110875782Y-101665339D01*
X110875782Y-101665339D01*
G37*
X110875782Y-101665339D02*
X111308944Y-101751500D01*
X111601456Y-101751500D01*
X111870202Y-101698043D01*
X111870202Y-104303078D01*
X111863886Y-104334831D01*
X111552975Y-104542575D01*
X111353600Y-104840961D01*
X111154225Y-104542575D01*
X110843600Y-104335022D01*
X110843600Y-101643836D01*
X110875782Y-101665339D01*
G36*
X113415782Y-101665339D02*
X113848944Y-101751500D01*
X114141456Y-101751500D01*
X114410201Y-101698043D01*
X114410202Y-104303078D01*
X114403886Y-104334831D01*
X114092975Y-104542575D01*
X113893600Y-104840961D01*
X113694225Y-104542575D01*
X113392440Y-104340929D01*
X113390201Y-104329672D01*
X113390201Y-101648246D01*
X113415782Y-101665339D01*
X113415782Y-101665339D01*
G37*
X113415782Y-101665339D02*
X113848944Y-101751500D01*
X114141456Y-101751500D01*
X114410201Y-101698043D01*
X114410202Y-104303078D01*
X114403886Y-104334831D01*
X114092975Y-104542575D01*
X113893600Y-104840961D01*
X113694225Y-104542575D01*
X113392440Y-104340929D01*
X113390201Y-104329672D01*
X113390201Y-101648246D01*
X113415782Y-101665339D01*
G36*
X126822200Y-95008700D02*
X126842200Y-95008700D01*
X126842200Y-95262700D01*
X126822200Y-95262700D01*
X126822200Y-96456519D01*
X127052092Y-96577186D01*
X127103601Y-96552996D01*
X127103600Y-104115760D01*
X127013600Y-104115760D01*
X126765835Y-104165043D01*
X126555791Y-104305391D01*
X126415443Y-104515435D01*
X126406416Y-104560819D01*
X126394225Y-104542575D01*
X126249120Y-104445619D01*
X126280199Y-104289372D01*
X126280199Y-104289367D01*
X126295087Y-104214520D01*
X126280199Y-104139673D01*
X126280199Y-96549896D01*
X126338308Y-96577186D01*
X126568200Y-96456519D01*
X126568200Y-95262700D01*
X126548200Y-95262700D01*
X126548200Y-95008700D01*
X126568200Y-95008700D01*
X126568200Y-94988700D01*
X126822200Y-94988700D01*
X126822200Y-95008700D01*
X126822200Y-95008700D01*
G37*
X126822200Y-95008700D02*
X126842200Y-95008700D01*
X126842200Y-95262700D01*
X126822200Y-95262700D01*
X126822200Y-96456519D01*
X127052092Y-96577186D01*
X127103601Y-96552996D01*
X127103600Y-104115760D01*
X127013600Y-104115760D01*
X126765835Y-104165043D01*
X126555791Y-104305391D01*
X126415443Y-104515435D01*
X126406416Y-104560819D01*
X126394225Y-104542575D01*
X126249120Y-104445619D01*
X126280199Y-104289372D01*
X126280199Y-104289367D01*
X126295087Y-104214520D01*
X126280199Y-104139673D01*
X126280199Y-96549896D01*
X126338308Y-96577186D01*
X126568200Y-96456519D01*
X126568200Y-95262700D01*
X126548200Y-95262700D01*
X126548200Y-95008700D01*
X126568200Y-95008700D01*
X126568200Y-94988700D01*
X126822200Y-94988700D01*
X126822200Y-95008700D01*
G36*
X113561320Y-77026631D02*
X113941726Y-77184200D01*
X114353474Y-77184200D01*
X114416301Y-77158176D01*
X114416301Y-78823014D01*
X114171130Y-79068185D01*
X114107671Y-79110587D01*
X113939696Y-79361980D01*
X113895600Y-79583665D01*
X113895600Y-79583669D01*
X113880712Y-79658516D01*
X113895600Y-79733363D01*
X113895601Y-98781500D01*
X113848944Y-98781500D01*
X113415782Y-98867661D01*
X113390201Y-98884754D01*
X113390201Y-76855512D01*
X113561320Y-77026631D01*
X113561320Y-77026631D01*
G37*
X113561320Y-77026631D02*
X113941726Y-77184200D01*
X114353474Y-77184200D01*
X114416301Y-77158176D01*
X114416301Y-78823014D01*
X114171130Y-79068185D01*
X114107671Y-79110587D01*
X113939696Y-79361980D01*
X113895600Y-79583665D01*
X113895600Y-79583669D01*
X113880712Y-79658516D01*
X113895600Y-79733363D01*
X113895601Y-98781500D01*
X113848944Y-98781500D01*
X113415782Y-98867661D01*
X113390201Y-98884754D01*
X113390201Y-76855512D01*
X113561320Y-77026631D01*
G36*
X112873775Y-53026325D02*
X113364982Y-53354539D01*
X113387601Y-53359038D01*
X113387600Y-71324589D01*
X113185074Y-71240700D01*
X112773326Y-71240700D01*
X112392920Y-71398269D01*
X112101769Y-71689420D01*
X111944200Y-72069826D01*
X111944200Y-72481574D01*
X112101769Y-72861980D01*
X112219200Y-72979411D01*
X112219201Y-75739000D01*
X112145731Y-75812470D01*
X112082272Y-75854872D01*
X111914297Y-76106265D01*
X111870201Y-76327950D01*
X111870201Y-76327954D01*
X111855313Y-76402801D01*
X111870201Y-76477648D01*
X111870202Y-98834957D01*
X111601456Y-98781500D01*
X111308944Y-98781500D01*
X111186500Y-98805856D01*
X111186500Y-70439411D01*
X111303931Y-70321980D01*
X111461500Y-69941574D01*
X111461500Y-69573155D01*
X111787480Y-69438130D01*
X112078631Y-69146979D01*
X112236200Y-68766573D01*
X112236200Y-68354825D01*
X112164400Y-68181484D01*
X112164400Y-53453140D01*
X112254400Y-53453140D01*
X112502165Y-53403857D01*
X112712209Y-53263509D01*
X112852557Y-53053465D01*
X112861584Y-53008081D01*
X112873775Y-53026325D01*
X112873775Y-53026325D01*
G37*
X112873775Y-53026325D02*
X113364982Y-53354539D01*
X113387601Y-53359038D01*
X113387600Y-71324589D01*
X113185074Y-71240700D01*
X112773326Y-71240700D01*
X112392920Y-71398269D01*
X112101769Y-71689420D01*
X111944200Y-72069826D01*
X111944200Y-72481574D01*
X112101769Y-72861980D01*
X112219200Y-72979411D01*
X112219201Y-75739000D01*
X112145731Y-75812470D01*
X112082272Y-75854872D01*
X111914297Y-76106265D01*
X111870201Y-76327950D01*
X111870201Y-76327954D01*
X111855313Y-76402801D01*
X111870201Y-76477648D01*
X111870202Y-98834957D01*
X111601456Y-98781500D01*
X111308944Y-98781500D01*
X111186500Y-98805856D01*
X111186500Y-70439411D01*
X111303931Y-70321980D01*
X111461500Y-69941574D01*
X111461500Y-69573155D01*
X111787480Y-69438130D01*
X112078631Y-69146979D01*
X112236200Y-68766573D01*
X112236200Y-68354825D01*
X112164400Y-68181484D01*
X112164400Y-53453140D01*
X112254400Y-53453140D01*
X112502165Y-53403857D01*
X112712209Y-53263509D01*
X112852557Y-53053465D01*
X112861584Y-53008081D01*
X112873775Y-53026325D01*
G36*
X125253991Y-85342108D02*
X125035727Y-85560372D01*
X124972271Y-85602772D01*
X124929871Y-85666228D01*
X124929870Y-85666229D01*
X124804296Y-85854164D01*
X124745311Y-86150701D01*
X124760200Y-86225553D01*
X124760199Y-98769060D01*
X123608201Y-98769060D01*
X123608201Y-86597500D01*
X125189220Y-85016482D01*
X125253991Y-85342108D01*
X125253991Y-85342108D01*
G37*
X125253991Y-85342108D02*
X125035727Y-85560372D01*
X124972271Y-85602772D01*
X124929871Y-85666228D01*
X124929870Y-85666229D01*
X124804296Y-85854164D01*
X124745311Y-86150701D01*
X124760200Y-86225553D01*
X124760199Y-98769060D01*
X123608201Y-98769060D01*
X123608201Y-86597500D01*
X125189220Y-85016482D01*
X125253991Y-85342108D01*
G36*
X115413775Y-53026325D02*
X115724400Y-53233878D01*
X115724401Y-72854688D01*
X115606969Y-72972120D01*
X115449400Y-73352526D01*
X115449400Y-73764274D01*
X115471536Y-73817715D01*
X115382174Y-73780700D01*
X114970426Y-73780700D01*
X114907600Y-73806723D01*
X114907600Y-53098104D01*
X115015025Y-53026325D01*
X115214400Y-52727939D01*
X115413775Y-53026325D01*
X115413775Y-53026325D01*
G37*
X115413775Y-53026325D02*
X115724400Y-53233878D01*
X115724401Y-72854688D01*
X115606969Y-72972120D01*
X115449400Y-73352526D01*
X115449400Y-73764274D01*
X115471536Y-73817715D01*
X115382174Y-73780700D01*
X114970426Y-73780700D01*
X114907600Y-73806723D01*
X114907600Y-53098104D01*
X115015025Y-53026325D01*
X115214400Y-52727939D01*
X115413775Y-53026325D01*
G04 #@! TD*
M02*
