M48
;DRILL file {KiCad 5.0.2-bee76a0~70~ubuntu18.04.1} date Sat 06 Apr 2019 03:39:35 PM PDT
;FORMAT={-:-/ absolute / metric / decimal}
FMAT,2
METRIC,TZ
T1C0.400
T2C0.800
T3C1.000
T4C1.200
T5C1.300
T6C2.200
T7C2.500
%
G90
G05
T1
X108.249Y-41.408
X108.966Y-89.713
X110.426Y-69.736
X111.201Y-68.561
X111.354Y-102.921
X111.506Y-77.622
X111.506Y-82.093
X111.506Y-86.614
X112.776Y-57.658
X112.776Y-61.925
X112.776Y-65.43
X112.979Y-72.276
X113.538Y-78.283
X113.538Y-82.194
X113.538Y-86.665
X114.097Y-102.921
X114.148Y-76.149
X114.605Y-43.383
X115.176Y-74.816
X115.316Y-57.658
X115.316Y-61.976
X115.316Y-65.43
X115.875Y-98.196
X116.484Y-73.558
X116.688Y-102.921
X117.17Y-42.24
X117.551Y-77.356
X118.262Y-97.079
X118.415Y-82.448
X118.415Y-86.055
X118.415Y-89.713
X118.415Y-93.421
X119.024Y-102.921
X119.126Y-71.069
X119.685Y-78.486
X121.31Y-54.458
X121.412Y-59.538
X121.514Y-64.567
X121.564Y-62.027
X121.615Y-67.107
X121.615Y-102.921
X122.123Y-56.896
X122.174Y-42.266
X123.139Y-83.82
X123.444Y-38.608
X124.003Y-39.878
X124.104Y-87.427
X124.206Y-89.306
X124.206Y-95.352
X124.206Y-102.921
X124.308Y-41.148
X124.714Y-42.418
X128.93Y-126.746
X131.115Y-51.956
X131.369Y-92.202
X133.147Y-51.765
X133.198Y-77.114
X133.35Y-83.972
X134.01Y-54.305
X134.01Y-74.778
X134.01Y-126.746
X134.823Y-38.557
X134.823Y-49.276
X134.823Y-79.705
X134.976Y-82.448
X135.941Y-46.736
X136.449Y-108.712
X136.703Y-111.1
X137.058Y-88.494
X137.389Y-39.878
X137.465Y-70.612
X137.516Y-70.663
X138.633Y-38.506
X139.09Y-126.746
X139.929Y-41.173
X140.157Y-80.106
X140.259Y-67.767
X140.259Y-106.07
X141.224Y-39.218
X141.224Y-73.152
X141.275Y-97.079
X141.949Y-63.666
X142.469Y-42.418
X142.697Y-110.947
X142.85Y-75.026
X142.85Y-79.451
X143.408Y-103.835
X143.408Y-104.851
X143.612Y-97.231
X144.17Y-126.746
X144.831Y-86.309
X144.983Y-84.023
X145.085Y-41.199
X145.948Y-85.242
X146.406Y-108.407
X146.406Y-109.525
X146.609Y-71.388
X146.609Y-77.165
X147.574Y-108.407
X147.574Y-109.525
X148.692Y-89.205
X148.793Y-108.407
X148.793Y-109.525
X153.111Y-133.807
X154.076Y-44.806
X154.076Y-67.742
X154.534Y-82.194
X154.534Y-95.402
X156.108Y-96.52
X156.261Y-98.196
X160.376Y-95.961
X160.731Y-97.028
X163.424Y-55.27
X165.303Y-99.416
X167.335Y-52.629
X171.399Y-96.012
T2
X174.498Y-39.878
X174.498Y-44.958
X177.038Y-42.418
T3
X110.084Y-105.613
X112.624Y-105.613
X115.164Y-105.613
X117.704Y-105.613
X120.244Y-105.613
X122.784Y-105.613
X125.324Y-105.613
X127.864Y-105.613
X160.274Y-92.253
X162.814Y-92.253
X165.354Y-92.253
X111.455Y-100.266
X113.995Y-100.266
X116.535Y-100.266
X119.075Y-100.266
X121.615Y-100.266
X124.155Y-100.266
X126.695Y-51.956
X126.695Y-54.496
X126.695Y-57.036
X126.695Y-59.576
X126.695Y-62.116
X126.695Y-64.656
X126.695Y-67.196
X126.695Y-69.736
X126.695Y-72.276
X126.695Y-74.816
X126.695Y-77.356
X126.695Y-79.896
X126.695Y-82.436
X126.695Y-84.976
X126.695Y-87.516
X126.695Y-90.056
X126.695Y-92.596
X126.695Y-95.136
X129.235Y-51.956
X129.235Y-54.496
X129.235Y-57.036
X129.235Y-59.576
X129.235Y-62.116
X129.235Y-64.656
X129.235Y-67.196
X129.235Y-69.736
X129.235Y-72.276
X129.235Y-74.816
X129.235Y-77.356
X129.235Y-79.896
X129.235Y-82.436
X129.235Y-84.976
X129.235Y-87.516
X129.235Y-90.056
X129.235Y-92.596
X129.235Y-95.136
X148.323Y-99.66
X153.111Y-125.619
X115.866Y-91.683
X118.406Y-91.683
X120.946Y-91.683
X161.621Y-99.45
X115.866Y-88.033
X118.406Y-88.033
X120.946Y-88.033
X115.866Y-80.733
X118.406Y-80.733
X120.946Y-80.733
X171.4Y-99.399
X143.612Y-92.253
X146.152Y-92.253
X148.692Y-92.253
X151.232Y-92.253
X115.866Y-95.333
X118.406Y-95.333
X120.946Y-95.333
X149.809Y-74.473
X149.809Y-77.013
X149.809Y-79.553
X149.809Y-82.093
X149.809Y-84.633
X137.871Y-44.196
X137.871Y-46.736
X137.871Y-49.276
X137.871Y-51.816
X137.871Y-54.356
X137.871Y-56.896
X137.871Y-59.436
X137.871Y-61.976
X138.582Y-99.619
X137.516Y-73.85
X137.516Y-76.391
X137.516Y-78.93
X137.516Y-81.471
X137.516Y-84.01
X111.404Y-51.956
X113.944Y-51.956
X116.484Y-51.956
X119.024Y-51.956
X176.137Y-125.383
X115.866Y-84.383
X118.406Y-84.383
X120.946Y-84.383
X148.26Y-125.581
X171.311Y-125.396
T4
X109.474Y-35.598
X112.014Y-35.598
X114.554Y-35.598
X117.094Y-35.598
X119.634Y-35.598
X122.174Y-35.598
X124.714Y-35.598
X127.254Y-35.598
X129.794Y-35.598
X132.334Y-35.598
X134.874Y-35.598
X137.414Y-35.598
X139.954Y-35.598
X142.494Y-35.598
X145.034Y-35.598
X147.574Y-35.598
X159.509Y-47.85
X159.509Y-51.35
X159.509Y-54.85
X159.509Y-58.35
T5
X111.013Y-115.367
X116.013Y-115.367
X121.013Y-115.367
X126.013Y-115.367
X131.013Y-115.367
X168.468Y-61.984
X171.668Y-52.684
X172.868Y-55.384
X175.768Y-62.484
X179.668Y-57.884
T6
X114.097Y-133.858
X153.314Y-143.307
X165.1Y-143.307
X128.067Y-133.858
X121.056Y-133.858
T7
X178.973Y-66.599
X178.974Y-35.598
T0
M30
